<?xml version="1.0" encoding="utf-8"?>
<!-- Generator: Adobe Illustrator 21.0.0, SVG Export Plug-In . SVG Version: 6.00 Build 0)  -->
<svg version="1.1" id="Layer_1" xmlns="http://www.w3.org/2000/svg" xmlns:xlink="http://www.w3.org/1999/xlink" x="0px" y="0px"
	 viewBox="0 0 180 180" style="enable-background:new 0 0 180 180;" xml:space="preserve">
<style type="text/css">
	.st0{fill:#FFFFFF;}
	.st1{fill:none;stroke:#FFFFFF;stroke-width:1.307;stroke-linecap:round;stroke-miterlimit:10;}
	.st2{fill:#E3253C;}
</style>
<polyline class="st0" points="32.2,30.2 32.3,30.2 32.3,55 37.7,55 37.7,22.6 33.4,22.6 28.4,28.5 28.4,34.2 28.4,34.2 32.2,30.2 
	"/>
<path class="st0" d="M133.7,85.8c0-2.5,2-4.5,4.5-4.5c2.5,0,4.4,2,4.4,4.5c0,2.5-2,4.5-4.4,4.5C135.7,90.3,133.7,88.3,133.7,85.8"/>
<path class="st0" d="M143.4,92c3,0.3,5.4,2.8,5.4,5.9v12.3c0,1-0.8,1.7-1.7,1.7c-1,0-1.7-0.8-1.7-1.7V99.6c0-0.4-0.1-0.9-0.8-0.9
	c-0.5,0-0.6,0.5-0.6,0.9v31.8c0,1.4-1.1,2.5-2.5,2.5c-1.4,0-2.5-1.1-2.5-2.5V113c0-0.2-0.1-0.7-0.7-0.7h0c-0.6,0-0.7,0.5-0.7,0.7
	v18.3c0,1.4-1.1,2.5-2.5,2.5c-1.4,0-2.5-1.1-2.5-2.5V99.6c0-0.3-0.1-0.9-0.6-0.9c-0.7,0-0.8,0.5-0.8,0.9v10.6c0,1-0.8,1.7-1.7,1.7
	c-1,0-1.7-0.8-1.7-1.7V97.9c0-3.1,2.4-5.6,5.4-5.9c0.1,0,0.2,0,0.3,0h9.7C143.2,91.9,143.3,92,143.4,92"/>
<path class="st0" d="M107.2,88.1c0-2.3-1.9-4.2-4.2-4.2c-2.3,0-4.2,1.9-4.2,4.2c0,2.3,1.9,4.2,4.2,4.2
	C105.3,92.4,107.2,90.5,107.2,88.1"/>
<path class="st0" d="M94.5,97.7L91,109.1c0,0-0.6,2.1,1.2,2.6c1.8,0.5,2.3-1.5,2.3-1.5l2.8-9.5c0,0,0.2-0.7,0.7-0.6
	c0.6,0.2,0.3,0.9,0.3,0.9l-4.9,17.9H98v12.8c0,1.2,1,2.2,2.2,2.2c1.2,0,2.2-1,2.2-2.2v-12.8h1.2v12.8c0,1.2,1,2.2,2.2,2.2
	c1.2,0,2.2-1,2.2-2.2v-12.8h4.6l-4.9-17.9c0,0-0.2-0.8,0.3-0.9c0.6-0.2,0.7,0.6,0.7,0.6l2.8,9.5c0,0,0.5,2,2.3,1.5
	c1.8-0.5,1.2-2.6,1.2-2.6l-3.5-11.4c0,0-1.3-3.3-4-3.3h-8.9C95.8,94.4,94.5,97.7,94.5,97.7"/>
<path class="st0" d="M81.9,88.1c0-2.3-1.9-4.2-4.2-4.2c-2.3,0-4.2,1.9-4.2,4.2c0,2.3,1.9,4.2,4.2,4.2C80.1,92.4,81.9,90.5,81.9,88.1
	"/>
<path class="st0" d="M69.2,97.7l-3.5,11.4c0,0-0.6,2.1,1.1,2.6c1.8,0.5,2.3-1.5,2.3-1.5l2.8-9.5c0,0,0.2-0.7,0.7-0.6
	c0.6,0.2,0.3,0.9,0.3,0.9l-4.9,17.9h4.6v12.8c0,1.2,1,2.2,2.2,2.2c1.2,0,2.2-1,2.2-2.2v-12.8h1.2v12.8c0,1.2,1,2.2,2.2,2.2
	c1.2,0,2.2-1,2.2-2.2v-12.8h4.6L82.4,101c0,0-0.2-0.8,0.3-0.9c0.6-0.2,0.7,0.6,0.7,0.6l2.8,9.5c0,0,0.5,2,2.3,1.5
	c1.8-0.5,1.1-2.6,1.1-2.6l-3.5-11.4c0,0-1.3-3.3-4-3.3h-8.9C70.5,94.4,69.2,97.7,69.2,97.7"/>
<path class="st0" d="M121.4,111.7c1.9,0,3.5-1.6,3.5-3.5c0-1.9-1.6-3.5-3.5-3.5s-3.5,1.6-3.5,3.5
	C117.9,110.2,119.4,111.7,121.4,111.7"/>
<path class="st0" d="M113,122.7c-0.2,0.4-0.3,1.3,0.5,1.7c1,0.4,1.5-0.5,1.5-0.5l1.9-6.1c0,0,0.3-0.4,0.3,0v14.3h0
	c0,1,0.8,1.8,1.8,1.8c1,0,1.8-0.8,1.8-1.8v-5.7c0,0-0.1-0.8,0.5-0.8c0.6,0,0.5,0.8,0.5,0.8v5.7c0,1,0.8,1.8,1.8,1.8
	c1,0,1.8-0.8,1.8-1.8v-14.3c0-0.4,0.2-0.1,0.2-0.1l1.5,4.2c0,0,0.7,1.9,0.8,1.9c0.7,0.3,1.5,0,1.7-0.7c0.2-0.4,0.1-0.9-0.1-1.3l0,0
	c0-0.1-2.2-5.5-2.5-6.3c-0.8-2.3-2.2-2.3-3.6-2.3c-1.4,0-2.2,0-2.2,0s-0.9,0-2.7,0c-1.8,0.1-2.4,1-4.4,6.2
	C113.9,120.1,113,122.5,113,122.7L113,122.7"/>
<path class="st0" d="M44.3,85.8c0-2.5-2-4.5-4.5-4.5c-2.5,0-4.5,2-4.5,4.5c0,2.5,2,4.5,4.5,4.5C42.3,90.3,44.3,88.3,44.3,85.8"/>
<path class="st0" d="M34.6,92c-3,0.3-5.4,2.8-5.4,5.9v12.3c0,1,0.8,1.7,1.7,1.7c1,0,1.7-0.8,1.7-1.7V99.6c0-0.4,0.1-0.9,0.8-0.9
	c0.5,0,0.6,0.5,0.6,0.9v31.8c0,1.4,1.1,2.5,2.5,2.5c1.4,0,2.5-1.1,2.5-2.5V113c0-0.2,0.1-0.7,0.7-0.7h0c0.6,0,0.7,0.5,0.7,0.7v18.3
	c0,1.4,1.1,2.5,2.5,2.5c1.4,0,2.5-1.1,2.5-2.5V99.6c0-0.3,0.1-0.9,0.6-0.9c0.7,0,0.8,0.5,0.8,0.9v10.6c0,1,0.8,1.7,1.7,1.7
	c1,0,1.7-0.8,1.7-1.7V97.9c0-3.1-2.4-5.6-5.4-5.9c-0.1,0-0.2,0-0.3,0h-9.7C34.8,91.9,34.7,92,34.6,92"/>
<line class="st1" x1="30.7" y1="112" x2="26.8" y2="133"/>
<path class="st0" d="M52.5,109.9c-0.2-0.4-0.6-0.6-1.1-0.6c-0.7,0-1.3,0.6-1.3,1.3c0,0.2,0.1,0.6,0.1,0.6l3.5,6.4
	c0,0,0.2,0.4,0.2,0.8v13.8h0c0,1,0.8,1.7,1.7,1.7c1,0,1.7-0.8,1.7-1.7v-5.4c0,0-0.1-0.8,0.5-0.8c0.6,0,0.5,0.8,0.5,0.8v5.4
	c0,1,0.8,1.7,1.7,1.7c1,0,1.7-0.8,1.7-1.7v-13.8c0-0.4,0.2-0.8,0.2-0.8l3.3-5.9c0,0,0.4-0.8,0.4-1.1c0-0.7-0.6-1.3-1.3-1.3
	c-0.5,0-0.9,0.2-1.1,0.6l0,0c-0.1,0.1-1.7,3-2.3,3.5c-0.6,0.6-1.1,0.5-1.1,0.5h-4.3c0,0-0.5,0.1-1.1-0.5
	C54.3,112.9,52.6,110,52.5,109.9L52.5,109.9"/>
<path class="st0" d="M58,111.7c1.9,0,3.5-1.6,3.5-3.5c0-1.9-1.6-3.5-3.5-3.5c-1.9,0-3.5,1.6-3.5,3.5C54.5,110.2,56.1,111.7,58,111.7
	"/>
<polyline class="st0" points="58,116.7 62,119.6 63.9,126.5 52.2,126.5 54.1,119.6 58,116.7 "/>
<polyline class="st0" points="57.9,27.2 57.9,35.5 56.1,35.5 56.1,22.3 58.2,22.3 60.6,29.9 60.6,22.3 62.5,22.3 62.5,35.5 
	60.5,35.5 57.9,27.2 "/>
<path class="st0" d="M63.9,32.1v-6.4c0-2.1,1-3.5,3.3-3.5c2.3,0,3.4,1.5,3.4,3.5v6.4c0,2-1,3.5-3.4,3.5
	C64.9,35.6,63.9,34.1,63.9,32.1 M68.4,32.4v-7.1c0-0.8-0.3-1.4-1.1-1.4c-0.8,0-1.1,0.6-1.1,1.4v7.1c0,0.8,0.4,1.4,1.1,1.4
	C68,33.8,68.4,33.2,68.4,32.4z"/>
<path class="st0" d="M56.1,41.8h3.3c2.2,0,3,1.1,3,2.9v2.8c0,1.8-0.8,3-3,3h-1.1V55h-2.2V41.8 M58.3,43.6v5.2h0.8
	c0.8,0,1.1-0.4,1.1-1.1v-3c0-0.7-0.3-1.1-1.1-1.1H58.3z"/>
<path class="st0" d="M63.7,51.6v-6.4c0-2.1,1-3.5,3.3-3.5c2.3,0,3.4,1.5,3.4,3.5v6.4c0,2-1,3.5-3.4,3.5
	C64.7,55.1,63.7,53.6,63.7,51.6 M68.2,51.9v-7.1c0-0.8-0.3-1.4-1.1-1.4c-0.8,0-1.1,0.6-1.1,1.4v7.1c0,0.8,0.3,1.4,1.1,1.4
	C67.8,53.3,68.2,52.7,68.2,51.9z"/>
<polyline class="st0" points="78.6,41.8 76.1,55 73.6,55 71.1,41.8 73.4,41.8 74.9,51 74.9,51 76.5,41.8 78.6,41.8 "/>
<polyline class="st0" points="79.7,41.8 84.9,41.8 84.9,43.6 81.9,43.6 81.9,47.4 84.1,47.4 84.1,49.2 81.9,49.2 81.9,53.1 
	84.9,53.1 84.9,55 79.7,55 79.7,41.8 "/>
<path class="st0" d="M88.5,48.9v6h-2.2V41.8h3.2c2.2,0,3,1.1,3,2.9v1.7c0,1.4-0.5,2.3-1.8,2.5l2.1,6h-2.3L88.5,48.9 M88.5,43.6v4.1
	h0.7c0.8,0,1.1-0.4,1.1-1.1v-1.9c0-0.7-0.3-1.1-1.1-1.1H88.5z"/>
<polyline class="st0" points="93.5,41.8 99.4,41.8 99.4,43.6 97.6,43.6 97.6,55 95.4,55 95.4,43.6 93.5,43.6 93.5,41.8 "/>
<polyline class="st0" points="104.9,49.9 104.9,55 102.7,55 102.7,49.9 100.3,41.8 102.6,41.8 103.9,46.8 103.9,46.8 105.3,41.8 
	107.4,41.8 104.9,49.9 "/>
<rect x="9.8" y="9.8" class="st2" width="160.9" height="160.9"/>
<polyline class="st0" points="32.3,31 32.3,31 32.3,55.8 37.8,55.8 37.8,23.3 33.4,23.3 28.4,29.2 28.4,34.9 28.5,34.9 32.3,31 "/>
<path class="st0" d="M133.7,86.6c0-2.5,2-4.5,4.5-4.5c2.5,0,4.4,2,4.4,4.5c0,2.5-2,4.5-4.4,4.5C135.7,91,133.7,89,133.7,86.6"/>
<path class="st0" d="M143.4,92.7c3,0.3,5.4,2.8,5.4,5.9V111c0,1-0.8,1.7-1.7,1.7c-1,0-1.7-0.8-1.7-1.7v-10.6c0-0.4-0.1-0.9-0.8-0.9
	c-0.5,0-0.6,0.5-0.6,0.9v31.8c0,1.4-1.1,2.5-2.5,2.5c-1.4,0-2.5-1.1-2.5-2.5v-18.3c0-0.2-0.1-0.7-0.7-0.7h0c-0.6,0-0.7,0.5-0.7,0.7
	v18.3c0,1.4-1.1,2.5-2.5,2.5c-1.4,0-2.5-1.1-2.5-2.5v-31.8c0-0.3-0.1-0.9-0.6-0.9c-0.7,0-0.8,0.5-0.8,0.9V111c0,1-0.8,1.7-1.7,1.7
	c-1,0-1.7-0.8-1.7-1.7V98.7c0-3.1,2.4-5.6,5.4-5.9c0.1,0,0.2,0,0.3,0h9.7C143.2,92.7,143.3,92.7,143.4,92.7"/>
<path class="st0" d="M107.3,88.9c0-2.3-1.9-4.2-4.2-4.2c-2.3,0-4.2,1.9-4.2,4.2c0,2.3,1.9,4.2,4.2,4.2
	C105.4,93.1,107.3,91.2,107.3,88.9"/>
<path class="st0" d="M94.5,98.5L91,109.9c0,0-0.6,2.1,1.2,2.6c1.8,0.5,2.3-1.5,2.3-1.5l2.8-9.5c0,0,0.2-0.7,0.7-0.6
	c0.6,0.2,0.3,0.9,0.3,0.9l-4.9,17.9H98v12.8c0,1.2,1,2.2,2.2,2.2c1.2,0,2.2-1,2.2-2.2v-12.8h1.2v12.8c0,1.2,1,2.2,2.2,2.2
	c1.2,0,2.2-1,2.2-2.2v-12.8h4.6l-4.9-17.9c0,0-0.2-0.8,0.3-0.9c0.6-0.2,0.7,0.6,0.7,0.6l2.8,9.5c0,0,0.5,2,2.3,1.5
	c1.8-0.5,1.2-2.6,1.2-2.6l-3.5-11.4c0,0-1.3-3.3-4-3.3h-8.9C95.8,95.2,94.5,98.5,94.5,98.5"/>
<path class="st0" d="M82,88.9c0-2.3-1.9-4.2-4.2-4.2c-2.3,0-4.2,1.9-4.2,4.2c0,2.3,1.9,4.2,4.2,4.2C80.1,93.1,82,91.2,82,88.9"/>
<path class="st0" d="M69.3,98.5l-3.5,11.4c0,0-0.6,2.1,1.1,2.6c1.8,0.5,2.3-1.5,2.3-1.5l2.8-9.5c0,0,0.2-0.7,0.7-0.6
	c0.6,0.2,0.3,0.9,0.3,0.9l-4.9,17.9h4.6v12.8c0,1.2,1,2.2,2.2,2.2c1.2,0,2.2-1,2.2-2.2v-12.8h1.2v12.8c0,1.2,1,2.2,2.2,2.2
	c1.2,0,2.2-1,2.2-2.2v-12.8h4.6l-4.9-17.9c0,0-0.2-0.8,0.3-0.9c0.6-0.2,0.7,0.6,0.7,0.6l2.8,9.5c0,0,0.5,2,2.3,1.5
	c1.8-0.5,1.1-2.6,1.1-2.6l-3.5-11.4c0,0-1.3-3.3-4-3.3h-8.9C70.5,95.2,69.3,98.5,69.3,98.5"/>
<path class="st0" d="M121.4,112.5c1.9,0,3.5-1.6,3.5-3.5c0-1.9-1.6-3.5-3.5-3.5s-3.5,1.6-3.5,3.5
	C117.9,110.9,119.5,112.5,121.4,112.5"/>
<path class="st0" d="M113,123.4c-0.2,0.4-0.3,1.3,0.5,1.7c1,0.4,1.5-0.5,1.5-0.5l1.9-6.1c0,0,0.3-0.4,0.3,0v14.3h0
	c0,1,0.8,1.8,1.8,1.8c1,0,1.8-0.8,1.8-1.8v-5.7c0,0-0.1-0.8,0.5-0.8c0.6,0,0.5,0.8,0.5,0.8v5.7c0,1,0.8,1.8,1.8,1.8
	c1,0,1.8-0.8,1.8-1.8v-14.3c0-0.4,0.2-0.1,0.2-0.1l1.5,4.2c0,0,0.7,1.9,0.8,1.9c0.7,0.3,1.5,0,1.7-0.7c0.2-0.4,0.1-0.9-0.1-1.3l0,0
	c0-0.1-2.2-5.5-2.5-6.3c-0.8-2.3-2.2-2.3-3.6-2.3c-1.4,0-2.2,0-2.2,0s-0.9,0-2.7,0c-1.8,0.1-2.4,1-4.4,6.2
	C114,120.9,113,123.3,113,123.4L113,123.4"/>
<path class="st0" d="M44.3,86.6c0-2.5-2-4.5-4.5-4.5c-2.5,0-4.5,2-4.5,4.5c0,2.5,2,4.5,4.5,4.5C42.3,91,44.3,89,44.3,86.6"/>
<path class="st0" d="M34.6,92.7c-3,0.3-5.4,2.8-5.4,5.9V111c0,1,0.8,1.7,1.7,1.7c1,0,1.7-0.8,1.7-1.7v-10.6c0-0.4,0.1-0.9,0.8-0.9
	c0.5,0,0.6,0.5,0.6,0.9v31.8c0,1.4,1.1,2.5,2.5,2.5c1.4,0,2.5-1.1,2.5-2.5v-18.3c0-0.2,0.1-0.7,0.7-0.7h0c0.6,0,0.7,0.5,0.7,0.7
	v18.3c0,1.4,1.1,2.5,2.5,2.5c1.4,0,2.5-1.1,2.5-2.5v-31.8c0-0.3,0.1-0.9,0.6-0.9c0.7,0,0.8,0.5,0.8,0.9V111c0,1,0.8,1.7,1.7,1.7
	c1,0,1.7-0.8,1.7-1.7V98.7c0-3.1-2.4-5.6-5.4-5.9c-0.1,0-0.2,0-0.3,0H35C34.9,92.7,34.8,92.7,34.6,92.7"/>
<line class="st1" x1="30.8" y1="112.8" x2="26.8" y2="133.8"/>
<path class="st0" d="M52.6,110.7c-0.2-0.4-0.6-0.6-1.1-0.6c-0.7,0-1.3,0.6-1.3,1.3c0,0.2,0.1,0.6,0.1,0.6l3.5,6.4
	c0,0,0.2,0.4,0.2,0.8v13.8h0c0,1,0.8,1.7,1.7,1.7c1,0,1.7-0.8,1.7-1.7v-5.4c0,0-0.1-0.8,0.5-0.8c0.6,0,0.5,0.8,0.5,0.8v5.4
	c0,1,0.8,1.7,1.7,1.7c1,0,1.7-0.8,1.7-1.7v-13.8c0-0.4,0.2-0.8,0.2-0.8l3.3-5.9c0,0,0.4-0.8,0.4-1.1c0-0.7-0.6-1.3-1.3-1.3
	c-0.5,0-0.9,0.2-1.1,0.6l0,0c-0.1,0.1-1.7,3-2.3,3.5c-0.6,0.6-1.1,0.5-1.1,0.5h-4.3c0,0-0.5,0.1-1.1-0.5
	C54.3,113.7,52.7,110.8,52.6,110.7L52.6,110.7"/>
<path class="st0" d="M58.1,112.5c1.9,0,3.5-1.6,3.5-3.5c0-1.9-1.6-3.5-3.5-3.5c-1.9,0-3.5,1.6-3.5,3.5
	C54.6,110.9,56.1,112.5,58.1,112.5"/>
<polyline class="st0" points="58.1,117.4 62,120.3 63.9,127.3 52.2,127.3 54.1,120.3 58.1,117.4 "/>
<polyline class="st0" points="58,28 58,36.3 56.1,36.3 56.1,23.1 58.3,23.1 60.6,30.7 60.6,23.1 62.5,23.1 62.5,36.3 60.6,36.3 
	58,28 "/>
<path class="st0" d="M63.9,32.9v-6.4c0-2.1,1-3.5,3.3-3.5c2.3,0,3.4,1.5,3.4,3.5v6.4c0,2-1,3.5-3.4,3.5C65,36.4,63.9,34.9,63.9,32.9
	 M68.4,33.2v-7.1c0-0.8-0.3-1.4-1.1-1.4c-0.8,0-1.1,0.6-1.1,1.4v7.1c0,0.8,0.4,1.4,1.1,1.4C68.1,34.6,68.4,34,68.4,33.2z"/>
<path class="st0" d="M56.1,42.6h3.3c2.2,0,3,1.1,3,2.9v2.8c0,1.8-0.8,3-3,3h-1.1v4.5h-2.2V42.6 M58.3,44.4v5.2h0.8
	c0.8,0,1.1-0.4,1.1-1.1v-3c0-0.7-0.3-1.1-1.1-1.1H58.3z"/>
<path class="st0" d="M63.8,52.3V46c0-2.1,1-3.5,3.3-3.5c2.3,0,3.4,1.5,3.4,3.5v6.4c0,2-1,3.5-3.4,3.5C64.8,55.9,63.8,54.4,63.8,52.3
	 M68.2,52.7v-7.1c0-0.8-0.3-1.4-1.1-1.4c-0.8,0-1.1,0.6-1.1,1.4v7.1c0,0.8,0.3,1.4,1.1,1.4C67.9,54,68.2,53.5,68.2,52.7z"/>
<polyline class="st0" points="78.6,42.6 76.1,55.7 73.7,55.7 71.2,42.6 73.4,42.6 74.9,51.7 75,51.7 76.5,42.6 78.6,42.6 "/>
<polyline class="st0" points="79.7,42.6 85,42.6 85,44.4 81.9,44.4 81.9,48.1 84.1,48.1 84.1,49.9 81.9,49.9 81.9,53.9 85,53.9 
	85,55.7 79.7,55.7 79.7,42.6 "/>
<path class="st0" d="M88.6,49.7v6h-2.2V42.6h3.2c2.2,0,3,1.1,3,2.9v1.7c0,1.4-0.5,2.3-1.8,2.5l2.1,6h-2.3L88.6,49.7 M88.6,44.4v4.1
	h0.7c0.8,0,1.1-0.4,1.1-1.1v-1.9c0-0.7-0.3-1.1-1.1-1.1H88.6z"/>
<polyline class="st0" points="93.6,42.6 99.4,42.6 99.4,44.4 97.6,44.4 97.6,55.7 95.4,55.7 95.4,44.4 93.6,44.4 93.6,42.6 "/>
<polyline class="st0" points="105,50.7 105,55.7 102.8,55.7 102.8,50.7 100.3,42.6 102.6,42.6 104,47.6 104,47.6 105.3,42.6 
	107.4,42.6 105,50.7 "/>
</svg>
