<?xml version="1.0" encoding="utf-8"?>
<!-- Generator: Adobe Illustrator 21.0.0, SVG Export Plug-In . SVG Version: 6.00 Build 0)  -->
<svg version="1.1" id="Layer_1" xmlns="http://www.w3.org/2000/svg" xmlns:xlink="http://www.w3.org/1999/xlink" x="0px" y="0px"
	 viewBox="0 0 180 180" style="enable-background:new 0 0 180 180;" xml:space="preserve">
<style type="text/css">
	.st0{fill:#C5202E;}
	.st1{fill:#FFFFFF;}
</style>
<rect x="8.3" y="9.5" class="st0" width="160.9" height="160.9"/>
<path class="st1" d="M33.6,55.5h5.2v-5.3h2.2v-4.3h-2.2V23h-5.4l-9.4,23.8v3.3h9.6V55.5 M28.7,45.9l4.9-13.4h0v13.4H28.7z"/>
<polyline class="st1" points="79.7,95.8 50.8,79.2 50.8,133.1 79.7,141.8 79.7,95.8 "/>
<polyline class="st1" points="82.9,95.9 82.9,141.8 111.9,133.1 111.9,79.2 82.9,95.9 "/>
<path class="st1" d="M134.6,77.8c0-1.9-1.5-3.4-3.4-3.4c-1.9,0-3.4,1.5-3.4,3.4v3.7h6.8V77.8"/>
<polyline class="st1" points="128.6,132.1 127.8,132.1 131.2,144 134.6,132.1 133.7,132.1 134.6,132.1 134.6,84.1 127.8,84.1 
	127.8,132.1 128.6,132.1 "/>
<polyline class="st1" points="118.1,81.5 115,79 115,134.5 83,144.9 79.7,144.9 47.8,136 47.8,79 44.7,81.5 44.7,138.1 79.6,147.8 
	83.1,147.8 115.3,137.6 118.1,136.7 118.1,81.5 "/>
<polyline class="st1" points="54.3,42.3 59.6,42.3 59.6,44.1 56.5,44.1 56.5,47.9 58.7,47.9 58.7,49.6 56.5,49.6 56.5,53.6 
	59.6,53.6 59.6,55.4 54.3,55.4 54.3,42.3 "/>
<path class="st1" d="M67.5,45.8v6.1c0,2-0.8,3.5-3.2,3.5h-3.4V42.3h3.4C66.7,42.3,67.5,43.8,67.5,45.8 M64.1,53.6
	c0.9,0,1.3-0.5,1.3-1.3v-6.9c0-0.8-0.3-1.3-1.3-1.3h-0.9v9.5H64.1z"/>
<path class="st1" d="M75.4,42.3v9.9c0,2-0.9,3.4-3.1,3.4c-2.3,0-3.3-1.3-3.3-3.4v-9.9h2.2v10.2c0,0.8,0.3,1.3,1.1,1.3
	c0.8,0,1.1-0.5,1.1-1.3V42.3H75.4"/>
<path class="st1" d="M76.9,52.1v-6.4c0-2.1,1-3.5,3.3-3.5c2.4,0,3.1,1.4,3.1,3.3V47h-2v-1.7c0-0.8-0.3-1.3-1.1-1.3
	c-0.8,0-1.1,0.6-1.1,1.4v7.1c0,0.8,0.3,1.4,1.1,1.4c0.8,0,1.1-0.5,1.1-1.3v-2.4h2v2.3c0,1.9-0.8,3.3-3.1,3.3
	C77.8,55.6,76.9,54.1,76.9,52.1"/>
<path class="st1" d="M84,55.4l2.5-13.1H89l2.5,13.1h-2.3L88.8,53h-2.3l-0.4,2.4H84 M86.8,51.3h1.8L87.6,46h0L86.8,51.3z"/>
<polyline class="st1" points="91.2,42.3 97.1,42.3 97.1,44.1 95.3,44.1 95.3,55.4 93,55.4 93,44.1 91.2,44.1 91.2,42.3 "/>
<rect x="98.3" y="42.3" class="st1" width="2.2" height="13.1"/>
<path class="st1" d="M102,52.1v-6.4c0-2.1,1-3.5,3.3-3.5c2.3,0,3.4,1.5,3.4,3.5v6.4c0,2-1,3.5-3.4,3.5C103,55.6,102,54.1,102,52.1
	 M106.5,52.4v-7.1c0-0.8-0.3-1.4-1.1-1.4c-0.8,0-1.1,0.6-1.1,1.4v7.1c0,0.8,0.3,1.4,1.1,1.4C106.1,53.8,106.5,53.2,106.5,52.4z"/>
<polyline class="st1" points="112,47.2 112,55.4 110.1,55.4 110.1,42.3 112.3,42.3 114.7,49.8 114.7,42.3 116.5,42.3 116.5,55.4 
	114.6,55.4 112,47.2 "/>
<path class="st1" d="M56.8,37v-0.9c-1.8-0.3-2.5-1.6-2.5-3.4v-6.4c0-2.1,1-3.5,3.3-3.5c2.3,0,3.4,1.5,3.4,3.5v6.4
	c0,1.4-0.5,2.6-1.6,3.1l1.6,0.3v1.6L56.8,37 M58.8,33.2v-7.2c0-0.8-0.3-1.4-1.1-1.4c-0.8,0-1.1,0.6-1.1,1.4v7.2
	c0,0.8,0.3,1.4,1.1,1.4C58.4,34.6,58.8,34,58.8,33.2z"/>
<path class="st1" d="M68.9,23V33c0,2-0.9,3.4-3.1,3.4c-2.3,0-3.3-1.3-3.3-3.4V23h2.2v10.2c0,0.8,0.3,1.3,1.1,1.3
	c0.8,0,1.1-0.5,1.1-1.3V23H68.9"/>
<path class="st1" d="M69.7,36.2L72.2,23h2.5l2.5,13.1h-2.3l-0.4-2.4h-2.3l-0.4,2.4H69.7 M72.5,32h1.8l-0.9-5.3h0L72.5,32z"/>
<polyline class="st1" points="78.3,23 80.5,23 80.5,34.4 83.1,34.4 83.1,36.2 78.3,36.2 78.3,23 "/>
<rect x="84.1" y="23" class="st1" width="2.2" height="13.1"/>
<polyline class="st1" points="87.4,23 93.3,23 93.3,24.8 91.4,24.8 91.4,36.2 89.2,36.2 89.2,24.8 87.4,24.8 87.4,23 "/>
<polyline class="st1" points="98.6,31.2 98.6,36.2 96.4,36.2 96.4,31.2 94,23 96.3,23 97.6,28 97.6,28 99,23 101.1,23 98.6,31.2 "/>
</svg>
