<?xml version="1.0" encoding="utf-8"?>
<!-- Generator: Adobe Illustrator 21.0.0, SVG Export Plug-In . SVG Version: 6.00 Build 0)  -->
<svg version="1.1" id="Layer_1" xmlns="http://www.w3.org/2000/svg" xmlns:xlink="http://www.w3.org/1999/xlink" x="0px" y="0px"
	 viewBox="0 0 180 180" style="enable-background:new 0 0 180 180;" xml:space="preserve">
<style type="text/css">
	.st0{fill:#FFFFFF;}
	.st1{fill:#07699E;}
</style>
<polyline class="st0" points="21,28.9 21,34.6 21,34.6 24.9,30.6 24.9,30.6 24.9,55.5 30.4,55.5 30.4,23 26,23 21,28.9 "/>
<path class="st0" d="M49.5,47.7v-4.8c0-5.3-2.1-8-6-8c-2.3,0-3.7,1.1-4.5,2.6h0v-7c0-2,0.6-3.4,2.6-3.4c2,0,2.5,1.1,2.5,3.2v2.2h5
	v-1.7c0-4.8-1.6-8.1-7.6-8.1c-5.7,0-7.9,3.7-7.9,8.8v15.8c0,5,2.2,8.7,7.9,8.7C47.2,55.9,49.5,52.7,49.5,47.7 M44.1,48.2
	c0,2.1-0.8,3.3-2.6,3.3c-1.8,0-2.5-1.2-2.5-3.3v-5.9c0.1-1.8,0.9-3,2.6-3c1.9,0,2.6,1.1,2.6,3.3V48.2z"/>
<path class="st0" d="M121.2,64.4c0,0-1.9,2.5-1.3,4.9c0.5,2.4,3.3,3.8,3.3,3.8s1.9-2.5,1.3-4.9C124,65.8,121.2,64.4,121.2,64.4"/>
<path class="st0" d="M118.2,78.5c0,0,1.9-2.5,1.3-4.9c-0.5-2.4-3.3-3.8-3.3-3.8s-1.9,2.5-1.3,4.9C115.5,77,118.2,78.5,118.2,78.5"/>
<path class="st0" d="M125.8,75.8c0,0,2,2,4.2,1.8c2.2-0.2,3.9-2.5,3.9-2.5s-2-2-4.2-1.8C127.5,73.5,125.8,75.8,125.8,75.8"/>
<path class="st0" d="M129.1,65.3c-1.8,1.8-1.6,5.1-1.6,5.1s3.2,0.3,5-1.6c1.8-1.8,1.6-5.1,1.6-5.1S130.9,63.4,129.1,65.3"/>
<path class="st0" d="M125.1,83.2c2.2,0.3,4.3-1.6,4.3-1.6s-1.5-2.3-3.7-2.6c-2.2-0.3-4.3,1.6-4.3,1.6S122.8,82.9,125.1,83.2"/>
<path class="st0" d="M127,121.8h-16.6c-1.3,0-2.4,1-2.4,2.3c0,1.3,1.1,2.4,2.4,2.4H127c1.3,0,2.3-1.1,2.3-2.4
	C129.4,122.8,128.3,121.8,127,121.8"/>
<path class="st0" d="M127,147.7h-16.6c-1.3,0-2.4,1-2.4,2.3c0,1.3,1.1,2.4,2.4,2.4H127c1.3,0,2.3-1.1,2.3-2.4
	C129.4,148.7,128.3,147.7,127,147.7"/>
<path class="st0" d="M52.3,116.1c-0.4-0.1-0.8-0.2-1.2-0.3C51.2,115.8,51.6,115.9,52.3,116.1"/>
<path class="st0" d="M126.4,128.1H111c-0.7,0-1.3,0.6-1.3,1.3v4.7l-10,1.1L85,134.9v-9c2-0.3,3.9-0.6,5.8-1.2
	c14.1-4,17.2-15.7,16.9-23.8c-0.3-8.2,2.3-11.4,6.1-12.9c1.1-0.4,2.2-0.7,3.1-0.8c0,2,0.5,4.4,1.4,7.2c0.3,0,0.7,0,1-0.1
	c-1-2.9-1.4-5.2-1.4-7.2c2-0.2,3.4-0.1,3.4-0.1s-1.3-0.7-3.2-2.3c0.6-3.9,3-6.3,5.4-8.7c1.3-1.3,2.7-2.7,3.7-4.4l-0.8-0.5
	c-1,1.6-2.3,2.9-3.6,4.2c-2.3,2.4-4.7,4.8-5.5,8.7c-0.8-0.7-1.6-1.5-2.4-2.4c-3.5-3.9-8-1-14.4,4.9c-6.4,6-14.4,6.2-22.3-1.9
	C67.8,74,58.7,74.1,52.5,74.7c4.2,1.8,5.7,5.8,7.9,15.9c2.3,10.6,7.9,15.4,15.7,16c-4.3,1.5-4.5,4-10.3,8
	c-4.5,3.1-10.9,2.1-13.5,1.5c4.7,1.5,10.3,6.4,15.4,8.2c2.9,1,6,1.6,9.2,1.9v8.6l-26.3-0.6v6l49.1-1.1l10,1.1v4.7
	c0,0.7,0.6,1.3,1.3,1.3h15.4c0.7,0,1.3-0.6,1.3-1.3v-15.3C127.8,128.7,127.2,128.1,126.4,128.1 M79.3,126.2c1.1,0,2.2,0,3.3-0.1v8.7
	l-3.3-0.1V126.2z"/>
<path class="st0" d="M49.1,139.1c0,1.3-0.9,2.3-2,2.3h-1.2c-1.1,0-2-1-2-2.3V135c0-1.3,0.9-2.3,2-2.3h1.2c1.1,0,2,1,2,2.3V139.1"/>
<rect x="8.6" y="9.5" class="st1" width="160.9" height="160.9"/>
<polyline class="st0" points="21,28.9 21,34.6 21,34.6 24.9,30.6 24.9,30.6 24.9,55.5 30.4,55.5 30.4,23 26,23 21,28.9 "/>
<path class="st0" d="M49.5,47.7v-4.8c0-5.3-2.1-8-6-8c-2.3,0-3.7,1.1-4.5,2.6h0v-7c0-2,0.6-3.4,2.6-3.4c2,0,2.5,1.1,2.5,3.2v2.2h5
	v-1.7c0-4.8-1.6-8.1-7.6-8.1c-5.7,0-7.9,3.7-7.9,8.8v15.8c0,5,2.2,8.7,7.9,8.7C47.2,55.9,49.5,52.7,49.5,47.7 M44.1,48.2
	c0,2.1-0.8,3.3-2.6,3.3c-1.8,0-2.5-1.2-2.5-3.3v-5.9c0.1-1.8,0.9-3,2.6-3c1.9,0,2.6,1.1,2.6,3.3V48.2z"/>
<path class="st0" d="M121.2,64.4c0,0-1.9,2.5-1.3,4.9c0.5,2.4,3.3,3.8,3.3,3.8s1.9-2.5,1.3-4.9C124,65.8,121.2,64.4,121.2,64.4"/>
<path class="st0" d="M118.2,78.5c0,0,1.9-2.5,1.3-4.9c-0.5-2.4-3.3-3.8-3.3-3.8s-1.9,2.5-1.3,4.9C115.5,77,118.2,78.5,118.2,78.5"/>
<path class="st0" d="M125.8,75.8c0,0,2,2,4.2,1.8c2.2-0.2,3.9-2.5,3.9-2.5s-2-2-4.2-1.8C127.5,73.5,125.8,75.8,125.8,75.8"/>
<path class="st0" d="M129.1,65.3c-1.8,1.8-1.6,5.1-1.6,5.1s3.2,0.3,5-1.6c1.8-1.8,1.6-5.1,1.6-5.1S130.9,63.4,129.1,65.3"/>
<path class="st0" d="M125.1,83.2c2.2,0.3,4.3-1.6,4.3-1.6s-1.5-2.3-3.7-2.6c-2.2-0.3-4.3,1.6-4.3,1.6S122.8,82.9,125.1,83.2"/>
<path class="st0" d="M127,121.8h-16.6c-1.3,0-2.4,1-2.4,2.3c0,1.3,1.1,2.4,2.4,2.4H127c1.3,0,2.3-1.1,2.3-2.4
	C129.4,122.8,128.3,121.8,127,121.8"/>
<path class="st0" d="M127,147.7h-16.6c-1.3,0-2.4,1-2.4,2.3c0,1.3,1.1,2.4,2.4,2.4H127c1.3,0,2.3-1.1,2.3-2.4
	C129.4,148.7,128.3,147.7,127,147.7"/>
<path class="st0" d="M52.3,116.1c-0.4-0.1-0.8-0.2-1.2-0.3C51.2,115.8,51.6,115.9,52.3,116.1"/>
<path class="st0" d="M126.4,128.1H111c-0.7,0-1.3,0.6-1.3,1.3v4.7l-10,1.1L85,134.9v-9c2-0.3,3.9-0.6,5.8-1.2
	c14.1-4,17.2-15.7,16.9-23.8c-0.3-8.2,2.3-11.4,6.1-12.9c1.1-0.4,2.2-0.7,3.1-0.8c0,2,0.5,4.4,1.4,7.2c0.3,0,0.7,0,1-0.1
	c-1-2.9-1.4-5.2-1.4-7.2c2-0.2,3.4-0.1,3.4-0.1s-1.3-0.7-3.2-2.3c0.6-3.9,3-6.3,5.4-8.7c1.3-1.3,2.7-2.7,3.7-4.4l-0.8-0.5
	c-1,1.6-2.3,2.9-3.6,4.2c-2.3,2.4-4.7,4.8-5.5,8.7c-0.8-0.7-1.6-1.5-2.4-2.4c-3.5-3.9-8-1-14.4,4.9c-6.4,6-14.4,6.2-22.3-1.9
	C67.8,74,58.7,74.1,52.5,74.7c4.2,1.8,5.7,5.8,7.9,15.9c2.3,10.6,7.9,15.4,15.7,16c-4.3,1.5-4.5,4-10.3,8
	c-4.5,3.1-10.9,2.1-13.5,1.5c4.7,1.5,10.3,6.4,15.4,8.2c2.9,1,6,1.6,9.2,1.9v8.6l-26.3-0.6v6l49.1-1.1l10,1.1v4.7
	c0,0.7,0.6,1.3,1.3,1.3h15.4c0.7,0,1.3-0.6,1.3-1.3v-15.3C127.8,128.7,127.2,128.1,126.4,128.1 M79.3,126.2c1.1,0,2.2,0,3.3-0.1v8.7
	l-3.3-0.1V126.2z"/>
<path class="st0" d="M49.1,139.1c0,1.3-0.9,2.3-2,2.3h-1.2c-1.1,0-2-1-2-2.3V135c0-1.3,0.9-2.3,2-2.3h1.2c1.1,0,2,1,2,2.3V139.1"/>
<path class="st0" d="M59.9,23h2.6c1.8,0,2.4,0.9,2.4,2.3v2.2c0,1.5-0.6,2.3-2.4,2.3h-0.8v3.5h-1.7V23 M61.6,24.4v4.1h0.6
	c0.6,0,0.9-0.3,0.9-0.9v-2.4c0-0.6-0.3-0.8-0.9-0.8H61.6z"/>
<polyline class="st0" points="65.6,23 69.8,23 69.8,24.4 67.4,24.4 67.4,27.4 69.1,27.4 69.1,28.8 67.4,28.8 67.4,32 69.8,32 
	69.8,33.4 65.6,33.4 65.6,23 "/>
<path class="st0" d="M70.5,33.4l2-10.4h2l2,10.4h-1.8l-0.3-1.9h-1.8l-0.3,1.9H70.5 M72.7,30.1H74l-0.7-4.2h0L72.7,30.1z"/>
<path class="st0" d="M77,30.7v-5c0-1.6,0.8-2.8,2.6-2.8c1.9,0,2.5,1.1,2.5,2.6v1.2h-1.6v-1.4c0-0.6-0.2-1-0.8-1
	c-0.6,0-0.9,0.4-0.9,1.1V31c0,0.6,0.3,1.1,0.9,1.1c0.6,0,0.8-0.4,0.8-1v-1.9H82v1.8c0,1.5-0.6,2.6-2.5,2.6
	C77.7,33.5,77,32.3,77,30.7"/>
<polyline class="st0" points="83,23 87.1,23 87.1,24.4 84.7,24.4 84.7,27.4 86.4,27.4 86.4,28.8 84.7,28.8 84.7,32 87.1,32 
	87.1,33.4 83,33.4 83,23 "/>
<path class="st0" d="M90.6,33.4l2-10.4h2l2,10.4h-1.8l-0.3-1.9h-1.8l-0.3,1.9H90.6 M92.7,30.1h1.4l-0.7-4.2h0L92.7,30.1z"/>
<polyline class="st0" points="98.5,26.9 98.5,33.4 97.1,33.4 97.1,23 98.8,23 100.7,29 100.7,23 102.1,23 102.1,33.4 100.6,33.4 
	98.5,26.9 "/>
<path class="st0" d="M108.5,25.8v4.8c0,1.6-0.7,2.8-2.5,2.8h-2.7V23h2.7C107.8,23,108.5,24.2,108.5,25.8 M105.7,32
	c0.7,0,1-0.4,1-1.1v-5.4c0-0.6-0.3-1-1-1H105V32H105.7z"/>
<path class="st0" d="M115.8,23v8c0,1.5-0.7,2.5-2.4,2.5c-1.8,0-2.3-1-2.3-2.3v-2.1h1.7v2.1c0,0.5,0.2,0.8,0.6,0.8
	c0.5,0,0.7-0.3,0.7-0.8V23H115.8"/>
<path class="st0" d="M122,23v7.8c0,1.6-0.7,2.6-2.5,2.6c-1.8,0-2.6-1-2.6-2.6V23h1.7v8c0,0.6,0.2,1,0.9,1c0.6,0,0.9-0.4,0.9-1v-8
	H122"/>
<path class="st0" d="M122.9,31.1v-1.4h1.6v1.4c0,0.6,0.3,0.9,0.9,0.9c0.5,0,0.8-0.4,0.8-0.9v-0.4c0-0.6-0.2-1-0.8-1.5l-1-1
	c-1-1-1.5-1.6-1.5-2.8v-0.4c0-1.3,0.7-2.3,2.4-2.3c1.7,0,2.4,0.9,2.4,2.4v0.8h-1.6v-0.9c0-0.6-0.3-0.9-0.8-0.9
	c-0.5,0-0.8,0.3-0.8,0.9v0.2c0,0.6,0.3,0.9,0.8,1.4l1.1,1.1c0.9,1,1.4,1.5,1.4,2.7v0.5c0,1.4-0.8,2.4-2.5,2.4
	C123.6,33.5,122.9,32.5,122.9,31.1"/>
<polyline class="st0" points="128.4,23 133,23 133,24.4 131.5,24.4 131.5,33.4 129.8,33.4 129.8,24.4 128.4,24.4 128.4,23 "/>
<rect x="133.9" y="23" class="st0" width="1.7" height="10.4"/>
<path class="st0" d="M136.8,30.7v-5c0-1.6,0.8-2.8,2.6-2.8c1.9,0,2.5,1.1,2.5,2.6v1.2h-1.6v-1.4c0-0.6-0.2-1-0.8-1
	c-0.6,0-0.9,0.4-0.9,1.1V31c0,0.6,0.3,1.1,0.9,1.1c0.6,0,0.8-0.4,0.8-1v-1.9h1.6v1.8c0,1.5-0.6,2.6-2.5,2.6
	C137.6,33.5,136.8,32.3,136.8,30.7"/>
<polyline class="st0" points="143,23 147.1,23 147.1,24.4 144.7,24.4 144.7,27.4 146.4,27.4 146.4,28.8 144.7,28.8 144.7,32 
	147.1,32 147.1,33.4 143,33.4 143,23 "/>
<path class="st0" d="M59.8,50.4V49h1.6v1.4c0,0.6,0.3,0.9,0.9,0.9c0.5,0,0.8-0.4,0.8-0.9V50c0-0.6-0.2-1-0.8-1.5l-1-1
	c-1-1-1.5-1.6-1.5-2.8v-0.4c0-1.3,0.7-2.3,2.4-2.3c1.7,0,2.4,0.9,2.4,2.4v0.8h-1.6v-0.9c0-0.6-0.3-0.9-0.8-0.9
	c-0.5,0-0.8,0.3-0.8,0.9v0.2c0,0.6,0.3,0.9,0.8,1.4l1.1,1.1c0.9,1,1.4,1.5,1.4,2.7v0.5c0,1.4-0.8,2.4-2.5,2.4
	C60.5,52.7,59.8,51.7,59.8,50.4"/>
<polyline class="st0" points="65.6,42.2 70.2,42.2 70.2,43.6 68.8,43.6 68.8,52.6 67,52.6 67,43.6 65.6,43.6 65.6,42.2 "/>
<path class="st0" d="M72.9,47.8v4.8h-1.7V42.2h2.5c1.8,0,2.4,0.9,2.4,2.3v1.3c0,1.1-0.4,1.8-1.4,2l1.7,4.7h-1.8L72.9,47.8
	 M72.9,43.6v3.2h0.6c0.6,0,0.9-0.3,0.9-0.9v-1.5c0-0.6-0.3-0.8-0.9-0.8H72.9z"/>
<path class="st0" d="M77.1,49.9v-5c0-1.6,0.8-2.8,2.6-2.8c1.9,0,2.6,1.2,2.6,2.8v5c0,1.6-0.8,2.8-2.6,2.8
	C77.9,52.7,77.1,51.5,77.1,49.9 M80.6,50.2v-5.6c0-0.6-0.3-1.1-0.9-1.1c-0.6,0-0.9,0.4-0.9,1.1v5.6c0,0.6,0.3,1.1,0.9,1.1
	C80.3,51.3,80.6,50.8,80.6,50.2z"/>
<polyline class="st0" points="84.9,46.1 84.9,52.6 83.4,52.6 83.4,42.2 85.1,42.2 87,48.2 87,42.2 88.5,42.2 88.5,52.6 86.9,52.6 
	84.9,46.1 "/>
<path class="st0" d="M92.2,47.1h2.5v5.5h-1.3v-1.1c-0.2,0.8-0.7,1.3-1.7,1.3c-1.5,0-2.2-1.2-2.2-2.8v-5c0-1.6,0.8-2.8,2.6-2.8
	c1.9,0,2.5,1.1,2.5,2.6v0.9h-1.6v-1.1c0-0.6-0.2-1-0.9-1c-0.6,0-0.9,0.4-0.9,1.1v5.6c0,0.6,0.3,1.1,0.9,1.1c0.6,0,0.9-0.3,0.9-1
	v-1.8h-0.8V47.1"/>
<rect x="97.4" y="42.2" class="st0" width="1.7" height="10.4"/>
<polyline class="st0" points="101.7,46.1 101.7,52.6 100.2,52.6 100.2,42.2 101.9,42.2 103.8,48.2 103.8,42.2 105.3,42.2 
	105.3,52.6 103.7,52.6 101.7,46.1 "/>
<path class="st0" d="M106.2,50.4V49h1.6v1.4c0,0.6,0.3,0.9,0.9,0.9c0.5,0,0.8-0.4,0.8-0.9V50c0-0.6-0.2-1-0.8-1.5l-1-1
	c-1-1-1.5-1.6-1.5-2.8v-0.4c0-1.3,0.7-2.3,2.4-2.3c1.7,0,2.4,0.9,2.4,2.4v0.8h-1.6v-0.9c0-0.6-0.3-0.9-0.8-0.9
	c-0.5,0-0.8,0.3-0.8,0.9v0.2c0,0.6,0.3,0.9,0.8,1.4l1.1,1.1c0.9,1,1.4,1.5,1.4,2.7v0.5c0,1.4-0.8,2.4-2.5,2.4
	C106.9,52.7,106.2,51.7,106.2,50.4"/>
<polyline class="st0" points="112,42.2 116.7,42.2 116.7,43.6 115.2,43.6 115.2,52.6 113.5,52.6 113.5,43.6 112,43.6 112,42.2 "/>
<rect x="117.6" y="42.2" class="st0" width="1.7" height="10.4"/>
<polyline class="st0" points="120.2,42.2 124.8,42.2 124.8,43.6 123.4,43.6 123.4,52.6 121.6,52.6 121.6,43.6 120.2,43.6 
	120.2,42.2 "/>
<path class="st0" d="M130.8,42.2v7.8c0,1.6-0.7,2.6-2.5,2.6c-1.8,0-2.6-1-2.6-2.6v-7.8h1.7v8c0,0.6,0.2,1,0.9,1c0.6,0,0.9-0.4,0.9-1
	v-8H130.8"/>
<polyline class="st0" points="131.6,42.2 136.3,42.2 136.3,43.6 134.8,43.6 134.8,52.6 133.1,52.6 133.1,43.6 131.6,43.6 
	131.6,42.2 "/>
<rect x="137.2" y="42.2" class="st0" width="1.7" height="10.4"/>
<path class="st0" d="M140,49.9v-5c0-1.6,0.8-2.8,2.6-2.8c1.9,0,2.6,1.2,2.6,2.8v5c0,1.6-0.8,2.8-2.6,2.8
	C140.8,52.7,140,51.5,140,49.9 M143.5,50.2v-5.6c0-0.6-0.3-1.1-0.9-1.1c-0.6,0-0.9,0.4-0.9,1.1v5.6c0,0.6,0.3,1.1,0.9,1.1
	C143.2,51.3,143.5,50.8,143.5,50.2z"/>
<polyline class="st0" points="147.8,46.1 147.8,52.6 146.3,52.6 146.3,42.2 148,42.2 149.9,48.2 149.9,42.2 151.4,42.2 151.4,52.6 
	149.8,52.6 147.8,46.1 "/>
<path class="st0" d="M152.4,50.4V49h1.6v1.4c0,0.6,0.3,0.9,0.9,0.9c0.5,0,0.8-0.4,0.8-0.9V50c0-0.6-0.2-1-0.8-1.5l-1-1
	c-1-1-1.5-1.6-1.5-2.8v-0.4c0-1.3,0.7-2.3,2.4-2.3c1.7,0,2.4,0.9,2.4,2.4v0.8h-1.6v-0.9c0-0.6-0.3-0.9-0.8-0.9
	c-0.5,0-0.8,0.3-0.8,0.9v0.2c0,0.6,0.3,0.9,0.8,1.4l1.1,1.1c0.9,1,1.4,1.5,1.4,2.7v0.5c0,1.4-0.8,2.4-2.5,2.4
	C153,52.7,152.4,51.7,152.4,50.4"/>
</svg>
