<?xml version="1.0" encoding="utf-8"?>
<!-- Generator: Adobe Illustrator 21.0.0, SVG Export Plug-In . SVG Version: 6.00 Build 0)  -->
<svg version="1.1" id="Layer_1" xmlns="http://www.w3.org/2000/svg" xmlns:xlink="http://www.w3.org/1999/xlink" x="0px" y="0px"
	 viewBox="0 0 180 180" style="enable-background:new 0 0 180 180;" xml:space="preserve">
<style type="text/css">
	.st0{fill:#417F45;}
	.st1{fill:#FFFFFF;}
</style>
<rect x="10.4" y="9.5" class="st0" width="160.9" height="160.9"/>
<polyline class="st1" points="30.7,23 30.7,55.5 25.3,55.5 25.3,30.6 25.2,30.6 21.4,34.6 21.3,34.6 21.3,28.9 26.4,23 30.7,23 "/>
<path class="st1" d="M48.7,30.1v2.8c0,2.7-1.5,4.5-3.7,5.3c2.7,0.6,4,2.5,4,5.5v4.8c0,4.5-2.4,7.4-7.9,7.4c-5.5,0-7.5-3.2-7.5-8.1
	v-4.3h5v4.6c0,1.9,0.7,3.2,2.5,3.2c1.7,0,2.4-1.2,2.4-2.9V43c0-1.7-0.8-2.6-2.7-2.6h-2.3v-4.2h2.1c1.8,0,2.9-0.9,2.9-2.6v-3.5
	c0-1.8-0.6-2.9-2.3-2.9c-1.7,0-2.3,1.1-2.3,3.2v3.3h-5v-2.9c0-4.8,2-8.1,7.6-8.1C46.5,22.7,48.7,25.5,48.7,30.1"/>
<path class="st1" d="M151.1,110.3c-4.2-5.9-23.4-29.7-59.1-29.7c-35.7,0-54.8,23.7-59.1,29.7c-0.2,0.3-0.3,0.5-0.5,0.7
	c0.1,0.2,0.3,0.4,0.5,0.7c4.2,5.9,23.4,29.7,59.1,29.7c35.6,0,54.8-23.7,59.1-29.7c0.2-0.3,0.3-0.5,0.5-0.7
	C151.5,110.8,151.3,110.5,151.1,110.3 M72.2,95.6c0.3-0.5,1.4-1.8,1.5-2c0.3-0.4,0.8-0.4,1.2-0.5c0.4-0.1,0.9,0.1,0.9,0.4
	c0.1,0.3-0.1,1.4-0.3,1.6c-0.5,0.5-1.9,1.3-2.6,1.2C72.3,96.2,72.1,95.8,72.2,95.6 M70.9,98.1C71,98.1,71,98,71,98
	c0.4-0.5,1.3-0.6,2-0.7c0.6-0.1,1.4,0.2,1.5,0.6c0.1,0.4-1.5,1.2-1.9,1.4c-0.9,0.8-2.2,2.4-3,2.6c-0.3,0.1-0.5,0-0.6-0.1
	C69.6,100.5,70.2,99.3,70.9,98.1 M84.3,125.5c-0.5,1.9-1,2.6-1.5,3.2c-0.5,0.6-2.3,1.4-3.4,1.3c-1.1-0.1-1.3-3.1-1.3-4.6
	c0-0.5-0.8,1.1-1.2-2.2c-0.3-2.1-1.6,0.2-1.7-1.2c-0.1-1.4-0.8-1.1-1.5-2c-0.7-0.9-1.6,0.1-2.5,0.5c-1,0.4-0.6,0.7-1.9,0.2
	c0,0-0.1,0-0.1,0c-1.3-3-2-6.2-2-9.7c0-0.8,0-1.7,0.1-2.5c0-0.1,0.1-0.2,0.2-0.2c1.3-1.6,1.3-1.9,1.3-1.9l1.5-0.5c0,0,2.3,0.4,4.1,1
	c1.4,0.5,3.7,1.8,5,1.2c1-0.4,1.7-0.9,1.6-1.7c-0.1-1-0.9-1.2-1.8-0.6c-0.4,0.2-1.1-1.5-1.7-1.4c-0.6,0.1,0.7,2.1,0.2,2.1
	c-0.5,0.1-1.5-2-1.7-2.4c-0.2-0.3-0.9-1.2-1.6-0.5c-1.5,1.4-3.8,1.3-4.3,1.7c-1.5,1.1-1.8-0.4-1.8-1.2c0.1-0.2,0.1-0.4,0.2-0.6
	c0.5-0.5,2.2-0.7,2.8-0.3c0.6,0.4,1.1-0.1,1.4-0.4c0.3-0.3,0.2-0.7,0-1c-0.2-0.3,0.3-0.6,0.7-0.7c0.3-0.1,1.4-0.9,1.9-1.1
	c0.4-0.3,2.7-0.5,3.8,0c1,0.5,2,0.1,2.5-0.5c0.6-0.8,1.4-1.3,1.8-1.5c0.4-0.2-0.9-1.3-1.9-0.1c-1,1.3-1.5,1.4-2,1.4
	c-0.5,0-3.3-0.7-3.7-1.6c-0.4-0.9,0.9-1.6,2-2.1c1.1-0.5,4-0.5,4.7-0.7c1.5-0.3,3.4-1.1,4.4-0.4c1,0.6-4,1.8-2.4,2.7
	c0.6,0.3,3.2-1.5,4.1-2c2.1-1.1-2.1-1.5-1.5-3.7c0.6-2.5-5.2-1.6-8-1.3c3.9-2.5,8.4-3.9,13.4-3.9c11.7,0,21.5,8.1,24.1,19
	c0,0.5-0.1,0.9-0.1,1.2c-0.2,0.9-1.9,1.7-2.9,0.2c-0.3-0.4-1.3-1.4-1.3,0.4c0,1.7,1.7,1.9,0.1,2.9c-1.6,1-1.9,0.8-2.6,1
	c-0.7,0.3-1.4,2-1.3,3c0.2,0.9,2.4,3.5,0.8,3.4c-0.4,0-3.4-2.1-3.9-3.4c-0.5-1.4-1.1-2.7-1.5-3.8c-0.4-1-1.5-1.3-2.3-0.7
	c-0.9,0.6,0.2,1.2-0.4,2.5c-0.6,1.3-1.1,2.4-2,1.4c-2.4-2.8-5.9-1.4-6.5-4.5c-0.3-1.7-1.7-1.5-2.9-2.5c-1.2-0.9-1.9-1.5-2.1-0.8
	c-0.2,0.6,3.8,3.8,4.1,4.6c0.4,1.2-1.2,2.3-2.4,2.5c-1.2,0.3-1.7-0.7-2.9-1.9c-1.2-1.2-1.7-2.1-1.7-1.1c-0.1,1.4,1.1,3.4,2.3,4.1
	c1,0.6,2.1,0.9,1.8,2c-0.3,1,0,0.5-1.1,1.6c-1.1,1.1-1.3,1.5-1.3,3c0.1,1.6-0.3,1.6-0.6,2.9C85.3,124.7,84.7,123.6,84.3,125.5
	 M110.9,115.6c0.8-0.1,2.1,1.1,1.6,1.5c-0.5,0.4-1.7,0.3-2.4-0.2C109.5,116.4,110.5,115.6,110.9,115.6 M109.8,114.8
	c-0.3-0.1-0.5-0.4-0.7-1c-0.2-0.6,0.3-1,0.8-0.7c0.5,0.3,1.2,1,1.2,1.4C111.1,115,110.1,115,109.8,114.8 M98.9,114.8
	c-0.5,0.4-1.7,0.3-2.4-0.2c-0.6-0.5,0.4-1.3,0.8-1.3C98.1,113.2,99.4,114.4,98.9,114.8 M88.7,119.7c-0.3,0.6-1.3,4.7-1.9,4.3
	c-0.6-0.5,0.3-4.8,0.4-5.2C88.2,117,90.4,117.1,88.7,119.7 M92.1,135.9c-2.4,0-4.8-0.4-7-1c-0.3-0.3-0.5-0.7-0.3-1.2
	c0.8-2,3.1-2.8,4.9-3c4-0.4,9.3,2.6,10.2,2.1c0.8-0.5,2.5-2.7,5-2.6c1.7,0.1,1.7,0.4,2.3,0.6C103,134,97.8,135.9,92.1,135.9
	 M109.6,128.7c-0.2-0.1-0.5-0.1-0.8-0.3c-1.4-0.7-1.2,0.4-1.9,0.2c-0.7-0.2,0.8-1.8-1.3-0.5c-2,1.3-1.5-0.2-2.3-2.4
	c-0.9-2.2,1-4.7,2.6-5.3c2.2-0.8,3.5-0.9,4.5-1.2c3-0.7,3.6-2.5,4.2-1.4c0.1,0.2,0.2,0.4,0.3,0.6c0.2,0.3,0.4,1,0.4,1.6
	C114.1,123.2,112.1,126.2,109.6,128.7 M116.4,116.2c-0.7-0.2-3.5-4-1.3-6.6c0.4-0.4-0.7-1.6-0.4-1.7c1.2-0.1,1.8,0.7,2.2,1.7
	c0,0.5,0,1,0,1.4C116.9,112.8,116.8,114.5,116.4,116.2"/>
<path class="st1" d="M61.8,33v-6.5c0-2.1,1-3.6,3.4-3.6c2.5,0,3.2,1.4,3.2,3.4v1.6h-2.1V26c0-0.8-0.3-1.3-1.1-1.3
	c-0.8,0-1.1,0.6-1.1,1.4v7.2c0,0.8,0.3,1.4,1.1,1.4c0.8,0,1.1-0.5,1.1-1.3v-2.5h2.1v2.3c0,1.9-0.8,3.3-3.2,3.3
	C62.7,36.6,61.8,35,61.8,33"/>
<polyline class="st1" points="69.8,23 72,23 72,34.6 74.7,34.6 74.7,36.4 69.8,36.4 69.8,23 "/>
<rect x="75.9" y="23" class="st1" width="2.3" height="13.4"/>
<polyline class="st1" points="86.1,27.7 86,27.7 84.5,36.4 83.5,36.4 81.8,27.7 81.7,27.7 81.7,36.4 79.9,36.4 79.9,23 82.5,23 
	84,30.6 84,30.6 85.3,23 88.2,23 88.2,36.4 86.1,36.4 86.1,27.7 "/>
<path class="st1" d="M89.3,36.4L91.8,23h2.6l2.6,13.4h-2.3L94.2,34h-2.4l-0.4,2.5H89.3 M92.1,32.2h1.8L93,26.8h0L92.1,32.2z"/>
<polyline class="st1" points="96.6,23 102.6,23 102.6,24.8 100.8,24.8 100.8,36.4 98.5,36.4 98.5,24.8 96.6,24.8 96.6,23 "/>
<polyline class="st1" points="103.9,23 109.3,23 109.3,24.8 106.1,24.8 106.1,28.7 108.4,28.7 108.4,30.5 106.1,30.5 106.1,34.6 
	109.3,34.6 109.3,36.4 103.9,36.4 103.9,23 "/>
<path class="st1" d="M61.4,55.5L63.9,42h2.6L69,55.5h-2.3L66.3,53h-2.4l-0.4,2.5H61.4 M64.2,51.2H66l-0.9-5.4h0L64.2,51.2z"/>
<path class="st1" d="M69.7,52v-6.5c0-2.1,1-3.6,3.4-3.6c2.5,0,3.2,1.4,3.2,3.4v1.6h-2.1v-1.8c0-0.8-0.3-1.3-1.1-1.3
	c-0.8,0-1.1,0.6-1.1,1.4v7.2c0,0.8,0.3,1.4,1.1,1.4c0.8,0,1.1-0.5,1.1-1.3V50h2.1v2.3c0,1.9-0.8,3.3-3.2,3.3
	C70.7,55.6,69.7,54.1,69.7,52"/>
<polyline class="st1" points="77,42 83,42 83,43.9 81.2,43.9 81.2,55.5 78.9,55.5 78.9,43.9 77,43.9 77,42 "/>
<rect x="84.3" y="42" class="st1" width="2.3" height="13.4"/>
<path class="st1" d="M88,52v-6.5c0-2.1,1-3.6,3.4-3.6c2.4,0,3.4,1.5,3.4,3.6V52c0,2.1-1,3.6-3.4,3.6C89.1,55.6,88,54.1,88,52
	 M92.6,52.4v-7.2c0-0.8-0.4-1.4-1.2-1.4c-0.8,0-1.1,0.6-1.1,1.4v7.2c0,0.8,0.4,1.4,1.1,1.4C92.3,53.7,92.6,53.2,92.6,52.4z"/>
<polyline class="st1" points="98.2,47 98.2,55.5 96.3,55.5 96.3,42 98.6,42 101,49.7 101,42 102.9,42 102.9,55.5 100.9,55.5 
	98.2,47 "/>
</svg>
