<?xml version="1.0" encoding="utf-8"?>
<!-- Generator: Adobe Illustrator 21.0.0, SVG Export Plug-In . SVG Version: 6.00 Build 0)  -->
<svg version="1.1" id="Layer_1" xmlns="http://www.w3.org/2000/svg" xmlns:xlink="http://www.w3.org/1999/xlink" x="0px" y="0px"
	 viewBox="0 0 180 180" style="enable-background:new 0 0 180 180;" xml:space="preserve">
<style type="text/css">
	.st0{fill:#DD1768;}
	.st1{fill:#FFFFFF;}
</style>
<rect x="8.8" y="9.5" class="st0" width="160.9" height="160.9"/>
<polyline class="st1" points="24.3,30.6 24.3,55.5 29.8,55.5 29.8,23 25.4,23 20.4,28.9 20.4,34.6 20.4,34.6 24.3,30.6 24.3,30.6 
	"/>
<path class="st1" d="M49.7,47.1V31.4c0-5.1-2.5-8.8-8.1-8.8c-5.5,0-8.1,3.7-8.1,8.8v15.7c0,5,2.5,8.8,8.1,8.8
	C47.2,55.9,49.7,52.1,49.7,47.1 M39,48V30.5c0-2,0.7-3.4,2.6-3.4c1.9,0,2.6,1.4,2.6,3.4V48c0,2-0.7,3.4-2.6,3.4
	C39.7,51.3,39,49.9,39,48"/>
<path class="st1" d="M105.9,115.8H73.7c-0.2,0-0.3,0.2-0.3,0.4v7.3c0,0.2,0.2,0.4,0.3,0.4h32.2c0.2,0,0.4-0.2,0.4-0.4v-7.3
	C106.2,116,106.1,115.8,105.9,115.8"/>
<path class="st1" d="M106.2,102.5c0-0.2-0.2-0.3-0.4-0.3H73.7c-0.2,0-0.3,0.2-0.3,0.3v7.3c0,0.2,0.2,0.3,0.3,0.3h32.2
	c0.2,0,0.4-0.2,0.4-0.3V102.5"/>
<path class="st1" d="M124.8,105.3c-1.3-5.3-3.7-10-6.9-14.1l-0.1,0.1c1,1.5,2,3.2,2.7,4.9c4.2,7.7,5.5,16.9,2.8,25.9
	c-5.3,18.1-24.3,28.5-42.4,23.2c-7.6-2.2-13.9-6.9-18.2-12.8c-2.7-3.5-4.7-7.5-5.8-12c-4.3-17.3,6.2-34.8,23.5-39.1
	c10.7-2.7,21.4,0.4,29.1,7.2c0.1,0.1,0.1,0.1,0.2,0.2c0.2,0.2,0.5,0.3,0.7,0.3c0.3,0,0.6-0.1,0.8-0.3l0.1-0.1l4.1-4l0.3-0.3
	c0.2-0.2,0.3-0.5,0.3-0.7c0-0.3-0.1-0.6-0.3-0.8c0,0-0.1-0.1-0.1-0.1c-9.4-8.4-22.8-12.2-36-8.9c-21.2,5.3-34.2,26.8-28.9,48
	c2.2,8.9,7.3,16.3,14,21.6c6.7,5.5,15.2,8.6,24.1,8.5c2.9,0,5.8-0.4,8.7-1.1C117.6,145.6,129.8,125.4,124.8,105.3"/>
<path class="st1" d="M62.4,30.2v6.1h-2.2V23h3.3c2.3,0,3.1,1.1,3.1,3v1.7c0,1.4-0.5,2.3-1.8,2.6l2.1,6.1h-2.4L62.4,30.2 M62.4,24.8
	V29h0.7c0.8,0,1.1-0.4,1.1-1.1v-2c0-0.7-0.3-1.1-1.1-1.1H62.4z"/>
<polyline class="st1" points="67.9,23 73.3,23 73.3,24.8 70.2,24.8 70.2,28.6 72.4,28.6 72.4,30.5 70.2,30.5 70.2,34.5 73.3,34.5 
	73.3,36.3 67.9,36.3 67.9,23 "/>
<path class="st1" d="M81.4,26.6v6.2c0,2-0.8,3.6-3.3,3.6h-3.5V23h3.5C80.6,23,81.4,24.5,81.4,26.6 M77.9,34.5c0.9,0,1.3-0.6,1.3-1.4
	v-7c0-0.8-0.4-1.3-1.3-1.3h-0.9v9.7H77.9z"/>
<path class="st1" d="M89.4,23v10.1c0,2.1-0.9,3.4-3.2,3.4c-2.4,0-3.3-1.3-3.3-3.4V23h2.2v10.3c0,0.8,0.3,1.3,1.1,1.3
	c0.8,0,1.1-0.5,1.1-1.3V23H89.4"/>
<path class="st1" d="M90.9,32.9v-6.5c0-2.1,1-3.6,3.3-3.6c2.5,0,3.2,1.4,3.2,3.3v1.6h-2V26c0-0.8-0.3-1.3-1.1-1.3
	c-0.8,0-1.1,0.6-1.1,1.4v7.2c0,0.8,0.3,1.4,1.1,1.4c0.8,0,1.1-0.5,1.1-1.3v-2.5h2v2.3c0,1.9-0.8,3.3-3.2,3.3
	C91.9,36.5,90.9,35,90.9,32.9"/>
<polyline class="st1" points="98.8,23 104.2,23 104.2,24.8 101.1,24.8 101.1,28.6 103.3,28.6 103.3,30.5 101.1,30.5 101.1,34.5 
	104.2,34.5 104.2,36.3 98.8,36.3 98.8,23 "/>
<path class="st1" d="M112.3,26.6v6.2c0,2-0.8,3.6-3.3,3.6h-3.5V23h3.5C111.5,23,112.3,24.5,112.3,26.6 M108.8,34.5
	c0.9,0,1.3-0.6,1.3-1.4v-7c0-0.8-0.4-1.3-1.3-1.3h-0.9v9.7H108.8z"/>
<rect x="60.2" y="42.1" class="st1" width="2.2" height="13.4"/>
<polyline class="st1" points="65.8,47.1 65.8,55.5 63.9,55.5 63.9,42.1 66.1,42.1 68.5,49.8 68.5,42.1 70.4,42.1 70.4,55.5 
	68.4,55.5 65.8,47.1 "/>
<polyline class="st1" points="71.6,42.1 77,42.1 77,43.9 73.9,43.9 73.9,47.8 76.1,47.8 76.1,49.6 73.9,49.6 73.9,53.6 77,53.6 
	77,55.5 71.6,55.5 71.6,42.1 "/>
<path class="st1" d="M80.4,56.4v-0.9c-1.8-0.3-2.6-1.6-2.6-3.4v-6.5c0-2.1,1-3.6,3.4-3.6c2.4,0,3.4,1.5,3.4,3.6V52
	c0,1.5-0.5,2.6-1.7,3.2l1.7,0.3v1.7L80.4,56.4 M82.4,52.5v-7.3c0-0.8-0.4-1.4-1.2-1.4c-0.8,0-1.1,0.6-1.1,1.4v7.3
	c0,0.8,0.4,1.4,1.1,1.4C82,53.9,82.4,53.3,82.4,52.5z"/>
<path class="st1" d="M92.4,42.1v10.1c0,2.1-0.9,3.4-3.2,3.4c-2.4,0-3.3-1.3-3.3-3.4V42.1h2.2v10.3c0,0.8,0.3,1.3,1.1,1.3
	c0.8,0,1.1-0.5,1.1-1.3V42.1H92.4"/>
<path class="st1" d="M93.1,55.5l2.5-13.4h2.6l2.5,13.4h-2.3L98,53h-2.4l-0.4,2.4H93.1 M95.9,51.2h1.8l-0.9-5.4h0L95.9,51.2z"/>
<polyline class="st1" points="101.7,42.1 103.9,42.1 103.9,53.6 106.6,53.6 106.6,55.5 101.7,55.5 101.7,42.1 "/>
<rect x="107.6" y="42.1" class="st1" width="2.2" height="13.4"/>
<polyline class="st1" points="110.9,42.1 116.8,42.1 116.8,43.9 115,43.9 115,55.5 112.7,55.5 112.7,43.9 110.9,43.9 110.9,42.1 "/>
<rect x="117.9" y="42.1" class="st1" width="2.2" height="13.4"/>
<polyline class="st1" points="121.4,42.1 126.8,42.1 126.8,43.9 123.7,43.9 123.7,47.8 125.9,47.8 125.9,49.6 123.7,49.6 
	123.7,53.6 126.8,53.6 126.8,55.5 121.4,55.5 121.4,42.1 "/>
<path class="st1" d="M127.6,52.6v-1.8h2.1v1.8c0,0.7,0.3,1.2,1.1,1.2c0.7,0,1-0.5,1-1.2v-0.5c0-0.8-0.3-1.2-1-1.9l-1.3-1.3
	c-1.3-1.3-1.9-2-1.9-3.6v-0.5c0-1.7,1-2.9,3.2-2.9c2.2,0,3.1,1.1,3.1,3v1.1h-2v-1.2c0-0.8-0.4-1.1-1.1-1.1c-0.6,0-1.1,0.4-1.1,1.1
	v0.3c0,0.7,0.4,1.2,1.1,1.8l1.4,1.4c1.2,1.2,1.8,2,1.8,3.5v0.6c0,1.8-1,3.1-3.3,3.1C128.5,55.6,127.6,54.3,127.6,52.6"/>
</svg>
