<?xml version="1.0" encoding="utf-8"?>
<!-- Generator: Adobe Illustrator 21.0.0, SVG Export Plug-In . SVG Version: 6.00 Build 0)  -->
<svg version="1.1" id="Layer_1" xmlns="http://www.w3.org/2000/svg" xmlns:xlink="http://www.w3.org/1999/xlink" x="0px" y="0px"
	 viewBox="0 0 180 180" style="enable-background:new 0 0 180 180;" xml:space="preserve">
<style type="text/css">
	.st0{fill:#5CBA47;}
	.st1{fill:#FFFFFF;}
</style>
<rect x="9.5" y="8.6" class="st0" width="160.9" height="160.9"/>
<polyline class="st1" points="21.3,28 21.3,33.7 21.4,33.7 25.2,29.7 25.2,29.7 25.2,54.5 30.7,54.5 30.7,22.1 26.3,22.1 21.3,28 
	"/>
<path class="st1" d="M43.7,32.4c-2.2,0-3.7,0.8-4.6,2.2h0v-8.1h9.4v-4.4H34.1v18.3h5v-0.7c0-1.9,0.9-3,2.4-3c1.7,0,2.3,1.1,2.3,2.9
	v7.8c0,1.7-0.6,2.9-2.3,2.9c-1.9,0-2.5-1.2-2.5-3.2v-4.1h-5v3.7c0,4.9,2,8.1,7.5,8.1c5.5,0,7.8-2.9,7.8-7.4v-7.9
	C49.2,34.4,46.6,32.4,43.7,32.4"/>
<path class="st1" d="M76.2,117.4c0.2,0,0.4,0.2,0.4,0.4v11.7c0,0.2-0.2,0.4-0.4,0.4h-4.7c-0.2,0-0.4-0.2-0.4-0.4v-11.7
	c0-0.2,0.2-0.4,0.4-0.4H76.2"/>
<path class="st1" d="M128.3,134.9H50.1c-0.2,0-0.4,0.2-0.4,0.4v4.8c0,0.2,0.2,0.4,0.4,0.4h78.1c0.2,0,0.4-0.2,0.4-0.4v-4.8
	C128.6,135.1,128.4,134.9,128.3,134.9"/>
<path class="st1" d="M128.3,144.4H50.1c-0.2,0-0.4,0.2-0.4,0.4v4.8c0,0.2,0.2,0.4,0.4,0.4h78.1c0.2,0,0.4-0.2,0.4-0.4v-4.8
	C128.6,144.5,128.4,144.4,128.3,144.4"/>
<path class="st1" d="M113.4,104.5c-1-0.8-3.6-2.5-6.8-2.5c-2.3,0-4.4,0.9-6.3,2.7c-0.1,0.1-0.2,0.3-0.2,0.5v0.4
	c0,0.2,0.1,0.4,0.2,0.5c0.2,0.1,0.3,0.2,0.6,0.1c0,0,0.1,0,0.1,0c0.1-0.1,0.3-0.1,0.4-0.2c0.4-0.3,1.5-0.7,3.1-0.7
	c1.7,0,4.9,0.4,8.1,3.4l0.1,0.1c0.2,0.2,0.4,0.3,0.7,0.3c0.2,0,0.5-0.1,0.7-0.3l0.1-0.1c3.2-2.9,6.4-3.4,8.1-3.4
	c1.6,0,2.7,0.4,3.1,0.7c0.1,0.1,0.3,0.2,0.4,0.3c0.1,0,0.3,0.1,0.5,0c0.3-0.1,0.5-0.3,0.5-0.6v-0.4c0-0.2-0.1-0.4-0.2-0.5
	c-1.9-1.8-4-2.7-6.4-2.7C117,101.9,114.4,103.7,113.4,104.5"/>
<path class="st1" d="M108.5,73.3c-0.2,0.1-0.3,0.2-0.3,0.4l-0.1,0.3c-0.1,0.2,0,0.4,0.1,0.6c0.1,0.2,0.3,0.3,0.5,0.3
	c0,0,0.1,0,0.1,0c0.1,0,0.3,0,0.4-0.1c0.1,0,0.2-0.1,0.5-0.1c0.3,0,3.5,0.1,5.6,3.6l0,0c0.1,0.2,0.3,0.3,0.5,0.4c0.1,0,0.2,0,0.3,0
	c0.1,0,0.3,0,0.4-0.1l0.1,0c1.1-0.6,2.3-0.9,3.5-0.9c2,0,3.3,0.8,3.6,1.1c0.1,0.1,0.2,0.2,0.3,0.3c0.1,0,0.2,0.1,0.3,0.1
	c0,0,0.1,0,0.1,0c0,0,0,0,0.1,0c0.1,0,0.2,0,0.3-0.1c0.2-0.1,0.3-0.2,0.3-0.4l0.1-0.2c0-0.1,0-0.1,0-0.2c0-0.1,0-0.2-0.1-0.3
	c-1.5-2.6-3.7-3.2-5.3-3.2c-1.2,0-2.2,0.3-2.8,0.5c-0.7-1-2.5-3-5.3-3C110.5,72.6,109.5,72.8,108.5,73.3"/>
<path class="st1" d="M92,85.3l0,0.4c0,0.2,0.1,0.4,0.3,0.5c0.2,0.1,0.4,0.1,0.5,0.1c0,0,0.1,0,0.1,0c0.1-0.1,0.2-0.1,0.3-0.2
	c0.3-0.2,1.4-0.7,3-0.7c1.5,0,3.8,0.4,6.2,2.3l0.1,0.1c0.2,0.1,0.4,0.2,0.6,0.2h0.1c0.2,0,0.5-0.1,0.6-0.3l0.1-0.1
	c2.6-2.8,5.4-3.2,6.8-3.2c1,0,1.8,0.2,2,0.4c0.1,0.1,0.2,0.2,0.4,0.2c0,0,0.2,0,0.3,0c0.1,0,0.1,0,0.2,0c0.3-0.1,0.5-0.4,0.4-0.7
	l0-0.3c0-0.2-0.1-0.3-0.2-0.5c-1.6-1.3-3.2-2-5-2c-2.7,0-4.9,1.6-5.8,2.4c-0.8-0.6-2.8-1.7-5.2-1.7c-2.1,0-3.9,0.9-5.5,2.6
	C92.1,85,92,85.2,92,85.3"/>
<path class="st1" d="M52.5,91.6c0-4.7,3.8-8.5,8.5-8.5c0.2,0,0.4,0,0.5,0c0.4-5.9,5.4-10.6,11.4-10.6c6.3,0,11.5,5.1,11.5,11.5
	c0,1.8-0.4,3.5-1.2,5c5.7,1.3,10,6.4,10,12.5c0,7.1-5.7,12.8-12.8,12.8c-0.5,0-17.1-0.1-17.1-0.1c-5,0-9.1-4.1-9.1-9.1
	c0-2.4,0.9-4.6,2.5-6.2C54.2,97.5,52.5,94.8,52.5,91.6"/>
<polyline class="st1" points="61,22.1 63.2,22.1 63.2,33.4 65.8,33.4 65.8,35.2 61,35.2 61,22.1 "/>
<rect x="67" y="22.1" class="st1" width="2.2" height="13.1"/>
<polyline class="st1" points="70.7,22.1 75.9,22.1 75.9,23.9 72.9,23.9 72.9,27.7 75.1,27.7 75.1,29.4 72.9,29.4 72.9,35.2 
	70.7,35.2 70.7,22.1 "/>
<polyline class="st1" points="77,22.1 82.3,22.1 82.3,23.9 79.3,23.9 79.3,27.7 81.4,27.7 81.4,29.4 79.3,29.4 79.3,33.4 82.3,33.4 
	82.3,35.2 77,35.2 77,22.1 "/>
<path class="st1" d="M61,51.2v-6.4c0-2.1,1-3.5,3.3-3.5c2.3,0,3.4,1.5,3.4,3.5v6.4c0,2-1,3.5-3.4,3.5C62,54.7,61,53.2,61,51.2
	 M65.4,51.5v-7.1c0-0.8-0.3-1.4-1.1-1.4c-0.8,0-1.1,0.6-1.1,1.4v7.1c0,0.8,0.4,1.4,1.1,1.4C65.1,52.9,65.4,52.3,65.4,51.5z"/>
<polyline class="st1" points="70.7,46.3 70.7,54.6 68.9,54.6 68.9,41.4 71.1,41.4 73.4,49 73.4,41.4 75.3,41.4 75.3,54.6 73.3,54.6 
	70.7,46.3 "/>
<polyline class="st1" points="80.1,41.4 82.3,41.4 82.3,52.8 84.9,52.8 84.9,54.6 80.1,54.6 80.1,41.4 "/>
<path class="st1" d="M85.5,54.6L88,41.4h2.5L93,54.6h-2.3l-0.4-2.4H88l-0.4,2.4H85.5 M88.3,50.4H90l-0.9-5.3h0L88.3,50.4z"/>
<polyline class="st1" points="95.8,46.3 95.8,54.6 93.9,54.6 93.9,41.4 96.1,41.4 98.5,49 98.5,41.4 100.3,41.4 100.3,54.6 
	98.4,54.6 95.8,46.3 "/>
<path class="st1" d="M108.3,45V51c0,2-0.8,3.5-3.2,3.5h-3.4V41.4h3.4C107.5,41.4,108.3,42.9,108.3,45 M104.9,52.8
	c0.9,0,1.3-0.5,1.3-1.3v-6.9c0-0.8-0.3-1.3-1.3-1.3h-0.9v9.5H104.9z"/>
</svg>
