<?xml version="1.0" encoding="utf-8"?>
<!-- Generator: Adobe Illustrator 21.0.0, SVG Export Plug-In . SVG Version: 6.00 Build 0)  -->
<svg version="1.1" id="Layer_1" xmlns="http://www.w3.org/2000/svg" xmlns:xlink="http://www.w3.org/1999/xlink" x="0px" y="0px"
	 viewBox="0 0 180 180" style="enable-background:new 0 0 180 180;" xml:space="preserve">
<style type="text/css">
	.st0{fill:#BE8B2C;}
	.st1{fill:#FFFFFF;}
</style>
<rect x="9.5" y="9.5" class="st0" width="160.9" height="160.9"/>
<polyline class="st1" points="25.6,30.7 25.7,30.7 25.7,55.5 31.1,55.5 31.1,23.1 26.8,23.1 21.7,29 21.7,34.7 21.8,34.7 25.6,30.7 
	"/>
<path class="st1" d="M34.4,29.8v3.9h5v-4.1c0-2,1-2.5,2.1-2.5c1.1,0,2,0.4,2,2.4v2.7c0,2.7-0.2,3.7-2,5.6l-3.1,3.3
	c-3,3.2-4.1,5.3-4.1,8.5v6h14.2v-4.5h-9v-1.5c0-2.5,0.9-3.5,2.3-5l3.5-3.7c2.8-3,3.5-4.9,3.5-8.2v-3.2c0-4.6-2.3-6.8-7.1-6.8
	C36.8,22.7,34.4,25.2,34.4,29.8"/>
<path class="st1" d="M134.1,95.7c-6.6-5.2-14.4-5.7-17.5-5.7c-1.6,0-3.1,0.1-4.2,0.4l-0.4,0.1c-4.1,1-11.1,2.6-19.2,12.7l-0.2,0.3
	c-0.1,0.2-0.2,0.4-0.2,0.6c0,0.2,0,0.4,0.1,0.5l0.2,0.3c1.3,2.2,2.5,4.2,3.3,5.8c0.3,0.6,1.2,0.8,1.7,0.2c0.1-0.1,0.1-0.2,0.2-0.2
	c7-9.7,12.5-11,16.1-11.8l0.5-0.1c0.5-0.1,1.3-0.2,2.2-0.2c1.7,0,7.6,0.3,12.1,3.9c4.1,3.2,6.1,8.3,6.1,15.2
	c0,11.6-5.6,16.1-10.3,17.8c-1.8,0.7-3.7,1-5.8,1c-4.8,0-8.6-1.9-8.6-2l-0.3-0.2c-4-1.8-10.1-5.4-15.8-16.9
	C82.4,94.2,72.5,91.9,66,90.5l-0.3-0.1c-0.5-0.1-1.9-0.4-4.2-0.4c-3.8,0-11,0.7-17.2,5.7c-4.2,3.4-9.3,10-9.3,22
	c0,7.4,1.5,12.2,5.4,17.3c0.7,1,7.5,9.7,20.5,9.7c1.9,0,3.9-0.2,5.9-0.6c2.4-0.5,6-1.6,10.1-4.6l3.4,3.1c0.4,0.3,1,0.3,1.4-0.1
	c0.2-0.2,0.3-0.4,0.3-0.7l2.6-16.3v-0.2c0-0.3-0.1-0.5-0.3-0.7c-0.2-0.2-0.4-0.3-0.7-0.3c0,0,0,0,0,0l-15.9,4.4l-0.3,0.1
	c-0.2,0-0.4,0.1-0.5,0.3c-0.2,0.2-0.3,0.5-0.3,0.7c0,0.3,0.1,0.5,0.3,0.7l3.3,3c-1.7,1.1-3.5,1.8-5.1,2.1c-1.4,0.3-2.8,0.4-4.2,0.4
	c-9,0-13.4-5.9-13.6-6.2l-0.1-0.1c-2.7-3.6-3.7-6.7-3.7-12.1c0-6.9,2-12.1,6-15.3c4.4-3.6,10.2-3.8,11.8-3.8c0.9,0,1.7,0.1,2.3,0.2
	l0.3,0.1c5.2,1.2,12.3,2.8,22.2,22.6c5.2,10.5,11.7,17.3,19.9,20.9c1,0.5,6,2.9,12.6,2.9c3,0,6-0.5,8.8-1.6c4.8-1.8,16-7.9,16-26
	C143.5,105.7,138.4,99.1,134.1,95.7"/>
<path class="st1" d="M63.1,30.1v6h-2.2V23h3.2c2.2,0,3,1.1,3,2.9v1.7c0,1.4-0.5,2.3-1.8,2.5l2.1,6h-2.3L63.1,30.1 M63.1,24.8v4.1
	h0.7c0.8,0,1.1-0.4,1.1-1.1v-1.9c0-0.7-0.3-1.1-1.1-1.1H63.1z"/>
<polyline class="st1" points="68.3,23 73.6,23 73.6,24.8 70.6,24.8 70.6,28.6 72.8,28.6 72.8,30.4 70.6,30.4 70.6,34.4 73.6,34.4 
	73.6,36.2 68.3,36.2 68.3,23 "/>
<path class="st1" d="M74.7,33.3v-1.8h2v1.8c0,0.7,0.3,1.2,1.1,1.2c0.7,0,1-0.5,1-1.2v-0.5c0-0.8-0.3-1.2-1-1.9l-1.3-1.3
	c-1.3-1.2-1.8-2-1.8-3.5v-0.4c0-1.6,0.9-2.9,3.1-2.9c2.2,0,3.1,1.1,3.1,3v1.1h-2v-1.1c0-0.8-0.4-1.1-1.1-1.1c-0.6,0-1,0.3-1,1.1V26
	c0,0.7,0.4,1.2,1,1.8l1.4,1.4c1.2,1.2,1.8,2,1.8,3.4v0.6c0,1.8-1,3.1-3.2,3.1S74.7,35.1,74.7,33.3"/>
<path class="st1" d="M82.1,23h3.3c2.2,0,3,1.1,3,2.9v2.8c0,1.8-0.8,3-3,3h-1.1v4.5h-2.2V23 M84.3,24.8V30h0.8c0.8,0,1.1-0.4,1.1-1.1
	v-3c0-0.7-0.3-1.1-1.1-1.1H84.3z"/>
<path class="st1" d="M89.6,32.8v-6.4c0-2.1,1-3.5,3.3-3.5c2.3,0,3.4,1.5,3.4,3.5v6.4c0,2-1,3.5-3.4,3.5
	C90.6,36.3,89.6,34.8,89.6,32.8 M94.1,33.1v-7.1c0-0.8-0.3-1.4-1.1-1.4c-0.8,0-1.1,0.6-1.1,1.4v7.1c0,0.8,0.3,1.4,1.1,1.4
	C93.7,34.5,94.1,33.9,94.1,33.1z"/>
<polyline class="st1" points="99.4,27.9 99.4,36.2 97.5,36.2 97.5,23 99.7,23 102.1,30.6 102.1,23 103.9,23 103.9,36.2 102,36.2 
	99.4,27.9 "/>
<path class="st1" d="M105.1,33.3v-1.8h2.1v1.8c0,0.7,0.3,1.2,1.1,1.2c0.7,0,1-0.5,1-1.2v-0.5c0-0.8-0.3-1.2-1-1.9l-1.3-1.3
	c-1.3-1.2-1.8-2-1.8-3.5v-0.4c0-1.6,1-2.9,3.1-2.9c2.2,0,3.1,1.1,3.1,3v1.1h-2v-1.1c0-0.8-0.4-1.1-1-1.1c-0.6,0-1.1,0.3-1.1,1.1V26
	c0,0.7,0.4,1.2,1.1,1.8l1.4,1.4c1.2,1.2,1.8,2,1.8,3.4v0.6c0,1.8-1,3.1-3.2,3.1C105.9,36.3,105.1,35.1,105.1,33.3"/>
<rect x="112.5" y="23" class="st1" width="2.2" height="13.1"/>
<path class="st1" d="M116,23h3.2c2.2,0,3,1,3,2.9v1.3c0,1.1-0.4,1.8-1.3,2.1c1.1,0.3,1.7,1,1.7,2.2v1.7c0,1.9-0.8,2.9-3,2.9H116V23
	 M118.2,28.6h0.8c0.7,0,1-0.4,1-1.1v-1.6c0-0.7-0.3-1.1-1.1-1.1h-0.8V28.6z M118.2,30.2v4.1h1c0.7,0,1.1-0.4,1.1-1.1v-2
	c0-0.7-0.3-1.1-1.1-1.1H118.2z"/>
<polyline class="st1" points="123.5,23 125.8,23 125.8,34.4 128.4,34.4 128.4,36.2 123.5,36.2 123.5,23 "/>
<polyline class="st1" points="129.4,23 134.7,23 134.7,24.8 131.6,24.8 131.6,28.6 133.8,28.6 133.8,30.4 131.6,30.4 131.6,34.4 
	134.7,34.4 134.7,36.2 129.4,36.2 129.4,23 "/>
<path class="st1" d="M60.9,52.1v-6.4c0-2.1,1-3.5,3.3-3.5c2.4,0,3.1,1.4,3.1,3.3V47h-2v-1.7c0-0.8-0.3-1.3-1.1-1.3
	c-0.8,0-1.1,0.6-1.1,1.4v7.1c0,0.8,0.3,1.4,1.1,1.4c0.8,0,1.1-0.5,1.1-1.3v-2.4h2v2.3c0,1.9-0.8,3.3-3.1,3.3
	C61.9,55.6,60.9,54.1,60.9,52.1"/>
<path class="st1" d="M68.7,52.1v-6.4c0-2.1,1-3.5,3.3-3.5c2.4,0,3.4,1.5,3.4,3.5v6.4c0,2-1,3.5-3.4,3.5
	C69.7,55.6,68.7,54.1,68.7,52.1 M73.2,52.4v-7.1c0-0.8-0.3-1.4-1.1-1.4c-0.8,0-1.1,0.6-1.1,1.4v7.1c0,0.8,0.4,1.4,1.1,1.4
	C72.9,53.8,73.2,53.2,73.2,52.4z"/>
<polyline class="st1" points="78.7,47.2 78.7,55.5 76.9,55.5 76.9,42.3 79,42.3 81.4,49.9 81.4,42.3 83.3,42.3 83.3,55.5 81.3,55.5 
	78.7,47.2 "/>
<path class="st1" d="M84.6,52.6v-1.8h2.1v1.8c0,0.7,0.3,1.2,1.1,1.2c0.7,0,1-0.5,1-1.2v-0.5c0-0.8-0.3-1.2-1-1.9L86.5,49
	c-1.3-1.2-1.8-2-1.8-3.5v-0.4c0-1.6,1-2.9,3.1-2.9c2.2,0,3.1,1.1,3.1,3v1.1h-2v-1.1c0-0.8-0.3-1.1-1-1.1c-0.6,0-1,0.4-1,1.1v0.3
	c0,0.7,0.4,1.2,1,1.8l1.4,1.4c1.2,1.2,1.8,2,1.8,3.4v0.6c0,1.8-1,3.1-3.2,3.1S84.6,54.4,84.6,52.6"/>
<path class="st1" d="M98.7,42.3v9.9c0,2-0.9,3.4-3.1,3.4c-2.3,0-3.3-1.3-3.3-3.4v-9.9h2.2v10.2c0,0.8,0.3,1.3,1.1,1.3
	c0.8,0,1.1-0.5,1.1-1.3V42.3H98.7"/>
<polyline class="st1" points="106.3,46.9 106.2,46.9 104.7,55.5 103.7,55.5 102,46.9 102,46.9 102,55.5 100.2,55.5 100.2,42.3 
	102.8,42.3 104.2,49.7 104.2,49.7 105.5,42.3 108.3,42.3 108.3,55.5 106.3,55.5 106.3,46.9 "/>
<path class="st1" d="M109.7,42.3h3.3c2.2,0,3,1.1,3,2.9V48c0,1.8-0.8,3-3,3H112v4.5h-2.2V42.3 M112,44.1v5.2h0.8
	c0.8,0,1.1-0.4,1.1-1.1v-3c0-0.7-0.3-1.1-1.1-1.1H112z"/>
<polyline class="st1" points="116.8,42.3 122.7,42.3 122.7,44.1 120.8,44.1 120.8,55.5 118.6,55.5 118.6,44.1 116.8,44.1 
	116.8,42.3 "/>
<rect x="123.7" y="42.3" class="st1" width="2.2" height="13.1"/>
<path class="st1" d="M127.2,52.1v-6.4c0-2.1,1-3.5,3.3-3.5c2.3,0,3.3,1.5,3.3,3.5v6.4c0,2-1,3.5-3.3,3.5
	C128.2,55.6,127.2,54.1,127.2,52.1 M131.7,52.4v-7.1c0-0.8-0.3-1.4-1.1-1.4c-0.8,0-1.1,0.6-1.1,1.4v7.1c0,0.8,0.3,1.4,1.1,1.4
	C131.3,53.8,131.7,53.2,131.7,52.4z"/>
<polyline class="st1" points="137,47.2 137,55.5 135.2,55.5 135.2,42.3 137.4,42.3 139.7,49.9 139.7,42.3 141.6,42.3 141.6,55.5 
	139.6,55.5 137,47.2 "/>
<path class="st1" d="M60.6,74.8L63,61.6h2.5l2.5,13.1h-2.3l-0.4-2.4H63l-0.4,2.4H60.6 M63.3,70.6h1.8l-0.9-5.3h0L63.3,70.6z"/>
<polyline class="st1" points="70.9,66.5 70.9,74.8 69,74.8 69,61.6 71.2,61.6 73.6,69.2 73.6,61.6 75.4,61.6 75.4,74.8 73.5,74.8 
	70.9,66.5 "/>
<path class="st1" d="M83.4,65.2v6.1c0,2-0.8,3.5-3.2,3.5h-3.4V61.6h3.4C82.5,61.6,83.4,63.1,83.4,65.2 M79.9,73
	c0.9,0,1.3-0.5,1.3-1.3v-6.9c0-0.8-0.4-1.3-1.3-1.3H79V73H79.9z"/>
<path class="st1" d="M86.8,61.6h3.3c2.2,0,3.1,1.1,3.1,2.9v2.8c0,1.8-0.8,3-3.1,3H89v4.5h-2.2V61.6 M89,63.4v5.2h0.8
	c0.8,0,1.1-0.4,1.1-1.1v-3c0-0.7-0.3-1.1-1.1-1.1H89z"/>
<path class="st1" d="M96.5,68.8v6h-2.2V61.6h3.2c2.2,0,3,1.1,3,2.9v1.7c0,1.4-0.5,2.3-1.8,2.5l2.1,6h-2.3L96.5,68.8 M96.5,63.4v4.1
	h0.7c0.8,0,1.1-0.4,1.1-1.1v-1.9c0-0.7-0.3-1.1-1.1-1.1H96.5z"/>
<path class="st1" d="M101.8,71.4V65c0-2.1,1-3.5,3.3-3.5c2.3,0,3.4,1.5,3.4,3.5v6.4c0,2-1,3.5-3.4,3.5
	C102.8,74.9,101.8,73.4,101.8,71.4 M106.3,71.7v-7.1c0-0.8-0.3-1.4-1.1-1.4c-0.8,0-1.1,0.6-1.1,1.4v7.1c0,0.8,0.3,1.4,1.1,1.4
	C106,73.1,106.3,72.5,106.3,71.7z"/>
<path class="st1" d="M116.5,65.2v6.1c0,2-0.8,3.5-3.2,3.5h-3.4V61.6h3.4C115.6,61.6,116.5,63.1,116.5,65.2 M113,73
	c0.9,0,1.3-0.5,1.3-1.3v-6.9c0-0.8-0.4-1.3-1.3-1.3h-0.9V73H113z"/>
<path class="st1" d="M124.2,61.6v9.9c0,2-0.9,3.4-3.1,3.4c-2.3,0-3.3-1.3-3.3-3.4v-9.9h2.2v10.2c0,0.8,0.3,1.3,1.1,1.3
	c0.8,0,1.1-0.5,1.1-1.3V61.6H124.2"/>
<path class="st1" d="M125.5,71.4V65c0-2.1,1-3.5,3.3-3.5c2.5,0,3.1,1.4,3.1,3.3v1.6h-2v-1.7c0-0.8-0.3-1.3-1.1-1.3
	c-0.8,0-1.1,0.6-1.1,1.4v7.1c0,0.8,0.3,1.4,1.1,1.4c0.8,0,1.1-0.5,1.1-1.3v-2.4h2v2.3c0,1.9-0.8,3.3-3.1,3.3
	C126.5,74.9,125.5,73.4,125.5,71.4"/>
<polyline class="st1" points="133,61.6 138.8,61.6 138.8,63.4 137,63.4 137,74.8 134.8,74.8 134.8,63.4 133,63.4 133,61.6 "/>
<rect x="139.9" y="61.6" class="st1" width="2.2" height="13.1"/>
<path class="st1" d="M143.4,71.4V65c0-2.1,1-3.5,3.3-3.5c2.3,0,3.3,1.5,3.3,3.5v6.4c0,2-1,3.5-3.3,3.5
	C144.4,74.9,143.4,73.4,143.4,71.4 M147.8,71.7v-7.1c0-0.8-0.3-1.4-1.1-1.4c-0.8,0-1.1,0.6-1.1,1.4v7.1c0,0.8,0.3,1.4,1.1,1.4
	C147.5,73.1,147.8,72.5,147.8,71.7z"/>
<polyline class="st1" points="153.2,66.5 153.2,74.8 151.3,74.8 151.3,61.6 153.5,61.6 155.9,69.2 155.9,61.6 157.7,61.6 
	157.7,74.8 155.8,74.8 153.2,66.5 "/>
</svg>
