<?xml version="1.0" encoding="utf-8"?>
<!-- Generator: Adobe Illustrator 21.0.0, SVG Export Plug-In . SVG Version: 6.00 Build 0)  -->
<svg version="1.1" id="Layer_1" xmlns="http://www.w3.org/2000/svg" xmlns:xlink="http://www.w3.org/1999/xlink" x="0px" y="0px"
	 viewBox="0 0 180 180" style="enable-background:new 0 0 180 180;" xml:space="preserve">
<style type="text/css">
	.st0{fill:#1C97D4;}
	.st1{fill:#FFFFFF;}
</style>
<rect x="7.8" y="9.6" class="st0" width="160.9" height="160.9"/>
<polyline class="st1" points="28.7,23.2 28.7,55.6 23.3,55.6 23.3,30.8 23.2,30.8 19.4,34.8 19.4,34.8 19.4,29.1 24.4,23.2 
	28.7,23.2 "/>
<path class="st1" d="M45.3,55.6v-5.3h2.2v-4.3h-2.2V23.2H40L30.6,47v3.4h9.6v5.3H45.3 M35.3,46.1l4.9-13.4h0v13.4H35.3z"/>
<path class="st1" d="M131.3,127.1c-2-2.7-15.1-19.4-33.5-19.4c-15.9,0-33,14.4-33,14.4s-6.4-13.1-19.5-14.4c-0.1,0-0.2,0-0.2,0h-0.1
	c-0.3,0-0.5,0.3-0.5,0.5c0,0.2,0.2,0.5,0.2,0.5c1.7,2.8,6,10.8,6,18.7c0,8-4.3,16-6,18.8l-0.1,0.2c0,0.1-0.1,0.2-0.1,0.3
	c0,0.3,0.2,0.5,0.5,0.5l0.1,0c0,0,0.1,0,0.1,0c13.1-1.2,19.6-14.4,19.6-14.4s17,14.4,33,14.4c18.3,0,31.4-16.7,33.5-19.4
	c0.1-0.1,0.1-0.1,0.1-0.2c0-0.1,0-0.1,0-0.2c0-0.1,0-0.1,0-0.2C131.4,127.2,131.4,127.1,131.3,127.1 M108.1,129.6
	c-3,0-5.4-2.4-5.4-5.4c0-3,2.4-5.3,5.4-5.3c3,0,5.4,2.4,5.4,5.3C113.4,127.2,111,129.6,108.1,129.6"/>
<path class="st1" d="M45,76.3c0,0-0.1,0-0.1,0c-0.3,0-0.5,0.2-0.5,0.5v3.7c0,0.2,0.1,0.3,0.2,0.4c8.9,7.7,17.2,0.5,19.2-1.4
	c0-0.1,0.1-0.1,0.1-0.1c0.1-0.1,0.2-0.1,0.3-0.1c0.1,0,0.3,0.1,0.4,0.1c0,0,0,0,0,0c10,9.5,20.5,1.8,22.7,0l0.2-0.2
	c0.1,0,0.1,0,0.2,0c0.1,0,0.1,0,0.2,0l0.2,0.2c2.2,1.8,12.7,9.5,22.7,0c0,0,0,0,0,0c0.1-0.1,0.2-0.1,0.4-0.1c0.1,0,0.2,0,0.3,0.1
	c0.1,0,0.1,0.1,0.1,0.1c1.9,1.9,10.3,9.1,19.2,1.4c0.1-0.1,0.2-0.2,0.2-0.4v-3.7c0-0.3-0.2-0.5-0.5-0.5c0,0-0.1,0-0.1,0
	c-0.1,0-0.2,0.1-0.3,0.1c-2.7,1.4-11.2,4.6-18.8-2.6c-0.1-0.1-0.1-0.1-0.2-0.2c-0.1,0-0.1,0-0.2,0c-0.1,0-0.1,0-0.2,0
	c-0.1,0-0.2,0.1-0.3,0.2c-2.3,1.7-12.8,8.8-22.1,0.1L88,73.8c-0.1-0.1-0.2-0.2-0.4-0.2c-0.1,0-0.3,0.1-0.4,0.2l-0.1,0.1
	c-9.3,8.7-19.8,1.6-22.1-0.1c-0.1-0.1-0.1-0.2-0.3-0.2c-0.1,0-0.1,0-0.2,0c-0.1,0-0.1,0-0.2,0c-0.1,0.1-0.1,0.1-0.2,0.2
	c-7.7,7.3-16.1,4-18.8,2.6C45.2,76.4,45.1,76.3,45,76.3"/>
<path class="st1" d="M63.7,92.7c0-0.1,0.1-0.1,0.1-0.1c0.1-0.1,0.2-0.1,0.3-0.1c0.1,0,0.3,0.1,0.4,0.1c0,0,0,0,0,0
	c10,9.5,20.5,1.8,22.7,0l0.2-0.2c0.1,0,0.1,0,0.2,0c0.1,0,0.1,0,0.2,0l0.2,0.2c2.2,1.8,12.7,9.5,22.7,0c0,0,0,0,0,0
	c0.1-0.1,0.2-0.1,0.4-0.1c0.1,0,0.2,0,0.3,0.1c0.1,0,0.1,0.1,0.1,0.1c1.9,1.9,10.3,9.1,19.2,1.4c0.1-0.1,0.2-0.2,0.2-0.4v-3.7
	c0-0.3-0.2-0.5-0.5-0.5c0,0-0.1,0-0.1,0c-0.1,0-0.2,0.1-0.3,0.1c-2.7,1.4-11.2,4.6-18.8-2.6c-0.1-0.1-0.1-0.1-0.2-0.2
	c-0.1,0-0.1-0.1-0.2-0.1c-0.1,0-0.1,0-0.2,0c-0.1,0-0.2,0.1-0.3,0.2c-2.3,1.7-12.8,8.8-22.1,0.1L88,87c-0.1-0.1-0.2-0.1-0.4-0.1
	c-0.1,0-0.3,0.1-0.4,0.1l-0.1,0.1C77.8,95.9,67.3,88.8,65,87c-0.1-0.1-0.1-0.2-0.3-0.2c-0.1,0-0.1,0-0.2,0c-0.1,0-0.1,0-0.2,0.1
	c-0.1,0.1-0.1,0.1-0.2,0.2c-7.7,7.2-16.1,4-18.8,2.6c-0.1,0-0.2-0.1-0.3-0.1c0,0-0.1,0-0.1,0c-0.3,0-0.5,0.2-0.5,0.5v3.7
	c0,0.2,0.1,0.3,0.2,0.4C53.4,101.8,61.8,94.6,63.7,92.7"/>
<polyline class="st1" points="59.1,23.1 61.4,23.1 61.4,34.5 64,34.5 64,36.3 59.1,36.3 59.1,23.1 "/>
<rect x="65" y="23.1" class="st1" width="2.2" height="13.1"/>
<polyline class="st1" points="68.5,23.1 73.7,23.1 73.7,24.9 70.7,24.9 70.7,28.7 72.9,28.7 72.9,30.5 70.7,30.5 70.7,36.3 
	68.5,36.3 68.5,23.1 "/>
<polyline class="st1" points="74.7,23.1 80,23.1 80,24.9 76.9,24.9 76.9,28.7 79.1,28.7 79.1,30.5 76.9,30.5 76.9,34.5 80,34.5 
	80,36.3 74.7,36.3 74.7,23.1 "/>
<path class="st1" d="M84.1,23.1h3.2c2.2,0,2.9,1,2.9,2.9v1.3c0,1.1-0.4,1.8-1.3,2.1c1.1,0.3,1.6,1,1.6,2.2v1.7c0,1.9-0.8,2.9-3,2.9
	h-3.4V23.1 M86.3,28.7h0.8c0.7,0,1-0.4,1-1.1V26c0-0.7-0.3-1.1-1.1-1.1h-0.8V28.7z M86.3,30.4v4.1h1c0.7,0,1.1-0.4,1.1-1.1v-2
	c0-0.7-0.3-1.1-1.1-1.1H86.3z"/>
<polyline class="st1" points="91.5,23.1 96.8,23.1 96.8,24.9 93.7,24.9 93.7,28.7 95.9,28.7 95.9,30.5 93.7,30.5 93.7,34.5 
	96.8,34.5 96.8,36.3 91.5,36.3 91.5,23.1 "/>
<polyline class="st1" points="98.1,23.1 100.3,23.1 100.3,34.5 103,34.5 103,36.3 98.1,36.3 98.1,23.1 "/>
<path class="st1" d="M103.8,32.9v-6.4c0-2.1,1-3.5,3.3-3.5c2.3,0,3.4,1.5,3.4,3.5v6.4c0,2-1,3.5-3.4,3.5
	C104.8,36.4,103.8,34.9,103.8,32.9 M108.3,33.2v-7.1c0-0.8-0.3-1.4-1.1-1.4c-0.8,0-1.1,0.6-1.1,1.4v7.1c0,0.8,0.3,1.4,1.1,1.4
	C108,34.6,108.3,34,108.3,33.2z"/>
<polyline class="st1" points="116.4,28.1 115.1,36.3 113.1,36.3 111.3,23.1 113.4,23.1 114.5,31.5 114.5,31.5 115.6,23.1 
	117.4,23.1 118.6,31.5 118.6,31.5 119.6,23.1 121.5,23.1 119.8,36.3 117.7,36.3 116.4,28.1 116.4,28.1 "/>
<polyline class="st1" points="63.9,47.4 62.7,55.6 60.6,55.6 58.8,42.4 61,42.4 62,50.8 62,50.8 63.1,42.4 64.9,42.4 66.1,50.8 
	66.1,50.8 67.2,42.4 69,42.4 67.3,55.6 65.2,55.6 63.9,47.4 63.9,47.4 "/>
<path class="st1" d="M68.7,55.6l2.5-13.1h2.5l2.5,13.1h-2.3l-0.4-2.4h-2.3l-0.4,2.4H68.7 M71.5,51.4h1.8l-0.9-5.3h0L71.5,51.4z"/>
<polyline class="st1" points="75.8,42.4 81.7,42.4 81.7,44.2 79.8,44.2 79.8,55.6 77.6,55.6 77.6,44.2 75.8,44.2 75.8,42.4 "/>
<polyline class="st1" points="82.7,42.4 88,42.4 88,44.2 84.9,44.2 84.9,48 87.1,48 87.1,49.8 84.9,49.8 84.9,53.8 88,53.8 88,55.6 
	82.7,55.6 82.7,42.4 "/>
<path class="st1" d="M91.4,49.5v6h-2.2V42.4h3.2c2.2,0,3,1.1,3,2.9v1.7c0,1.4-0.5,2.3-1.8,2.5l2.1,6h-2.3L91.4,49.5 M91.4,44.2v4.1
	h0.7c0.8,0,1.1-0.4,1.1-1.1v-1.9c0-0.7-0.3-1.1-1.1-1.1H91.4z"/>
</svg>
