<?xml version="1.0" encoding="utf-8"?>
<!-- Generator: Adobe Illustrator 21.0.0, SVG Export Plug-In . SVG Version: 6.00 Build 0)  -->
<svg version="1.1" id="Layer_1" xmlns="http://www.w3.org/2000/svg" xmlns:xlink="http://www.w3.org/1999/xlink" x="0px" y="0px"
	 viewBox="0 0 180 180" style="enable-background:new 0 0 180 180;" xml:space="preserve">
<style type="text/css">
	.st0{fill:#F99D28;}
	.st1{fill:#FFFFFF;}
</style>
<rect x="9.3" y="9.5" class="st0" width="160.9" height="160.9"/>
<polyline class="st1" points="20.9,28.9 20.9,34.6 20.9,34.6 24.8,30.6 24.8,30.6 24.8,55.5 30.3,55.5 30.3,23 25.9,23 20.9,28.9 
	"/>
<polyline class="st1" points="33.3,28.9 33.3,34.6 33.4,34.6 37.2,30.6 37.2,30.6 37.2,55.5 42.7,55.5 42.7,23 38.3,23 33.3,28.9 
	"/>
<path class="st1" d="M37,132.1h24.2c0.3,0,0.6-0.3,0.6-0.6c0-0.2-0.1-0.3-0.2-0.4l0,0l-12-15.6l-0.1-0.1c-0.1-0.1-0.3-0.2-0.4-0.2
	c-0.1,0-0.3,0.1-0.4,0.2l-0.1,0.1l-0.1,0.1l-11.7,15.4l-0.2,0.2c-0.1,0.1-0.1,0.2-0.1,0.3C36.4,131.8,36.7,132.1,37,132.1"/>
<path class="st1" d="M61.2,134.2H36.9c-0.3,0-0.6,0.3-0.6,0.6v19c0,0.3,0.3,0.6,0.6,0.6h7.8v-11.9c0-0.3,0.3-0.6,0.6-0.6h7.2
	c0.3,0,0.6,0.3,0.6,0.6v11.9h8c0.3,0,0.6-0.3,0.6-0.6v-19C61.8,134.5,61.5,134.2,61.2,134.2"/>
<path class="st1" d="M145,129.3h-24c-0.3,0-0.6,0.3-0.6,0.6v24.2c0,0.3,0.3,0.6,0.6,0.6h24c0.3,0,0.6-0.3,0.6-0.6v-24.2
	C145.6,129.5,145.3,129.3,145,129.3 M131.9,145.1c0,0.3-0.3,0.6-0.6,0.6h-7.2c-0.3,0-0.6-0.3-0.6-0.6v-4.4c0-0.3,0.3-0.6,0.6-0.6
	h7.2c0.3,0,0.6,0.3,0.6,0.6V145.1z M131.9,137c0,0.3-0.3,0.6-0.6,0.6h-7.2c-0.3,0-0.6-0.3-0.6-0.6v-4.4c0-0.3,0.3-0.6,0.6-0.6h7.2
	c0.3,0,0.6,0.3,0.6,0.6V137z M142.8,145.1c0,0.3-0.3,0.6-0.6,0.6h-7.2c-0.3,0-0.6-0.3-0.6-0.6v-4.4c0-0.3,0.3-0.6,0.6-0.6h7.2
	c0.3,0,0.6,0.3,0.6,0.6V145.1z M142.8,137c0,0.3-0.3,0.6-0.6,0.6h-7.2c-0.3,0-0.6-0.3-0.6-0.6v-4.4c0-0.3,0.3-0.6,0.6-0.6h7.2
	c0.3,0,0.6,0.3,0.6,0.6V137z"/>
<path class="st1" d="M89.2,73H65.7c-0.3,0-0.6,0.3-0.6,0.6v80.3c0,0.3,0.3,0.6,0.6,0.6h23.5c0.3,0,0.6-0.3,0.6-0.6V73.6
	C89.8,73.3,89.5,73,89.2,73 M75.2,145.3c0,0.2-0.1,0.3-0.3,0.3h-5.4c-0.2,0-0.3-0.1-0.3-0.3v-6c0-0.2,0.1-0.3,0.3-0.3h5.4
	c0.2,0,0.3,0.1,0.3,0.3V145.3z M75.2,131.5c0,0.2-0.1,0.3-0.3,0.3h-5.4c-0.2,0-0.3-0.1-0.3-0.3v-6c0-0.2,0.1-0.3,0.3-0.3h5.4
	c0.2,0,0.3,0.1,0.3,0.3V131.5z M75.2,117.8c0,0.2-0.1,0.3-0.3,0.3h-5.4c-0.2,0-0.3-0.1-0.3-0.3v-6c0-0.2,0.1-0.3,0.3-0.3h5.4
	c0.2,0,0.3,0.1,0.3,0.3V117.8z M75.2,104c0,0.2-0.1,0.3-0.3,0.3h-5.4c-0.2,0-0.3-0.1-0.3-0.3v-6c0-0.2,0.1-0.3,0.3-0.3h5.4
	c0.2,0,0.3,0.1,0.3,0.3V104z M75.2,90.2c0,0.2-0.1,0.3-0.3,0.3h-5.4c-0.2,0-0.3-0.1-0.3-0.3v-6c0-0.2,0.1-0.3,0.3-0.3h5.4
	c0.2,0,0.3,0.1,0.3,0.3V90.2z M85.8,145.3c0,0.2-0.1,0.3-0.3,0.3h-5.4c-0.2,0-0.3-0.1-0.3-0.3v-6c0-0.2,0.1-0.3,0.3-0.3h5.4
	c0.2,0,0.3,0.1,0.3,0.3V145.3z M85.8,131.5c0,0.2-0.1,0.3-0.3,0.3h-5.4c-0.2,0-0.3-0.1-0.3-0.3v-6c0-0.2,0.1-0.3,0.3-0.3h5.4
	c0.2,0,0.3,0.1,0.3,0.3V131.5z M85.8,117.8c0,0.2-0.1,0.3-0.3,0.3h-5.4c-0.2,0-0.3-0.1-0.3-0.3v-6c0-0.2,0.1-0.3,0.3-0.3h5.4
	c0.2,0,0.3,0.1,0.3,0.3V117.8z M85.8,104c0,0.2-0.1,0.3-0.3,0.3h-5.4c-0.2,0-0.3-0.1-0.3-0.3v-6c0-0.2,0.1-0.3,0.3-0.3h5.4
	c0.2,0,0.3,0.1,0.3,0.3V104z M85.8,90.2c0,0.2-0.1,0.3-0.3,0.3h-5.4c-0.2,0-0.3-0.1-0.3-0.3v-6c0-0.2,0.1-0.3,0.3-0.3h5.4
	c0.2,0,0.3,0.1,0.3,0.3V90.2z"/>
<path class="st1" d="M145.5,126.8c0,0.3-0.2,0.5-0.5,0.5h-24.2c-0.3,0-0.5-0.2-0.5-0.5V122c0-0.3,0.2-0.5,0.5-0.5h24.2
	c0.3,0,0.5,0.2,0.5,0.5V126.8"/>
<path class="st1" d="M117.6,88.2c-0.1-0.3-0.3-0.4-0.6-0.4c-0.1,0-0.2,0-0.3,0.1c0,0,0,0,0,0l-0.2,0.3l-23.1,29.3l-0.1,0.1
	c-0.1,0.1-0.2,0.3-0.2,0.5v36c0,0.3,0.3,0.6,0.6,0.6H117c0.3,0,0.6-0.3,0.6-0.6V88.4C117.6,88.3,117.6,88.2,117.6,88.2 M107.8,104.1
	l0.2-0.2c1.6-2,4.2-5.3,5.5-6.9l0.2-0.2c0.1-0.1,0.3-0.2,0.5-0.2c0.3,0,0.6,0.2,0.6,0.5v7.4c0,0.4-0.3,0.6-0.6,0.7c0,0,0,0,0,0
	c0,0,0,0,0,0h-5.8c0,0,0,0,0,0c0,0,0,0,0,0c-0.4,0-0.6-0.3-0.6-0.7C107.7,104.3,107.8,104.2,107.8,104.1z M104.2,145.1
	c0,0.3-0.3,0.6-0.6,0.6h-7c-0.3,0-0.6-0.3-0.6-0.6v-4.4c0-0.3,0.3-0.6,0.6-0.6h7c0.3,0,0.6,0.3,0.6,0.6V145.1z M104.2,137
	c0,0.3-0.3,0.6-0.6,0.6h-7c-0.3,0-0.6-0.3-0.6-0.6v-4.4c0-0.3,0.3-0.6,0.6-0.6h7c0.3,0,0.6,0.3,0.6,0.6V137z M104.2,128.9
	c0,0.3-0.3,0.6-0.6,0.6h-7c-0.3,0-0.6-0.3-0.6-0.6v-4.4c0-0.3,0.3-0.6,0.6-0.6h7c0.3,0,0.6,0.3,0.6,0.6V128.9z M104.2,111.2v9.7
	c0,0.3-0.3,0.6-0.6,0.6h-7c-0.3,0-0.6-0.3-0.6-0.6v-1.2c0-0.1,0-0.1,0-0.2c0,0,0,0,0-0.1c0,0,0-0.1,0.1-0.1c0,0,0-0.1,0.1-0.1
	c0.9-1.3,4.9-6.3,6.6-8.3l0.2-0.2c0.1-0.1,0.3-0.2,0.5-0.2c0.3,0,0.6,0.2,0.6,0.5V111.2z M114.9,145.1c0,0.3-0.3,0.6-0.6,0.6h-7
	c-0.3,0-0.6-0.3-0.6-0.6v-4.4c0-0.3,0.3-0.6,0.6-0.6h7c0.3,0,0.6,0.3,0.6,0.6V145.1z M114.9,137c0,0.3-0.3,0.6-0.6,0.6h-7
	c-0.3,0-0.6-0.3-0.6-0.6v-4.4c0-0.3,0.3-0.6,0.6-0.6h7c0.3,0,0.6,0.3,0.6,0.6V137z M114.9,128.9c0,0.3-0.3,0.6-0.6,0.6h-7
	c-0.3,0-0.6-0.3-0.6-0.6v-4.4c0-0.3,0.3-0.6,0.6-0.6h7c0.3,0,0.6,0.3,0.6,0.6V128.9z M114.9,120.8c0,0.3-0.3,0.6-0.6,0.6h-7
	c-0.3,0-0.6-0.3-0.6-0.6v-4.4c0-0.3,0.3-0.6,0.6-0.6h7c0.3,0,0.6,0.3,0.6,0.6V120.8z M114.9,112.7c0,0.3-0.3,0.6-0.6,0.6h-7
	c-0.3,0-0.6-0.3-0.6-0.6v-4.4c0-0.3,0.3-0.6,0.6-0.6h7c0.3,0,0.6,0.3,0.6,0.6V112.7z"/>
<path class="st1" d="M53.3,33.3v-1.8h2.1v1.8c0,0.7,0.3,1.2,1.1,1.2c0.7,0,1-0.5,1-1.2v-0.5c0-0.8-0.3-1.2-1-1.9l-1.3-1.3
	c-1.3-1.2-1.8-2-1.8-3.5v-0.4c0-1.6,1-2.9,3.1-2.9c2.2,0,3.1,1.1,3.1,3v1.1h-2v-1.1c0-0.8-0.3-1.1-1-1.1c-0.6,0-1,0.3-1,1.1V26
	c0,0.7,0.4,1.2,1,1.8l1.4,1.4c1.2,1.2,1.8,2,1.8,3.4v0.6c0,1.8-1,3.1-3.2,3.1C54.2,36.3,53.3,35,53.3,33.3"/>
<path class="st1" d="M67,23V33c0,2-0.9,3.4-3.1,3.4c-2.3,0-3.3-1.3-3.3-3.4V23h2.2v10.2c0,0.8,0.3,1.3,1.1,1.3
	c0.8,0,1.1-0.5,1.1-1.3V23H67"/>
<path class="st1" d="M68.2,33.3v-1.8h2.1v1.8c0,0.7,0.3,1.2,1.1,1.2c0.7,0,1-0.5,1-1.2v-0.5c0-0.8-0.3-1.2-1-1.9L70,29.7
	c-1.3-1.2-1.8-2-1.8-3.5v-0.4c0-1.6,0.9-2.9,3.1-2.9c2.2,0,3.1,1.1,3.1,3v1.1h-2v-1.1c0-0.8-0.3-1.1-1-1.1c-0.6,0-1,0.3-1,1.1V26
	c0,0.7,0.4,1.2,1,1.8l1.4,1.4c1.2,1.2,1.8,2,1.8,3.4v0.6c0,1.8-1,3.1-3.2,3.1C69,36.3,68.2,35,68.2,33.3"/>
<polyline class="st1" points="75,23 80.9,23 80.9,24.8 79.1,24.8 79.1,36.2 76.8,36.2 76.8,24.8 75,24.8 75,23 "/>
<path class="st1" d="M80.5,36.2L83,23h2.5L88,36.2h-2.3l-0.4-2.4H83l-0.4,2.4H80.5 M83.3,32H85l-0.9-5.3h0L83.3,32z"/>
<rect x="88.9" y="23" class="st1" width="2.2" height="13.1"/>
<polyline class="st1" points="94.2,27.9 94.2,36.2 92.4,36.2 92.4,23 94.5,23 96.9,30.5 96.9,23 98.8,23 98.8,36.2 96.8,36.2 
	94.2,27.9 "/>
<path class="st1" d="M99.5,36.2L102,23h2.5l2.5,13.1h-2.3l-0.4-2.4H102l-0.4,2.4H99.5 M102.3,32h1.8l-0.9-5.3h0L102.3,32z"/>
<path class="st1" d="M107.7,23h3.2c2.2,0,2.9,1,2.9,2.9v1.3c0,1.1-0.4,1.8-1.3,2.1c1.1,0.3,1.6,1,1.6,2.2v1.7c0,1.9-0.8,2.9-3,2.9
	h-3.4V23 M109.9,28.5h0.8c0.7,0,1-0.4,1-1.1v-1.6c0-0.7-0.3-1.1-1.1-1.1h-0.8V28.5z M109.9,30.2v4.1h1c0.7,0,1.1-0.4,1.1-1.1v-2
	c0-0.7-0.3-1.1-1.1-1.1H109.9z"/>
<polyline class="st1" points="115.1,23 117.3,23 117.3,34.3 119.9,34.3 119.9,36.2 115.1,36.2 115.1,23 "/>
<polyline class="st1" points="120.7,23 126,23 126,24.8 123,24.8 123,28.6 125.2,28.6 125.2,30.4 123,30.4 123,34.3 126,34.3 
	126,36.2 120.7,36.2 120.7,23 "/>
<path class="st1" d="M129.8,32.8v-6.4c0-2.1,1-3.5,3.3-3.5c2.4,0,3.1,1.4,3.1,3.3v1.6h-2V26c0-0.8-0.3-1.3-1.1-1.3
	c-0.8,0-1.1,0.6-1.1,1.4v7.1c0,0.8,0.3,1.4,1.1,1.4c0.8,0,1.1-0.5,1.1-1.3v-2.4h2V33c0,1.9-0.8,3.3-3.1,3.3
	C130.7,36.3,129.8,34.8,129.8,32.8"/>
<rect x="137.2" y="23" class="st1" width="2.2" height="13.1"/>
<polyline class="st1" points="140.2,23 146.1,23 146.1,24.8 144.3,24.8 144.3,36.2 142.1,36.2 142.1,24.8 140.2,24.8 140.2,23 "/>
<rect x="147" y="23" class="st1" width="2.2" height="13.1"/>
<polyline class="st1" points="150.4,23 155.6,23 155.6,24.8 152.6,24.8 152.6,28.6 154.8,28.6 154.8,30.4 152.6,30.4 152.6,34.3 
	155.6,34.3 155.6,36.2 150.4,36.2 150.4,23 "/>
<path class="st1" d="M156.2,33.3v-1.8h2.1v1.8c0,0.7,0.3,1.2,1.1,1.2c0.7,0,1-0.5,1-1.2v-0.5c0-0.8-0.3-1.2-1-1.9l-1.3-1.3
	c-1.3-1.2-1.8-2-1.8-3.5v-0.4c0-1.6,0.9-2.9,3.1-2.9c2.2,0,3.1,1.1,3.1,3v1.1h-2v-1.1c0-0.8-0.3-1.1-1-1.1c-0.6,0-1,0.3-1,1.1V26
	c0,0.7,0.4,1.2,1,1.8l1.4,1.4c1.2,1.2,1.8,2,1.8,3.4v0.6c0,1.8-1,3.1-3.2,3.1C157.1,36.3,156.2,35,156.2,33.3"/>
<path class="st1" d="M53.3,55.5l2.5-13.1h2.5l2.5,13.1h-2.3l-0.4-2.4h-2.3l-0.4,2.4H53.3 M56.1,51.3h1.8L57,46h0L56.1,51.3z"/>
<polyline class="st1" points="63.8,47.2 63.8,55.5 61.9,55.5 61.9,42.3 64.1,42.3 66.5,49.9 66.5,42.3 68.3,42.3 68.3,55.5 
	66.4,55.5 63.8,47.2 "/>
<path class="st1" d="M76.4,45.9v6.1c0,2-0.8,3.5-3.2,3.5h-3.4V42.3h3.4C75.6,42.3,76.4,43.8,76.4,45.9 M72.9,53.7
	c0.9,0,1.3-0.5,1.3-1.3v-6.9c0-0.8-0.4-1.3-1.3-1.3H72v9.5H72.9z"/>
<path class="st1" d="M80.1,52.1v-6.4c0-2.1,1-3.5,3.3-3.5c2.4,0,3.1,1.4,3.1,3.3V47h-2v-1.7c0-0.8-0.3-1.3-1.1-1.3
	c-0.8,0-1.1,0.6-1.1,1.4v7.1c0,0.8,0.3,1.4,1.1,1.4c0.8,0,1.1-0.5,1.1-1.3v-2.4h2v2.3c0,1.9-0.8,3.3-3.1,3.3
	C81.1,55.6,80.1,54.1,80.1,52.1"/>
<path class="st1" d="M87.9,52.1v-6.4c0-2.1,1-3.5,3.3-3.5c2.3,0,3.4,1.5,3.4,3.5v6.4c0,2-1,3.5-3.4,3.5
	C88.9,55.6,87.9,54.1,87.9,52.1 M92.4,52.4v-7.1c0-0.8-0.3-1.4-1.1-1.4c-0.8,0-1.1,0.6-1.1,1.4v7.1c0,0.8,0.3,1.4,1.1,1.4
	C92.1,53.8,92.4,53.2,92.4,52.4z"/>
<polyline class="st1" points="102.2,46.9 102.1,46.9 100.6,55.5 99.6,55.5 97.9,46.9 97.9,46.9 97.9,55.5 96.1,55.5 96.1,42.3 
	98.7,42.3 100.1,49.7 100.1,49.7 101.4,42.3 104.2,42.3 104.2,55.5 102.2,55.5 102.2,46.9 "/>
<polyline class="st1" points="111.7,46.9 111.7,46.9 110.2,55.5 109.1,55.5 107.5,46.9 107.5,46.9 107.5,55.5 105.6,55.5 
	105.6,42.3 108.2,42.3 109.7,49.7 109.7,49.7 111,42.3 113.7,42.3 113.7,55.5 111.7,55.5 111.7,46.9 "/>
<path class="st1" d="M121.6,42.3v9.9c0,2-0.9,3.4-3.1,3.4c-2.3,0-3.3-1.3-3.3-3.4v-9.9h2.2v10.2c0,0.8,0.3,1.3,1.1,1.3
	c0.8,0,1.1-0.5,1.1-1.3V42.3H121.6"/>
<polyline class="st1" points="124.9,47.2 124.9,55.5 123.1,55.5 123.1,42.3 125.3,42.3 127.6,49.9 127.6,42.3 129.5,42.3 
	129.5,55.5 127.5,55.5 124.9,47.2 "/>
<rect x="130.9" y="42.3" class="st1" width="2.2" height="13.1"/>
<polyline class="st1" points="134.3,42.3 140.2,42.3 140.2,44.1 138.4,44.1 138.4,55.5 136.2,55.5 136.2,44.1 134.3,44.1 
	134.3,42.3 "/>
<rect x="141.4" y="42.3" class="st1" width="2.2" height="13.1"/>
<polyline class="st1" points="145.1,42.3 150.4,42.3 150.4,44.1 147.3,44.1 147.3,47.9 149.5,47.9 149.5,49.7 147.3,49.7 
	147.3,53.7 150.4,53.7 150.4,55.5 145.1,55.5 145.1,42.3 "/>
<path class="st1" d="M151.6,52.6v-1.8h2.1v1.8c0,0.7,0.3,1.2,1.1,1.2c0.7,0,1-0.5,1-1.2v-0.5c0-0.8-0.3-1.2-1-1.9l-1.3-1.3
	c-1.3-1.2-1.8-2-1.8-3.5v-0.4c0-1.6,1-2.9,3.1-2.9c2.2,0,3.1,1.1,3.1,3v1.1h-2v-1.1c0-0.8-0.3-1.1-1-1.1c-0.6,0-1,0.3-1,1.1v0.3
	c0,0.7,0.4,1.2,1,1.8l1.4,1.4c1.2,1.2,1.8,2,1.8,3.4v0.6c0,1.8-1,3.1-3.2,3.1C152.4,55.6,151.6,54.4,151.6,52.6"/>
</svg>
