<?xml version="1.0" encoding="utf-8"?>
<!-- Generator: Adobe Illustrator 21.0.0, SVG Export Plug-In . SVG Version: 6.00 Build 0)  -->
<svg version="1.1" id="Layer_1" xmlns="http://www.w3.org/2000/svg" xmlns:xlink="http://www.w3.org/1999/xlink" x="0px" y="0px"
	 viewBox="0 0 180 180" style="enable-background:new 0 0 180 180;" xml:space="preserve">
<style type="text/css">
	.st0{fill:#18496B;}
	.st1{fill:#FFFFFF;}
</style>
<rect x="7.5" y="9.5" class="st0" width="160.9" height="160.9"/>
<polyline class="st1" points="31.6,23 31.6,55.5 26.1,55.5 26.1,30.6 26.1,30.6 22.2,34.6 22.2,34.6 22.2,28.9 27.2,23 31.6,23 "/>
<polyline class="st1" points="34,23 47.7,23 47.7,28 40.6,55.5 35.2,55.5 42.5,27.5 34,27.5 34,23 "/>
<path class="st1" d="M128.8,107.1c0-11.3-9-20.5-20.2-20.9c-2.9-8.1-10.7-14-19.8-14c-9.1,0-16.9,5.8-19.8,14
	c-11.2,0.4-20.2,9.6-20.2,20.9c0,6.7,3.2,12.7,8.1,16.5c-0.5,1.8-0.8,3.8-0.8,5.8c0,11.6,9.4,21,21,21c4.4,0,8.5-1.4,11.8-3.7
	c3.3,2.2,7.3,3.5,11.6,3.5c11.6,0,21-9.4,21-21c0-2-0.3-3.9-0.8-5.7C125.7,119.8,128.8,113.8,128.8,107.1 M105.6,93.2
	c0,8.4-6.2,15.3-14.3,16.5c-0.1-0.8-0.2-1.7-0.2-2.6c0-8.4,6.2-15.3,14.3-16.5C105.5,91.4,105.6,92.3,105.6,93.2 M89,141.3
	c-3.1-3-5.1-7.3-5.1-12c0-4.6,1.9-8.8,4.9-11.9c3.1,3,5.1,7.3,5.1,12C93.9,134.1,92,138.3,89,141.3 M72.4,90.6
	c8.1,1.2,14.3,8.1,14.3,16.5c0,0.9-0.1,1.7-0.2,2.6c-8.1-1.2-14.3-8.1-14.3-16.5C72.2,92.3,72.2,91.4,72.4,90.6 M84.9,114.6
	c-2.8,5.5-8.4,9.3-14.9,9.3c-2.8,0-5.4-0.7-7.7-1.9c2.8-5.5,8.4-9.3,15-9.3C79.9,112.7,82.5,113.4,84.9,114.6 M92.9,114.5
	c2.3-1.2,4.9-1.9,7.7-1.9c6.6,0,12.3,3.8,15,9.4c-2.3,1.2-5,1.9-7.7,1.9C101.3,123.9,95.6,120,92.9,114.5 M88.9,76.4
	c6.9,0,12.8,4.1,15.3,10.1c-6.8,1.2-12.5,5.7-15.3,11.8c-2.8-6.1-8.5-10.6-15.3-11.8C76.1,80.6,82,76.4,88.9,76.4 M53.2,107.1
	c0-8.6,6.6-15.7,14.9-16.6c-0.1,0.9-0.2,1.8-0.2,2.7c0,6.1,2.6,11.6,6.8,15.5c-7,0.8-12.9,5-16.1,10.9
	C55.3,116.5,53.2,112.1,53.2,107.1 M60.4,129.5c0-1.2,0.1-2.3,0.4-3.5c2.8,1.3,5.8,2.1,9.1,2.1c3.7,0,7.1-1,10.1-2.6
	c-0.2,1.3-0.4,2.5-0.4,3.9c0,5.7,2.3,10.8,5.9,14.6c-2.5,1.4-5.4,2.3-8.4,2.3C67.9,146.2,60.4,138.7,60.4,129.5 M117.4,129.3
	c0,9.2-7.5,16.7-16.7,16.7c-3,0-5.8-0.8-8.3-2.2c3.6-3.8,5.8-8.8,5.8-14.4c0-1.4-0.1-2.7-0.4-4c3,1.7,6.5,2.6,10.2,2.6
	c3.3,0,6.4-0.8,9.1-2.1C117.2,127.1,117.4,128.2,117.4,129.3 M103.1,108.5c4.1-3.8,6.7-9.3,6.7-15.4c0-0.9-0.1-1.8-0.2-2.7
	c8.4,0.9,14.9,8,14.9,16.6c0,4.9-2.1,9.3-5.5,12.4C116,113.6,110.1,109.4,103.1,108.5"/>
<path class="st1" d="M58.9,23h3.3c2.2,0,3,1.1,3,2.9v2.8c0,1.8-0.8,3-3,3h-1.1v4.5h-2.2V23 M61.1,24.8V30h0.8c0.8,0,1.1-0.4,1.1-1.1
	v-3c0-0.7-0.3-1.1-1.1-1.1H61.1z"/>
<path class="st1" d="M65.5,36.2L67.9,23h2.5L73,36.2h-2.3l-0.4-2.4h-2.3l-0.4,2.4H65.5 M68.2,32H70l-0.9-5.3h0L68.2,32z"/>
<path class="st1" d="M76.3,30.1v6h-2.2V23h3.2c2.2,0,3,1.1,3,2.9v1.7c0,1.4-0.5,2.3-1.8,2.5l2.1,6h-2.3L76.3,30.1 M76.3,24.8v4.1H77
	c0.8,0,1.1-0.4,1.1-1.1v-1.9c0-0.7-0.3-1.1-1.1-1.1H76.3z"/>
<polyline class="st1" points="81.1,23 87,23 87,24.8 85.2,24.8 85.2,36.2 82.9,36.2 82.9,24.8 81.1,24.8 81.1,23 "/>
<polyline class="st1" points="90.2,27.9 90.2,36.2 88.4,36.2 88.4,23 90.6,23 92.9,30.6 92.9,23 94.8,23 94.8,36.2 92.8,36.2 
	90.2,27.9 "/>
<polyline class="st1" points="96.6,23 101.9,23 101.9,24.8 98.8,24.8 98.8,28.6 101,28.6 101,30.4 98.8,30.4 98.8,34.4 101.9,34.4 
	101.9,36.2 96.6,36.2 96.6,23 "/>
<path class="st1" d="M105.5,30.1v6h-2.2V23h3.2c2.2,0,3,1.1,3,2.9v1.7c0,1.4-0.5,2.3-1.8,2.5l2.1,6h-2.3L105.5,30.1 M105.5,24.8v4.1
	h0.7c0.8,0,1.1-0.4,1.1-1.1v-1.9c0-0.7-0.3-1.1-1.1-1.1H105.5z"/>
<path class="st1" d="M110.6,33.3v-1.8h2.1v1.8c0,0.7,0.3,1.2,1.1,1.2c0.7,0,1-0.5,1-1.2v-0.5c0-0.8-0.3-1.2-1-1.9l-1.3-1.3
	c-1.3-1.2-1.8-2-1.8-3.5v-0.4c0-1.6,1-2.9,3.1-2.9c2.2,0,3.1,1.1,3.1,3v1.1h-2v-1.1c0-0.8-0.3-1.1-1-1.1c-0.6,0-1,0.3-1,1.1V26
	c0,0.7,0.4,1.2,1,1.8l1.4,1.4c1.2,1.2,1.8,2,1.8,3.4v0.6c0,1.8-1,3.1-3.2,3.1S110.6,35.1,110.6,33.3"/>
<polyline class="st1" points="122.7,30.4 120.5,30.4 120.5,36.2 118.3,36.2 118.3,23 120.5,23 120.5,28.6 122.7,28.6 122.7,23 
	124.9,23 124.9,36.2 122.7,36.2 122.7,30.4 "/>
<rect x="126.4" y="23" class="st1" width="2.2" height="13.1"/>
<path class="st1" d="M130.1,23h3.3c2.2,0,3,1.1,3,2.9v2.8c0,1.8-0.8,3-3,3h-1.1v4.5h-2.2V23 M132.3,24.8V30h0.8
	c0.8,0,1.1-0.4,1.1-1.1v-3c0-0.7-0.3-1.1-1.1-1.1H132.3z"/>
<path class="st1" d="M137.2,33.3v-1.8h2.1v1.8c0,0.7,0.3,1.2,1.1,1.2c0.7,0,1-0.5,1-1.2v-0.5c0-0.8-0.3-1.2-1-1.9l-1.3-1.3
	c-1.3-1.2-1.8-2-1.8-3.5v-0.4c0-1.6,1-2.9,3.1-2.9c2.2,0,3.1,1.1,3.1,3v1.1h-2v-1.1c0-0.8-0.3-1.1-1-1.1c-0.6,0-1,0.3-1,1.1V26
	c0,0.7,0.4,1.2,1,1.8l1.4,1.4c1.2,1.2,1.8,2,1.8,3.4v0.6c0,1.8-1,3.1-3.2,3.1C138.1,36.3,137.2,35.1,137.2,33.3"/>
<polyline class="st1" points="58.9,42.1 64.1,42.1 64.1,43.9 61.1,43.9 61.1,47.8 63.4,47.8 63.4,49.6 61.1,49.6 61.1,55.5 
	58.9,55.5 58.9,42.1 "/>
<path class="st1" d="M64.9,52v-6.5c0-2.1,1-3.6,3.4-3.6c2.4,0,3.4,1.5,3.4,3.6V52c0,2.1-1,3.6-3.4,3.6C65.9,55.6,64.9,54.1,64.9,52
	 M69.4,52.4v-7.2c0-0.8-0.4-1.4-1.2-1.4c-0.8,0-1.1,0.6-1.1,1.4v7.2c0,0.8,0.4,1.4,1.1,1.4C69.1,53.8,69.4,53.2,69.4,52.4z"/>
<path class="st1" d="M75.4,49.3v6.1h-2.2V42.1h3.3c2.3,0,3.1,1.1,3.1,3v1.7c0,1.4-0.5,2.3-1.8,2.6l2.1,6.1h-2.4L75.4,49.3
	 M75.4,43.9v4.2h0.7c0.8,0,1.1-0.4,1.1-1.1v-2c0-0.7-0.3-1.1-1.1-1.1H75.4z"/>
<polyline class="st1" points="83.1,42.1 89,42.1 89,43.9 87.2,43.9 87.2,55.5 84.9,55.5 84.9,43.9 83.1,43.9 83.1,42.1 "/>
<polyline class="st1" points="94.5,49.6 92.3,49.6 92.3,55.5 90.1,55.5 90.1,42.1 92.3,42.1 92.3,47.8 94.5,47.8 94.5,42.1 
	96.8,42.1 96.8,55.5 94.5,55.5 94.5,49.6 "/>
<polyline class="st1" points="98.2,42.1 103.6,42.1 103.6,43.9 100.5,43.9 100.5,47.8 102.7,47.8 102.7,49.6 100.5,49.6 100.5,53.6 
	103.6,53.6 103.6,55.5 98.2,55.5 98.2,42.1 "/>
<path class="st1" d="M110.8,48.3h3.2v7.1h-1.6V54c-0.3,1-0.9,1.6-2.1,1.6c-1.9,0-2.8-1.5-2.8-3.6v-6.5c0-2.1,1-3.6,3.4-3.6
	c2.5,0,3.2,1.4,3.2,3.3v1.2h-2v-1.4c0-0.8-0.3-1.3-1.1-1.3c-0.8,0-1.2,0.6-1.2,1.4v7.2c0,0.8,0.3,1.4,1.1,1.4c0.7,0,1.1-0.4,1.1-1.3
	v-2.4h-1.1V48.3"/>
<path class="st1" d="M115.2,52v-6.5c0-2.1,1-3.6,3.4-3.6c2.4,0,3.4,1.5,3.4,3.6V52c0,2.1-1,3.6-3.4,3.6
	C116.3,55.6,115.2,54.1,115.2,52 M119.8,52.4v-7.2c0-0.8-0.4-1.4-1.2-1.4c-0.8,0-1.1,0.6-1.1,1.4v7.2c0,0.8,0.4,1.4,1.1,1.4
	C119.4,53.8,119.8,53.2,119.8,52.4z"/>
<path class="st1" d="M122.7,55.5l2.5-13.4h2.6l2.5,13.4H128l-0.4-2.4h-2.4l-0.4,2.4H122.7 M125.5,51.2h1.8l-0.9-5.4h0L125.5,51.2z"
	/>
<polyline class="st1" points="131.6,42.1 133.8,42.1 133.8,53.6 136.5,53.6 136.5,55.5 131.6,55.5 131.6,42.1 "/>
<path class="st1" d="M137.3,52.6v-1.8h2.1v1.8c0,0.7,0.3,1.2,1.1,1.2c0.7,0,1-0.5,1-1.2v-0.5c0-0.8-0.3-1.2-1-1.9l-1.3-1.3
	c-1.3-1.3-1.9-2-1.9-3.6v-0.5c0-1.7,1-2.9,3.2-2.9c2.2,0,3.1,1.1,3.1,3v1.1h-2v-1.2c0-0.8-0.4-1.1-1.1-1.1c-0.6,0-1.1,0.4-1.1,1.1
	v0.3c0,0.7,0.4,1.2,1.1,1.8l1.4,1.4c1.2,1.2,1.8,2,1.8,3.5v0.7c0,1.8-1,3.1-3.3,3.1C138.2,55.6,137.3,54.4,137.3,52.6"/>
</svg>
