<?xml version="1.0" encoding="utf-8"?>
<!-- Generator: Adobe Illustrator 21.0.0, SVG Export Plug-In . SVG Version: 6.00 Build 0)  -->
<svg version="1.1" id="Layer_1" xmlns="http://www.w3.org/2000/svg" xmlns:xlink="http://www.w3.org/1999/xlink" x="0px" y="0px"
	 viewBox="0 0 180 180" style="enable-background:new 0 0 180 180;" xml:space="preserve">
<style type="text/css">
	.st0{fill:#DEA73A;}
	.st1{fill:#FFFFFF;}
</style>
<rect x="9.5" y="9.5" class="st0" width="160.9" height="160.9"/>
<path class="st1" d="M39.6,51h-8.9v-1.5c0-2.5,0.9-3.5,2.3-5l3.5-3.7c2.8-3,3.4-4.9,3.4-8.2v-3.2c0-4.6-2.3-6.8-7.1-6.8
	c-4.8,0-7.2,2.5-7.2,7.1v3.9h5v-4.1c0-2,1-2.5,2.1-2.5c1.1,0,2,0.4,2,2.4v2.7c0,2.7-0.2,3.7-2,5.6L29.5,41c-3,3.2-4.1,5.3-4.1,8.5v6
	h14.2V51"/>
<path class="st1" d="M73.7,146.3v2.3c0,0,0,0,0,0.1c0,0,0,0,0,0.1c0,0.6,0.5,1,1,1c0,0,0,0,0,0s0,0,0,0h26.5c0,0,0,0,0,0
	c0,0,0,0,0,0c0.6,0,1-0.5,1-1.1c0,0,0,0,0,0c0,0,0,0,0,0V146c14.9-4.9,26.1-17,28.6-31.8c0,0,0-0.1,0-0.1c0-0.1,0-0.1,0-0.1
	c0-0.6-0.5-1.1-1.1-1.1H45.4c-0.6,0-1.1,0.5-1.1,1.1l0.1,0.5C47,129.4,58.5,141.6,73.7,146.3"/>
<path class="st1" d="M102.4,76.8c-0.3,0.5-8.5,12.3,0.2,21.8c4,4.4,3.6,8.2,2.5,10.8h5.6c1.1-3.8,0.7-8.7-3.9-13.6
	c-6.4-7,0.1-16.5,0.2-16.6c0.8-1.1,0.4-2.5-0.9-3.1C104.8,75.4,103.2,75.8,102.4,76.8"/>
<path class="st1" d="M88.3,109.4h5.6c1.1-3.8,0.7-8.7-3.9-13.6c-6.4-7,0.1-16.5,0.2-16.6c0.8-1.1,0.4-2.5-0.9-3.1
	c-1.3-0.6-2.9-0.3-3.7,0.8c-0.4,0.5-8.5,12.3,0.2,21.8C89.8,103,89.4,106.8,88.3,109.4"/>
<path class="st1" d="M68.8,76.8c-0.4,0.5-8.5,12.3,0.2,21.8c4,4.4,3.6,8.2,2.5,10.8H77c1.1-3.8,0.7-8.7-3.9-13.6
	c-6.4-7,0.1-16.5,0.2-16.6c0.8-1.1,0.4-2.5-0.9-3.1C71.2,75.4,69.5,75.8,68.8,76.8"/>
<polyline class="st1" points="57.7,34.4 61,34.4 61,36.2 55.4,36.2 55.4,34.4 58.8,24.8 55.7,24.8 55.7,23 61.2,23 61.2,24.8 
	57.7,34.4 "/>
<polyline class="st1" points="62.5,23 67.8,23 67.8,24.8 64.7,24.8 64.7,28.6 66.9,28.6 66.9,30.4 64.7,30.4 64.7,34.4 67.8,34.4 
	67.8,36.2 62.5,36.2 62.5,23 "/>
<path class="st1" d="M71.4,30.1v6h-2.2V23h3.2c2.2,0,3,1.1,3,2.9v1.7c0,1.4-0.5,2.3-1.8,2.5l2.1,6h-2.3L71.4,30.1 M71.4,24.8v4.1
	h0.7c0.8,0,1.1-0.4,1.1-1.1v-1.9c0-0.7-0.3-1.1-1.1-1.1H71.4z"/>
<path class="st1" d="M76.8,32.8v-6.4c0-2.1,1-3.5,3.3-3.5c2.3,0,3.4,1.5,3.4,3.5v6.4c0,2-1,3.5-3.4,3.5
	C77.8,36.3,76.8,34.8,76.8,32.8 M81.3,33.1v-7.1c0-0.8-0.3-1.4-1.1-1.4c-0.8,0-1.1,0.6-1.1,1.4v7.1c0,0.8,0.4,1.4,1.1,1.4
	C81,34.5,81.3,33.9,81.3,33.1z"/>
<polyline class="st1" points="59.8,49.6 57.7,49.6 57.7,55.4 55.5,55.4 55.5,42.3 57.7,42.3 57.7,47.9 59.8,47.9 59.8,42.3 
	62.1,42.3 62.1,55.4 59.8,55.4 59.8,49.6 "/>
<path class="st1" d="M69.9,42.3v9.9c0,2-0.9,3.4-3.1,3.4c-2.3,0-3.3-1.3-3.3-3.4v-9.9h2.2v10.2c0,0.8,0.3,1.3,1.1,1.3
	c0.8,0,1.1-0.5,1.1-1.3V42.3H69.9"/>
<polyline class="st1" points="73.2,47.2 73.2,55.4 71.4,55.4 71.4,42.3 73.6,42.3 75.9,49.8 75.9,42.3 77.8,42.3 77.8,55.4 
	75.8,55.4 73.2,47.2 "/>
<path class="st1" d="M82.6,48.4h3.1v7h-1.6V54c-0.3,1-0.9,1.6-2.1,1.6c-1.9,0-2.8-1.5-2.8-3.5v-6.4c0-2.1,1-3.5,3.3-3.5
	c2.4,0,3.2,1.4,3.2,3.3v1.2h-2v-1.3c0-0.8-0.3-1.3-1.1-1.3s-1.1,0.6-1.1,1.4v7.1c0,0.8,0.3,1.4,1.1,1.4c0.7,0,1.1-0.4,1.1-1.3v-2.3
	h-1V48.4"/>
<polyline class="st1" points="87.2,42.3 92.5,42.3 92.5,44.1 89.4,44.1 89.4,47.9 91.6,47.9 91.6,49.6 89.4,49.6 89.4,53.6 
	92.5,53.6 92.5,55.4 87.2,55.4 87.2,42.3 "/>
<path class="st1" d="M96,49.4v6h-2.2V42.3h3.2c2.2,0,3,1.1,3,2.9v1.7c0,1.4-0.5,2.3-1.8,2.5l2.1,6h-2.3L96,49.4 M96,44.1v4.1h0.7
	c0.8,0,1.1-0.4,1.1-1.1v-1.9c0-0.7-0.3-1.1-1.1-1.1H96z"/>
</svg>
