<?xml version="1.0" encoding="utf-8"?>
<!-- Generator: Adobe Illustrator 21.0.0, SVG Export Plug-In . SVG Version: 6.00 Build 0)  -->
<svg version="1.1" id="Layer_1" xmlns="http://www.w3.org/2000/svg" xmlns:xlink="http://www.w3.org/1999/xlink" x="0px" y="0px"
	 viewBox="0 0 180 180" style="enable-background:new 0 0 180 180;" xml:space="preserve">
<style type="text/css">
	.st0{fill:#4CA046;}
	.st1{fill:#FFFFFF;}
</style>
<rect x="9.5" y="9.5" class="st0" width="160.9" height="160.9"/>
<path class="st1" d="M32.5,55.9c5.5,0,7.9-2.9,7.9-7.4v-4.8c0-3-1.3-4.9-4-5.5c2.2-0.7,3.7-2.5,3.7-5.3v-2.8c0-4.6-2.2-7.4-7.2-7.4
	c-5.6,0-7.6,3.3-7.6,8.1v2.9h5v-3.3c0-2,0.6-3.2,2.3-3.2c1.7,0,2.3,1.1,2.3,2.9v3.5c0,1.7-1.1,2.6-2.9,2.6H30v4.2h2.3
	c1.9,0,2.7,0.9,2.7,2.6v5.4c0,1.7-0.8,2.9-2.4,2.9c-1.9,0-2.5-1.2-2.5-3.2v-4.6h-5v4.3C25,52.8,27,55.9,32.5,55.9"/>
<path class="st1" d="M144,110.1c0-4.5-2.9-8.2-7.3-8.2c-2.2,0-4.9,2.4-6.3,3.9c-1.4-1.5-3.9-3.9-6.1-3.9c-4.4,0-7.5,3.7-7.5,8.2
	c0,2.3,0.9,4.3,2.3,5.8l11.3,11.3l11.3-11.3l0,0C143.2,114.4,144,112.4,144,110.1"/>
<path class="st1" d="M96,145.7c0,0-0.1,0-0.1,0c-0.9-0.1-1.6-0.7-1.7-1.5l-5.7-33.4l-8.7,16.1c-0.4,0.7-1.2,1.1-2,0.9
	c-0.8-0.1-1.4-0.8-1.5-1.6l-3.7-25.8l-6.7,15.1c-0.3,0.7-1,1.1-1.7,1.1H38c-1,0-1.9-0.8-1.9-1.9c0-1,0.8-1.9,1.9-1.9h25l8.9-19.9
	c0.3-0.8,1.1-1.2,1.9-1.1c0.8,0.1,1.5,0.8,1.6,1.6l3.8,26.6l8.6-15.9c0.4-0.7,1.1-1.1,1.9-0.9c0.8,0.1,1.4,0.7,1.5,1.5l5.3,30.9
	l19.3-64.2c0.2-0.7,0.9-1.3,1.6-1.3c0.8-0.1,1.5,0.4,1.8,1l10.2,21.1c0.4,0.9,0.1,2-0.9,2.5c-0.9,0.4-2,0.1-2.5-0.9L118,77.1
	l-20.2,67.2C97.6,145.1,96.8,145.7,96,145.7"/>
<path class="st1" d="M58.8,29.1H62v7h-1.6v-1.4c-0.3,1-0.9,1.6-2.1,1.6c-1.9,0-2.8-1.5-2.8-3.5v-6.4c0-2.1,1-3.5,3.3-3.5
	c2.4,0,3.2,1.4,3.2,3.3v1.2h-2V26c0-0.8-0.3-1.3-1.1-1.3c-0.8,0-1.1,0.6-1.1,1.4v7.1c0,0.8,0.3,1.4,1.1,1.4c0.7,0,1.1-0.4,1.1-1.3
	v-2.3h-1V29.1"/>
<path class="st1" d="M63.4,32.8v-6.4c0-2.1,1-3.5,3.3-3.5c2.3,0,3.4,1.5,3.4,3.5v6.4c0,2-1,3.5-3.4,3.5
	C64.4,36.3,63.4,34.8,63.4,32.8 M67.9,33.1v-7.1c0-0.8-0.3-1.4-1.1-1.4c-0.8,0-1.1,0.6-1.1,1.4v7.1c0,0.8,0.4,1.4,1.1,1.4
	C67.6,34.5,67.9,33.9,67.9,33.1z"/>
<path class="st1" d="M71.6,32.8v-6.4c0-2.1,1-3.5,3.3-3.5c2.3,0,3.4,1.5,3.4,3.5v6.4c0,2-1,3.5-3.4,3.5
	C72.6,36.3,71.6,34.8,71.6,32.8 M76.1,33.1v-7.1c0-0.8-0.3-1.4-1.1-1.4c-0.8,0-1.1,0.6-1.1,1.4v7.1c0,0.8,0.3,1.4,1.1,1.4
	C75.7,34.5,76.1,33.9,76.1,33.1z"/>
<path class="st1" d="M86.3,26.5v6.1c0,2-0.8,3.5-3.2,3.5h-3.4V23h3.4C85.5,23,86.3,24.5,86.3,26.5 M82.9,34.4c0.9,0,1.3-0.5,1.3-1.3
	v-6.9c0-0.8-0.4-1.3-1.3-1.3h-0.9v9.5H82.9z"/>
<polyline class="st1" points="95.1,30.4 93,30.4 93,36.2 90.8,36.2 90.8,23 93,23 93,28.6 95.1,28.6 95.1,23 97.4,23 97.4,36.2 
	95.1,36.2 95.1,30.4 "/>
<polyline class="st1" points="98.8,23 104.1,23 104.1,24.8 101,24.8 101,28.6 103.2,28.6 103.2,30.4 101,30.4 101,34.4 104.1,34.4 
	104.1,36.2 98.8,36.2 98.8,23 "/>
<path class="st1" d="M105.1,36.2l2.5-13.1h2.5l2.5,13.1h-2.3l-0.4-2.4h-2.3l-0.4,2.4H105.1 M107.9,32h1.8l-0.9-5.3h0L107.9,32z"/>
<polyline class="st1" points="113.8,23 116,23 116,34.4 118.6,34.4 118.6,36.2 113.8,36.2 113.8,23 "/>
<polyline class="st1" points="118.3,23 124.2,23 124.2,24.8 122.3,24.8 122.3,36.2 120.1,36.2 120.1,24.8 118.3,24.8 118.3,23 "/>
<polyline class="st1" points="129.7,30.4 127.6,30.4 127.6,36.2 125.4,36.2 125.4,23 127.6,23 127.6,28.6 129.7,28.6 129.7,23 
	132,23 132,36.2 129.7,36.2 129.7,30.4 "/>
<path class="st1" d="M55.2,55.5l2.5-13.1h2.5l2.5,13.1h-2.3L60,53h-2.3l-0.4,2.4H55.2 M57.9,51.3h1.8L58.8,46h0L57.9,51.3z"/>
<polyline class="st1" points="65.6,47.2 65.6,55.5 63.8,55.5 63.8,42.3 65.9,42.3 68.3,49.8 68.3,42.3 70.2,42.3 70.2,55.5 
	68.2,55.5 65.6,47.2 "/>
<path class="st1" d="M78.2,45.8v6.1c0,2-0.8,3.5-3.2,3.5h-3.4V42.3H75C77.4,42.3,78.2,43.8,78.2,45.8 M74.8,53.6
	c0.9,0,1.3-0.5,1.3-1.3v-6.9c0-0.8-0.4-1.3-1.3-1.3h-0.9v9.5H74.8z"/>
<polyline class="st1" points="86.7,47.3 85.5,55.5 83.4,55.5 81.6,42.3 83.8,42.3 84.8,50.6 84.8,50.6 85.9,42.3 87.7,42.3 
	88.9,50.6 89,50.6 90,42.3 91.8,42.3 90.1,55.5 88,55.5 86.7,47.3 86.7,47.3 "/>
<polyline class="st1" points="93,42.3 98.2,42.3 98.2,44.1 95.2,44.1 95.2,47.9 97.4,47.9 97.4,49.7 95.2,49.7 95.2,53.6 98.2,53.6 
	98.2,55.5 93,55.5 93,42.3 "/>
<polyline class="st1" points="99.6,42.3 101.8,42.3 101.8,53.6 104.5,53.6 104.5,55.5 99.6,55.5 99.6,42.3 "/>
<polyline class="st1" points="105.7,42.3 107.9,42.3 107.9,53.6 110.5,53.6 110.5,55.5 105.7,55.5 105.7,42.3 "/>
<rect x="110.2" y="47.7" class="st1" width="3.1" height="1.8"/>
<path class="st1" d="M114.7,42.3h3.2c2.2,0,2.9,1,2.9,2.9v1.3c0,1.1-0.4,1.8-1.3,2.1c1.1,0.3,1.6,1,1.6,2.2v1.7c0,1.9-0.8,2.9-3,2.9
	h-3.4V42.3 M116.9,47.8h0.8c0.7,0,1-0.4,1-1.1v-1.6c0-0.7-0.3-1.1-1.1-1.1h-0.8V47.8z M116.9,49.5v4.1h1c0.7,0,1.1-0.4,1.1-1.1v-2
	c0-0.7-0.3-1.1-1.1-1.1H116.9z"/>
<polyline class="st1" points="122.4,42.3 127.7,42.3 127.7,44.1 124.7,44.1 124.7,47.9 126.8,47.9 126.8,49.7 124.7,49.7 
	124.7,53.6 127.7,53.6 127.7,55.5 122.4,55.5 122.4,42.3 "/>
<rect x="129.1" y="42.3" class="st1" width="2.2" height="13.1"/>
<polyline class="st1" points="134.6,47.2 134.6,55.5 132.8,55.5 132.8,42.3 135,42.3 137.3,49.8 137.3,42.3 139.2,42.3 139.2,55.5 
	137.2,55.5 134.6,47.2 "/>
<path class="st1" d="M144,48.4h3.1v7h-1.6V54c-0.3,1-0.9,1.6-2.1,1.6c-1.9,0-2.8-1.5-2.8-3.5v-6.4c0-2.1,1-3.5,3.3-3.5
	c2.4,0,3.2,1.4,3.2,3.3v1.2h-2v-1.3c0-0.8-0.3-1.3-1.1-1.3c-0.8,0-1.1,0.6-1.1,1.4v7.1c0,0.8,0.3,1.4,1.1,1.4c0.7,0,1.1-0.4,1.1-1.3
	v-2.3h-1V48.4"/>
</svg>
