<?xml version="1.0" encoding="utf-8"?>
<!-- Generator: Adobe Illustrator 21.0.0, SVG Export Plug-In . SVG Version: 6.00 Build 0)  -->
<svg version="1.1" id="Layer_1" xmlns="http://www.w3.org/2000/svg" xmlns:xlink="http://www.w3.org/1999/xlink" x="0px" y="0px"
	 viewBox="0 0 180 180" style="enable-background:new 0 0 180 180;" xml:space="preserve">
<style type="text/css">
	.st0{fill:#EF412C;}
	.st1{fill:#FFFFFF;}
</style>
<rect x="9.5" y="9.5" class="st0" width="160.9" height="160.9"/>
<path class="st1" d="M35.2,33.3c-2.2,0-3.7,0.8-4.6,2.2h0v-8.1h9.4V23H25.6v18.3h5v-0.7c0-1.9,0.9-3,2.4-3c1.7,0,2.3,1.1,2.3,2.9
	v7.8c0,1.7-0.6,2.9-2.3,2.9c-1.9,0-2.5-1.2-2.5-3.2v-4.1h-5v3.7c0,4.9,2,8.1,7.5,8.1c5.5,0,7.8-2.9,7.8-7.4v-7.9
	C40.7,35.4,38.1,33.3,35.2,33.3"/>
<path class="st1" d="M126.8,70.4h-20c-0.1,0-0.3,0.1-0.3,0.3v6.6c0,0.1,0.1,0.3,0.3,0.3h8l-8.8,8.8c-4.5-3.5-10.1-5.6-16.2-5.6
	c-14.4,0-26.2,11.8-26.2,26.2c0,13.3,10,24.3,22.8,26v7.7h-7.9c-0.1,0-0.3,0.1-0.3,0.3v7.1c0,0.1,0.1,0.3,0.3,0.3h7.9v7.5
	c0,0.1,0.1,0.3,0.3,0.3h7.1c0.1,0,0.3-0.1,0.3-0.3v-7.5h7.9c0.1,0,0.3-0.1,0.3-0.3v-7.1c0-0.1-0.1-0.3-0.3-0.3H94v-7.8
	c12.4-2,21.9-12.8,21.9-25.8c0-5.6-1.8-10.8-4.8-15.1l8.7-8.7v7.4c0,0.1,0.1,0.3,0.3,0.3h6.6c0.1,0,0.3-0.1,0.3-0.3v-20
	C127,70.5,126.9,70.4,126.8,70.4 M89.7,126.3c-10.6,0-19.3-8.7-19.3-19.3c0-10.6,8.6-19.3,19.3-19.3c10.6,0,19.3,8.6,19.3,19.3
	C109,117.7,100.4,126.3,89.7,126.3"/>
<path class="st1" d="M101.5,99.1H78.1c-0.1,0-0.3,0.1-0.3,0.2v5.7c0,0.1,0.1,0.2,0.3,0.2h23.4c0.1,0,0.3-0.1,0.3-0.2v-5.7
	C101.8,99.2,101.6,99.1,101.5,99.1"/>
<path class="st1" d="M101.5,109.2H78.1c-0.1,0-0.3,0.1-0.3,0.2v5.7c0,0.1,0.1,0.2,0.3,0.2h23.4c0.1,0,0.3-0.1,0.3-0.2v-5.7
	C101.8,109.3,101.6,109.2,101.5,109.2"/>
<polyline class="st1" points="55.5,42.3 60.8,42.3 60.8,44.1 57.7,44.1 57.7,47.9 59.9,47.9 59.9,49.6 57.7,49.6 57.7,53.6 
	60.8,53.6 60.8,55.4 55.5,55.4 55.5,42.3 "/>
<path class="st1" d="M64.6,56.3v-0.9c-1.8-0.3-2.5-1.6-2.5-3.4v-6.4c0-2.1,1-3.5,3.3-3.5c2.3,0,3.4,1.5,3.4,3.5v6.4
	c0,1.4-0.5,2.6-1.6,3.1l1.6,0.3v1.6L64.6,56.3 M66.6,52.5v-7.2c0-0.8-0.3-1.4-1.1-1.4c-0.8,0-1.1,0.6-1.1,1.4v7.2
	c0,0.8,0.3,1.4,1.1,1.4C66.3,53.9,66.6,53.3,66.6,52.5z"/>
<path class="st1" d="M76.7,42.3v9.9c0,2-0.9,3.4-3.1,3.4c-2.3,0-3.3-1.3-3.3-3.4v-9.9h2.2v10.2c0,0.8,0.3,1.3,1.1,1.3
	c0.8,0,1.1-0.5,1.1-1.3V42.3H76.7"/>
<path class="st1" d="M77.8,55.4l2.5-13.1h2.5l2.5,13.1H83L82.6,53h-2.3l-0.4,2.4H77.8 M80.6,51.3h1.8L81.4,46h0L80.6,51.3z"/>
<polyline class="st1" points="86.4,42.3 88.6,42.3 88.6,53.6 91.2,53.6 91.2,55.4 86.4,55.4 86.4,42.3 "/>
<rect x="92.4" y="42.3" class="st1" width="2.2" height="13.1"/>
<polyline class="st1" points="95.8,42.3 101.7,42.3 101.7,44.1 99.9,44.1 99.9,55.4 97.6,55.4 97.6,44.1 95.8,44.1 95.8,42.3 "/>
<polyline class="st1" points="107.2,50.4 107.2,55.4 105,55.4 105,50.4 102.5,42.3 104.8,42.3 106.1,47.3 106.2,47.3 107.5,42.3 
	109.6,42.3 107.2,50.4 "/>
<path class="st1" d="M58.8,29.1H62v7h-1.6v-1.4c-0.3,1-0.9,1.6-2.1,1.6c-1.9,0-2.8-1.5-2.8-3.5v-6.4c0-2.1,1-3.5,3.3-3.5
	c2.4,0,3.2,1.4,3.2,3.3v1.2h-2V26c0-0.8-0.3-1.3-1.1-1.3c-0.8,0-1.1,0.6-1.1,1.4v7.1c0,0.8,0.3,1.4,1.1,1.4c0.7,0,1.1-0.4,1.1-1.3
	v-2.3h-1V29.1"/>
<polyline class="st1" points="63.4,23 68.7,23 68.7,24.8 65.6,24.8 65.6,28.6 67.8,28.6 67.8,30.4 65.6,30.4 65.6,34.4 68.7,34.4 
	68.7,36.2 63.4,36.2 63.4,23 "/>
<polyline class="st1" points="71.9,27.9 71.9,36.2 70.1,36.2 70.1,23 72.3,23 74.6,30.6 74.6,23 76.5,23 76.5,36.2 74.5,36.2 
	71.9,27.9 "/>
<path class="st1" d="M84.6,26.5v6.1c0,2-0.8,3.5-3.2,3.5h-3.4V23h3.4C83.7,23,84.6,24.5,84.6,26.5 M81.1,34.4c0.9,0,1.3-0.5,1.3-1.3
	v-6.9c0-0.8-0.3-1.3-1.3-1.3h-0.9v9.5H81.1z"/>
<polyline class="st1" points="86,23 91.3,23 91.3,24.8 88.2,24.8 88.2,28.6 90.4,28.6 90.4,30.4 88.2,30.4 88.2,34.4 91.3,34.4 
	91.3,36.2 86,36.2 86,23 "/>
<path class="st1" d="M94.9,30.1v6h-2.2V23h3.2c2.2,0,3,1.1,3,2.9v1.7c0,1.4-0.5,2.3-1.8,2.5l2.1,6H97L94.9,30.1 M94.9,24.8v4.1h0.7
	c0.8,0,1.1-0.4,1.1-1.1v-1.9c0-0.7-0.3-1.1-1.1-1.1H94.9z"/>
</svg>
