<?xml version="1.0" encoding="utf-8"?>
<!-- Generator: Adobe Illustrator 21.0.0, SVG Export Plug-In . SVG Version: 6.00 Build 0)  -->
<svg version="1.1" id="Layer_1" xmlns="http://www.w3.org/2000/svg" xmlns:xlink="http://www.w3.org/1999/xlink" x="0px" y="0px"
	 viewBox="0 0 180 180" style="enable-background:new 0 0 180 180;" xml:space="preserve">
<style type="text/css">
	.st0{fill:#29BEE2;}
	.st1{fill:#FFFFFF;}
</style>
<rect x="9.5" y="9.5" class="st0" width="160.9" height="160.9"/>
<path class="st1" d="M33.8,55.9c5.8,0,8-3.2,8-8.2v-4.8c0-5.3-2.1-8-6-8c-2.3,0-3.7,1.1-4.5,2.6h0v-7c0-2,0.6-3.4,2.6-3.4
	c2,0,2.5,1.2,2.5,3.2v2.2h5v-1.7c0-4.8-1.6-8.1-7.6-8.1c-5.7,0-7.9,3.7-7.9,8.8v15.8C25.9,52.3,28.1,55.9,33.8,55.9 M31.3,42.3
	c0.1-1.8,0.9-3,2.6-3c1.9,0,2.6,1.1,2.6,3.3v5.6c0,2.1-0.8,3.3-2.6,3.3c-1.8,0-2.5-1.2-2.5-3.3V42.3z"/>
<path class="st1" d="M119.6,74.6c-0.1-0.1-0.3-0.2-0.5-0.2H60.7c-0.2,0-0.4,0.1-0.5,0.2C60,74.8,60,75,60,75.2l9.8,59.3
	c0,0.3,0.3,0.6,0.7,0.6h12l0.8,9.7l-5.1,0l11.8,11.8l11.8-11.8l-5.1,0l0.8-9.6h12.3c0.3,0,0.6-0.2,0.7-0.6l9.2-59.3
	C119.8,75,119.7,74.8,119.6,74.6 M97,122.1c0,0-2.7,2.7-7,2.4c-4.3,0.3-7-2.4-7-2.4c-4.4-4.4-2.8-9.8-1.3-12.6
	c1-1.8,7.7-11.9,8.2-12.7v-0.1c0,0,0,0,0,0l0,0v0.1c0.6,0.9,7.3,11,8.2,12.7C99.8,112.3,101.4,117.7,97,122.1z M115.5,87.1
	c-1.6-0.7-3.6-0.4-5.5,0.3c-7.2,2.9-12.2,4-19.8,1.6c-4.8-1.5-9.3-4.6-14.6-2.7c-3.5,1.3-6.8,2.5-10.8,2.4L62.5,77h54.6L115.5,87.1z
	"/>
<path class="st1" d="M55.2,55.4l2.5-13.1h2.5l2.5,13.1h-2.3L60.1,53h-2.3l-0.4,2.4H55.2 M58,51.3h1.8L58.9,46h0L58,51.3z"/>
<polyline class="st1" points="65.5,47.2 65.5,55.4 63.7,55.4 63.7,42.3 65.8,42.3 68.2,49.8 68.2,42.3 70.1,42.3 70.1,55.4 
	68.1,55.4 65.5,47.2 "/>
<path class="st1" d="M78.3,45.8v6.1c0,2-0.8,3.5-3.2,3.5h-3.4V42.3h3.4C77.4,42.3,78.3,43.8,78.3,45.8 M74.8,53.6
	c0.9,0,1.3-0.5,1.3-1.3v-6.9c0-0.8-0.3-1.3-1.3-1.3h-0.9v9.5H74.8z"/>
<path class="st1" d="M83.2,52.6v-1.8h2v1.8c0,0.7,0.3,1.2,1.1,1.2c0.7,0,1-0.5,1-1.2v-0.5c0-0.8-0.3-1.2-1-1.9L85.1,49
	c-1.3-1.2-1.8-2-1.8-3.5V45c0-1.6,0.9-2.9,3.1-2.9c2.2,0,3.1,1.1,3.1,3v1.1h-2v-1.1c0-0.8-0.3-1.1-1-1.1c-0.6,0-1,0.3-1,1.1v0.3
	c0,0.7,0.4,1.2,1,1.8l1.4,1.4c1.2,1.2,1.8,2,1.8,3.4v0.6c0,1.8-1,3.1-3.2,3.1S83.2,54.3,83.2,52.6"/>
<path class="st1" d="M90.2,55.4l2.5-13.1h2.5l2.5,13.1h-2.3L95,53h-2.3l-0.4,2.4H90.2 M93,51.3h1.8L93.9,46h0L93,51.3z"/>
<polyline class="st1" points="100.6,47.2 100.6,55.4 98.8,55.4 98.8,42.3 100.9,42.3 103.3,49.8 103.3,42.3 105.2,42.3 105.2,55.4 
	103.2,55.4 100.6,47.2 "/>
<rect x="106.9" y="42.3" class="st1" width="2.2" height="13.1"/>
<polyline class="st1" points="110.2,42.3 116.1,42.3 116.1,44.1 114.3,44.1 114.3,55.4 112,55.4 112,44.1 110.2,44.1 110.2,42.3 "/>
<path class="st1" d="M115.6,55.4l2.5-13.1h2.5l2.5,13.1h-2.3l-0.4-2.4H118l-0.4,2.4H115.6 M118.3,51.3h1.8l-0.9-5.3h0L118.3,51.3z"
	/>
<polyline class="st1" points="122.4,42.3 128.2,42.3 128.2,44.1 126.4,44.1 126.4,55.4 124.2,55.4 124.2,44.1 122.4,44.1 
	122.4,42.3 "/>
<rect x="129.4" y="42.3" class="st1" width="2.2" height="13.1"/>
<path class="st1" d="M133.1,52.1v-6.4c0-2.1,1-3.5,3.3-3.5c2.4,0,3.4,1.5,3.4,3.5v6.4c0,2-1,3.5-3.4,3.5
	C134.1,55.6,133.1,54.1,133.1,52.1 M137.6,52.4v-7.1c0-0.8-0.3-1.4-1.2-1.4c-0.8,0-1.1,0.6-1.1,1.4v7.1c0,0.8,0.3,1.4,1.1,1.4
	C137.2,53.8,137.6,53.2,137.6,52.4z"/>
<polyline class="st1" points="143.1,47.2 143.1,55.4 141.2,55.4 141.2,42.3 143.4,42.3 145.8,49.8 145.8,42.3 147.6,42.3 
	147.6,55.4 145.7,55.4 143.1,47.2 "/>
<path class="st1" d="M55.5,32.7v-6.4c0-2.1,1-3.5,3.3-3.5c2.4,0,3.1,1.4,3.1,3.3v1.6h-2v-1.7c0-0.8-0.3-1.3-1.1-1.3
	c-0.8,0-1.1,0.6-1.1,1.4V33c0,0.8,0.3,1.4,1.1,1.4c0.8,0,1.1-0.5,1.1-1.3v-2.4h2v2.3c0,1.9-0.8,3.3-3.1,3.3
	C56.5,36.2,55.5,34.7,55.5,32.7"/>
<polyline class="st1" points="63.3,22.9 65.5,22.9 65.5,34.2 68.2,34.2 68.2,36.1 63.3,36.1 63.3,22.9 "/>
<polyline class="st1" points="69.4,22.9 74.6,22.9 74.6,24.7 71.6,24.7 71.6,28.5 73.8,28.5 73.8,30.3 71.6,30.3 71.6,34.2 
	74.6,34.2 74.6,36.1 69.4,36.1 69.4,22.9 "/>
<path class="st1" d="M75.7,36.1l2.5-13.1h2.5l2.5,13.1h-2.3l-0.4-2.4h-2.3l-0.4,2.4H75.7 M78.4,31.9h1.8l-0.9-5.3h0L78.4,31.9z"/>
<polyline class="st1" points="86.1,27.8 86.1,36.1 84.3,36.1 84.3,22.9 86.5,22.9 88.8,30.4 88.8,22.9 90.7,22.9 90.7,36.1 
	88.7,36.1 86.1,27.8 "/>
<polyline class="st1" points="100.1,27.9 98.9,36.1 96.8,36.1 95.1,22.9 97.2,22.9 98.2,31.2 98.2,31.2 99.4,22.9 101.2,22.9 
	102.4,31.2 102.4,31.2 103.4,22.9 105.3,22.9 103.6,36.1 101.5,36.1 100.2,27.9 100.1,27.9 "/>
<path class="st1" d="M105.3,36.1l2.5-13.1h2.5l2.5,13.1h-2.3l-0.4-2.4h-2.3l-0.4,2.4H105.3 M108.1,31.9h1.8l-0.9-5.3h0L108.1,31.9z"
	/>
<polyline class="st1" points="112.5,22.9 118.4,22.9 118.4,24.7 116.6,24.7 116.6,36.1 114.3,36.1 114.3,24.7 112.5,24.7 
	112.5,22.9 "/>
<polyline class="st1" points="119.5,22.9 124.7,22.9 124.7,24.7 121.7,24.7 121.7,28.5 123.9,28.5 123.9,30.3 121.7,30.3 
	121.7,34.2 124.7,34.2 124.7,36.1 119.5,36.1 119.5,22.9 "/>
<path class="st1" d="M128.2,30v6h-2.2V22.9h3.2c2.2,0,3.1,1.1,3.1,2.9v1.7c0,1.4-0.5,2.3-1.8,2.5l2.1,6h-2.3L128.2,30 M128.2,24.7
	v4.1h0.7c0.8,0,1.1-0.4,1.1-1.1v-1.9c0-0.7-0.3-1.1-1.1-1.1H128.2z"/>
</svg>
