<?xml version="1.0" encoding="utf-8"?>
<!-- Generator: Adobe Illustrator 21.0.0, SVG Export Plug-In . SVG Version: 6.00 Build 0)  -->
<svg version="1.1" id="Layer_1" xmlns="http://www.w3.org/2000/svg" xmlns:xlink="http://www.w3.org/1999/xlink" x="0px" y="0px"
	 viewBox="0 0 180 180" style="enable-background:new 0 0 180 180;" xml:space="preserve">
<style type="text/css">
	.st0{fill:#FAC315;}
	.st1{fill:#FFFFFF;}
</style>
<rect x="9.5" y="9.5" class="st0" width="160.9" height="160.9"/>
<polyline class="st1" points="26,27.5 34.5,27.5 27.2,55.5 32.6,55.5 39.7,28 39.7,23 26,23 26,27.5 "/>
<path class="st1" d="M90.1,87.5c-13,0-23.6,10.6-23.6,23.6c0,13,10.6,23.6,23.6,23.6c13,0,23.6-10.6,23.6-23.6
	C113.6,98.1,103.1,87.5,90.1,87.5 M88.3,96.8c0-0.8,0.8-1.7,1.8-1.7c1,0,1.7,0.9,1.7,1.7v8.1c0,0.8-0.8,1.6-1.7,1.6
	c-1,0-1.8-0.9-1.8-1.6V96.8z M90.1,123.2c-6.8,0-12.3-5.5-12.3-12.3c0-5.5,3.6-10.2,8.6-11.7v4.6c-2.6,1.3-4.4,4-4.4,7.2
	c0,4.4,3.6,8,8,8c4.4,0,8-3.6,8-8c0-3.1-1.8-5.8-4.4-7.2v-4.6c5,1.5,8.6,6.2,8.6,11.7C102.3,117.7,96.8,123.2,90.1,123.2"/>
<path class="st1" d="M63,110.9c0-1.1-0.9-1.9-1.8-1.9H50.8c-0.9,0-1.8,0.9-1.8,1.9c0,1.1,1,1.9,1.8,1.9h10.3
	C62,112.8,63,112,63,110.9"/>
<path class="st1" d="M131.1,110.9c0-1.1-0.9-1.9-1.8-1.9H119c-0.9,0-1.8,0.9-1.8,1.9c0,1.1,1,1.9,1.8,1.9h10.3
	C130.2,112.8,131.1,112,131.1,110.9"/>
<path class="st1" d="M90.1,83.8c1.1,0,1.9-0.9,1.9-1.8V71.7c0-0.9-0.9-1.8-1.9-1.8c-1.1,0-1.9,1-1.9,1.8V82
	C88.1,82.9,89,83.8,90.1,83.8"/>
<path class="st1" d="M90.1,151.9c1.1,0,1.9-0.9,1.9-1.8v-10.3c0-0.9-0.9-1.8-1.9-1.8c-1.1,0-1.9,1-1.9,1.8v10.3
	C88.1,151,89,151.9,90.1,151.9"/>
<path class="st1" d="M66.6,97.4c0.5-0.9,0.1-2.2-0.6-2.6l-9-5.1c-0.8-0.4-2-0.2-2.5,0.8c-0.5,0.9-0.1,2.2,0.6,2.6l9,5.1
	C64.8,98.7,66,98.4,66.6,97.4"/>
<path class="st1" d="M125.7,131.3c0.5-0.9,0.1-2.2-0.6-2.6l-9-5.1c-0.8-0.4-2-0.2-2.5,0.8c-0.5,0.9-0.1,2.2,0.6,2.6l9,5.1
	C123.9,132.5,125.2,132.2,125.7,131.3"/>
<path class="st1" d="M103.5,87.4c0.9,0.5,2.1,0.1,2.6-0.6l5.1-9c0.4-0.8,0.2-2-0.8-2.5c-0.9-0.5-2.2-0.1-2.6,0.6l-5.1,9
	C102.3,85.6,102.6,86.9,103.5,87.4"/>
<path class="st1" d="M69.7,146.5c0.9,0.5,2.1,0.1,2.6-0.6l5.1-9c0.4-0.8,0.2-2-0.8-2.5c-0.9-0.5-2.2-0.1-2.6,0.6l-5.1,9
	C68.5,144.7,68.7,146,69.7,146.5"/>
<path class="st1" d="M76.6,87.4c0.9-0.5,1.2-1.8,0.8-2.5l-5.1-9c-0.4-0.8-1.7-1.1-2.6-0.6c-0.9,0.5-1.2,1.8-0.8,2.6l5.1,9
	C74.4,87.6,75.6,87.9,76.6,87.4"/>
<path class="st1" d="M110.5,146.5c0.9-0.5,1.2-1.8,0.8-2.5l-5.1-9c-0.4-0.8-1.7-1.2-2.6-0.6c-0.9,0.5-1.2,1.8-0.8,2.6l5.1,9
	C108.4,146.6,109.6,147,110.5,146.5"/>
<path class="st1" d="M113.5,97.4c0.5,0.9,1.8,1.2,2.5,0.8l9-5.1c0.8-0.4,1.2-1.7,0.6-2.6c-0.5-0.9-1.8-1.2-2.6-0.8l-9,5.1
	C113.4,95.2,113,96.5,113.5,97.4"/>
<path class="st1" d="M54.5,131.4c0.5,0.9,1.8,1.2,2.5,0.8l9-5.1c0.8-0.4,1.2-1.7,0.6-2.6c-0.5-0.9-1.8-1.2-2.6-0.8l-9,5.1
	C54.3,129.2,54,130.4,54.5,131.4"/>
<path class="st1" d="M55.2,36.2L57.7,23h2.5l2.5,13.1h-2.3L60,33.8h-2.3l-0.4,2.4H55.2 M57.9,32h1.8l-0.9-5.3h0L57.9,32z"/>
<polyline class="st1" points="63.5,23 68.7,23 68.7,24.8 65.7,24.8 65.7,28.6 67.9,28.6 67.9,30.4 65.7,30.4 65.7,36.2 63.5,36.2 
	63.5,23 "/>
<polyline class="st1" points="69.5,23 74.7,23 74.7,24.8 71.8,24.8 71.8,28.6 74,28.6 74,30.4 71.8,30.4 71.8,36.2 69.5,36.2 
	69.5,23 "/>
<path class="st1" d="M75.4,32.8v-6.4c0-2.1,1-3.5,3.3-3.5c2.3,0,3.4,1.5,3.4,3.5v6.4c0,2-1,3.5-3.4,3.5
	C76.4,36.3,75.4,34.8,75.4,32.8 M79.9,33.1v-7.1c0-0.8-0.3-1.4-1.1-1.4c-0.8,0-1.1,0.6-1.1,1.4v7.1c0,0.8,0.3,1.4,1.1,1.4
	C79.5,34.5,79.9,33.9,79.9,33.1z"/>
<path class="st1" d="M85.5,30.1v6h-2.2V23h3.2c2.2,0,3,1.1,3,2.9v1.7c0,1.4-0.5,2.3-1.8,2.5l2.1,6h-2.3L85.5,30.1 M85.5,24.8v4.1
	h0.7c0.8,0,1.1-0.4,1.1-1.1v-1.9c0-0.7-0.3-1.1-1.1-1.1H85.5z"/>
<path class="st1" d="M97.2,26.5v6.1c0,2-0.8,3.5-3.2,3.5h-3.4V23H94C96.4,23,97.2,24.5,97.2,26.5 M93.8,34.4c0.9,0,1.3-0.5,1.3-1.3
	v-6.9c0-0.8-0.3-1.3-1.3-1.3h-0.9v9.5H93.8z"/>
<path class="st1" d="M97.8,36.2l2.5-13.1h2.5l2.5,13.1H103l-0.4-2.4h-2.3l-0.4,2.4H97.8 M100.5,32h1.8l-0.9-5.3h0L100.5,32z"/>
<path class="st1" d="M106.1,23h3.2c2.2,0,2.9,1,2.9,2.9v1.3c0,1.1-0.4,1.8-1.3,2.1c1.1,0.3,1.7,1,1.7,2.2v1.7c0,1.9-0.8,2.9-3,2.9
	h-3.4V23 M108.3,28.6h0.8c0.7,0,1-0.4,1-1.1v-1.6c0-0.7-0.3-1.1-1.1-1.1h-0.8V28.6z M108.3,30.2v4.1h1c0.7,0,1.1-0.4,1.1-1.1v-2
	c0-0.7-0.3-1.1-1.1-1.1H108.3z"/>
<polyline class="st1" points="113.6,23 115.8,23 115.8,34.4 118.4,34.4 118.4,36.2 113.6,36.2 113.6,23 "/>
<polyline class="st1" points="119.3,23 124.6,23 124.6,24.8 121.6,24.8 121.6,28.6 123.7,28.6 123.7,30.4 121.6,30.4 121.6,34.4 
	124.6,34.4 124.6,36.2 119.3,36.2 119.3,23 "/>
<path class="st1" d="M127.3,36.2l2.5-13.1h2.5l2.5,13.1h-2.3l-0.4-2.4h-2.3l-0.4,2.4H127.3 M130.1,32h1.8l-0.9-5.3h0L130.1,32z"/>
<polyline class="st1" points="137.5,27.9 137.5,36.2 135.6,36.2 135.6,23 137.8,23 140.2,30.6 140.2,23 142,23 142,36.2 140.1,36.2 
	137.5,27.9 "/>
<path class="st1" d="M149.8,26.5v6.1c0,2-0.8,3.5-3.2,3.5h-3.4V23h3.4C149,23,149.8,24.5,149.8,26.5 M146.3,34.4
	c0.9,0,1.3-0.5,1.3-1.3v-6.9c0-0.8-0.3-1.3-1.3-1.3h-0.9v9.5H146.3z"/>
<path class="st1" d="M55.5,52.1v-6.3c0-2,1-3.5,3.3-3.5c2.4,0,3.1,1.4,3.1,3.3V47h-2v-1.7c0-0.8-0.3-1.3-1.1-1.3
	c-0.8,0-1.1,0.6-1.1,1.4v7c0,0.8,0.3,1.4,1.1,1.4c0.8,0,1.1-0.5,1.1-1.3v-2.4h2v2.3c0,1.9-0.8,3.3-3.1,3.3
	C56.5,55.6,55.5,54.1,55.5,52.1"/>
<polyline class="st1" points="63.3,42.4 65.5,42.4 65.5,53.7 68.1,53.7 68.1,55.5 63.3,55.5 63.3,42.4 "/>
<polyline class="st1" points="69.3,42.4 74.5,42.4 74.5,44.2 71.5,44.2 71.5,47.9 73.7,47.9 73.7,49.7 71.5,49.7 71.5,53.7 
	74.5,53.7 74.5,55.5 69.3,55.5 69.3,42.4 "/>
<path class="st1" d="M75.6,55.5L78,42.4h2.5L83,55.5h-2.3l-0.4-2.4H78l-0.4,2.4H75.6 M78.3,51.3h1.8l-0.9-5.3h0L78.3,51.3z"/>
<polyline class="st1" points="86,47.2 86,55.5 84.1,55.5 84.1,42.4 86.3,42.4 88.7,49.9 88.7,42.4 90.5,42.4 90.5,55.5 88.6,55.5 
	86,47.2 "/>
<polyline class="st1" points="96.4,42.4 101.6,42.4 101.6,44.2 98.6,44.2 98.6,47.9 100.8,47.9 100.8,49.7 98.6,49.7 98.6,53.7 
	101.6,53.7 101.6,55.5 96.4,55.5 96.4,42.4 "/>
<polyline class="st1" points="104.8,47.2 104.8,55.5 103,55.5 103,42.4 105.1,42.4 107.5,49.9 107.5,42.4 109.3,42.4 109.3,55.5 
	107.4,55.5 104.8,47.2 "/>
<polyline class="st1" points="110.8,42.4 116,42.4 116,44.2 113,44.2 113,47.9 115.1,47.9 115.1,49.7 113,49.7 113,53.7 116,53.7 
	116,55.5 110.8,55.5 110.8,42.4 "/>
<path class="st1" d="M119.5,49.4v6h-2.2V42.4h3.2c2.2,0,3,1.1,3,2.9V47c0,1.4-0.5,2.2-1.8,2.5l2.1,5.9h-2.3L119.5,49.4 M119.5,44.2
	v4.1h0.7c0.8,0,1.1-0.4,1.1-1.1v-1.9c0-0.7-0.3-1.1-1.1-1.1H119.5z"/>
<path class="st1" d="M128.3,48.5h3.1v7h-1.6V54c-0.3,1-0.9,1.6-2.1,1.6c-1.9,0-2.8-1.5-2.8-3.5v-6.3c0-2,1-3.5,3.3-3.5
	c2.4,0,3.1,1.4,3.1,3.3v1.2h-2v-1.3c0-0.8-0.3-1.3-1.1-1.3c-0.8,0-1.1,0.6-1.1,1.4v7c0,0.8,0.3,1.4,1.1,1.4c0.7,0,1.1-0.4,1.1-1.3
	v-2.3h-1V48.5"/>
<polyline class="st1" points="137.1,50.5 137.1,55.5 134.9,55.5 134.9,50.5 132.4,42.4 134.7,42.4 136.1,47.3 136.1,47.3 
	137.4,42.4 139.5,42.4 137.1,50.5 "/>
</svg>
