<?xml version="1.0" encoding="utf-8"?>
<!-- Generator: Adobe Illustrator 21.0.0, SVG Export Plug-In . SVG Version: 6.00 Build 0)  -->
<svg version="1.1" id="Layer_1" xmlns="http://www.w3.org/2000/svg" xmlns:xlink="http://www.w3.org/1999/xlink" x="0px" y="0px"
	 viewBox="0 0 180 180" style="enable-background:new 0 0 180 180;" xml:space="preserve">
<style type="text/css">
	.st0{fill:#A21C44;}
	.st1{fill:#FFFFFF;}
</style>
<rect x="8.4" y="9.5" class="st0" width="160.9" height="160.9"/>
<path class="st1" d="M39.7,47.5V44c0-3.1-1.1-5.4-3.6-6.5c2.2-1.1,3.2-3,3.2-5.6v-1.3c0-5.1-2.6-7.8-7.7-7.8c-5,0-7.6,2.7-7.6,7.8
	v1.3c0,2.6,1,4.6,3.1,5.6c-2.5,1.1-3.6,3.4-3.6,6.5v3.5c0,4.9,2.3,8.4,8.1,8.4C37.4,55.9,39.7,52.5,39.7,47.5 M29.1,30.2
	c0-2,0.7-3.1,2.4-3.1c1.8,0,2.5,1.1,2.5,3.1v2.2c0,2-0.7,3.1-2.5,3.1c-1.8,0-2.4-1.2-2.4-3.1V30.2z M34.2,48.1c0,2-0.7,3.3-2.7,3.3
	c-1.9,0-2.6-1.4-2.6-3.3v-5.3c0-2,0.7-3.3,2.6-3.3c2,0,2.7,1.4,2.7,3.3V48.1z"/>
<path class="st1" d="M119.4,88.7l-16.4,15.6c-0.6,0.6-0.9,1.1-0.9,2.3v43.6c0,0.5,0.4,0.9,0.9,0.9H120c0.5,0,0.9-0.4,0.9-0.9V89.1
	C120.9,88.6,120.5,87.6,119.4,88.7"/>
<path class="st1" d="M72.3,109l-16.4,15.6c-0.6,0.6-0.9,1.1-0.9,2.3v23.3c0,0.5,0.4,0.9,0.9,0.9h16.9c0.5,0,0.9-0.4,0.9-0.9v-40.8
	C73.8,108.9,73.4,107.9,72.3,109"/>
<path class="st1" d="M126.9,69.8c0-0.1,0-0.3-0.1-0.4c-0.1-0.1-0.2-0.1-0.3-0.1l-0.1,0l-0.1,0l-12.5,2.8l-0.2,0
	c-0.1,0-0.2,0.1-0.2,0.1c-0.2,0.2-0.2,0.5,0,0.7l0.1,0.1l2.9,2.9l-28.4,28.4L74.7,91.3c-0.1-0.1-0.4-0.1-0.5,0l-3.6,3.6c0,0,0,0,0,0
	l-21,21c-0.1,0.1-0.1,0.4,0,0.5l3.6,3.6c0.1,0.1,0.4,0.1,0.5,0l20.8-20.7l9.5,9.5c0,0,0,0,0,0l3.6,3.6c0.1,0.1,0.4,0.1,0.5,0
	l32.2-32.2l3,3c0.2,0.2,0.5,0.2,0.7,0c0.1-0.1,0.1-0.2,0.1-0.3l0,0l2.8-12.8L126.9,69.8"/>
<path class="st1" d="M96,111.7l-7.9,8c-0.1,0.1-0.4,0.1-0.5,0l-7.2-7.3c-1.3-1.3-1.6-0.2-1.6,0.3v37.6c0,0.5,0.4,0.9,0.9,0.9h16.9
	c0.5,0,0.9-0.4,0.9-0.9V112C97.5,111.5,97.1,110.5,96,111.7"/>
<path class="st1" d="M58.3,26.5v6.1c0,2-0.8,3.5-3.2,3.5h-3.4V23h3.4C57.5,23,58.3,24.5,58.3,26.5 M54.8,34.4c0.9,0,1.3-0.5,1.3-1.3
	v-6.9c0-0.8-0.3-1.3-1.3-1.3h-0.9v9.5H54.8z"/>
<polyline class="st1" points="59.7,23 65,23 65,24.8 61.9,24.8 61.9,28.6 64.1,28.6 64.1,30.4 61.9,30.4 61.9,34.4 65,34.4 65,36.2 
	59.7,36.2 59.7,23 "/>
<path class="st1" d="M66.1,32.8v-6.4c0-2.1,1-3.5,3.3-3.5c2.4,0,3.1,1.4,3.1,3.3v1.6h-2V26c0-0.8-0.3-1.3-1.1-1.3
	c-0.8,0-1.1,0.6-1.1,1.4v7.1c0,0.8,0.3,1.4,1.1,1.4c0.8,0,1.1-0.5,1.1-1.3v-2.4h2V33c0,1.9-0.8,3.3-3.1,3.3
	C67.1,36.3,66.1,34.8,66.1,32.8"/>
<polyline class="st1" points="73.9,23 79.1,23 79.1,24.8 76.1,24.8 76.1,28.6 78.3,28.6 78.3,30.4 76.1,30.4 76.1,34.4 79.1,34.4 
	79.1,36.2 73.9,36.2 73.9,23 "/>
<polyline class="st1" points="82.3,27.9 82.3,36.2 80.4,36.2 80.4,23 82.6,23 85,30.6 85,23 86.8,23 86.8,36.2 84.9,36.2 82.3,27.9 
	"/>
<polyline class="st1" points="88,23 93.9,23 93.9,24.8 92,24.8 92,36.2 89.8,36.2 89.8,24.8 88,24.8 88,23 "/>
<polyline class="st1" points="102,28 100.7,36.2 98.7,36.2 96.9,23 99,23 100.1,31.3 100.1,31.3 101.2,23 103,23 104.2,31.3 
	104.2,31.3 105.2,23 107.1,23 105.4,36.2 103.3,36.2 102,28 102,28 "/>
<path class="st1" d="M108,32.8v-6.4c0-2.1,1-3.5,3.3-3.5c2.3,0,3.4,1.5,3.4,3.5v6.4c0,2-1,3.5-3.4,3.5C109,36.3,108,34.8,108,32.8
	 M112.5,33.1v-7.1c0-0.8-0.3-1.4-1.1-1.4c-0.8,0-1.1,0.6-1.1,1.4v7.1c0,0.8,0.3,1.4,1.1,1.4C112.1,34.5,112.5,33.9,112.5,33.1z"/>
<path class="st1" d="M118.3,30.1v6h-2.2V23h3.2c2.2,0,3,1.1,3,2.9v1.7c0,1.4-0.5,2.3-1.8,2.5l2.1,6h-2.3L118.3,30.1 M118.3,24.8v4.1
	h0.7c0.8,0,1.1-0.4,1.1-1.1v-1.9c0-0.7-0.3-1.1-1.1-1.1H118.3z"/>
<polyline class="st1" points="125.9,29.8 125.9,36.2 123.7,36.2 123.7,23 125.9,23 125.9,28.8 128.3,23 130.5,23 127.9,28.9 
	130.5,36.2 128.2,36.2 125.9,29.8 "/>
<path class="st1" d="M133.6,36.2l2.5-13.1h2.5l2.5,13.1h-2.3l-0.4-2.4h-2.3l-0.4,2.4H133.6 M136.4,32h1.8l-0.9-5.3h0L136.4,32z"/>
<polyline class="st1" points="143.7,27.9 143.7,36.2 141.9,36.2 141.9,23 144,23 146.4,30.6 146.4,23 148.3,23 148.3,36.2 
	146.3,36.2 143.7,27.9 "/>
<path class="st1" d="M156.3,26.5v6.1c0,2-0.8,3.5-3.2,3.5h-3.4V23h3.4C155.5,23,156.3,24.5,156.3,26.5 M152.9,34.4
	c0.9,0,1.3-0.5,1.3-1.3v-6.9c0-0.8-0.3-1.3-1.3-1.3h-0.9v9.5H152.9z"/>
<polyline class="st1" points="51.7,42.3 57,42.3 57,44.1 53.9,44.1 53.9,47.9 56.1,47.9 56.1,49.7 53.9,49.7 53.9,53.7 57,53.7 
	57,55.5 51.7,55.5 51.7,42.3 "/>
<path class="st1" d="M57.9,52.1v-6.4c0-2.1,1-3.5,3.3-3.5c2.4,0,3.1,1.4,3.1,3.3V47h-2v-1.7c0-0.8-0.3-1.3-1.1-1.3
	c-0.8,0-1.1,0.6-1.1,1.4v7.1c0,0.8,0.3,1.4,1.1,1.4c0.8,0,1.1-0.5,1.1-1.3v-2.4h2v2.3c0,1.9-0.8,3.3-3.1,3.3
	C58.9,55.6,57.9,54.1,57.9,52.1"/>
<path class="st1" d="M65.5,52.1v-6.4c0-2.1,1-3.5,3.3-3.5c2.3,0,3.4,1.5,3.4,3.5v6.4c0,2-1,3.5-3.4,3.5
	C66.6,55.6,65.5,54.1,65.5,52.1 M70,52.4v-7.1c0-0.8-0.3-1.4-1.1-1.4c-0.8,0-1.1,0.6-1.1,1.4v7.1c0,0.8,0.4,1.4,1.1,1.4
	C69.7,53.8,70,53.2,70,52.4z"/>
<polyline class="st1" points="75.4,47.2 75.4,55.5 73.5,55.5 73.5,42.3 75.7,42.3 78.1,49.9 78.1,42.3 79.9,42.3 79.9,55.5 78,55.5 
	75.4,47.2 "/>
<path class="st1" d="M81.2,52.1v-6.4c0-2.1,1-3.5,3.3-3.5c2.3,0,3.4,1.5,3.4,3.5v6.4c0,2-1,3.5-3.4,3.5
	C82.2,55.6,81.2,54.1,81.2,52.1 M85.6,52.4v-7.1c0-0.8-0.3-1.4-1.1-1.4c-0.8,0-1.1,0.6-1.1,1.4v7.1c0,0.8,0.4,1.4,1.1,1.4
	C85.3,53.8,85.6,53.2,85.6,52.4z"/>
<polyline class="st1" points="95.2,46.9 95.2,46.9 93.7,55.5 92.6,55.5 91,46.9 90.9,46.9 90.9,55.5 89.1,55.5 89.1,42.3 91.7,42.3 
	93.1,49.7 93.2,49.7 94.4,42.3 97.2,42.3 97.2,55.5 95.2,55.5 95.2,46.9 "/>
<rect x="98.5" y="42.3" class="st1" width="2.2" height="13.1"/>
<path class="st1" d="M101.9,52.1v-6.4c0-2.1,1-3.5,3.3-3.5c2.4,0,3.1,1.4,3.1,3.3V47h-2v-1.7c0-0.8-0.3-1.3-1.1-1.3
	c-0.8,0-1.1,0.6-1.1,1.4v7.1c0,0.8,0.3,1.4,1.1,1.4c0.8,0,1.1-0.5,1.1-1.3v-2.4h2v2.3c0,1.9-0.8,3.3-3.1,3.3
	C102.9,55.6,101.9,54.1,101.9,52.1"/>
<path class="st1" d="M115.5,48.5h3.1v7H117V54c-0.3,1-0.9,1.6-2.1,1.6c-1.9,0-2.8-1.5-2.8-3.5v-6.4c0-2.1,1-3.5,3.3-3.5
	c2.4,0,3.2,1.4,3.2,3.3v1.2h-2v-1.3c0-0.8-0.3-1.3-1.1-1.3c-0.8,0-1.1,0.6-1.1,1.4v7.1c0,0.8,0.3,1.4,1.1,1.4c0.7,0,1.1-0.4,1.1-1.3
	v-2.3h-1V48.5"/>
<path class="st1" d="M122.1,49.4v6h-2.2V42.3h3.2c2.2,0,3,1.1,3,2.9V47c0,1.4-0.5,2.3-1.8,2.5l2.1,6h-2.3L122.1,49.4 M122.1,44.1
	v4.1h0.7c0.8,0,1.1-0.4,1.1-1.1v-1.9c0-0.7-0.3-1.1-1.1-1.1H122.1z"/>
<path class="st1" d="M127.1,52.1v-6.4c0-2.1,1-3.5,3.3-3.5c2.3,0,3.4,1.5,3.4,3.5v6.4c0,2-1,3.5-3.4,3.5
	C128.2,55.6,127.1,54.1,127.1,52.1 M131.6,52.4v-7.1c0-0.8-0.3-1.4-1.1-1.4c-0.8,0-1.1,0.6-1.1,1.4v7.1c0,0.8,0.3,1.4,1.1,1.4
	C131.3,53.8,131.6,53.2,131.6,52.4z"/>
<polyline class="st1" points="139.5,47.3 138.3,55.5 136.2,55.5 134.4,42.3 136.6,42.3 137.6,50.7 137.6,50.7 138.7,42.3 
	140.5,42.3 141.7,50.7 141.7,50.7 142.8,42.3 144.6,42.3 142.9,55.5 140.8,55.5 139.5,47.3 139.5,47.3 "/>
<polyline class="st1" points="145.3,42.3 151.2,42.3 151.2,44.1 149.4,44.1 149.4,55.5 147.1,55.5 147.1,44.1 145.3,44.1 
	145.3,42.3 "/>
<polyline class="st1" points="156.2,49.7 154.1,49.7 154.1,55.5 151.9,55.5 151.9,42.3 154.1,42.3 154.1,47.9 156.2,47.9 
	156.2,42.3 158.4,42.3 158.4,55.5 156.2,55.5 156.2,49.7 "/>
</svg>
