<?xml version="1.0" encoding="utf-8"?>
<!-- Generator: Adobe Illustrator 21.0.0, SVG Export Plug-In . SVG Version: 6.00 Build 0)  -->
<svg version="1.1" id="Layer_1" xmlns="http://www.w3.org/2000/svg" xmlns:xlink="http://www.w3.org/1999/xlink" x="0px" y="0px"
	 viewBox="0 0 180 180" style="enable-background:new 0 0 180 180;" xml:space="preserve">
<style type="text/css">
	.st0{fill:#F26A2C;}
	.st1{fill:#FFFFFF;}
</style>
<rect x="7.9" y="9.5" class="st0" width="160.9" height="160.9"/>
<path class="st1" d="M37.4,31.2c0-5-2.2-8.7-7.9-8.7c-5.8,0-8,3.2-8,8.2v4.8c0,5.3,2.1,8,6,8c2.3,0,3.7-1.1,4.5-2.6h0v7
	c0,2-0.8,3.3-2.7,3.3c-2,0-2.7-1.1-2.7-3.2v-2.2h-5v1.7c0,4.8,1.7,8.1,7.8,8.1c5.7,0,8-3.7,8-8.8V31.2 M32,36.2
	c-0.1,1.8-0.9,3-2.6,3c-1.9,0-2.6-1.1-2.6-3.3v-5.6c0-2.1,0.8-3.3,2.6-3.3c1.8,0,2.5,1.2,2.5,3.3V36.2z"/>
<path class="st1" d="M129.5,115.3l-19.1-11V82.2c0-0.5-0.2-0.9-0.7-1.1L89.9,69.6c-0.4-0.2-0.9-0.2-1.3,0L68.8,81.1
	c-0.4,0.2-0.7,0.7-0.7,1.1v22.1l-19.1,11c-0.4,0.2-0.7,0.7-0.7,1.1v22.8c0,0.5,0.2,0.9,0.7,1.1l19.8,11.4c0.2,0.1,0.4,0.2,0.7,0.2
	c0.2,0,0.4-0.1,0.7-0.2l19.1-11l19.1,11c0.2,0.1,0.4,0.2,0.7,0.2s0.5-0.1,0.7-0.2l19.8-11.4c0.4-0.2,0.7-0.7,0.7-1.1v-22.8
	C130.1,116,129.9,115.5,129.5,115.3 M87.9,137l-15.9-9.2l15.9-9.2V137z M106.4,105l-15.9,9.2V95.9L106.4,105z M87.9,114.2L72.1,105
	l15.9-9.2V114.2z M91.9,116.4l17.2-9.9l17.2,9.9l-17.2,9.9L91.9,116.4z M107.7,102.8l-15.9-9.2l15.9-9.2V102.8z M86.6,93.6
	l-15.9,9.2V84.4L86.6,93.6z M68.2,148.4L51,138.5v-19.8l17.2,9.9V148.4z M70.8,148.4v-18.3l15.9,9.2L70.8,148.4z M127.5,138.5
	l-17.2,9.9v-19.8l17.2-9.9V138.5z"/>
<rect x="45.9" y="23.3" class="st1" width="2.1" height="12.5"/>
<polyline class="st1" points="50.7,27.9 50.7,35.8 48.9,35.8 48.9,23.3 51,23.3 53.3,30.5 53.3,23.3 55,23.3 55,35.8 53.2,35.8 
	50.7,27.9 "/>
<path class="st1" d="M62.3,26.6v5.8c0,1.9-0.8,3.4-3.1,3.4H56V23.3h3.3C61.5,23.3,62.3,24.7,62.3,26.6 M59,34.1
	c0.9,0,1.2-0.5,1.2-1.3v-6.6c0-0.7-0.3-1.3-1.2-1.3h-0.9v9.1H59z"/>
<path class="st1" d="M69.3,23.3v9.5c0,1.9-0.8,3.2-3,3.2c-2.2,0-3.1-1.3-3.1-3.2v-9.5h2.1V33c0,0.7,0.3,1.2,1,1.2c0.7,0,1-0.5,1-1.2
	v-9.7H69.3"/>
<path class="st1" d="M70.1,33.1v-1.7h2v1.7c0,0.7,0.3,1.1,1,1.1c0.7,0,1-0.4,1-1.1v-0.5c0-0.7-0.3-1.2-0.9-1.8l-1.2-1.2
	c-1.2-1.2-1.8-1.9-1.8-3.3v-0.4c0-1.6,0.9-2.8,3-2.8c2.1,0,2.9,1,2.9,2.8v1h-1.9v-1.1c0-0.7-0.3-1.1-1-1.1c-0.6,0-1,0.3-1,1v0.3
	c0,0.7,0.4,1.1,1,1.7l1.4,1.3c1.1,1.2,1.7,1.9,1.7,3.3V33c0,1.7-0.9,2.9-3.1,2.9C71,36,70.1,34.8,70.1,33.1"/>
<polyline class="st1" points="76.3,23.3 81.9,23.3 81.9,25 80.2,25 80.2,35.8 78.1,35.8 78.1,25 76.3,25 76.3,23.3 "/>
<path class="st1" d="M84.7,30.1v5.8h-2.1V23.3h3.1c2.1,0,2.9,1.1,2.9,2.8v1.6c0,1.4-0.5,2.1-1.7,2.4l2,5.7h-2.2L84.7,30.1 M84.7,25
	v3.9h0.7c0.7,0,1-0.4,1-1V26c0-0.7-0.3-1-1-1H84.7z"/>
<polyline class="st1" points="93.1,31.1 93.1,35.8 91,35.8 91,31.1 88.7,23.3 90.9,23.3 92.1,28 92.2,28 93.4,23.3 95.5,23.3 
	93.1,31.1 "/>
<polyline class="st1" points="97.3,34 96.2,36.8 95,36.8 95.3,33.8 97.3,33.8 97.3,34 "/>
<rect x="99.9" y="23.3" class="st1" width="2.1" height="12.5"/>
<polyline class="st1" points="104.7,27.9 104.7,35.8 102.9,35.8 102.9,23.3 105,23.3 107.3,30.5 107.3,23.3 109,23.3 109,35.8 
	107.2,35.8 104.7,27.9 "/>
<polyline class="st1" points="111.7,27.9 111.7,35.8 109.9,35.8 109.9,23.3 112,23.3 114.3,30.5 114.3,23.3 116,23.3 116,35.8 
	114.2,35.8 111.7,27.9 "/>
<path class="st1" d="M117,32.6v-6.1c0-2,1-3.4,3.2-3.4c2.2,0,3.2,1.4,3.2,3.4v6.1c0,1.9-1,3.4-3.2,3.4C117.9,36,117,34.5,117,32.6
	 M121.2,32.9v-6.7c0-0.8-0.3-1.3-1.1-1.3c-0.7,0-1.1,0.5-1.1,1.3v6.7c0,0.8,0.3,1.3,1.1,1.3C120.9,34.2,121.2,33.7,121.2,32.9z"/>
<polyline class="st1" points="131,23.3 128.6,35.8 126.3,35.8 124,23.3 126.1,23.3 127.6,32 127.6,32 129,23.3 131,23.3 "/>
<path class="st1" d="M130.4,35.8l2.4-12.5h2.4l2.4,12.5h-2.2l-0.4-2.3h-2.2l-0.4,2.3H130.4 M133,31.8h1.7l-0.8-5h0L133,31.8z"/>
<polyline class="st1" points="136.9,23.3 142.6,23.3 142.6,25 140.8,25 140.8,35.8 138.7,35.8 138.7,25 136.9,25 136.9,23.3 "/>
<rect x="143.3" y="23.3" class="st1" width="2.1" height="12.5"/>
<path class="st1" d="M146.3,32.6v-6.1c0-2,1-3.4,3.2-3.4c2.2,0,3.2,1.4,3.2,3.4v6.1c0,1.9-1,3.4-3.2,3.4
	C147.3,36,146.3,34.5,146.3,32.6 M150.6,32.9v-6.7c0-0.8-0.3-1.3-1.1-1.3c-0.7,0-1.1,0.5-1.1,1.3v6.7c0,0.8,0.3,1.3,1.1,1.3
	C150.2,34.2,150.6,33.7,150.6,32.9z"/>
<polyline class="st1" points="155.4,27.9 155.4,35.8 153.6,35.8 153.6,23.3 155.7,23.3 158,30.5 158,23.3 159.7,23.3 159.7,35.8 
	157.9,35.8 155.4,27.9 "/>
<path class="st1" d="M45.6,55.2l2.4-12.5h2.4l2.4,12.5h-2.2l-0.4-2.3h-2.2l-0.4,2.3H45.6 M48.2,51.2h1.7l-0.8-5h0L48.2,51.2z"/>
<polyline class="st1" points="55.3,47.3 55.3,55.2 53.5,55.2 53.5,42.6 55.6,42.6 57.8,49.8 57.8,42.6 59.6,42.6 59.6,55.2 
	57.7,55.2 55.3,47.3 "/>
<path class="st1" d="M67,46v5.8c0,1.9-0.8,3.4-3.1,3.4h-3.3V42.6H64C66.2,42.6,67,44,67,46 M63.7,53.4c0.9,0,1.2-0.5,1.2-1.3v-6.6
	c0-0.7-0.3-1.3-1.2-1.3h-0.9v9.1H63.7z"/>
<rect x="70" y="42.6" class="st1" width="2.1" height="12.5"/>
<polyline class="st1" points="75,47.3 75,55.2 73.2,55.2 73.2,42.6 75.3,42.6 77.6,49.8 77.6,42.6 79.3,42.6 79.3,55.2 77.5,55.2 
	75,47.3 "/>
<polyline class="st1" points="80.4,42.6 85.4,42.6 85.4,44.3 82.5,44.3 82.5,47.9 84.6,47.9 84.6,49.6 82.5,49.6 82.5,55.2 
	80.4,55.2 80.4,42.6 "/>
<path class="st1" d="M88.3,49.4v5.8h-2.1V42.6h3.1c2.1,0,2.9,1.1,2.9,2.8V47c0,1.4-0.5,2.1-1.7,2.4l2,5.7h-2.2L88.3,49.4 M88.3,44.3
	v3.9H89c0.7,0,1-0.4,1-1v-1.9c0-0.7-0.3-1-1-1H88.3z"/>
<path class="st1" d="M92.9,55.2l2.4-12.5h2.4l2.4,12.5h-2.2l-0.4-2.3h-2.2l-0.4,2.3H92.9 M95.5,51.2h1.7l-0.8-5h0L95.5,51.2z"/>
<path class="st1" d="M100.5,52.5v-1.7h2v1.7c0,0.7,0.3,1.1,1,1.1c0.7,0,1-0.4,1-1.1V52c0-0.7-0.3-1.2-0.9-1.8l-1.2-1.2
	c-1.2-1.2-1.8-1.9-1.8-3.3v-0.4c0-1.6,0.9-2.8,3-2.8c2.1,0,2.9,1,2.9,2.8v1h-1.9v-1.1c0-0.7-0.3-1.1-1-1.1c-0.6,0-1,0.3-1,1v0.3
	c0,0.7,0.4,1.1,1,1.7l1.3,1.3c1.1,1.2,1.7,1.9,1.7,3.3v0.6c0,1.7-0.9,2.9-3.1,2.9C101.4,55.3,100.5,54.1,100.5,52.5"/>
<polyline class="st1" points="107.1,42.6 112.7,42.6 112.7,44.3 110.9,44.3 110.9,55.2 108.8,55.2 108.8,44.3 107.1,44.3 
	107.1,42.6 "/>
<path class="st1" d="M115.7,49.4v5.8h-2.1V42.6h3.1c2.1,0,2.9,1.1,2.9,2.8V47c0,1.4-0.5,2.1-1.7,2.4l2,5.7h-2.2L115.7,49.4
	 M115.7,44.3v3.9h0.7c0.7,0,1-0.4,1-1v-1.9c0-0.7-0.3-1-1-1H115.7z"/>
<path class="st1" d="M126.7,42.6v9.5c0,1.9-0.8,3.2-3,3.2c-2.2,0-3.1-1.3-3.1-3.2v-9.5h2.1v9.7c0,0.7,0.3,1.2,1,1.2
	c0.7,0,1-0.5,1-1.2v-9.7H126.7"/>
<path class="st1" d="M127.8,51.9v-6.1c0-2,0.9-3.4,3.1-3.4c2.3,0,3,1.3,3,3.1v1.5H132v-1.6c0-0.8-0.3-1.2-1-1.2s-1.1,0.5-1.1,1.3
	v6.7c0,0.8,0.3,1.3,1.1,1.3s1-0.5,1-1.2V50h1.9v2.2c0,1.8-0.7,3.1-3,3.1C128.8,55.3,127.8,53.9,127.8,51.9"/>
<polyline class="st1" points="134.3,42.6 139.9,42.6 139.9,44.3 138.2,44.3 138.2,55.2 136,55.2 136,44.3 134.3,44.3 134.3,42.6 "/>
<path class="st1" d="M146.9,42.6v9.5c0,1.9-0.8,3.2-3,3.2c-2.2,0-3.1-1.3-3.1-3.2v-9.5h2.1v9.7c0,0.7,0.3,1.2,1,1.2
	c0.7,0,1-0.5,1-1.2v-9.7H146.9"/>
<path class="st1" d="M150.1,49.4v5.8H148V42.6h3.1c2.1,0,2.9,1.1,2.9,2.8V47c0,1.4-0.5,2.1-1.7,2.4l2,5.7h-2.2L150.1,49.4
	 M150.1,44.3v3.9h0.7c0.7,0,1-0.4,1-1v-1.9c0-0.7-0.3-1-1-1H150.1z"/>
<polyline class="st1" points="155.1,42.6 160.1,42.6 160.1,44.3 157.2,44.3 157.2,47.9 159.3,47.9 159.3,49.6 157.2,49.6 
	157.2,53.4 160.1,53.4 160.1,55.2 155.1,55.2 155.1,42.6 "/>
</svg>
