<?xml version="1.0" encoding="UTF-8" standalone="no"?>
<svg
   xmlns:dc="http://purl.org/dc/elements/1.1/"
   xmlns:cc="http://creativecommons.org/ns#"
   xmlns:rdf="http://www.w3.org/1999/02/22-rdf-syntax-ns#"
   xmlns:svg="http://www.w3.org/2000/svg"
   xmlns="http://www.w3.org/2000/svg"
   height="58.799999"
   width="58.799999"
   xml:space="preserve"
   viewBox="0 0 58.799999 58.799998"
   y="0px"
   x="0px"
   id="Layer_1"
   version="1.1"><metadata
     id="metadata1267"><rdf:RDF><cc:Work
         rdf:about=""><dc:format>image/svg+xml</dc:format><dc:type
           rdf:resource="http://purl.org/dc/dcmitype/StillImage" /><dc:title></dc:title></cc:Work></rdf:RDF></metadata><defs
     id="defs1265" /><style
     id="style3"
     type="text/css">
	.st0{enable-background:new    ;}
	.st1{fill:#73322F;}
	.st2{fill:#4C9F46;}
	.st3{clip-path:url(#SVGID_2_);fill:#FFFFFF;}
	.st4{clip-path:url(#SVGID_4_);fill:#FFFFFF;}
	.st5{clip-path:url(#SVGID_6_);fill:#FFFFFF;}
	.st6{clip-path:url(#SVGID_8_);fill:#FFFFFF;}
	.st7{clip-path:url(#SVGID_10_);fill:#FFFFFF;}
	.st8{clip-path:url(#SVGID_12_);fill:#FFFFFF;}
	.st9{clip-path:url(#SVGID_14_);fill:#FFFFFF;}
	.st10{clip-path:url(#SVGID_16_);fill:#FFFFFF;}
	.st11{clip-path:url(#SVGID_18_);fill:#FFFFFF;}
	.st12{clip-path:url(#SVGID_20_);fill:#FFFFFF;}
	.st13{clip-path:url(#SVGID_22_);fill:#FFFFFF;}
	.st14{clip-path:url(#SVGID_24_);fill:#FFFFFF;}
	.st15{clip-path:url(#SVGID_26_);fill:#FFFFFF;}
	.st16{clip-path:url(#SVGID_28_);fill:#FFFFFF;}
	.st17{clip-path:url(#SVGID_30_);fill:#FFFFFF;}
	.st18{clip-path:url(#SVGID_32_);fill:#FFFFFF;}
	.st19{clip-path:url(#SVGID_34_);fill:#FFFFFF;}
	.st20{clip-path:url(#SVGID_36_);fill:#FFFFFF;}
	.st21{clip-path:url(#SVGID_38_);fill:#FFFFFF;}
	.st22{clip-path:url(#SVGID_40_);fill:#FFFFFF;}
	.st23{clip-path:url(#SVGID_42_);fill:#FFFFFF;}
	.st24{clip-path:url(#SVGID_44_);fill:#FFFFFF;}
	.st25{clip-path:url(#SVGID_46_);fill:#FFFFFF;}
	.st26{clip-path:url(#SVGID_48_);fill:#FFFFFF;}
	.st27{clip-path:url(#SVGID_50_);fill:#FFFFFF;}
	.st28{clip-path:url(#SVGID_52_);fill:#FFFFFF;}
	.st29{fill:#EF422C;}
	.st30{clip-path:url(#SVGID_54_);fill:#FFFFFF;}
	.st31{clip-path:url(#SVGID_56_);fill:#FFFFFF;}
	.st32{clip-path:url(#SVGID_58_);fill:#FFFFFF;}
	.st33{clip-path:url(#SVGID_60_);fill:#FFFFFF;}
	.st34{clip-path:url(#SVGID_62_);fill:#FFFFFF;}
	.st35{clip-path:url(#SVGID_64_);fill:#FFFFFF;}
	.st36{clip-path:url(#SVGID_66_);fill:#FFFFFF;}
	.st37{clip-path:url(#SVGID_68_);fill:#FFFFFF;}
	.st38{clip-path:url(#SVGID_70_);fill:#FFFFFF;}
	.st39{clip-path:url(#SVGID_72_);fill:#FFFFFF;}
	.st40{clip-path:url(#SVGID_74_);fill:#FFFFFF;}
	.st41{clip-path:url(#SVGID_76_);fill:#FFFFFF;}
	.st42{clip-path:url(#SVGID_78_);fill:#FFFFFF;}
	.st43{clip-path:url(#SVGID_80_);fill:#FFFFFF;}
	.st44{clip-path:url(#SVGID_82_);fill:#FFFFFF;}
	.st45{clip-path:url(#SVGID_84_);fill:#FFFFFF;}
	.st46{clip-path:url(#SVGID_86_);fill:#FFFFFF;}
	.st47{clip-path:url(#SVGID_88_);fill:#FFFFFF;}
	.st48{fill:#29BDE2;}
	.st49{clip-path:url(#SVGID_90_);fill:#FFFFFF;}
	.st50{clip-path:url(#SVGID_92_);fill:#FFFFFF;}
	.st51{clip-path:url(#SVGID_94_);fill:#FFFFFF;}
	.st52{clip-path:url(#SVGID_96_);fill:#FFFFFF;}
	.st53{clip-path:url(#SVGID_98_);fill:#FFFFFF;}
	.st54{clip-path:url(#SVGID_100_);fill:#FFFFFF;}
	.st55{clip-path:url(#SVGID_102_);fill:#FFFFFF;}
	.st56{clip-path:url(#SVGID_104_);fill:#FFFFFF;}
	.st57{clip-path:url(#SVGID_106_);fill:#FFFFFF;}
	.st58{clip-path:url(#SVGID_108_);fill:#FFFFFF;}
	.st59{clip-path:url(#SVGID_110_);fill:#FFFFFF;}
	.st60{clip-path:url(#SVGID_112_);fill:#FFFFFF;}
	.st61{clip-path:url(#SVGID_114_);fill:#FFFFFF;}
	.st62{clip-path:url(#SVGID_116_);fill:#FFFFFF;}
	.st63{clip-path:url(#SVGID_118_);fill:#FFFFFF;}
	.st64{clip-path:url(#SVGID_120_);fill:#FFFFFF;}
	.st65{clip-path:url(#SVGID_122_);fill:#FFFFFF;}
	.st66{clip-path:url(#SVGID_124_);fill:#FFFFFF;}
	.st67{clip-path:url(#SVGID_126_);fill:#FFFFFF;}
	.st68{clip-path:url(#SVGID_128_);fill:#FFFFFF;}
	.st69{clip-path:url(#SVGID_130_);fill:#FFFFFF;}
	.st70{clip-path:url(#SVGID_132_);fill:#FFFFFF;}
	.st71{clip-path:url(#SVGID_134_);fill:#FFFFFF;}
	.st72{clip-path:url(#SVGID_136_);fill:#FFFFFF;}
	.st73{clip-path:url(#SVGID_138_);fill:#FFFFFF;}
	.st74{fill:#FAC315;}
	.st75{fill:#FFFFFF;}
	.st76{clip-path:url(#SVGID_140_);fill:#FFFFFF;}
	.st77{clip-path:url(#SVGID_142_);fill:#FFFFFF;}
	.st78{clip-path:url(#SVGID_144_);fill:#FFFFFF;}
	.st79{clip-path:url(#SVGID_146_);fill:#FFFFFF;}
	.st80{clip-path:url(#SVGID_148_);fill:#FFFFFF;}
	.st81{clip-path:url(#SVGID_150_);fill:#FFFFFF;}
	.st82{clip-path:url(#SVGID_152_);fill:#FFFFFF;}
	.st83{clip-path:url(#SVGID_154_);fill:#FFFFFF;}
	.st84{clip-path:url(#SVGID_156_);fill:#FFFFFF;}
	.st85{clip-path:url(#SVGID_158_);fill:#FFFFFF;}
	.st86{clip-path:url(#SVGID_160_);fill:#FFFFFF;}
	.st87{clip-path:url(#SVGID_162_);fill:#FFFFFF;}
	.st88{clip-path:url(#SVGID_164_);fill:#FFFFFF;}
	.st89{clip-path:url(#SVGID_166_);fill:#FFFFFF;}
	.st90{clip-path:url(#SVGID_168_);fill:#FFFFFF;}
	.st91{clip-path:url(#SVGID_170_);fill:#FFFFFF;}
	.st92{clip-path:url(#SVGID_172_);fill:#FFFFFF;}
	.st93{clip-path:url(#SVGID_174_);fill:#FFFFFF;}
	.st94{clip-path:url(#SVGID_176_);fill:#FFFFFF;}
	.st95{clip-path:url(#SVGID_178_);fill:#FFFFFF;}
	.st96{clip-path:url(#SVGID_180_);fill:#FFFFFF;}
	.st97{clip-path:url(#SVGID_182_);fill:#FFFFFF;}
	.st98{clip-path:url(#SVGID_184_);fill:#FFFFFF;}
	.st99{clip-path:url(#SVGID_186_);fill:#FFFFFF;}
	.st100{clip-path:url(#SVGID_188_);fill:#FFFFFF;}
	.st101{clip-path:url(#SVGID_190_);fill:#FFFFFF;}
	.st102{clip-path:url(#SVGID_192_);fill:#FFFFFF;}
	.st103{clip-path:url(#SVGID_194_);fill:#FFFFFF;}
	.st104{clip-path:url(#SVGID_196_);fill:#FFFFFF;}
	.st105{clip-path:url(#SVGID_198_);fill:#FFFFFF;}
	.st106{clip-path:url(#SVGID_200_);fill:#FFFFFF;}
	.st107{clip-path:url(#SVGID_202_);fill:#FFFFFF;}
	.st108{clip-path:url(#SVGID_204_);fill:#FFFFFF;}
	.st109{clip-path:url(#SVGID_206_);fill:#FFFFFF;}
	.st110{clip-path:url(#SVGID_208_);fill:#FFFFFF;}
	.st111{clip-path:url(#SVGID_210_);fill:#FFFFFF;}
	.st112{clip-path:url(#SVGID_212_);fill:#FFFFFF;}
	.st113{fill:#A21C44;}
	.st114{clip-path:url(#SVGID_214_);fill:#FFFFFF;}
	.st115{clip-path:url(#SVGID_216_);fill:#FFFFFF;}
	.st116{clip-path:url(#SVGID_218_);fill:#FFFFFF;}
	.st117{clip-path:url(#SVGID_220_);fill:#FFFFFF;}
	.st118{clip-path:url(#SVGID_222_);fill:#FFFFFF;}
	.st119{clip-path:url(#SVGID_224_);fill:#FFFFFF;}
	.st120{clip-path:url(#SVGID_226_);fill:#FFFFFF;}
	.st121{clip-path:url(#SVGID_228_);fill:#FFFFFF;}
	.st122{clip-path:url(#SVGID_230_);fill:#FFFFFF;}
	.st123{clip-path:url(#SVGID_232_);fill:#FFFFFF;}
	.st124{clip-path:url(#SVGID_234_);fill:#FFFFFF;}
	.st125{clip-path:url(#SVGID_236_);fill:#FFFFFF;}
	.st126{clip-path:url(#SVGID_238_);fill:#FFFFFF;}
	.st127{clip-path:url(#SVGID_240_);fill:#FFFFFF;}
	.st128{clip-path:url(#SVGID_242_);fill:#FFFFFF;}
	.st129{clip-path:url(#SVGID_244_);fill:#FFFFFF;}
	.st130{clip-path:url(#SVGID_246_);fill:#FFFFFF;}
	.st131{clip-path:url(#SVGID_248_);fill:#FFFFFF;}
	.st132{clip-path:url(#SVGID_250_);fill:#FFFFFF;}
	.st133{clip-path:url(#SVGID_252_);fill:#FFFFFF;}
	.st134{clip-path:url(#SVGID_254_);fill:#FFFFFF;}
	.st135{clip-path:url(#SVGID_256_);fill:#FFFFFF;}
	.st136{clip-path:url(#SVGID_258_);fill:#FFFFFF;}
	.st137{clip-path:url(#SVGID_260_);fill:#FFFFFF;}
	.st138{clip-path:url(#SVGID_262_);fill:#FFFFFF;}
	.st139{clip-path:url(#SVGID_264_);fill:#FFFFFF;}
	.st140{clip-path:url(#SVGID_266_);fill:#FFFFFF;}
	.st141{clip-path:url(#SVGID_268_);fill:#FFFFFF;}
	.st142{clip-path:url(#SVGID_270_);fill:#FFFFFF;}
	.st143{clip-path:url(#SVGID_272_);fill:#FFFFFF;}
	.st144{clip-path:url(#SVGID_274_);fill:#FFFFFF;}
	.st145{clip-path:url(#SVGID_276_);fill:#FFFFFF;}
	.st146{fill:#F36A2C;}
	.st147{clip-path:url(#SVGID_278_);fill:#FFFFFF;}
	.st148{clip-path:url(#SVGID_280_);fill:#FFFFFF;}
	.st149{clip-path:url(#SVGID_282_);fill:#FFFFFF;}
	.st150{clip-path:url(#SVGID_284_);fill:#FFFFFF;}
	.st151{clip-path:url(#SVGID_286_);fill:#FFFFFF;}
	.st152{clip-path:url(#SVGID_288_);fill:#FFFFFF;}
	.st153{clip-path:url(#SVGID_290_);fill:#FFFFFF;}
	.st154{clip-path:url(#SVGID_292_);fill:#FFFFFF;}
	.st155{clip-path:url(#SVGID_294_);fill:#FFFFFF;}
	.st156{clip-path:url(#SVGID_296_);fill:#FFFFFF;}
	.st157{clip-path:url(#SVGID_298_);fill:#FFFFFF;}
	.st158{clip-path:url(#SVGID_300_);fill:#FFFFFF;}
	.st159{clip-path:url(#SVGID_302_);fill:#FFFFFF;}
	.st160{clip-path:url(#SVGID_304_);fill:#FFFFFF;}
	.st161{clip-path:url(#SVGID_306_);fill:#FFFFFF;}
	.st162{clip-path:url(#SVGID_308_);fill:#FFFFFF;}
	.st163{clip-path:url(#SVGID_310_);fill:#FFFFFF;}
	.st164{clip-path:url(#SVGID_312_);fill:#FFFFFF;}
	.st165{clip-path:url(#SVGID_314_);fill:#FFFFFF;}
	.st166{clip-path:url(#SVGID_316_);fill:#FFFFFF;}
	.st167{clip-path:url(#SVGID_318_);fill:#FFFFFF;}
	.st168{clip-path:url(#SVGID_320_);fill:#FFFFFF;}
	.st169{clip-path:url(#SVGID_322_);fill:#FFFFFF;}
	.st170{clip-path:url(#SVGID_324_);fill:#FFFFFF;}
	.st171{clip-path:url(#SVGID_326_);fill:#FFFFFF;}
	.st172{clip-path:url(#SVGID_328_);fill:#FFFFFF;}
	.st173{clip-path:url(#SVGID_330_);fill:#FFFFFF;}
	.st174{clip-path:url(#SVGID_332_);fill:#FFFFFF;}
	.st175{clip-path:url(#SVGID_334_);fill:#FFFFFF;}
	.st176{clip-path:url(#SVGID_336_);fill:#FFFFFF;}
	.st177{clip-path:url(#SVGID_338_);fill:#FFFFFF;}
	.st178{clip-path:url(#SVGID_340_);fill:#FFFFFF;}
	.st179{clip-path:url(#SVGID_342_);fill:#FFFFFF;}
	.st180{clip-path:url(#SVGID_344_);fill:#FFFFFF;}
	.st181{clip-path:url(#SVGID_346_);fill:#FFFFFF;}
	.st182{clip-path:url(#SVGID_348_);fill:#FFFFFF;}
	.st183{clip-path:url(#SVGID_350_);fill:#FFFFFF;}
	.st184{clip-path:url(#SVGID_352_);fill:#FFFFFF;}
	.st185{fill:#DD1768;}
	.st186{clip-path:url(#SVGID_354_);fill:#FFFFFF;}
	.st187{clip-path:url(#SVGID_356_);fill:#FFFFFF;}
	.st188{clip-path:url(#SVGID_358_);fill:#FFFFFF;}
	.st189{clip-path:url(#SVGID_360_);fill:#FFFFFF;}
	.st190{clip-path:url(#SVGID_362_);fill:#FFFFFF;}
	.st191{clip-path:url(#SVGID_364_);fill:#FFFFFF;}
	.st192{clip-path:url(#SVGID_366_);fill:#FFFFFF;}
	.st193{clip-path:url(#SVGID_368_);fill:#FFFFFF;}
	.st194{clip-path:url(#SVGID_370_);fill:#FFFFFF;}
	.st195{clip-path:url(#SVGID_372_);fill:#FFFFFF;}
	.st196{clip-path:url(#SVGID_374_);fill:#FFFFFF;}
	.st197{clip-path:url(#SVGID_376_);fill:#FFFFFF;}
	.st198{clip-path:url(#SVGID_378_);fill:#FFFFFF;}
	.st199{clip-path:url(#SVGID_380_);fill:#FFFFFF;}
	.st200{clip-path:url(#SVGID_382_);fill:#FFFFFF;}
	.st201{clip-path:url(#SVGID_384_);fill:#FFFFFF;}
	.st202{clip-path:url(#SVGID_386_);fill:#FFFFFF;}
	.st203{clip-path:url(#SVGID_388_);fill:#FFFFFF;}
	.st204{clip-path:url(#SVGID_390_);fill:#FFFFFF;}
	.st205{clip-path:url(#SVGID_392_);fill:#FFFFFF;}
	.st206{clip-path:url(#SVGID_394_);fill:#FFFFFF;}
	.st207{clip-path:url(#SVGID_396_);fill:#FFFFFF;}
	.st208{clip-path:url(#SVGID_398_);fill:#FFFFFF;}
	.st209{fill:#F99D28;}
	.st210{clip-path:url(#SVGID_400_);fill:#FFFFFF;}
	.st211{clip-path:url(#SVGID_402_);fill:#FFFFFF;}
	.st212{clip-path:url(#SVGID_404_);fill:#FFFFFF;}
	.st213{clip-path:url(#SVGID_406_);fill:#FFFFFF;}
	.st214{clip-path:url(#SVGID_408_);fill:#FFFFFF;}
	.st215{clip-path:url(#SVGID_410_);fill:#FFFFFF;}
	.st216{clip-path:url(#SVGID_412_);fill:#FFFFFF;}
	.st217{clip-path:url(#SVGID_414_);fill:#FFFFFF;}
	.st218{clip-path:url(#SVGID_416_);fill:#FFFFFF;}
	.st219{clip-path:url(#SVGID_418_);fill:#FFFFFF;}
	.st220{clip-path:url(#SVGID_420_);fill:#FFFFFF;}
	.st221{clip-path:url(#SVGID_422_);fill:#FFFFFF;}
	.st222{clip-path:url(#SVGID_424_);fill:#FFFFFF;}
	.st223{clip-path:url(#SVGID_426_);fill:#FFFFFF;}
	.st224{clip-path:url(#SVGID_428_);fill:#FFFFFF;}
	.st225{clip-path:url(#SVGID_430_);fill:#FFFFFF;}
	.st226{clip-path:url(#SVGID_432_);fill:#FFFFFF;}
	.st227{clip-path:url(#SVGID_434_);fill:#FFFFFF;}
	.st228{clip-path:url(#SVGID_436_);fill:#FFFFFF;}
	.st229{clip-path:url(#SVGID_438_);fill:#FFFFFF;}
	.st230{clip-path:url(#SVGID_440_);fill:#FFFFFF;}
	.st231{clip-path:url(#SVGID_442_);fill:#FFFFFF;}
	.st232{clip-path:url(#SVGID_444_);fill:#FFFFFF;}
	.st233{clip-path:url(#SVGID_446_);fill:#FFFFFF;}
	.st234{clip-path:url(#SVGID_448_);fill:#FFFFFF;}
	.st235{clip-path:url(#SVGID_450_);fill:#FFFFFF;}
	.st236{clip-path:url(#SVGID_452_);fill:#FFFFFF;}
	.st237{clip-path:url(#SVGID_454_);fill:#FFFFFF;}
	.st238{clip-path:url(#SVGID_456_);fill:#FFFFFF;}
	.st239{clip-path:url(#SVGID_458_);fill:#FFFFFF;}
	.st240{clip-path:url(#SVGID_460_);fill:#FFFFFF;}
	.st241{clip-path:url(#SVGID_462_);fill:#FFFFFF;}
	.st242{clip-path:url(#SVGID_464_);fill:#FFFFFF;}
	.st243{clip-path:url(#SVGID_466_);fill:#FFFFFF;}
	.st244{clip-path:url(#SVGID_468_);fill:#FFFFFF;}
	.st245{clip-path:url(#SVGID_470_);fill:#FFFFFF;}
	.st246{clip-path:url(#SVGID_472_);fill:#FFFFFF;}
	.st247{fill:#BE8B2C;}
	.st248{clip-path:url(#SVGID_474_);fill:#FFFFFF;}
	.st249{clip-path:url(#SVGID_476_);fill:#FFFFFF;}
	.st250{clip-path:url(#SVGID_478_);fill:#FFFFFF;}
	.st251{clip-path:url(#SVGID_480_);fill:#FFFFFF;}
	.st252{clip-path:url(#SVGID_482_);fill:#FFFFFF;}
	.st253{clip-path:url(#SVGID_484_);fill:#FFFFFF;}
	.st254{clip-path:url(#SVGID_486_);fill:#FFFFFF;}
	.st255{clip-path:url(#SVGID_488_);fill:#FFFFFF;}
	.st256{clip-path:url(#SVGID_490_);fill:#FFFFFF;}
	.st257{clip-path:url(#SVGID_492_);fill:#FFFFFF;}
	.st258{clip-path:url(#SVGID_494_);fill:#FFFFFF;}
	.st259{clip-path:url(#SVGID_496_);fill:#FFFFFF;}
	.st260{clip-path:url(#SVGID_498_);fill:#FFFFFF;}
	.st261{clip-path:url(#SVGID_500_);fill:#FFFFFF;}
	.st262{clip-path:url(#SVGID_502_);fill:#FFFFFF;}
	.st263{clip-path:url(#SVGID_504_);fill:#FFFFFF;}
	.st264{clip-path:url(#SVGID_506_);fill:#FFFFFF;}
	.st265{clip-path:url(#SVGID_508_);fill:#FFFFFF;}
	.st266{clip-path:url(#SVGID_510_);fill:#FFFFFF;}
	.st267{clip-path:url(#SVGID_512_);fill:#FFFFFF;}
	.st268{clip-path:url(#SVGID_514_);fill:#FFFFFF;}
	.st269{clip-path:url(#SVGID_516_);fill:#FFFFFF;}
	.st270{clip-path:url(#SVGID_518_);fill:#FFFFFF;}
	.st271{clip-path:url(#SVGID_520_);fill:#FFFFFF;}
	.st272{clip-path:url(#SVGID_522_);fill:#FFFFFF;}
	.st273{clip-path:url(#SVGID_524_);fill:#FFFFFF;}
	.st274{clip-path:url(#SVGID_526_);fill:#FFFFFF;}
	.st275{clip-path:url(#SVGID_528_);fill:#FFFFFF;}
	.st276{clip-path:url(#SVGID_530_);fill:#FFFFFF;}
	.st277{clip-path:url(#SVGID_532_);fill:#FFFFFF;}
	.st278{clip-path:url(#SVGID_534_);fill:#FFFFFF;}
	.st279{clip-path:url(#SVGID_536_);fill:#FFFFFF;}
	.st280{clip-path:url(#SVGID_538_);fill:#FFFFFF;}
	.st281{clip-path:url(#SVGID_540_);fill:#FFFFFF;}
	.st282{clip-path:url(#SVGID_542_);fill:#FFFFFF;}
	.st283{clip-path:url(#SVGID_544_);fill:#FFFFFF;}
	.st284{clip-path:url(#SVGID_546_);fill:#FFFFFF;}
	.st285{fill:#417F45;}
	.st286{clip-path:url(#SVGID_548_);fill:#FFFFFF;}
	.st287{clip-path:url(#SVGID_550_);fill:#FFFFFF;}
	.st288{clip-path:url(#SVGID_552_);fill:#FFFFFF;}
	.st289{clip-path:url(#SVGID_554_);fill:#FFFFFF;}
	.st290{clip-path:url(#SVGID_556_);fill:#FFFFFF;}
	.st291{clip-path:url(#SVGID_558_);fill:#FFFFFF;}
	.st292{clip-path:url(#SVGID_560_);fill:#FFFFFF;}
	.st293{clip-path:url(#SVGID_562_);fill:#FFFFFF;}
	.st294{clip-path:url(#SVGID_564_);fill:#FFFFFF;}
	.st295{clip-path:url(#SVGID_566_);fill:#FFFFFF;}
	.st296{clip-path:url(#SVGID_568_);fill:#FFFFFF;}
	.st297{clip-path:url(#SVGID_570_);fill:#FFFFFF;}
	.st298{clip-path:url(#SVGID_572_);fill:#FFFFFF;}
	.st299{clip-path:url(#SVGID_574_);fill:#FFFFFF;}
	.st300{clip-path:url(#SVGID_576_);fill:#FFFFFF;}
	.st301{fill:#1C97D4;}
	.st302{clip-path:url(#SVGID_578_);fill:#FFFFFF;}
	.st303{clip-path:url(#SVGID_580_);fill:#FFFFFF;}
	.st304{clip-path:url(#SVGID_582_);fill:#FFFFFF;}
	.st305{clip-path:url(#SVGID_584_);fill:#FFFFFF;}
	.st306{clip-path:url(#SVGID_586_);fill:#FFFFFF;}
	.st307{clip-path:url(#SVGID_588_);fill:#FFFFFF;}
	.st308{clip-path:url(#SVGID_590_);fill:#FFFFFF;}
	.st309{clip-path:url(#SVGID_592_);fill:#FFFFFF;}
	.st310{clip-path:url(#SVGID_594_);fill:#FFFFFF;}
	.st311{clip-path:url(#SVGID_596_);fill:#FFFFFF;}
	.st312{clip-path:url(#SVGID_598_);fill:#FFFFFF;}
	.st313{clip-path:url(#SVGID_600_);fill:#FFFFFF;}
	.st314{clip-path:url(#SVGID_602_);fill:#FFFFFF;}
	.st315{clip-path:url(#SVGID_604_);fill:#FFFFFF;}
	.st316{clip-path:url(#SVGID_606_);fill:#FFFFFF;}
	.st317{clip-path:url(#SVGID_608_);fill:#FFFFFF;}
	.st318{clip-path:url(#SVGID_610_);fill:#FFFFFF;}
	.st319{fill:#5CBA47;}
	.st320{clip-path:url(#SVGID_612_);fill:#FFFFFF;}
	.st321{clip-path:url(#SVGID_614_);fill:#FFFFFF;}
	.st322{clip-path:url(#SVGID_616_);fill:#FFFFFF;}
	.st323{clip-path:url(#SVGID_618_);fill:#FFFFFF;}
	.st324{clip-path:url(#SVGID_620_);fill:#FFFFFF;}
	.st325{clip-path:url(#SVGID_622_);fill:#FFFFFF;}
	.st326{clip-path:url(#SVGID_624_);fill:#FFFFFF;}
	.st327{clip-path:url(#SVGID_626_);fill:#FFFFFF;}
	.st328{clip-path:url(#SVGID_628_);fill:#FFFFFF;}
	.st329{clip-path:url(#SVGID_630_);fill:#FFFFFF;}
	.st330{clip-path:url(#SVGID_632_);fill:#FFFFFF;}
	.st331{clip-path:url(#SVGID_634_);fill:#FFFFFF;}
	.st332{clip-path:url(#SVGID_636_);fill:#FFFFFF;}
	.st333{clip-path:url(#SVGID_638_);fill:#FFFFFF;}
	.st334{clip-path:url(#SVGID_640_);fill:#FFFFFF;}
	.st335{clip-path:url(#SVGID_642_);fill:#FFFFFF;}
	.st336{clip-path:url(#SVGID_644_);fill:#FFFFFF;}
	.st337{clip-path:url(#SVGID_646_);fill:#FFFFFF;}
	.st338{clip-path:url(#SVGID_648_);fill:#FFFFFF;}
	.st339{clip-path:url(#SVGID_650_);fill:#FFFFFF;}
	.st340{clip-path:url(#SVGID_652_);fill:#FFFFFF;}
	.st341{clip-path:url(#SVGID_654_);fill:#FFFFFF;}
	.st342{clip-path:url(#SVGID_656_);fill:#FFFFFF;}
	.st343{clip-path:url(#SVGID_658_);fill:#FFFFFF;}
	.st344{clip-path:url(#SVGID_660_);fill:#FFFFFF;}
	.st345{clip-path:url(#SVGID_662_);fill:#FFFFFF;}
	.st346{clip-path:url(#SVGID_664_);fill:#FFFFFF;}
	.st347{clip-path:url(#SVGID_666_);fill:#FFFFFF;}
	.st348{clip-path:url(#SVGID_668_);fill:#FFFFFF;}
	.st349{clip-path:url(#SVGID_670_);fill:#07699E;}
	.st350{clip-path:url(#SVGID_672_);fill:#FFFFFF;}
	.st351{clip-path:url(#SVGID_674_);fill:#FFFFFF;}
	.st352{clip-path:url(#SVGID_676_);fill:#FFFFFF;}
	.st353{clip-path:url(#SVGID_678_);fill:#FFFFFF;}
	.st354{clip-path:url(#SVGID_680_);fill:#FFFFFF;}
	.st355{clip-path:url(#SVGID_682_);fill:#FFFFFF;}
	.st356{clip-path:url(#SVGID_684_);fill:#FFFFFF;}
	.st357{clip-path:url(#SVGID_686_);fill:#FFFFFF;}
	.st358{clip-path:url(#SVGID_688_);fill:#FFFFFF;}
	.st359{clip-path:url(#SVGID_690_);fill:#FFFFFF;}
	.st360{clip-path:url(#SVGID_692_);fill:#FFFFFF;}
	.st361{clip-path:url(#SVGID_694_);fill:#FFFFFF;}
	.st362{clip-path:url(#SVGID_696_);fill:#FFFFFF;}
	.st363{clip-path:url(#SVGID_698_);fill:#FFFFFF;}
	.st364{clip-path:url(#SVGID_700_);fill:#FFFFFF;}
	.st365{clip-path:url(#SVGID_702_);fill:#FFFFFF;}
	.st366{clip-path:url(#SVGID_704_);fill:#FFFFFF;}
	.st367{clip-path:url(#SVGID_706_);fill:#FFFFFF;}
	.st368{clip-path:url(#SVGID_708_);fill:#FFFFFF;}
	.st369{clip-path:url(#SVGID_710_);fill:#FFFFFF;}
	.st370{clip-path:url(#SVGID_712_);fill:#FFFFFF;}
	.st371{clip-path:url(#SVGID_714_);fill:#FFFFFF;}
	.st372{clip-path:url(#SVGID_716_);fill:#FFFFFF;}
	.st373{clip-path:url(#SVGID_718_);fill:#FFFFFF;}
	.st374{clip-path:url(#SVGID_720_);fill:#FFFFFF;}
	.st375{clip-path:url(#SVGID_722_);fill:#FFFFFF;}
	.st376{clip-path:url(#SVGID_724_);fill:#FFFFFF;}
	.st377{clip-path:url(#SVGID_726_);fill:#FFFFFF;}
	.st378{clip-path:url(#SVGID_728_);fill:#FFFFFF;}
	.st379{clip-path:url(#SVGID_730_);fill:#FFFFFF;}
	.st380{clip-path:url(#SVGID_732_);fill:#FFFFFF;}
	.st381{clip-path:url(#SVGID_734_);fill:#FFFFFF;}
	.st382{clip-path:url(#SVGID_736_);fill:#FFFFFF;}
	.st383{clip-path:url(#SVGID_738_);fill:#FFFFFF;}
	.st384{clip-path:url(#SVGID_740_);fill:#FFFFFF;}
	.st385{clip-path:url(#SVGID_742_);fill:#FFFFFF;}
	.st386{clip-path:url(#SVGID_744_);fill:#FFFFFF;}
	.st387{clip-path:url(#SVGID_746_);fill:#FFFFFF;}
	.st388{clip-path:url(#SVGID_748_);fill:#FFFFFF;}
	.st389{clip-path:url(#SVGID_750_);fill:#FFFFFF;}
	.st390{clip-path:url(#SVGID_752_);fill:#FFFFFF;}
	.st391{clip-path:url(#SVGID_754_);fill:#FFFFFF;}
	.st392{clip-path:url(#SVGID_756_);fill:#FFFFFF;}
	.st393{clip-path:url(#SVGID_758_);fill:#FFFFFF;}
	.st394{clip-path:url(#SVGID_760_);fill:#FFFFFF;}
	.st395{fill:#18496B;}
	.st396{clip-path:url(#SVGID_762_);fill:#FFFFFF;}
	.st397{clip-path:url(#SVGID_764_);fill:#FFFFFF;}
	.st398{clip-path:url(#SVGID_766_);fill:#FFFFFF;}
	.st399{clip-path:url(#SVGID_768_);fill:#FFFFFF;}
	.st400{clip-path:url(#SVGID_770_);fill:#FFFFFF;}
	.st401{clip-path:url(#SVGID_772_);fill:#FFFFFF;}
	.st402{clip-path:url(#SVGID_774_);fill:#FFFFFF;}
	.st403{clip-path:url(#SVGID_776_);fill:#FFFFFF;}
	.st404{clip-path:url(#SVGID_778_);fill:#FFFFFF;}
	.st405{clip-path:url(#SVGID_780_);fill:#FFFFFF;}
	.st406{clip-path:url(#SVGID_782_);fill:#FFFFFF;}
	.st407{clip-path:url(#SVGID_784_);fill:#FFFFFF;}
	.st408{clip-path:url(#SVGID_786_);fill:#FFFFFF;}
	.st409{clip-path:url(#SVGID_788_);fill:#FFFFFF;}
	.st410{clip-path:url(#SVGID_790_);fill:#FFFFFF;}
	.st411{clip-path:url(#SVGID_792_);fill:#FFFFFF;}
	.st412{clip-path:url(#SVGID_794_);fill:#FFFFFF;}
	.st413{clip-path:url(#SVGID_796_);fill:#FFFFFF;}
	.st414{clip-path:url(#SVGID_798_);fill:#FFFFFF;}
	.st415{clip-path:url(#SVGID_800_);fill:#FFFFFF;}
	.st416{clip-path:url(#SVGID_802_);fill:#FFFFFF;}
	.st417{clip-path:url(#SVGID_804_);fill:#FFFFFF;}
	.st418{clip-path:url(#SVGID_806_);fill:#FFFFFF;}
	.st419{clip-path:url(#SVGID_808_);fill:#FFFFFF;}
	.st420{fill:#C5202E;}
	.st421{clip-path:url(#SVGID_810_);fill:#FFFFFF;}
	.st422{clip-path:url(#SVGID_812_);fill:#FFFFFF;}
	.st423{clip-path:url(#SVGID_814_);fill:#FFFFFF;}
	.st424{clip-path:url(#SVGID_816_);fill:#FFFFFF;}
	.st425{clip-path:url(#SVGID_818_);fill:#FFFFFF;}
	.st426{clip-path:url(#SVGID_820_);fill:#FFFFFF;}
	.st427{clip-path:url(#SVGID_822_);fill:#FFFFFF;}
	.st428{clip-path:url(#SVGID_824_);fill:#FFFFFF;}
	.st429{clip-path:url(#SVGID_826_);fill:#FFFFFF;}
	.st430{clip-path:url(#SVGID_828_);fill:#FFFFFF;}
	.st431{clip-path:url(#SVGID_830_);fill:#FFFFFF;}
	.st432{clip-path:url(#SVGID_832_);fill:#FFFFFF;}
	.st433{clip-path:url(#SVGID_834_);fill:#FFFFFF;}
	.st434{clip-path:url(#SVGID_836_);fill:#FFFFFF;}
	.st435{clip-path:url(#SVGID_838_);fill:#FFFFFF;}
	.st436{clip-path:url(#SVGID_840_);fill:#FFFFFF;}
	.st437{clip-path:url(#SVGID_842_);fill:#FFFFFF;}
	.st438{clip-path:url(#SVGID_844_);fill:#FFFFFF;}
	.st439{clip-path:url(#SVGID_846_);fill:#FFFFFF;}
	.st440{fill:#DEA73A;}
	.st441{clip-path:url(#SVGID_848_);fill:#FFFFFF;}
	.st442{clip-path:url(#SVGID_850_);fill:#FFFFFF;}
	.st443{clip-path:url(#SVGID_852_);fill:#FFFFFF;}
	.st444{clip-path:url(#SVGID_854_);fill:#FFFFFF;}
	.st445{clip-path:url(#SVGID_856_);fill:#FFFFFF;}
	.st446{clip-path:url(#SVGID_858_);fill:#FFFFFF;}
	.st447{clip-path:url(#SVGID_860_);fill:#FFFFFF;}
	.st448{clip-path:url(#SVGID_862_);fill:#FFFFFF;}
	.st449{clip-path:url(#SVGID_864_);fill:#FFFFFF;}
	.st450{clip-path:url(#SVGID_866_);fill:#FFFFFF;}
	.st451{clip-path:url(#SVGID_868_);fill:#FFFFFF;}
	.st452{clip-path:url(#SVGID_870_);fill:#FFFFFF;}
	.st453{clip-path:url(#SVGID_872_);fill:#FFFFFF;}
	.st454{clip-path:url(#SVGID_874_);fill:#FFFFFF;}
	.st455{clip-path:url(#SVGID_876_);fill:#FFFFFF;}
	.st456{clip-path:url(#SVGID_878_);fill:#FFFFFF;}
	.st457{clip-path:url(#SVGID_880_);fill:#FFFFFF;}
	.st458{clip-path:url(#SVGID_882_);fill:#FFFFFF;}
	.st459{clip-path:url(#SVGID_884_);fill:#FFFFFF;}
	.st460{clip-path:url(#SVGID_886_);fill:#FFFFFF;}
	.st461{clip-path:url(#SVGID_888_);fill:#FFFFFF;}
	.st462{clip-path:url(#SVGID_890_);fill:#FFFFFF;}
	.st463{clip-path:url(#SVGID_892_);fill:#FFFFFF;}
	.st464{clip-path:url(#SVGID_894_);fill:#FFFFFF;}
	.st465{clip-path:url(#SVGID_896_);fill:#FFFFFF;}
	.st466{clip-path:url(#SVGID_898_);fill:none;stroke:#FFFFFF;stroke-width:0.474;stroke-linecap:round;stroke-miterlimit:10;}
	.st467{clip-path:url(#SVGID_900_);fill:#FFFFFF;}
	.st468{clip-path:url(#SVGID_902_);fill:#FFFFFF;}
	.st469{clip-path:url(#SVGID_904_);fill:#FFFFFF;}
	.st470{clip-path:url(#SVGID_906_);fill:#FFFFFF;}
	.st471{clip-path:url(#SVGID_908_);fill:#FFFFFF;}
	.st472{clip-path:url(#SVGID_910_);fill:#FFFFFF;}
	.st473{clip-path:url(#SVGID_912_);fill:#FFFFFF;}
	.st474{clip-path:url(#SVGID_914_);fill:#FFFFFF;}
	.st475{clip-path:url(#SVGID_916_);fill:#FFFFFF;}
	.st476{clip-path:url(#SVGID_918_);fill:#FFFFFF;}
	.st477{clip-path:url(#SVGID_920_);fill:#FFFFFF;}
	.st478{clip-path:url(#SVGID_922_);fill:#FFFFFF;}
	.st479{clip-path:url(#SVGID_924_);fill:#E3253C;}
	.st480{clip-path:url(#SVGID_926_);fill:#FFFFFF;}
	.st481{clip-path:url(#SVGID_928_);fill:#FFFFFF;}
	.st482{clip-path:url(#SVGID_930_);fill:#FFFFFF;}
	.st483{clip-path:url(#SVGID_932_);fill:#FFFFFF;}
	.st484{clip-path:url(#SVGID_934_);fill:#FFFFFF;}
	.st485{clip-path:url(#SVGID_936_);fill:#FFFFFF;}
	.st486{clip-path:url(#SVGID_938_);fill:#FFFFFF;}
	.st487{clip-path:url(#SVGID_940_);fill:#FFFFFF;}
	.st488{clip-path:url(#SVGID_942_);fill:#FFFFFF;}
	.st489{clip-path:url(#SVGID_944_);fill:#FFFFFF;}
	.st490{clip-path:url(#SVGID_946_);fill:#FFFFFF;}
	.st491{clip-path:url(#SVGID_948_);fill:none;stroke:#FFFFFF;stroke-width:0.474;stroke-linecap:round;stroke-miterlimit:10;}
	.st492{clip-path:url(#SVGID_950_);fill:#FFFFFF;}
	.st493{clip-path:url(#SVGID_952_);fill:#FFFFFF;}
	.st494{clip-path:url(#SVGID_954_);fill:#FFFFFF;}
	.st495{clip-path:url(#SVGID_956_);fill:#FFFFFF;}
	.st496{clip-path:url(#SVGID_958_);fill:#FFFFFF;}
	.st497{clip-path:url(#SVGID_960_);fill:#FFFFFF;}
	.st498{clip-path:url(#SVGID_962_);fill:#FFFFFF;}
	.st499{clip-path:url(#SVGID_964_);fill:#FFFFFF;}
	.st500{clip-path:url(#SVGID_966_);fill:#FFFFFF;}
	.st501{clip-path:url(#SVGID_968_);fill:#FFFFFF;}
	.st502{clip-path:url(#SVGID_970_);fill:#FFFFFF;}
	.st503{clip-path:url(#SVGID_972_);fill:#FFFFFF;}
	.st504{clip-path:url(#SVGID_974_);fill:#2AABE2;}
	.st505{clip-path:url(#SVGID_976_);fill:#2AABE2;}
	.st506{clip-path:url(#SVGID_978_);fill:#2AABE2;}
	.st507{clip-path:url(#SVGID_980_);fill:#2AABE2;}
	.st508{clip-path:url(#SVGID_982_);fill:#2AABE2;}
	.st509{clip-path:url(#SVGID_984_);fill:#2AABE2;}
	.st510{clip-path:url(#SVGID_986_);fill:#2AABE2;}
	.st511{clip-path:url(#SVGID_988_);fill:#2AABE2;}
	.st512{clip-path:url(#SVGID_990_);fill:#2AABE2;}
	.st513{clip-path:url(#SVGID_992_);fill:#2AABE2;}
	.st514{clip-path:url(#SVGID_994_);fill:#2AABE2;}
	.st515{clip-path:url(#SVGID_996_);fill:#2AABE2;}
	.st516{clip-path:url(#SVGID_998_);fill:#2AABE2;}
	.st517{clip-path:url(#SVGID_1000_);fill:#2AABE2;}
	.st518{clip-path:url(#SVGID_1002_);fill:#2AABE2;}
	.st519{clip-path:url(#SVGID_1004_);fill:#2AABE2;}
	.st520{clip-path:url(#SVGID_1006_);fill:#2AABE2;}
	.st521{clip-path:url(#SVGID_1008_);fill:#2AABE2;}
	.st522{clip-path:url(#SVGID_1010_);fill:#2AABE2;}
	.st523{clip-path:url(#SVGID_1012_);fill:#2AABE2;}
	.st524{clip-path:url(#SVGID_1014_);fill:#2AABE2;}
	.st525{clip-path:url(#SVGID_1016_);fill:#2AABE2;}
	.st526{clip-path:url(#SVGID_1018_);fill:#3E8EDE;}
	.st527{clip-path:url(#SVGID_1020_);fill:#3E8EDE;}
	.st528{clip-path:url(#SVGID_1022_);fill:#3E8EDE;}
	.st529{clip-path:url(#SVGID_1024_);fill:#3E8EDE;}
	.st530{clip-path:url(#SVGID_1026_);fill:#3E8EDE;}
	.st531{clip-path:url(#SVGID_1028_);fill:#3E8EDE;}
	.st532{clip-path:url(#SVGID_1030_);fill:#3E8EDE;}
	.st533{clip-path:url(#SVGID_1032_);fill:#3E8EDE;}
	.st534{clip-path:url(#SVGID_1034_);fill:#3E8EDE;}
	.st535{clip-path:url(#SVGID_1036_);fill:#3E8EDE;}
	.st536{clip-path:url(#SVGID_1038_);fill:#3E8EDE;}
	.st537{clip-path:url(#SVGID_1040_);fill:#3E8EDE;}
	.st538{clip-path:url(#SVGID_1042_);fill:#3E8EDE;}
	.st539{clip-path:url(#SVGID_1044_);fill:#3E8EDE;}
	.st540{clip-path:url(#SVGID_1046_);fill:#3E8EDE;}
	.st541{clip-path:url(#SVGID_1048_);fill:#3E8EDE;}
	.st542{clip-path:url(#SVGID_1050_);fill:#3E8EDE;}
	.st543{clip-path:url(#SVGID_1052_);fill:#3E8EDE;}
	.st544{clip-path:url(#SVGID_1054_);fill:#3E8EDE;}
	.st545{clip-path:url(#SVGID_1056_);fill:#5FBA47;}
	.st546{clip-path:url(#SVGID_1058_);fill:#E4B632;}
	.st547{clip-path:url(#SVGID_1060_);fill:#C4202F;}
	.st548{clip-path:url(#SVGID_1062_);fill:#4B9F46;}
	.st549{clip-path:url(#SVGID_1064_);fill:#418045;}
	.st550{clip-path:url(#SVGID_1066_);fill:#F8C219;}
	.st551{clip-path:url(#SVGID_1068_);fill:#EE422A;}
	.st552{clip-path:url(#SVGID_1070_);fill:#F99E29;}
	.st553{clip-path:url(#SVGID_1072_);fill:#1C95D3;}
	.st554{clip-path:url(#SVGID_1074_);fill:#A21D44;}
	.st555{clip-path:url(#SVGID_1076_);fill:#28BCE1;}
	.st556{clip-path:url(#SVGID_1078_);fill:#F16B2D;}
	.st557{clip-path:url(#SVGID_1080_);fill:#E6253D;}
	.st558{clip-path:url(#SVGID_1082_);fill:#DC1769;}
	.st559{clip-path:url(#SVGID_1084_);fill:#16496B;}
	.st560{clip-path:url(#SVGID_1086_);fill:#C5962E;}
	.st561{clip-path:url(#SVGID_1088_);fill:#086A9D;}
	.st562{clip-path:url(#SVGID_1090_);fill:#3E8EDE;}
	.st563{fill:#D28D0E;}
	.st564{fill:#D6A102;}
	.st565{fill:#931831;}
	.st566{fill:#E6331D;}
	.st567{fill:#C11728;}
	.st568{fill:#DD0979;}
	.st569{fill:#FBB800;}
	.st570{fill:#F59D08;}
	.st571{fill:#00A7D7;}
	.st572{fill:#EC6411;}
	.st573{fill:#289438;}
	.st574{fill:#E2061F;}
	.st575{fill:#004C84;}
	.st576{fill:#1F3262;}
	.st577{fill:#4A7634;}
	.st578{fill:#0076B8;}
	.st579{fill:#3EA635;}
	.st580{fill:#F7F6F7;}
	.st581{fill:none;stroke:#FFFFFF;stroke-width:1.3067;stroke-linecap:round;stroke-miterlimit:10;}
	.st582{fill:#009FE3;}
	.st583{fill:#5692CE;}
	.st584{fill:#62B12F;}
</style><rect
     style="fill:#dd0979"
     id="rect15"
     height="58.799999"
     width="58.799999"
     class="st568"
     y="0"
     x="0" /><g
     transform="translate(-149.39999,-113.3)"
     id="g221"><path
       style="fill:#ffffff"
       id="path223"
       d="m 184.8,152.1 -11.8,0 c -0.1,0 -0.1,0.1 -0.1,0.1 l 0,2.7 c 0,0.1 0.1,0.1 0.1,0.1 l 11.8,0 c 0.1,0 0.1,-0.1 0.1,-0.1 l 0,-2.7 c 0.1,0 0,-0.1 -0.1,-0.1"
       class="st75" /><path
       style="fill:#ffffff"
       id="path225"
       d="m 191.8,148.3 c -0.5,-1.9 -1.4,-3.7 -2.5,-5.1 l 0,0 c 0.4,0.6 0.7,1.2 1,1.8 1.5,2.8 2,6.2 1,9.5 -1.9,6.6 -8.9,10.4 -15.5,8.5 -2.8,-0.8 -5.1,-2.5 -6.6,-4.7 -1,-1.3 -1.7,-2.7 -2.1,-4.4 -1.6,-6.3 2.3,-12.7 8.6,-14.3 3.9,-1 7.8,0.1 10.6,2.6 0,0 0,0 0.1,0.1 0.1,0.1 0.2,0.1 0.3,0.1 0.1,0 0.2,0 0.3,-0.1 l 0,0 1.5,-1.5 0.1,-0.1 c 0.1,-0.1 0.1,-0.2 0.1,-0.3 0,-0.1 0,-0.2 -0.1,-0.3 0,0 0,0 0,0 -3.5,-3.1 -8.3,-4.5 -13.1,-3.3 -7.8,1.9 -12.5,9.8 -10.6,17.5 0.8,3.3 2.7,6 5.1,7.9 2.4,2 5.5,3.1 8.8,3.1 1,0 2.1,-0.1 3.2,-0.4 7.1,-1.9 11.6,-9.3 9.8,-16.6"
       class="st75" /><path
       style="fill:#ffffff"
       id="path227"
       d="m 185,147.3 c 0,-0.1 -0.1,-0.1 -0.1,-0.1 l -9.7,0 -2,0 c -0.1,0 -0.1,0.1 -0.1,0.1 l 0,1 0,1.6 c 0,0.1 0.1,0.1 0.1,0.1 l 11.8,0 c 0.1,0 0.1,-0.1 0.1,-0.1 l 0,-2.6 z"
       class="st75" /></g><g
     transform="translate(-149.39999,-113.3)"
     id="g373"><polygon
       style="fill:#ffffff"
       id="polygon375"
       points="157,118.2 155.4,118.2 153.6,120.4 153.6,122.5 153.6,122.5 155,121 155,121 155,130.1 157,130.1 "
       class="st75" /><path
       style="fill:#ffffff"
       id="path377"
       d="m 164.3,127 0,-5.7 c 0,-1.9 -0.9,-3.2 -3,-3.2 -2,0 -2.9,1.3 -2.9,3.2 l 0,5.7 c 0,1.8 0.9,3.2 2.9,3.2 2.1,0 3,-1.3 3,-3.2 m -3.9,0.3 0,-6.3 c 0,-0.7 0.3,-1.2 0.9,-1.2 0.7,0 1,0.5 1,1.2 l 0,6.4 c 0,0.7 -0.3,1.2 -1,1.2 -0.6,0 -0.9,-0.5 -0.9,-1.3"
       class="st75" /></g><g
     transform="translate(-149.39999,-113.3)"
     id="g801"><path
       style="fill:#ffffff"
       id="path803"
       d="m 169.2,120.9 0,2.3 -0.8,0 0,-5 1.2,0 c 0.8,0 1.1,0.4 1.1,1.1 l 0,0.6 c 0,0.5 -0.2,0.8 -0.7,1 l 0.8,2.3 -0.8,0 -0.8,-2.3 z m 0,-2 0,1.5 0.3,0 c 0.3,0 0.4,-0.1 0.4,-0.4 l 0,-0.7 c 0,-0.3 -0.1,-0.4 -0.4,-0.4 l -0.3,0 z"
       class="st75" /><path
       style="fill:#ffffff"
       id="path805"
       d="m 171.2,118.2 2,0 0,0.7 -1.2,0 0,1.4 0.8,0 0,0.7 -0.8,0 0,1.5 1.2,0 0,0.7 -2,0 0,-5 z"
       class="st75" /><path
       style="fill:#ffffff"
       id="path807"
       d="m 176.1,119.6 0,2.3 c 0,0.8 -0.3,1.3 -1.2,1.3 l -1.3,0 0,-5 1.3,0 c 0.9,0 1.2,0.6 1.2,1.4 z m -1.3,2.9 c 0.3,0 0.5,-0.2 0.5,-0.5 l 0,-2.6 c 0,-0.3 -0.1,-0.5 -0.5,-0.5 l -0.4,0 0,3.6 0.4,0 z"
       class="st75" /><path
       style="fill:#ffffff"
       id="path809"
       d="m 179,118.2 0,3.8 c 0,0.8 -0.3,1.3 -1.2,1.3 -0.9,0 -1.2,-0.5 -1.2,-1.3 l 0,-3.8 0.8,0 0,3.8 c 0,0.3 0.1,0.5 0.4,0.5 0.3,0 0.4,-0.2 0.4,-0.5 l 0,-3.8 0.8,0 z"
       class="st75" /><path
       style="fill:#ffffff"
       id="path811"
       d="m 179.4,121.9 0,-2.4 c 0,-0.8 0.4,-1.3 1.2,-1.3 0.9,0 1.2,0.5 1.2,1.2 l 0,0.6 -0.8,0 0,-0.7 c 0,-0.3 -0.1,-0.5 -0.4,-0.5 -0.3,0 -0.4,0.2 -0.4,0.5 l 0,2.7 c 0,0.3 0.1,0.5 0.4,0.5 0.3,0 0.4,-0.2 0.4,-0.5 l 0,-0.9 0.8,0 0,0.9 c 0,0.7 -0.3,1.2 -1.2,1.2 -0.8,0.1 -1.2,-0.5 -1.2,-1.3 z"
       class="st75" /><path
       style="fill:#ffffff"
       id="path813"
       d="m 182.3,118.2 2,0 0,0.7 -1.2,0 0,1.4 0.8,0 0,0.7 -0.8,0 0,1.5 1.2,0 0,0.7 -2,0 0,-5 z"
       class="st75" /><path
       style="fill:#ffffff"
       id="path815"
       d="m 187.2,119.6 0,2.3 c 0,0.8 -0.3,1.3 -1.2,1.3 l -1.3,0 0,-5 1.3,0 c 0.9,0 1.2,0.6 1.2,1.4 z m -1.3,2.9 c 0.3,0 0.5,-0.2 0.5,-0.5 l 0,-2.6 c 0,-0.3 -0.1,-0.5 -0.5,-0.5 l -0.4,0 0,3.6 0.4,0 z"
       class="st75" /><path
       style="fill:#ffffff"
       id="path817"
       d="m 168.3,125.2 0.8,0 0,5 -0.8,0 0,-5 z"
       class="st75" /><path
       style="fill:#ffffff"
       id="path819"
       d="m 170.4,127 0,3.1 -0.7,0 0,-5 0.8,0 0.9,2.8 0,-2.8 0.7,0 0,5 -0.7,0 -1,-3.1 z"
       class="st75" /><path
       style="fill:#ffffff"
       id="path821"
       d="m 172.5,125.2 2,0 0,0.7 -1.2,0 0,1.4 0.8,0 0,0.7 -0.8,0 0,1.5 1.2,0 0,0.7 -2,0 0,-5 z"
       class="st75" /><path
       style="fill:#ffffff"
       id="path823"
       d="m 175.9,130.5 0,-0.3 c -0.7,-0.1 -1,-0.6 -1,-1.3 l 0,-2.4 c 0,-0.8 0.4,-1.3 1.3,-1.3 0.9,0 1.3,0.6 1.3,1.3 l 0,2.4 c 0,0.5 -0.2,1 -0.6,1.2 l 0.6,0.1 0,0.6 -1.6,-0.3 z m 0.7,-1.5 0,-2.7 c 0,-0.3 -0.1,-0.5 -0.4,-0.5 -0.3,0 -0.4,0.2 -0.4,0.5 l 0,2.7 c 0,0.3 0.1,0.5 0.4,0.5 0.3,0.1 0.4,-0.2 0.4,-0.5 z"
       class="st75" /><path
       style="fill:#ffffff"
       id="path825"
       d="m 180.3,125.2 0,3.8 c 0,0.8 -0.3,1.3 -1.2,1.3 -0.9,0 -1.2,-0.5 -1.2,-1.3 l 0,-3.8 0.8,0 0,3.8 c 0,0.3 0.1,0.5 0.4,0.5 0.3,0 0.4,-0.2 0.4,-0.5 l 0,-3.8 0.8,0 z"
       class="st75" /><path
       style="fill:#ffffff"
       id="path827"
       d="m 180.6,130.1 0.9,-5 1,0 0.9,5 -0.9,0 -0.2,-0.9 -0.9,0 -0.1,0.9 -0.7,0 z m 1,-1.5 0.7,0 -0.3,-2 0,0 -0.4,2 z"
       class="st75" /><path
       style="fill:#ffffff"
       id="path829"
       d="m 183.7,125.2 0.8,0 0,4.3 1,0 0,0.7 -1.8,0 0,-5 z"
       class="st75" /><path
       style="fill:#ffffff"
       id="path831"
       d="m 185.9,125.2 0.8,0 0,5 -0.8,0 0,-5 z"
       class="st75" /><path
       style="fill:#ffffff"
       id="path833"
       d="m 187.1,125.2 2.2,0 0,0.7 -0.7,0 0,4.3 -0.8,0 0,-4.3 -0.7,0 0,-0.7 z"
       class="st75" /><path
       style="fill:#ffffff"
       id="path835"
       d="m 189.8,125.2 0.8,0 0,5 -0.8,0 0,-5 z"
       class="st75" /><path
       style="fill:#ffffff"
       id="path837"
       d="m 191.1,125.2 2,0 0,0.7 -1.2,0 0,1.4 0.8,0 0,0.7 -0.8,0 0,1.5 1.2,0 0,0.7 -2,0 0,-5 z"
       class="st75" /><path
       style="fill:#ffffff"
       id="path839"
       d="m 193.4,129.1 0,-0.7 0.8,0 0,0.7 c 0,0.3 0.1,0.4 0.4,0.4 0.3,0 0.4,-0.2 0.4,-0.4 l 0,-0.2 c 0,-0.3 -0.1,-0.5 -0.4,-0.7 l -0.5,-0.5 c -0.5,-0.5 -0.7,-0.8 -0.7,-1.3 l 0,-0.2 c 0,-0.6 0.4,-1.1 1.2,-1.1 0.8,0 1.2,0.4 1.2,1.1 l 0,0.4 -0.8,0 0,-0.4 c 0,-0.3 -0.1,-0.4 -0.4,-0.4 -0.2,0 -0.4,0.1 -0.4,0.4 l 0,0.1 c 0,0.3 0.2,0.4 0.4,0.7 l 0.5,0.5 c 0.5,0.5 0.7,0.7 0.7,1.3 l 0,0.2 c 0,0.7 -0.4,1.2 -1.2,1.2 -0.8,0 -1.2,-0.5 -1.2,-1.1 z"
       class="st75" /></g></svg>