<?xml version="1.0" encoding="utf-8"?>
<!-- Generator: Adobe Illustrator 21.0.0, SVG Export Plug-In . SVG Version: 6.00 Build 0)  -->
<svg version="1.1" id="Layer_1" xmlns="http://www.w3.org/2000/svg" xmlns:xlink="http://www.w3.org/1999/xlink" x="0px" y="0px"
	 viewBox="0 0 388.7 41.7" style="enable-background:new 0 0 388.7 41.7;" xml:space="preserve">
<style type="text/css">
	.st0{fill-rule:evenodd;clip-rule:evenodd;fill:#FFD600;}
	.st1{fill-rule:evenodd;clip-rule:evenodd;fill:#577624;}
	.st2{fill-rule:evenodd;clip-rule:evenodd;fill:#4B2D00;}
	.st3{fill:#577624;}
	.st4{fill:#4B2D00;}
	.st5{fill:#C24D2E;}
	.st6{fill:none;stroke:#C24D2E;stroke-width:0.35;}
	.st7{fill:#004179;}
	.st8{fill:none;stroke:#004179;stroke-width:0.35;}
</style>
<g>
	<path class="st0" d="M118.2,7c3.4-2.9,7.8-3.8,11.8-2.9c-2.8,0-5.6,0.9-7.9,2.8c-5.1,4.3-5.8,11.9-1.5,17c4.3,5.1,11.9,5.8,17,1.5
		c0.9-0.8,1.7-1.7,2.4-2.7c-0.8,2.1-2.2,4-4,5.6c-5.9,4.9-14.6,4.1-19.5-1.7C111.5,20.6,112.3,11.9,118.2,7"/>
	<path class="st1" d="M134.7,7.5c2.8,1.6,4.5,4.3,4.9,7.2c-0.7-1.9-2-3.5-3.8-4.6c-4.1-2.4-9.4-0.9-11.7,3.2
		c-2.4,4.1-0.9,9.4,3.2,11.7c0.8,0.4,1.6,0.7,2.4,0.9c-1.6,0-3.2-0.5-4.7-1.3c-4.7-2.7-6.4-8.7-3.7-13.5C124,6.5,130,4.8,134.7,7.5"
		/>
	<path class="st2" d="M136.9,21c-1.1,1.8-2.8,2.8-4.7,3c1.2-0.4,2.3-1.2,3-2.4c1.6-2.6,0.8-6.1-1.9-7.7c-2.6-1.6-6.1-0.8-7.7,1.9
		c-0.3,0.5-0.5,1-0.6,1.5c0-1,0.3-2.1,0.9-3c1.8-3,5.8-4,8.8-2.2C137.8,14,138.7,17.9,136.9,21"/>
</g>
<g>
	<path class="st3" d="M117.4,41.3c-0.5,0.1-1,0.2-1.5,0.2c-2.1,0-3.6-1.1-3.6-3.3c0-2.3,1.4-3.5,3.6-3.5c0.4,0,1,0.1,1.5,0.3
		l-0.1,1.1c-0.5-0.3-1-0.3-1.4-0.3c-1.4,0-2.2,1-2.2,2.4c0,1.3,0.8,2.4,2.2,2.4c0.5,0,1.1-0.1,1.4-0.3L117.4,41.3z"/>
	<path class="st3" d="M123.3,41.3c-0.5,0.1-1,0.2-1.5,0.2c-2.1,0-3.6-1.1-3.6-3.3c0-2.3,1.4-3.5,3.6-3.5c0.4,0,1,0.1,1.5,0.3
		l-0.1,1.1c-0.5-0.3-1-0.3-1.4-0.3c-1.4,0-2.2,1-2.2,2.4c0,1.3,0.8,2.4,2.2,2.4c0.5,0,1.1-0.1,1.4-0.3L123.3,41.3z"/>
	<path class="st3" d="M126.4,34.8h1.5l2.6,6.6H129l-0.6-1.5h-2.7l-0.6,1.5h-1.4L126.4,34.8z M127.1,36.1L127.1,36.1l-1,2.7h1.9
		L127.1,36.1z"/>
	<path class="st3" d="M131.7,34.8h3.7v1h-2.3v1.6h2.2v1h-2.2v2.9h-1.3V34.8z"/>
	<path class="st3" d="M140.4,36c-0.4-0.2-0.9-0.3-1.3-0.3c-0.5,0-1,0.2-1,0.9c0,1.1,2.9,0.7,2.9,2.9c0,1.4-1.1,2-2.5,2
		c-0.7,0-1-0.1-1.7-0.3l0.1-1.2c0.5,0.2,1,0.4,1.5,0.4c0.5,0,1.2-0.3,1.2-0.9c0-1.3-2.9-0.7-2.9-2.9c0-1.5,1.1-2,2.3-2
		c0.6,0,1.1,0.1,1.6,0.2L140.4,36z"/>
</g>
<path class="st3" d="M17.9,14.6c-0.4-0.5-1.3-1.3-1.7-1.7c-0.7-0.7-0.9-0.9-0.9-2.2V5.5c0-0.8-1.2-0.6-1.2,0c0,0-0.1,9.1,0,9.9
	c0.1,0.8-0.3,1.4,0.9,2.2c1.4,0.9,3.4,1.4,3.4,1.4s0-2,0.1-2.8C18.4,15.5,18.2,15.1,17.9,14.6 M17.3,17.5
	C17.3,17.5,17.3,17.5,17.3,17.5c-1.9-0.8-2.3-0.6-2-3.6C17.5,15.3,17.4,15.8,17.3,17.5 M19.6,16.3c0,0.8,0.1,2.8,0.1,2.8
	s2-0.6,3.4-1.4c1.2-0.8,0.9-1.4,0.9-2.2c0.1-0.8,0-9.9,0-9.9c0-0.7-1.2-0.8-1.2,0v5.3c0,1.2-0.2,1.4-0.9,2.2
	c-0.5,0.5-1.4,1.3-1.7,1.7C19.7,15.1,19.5,15.5,19.6,16.3 M22.7,13.9c0.2,2.9-0.1,2.8-2,3.6c0,0,0,0,0,0
	C20.6,15.8,20.4,15.3,22.7,13.9 M20.5,9.3c-0.7-1.2,0,0-0.9-1.6V1.9c0-0.9-1.1-0.8-1.1,0l0,5.8c0,0-1,1.6-1.3,2.3
	c-0.3,0.7-0.6,1.4,0.3,2.5c0.1,0.1,0.2,0.3,1.5,1.6c0,0,0,0,0,0s0,0,1.2-1.2C21.7,11.4,21.2,10.5,20.5,9.3 M19,12.7
	c-2.2-1.2-0.6-2.8,0-3.9l0.1,0.1C20.7,11.3,20.3,11.7,19,12.7 M18.3,21.7c-0.1-1.1-0.5-2.1-2.8-3c-2-0.7-4.7-0.9-6.7-1.2
	c-2-0.3-5.4-0.9-7-2.5c1.3,4.2,4.4,5.9,7.6,6.6c3.6,0.8,6.8,1.1,8.8,2.5l0.2,0.1C18.2,23.2,18.4,22.9,18.3,21.7 M17.3,22.3
	c-1.7-0.7-2.9-0.8-6-1.5c-3.1-0.6-5-1.2-6.6-3c2.7,1,7,1.4,9.4,1.9C16.4,20.3,17.1,20.9,17.3,22.3L17.3,22.3z M19.6,24.2l0.2-0.1
	c2-1.4,5.2-1.7,8.8-2.5c3.2-0.7,6.3-2.4,7.6-6.6c-1.7,1.6-5,2.1-7,2.5c-2,0.3-4.8,0.5-6.7,1.2c-2.3,0.9-2.7,1.9-2.8,3
	C19.6,22.9,19.7,23.2,19.6,24.2 M20.6,22.3c0.3-1.4,0.9-2,3.3-2.5c2.4-0.5,6.7-0.9,9.4-1.9c-1.7,1.8-3.5,2.3-6.6,3
	C23.5,21.4,22.3,21.6,20.6,22.3L20.6,22.3z M18.2,27c0-2.2-1.3-2.9-3.2-3.4c-1.9-0.5-4.6-0.9-6.8-1.5c-2.3-0.7-3.5-1.1-5.1-2.7
	c0.3,3.2,2.6,5.5,5.4,6.5c2.8,1,2.6,0.8,4.2,1.2c1.5,0.4,1.8,0.9,1.8,1.9v1.9h3.7C18.3,26.5,18.2,29.2,18.2,27 M17.1,29.6h-1.5
	c0,0,0-0.6-0.1-1.7c-0.1-1.4-1.8-1.6-4.5-2.3c-1.9-0.5-4.4-1.2-5.5-3.1c0.7,0.3,2,0.9,4.2,1.3c2.1,0.4,3.3,0.7,5.2,1.1
	c1.8,0.4,2.2,1.5,2.2,2.7V29.6z M19.7,30.8h3.7v-1.9c0-0.9,0.3-1.5,1.8-1.9c1.5-0.4,1.4-0.2,4.2-1.2c2.8-1,5.1-3.3,5.4-6.5
	c-1.5,1.7-2.8,2.1-5.1,2.7c-2.3,0.7-4.9,1-6.8,1.5c-1.9,0.5-3.2,1.1-3.2,3.4C19.7,29.3,19.6,26.5,19.7,30.8 M20.8,27.6
	c0-1.2,0.4-2.4,2.2-2.7c1.9-0.4,3.1-0.6,5.2-1.1c2.2-0.5,3.5-1,4.2-1.3c-1.1,1.9-3.6,2.6-5.5,3.1c-2.8,0.8-4.4,0.9-4.5,2.3
	c-0.1,1.1-0.1,1.7-0.1,1.7h-1.5V27.6z M10.6,41.3c-0.5,0.1-1,0.2-1.5,0.2c-2.1,0-3.6-1.1-3.6-3.3c0-2.3,1.4-3.5,3.6-3.5
	c0.4,0,1,0.1,1.5,0.3l-0.1,1.1c-0.5-0.3-1-0.3-1.4-0.3c-1.4,0-2.2,1-2.2,2.4c0,1.3,0.8,2.3,2.2,2.3c0.5,0,1.1-0.1,1.4-0.3L10.6,41.3
	z M16.7,36.1c-0.5-0.2-1.2-0.3-1.7-0.3c-1.5,0-2.4,1-2.4,2.4c0,1.3,0.8,2.3,2.2,2.3c0.4,0,0.6,0,0.9-0.1v-1.7h-1.4v-1H17v3.5
	c-0.7,0.2-1.4,0.3-2.1,0.3c-2.1,0-3.6-1.1-3.6-3.3c0-2.3,1.4-3.5,3.6-3.5c0.8,0,1.4,0.1,1.9,0.3L16.7,36.1z M18.3,34.8h1.3v6.6h-1.3
	V34.8z M24.6,38.8h-1.9l1-2.7h0L24.6,38.8z M20.4,41.4h1.4l0.6-1.5H25l0.6,1.5H27l-2.6-6.6h-1.5L20.4,41.4z M29,35.8h0.4
	c0.7,0,1.4,0.1,1.4,0.9c0,0.8-0.7,0.9-1.4,0.9H29V35.8z M27.7,41.4H29v-2.7h0.4c0.6,0,0.7,0.2,0.9,0.7l0.8,2.1h1.5l-1.1-2.6
	c-0.1-0.3-0.3-0.6-0.7-0.7v0c0.8-0.1,1.4-0.8,1.4-1.5c0-1.8-1.7-1.8-3.1-1.8h-1.4V41.4z"/>
<g>
	<path class="st3" d="M46.4,12.1h0.8c0.6,0,1.2,0.1,1.2,0.9c0,0.4-0.3,0.7-0.7,0.7v0c0.1,0.1,0.2,0.1,0.3,0.3l0.6,1.3h-0.5l-0.5-1.1
		c-0.1-0.3-0.3-0.3-0.5-0.3h-0.3v1.4h-0.5V12.1z M46.8,13.5h0.4c0.4,0,0.7-0.2,0.7-0.5c0-0.3-0.2-0.5-0.6-0.5h-0.4V13.5z"/>
	<path class="st3" d="M49.3,12.1h1.8v0.4h-1.3v0.9H51v0.4h-1.2v1h1.3v0.4h-1.8V12.1z"/>
	<path class="st3" d="M53.4,12.6c-0.2-0.1-0.4-0.1-0.6-0.1c-0.3,0-0.6,0.1-0.6,0.4c0,0.6,1.4,0.5,1.4,1.5c0,0.7-0.5,0.9-1.2,0.9
		c-0.2,0-0.4-0.1-0.6-0.1l0-0.4c0.2,0.1,0.4,0.2,0.7,0.2c0.3,0,0.6-0.1,0.6-0.5c0-0.7-1.4-0.5-1.4-1.5c0-0.6,0.4-0.9,1-0.9
		c0.2,0,0.5,0,0.7,0.1L53.4,12.6z"/>
	<path class="st3" d="M54.3,12.1h1.8v0.4h-1.3v0.9H56v0.4h-1.2v1h1.3v0.4h-1.8V12.1z"/>
	<path class="st3" d="M58,12.1h0.5l1.3,3.2h-0.5L59,14.5h-1.6l-0.3,0.8h-0.5L58,12.1z M58.2,12.6l-0.6,1.6h1.3L58.2,12.6z"/>
	<path class="st3" d="M60.3,12.1h0.8c0.6,0,1.2,0.1,1.2,0.9c0,0.4-0.3,0.7-0.7,0.7v0c0.1,0.1,0.2,0.1,0.3,0.3l0.6,1.3h-0.5l-0.5-1.1
		c-0.1-0.3-0.3-0.3-0.5-0.3h-0.3v1.4h-0.5V12.1z M60.8,13.5h0.4c0.4,0,0.7-0.2,0.7-0.5c0-0.3-0.2-0.5-0.6-0.5h-0.4V13.5z"/>
	<path class="st3" d="M65.4,12.7c-0.2-0.1-0.4-0.2-0.7-0.2c-0.7,0-1.2,0.5-1.2,1.2c0,0.7,0.5,1.2,1.2,1.2c0.2,0,0.5-0.1,0.7-0.2
		l0,0.4c-0.2,0.1-0.5,0.1-0.7,0.1c-1,0-1.7-0.6-1.7-1.7c0-1,0.7-1.6,1.7-1.6c0.2,0,0.5,0,0.7,0.1L65.4,12.7z"/>
	<path class="st3" d="M66.1,12.1h0.5v1.3h1.5v-1.3h0.5v3.2h-0.5v-1.4h-1.5v1.4h-0.5V12.1z"/>
	<path class="st3" d="M70.9,12.1h0.8c0.6,0,1.2,0.2,1.2,0.9c0,0.7-0.5,1-1.1,1h-0.4v1.3h-0.5V12.1z M71.3,13.6h0.4
		c0.3,0,0.6-0.1,0.6-0.6c0-0.4-0.4-0.5-0.7-0.5h-0.4V13.6z"/>
	<path class="st3" d="M73.5,12.1h0.8c0.6,0,1.2,0.1,1.2,0.9c0,0.4-0.3,0.7-0.7,0.7v0c0.1,0.1,0.2,0.1,0.3,0.3l0.6,1.3h-0.5l-0.5-1.1
		c-0.1-0.3-0.3-0.3-0.5-0.3h-0.3v1.4h-0.5V12.1z M73.9,13.5h0.4c0.4,0,0.7-0.2,0.7-0.5c0-0.3-0.2-0.5-0.6-0.5h-0.4V13.5z"/>
	<path class="st3" d="M77.8,12.1c1,0,1.5,0.7,1.5,1.6c0,1-0.6,1.6-1.5,1.6c-1,0-1.5-0.7-1.5-1.6C76.2,12.8,76.8,12.1,77.8,12.1z
		 M77.8,15c0.7,0,1-0.6,1-1.2c0-0.6-0.3-1.2-1-1.2c-0.7,0-1,0.6-1,1.2C76.7,14.4,77,15,77.8,15z"/>
	<path class="st3" d="M82.5,12.7c-0.2-0.1-0.5-0.2-0.9-0.2c-0.7,0-1.2,0.5-1.2,1.2c0,0.7,0.5,1.2,1.2,1.2c0.3,0,0.4,0,0.5-0.1v-1
		h-0.7v-0.4h1.1v1.6c-0.2,0.1-0.5,0.1-1,0.1c-1,0-1.7-0.6-1.7-1.7c0-1,0.7-1.6,1.7-1.6c0.5,0,0.7,0.1,0.9,0.2L82.5,12.7z"/>
	<path class="st3" d="M83.4,12.1h0.8c0.6,0,1.2,0.1,1.2,0.9c0,0.4-0.3,0.7-0.7,0.7v0c0.1,0.1,0.2,0.1,0.3,0.3l0.6,1.3h-0.5l-0.5-1.1
		c-0.1-0.3-0.3-0.3-0.5-0.3h-0.3v1.4h-0.5V12.1z M83.9,13.5h0.4c0.4,0,0.7-0.2,0.7-0.5c0-0.3-0.2-0.5-0.6-0.5h-0.4V13.5z"/>
	<path class="st3" d="M87.3,12.1h0.5l1.3,3.2h-0.5l-0.3-0.8h-1.6l-0.3,0.8H86L87.3,12.1z M87.6,12.6l-0.6,1.6h1.3L87.6,12.6z"/>
	<path class="st3" d="M89.7,12.1h0.7l1,2.6l1-2.6h0.7v3.2h-0.5v-2.7h0l-1,2.7h-0.4l-1-2.7h0v2.7h-0.5V12.1z"/>
	<path class="st3" d="M96.8,12.1c1,0,1.5,0.7,1.5,1.6c0,1-0.6,1.6-1.5,1.6c-1,0-1.5-0.7-1.5-1.6C95.3,12.8,95.9,12.1,96.8,12.1z
		 M96.8,15c0.7,0,1-0.6,1-1.2c0-0.6-0.3-1.2-1-1.2c-0.7,0-1,0.6-1,1.2C95.8,14.4,96.1,15,96.8,15z"/>
	<path class="st3" d="M99.1,12.1h0.6l1.4,2.5h0v-2.5h0.5v3.2H101l-1.4-2.6h0v2.6h-0.5V12.1z"/>
	<path class="st4" d="M50.4,24.1c-0.4,0.1-0.8,0.2-1.2,0.2c-1.7,0-2.8-0.8-2.8-2.6c0-1.8,1.1-2.7,2.8-2.7c0.3,0,0.8,0.1,1.2,0.2
		L50.3,20c-0.4-0.2-0.7-0.3-1.1-0.3c-1.1,0-1.7,0.8-1.7,1.9c0,1,0.6,1.8,1.7,1.8c0.4,0,0.9-0.1,1.1-0.2L50.4,24.1z"/>
	<path class="st4" d="M51.1,18.6h1v5.5h-1V18.6z"/>
	<path class="st4" d="M53.3,18.7h1v0.9h-1V18.7z M53.3,20.4h1v3.8h-1V20.4z"/>
	<path class="st4" d="M55.3,20.4h0.9v0.5h0c0.3-0.5,0.8-0.6,1.1-0.6c0.5,0,0.9,0.2,1.1,0.7c0.2-0.5,0.7-0.7,1.2-0.7
		c0.9,0,1.2,0.6,1.2,1.5v2.4h-1v-2.3c0-0.4,0-0.9-0.6-0.9c-0.7,0-0.7,0.8-0.7,1.3v1.8h-1v-2.3c0-0.4,0-0.9-0.6-0.9
		c-0.7,0-0.7,0.8-0.7,1.3v1.8h-1V20.4z"/>
	<path class="st4" d="M62.2,20.6c0.4-0.2,0.9-0.3,1.3-0.3c1.2,0,1.6,0.5,1.6,1.6v0.5c0,0.4,0,0.7,0,1c0,0.3,0,0.6,0,0.8h-0.9
		c0-0.2,0-0.4,0-0.6h0c-0.2,0.4-0.7,0.7-1.2,0.7c-0.7,0-1.3-0.4-1.3-1.1c0-0.6,0.3-0.9,0.6-1.1c0.4-0.2,0.9-0.2,1.3-0.2h0.5
		c0-0.6-0.3-0.8-0.9-0.8c-0.4,0-0.8,0.2-1.2,0.4L62.2,20.6z M63.3,23.5c0.3,0,0.5-0.1,0.7-0.3c0.2-0.2,0.2-0.5,0.2-0.8h-0.4
		c-0.4,0-1.1,0.1-1.1,0.7C62.7,23.4,63,23.5,63.3,23.5z"/>
	<path class="st4" d="M66.5,21.1h-0.7v-0.7h0.7v-0.8l1-0.3v1.1h0.9v0.7h-0.9v1.8c0,0.3,0.1,0.6,0.5,0.6c0.2,0,0.3,0,0.4-0.1l0,0.8
		c-0.2,0.1-0.4,0.1-0.7,0.1c-0.8,0-1.2-0.5-1.2-1.2V21.1z"/>
	<path class="st4" d="M72.1,23.9c-0.4,0.2-0.8,0.3-1.3,0.3c-1.3,0-2-0.7-2-2c0-1.1,0.6-2,1.8-2c1.4,0,1.8,1,1.8,2.3h-2.6
		c0,0.6,0.5,1,1.1,1c0.5,0,0.9-0.2,1.3-0.4V23.9z M71.5,21.9c0-0.5-0.3-0.9-0.8-0.9s-0.8,0.4-0.9,0.9H71.5z"/>
	<path class="st4" d="M79.2,24.1c-0.4,0.1-0.8,0.2-1.2,0.2c-1.7,0-2.8-0.8-2.8-2.6c0-1.8,1.1-2.7,2.8-2.7c0.3,0,0.8,0.1,1.2,0.2
		L79.1,20c-0.4-0.2-0.7-0.3-1.1-0.3c-1.1,0-1.7,0.8-1.7,1.9c0,1,0.6,1.8,1.7,1.8c0.4,0,0.9-0.1,1.1-0.2L79.2,24.1z"/>
	<path class="st4" d="M80,18.6h1v2.2h0c0.3-0.4,0.7-0.6,1.2-0.6c0.9,0,1.3,0.6,1.3,1.5v2.4h-1v-2c0-0.5,0-1.1-0.6-1.1
		c-0.7,0-0.9,0.8-0.9,1.3v1.9h-1V18.6z"/>
	<path class="st4" d="M84.7,20.6c0.4-0.2,0.9-0.3,1.3-0.3c1.2,0,1.6,0.5,1.6,1.6v0.5c0,0.4,0,0.7,0,1c0,0.3,0,0.6,0,0.8h-0.9
		c0-0.2,0-0.4,0-0.6h0c-0.2,0.4-0.7,0.7-1.2,0.7c-0.7,0-1.3-0.4-1.3-1.1c0-0.6,0.3-0.9,0.6-1.1c0.4-0.2,0.9-0.2,1.3-0.2h0.5
		c0-0.6-0.3-0.8-0.9-0.8c-0.4,0-0.8,0.2-1.2,0.4L84.7,20.6z M85.9,23.5c0.3,0,0.5-0.1,0.7-0.3c0.2-0.2,0.2-0.5,0.2-0.8h-0.4
		c-0.4,0-1.1,0.1-1.1,0.7C85.2,23.4,85.5,23.5,85.9,23.5z"/>
	<path class="st4" d="M88.7,20.4h0.9v0.5h0c0.3-0.4,0.7-0.6,1.2-0.6c0.9,0,1.3,0.6,1.3,1.5v2.4h-1v-2c0-0.5,0-1.1-0.6-1.1
		c-0.7,0-0.9,0.8-0.9,1.3v1.9h-1V20.4z"/>
	<path class="st4" d="M96.8,20.4v3.4c0,1-0.4,2-2,2c-0.4,0-0.8-0.1-1.3-0.3l0.1-0.8c0.3,0.2,0.8,0.3,1.1,0.3c1.1,0,1.1-0.8,1.1-1.5
		h0c-0.2,0.3-0.6,0.6-1.2,0.6c-1.1,0-1.5-0.9-1.5-1.9c0-0.9,0.5-2,1.6-2c0.5,0,0.9,0.2,1.2,0.6h0v-0.5H96.8z M95.8,22.2
		c0-0.6-0.3-1.2-0.8-1.2c-0.7,0-0.9,0.6-0.9,1.2c0,0.5,0.3,1.1,0.8,1.1C95.5,23.4,95.8,22.9,95.8,22.2z"/>
	<path class="st4" d="M100.9,23.9c-0.4,0.2-0.8,0.3-1.3,0.3c-1.3,0-2-0.7-2-2c0-1.1,0.6-2,1.8-2c1.4,0,1.8,1,1.8,2.3h-2.6
		c0,0.6,0.5,1,1.1,1c0.5,0,0.9-0.2,1.3-0.4V23.9z M100.3,21.9c0-0.5-0.3-0.9-0.8-0.9c-0.6,0-0.8,0.4-0.9,0.9H100.3z"/>
	<path class="st4" d="M102.2,23.1h1.1l-0.7,1.8h-0.9L102.2,23.1z"/>
	<path class="st4" d="M48.1,27.6h1.2l2,5.1h-1.1l-0.4-1.2h-2.1l-0.4,1.2h-1.1L48.1,27.6z M48.7,28.6L48.7,28.6l-0.8,2.1h1.5
		L48.7,28.6z"/>
	<path class="st4" d="M55.4,29v3.4c0,1-0.4,2-2,2c-0.4,0-0.8-0.1-1.3-0.3l0.1-0.8c0.3,0.2,0.8,0.3,1.1,0.3c1.1,0,1.1-0.8,1.1-1.5h0
		c-0.2,0.3-0.6,0.6-1.2,0.6c-1.1,0-1.5-0.9-1.5-1.9c0-0.9,0.5-2,1.6-2c0.5,0,0.9,0.2,1.2,0.6h0V29H55.4z M54.4,30.8
		c0-0.6-0.3-1.2-0.8-1.2c-0.7,0-0.9,0.6-0.9,1.2c0,0.5,0.3,1.1,0.8,1.1C54.2,32,54.4,31.5,54.4,30.8z"/>
	<path class="st4" d="M56.5,29h0.9v0.9h0c0-0.4,0.4-1,1-1c0.1,0,0.2,0,0.3,0v1c-0.1-0.1-0.3-0.1-0.4-0.1c-0.8,0-0.8,1-0.8,1.5v1.4
		h-1V29z"/>
	<path class="st4" d="M59.5,27.3h1v0.9h-1V27.3z M59.5,29h1v3.8h-1V29z"/>
	<path class="st4" d="M64,29.8c-0.2-0.1-0.4-0.1-0.7-0.1c-0.6,0-1,0.5-1,1.2c0,0.7,0.3,1.2,1,1.2c0.3,0,0.6-0.1,0.8-0.2l0,0.8
		c-0.3,0.1-0.6,0.1-1,0.1c-1.2,0-1.9-0.8-1.9-2c0-1.1,0.6-2,1.8-2c0.4,0,0.7,0,1,0.1L64,29.8z"/>
	<path class="st4" d="M68.4,32.8h-0.9v-0.5h0c-0.3,0.4-0.7,0.6-1.2,0.6c-0.9,0-1.3-0.6-1.3-1.5V29h1v2c0,0.5,0,1.1,0.6,1.1
		c0.7,0,0.9-0.8,0.9-1.3V29h1V32.8z"/>
	<path class="st4" d="M69.5,27.2h1v5.5h-1V27.2z"/>
	<path class="st4" d="M71.9,29.7h-0.7V29h0.7v-0.8l1-0.3V29h0.9v0.7h-0.9v1.8c0,0.3,0.1,0.6,0.5,0.6c0.2,0,0.3,0,0.4-0.1l0,0.8
		c-0.2,0.1-0.4,0.1-0.7,0.1c-0.8,0-1.2-0.5-1.2-1.2V29.7z"/>
	<path class="st4" d="M78,32.8h-0.9v-0.5h0c-0.3,0.4-0.7,0.6-1.2,0.6c-0.9,0-1.3-0.6-1.3-1.5V29h1v2c0,0.5,0,1.1,0.6,1.1
		c0.7,0,0.9-0.8,0.9-1.3V29h1V32.8z"/>
	<path class="st4" d="M79.2,29H80v0.9h0c0-0.4,0.4-1,1-1c0.1,0,0.2,0,0.3,0v1c-0.1-0.1-0.3-0.1-0.4-0.1c-0.8,0-0.8,1-0.8,1.5v1.4h-1
		V29z"/>
	<path class="st4" d="M85.1,32.5c-0.4,0.2-0.8,0.3-1.3,0.3c-1.3,0-2-0.7-2-2c0-1.1,0.6-2,1.8-2c1.4,0,1.8,1,1.8,2.3h-2.6
		c0,0.6,0.5,1,1.1,1c0.5,0,0.9-0.2,1.3-0.4V32.5z M84.5,30.5c0-0.5-0.3-0.9-0.8-0.9s-0.8,0.4-0.9,0.9H84.5z"/>
	<path class="st4" d="M88.5,29.2c0.4-0.2,0.9-0.3,1.3-0.3c1.2,0,1.6,0.5,1.6,1.6V31c0,0.4,0,0.7,0,1c0,0.3,0,0.6,0,0.8h-0.9
		c0-0.2,0-0.4,0-0.6h0c-0.2,0.4-0.7,0.7-1.2,0.7c-0.7,0-1.3-0.4-1.3-1.1c0-0.6,0.3-0.9,0.6-1.1c0.4-0.2,0.9-0.2,1.3-0.2h0.5
		c0-0.6-0.3-0.8-0.9-0.8c-0.4,0-0.8,0.2-1.2,0.4L88.5,29.2z M89.7,32.1c0.3,0,0.5-0.1,0.7-0.3c0.2-0.2,0.2-0.5,0.2-0.8h-0.4
		c-0.4,0-1.1,0.1-1.1,0.7C89.1,32,89.3,32.1,89.7,32.1z"/>
	<path class="st4" d="M92.5,29h0.9v0.5h0c0.3-0.4,0.7-0.6,1.2-0.6c0.9,0,1.3,0.6,1.3,1.5v2.4h-1v-2c0-0.5,0-1.1-0.6-1.1
		c-0.7,0-0.9,0.8-0.9,1.3v1.9h-1V29z"/>
	<path class="st4" d="M99.7,32.3L99.7,32.3c-0.3,0.4-0.7,0.5-1.2,0.5c-1.2,0-1.6-1-1.6-2c0-1,0.4-2,1.6-2c0.5,0,0.8,0.2,1.1,0.5h0
		v-2.2h1v5.5h-1V32.3z M98.7,32.1c0.7,0,0.9-0.7,0.9-1.2c0-0.5-0.3-1.2-0.9-1.2c-0.6,0-0.8,0.7-0.8,1.2
		C97.9,31.4,98.1,32.1,98.7,32.1z"/>
	<path class="st4" d="M46.6,36.2h2.9V37h-1.8v1.3h1.7v0.8h-1.7v2.3h-1V36.2z"/>
	<path class="st4" d="M52,37.5c1.1,0,2,0.8,2,2c0,1.1-0.7,2-2,2c-1.3,0-2-0.9-2-2C50,38.2,50.9,37.5,52,37.5z M52,40.7
		c0.8,0,1-0.7,1-1.3c0-0.6-0.3-1.1-1-1.1c-0.6,0-1,0.6-1,1.1C51.1,40,51.3,40.7,52,40.7z"/>
	<path class="st4" d="M56.6,37.5c1.1,0,2,0.8,2,2c0,1.1-0.7,2-2,2c-1.3,0-2-0.9-2-2C54.6,38.2,55.5,37.5,56.6,37.5z M56.6,40.7
		c0.8,0,1-0.7,1-1.3c0-0.6-0.3-1.1-1-1.1c-0.6,0-1,0.6-1,1.1C55.7,40,55.9,40.7,56.6,40.7z"/>
	<path class="st4" d="M62,40.9L62,40.9c-0.3,0.4-0.7,0.5-1.2,0.5c-1.2,0-1.6-1-1.6-2c0-1,0.4-2,1.6-2c0.5,0,0.8,0.2,1.1,0.5h0v-2.2
		h1v5.5h-1V40.9z M61.1,40.7c0.7,0,0.9-0.7,0.9-1.2c0-0.5-0.3-1.2-0.9-1.2c-0.6,0-0.8,0.7-0.8,1.2C60.2,40,60.4,40.7,61.1,40.7z"/>
	<path class="st4" d="M69,37.2c-0.3-0.1-0.7-0.2-1-0.2c-0.4,0-0.8,0.2-0.8,0.7c0,0.9,2.3,0.5,2.3,2.2c0,1.1-0.9,1.6-1.9,1.6
		c-0.6,0-0.8-0.1-1.3-0.2l0.1-0.9c0.4,0.2,0.8,0.3,1.2,0.3c0.4,0,0.9-0.2,0.9-0.7c0-1-2.3-0.6-2.3-2.3c0-1.2,0.9-1.6,1.8-1.6
		c0.4,0,0.9,0.1,1.2,0.2L69,37.2z"/>
	<path class="st4" d="M73.4,41.2c-0.4,0.2-0.8,0.3-1.3,0.3c-1.3,0-2-0.7-2-2c0-1.1,0.6-2,1.8-2c1.4,0,1.8,1,1.8,2.3H71
		c0,0.6,0.5,1,1.1,1c0.5,0,0.9-0.2,1.3-0.4V41.2z M72.7,39.1c0-0.5-0.3-0.9-0.8-0.9c-0.6,0-0.8,0.4-0.9,0.9H72.7z"/>
	<path class="st4" d="M77,38.4c-0.2-0.1-0.4-0.1-0.7-0.1c-0.6,0-1,0.5-1,1.2c0,0.7,0.3,1.2,1,1.2c0.3,0,0.6-0.1,0.8-0.2l0,0.8
		c-0.3,0.1-0.6,0.1-1,0.1c-1.2,0-1.9-0.8-1.9-2c0-1.1,0.6-2,1.8-2c0.4,0,0.7,0,1,0.1L77,38.4z"/>
	<path class="st4" d="M81.3,41.4h-0.9v-0.5h0c-0.3,0.4-0.7,0.6-1.2,0.6c-0.9,0-1.3-0.6-1.3-1.5v-2.4h1v2c0,0.5,0,1.1,0.6,1.1
		c0.7,0,0.9-0.8,0.9-1.3v-1.9h1V41.4z"/>
	<path class="st4" d="M82.4,37.6h0.9v0.9h0c0-0.4,0.4-1,1-1c0.1,0,0.2,0,0.3,0v1c-0.1-0.1-0.3-0.1-0.4-0.1c-0.8,0-0.8,1-0.8,1.5v1.4
		h-1V37.6z"/>
	<path class="st4" d="M85.4,35.9h1v0.9h-1V35.9z M85.4,37.6h1v3.8h-1V37.6z"/>
	<path class="st4" d="M87.8,38.3h-0.7v-0.7h0.7v-0.8l1-0.3v1.1h0.9v0.7h-0.9v1.8c0,0.3,0.1,0.6,0.5,0.6c0.2,0,0.3,0,0.4-0.1l0,0.8
		c-0.2,0.1-0.4,0.1-0.7,0.1c-0.8,0-1.2-0.5-1.2-1.2V38.3z"/>
	<path class="st4" d="M92,40.3L92,40.3l0.9-2.8h1l-1.4,3.8C92.2,42.2,92,43,90.9,43c-0.2,0-0.5,0-0.7-0.1l0.1-0.7
		c0.1,0,0.3,0.1,0.5,0.1c0.4,0,0.6-0.3,0.6-0.7l-1.5-4h1.1L92,40.3z"/>
</g>
<g>
	<path class="st5" d="M183.1,15c-0.4-0.4-1.2-1.2-1.8-1.8c-0.7-0.7-0.9-1-0.9-2.2V5.7c0-0.8-1.2-0.6-1.2,0c0,0-0.1,9.2,0,9.9
		c0.1,0.7-0.3,1.4,1,2.2c1.4,0.9,3.4,1.4,3.4,1.4s0-2,0.1-2.7C183.6,15.9,183.4,15.5,183.1,15 M182.5,17.9L182.5,17.9
		c-2-0.8-2.3-0.6-2-3.5C182.7,15.7,182.5,16.2,182.5,17.9"/>
	<path class="st5" d="M184.8,16.7c0,0.8,0.1,2.7,0.1,2.7s2-0.6,3.4-1.4c1.2-0.8,0.9-1.4,1-2.2c0.1-0.8,0-9.9,0-9.9
		c0-0.7-1.2-0.8-1.2,0v5.3c0,1.2-0.2,1.4-0.9,2.2c-0.4,0.4-1.3,1.2-1.8,1.8C184.9,15.5,184.8,15.9,184.8,16.7 M187.9,14.3
		c0.3,2.9-0.1,2.7-2,3.5l0,0C185.8,16.2,185.6,15.7,187.9,14.3"/>
	<path class="st5" d="M185.7,9.6c-0.7-1.2,0,0-1-1.6V2.2c0-0.9-1.2-0.8-1.2,0v5.9c0,0-1,1.7-1.2,2.3c-0.3,0.6-0.6,1.4,0.3,2.5
		c0.1,0.1,0.2,0.3,1.5,1.6l0,0c0,0,0,0,1.2-1.2C186.9,11.8,186.4,10.8,185.7,9.6 M184.2,13c-2.2-1.2-0.6-2.8,0-3.9v0.1
		C185.9,11.7,185.5,12,184.2,13"/>
	<path class="st5" d="M183.5,22.1c-0.1-1.2-0.4-2.1-2.8-3c-2-0.7-4.8-0.9-6.7-1.2c-2-0.4-5.4-0.9-7.1-2.5c1.2,4.2,4.4,5.9,7.6,6.7
		c3.6,0.8,6.8,1.1,8.9,2.5l0.2,0.2C183.4,23.7,183.6,23.2,183.5,22.1 M182.5,22.7c-1.8-0.6-2.9-0.8-6-1.4s-5-1.2-6.7-3
		c2.7,1.1,7,1.4,9.4,2C181.7,20.6,182.3,21.3,182.5,22.7L182.5,22.7z"/>
	<path class="st5" d="M184.8,24.6l0.2-0.2c2-1.3,5.2-1.7,8.9-2.5c3.2-0.7,6.4-2.4,7.6-6.7c-1.7,1.6-5.1,2.1-7.1,2.5
		c-2,0.4-4.8,0.4-6.7,1.2c-2.3,0.9-2.7,1.9-2.8,3C184.8,23.2,184.9,23.7,184.8,24.6 M185.8,22.7c0.3-1.4,0.9-2,3.3-2.5
		c2.4-0.5,6.7-0.9,9.4-2c-1.7,1.8-3.5,2.3-6.7,3C188.7,21.8,187.5,22,185.8,22.7L185.8,22.7z"/>
	<path class="st5" d="M183.4,27.4c0-2.2-1.2-2.8-3.2-3.4s-4.6-0.9-6.8-1.5c-2.3-0.6-3.5-1.1-5.1-2.7c0.4,3.3,2.6,5.6,5.4,6.6
		c2.8,1,2.7,0.8,4.2,1.2c1.5,0.4,1.8,1,1.8,1.9v2h3.7C183.4,26.9,183.3,29.7,183.4,27.4 M182.3,30.1h-1.5c0,0,0-0.6-0.1-1.7
		c-0.1-1.4-1.8-1.6-4.5-2.3c-1.9-0.6-4.3-1.3-5.5-3.2c0.7,0.3,2,0.9,4.3,1.3c2.1,0.4,3.3,0.7,5.2,1.1c1.9,0.4,2.2,1.5,2.2,2.7
		L182.3,30.1L182.3,30.1z"/>
	<path class="st5" d="M184.8,31.2h3.8v-2c0-1,0.3-1.5,1.8-1.9s1.3-0.2,4.2-1.2c2.8-1,5.1-3.3,5.4-6.6c-1.5,1.7-2.8,2.1-5.1,2.7
		c-2.3,0.6-5,1.1-6.8,1.5c-2,0.5-3.2,1.2-3.2,3.4C184.8,29.7,184.8,26.9,184.8,31.2 M185.9,28c0-1.2,0.4-2.4,2.2-2.7
		c2-0.4,3.1-0.6,5.2-1.1c2.2-0.4,3.5-1.1,4.3-1.3c-1.1,1.9-3.5,2.6-5.5,3.1c-2.7,0.8-4.4,0.9-4.5,2.3c-0.1,1.1-0.1,1.7-0.1,1.7H186
		L185.9,28L185.9,28z"/>
	<path class="st5" d="M175.8,41.8c-0.4,0.1-1,0.2-1.5,0.2c-2.1,0-3.6-1.1-3.6-3.3c0-2.2,1.4-3.5,3.6-3.5c0.4,0,1,0.1,1.5,0.3
		l-0.1,1.2c-0.5-0.3-1-0.4-1.4-0.4c-1.3,0-2.2,1.1-2.2,2.4c0,1.3,0.8,2.4,2.2,2.4c0.5,0,1.2-0.1,1.4-0.3L175.8,41.8z"/>
	<path class="st5" d="M181.9,36.5c-0.5-0.3-1.2-0.4-1.7-0.4c-1.5,0-2.4,1.1-2.4,2.4c0,1.3,0.8,2.4,2.2,2.4c0.4,0,0.6,0,0.9-0.1v-1.7
		h-1.4V38h2.7v3.5c-0.7,0.2-1.4,0.4-2.1,0.4c-2.1,0-3.6-1.1-3.6-3.3c0-2.3,1.4-3.5,3.6-3.5c0.8,0,1.3,0.1,2,0.3L181.9,36.5z"/>
	<rect x="183.5" y="35.3" class="st5" width="1.3" height="6.6"/>
	<path class="st5" d="M189.8,39.3h-2l1-2.7l0,0L189.8,39.3z M185.6,41.8h1.3l0.6-1.5h2.7l0.5,1.5h1.5l-2.6-6.6h-1.5L185.6,41.8z"/>
	<path class="st5" d="M194.3,36.3h0.4c0.6,0,1.4,0.1,1.4,0.9s-0.7,0.9-1.4,0.9h-0.4C194.3,38,194.3,36.3,194.3,36.3z M192.9,41.8
		h1.3v-2.7h0.4c0.5,0,0.7,0.2,0.9,0.7l0.8,2h1.5l-1.1-2.6c-0.1-0.3-0.4-0.6-0.7-0.7l0,0c0.9-0.1,1.3-0.8,1.3-1.5
		c0-1.9-1.7-1.8-3.1-1.8h-1.4C192.9,35.3,192.9,41.8,192.9,41.8z"/>
	<path class="st5" d="M212.6,1.3h1.8c0.7,0,1.2,0.3,1.2,1c0,0.5-0.3,0.8-0.7,1l0,0c0.4,0.1,0.4,0.4,0.5,0.8l0.4,1.1h-1.1l-0.2-0.7
		c-0.2-0.6-0.4-0.8-0.7-0.8h-0.2v1.5h-1.1V1.3z M213.6,2.9h0.3c0.4,0,0.7,0,0.7-0.4c0-0.4-0.4-0.4-0.7-0.4h-0.3V2.9z"/>
	<polygon class="st5" points="216.5,1.3 219.3,1.3 219.3,2 217.6,2 217.6,2.8 219.2,2.8 219.2,3.5 217.6,3.5 217.6,4.4 219.3,4.4 
		219.3,5.1 216.5,5.1 	"/>
	<path class="st5" d="M220.2,4.2c0.3,0.2,0.6,0.3,1.1,0.3c0.4,0,0.6-0.1,0.6-0.4c0-0.7-1.8-0.3-1.8-1.6c0-0.9,0.9-1.2,1.7-1.2
		c0.4,0,0.7,0.1,1,0.2l-0.1,0.8c-0.3-0.1-0.5-0.2-0.8-0.2s-0.7,0-0.7,0.4c0,0.6,1.8,0.2,1.8,1.6c0,1-0.8,1.2-1.7,1.2
		c-0.4,0-0.8-0.1-1.2-0.2L220.2,4.2z"/>
	<polygon class="st5" points="223.9,1.3 226.5,1.3 226.5,2 224.9,2 224.9,2.8 226.5,2.8 226.5,3.5 224.9,3.5 224.9,4.4 226.6,4.4 
		226.6,5.1 223.9,5.1 	"/>
	<path class="st5" d="M228.8,1.3h1.2l1.4,3.8h-1.1L230,4.3h-1.4l-0.3,0.8h-1.1L228.8,1.3z M229.4,2.1L229.4,2.1l-0.5,1.5h1
		L229.4,2.1z"/>
	<path class="st5" d="M232.1,1.3h1.8c0.7,0,1.2,0.3,1.2,1c0,0.5-0.3,0.8-0.7,1l0,0c0.4,0.1,0.4,0.4,0.5,0.8l0.4,1.1h-1.1l-0.2-0.7
		c-0.2-0.6-0.4-0.8-0.7-0.8h-0.2v1.5h-1.1V1.3z M233.2,2.9h0.3c0.4,0,0.7,0,0.7-0.4c0-0.4-0.4-0.4-0.7-0.4h-0.3V2.9z"/>
	<path class="st5" d="M239.3,5c-0.3,0.1-0.6,0.2-1.2,0.2c-1,0-2.2-0.5-2.2-2c0-1.3,0.9-2,2.2-2c0.4,0,0.8,0.1,1.2,0.2l-0.1,0.8
		c-0.4-0.2-0.6-0.3-1-0.3c-0.7,0-1.2,0.5-1.2,1.2s0.5,1.2,1.2,1.2c0.4,0,0.7-0.1,1-0.2V5z"/>
	<polygon class="st5" points="240.1,1.3 241.2,1.3 241.2,2.8 242.3,2.8 242.3,1.3 243.3,1.3 243.3,5.1 242.3,5.1 242.3,3.5 
		241.2,3.5 241.2,5.1 240.1,5.1 	"/>
	<path class="st5" d="M212.5,7.9h1.2c1.2,0,1.7,0.4,1.7,1.2c0,0.8-0.5,1.2-1.5,1.2h-0.4v1.3h-1L212.5,7.9L212.5,7.9z M213.6,9.6h0.3
		c0.4,0,0.6-0.1,0.6-0.5c0-0.4-0.3-0.5-0.6-0.5h-0.3V9.6z"/>
	<path class="st5" d="M216.3,7.9h1.8c0.7,0,1.2,0.3,1.2,1c0,0.5-0.3,0.8-0.7,1l0,0c0.4,0.1,0.4,0.4,0.5,0.8l0.4,1.1h-1.1l-0.2-0.7
		c-0.2-0.6-0.4-0.8-0.7-0.8h-0.2v1.5h-1L216.3,7.9L216.3,7.9z M217.2,9.5h0.3c0.4,0,0.7,0,0.7-0.4c0-0.4-0.4-0.4-0.7-0.4h-0.3V9.5z"
		/>
	<path class="st5" d="M222,7.8c1.2,0,1.9,0.7,1.9,2s-0.6,2-1.9,2s-1.9-0.8-1.9-2C220.2,8.5,220.8,7.8,222,7.8 M222,11
		c0.6,0,0.9-0.6,0.9-1.2s-0.3-1.2-0.9-1.2c-0.6,0-0.9,0.5-0.9,1.2C221.1,10.4,221.4,11,222,11"/>
	<path class="st5" d="M228.3,11.5c-0.6,0.2-1.2,0.2-1.5,0.2c-1,0-2.2-0.5-2.2-2s1-2,2.4-2c0.3,0,0.8,0,1.2,0.2v0.8
		c-0.4-0.2-0.7-0.3-0.9-0.3c-0.8,0-1.5,0.4-1.5,1.2c0,0.7,0.5,1.2,1.2,1.2c0.2,0,0.3,0,0.4-0.1v-0.7h-0.5V9.5h1.6L228.3,11.5
		L228.3,11.5z"/>
	<path class="st5" d="M229.4,7.9h1.8c0.7,0,1.2,0.3,1.2,1c0,0.5-0.3,0.8-0.7,1l0,0c0.4,0.1,0.4,0.4,0.5,0.8l0.4,1.1h-1.1l-0.2-0.7
		c-0.2-0.6-0.4-0.8-0.7-0.8h-0.2v1.5h-1L229.4,7.9L229.4,7.9z M230.4,9.5h0.3c0.4,0,0.7,0,0.7-0.4c0-0.4-0.4-0.4-0.7-0.4h-0.3V9.5z"
		/>
	<path class="st5" d="M234.5,7.9h1.2l1.4,3.8h-1.1l-0.3-0.8h-1.4l-0.3,0.8h-1.1L234.5,7.9z M235.1,8.7L235.1,8.7l-0.5,1.5h1
		L235.1,8.7z"/>
	<polygon class="st5" points="238,7.9 239.5,7.9 240.4,10.4 240.4,10.4 241.2,7.9 242.7,7.9 242.7,11.7 241.7,11.7 241.7,8.8 
		241.7,8.8 240.7,11.7 239.8,11.7 239,8.8 238.9,8.8 239,11.7 238,11.7 	"/>
	<path class="st5" d="M247.6,7.8c1.2,0,1.9,0.7,1.9,2s-0.6,2-1.9,2c-1.2,0-1.9-0.8-1.9-2C245.6,8.5,246.2,7.8,247.6,7.8 M247.6,11
		c0.6,0,0.9-0.6,0.9-1.2s-0.3-1.2-0.9-1.2c-0.6,0-0.9,0.5-0.9,1.2C246.7,10.4,246.9,11,247.6,11"/>
	<polygon class="st5" points="250.4,7.9 251.6,7.9 253,10.4 253,10.4 252.9,7.9 253.9,7.9 253.9,11.7 252.6,11.7 251.3,9 251.3,9 
		251.3,11.7 250.4,11.7 	"/>
	<path class="st5" d="M212.2,15.8c0.4-0.1,0.9-0.1,1.5-0.1c0.8,0,1.4,0.2,1.8,0.5c0.4,0.3,0.5,0.7,0.5,1.3c0,0.5-0.2,1-0.4,1.3
		c-0.4,0.4-1.2,0.7-2,0.7c-0.3,0-0.4,0-0.6-0.1V22h-0.8C212.2,22,212.2,15.8,212.2,15.8z M213,18.8c0.2,0.1,0.4,0.1,0.7,0.1
		c1,0,1.6-0.4,1.6-1.3c0-0.8-0.6-1.2-1.5-1.2c-0.4,0-0.6,0-0.8,0.1C213,16.4,213,18.8,213,18.8z"/>
	<path class="st5" d="M221.1,19.7c0,1.7-1.2,2.4-2.2,2.4c-1.2,0-2.1-0.9-2.1-2.3c0-1.5,1-2.4,2.2-2.4
		C220.2,17.4,221.1,18.3,221.1,19.7 M217.5,19.8c0,1,0.5,1.7,1.3,1.7c0.8,0,1.3-0.7,1.3-1.8c0-0.8-0.4-1.7-1.3-1.7
		C217.9,18,217.5,18.9,217.5,19.8"/>
	<rect x="222" y="15.4" class="st5" width="0.8" height="6.6"/>
	<path class="st5" d="M225,16.2c0,0.3-0.2,0.5-0.5,0.5c-0.3,0-0.5-0.3-0.5-0.5c0-0.3,0.2-0.5,0.5-0.5C224.9,15.7,225,15.9,225,16.2
		 M224.1,17.5h0.8V22h-0.8V17.5z"/>
	<path class="st5" d="M229.5,21.8c-0.2,0.1-0.7,0.3-1.3,0.3c-1.3,0-2.2-0.9-2.2-2.3s1-2.4,2.4-2.4c0.4,0,0.9,0.1,1.2,0.3l-0.2,0.6
		c-0.2-0.1-0.5-0.2-1-0.2c-1.1,0-1.6,0.8-1.6,1.7c0,1.1,0.7,1.7,1.6,1.7c0.4,0,0.8-0.1,1-0.3L229.5,21.8z"/>
	<path class="st5" d="M231.2,16.2c0,0.3-0.2,0.5-0.5,0.5c-0.3,0-0.5-0.3-0.5-0.5c0-0.3,0.2-0.5,0.5-0.5
		C231.1,15.7,231.2,15.9,231.2,16.2 M230.3,17.5h0.8V22h-0.8V17.5z"/>
	<path class="st5" d="M232.8,19.8c0,1.1,0.7,1.6,1.5,1.6c0.6,0,1-0.1,1.2-0.3l0.2,0.6c-0.3,0.1-0.8,0.3-1.5,0.3
		c-1.4,0-2.2-0.9-2.2-2.3s0.8-2.4,2.1-2.4c1.5,0,1.9,1.3,1.9,2.1c0,0.2,0,0.3,0,0.4C236,19.8,232.8,19.8,232.8,19.8z M235.2,19.3
		c0-0.5-0.2-1.3-1.2-1.3c-0.8,0-1.2,0.8-1.2,1.3H235.2z"/>
	<path class="st5" d="M236.8,21.2c0.3,0.2,0.7,0.4,1.1,0.4c0.6,0,0.9-0.3,0.9-0.7c0-0.4-0.3-0.6-0.8-0.8c-0.8-0.3-1.2-0.7-1.2-1.2
		c0-0.7,0.6-1.3,1.5-1.3c0.4,0,0.9,0.1,1.1,0.3l-0.2,0.5c-0.2-0.1-0.5-0.3-0.9-0.3c-0.4,0-0.7,0.3-0.7,0.6c0,0.4,0.3,0.5,0.9,0.8
		c0.8,0.3,1.2,0.7,1.2,1.3c0,0.8-0.6,1.3-1.7,1.3c-0.5,0-1-0.1-1.2-0.3L236.8,21.2z"/>
	<path class="st5" d="M240,23.1c0.2-0.5,0.4-1.5,0.5-2.2l0.9-0.1c-0.2,0.8-0.6,1.9-0.9,2.2L240,23.1z"/>
	<path class="st5" d="M254.4,33c0.2-0.5,0.4-1.5,0.5-2.2l0.9-0.1c-0.2,0.8-0.6,1.9-0.9,2.2L254.4,33z"/>
	<rect x="212.2" y="25.6" class="st5" width="0.8" height="6.3"/>
	<path class="st5" d="M214.3,28.5c0-0.4,0-0.9,0-1.2h0.7l0.1,0.7l0,0c0.3-0.4,0.7-0.9,1.5-0.9c0.6,0,1.6,0.4,1.6,2v2.7h-0.8v-2.6
		c0-0.7-0.3-1.3-1.1-1.3c-0.5,0-1,0.4-1.1,0.8c0,0.1-0.1,0.3-0.1,0.4v2.7h-0.8L214.3,28.5L214.3,28.5z"/>
	<path class="st5" d="M219.3,31c0.3,0.2,0.7,0.4,1.1,0.4c0.6,0,0.9-0.3,0.9-0.7c0-0.4-0.3-0.6-0.8-0.8c-0.8-0.3-1.2-0.7-1.2-1.2
		c0-0.7,0.6-1.3,1.5-1.3c0.4,0,0.9,0.1,1.1,0.3l-0.2,0.6c-0.2-0.1-0.5-0.3-0.9-0.3c-0.4,0-0.7,0.3-0.7,0.6c0,0.4,0.3,0.5,0.9,0.8
		c0.8,0.3,1.2,0.7,1.2,1.3c0,0.8-0.6,1.3-1.7,1.3c-0.5,0-1-0.1-1.2-0.3L219.3,31z"/>
	<path class="st5" d="M224,26.1v1.3h1.2V28H224v2.4c0,0.5,0.2,0.9,0.6,0.9c0.2,0,0.4,0,0.4-0.1v0.6c-0.2,0.1-0.4,0.1-0.7,0.1
		c-0.4,0-0.7-0.1-0.9-0.4c-0.3-0.3-0.4-0.6-0.4-1.2v-2.5h-0.7v-0.5h0.7v-1.1L224,26.1z"/>
	<path class="st5" d="M226.9,26.1c0,0.3-0.2,0.5-0.5,0.5c-0.3,0-0.5-0.3-0.5-0.5c0-0.3,0.2-0.5,0.5-0.5
		C226.6,25.6,226.9,25.8,226.9,26.1 M225.9,27.4h0.9v4.4h-0.9V27.4z"/>
	<path class="st5" d="M229,26.1v1.3h1.2V28H229v2.4c0,0.5,0.2,0.9,0.6,0.9c0.2,0,0.4,0,0.4-0.1v0.6c-0.2,0.1-0.4,0.1-0.7,0.1
		c-0.4,0-0.7-0.1-0.9-0.4c-0.3-0.3-0.4-0.6-0.4-1.2v-2.5h-0.7v-0.5h0.7v-1.1L229,26.1z"/>
	<path class="st5" d="M234.8,30.6c0,0.4,0,0.9,0,1.2h-0.7l-0.1-0.7l0,0c-0.2,0.4-0.7,0.8-1.5,0.8c-0.7,0-1.5-0.4-1.5-2v-2.7h0.8v2.5
		c0,0.9,0.3,1.4,1,1.4c0.5,0,0.9-0.4,1.1-0.7c0.1-0.1,0.1-0.3,0.1-0.4v-2.7h0.9V30.6z"/>
	<path class="st5" d="M237,26.1v1.3h1.2V28H237v2.4c0,0.5,0.2,0.9,0.6,0.9c0.2,0,0.4,0,0.4-0.1v0.6c-0.2,0.1-0.4,0.1-0.7,0.1
		c-0.4,0-0.7-0.1-0.9-0.4c-0.3-0.3-0.4-0.6-0.4-1.2v-2.5h-0.7v-0.5h0.7v-1.1L237,26.1z"/>
	<path class="st5" d="M239.9,26.1c0,0.3-0.2,0.5-0.5,0.5c-0.3,0-0.5-0.3-0.5-0.5c0-0.3,0.2-0.5,0.5-0.5
		C239.8,25.6,239.9,25.8,239.9,26.1 M239,27.4h0.8v4.4H239V27.4z"/>
	<path class="st5" d="M245.3,29.6c0,1.7-1.2,2.4-2.2,2.4c-1.2,0-2.1-0.9-2.1-2.3c0-1.5,1-2.4,2.2-2.4
		C244.4,27.2,245.3,28.2,245.3,29.6 M241.6,29.6c0,1,0.5,1.7,1.3,1.7s1.3-0.7,1.3-1.8c0-0.8-0.4-1.7-1.3-1.7
		C242.1,27.8,241.6,28.7,241.6,29.6"/>
	<path class="st5" d="M246.1,28.5c0-0.4,0-0.9,0-1.2h0.7l0.1,0.7l0,0c0.3-0.4,0.7-0.9,1.5-0.9c0.6,0,1.6,0.4,1.6,2v2.7h-0.8v-2.6
		c0-0.7-0.3-1.3-1.1-1.3c-0.5,0-1,0.4-1.1,0.8c0,0.1-0.1,0.3-0.1,0.4v2.7h-0.8L246.1,28.5L246.1,28.5z"/>
	<path class="st5" d="M251.1,31c0.3,0.2,0.7,0.4,1.1,0.4c0.6,0,0.9-0.3,0.9-0.7c0-0.4-0.3-0.6-0.8-0.8c-0.8-0.3-1.2-0.7-1.2-1.2
		c0-0.7,0.6-1.3,1.5-1.3c0.4,0,0.9,0.1,1.1,0.3l-0.2,0.6c-0.2-0.1-0.5-0.3-0.9-0.3c-0.4,0-0.7,0.3-0.7,0.6c0,0.4,0.3,0.5,0.9,0.8
		c0.8,0.3,1.2,0.7,1.2,1.3c0,0.8-0.6,1.3-1.7,1.3c-0.5,0-1-0.1-1.2-0.3L251.1,31z"/>
	<path class="st5" d="M214.7,41.8l-0.1-0.5l0,0c-0.3,0.4-0.7,0.7-1.3,0.7c-0.9,0-1.3-0.6-1.3-1.3c0-1.1,1-1.7,2.7-1.7v-0.1
		c0-0.4-0.1-1.1-1.1-1.1c-0.4,0-0.9,0.1-1.2,0.4l-0.2-0.5c0.4-0.3,0.9-0.4,1.5-0.4c1.3,0,1.7,1,1.7,1.9v1.7c0,0.4,0,0.8,0.1,1.1
		C215.5,41.8,214.7,41.8,214.7,41.8z M214.6,39.5c-0.9,0-1.9,0.2-1.9,1c0,0.5,0.4,0.8,0.8,0.8c0.6,0,1-0.4,1.1-0.7
		c0-0.1,0.1-0.2,0.1-0.3L214.6,39.5L214.6,39.5z"/>
	<path class="st5" d="M216.5,38.5c0-0.4,0-0.9,0-1.2h0.7l0.1,0.7l0,0c0.3-0.4,0.7-0.9,1.5-0.9c0.6,0,1.6,0.4,1.6,2v2.7h-0.8v-2.6
		c0-0.7-0.3-1.3-1.1-1.3c-0.5,0-1,0.4-1.1,0.8c0,0.1-0.1,0.3-0.1,0.4v2.7h-0.8L216.5,38.5L216.5,38.5z"/>
	<path class="st5" d="M225.5,35.1v5.4c0,0.4,0,0.9,0,1.2h-0.7v-0.8l0,0c-0.3,0.5-0.8,0.9-1.5,0.9c-1.1,0-2-0.9-2-2.3
		c0-1.5,0.9-2.4,2-2.4c0.7,0,1.2,0.4,1.3,0.7l0,0v-2.7C224.7,35.1,225.5,35.1,225.5,35.1z M224.7,39c0-0.1,0-0.3,0-0.4
		c-0.1-0.5-0.5-1-1.2-1c-0.9,0-1.3,0.7-1.3,1.8c0,0.9,0.4,1.7,1.3,1.7c0.5,0,1.1-0.4,1.2-1c0-0.1,0-0.3,0-0.4L224.7,39L224.7,39z"/>
	<path class="st5" d="M234,39c-0.1-0.9-0.1-2-0.1-2.7l0,0c-0.2,0.7-0.4,1.5-0.8,2.4l-1.1,3h-0.6l-1.1-3.1c-0.3-0.9-0.5-1.7-0.7-2.4
		l0,0c0,0.8-0.1,1.9-0.1,2.7l-0.2,2.7h-0.8l0.4-6.3h1.1l1.1,3c0.3,0.8,0.4,1.4,0.6,2.1l0,0c0.2-0.6,0.4-1.3,0.6-2.1l1.2-3h1.1
		l0.4,6.3h-0.8L234,39z"/>
	<path class="st5" d="M238.5,41.8l-0.1-0.5l0,0c-0.3,0.4-0.7,0.7-1.3,0.7c-0.9,0-1.4-0.6-1.4-1.3c0-1.1,1-1.7,2.7-1.7v-0.1
		c0-0.4-0.1-1.1-1.1-1.1c-0.4,0-0.9,0.1-1.2,0.4l-0.2-0.5c0.4-0.3,0.9-0.4,1.5-0.4c1.4,0,1.8,0.9,1.8,1.8v1.7c0,0.4,0,0.8,0.1,1.1
		L238.5,41.8L238.5,41.8z M238.4,39.5c-0.9,0-1.9,0.2-1.9,1c0,0.5,0.4,0.8,0.8,0.8c0.6,0,1-0.4,1.1-0.7c0-0.1,0.1-0.2,0.1-0.3
		L238.4,39.5L238.4,39.5z"/>
	<path class="st5" d="M240.5,38.7c0-0.5,0-1,0-1.4h0.7v0.9l0,0c0.2-0.6,0.7-1,1.2-1c0.1,0,0.2,0,0.3,0v0.8c-0.1,0-0.2,0-0.3,0
		c-0.6,0-1,0.4-1.1,1.1c0,0.1,0,0.3,0,0.4v2.4h-0.8L240.5,38.7L240.5,38.7z"/>
	<path class="st5" d="M244.2,39.3L244.2,39.3c0.1-0.2,0.3-0.4,0.4-0.5l1.3-1.5h1l-1.8,1.9l2,2.7h-1l-1.5-2.1l-0.4,0.4v1.7h-0.8v-6.6
		h0.8V39.3z"/>
	<path class="st5" d="M248.1,39.6c0,1.1,0.7,1.6,1.5,1.6c0.6,0,1-0.1,1.2-0.3l0.2,0.6c-0.3,0.1-0.8,0.3-1.5,0.3
		c-1.4,0-2.2-0.9-2.2-2.3c0-1.4,0.8-2.4,2.1-2.4c1.5,0,1.9,1.3,1.9,2.1c0,0.2,0,0.3,0,0.4C251.3,39.6,248.1,39.6,248.1,39.6z
		 M250.5,39c0-0.5-0.2-1.3-1.2-1.3c-0.8,0-1.2,0.8-1.2,1.3H250.5z"/>
	<path class="st5" d="M253.2,35.9v1.3h1.2v0.6h-1.2v2.4c0,0.5,0.2,0.9,0.6,0.9c0.2,0,0.4,0,0.4-0.1v0.6c-0.2,0.1-0.4,0.1-0.7,0.1
		c-0.4,0-0.7-0.1-0.9-0.4c-0.3-0.3-0.4-0.6-0.4-1.2v-2.5h-0.7v-0.6h0.7v-1.1L253.2,35.9z"/>
	<path class="st5" d="M255.1,40.9c0.3,0.2,0.7,0.4,1.1,0.4c0.6,0,0.9-0.3,0.9-0.7c0-0.4-0.3-0.6-0.8-0.8c-0.8-0.3-1.2-0.7-1.2-1.2
		c0-0.7,0.6-1.3,1.5-1.3c0.4,0,0.9,0.1,1.1,0.3l-0.2,0.6c-0.2-0.1-0.5-0.3-0.9-0.3c-0.4,0-0.7,0.3-0.7,0.6s0.3,0.5,0.9,0.8
		c0.8,0.3,1.2,0.7,1.2,1.3c0,0.8-0.6,1.3-1.7,1.3c-0.5,0-1-0.1-1.2-0.3L255.1,40.9z"/>
	<line class="st6" x1="207.2" y1="1.4" x2="207.2" y2="41.8"/>
</g>
<path class="st7" d="M299.1,13.7c-0.4-0.4-1.2-1.2-1.8-1.8c-0.7-0.7-0.9-1-0.9-2.2V4.4c0-0.8-1.2-0.6-1.2,0c0,0-0.1,9.2,0,9.9
	c0.1,0.8-0.3,1.4,1,2.2c1.4,0.9,3.4,1.4,3.4,1.4s0-2,0.1-2.7C299.6,14.6,299.5,14.3,299.1,13.7 M298.5,16.7L298.5,16.7
	c-2-0.8-2.3-0.6-2-3.5C298.8,14.4,298.6,15,298.5,16.7"/>
<path class="st7" d="M300.8,15.4c0,0.8,0.1,2.7,0.1,2.7s2-0.6,3.4-1.4c1.2-0.8,0.9-1.4,1-2.2c0.1-0.8,0-9.9,0-9.9
	c0-0.7-1.2-0.8-1.2,0v5.3c0,1.2-0.2,1.4-0.9,2.2c-0.4,0.4-1.3,1.2-1.8,1.8C301,14.3,300.8,14.6,300.8,15.4 M304,13
	c0.3,2.9-0.1,2.7-2,3.5l0,0C301.9,15,301.7,14.4,304,13"/>
<path class="st7" d="M301.8,8.4c-0.7-1.2,0,0-1-1.6V1c0-0.9-1.2-0.8-1.2,0v5.9c0,0-1,1.7-1.2,2.3c-0.3,0.6-0.6,1.4,0.3,2.5
	c0.1,0.1,0.2,0.3,1.5,1.6l0,0c0,0,0,0,1.2-1.2C302.9,10.5,302.4,9.6,301.8,8.4 M300.3,11.8c-2.2-1.2-0.6-2.8,0-3.9l0.1,0.1
	C302,10.4,301.5,10.8,300.3,11.8"/>
<path class="st7" d="M299.6,20.8c-0.1-1.2-0.4-2.1-2.8-3c-2-0.7-4.8-0.9-6.7-1.2c-2-0.4-5.4-0.9-7.1-2.5c1.2,4.2,4.4,5.9,7.6,6.7
	c3.6,0.8,6.8,1.1,8.9,2.5l0.2,0.2C299.5,22.4,299.6,22,299.6,20.8 M298.6,21.4c-1.8-0.6-2.9-0.8-6-1.4c-3.1-0.6-5-1.2-6.7-3
	c2.7,1.1,7,1.4,9.4,2C297.7,19.4,298.3,20,298.6,21.4L298.6,21.4z"/>
<path class="st7" d="M300.8,23.4l0.2-0.2c2-1.3,5.2-1.7,8.9-2.5c3.2-0.7,6.4-2.4,7.6-6.7c-1.7,1.6-5.1,2.1-7.1,2.5s-4.8,0.4-6.7,1.2
	c-2.3,0.9-2.8,1.9-2.8,3C300.8,22,301,22.4,300.8,23.4 M301.9,21.4c0.3-1.4,0.9-2,3.3-2.5c2.4-0.5,6.7-0.9,9.4-2
	c-1.7,1.8-3.5,2.3-6.7,3C304.7,20.6,303.5,20.7,301.9,21.4L301.9,21.4z"/>
<path class="st7" d="M299.5,26.1c0-2.2-1.2-2.8-3.2-3.4s-4.6-0.9-6.8-1.5c-2.3-0.6-3.5-1.1-5.1-2.7c0.4,3.3,2.6,5.6,5.4,6.6
	c2.8,1,2.7,0.8,4.2,1.2c1.5,0.4,1.8,1,1.8,1.9v2h3.7C299.5,25.6,299.4,28.5,299.5,26.1 M298.3,28.8h-1.5c0,0,0-0.6-0.1-1.7
	c-0.1-1.4-1.8-1.6-4.5-2.3c-1.9-0.5-4.3-1.2-5.5-3.1c0.7,0.3,2,0.9,4.3,1.3c2.1,0.4,3.3,0.7,5.2,1.1c1.9,0.4,2.2,1.5,2.2,2.7
	L298.3,28.8L298.3,28.8z"/>
<path class="st7" d="M300.9,30h3.7v-2c0-1,0.3-1.5,1.8-1.9s1.3-0.2,4.2-1.2c2.8-1,5.1-3.3,5.4-6.6c-1.5,1.7-2.8,2.1-5.1,2.7
	c-2.3,0.6-5,1.1-6.8,1.5c-2,0.5-3.2,1.2-3.2,3.4C300.9,28.5,300.8,25.6,300.9,30 M302,26.8c0-1.2,0.4-2.4,2.2-2.7
	c2-0.4,3.1-0.6,5.2-1.1c2.2-0.4,3.5-1.1,4.3-1.3c-1.1,1.9-3.5,2.6-5.5,3.1c-2.7,0.8-4.4,0.9-4.5,2.3c-0.1,1.1-0.1,1.7-0.1,1.7H302
	L302,26.8L302,26.8z"/>
<path class="st7" d="M291.8,40.5c-0.4,0.1-1,0.2-1.5,0.2c-2.1,0-3.6-1.1-3.6-3.3s1.4-3.5,3.6-3.5c0.4,0,1,0.1,1.5,0.3l-0.1,1.2
	c-0.5-0.3-1-0.4-1.4-0.4c-1.3,0-2.2,1.1-2.2,2.4s0.8,2.4,2.2,2.4c0.5,0,1.2-0.1,1.4-0.3L291.8,40.5z"/>
<path class="st7" d="M298,35.3c-0.5-0.3-1.2-0.4-1.7-0.4c-1.5,0-2.4,1.1-2.4,2.4s0.8,2.4,2.2,2.4c0.4,0,0.6,0,0.9-0.1v-1.7h-1.4
	v-1.1h2.7v3.5c-0.7,0.2-1.4,0.4-2.1,0.4c-2.1,0-3.6-1.1-3.6-3.3c0-2.3,1.4-3.5,3.6-3.5c0.8,0,1.3,0.1,2,0.3L298,35.3z"/>
<rect x="299.6" y="34" class="st7" width="1.3" height="6.6"/>
<path class="st7" d="M305.9,38h-2l1-2.7l0,0L305.9,38z M301.6,40.6h1.3l0.6-1.5h2.7l0.5,1.5h1.5l-2.6-6.6h-1.5L301.6,40.6z"/>
<path class="st7" d="M310.3,35h0.4c0.6,0,1.4,0.1,1.4,0.9c0,0.8-0.7,0.9-1.4,0.9h-0.4C310.3,36.8,310.3,35,310.3,35z M309,40.6h1.3
	v-2.7h0.4c0.5,0,0.7,0.2,0.9,0.7l0.8,2h1.5l-1.1-2.6c-0.2-0.3-0.4-0.6-0.7-0.7l0,0c0.8-0.1,1.3-0.8,1.3-1.5c0-1.9-1.7-1.8-3.1-1.8
	H309C309,34,309,40.6,309,40.6z"/>
<path class="st7" d="M328.7,4.8h1.8c0.7,0,1.2,0.3,1.2,1c0,0.5-0.3,0.8-0.7,1l0,0c0.4,0.1,0.4,0.4,0.5,0.8l0.4,1.1h-1.1l-0.2-0.7
	c-0.2-0.6-0.4-0.8-0.7-0.8h-0.2v1.5h-1L328.7,4.8L328.7,4.8z M329.6,6.4h0.3c0.4,0,0.7,0,0.7-0.4c0-0.4-0.4-0.4-0.7-0.4h-0.3V6.4z"
	/>
<polygon class="st7" points="332.6,4.8 335.3,4.8 335.3,5.5 333.6,5.5 333.6,6.3 335.2,6.3 335.2,7 333.6,7 333.6,7.8 335.3,7.8 
	335.3,8.6 332.6,8.6 "/>
<path class="st7" d="M336.3,7.6c0.3,0.2,0.6,0.3,1.1,0.3c0.4,0,0.6-0.1,0.6-0.4c0-0.7-1.8-0.3-1.8-1.6c0-0.9,0.9-1.2,1.7-1.2
	c0.4,0,0.7,0.1,1,0.2l-0.1,0.6c-0.3-0.1-0.5-0.2-0.8-0.2c-0.3,0-0.7,0-0.7,0.4c0,0.6,1.8,0.2,1.8,1.6c0,1-0.8,1.2-1.7,1.2
	c-0.4,0-0.8-0.1-1.2-0.2L336.3,7.6z"/>
<polygon class="st7" points="339.9,4.8 342.6,4.8 342.6,5.5 341,5.5 341,6.3 342.5,6.3 342.5,7 341,7 341,7.8 342.7,7.8 342.7,8.6 
	339.9,8.6 "/>
<path class="st7" d="M344.8,4.8h1.2l1.4,3.8h-1.1L346,7.7h-1.4l-0.3,0.8h-1.1L344.8,4.8z M345.4,5.6L345.4,5.6l-0.5,1.5h1L345.4,5.6
	z"/>
<path class="st7" d="M348.2,4.8h1.8c0.7,0,1.2,0.3,1.2,1c0,0.5-0.3,0.8-0.7,1l0,0c0.4,0.1,0.4,0.4,0.5,0.8l0.4,1.1h-1.1l-0.2-0.7
	c-0.2-0.6-0.4-0.8-0.7-0.8h-0.2v1.5h-1L348.2,4.8L348.2,4.8z M349.2,6.4h0.3c0.4,0,0.7,0,0.7-0.4c0-0.4-0.4-0.4-0.7-0.4h-0.3V6.4z"
	/>
<path class="st7" d="M355.4,8.5c-0.3,0.1-0.6,0.2-1.2,0.2c-1,0-2.2-0.5-2.2-2c0-1.3,0.9-2,2.2-2c0.4,0,0.8,0.1,1.2,0.2l-0.1,0.8
	c-0.4-0.2-0.6-0.3-1-0.3c-0.7,0-1.2,0.5-1.2,1.2s0.5,1.2,1.2,1.2c0.4,0,0.7-0.1,1-0.2V8.5z"/>
<polygon class="st7" points="356.2,4.8 357.2,4.8 357.2,6.2 358.4,6.2 358.4,4.8 359.3,4.8 359.3,8.6 358.4,8.6 358.4,6.9 
	357.2,6.9 357.2,8.6 356.2,8.6 "/>
<path class="st7" d="M328.6,11.2h1.2c1.2,0,1.7,0.4,1.7,1.2c0,0.8-0.5,1.2-1.5,1.2h-0.4v1.3h-1L328.6,11.2L328.6,11.2z M329.6,13
	h0.3c0.4,0,0.6-0.1,0.6-0.5c0-0.4-0.3-0.5-0.6-0.5h-0.3V13z"/>
<path class="st7" d="M332.3,11.2h1.8c0.7,0,1.2,0.3,1.2,1c0,0.5-0.3,0.8-0.7,1l0,0c0.4,0.1,0.4,0.4,0.5,0.8l0.4,1.1h-1.1l-0.2-0.7
	c-0.2-0.6-0.4-0.8-0.7-0.8h-0.2v1.5h-1L332.3,11.2L332.3,11.2z M333.3,12.8h0.3c0.4,0,0.7,0,0.7-0.4c0-0.4-0.4-0.4-0.7-0.4h-0.3
	V12.8z"/>
<path class="st7" d="M338.1,11.2c1.2,0,1.9,0.7,1.9,2s-0.6,2-1.9,2c-1.2,0-1.9-0.8-1.9-2C336.2,12,336.8,11.2,338.1,11.2
	 M338.1,14.3c0.6,0,0.9-0.6,0.9-1.2s-0.3-1.2-0.9-1.2c-0.6,0-0.9,0.5-0.9,1.2S337.4,14.3,338.1,14.3"/>
<path class="st7" d="M344.4,15c-0.6,0.2-1.2,0.2-1.5,0.2c-1,0-2.2-0.5-2.2-2c0-1.4,1-2,2.4-2c0.3,0,0.8,0,1.2,0.2l-0.1,0.8
	c-0.4-0.2-0.7-0.3-0.9-0.3c-0.8,0-1.5,0.4-1.5,1.2c0,0.7,0.5,1.2,1.2,1.2c0.2,0,0.3,0,0.4-0.1v-0.7h-0.6v-0.7h1.6L344.4,15L344.4,15
	z"/>
<path class="st7" d="M345.4,11.2h1.8c0.7,0,1.2,0.3,1.2,1c0,0.5-0.3,0.8-0.7,1l0,0c0.4,0.1,0.4,0.4,0.5,0.8l0.4,1.1h-1.1l-0.2-0.7
	c-0.2-0.6-0.4-0.8-0.7-0.8h-0.2v1.5h-1L345.4,11.2L345.4,11.2z M346.5,12.8h0.3c0.4,0,0.7,0,0.7-0.4c0-0.4-0.4-0.4-0.7-0.4h-0.3
	V12.8z"/>
<path class="st7" d="M350.6,11.2h1.2l1.4,3.8h-1.1l-0.3-0.8h-1.4l-0.3,0.8h-1.1L350.6,11.2z M351.2,12L351.2,12l-0.5,1.5h1L351.2,12
	z"/>
<polygon class="st7" points="354,11.2 355.5,11.2 356.4,13.8 356.4,13.8 357.2,11.2 358.7,11.2 358.7,15.1 357.8,15.1 357.8,12.1 
	357.8,12.1 356.8,15.1 355.9,15.1 355,12.1 354.9,12.1 355,15.1 354,15.1 "/>
<path class="st7" d="M363.6,11.2c1.2,0,1.9,0.7,1.9,2s-0.6,2-1.9,2c-1.2,0-1.9-0.8-1.9-2C361.7,12,362.3,11.2,363.6,11.2
	 M363.6,14.3c0.6,0,0.9-0.6,0.9-1.2s-0.3-1.2-0.9-1.2c-0.6,0-0.9,0.5-0.9,1.2S363,14.3,363.6,14.3"/>
<polygon class="st7" points="366.4,11.2 367.7,11.2 369,13.8 369,13.8 368.9,11.2 369.9,11.2 369.9,15.1 368.7,15.1 367.3,12.5 
	367.3,12.5 367.3,15.1 366.4,15.1 "/>
<path class="st7" d="M329.3,25.4l-1.6-6.3h0.9l0.7,3.2c0.2,0.8,0.4,1.6,0.4,2.1l0,0c0.1-0.6,0.3-1.3,0.5-2.2l0.8-3.2h0.9l0.8,3.2
	c0.2,0.7,0.4,1.5,0.4,2.1l0,0c0.1-0.7,0.3-1.4,0.5-2.1l0.8-3.2h0.8l-1.8,6.3h-0.9l-0.8-3.3c-0.2-0.8-0.4-1.4-0.4-2l0,0
	c-0.1,0.6-0.3,1.2-0.4,2l-0.9,3.3L329.3,25.4L329.3,25.4z"/>
<path class="st7" d="M338.5,25.4l-0.1-0.5l0,0c-0.3,0.4-0.7,0.7-1.3,0.7c-0.9,0-1.3-0.6-1.3-1.3c0-1.1,1-1.7,2.7-1.7v-0.2
	c0-0.4-0.1-1.1-1.1-1.1c-0.4,0-0.9,0.1-1.2,0.4l-0.2-0.5c0.4-0.3,0.9-0.4,1.5-0.4c1.3,0,1.7,1,1.7,1.9v1.7c0,0.4,0,0.8,0.1,1.1
	L338.5,25.4L338.5,25.4z M338.3,23.1c-0.9,0-1.9,0.2-1.9,1c0,0.5,0.4,0.8,0.8,0.8c0.6,0,1-0.4,1.1-0.7c0-0.1,0.1-0.2,0.1-0.3
	L338.3,23.1L338.3,23.1z"/>
<path class="st7" d="M341.3,19.6v1.3h1.2v0.6h-1.2v2.4c0,0.5,0.2,0.9,0.6,0.9c0.2,0,0.4,0,0.4-0.1v0.6c-0.2,0.1-0.4,0.1-0.7,0.1
	c-0.4,0-0.7-0.1-0.9-0.4c-0.3-0.3-0.4-0.6-0.4-1.2v-2.4h-0.6v-0.6h0.7v-1.1L341.3,19.6z"/>
<path class="st7" d="M343.8,23.3c0,1.1,0.7,1.6,1.5,1.6c0.6,0,1-0.1,1.2-0.3l0.2,0.6c-0.3,0.1-0.8,0.3-1.5,0.3
	c-1.4,0-2.2-0.9-2.2-2.3s0.8-2.4,2.1-2.4c1.5,0,1.9,1.3,1.9,2.1c0,0.2,0,0.3,0,0.4C347,23.3,343.8,23.3,343.8,23.3z M346.2,22.7
	c0-0.5-0.2-1.3-1.2-1.3c-0.8,0-1.2,0.8-1.2,1.3H346.2z"/>
<path class="st7" d="M347.9,22.3c0-0.5,0-1,0-1.4h0.7v0.9l0,0c0.2-0.6,0.7-1,1.2-1c0.1,0,0.2,0,0.3,0v0.8c-0.1,0-0.2,0-0.3,0
	c-0.6,0-1,0.4-1.1,1.1c0,0.1,0,0.3,0,0.4v2.4H348L347.9,22.3L347.9,22.3z"/>
<path class="st7" d="M350.4,26.5c0.2-0.5,0.4-1.5,0.5-2.2l0.9-0.1c-0.2,0.8-0.6,1.9-0.9,2.2L350.4,26.5z"/>
<polygon class="st7" points="354.6,19.1 355.4,19.1 355.4,24.7 358.1,24.7 358.1,25.4 354.6,25.4 "/>
<path class="st7" d="M361.4,25.4l-0.1-0.5l0,0c-0.3,0.4-0.7,0.7-1.3,0.7c-0.9,0-1.3-0.6-1.3-1.3c0-1.1,1-1.7,2.7-1.7v-0.2
	c0-0.4-0.1-1.1-1.1-1.1c-0.4,0-0.9,0.1-1.2,0.4l-0.2-0.5c0.4-0.3,0.9-0.4,1.5-0.4c1.3,0,1.7,1,1.7,1.9v1.7c0,0.4,0,0.8,0.1,1.1
	L361.4,25.4L361.4,25.4z M361.3,23.1c-0.9,0-1.9,0.2-1.9,1c0,0.5,0.4,0.8,0.8,0.8c0.6,0,1-0.4,1.1-0.7c0-0.1,0.1-0.2,0.1-0.3
	L361.3,23.1L361.3,23.1z"/>
<path class="st7" d="M363.3,22.2c0-0.4,0-0.9,0-1.2h0.7l0.1,0.7l0,0c0.3-0.4,0.7-0.9,1.5-0.9c0.6,0,1.6,0.4,1.6,2v2.7h-0.8v-2.6
	c0-0.7-0.3-1.3-1.1-1.3c-0.5,0-1,0.4-1.1,0.8c0,0.1-0.1,0.3-0.1,0.4v2.7h-0.8L363.3,22.2L363.3,22.2z"/>
<path class="st7" d="M372.2,18.8v5.4c0,0.4,0,0.9,0,1.2h-0.7v-0.8l0,0c-0.3,0.5-0.8,0.9-1.5,0.9c-1.1,0-2-0.9-2-2.3
	c0-1.5,0.9-2.4,2-2.4c0.7,0,1.2,0.4,1.3,0.7l0,0v-2.7C371.4,18.8,372.2,18.8,372.2,18.8z M371.4,22.7c0-0.1,0-0.3,0-0.4
	c-0.1-0.5-0.5-1-1.2-1c-0.9,0-1.3,0.7-1.3,1.8c0,0.9,0.4,1.7,1.3,1.7c0.5,0,1.1-0.4,1.2-1c0-0.1,0-0.3,0-0.4L371.4,22.7L371.4,22.7z
	"/>
<path class="st7" d="M377.9,25.4l-0.1-0.5l0,0c-0.3,0.4-0.7,0.7-1.3,0.7c-0.9,0-1.3-0.6-1.3-1.3c0-1.1,1-1.7,2.7-1.7v-0.2
	c0-0.4-0.1-1.1-1.1-1.1c-0.4,0-0.9,0.1-1.2,0.4l-0.2-0.5c0.4-0.3,0.9-0.4,1.5-0.4c1.3,0,1.7,1,1.7,1.9v1.7c0,0.4,0,0.8,0.1,1.1
	L377.9,25.4L377.9,25.4z M377.8,23.1c-0.9,0-1.9,0.2-1.9,1c0,0.5,0.4,0.8,0.8,0.8c0.6,0,1-0.4,1.1-0.7c0-0.1,0.1-0.2,0.1-0.3
	L377.8,23.1L377.8,23.1z"/>
<path class="st7" d="M379.8,22.2c0-0.4,0-0.9,0-1.2h0.7l0.1,0.7l0,0c0.3-0.4,0.7-0.9,1.5-0.9c0.6,0,1.6,0.4,1.6,2v2.7h-0.8v-2.6
	c0-0.7-0.3-1.3-1.1-1.3c-0.5,0-1,0.4-1.1,0.8c0,0.1-0.1,0.3-0.1,0.4v2.7h-0.9V22.2z"/>
<path class="st7" d="M388.7,18.8v5.4c0,0.4,0,0.9,0,1.2H388v-0.8l0,0c-0.3,0.5-0.8,0.9-1.5,0.9c-1.1,0-2-0.9-2-2.3
	c0-1.5,0.9-2.4,2-2.4c0.7,0,1.2,0.4,1.3,0.7l0,0v-2.7C387.9,18.8,388.7,18.8,388.7,18.8z M387.9,22.7c0-0.1,0-0.3,0-0.4
	c-0.1-0.5-0.5-1-1.2-1c-0.9,0-1.3,0.7-1.3,1.8c0,0.9,0.4,1.7,1.3,1.7c0.5,0,1.1-0.4,1.2-1c0-0.1,0-0.3,0-0.4L387.9,22.7L387.9,22.7z
	"/>
<polygon class="st7" points="331.5,32.4 329,32.4 329,34.6 331.8,34.6 331.8,35.3 328.2,35.3 328.2,29 331.6,29 331.6,29.7 
	329,29.7 329,31.6 331.5,31.6 "/>
<path class="st7" d="M335.9,35.1c-0.2,0.1-0.7,0.3-1.3,0.3c-1.3,0-2.2-0.9-2.2-2.3c0-1.4,1-2.4,2.4-2.4c0.4,0,0.9,0.1,1.2,0.3
	l-0.2,0.6c-0.2-0.1-0.5-0.2-1-0.2c-1.1,0-1.6,0.8-1.6,1.7c0,1.1,0.7,1.7,1.6,1.7c0.4,0,0.8-0.1,1-0.3L335.9,35.1z"/>
<path class="st7" d="M340.8,33c0,1.7-1.2,2.4-2.2,2.4c-1.2,0-2.1-0.9-2.1-2.3c0-1.5,1-2.4,2.2-2.4C340,30.7,340.8,31.6,340.8,33
	 M337.3,33.1c0,1,0.5,1.7,1.3,1.7c0.8,0,1.3-0.7,1.3-1.8c0-0.8-0.4-1.7-1.3-1.7C337.7,31.3,337.3,32.2,337.3,33.1"/>
<path class="st7" d="M341.7,34.4c0.3,0.2,0.7,0.4,1.1,0.4c0.6,0,0.9-0.3,0.9-0.7c0-0.4-0.3-0.6-0.8-0.8c-0.8-0.3-1.2-0.7-1.2-1.2
	c0-0.7,0.6-1.3,1.5-1.3c0.4,0,0.9,0.1,1.1,0.3l-0.2,0.6c-0.2-0.1-0.5-0.3-0.9-0.3c-0.4,0-0.7,0.3-0.7,0.6s0.3,0.5,0.9,0.8
	c0.8,0.3,1.2,0.7,1.2,1.3c0,0.8-0.6,1.3-1.7,1.3c-0.5,0-1-0.1-1.2-0.3L341.7,34.4z"/>
<path class="st7" d="M345.7,30.8l1,2.7c0.1,0.3,0.2,0.6,0.3,0.9l0,0c0.1-0.3,0.2-0.6,0.3-1l0.9-2.7h0.9l-1.2,3.3
	c-0.6,1.5-1,2.3-1.5,2.8c-0.4,0.4-0.8,0.5-1,0.5l-0.3-0.7c0.2-0.1,0.4-0.2,0.7-0.4c0.3-0.2,0.5-0.5,0.7-0.9c0-0.1,0.1-0.2,0.1-0.2
	c0-0.1,0-0.1-0.1-0.2l-1.7-4.2L345.7,30.8L345.7,30.8z"/>
<path class="st7" d="M349.6,34.4c0.3,0.2,0.7,0.4,1.1,0.4c0.6,0,0.9-0.3,0.9-0.7c0-0.4-0.3-0.6-0.8-0.8c-0.8-0.3-1.2-0.7-1.2-1.2
	c0-0.7,0.6-1.3,1.5-1.3c0.4,0,0.9,0.1,1.1,0.3l-0.2,0.6c-0.2-0.1-0.5-0.3-0.9-0.3c-0.4,0-0.7,0.3-0.7,0.6s0.3,0.5,0.9,0.8
	c0.8,0.3,1.2,0.7,1.2,1.3c0,0.8-0.6,1.3-1.7,1.3c-0.5,0-1-0.1-1.2-0.3L349.6,34.4z"/>
<path class="st7" d="M354.2,29.5v1.3h1.2v0.6h-1.2v2.4c0,0.5,0.2,0.9,0.6,0.9c0.2,0,0.4,0,0.4-0.1v0.6c-0.2,0.1-0.4,0.1-0.7,0.1
	c-0.4,0-0.7-0.1-0.9-0.4c-0.3-0.3-0.4-0.6-0.4-1.2v-2.5h-0.7v-0.6h0.7v-1.1L354.2,29.5z"/>
<path class="st7" d="M356.7,33.2c0,1.1,0.7,1.6,1.5,1.6c0.6,0,1-0.1,1.2-0.3l0.2,0.6c-0.3,0.1-0.8,0.3-1.5,0.3
	c-1.4,0-2.2-0.9-2.2-2.3c0-1.4,0.8-2.4,2.1-2.4c1.5,0,1.9,1.3,1.9,2.1c0,0.2,0,0.3,0,0.4C359.9,33.2,356.7,33.2,356.7,33.2z
	 M359.1,32.5c0-0.5-0.2-1.3-1.2-1.3c-0.8,0-1.2,0.8-1.2,1.3H359.1z"/>
<path class="st7" d="M360.9,32c0-0.4,0-0.9,0-1.2h0.7v0.7l0,0c0.3-0.4,0.7-0.8,1.4-0.8c0.6,0,1.1,0.4,1.2,0.9l0,0
	c0.2-0.3,0.4-0.4,0.5-0.6c0.3-0.2,0.5-0.4,1-0.4c0.6,0,1.5,0.4,1.5,2v2.7h-0.8v-2.6c0-0.9-0.4-1.4-1-1.4c-0.4,0-0.8,0.4-1,0.7
	c0,0.1-0.1,0.3-0.1,0.4v2.7h-0.8v-2.7c0-0.7-0.4-1.2-1-1.2c-0.5,0-0.9,0.4-1,0.8c-0.1,0.1-0.1,0.3-0.1,0.4v2.7h-0.8L360.9,32
	L360.9,32z"/>
<path class="st7" d="M368.4,34.4c0.3,0.2,0.7,0.4,1.1,0.4c0.6,0,0.9-0.3,0.9-0.7c0-0.4-0.3-0.6-0.8-0.8c-0.8-0.3-1.2-0.7-1.2-1.2
	c0-0.7,0.6-1.3,1.5-1.3c0.4,0,0.9,0.1,1.1,0.3l-0.2,0.6c-0.2-0.1-0.5-0.3-0.9-0.3c-0.4,0-0.7,0.3-0.7,0.6s0.3,0.5,0.9,0.8
	c0.8,0.3,1.2,0.7,1.2,1.3c0,0.8-0.6,1.3-1.7,1.3c-0.5,0-1-0.1-1.2-0.3L368.4,34.4z"/>
<line class="st8" x1="323.2" y1="0.2" x2="323.2" y2="40.6"/>
</svg>
