<?xml version="1.0" encoding="utf-8"?>
<!-- Generator: Adobe Illustrator 16.0.4, SVG Export Plug-In . SVG Version: 6.00 Build 0)  -->
<!DOCTYPE svg PUBLIC "-//W3C//DTD SVG 1.1//EN" "http://www.w3.org/Graphics/SVG/1.1/DTD/svg11.dtd" [
	<!ENTITY st0 "fill:#FFFDFD;">
	<!ENTITY st1 "fill:#FFFFFF;">
]>
<svg version="1.1" id="Layer_1" xmlns="http://www.w3.org/2000/svg" xmlns:xlink="http://www.w3.org/1999/xlink" x="0px" y="0px"
	 width="33.667px" height="10.187px" viewBox="-3.833 34.167 33.667 10.187"
	 style="enable-background:new -3.833 34.167 33.667 10.187;" xml:space="preserve">
<g>
	<path style="&st0;" d="M24.327,37.149c0.7-0.597,1.605-0.782,2.429-0.597c-0.576,0-1.152,0.185-1.626,0.576
		c-1.05,0.885-1.194,2.449-0.309,3.499c0.885,1.05,2.449,1.193,3.499,0.309c0.186-0.165,0.35-0.351,0.494-0.556
		c-0.165,0.432-0.453,0.823-0.823,1.152c-1.214,1.009-3.005,0.844-4.013-0.35C22.948,39.949,23.113,38.158,24.327,37.149"/>
	<path style="&st0;" d="M27.723,37.252c0.576,0.329,0.926,0.885,1.008,1.482c-0.144-0.391-0.412-0.721-0.782-0.947
		c-0.844-0.494-1.935-0.186-2.408,0.659c-0.494,0.844-0.185,1.935,0.659,2.407c0.165,0.083,0.329,0.145,0.494,0.186
		c-0.33,0-0.659-0.103-0.968-0.268c-0.967-0.555-1.317-1.79-0.761-2.778C25.521,37.046,26.756,36.697,27.723,37.252"/>
	<path style="&st0;" d="M28.176,40.031c-0.226,0.371-0.576,0.577-0.967,0.618c0.247-0.082,0.474-0.247,0.618-0.494
		c0.329-0.535,0.165-1.255-0.391-1.585C26.9,38.24,26.18,38.405,25.85,38.96c-0.062,0.103-0.103,0.206-0.124,0.309
		c0-0.206,0.062-0.433,0.186-0.618c0.371-0.617,1.194-0.823,1.811-0.453C28.361,38.59,28.546,39.393,28.176,40.031"/>
</g>
<g>
	<path style="&st1;" d="M24.163,44.209c-0.103,0.021-0.206,0.041-0.309,0.041c-0.432,0-0.741-0.227-0.741-0.68
		c0-0.473,0.288-0.72,0.741-0.72c0.082,0,0.206,0.021,0.309,0.062l-0.021,0.227c-0.103-0.062-0.206-0.062-0.288-0.062
		c-0.288,0-0.453,0.206-0.453,0.493c0,0.268,0.165,0.494,0.453,0.494c0.103,0,0.226-0.02,0.288-0.062L24.163,44.209z"/>
	<path style="&st1;" d="M25.377,44.209c-0.103,0.021-0.206,0.041-0.309,0.041c-0.433,0-0.741-0.227-0.741-0.68
		c0-0.473,0.288-0.72,0.741-0.72c0.082,0,0.206,0.021,0.309,0.062l-0.021,0.227c-0.103-0.062-0.206-0.062-0.288-0.062
		c-0.288,0-0.453,0.206-0.453,0.493c0,0.268,0.165,0.494,0.453,0.494c0.103,0,0.226-0.02,0.288-0.062L25.377,44.209z"/>
	<path style="&st1;" d="M26.015,42.871h0.309l0.535,1.358H26.55l-0.123-0.309h-0.556l-0.124,0.309h-0.289L26.015,42.871z
		 M26.159,43.139L26.159,43.139l-0.206,0.556h0.391L26.159,43.139z"/>
	<path style="&st1;" d="M27.106,42.871h0.761v0.206h-0.473v0.329h0.453v0.205h-0.453v0.598h-0.268L27.106,42.871L27.106,42.871z"/>
	<path style="&st1;" d="M28.896,43.118c-0.083-0.041-0.186-0.062-0.268-0.062c-0.103,0-0.206,0.041-0.206,0.186
		c0,0.226,0.597,0.144,0.597,0.596c0,0.289-0.227,0.412-0.515,0.412c-0.144,0-0.206-0.021-0.35-0.062l0.021-0.247
		c0.103,0.041,0.206,0.082,0.309,0.082c0.103,0,0.247-0.062,0.247-0.186c0-0.268-0.597-0.144-0.597-0.596
		c0-0.31,0.227-0.412,0.474-0.412c0.123,0,0.226,0.021,0.329,0.041L28.896,43.118z"/>
</g>
<path style="&st1;" d="M3.684,38.508c-0.083-0.103-0.268-0.268-0.35-0.35c-0.144-0.145-0.185-0.186-0.185-0.453v-1.07
	c0-0.165-0.247-0.124-0.247,0c0,0-0.021,1.873,0,2.038S2.84,38.96,3.087,39.125c0.288,0.185,0.7,0.288,0.7,0.288
	s0-0.412,0.021-0.577C3.787,38.693,3.746,38.611,3.684,38.508 M3.561,39.104L3.561,39.104c-0.391-0.165-0.473-0.123-0.412-0.741
	C3.602,38.652,3.581,38.755,3.561,39.104 M4.034,38.858c0,0.165,0.021,0.576,0.021,0.576s0.412-0.124,0.7-0.288
	c0.247-0.165,0.185-0.288,0.185-0.453c0.021-0.165,0-2.038,0-2.038c0-0.144-0.247-0.165-0.247,0v1.091
	c0,0.247-0.041,0.289-0.185,0.453c-0.103,0.103-0.288,0.268-0.35,0.35C4.055,38.611,4.013,38.693,4.034,38.858 M4.672,38.364
	c0.042,0.597-0.021,0.576-0.412,0.741l0,0C4.24,38.755,4.199,38.652,4.672,38.364 M4.219,37.417c-0.144-0.247,0,0-0.185-0.329
	v-1.194c0-0.185-0.227-0.165-0.227,0v1.194c0,0-0.206,0.329-0.268,0.473c-0.062,0.144-0.124,0.288,0.062,0.515
	c0.021,0.021,0.042,0.062,0.309,0.329l0,0c0,0,0,0,0.247-0.247C4.466,37.849,4.363,37.664,4.219,37.417 M3.911,38.117
	c-0.453-0.247-0.124-0.576,0-0.803l0.021,0.021C4.26,37.829,4.178,37.911,3.911,38.117 M3.767,39.969
	c-0.021-0.227-0.103-0.432-0.577-0.618c-0.412-0.144-0.967-0.185-1.379-0.247c-0.412-0.062-1.111-0.185-1.44-0.514
	c0.268,0.864,0.905,1.214,1.564,1.358c0.741,0.165,1.399,0.226,1.811,0.514l0.042,0.021C3.746,40.278,3.787,40.216,3.767,39.969
	 M3.561,40.093c-0.35-0.144-0.597-0.165-1.235-0.309c-0.638-0.124-1.029-0.247-1.358-0.617c0.556,0.206,1.441,0.288,1.935,0.391
	C3.375,39.681,3.52,39.805,3.561,40.093L3.561,40.093z M4.034,40.484l0.041-0.021c0.412-0.288,1.07-0.35,1.811-0.514
	c0.659-0.144,1.297-0.494,1.564-1.358c-0.35,0.329-1.029,0.432-1.441,0.514c-0.412,0.062-0.988,0.103-1.379,0.247
	c-0.474,0.186-0.556,0.391-0.576,0.618C4.034,40.216,4.055,40.278,4.034,40.484 M4.24,40.093c0.062-0.288,0.185-0.412,0.679-0.515
	s1.379-0.185,1.935-0.391c-0.35,0.371-0.72,0.473-1.358,0.618C4.836,39.907,4.59,39.949,4.24,40.093L4.24,40.093z M3.746,41.061
	c0-0.453-0.268-0.598-0.658-0.7c-0.391-0.103-0.947-0.186-1.4-0.309c-0.473-0.144-0.72-0.226-1.049-0.556
	c0.062,0.659,0.535,1.132,1.111,1.338c0.576,0.205,0.535,0.164,0.864,0.246c0.309,0.083,0.371,0.186,0.371,0.392v0.392h0.761
	C3.767,40.957,3.746,41.513,3.746,41.061 M3.52,41.596H3.211c0,0,0-0.124-0.021-0.351c-0.021-0.288-0.37-0.329-0.926-0.474
	c-0.391-0.103-0.906-0.246-1.132-0.638c0.144,0.062,0.412,0.185,0.865,0.268c0.432,0.083,0.679,0.144,1.07,0.227
	c0.371,0.082,0.453,0.309,0.453,0.556V41.596z M4.055,41.842h0.761v-0.391c0-0.186,0.062-0.309,0.371-0.391
	c0.309-0.083,0.288-0.042,0.864-0.248c0.577-0.205,1.05-0.679,1.111-1.337c-0.309,0.35-0.576,0.432-1.049,0.556
	c-0.474,0.144-1.009,0.206-1.399,0.309c-0.391,0.103-0.659,0.227-0.659,0.699C4.055,41.533,4.034,40.957,4.055,41.842 M4.281,41.184
	c0-0.247,0.083-0.494,0.453-0.556c0.391-0.083,0.638-0.124,1.07-0.227c0.453-0.103,0.721-0.206,0.865-0.268
	c-0.227,0.392-0.741,0.535-1.132,0.638c-0.577,0.165-0.906,0.186-0.926,0.474C4.59,41.472,4.59,41.596,4.59,41.596H4.281V41.184z
	 M2.182,44.003c-0.103,0.021-0.206,0.042-0.309,0.042c-0.432,0-0.741-0.227-0.741-0.68c0-0.474,0.288-0.721,0.741-0.721
	c0.082,0,0.206,0.021,0.309,0.062l-0.021,0.226c-0.103-0.062-0.206-0.062-0.288-0.062c-0.288,0-0.453,0.206-0.453,0.494
	c0,0.268,0.165,0.473,0.453,0.473c0.103,0,0.226-0.02,0.288-0.061L2.182,44.003z M3.437,42.933c-0.103-0.041-0.247-0.062-0.35-0.062
	c-0.309,0-0.494,0.206-0.494,0.494c0,0.268,0.165,0.473,0.453,0.473c0.083,0,0.124,0,0.186-0.02v-0.351H2.943v-0.206h0.556v0.721
	c-0.144,0.041-0.288,0.062-0.433,0.062c-0.432,0-0.741-0.227-0.741-0.68c0-0.474,0.288-0.721,0.741-0.721
	c0.165,0,0.289,0.021,0.391,0.062L3.437,42.933z M3.767,42.665h0.268v1.358H3.767V42.665z M5.063,43.488H4.672l0.206-0.556l0,0
	L5.063,43.488z M4.199,44.023h0.288l0.124-0.309h0.535l0.124,0.309h0.288l-0.535-1.358H4.713L4.199,44.023z M5.969,42.871h0.082
	c0.144,0,0.288,0.021,0.288,0.186c0,0.164-0.144,0.186-0.288,0.186H5.969V42.871z M5.701,44.023h0.268v-0.556h0.082
	c0.124,0,0.144,0.042,0.186,0.144l0.165,0.434h0.309L6.483,43.51c-0.021-0.062-0.062-0.124-0.145-0.145l0,0
	c0.165-0.021,0.289-0.165,0.289-0.309c0-0.371-0.35-0.371-0.638-0.371H5.701V44.023z"/>
<g>
	<path style="&st1;" d="M9.55,37.993h0.165c0.124,0,0.247,0.021,0.247,0.186c0,0.082-0.062,0.144-0.144,0.144l0,0
		c0.021,0.021,0.041,0.021,0.062,0.062l0.124,0.268H9.899l-0.103-0.227c-0.021-0.062-0.062-0.062-0.103-0.062H9.632v0.288H9.529
		v-0.659H9.55z M9.632,38.281h0.082c0.083,0,0.144-0.041,0.144-0.103c0-0.062-0.041-0.103-0.124-0.103H9.653v0.206H9.632z"/>
	<path style="&st1;" d="M10.146,37.993h0.371v0.083H10.25v0.185h0.247v0.083H10.25v0.206h0.268v0.083h-0.371V37.993z"/>
	<path style="&st1;" d="M10.99,38.096c-0.041-0.021-0.082-0.021-0.123-0.021c-0.062,0-0.124,0.021-0.124,0.083
		c0,0.123,0.288,0.103,0.288,0.309c0,0.144-0.103,0.185-0.247,0.185c-0.041,0-0.083-0.021-0.124-0.021v-0.083
		c0.041,0.021,0.083,0.042,0.144,0.042c0.062,0,0.124-0.021,0.124-0.103c0-0.144-0.288-0.103-0.288-0.309
		c0-0.124,0.083-0.186,0.206-0.186c0.042,0,0.103,0,0.144,0.021V38.096z"/>
	<path style="&st1;" d="M11.176,37.993h0.371v0.083h-0.268v0.185h0.247v0.083h-0.247v0.206h0.268v0.083h-0.371V37.993z"/>
	<path style="&st1;" d="M11.937,37.993h0.103l0.268,0.659h-0.103l-0.062-0.165h-0.329l-0.062,0.165h-0.103L11.937,37.993z
		 M11.979,38.096l-0.124,0.329h0.268L11.979,38.096z"/>
	<path style="&st1;" d="M12.411,37.993h0.165c0.124,0,0.247,0.021,0.247,0.186c0,0.082-0.062,0.144-0.144,0.144l0,0
		c0.021,0.021,0.041,0.021,0.062,0.062l0.124,0.268H12.76l-0.103-0.227c-0.021-0.062-0.062-0.062-0.103-0.062h-0.062v0.288H12.39
		v-0.659H12.411z M12.514,38.281h0.082c0.083,0,0.144-0.041,0.144-0.103c0-0.062-0.041-0.103-0.124-0.103h-0.082v0.206H12.514z"/>
	<path style="&st1;" d="M13.46,38.117c-0.042-0.021-0.083-0.041-0.144-0.041c-0.145,0-0.247,0.103-0.247,0.247
		s0.103,0.247,0.247,0.247c0.041,0,0.103-0.021,0.144-0.041v0.083c-0.042,0.021-0.103,0.021-0.144,0.021
		c-0.206,0-0.35-0.124-0.35-0.35c0-0.206,0.144-0.329,0.35-0.329c0.041,0,0.103,0,0.144,0.021V38.117z"/>
	<path style="&st1;" d="M13.604,37.993h0.103v0.268h0.309v-0.268h0.103v0.659h-0.103v-0.288h-0.309v0.288h-0.103V37.993z"/>
	<path style="&st1;" d="M14.592,37.993h0.165c0.124,0,0.247,0.042,0.247,0.186s-0.103,0.206-0.227,0.206h-0.082v0.268h-0.103V37.993
		z M14.675,38.302h0.082c0.062,0,0.124-0.021,0.124-0.124c0-0.083-0.083-0.103-0.144-0.103h-0.083L14.675,38.302L14.675,38.302z"/>
	<path style="&st1;" d="M15.127,37.993h0.165c0.124,0,0.247,0.021,0.247,0.186c0,0.082-0.062,0.144-0.144,0.144l0,0
		c0.021,0.021,0.041,0.021,0.062,0.062l0.124,0.268h-0.103l-0.103-0.227c-0.021-0.062-0.062-0.062-0.103-0.062h-0.062v0.288h-0.103
		L15.127,37.993L15.127,37.993z M15.209,38.281h0.083c0.083,0,0.144-0.041,0.144-0.103c0-0.062-0.041-0.103-0.124-0.103H15.23
		L15.209,38.281L15.209,38.281z"/>
	<path style="&st1;" d="M16.012,37.993c0.206,0,0.309,0.144,0.309,0.33c0,0.206-0.124,0.329-0.309,0.329
		c-0.206,0-0.309-0.144-0.309-0.329C15.683,38.137,15.807,37.993,16.012,37.993z M16.012,38.59c0.144,0,0.206-0.124,0.206-0.247
		s-0.062-0.247-0.206-0.247s-0.206,0.124-0.206,0.247C15.786,38.467,15.848,38.59,16.012,38.59z"/>
	<path style="&st1;" d="M16.979,38.117c-0.041-0.021-0.103-0.041-0.185-0.041c-0.144,0-0.247,0.103-0.247,0.247
		s0.103,0.247,0.247,0.247c0.062,0,0.083,0,0.103-0.021v-0.206h-0.144v-0.083h0.226v0.33c-0.041,0.021-0.103,0.021-0.206,0.021
		c-0.206,0-0.35-0.124-0.35-0.35c0-0.206,0.144-0.329,0.35-0.329c0.103,0,0.144,0.021,0.185,0.041L16.979,38.117z"/>
	<path style="&st1;" d="M17.165,37.993h0.165c0.124,0,0.247,0.021,0.247,0.186c0,0.082-0.062,0.144-0.144,0.144l0,0
		c0.021,0.021,0.041,0.021,0.062,0.062l0.124,0.268h-0.103l-0.103-0.227c-0.021-0.062-0.062-0.062-0.103-0.062h-0.062v0.288h-0.103
		L17.165,37.993L17.165,37.993z M17.268,38.281h0.083c0.083,0,0.144-0.041,0.144-0.103c0-0.062-0.041-0.103-0.124-0.103h-0.082
		L17.268,38.281L17.268,38.281z"/>
	<path style="&st1;" d="M17.968,37.993h0.103l0.268,0.659h-0.103l-0.062-0.165h-0.329l-0.062,0.165H17.7L17.968,37.993z
		 M18.029,38.096l-0.124,0.329h0.268L18.029,38.096z"/>
	<path style="&st1;" d="M18.461,37.993h0.144l0.206,0.535l0.206-0.535h0.144v0.659h-0.103v-0.556l0,0l-0.206,0.556h-0.082
		l-0.206-0.556l0,0v0.556h-0.103V37.993z"/>
	<path style="&st1;" d="M19.923,37.993c0.206,0,0.309,0.144,0.309,0.33c0,0.206-0.124,0.329-0.309,0.329
		c-0.206,0-0.309-0.144-0.309-0.329C19.614,38.137,19.738,37.993,19.923,37.993z M19.923,38.59c0.144,0,0.206-0.124,0.206-0.247
		s-0.062-0.247-0.206-0.247s-0.206,0.124-0.206,0.247S19.779,38.59,19.923,38.59z"/>
	<path style="&st1;" d="M20.396,37.993h0.124l0.288,0.515l0,0v-0.515h0.103v0.659h-0.124l-0.288-0.535l0,0v0.535h-0.103V37.993z"/>
	<path style="&st1;" d="M10.373,40.463c-0.083,0.021-0.165,0.041-0.247,0.041c-0.35,0-0.576-0.164-0.576-0.535
		s0.227-0.556,0.576-0.556c0.062,0,0.165,0.021,0.247,0.041l-0.021,0.165c-0.083-0.041-0.144-0.062-0.227-0.062
		c-0.227,0-0.35,0.165-0.35,0.391c0,0.206,0.123,0.37,0.35,0.37c0.083,0,0.186-0.021,0.227-0.041L10.373,40.463z"/>
	<path style="&st1;" d="M10.517,39.331h0.206v1.132h-0.206V39.331z"/>
	<path style="&st1;" d="M10.97,39.352h0.206v0.186H10.97V39.352z M10.97,39.702h0.206v0.782H10.97V39.702z"/>
	<path style="&st1;" d="M11.381,39.702h0.186v0.103l0,0c0.062-0.103,0.165-0.124,0.226-0.124c0.103,0,0.186,0.041,0.227,0.144
		c0.041-0.103,0.144-0.144,0.247-0.144c0.185,0,0.247,0.124,0.247,0.309v0.494h-0.206V40.01c0-0.083,0-0.185-0.124-0.185
		c-0.144,0-0.144,0.165-0.144,0.268v0.37h-0.206V39.99c0-0.083,0-0.185-0.124-0.185c-0.144,0-0.144,0.165-0.144,0.268v0.37h-0.206
		L11.381,39.702L11.381,39.702z"/>
	<path style="&st1;" d="M12.802,39.743c0.082-0.041,0.185-0.062,0.268-0.062c0.247,0,0.329,0.103,0.329,0.329v0.103
		c0,0.082,0,0.144,0,0.206c0,0.062,0,0.124,0,0.165h-0.185c0-0.042,0-0.083,0-0.124l0,0c-0.042,0.082-0.144,0.144-0.247,0.144
		c-0.144,0-0.268-0.082-0.268-0.226c0-0.124,0.062-0.185,0.124-0.227c0.083-0.041,0.185-0.041,0.268-0.041h0.103
		c0-0.124-0.062-0.165-0.186-0.165c-0.082,0-0.165,0.041-0.247,0.082L12.802,39.743z M13.028,40.34c0.062,0,0.103-0.021,0.144-0.062
		c0.042-0.041,0.042-0.103,0.042-0.165h-0.083c-0.082,0-0.226,0.021-0.226,0.144C12.905,40.319,12.966,40.34,13.028,40.34z"/>
	<path style="&st1;" d="M13.687,39.846h-0.144v-0.144h0.144v-0.165l0.206-0.062v0.227h0.185v0.144h-0.185v0.371
		c0,0.062,0.021,0.124,0.103,0.124c0.042,0,0.062,0,0.083-0.021v0.165c-0.041,0.02-0.083,0.02-0.144,0.02
		c-0.165,0-0.247-0.103-0.247-0.247V39.846z"/>
	<path style="&st1;" d="M14.839,40.422c-0.083,0.041-0.165,0.062-0.268,0.062c-0.268,0-0.412-0.144-0.412-0.412
		c0-0.227,0.124-0.412,0.37-0.412c0.289,0,0.371,0.206,0.371,0.474h-0.535c0,0.124,0.103,0.206,0.227,0.206
		c0.103,0,0.185-0.042,0.268-0.083v0.165H14.839z M14.716,40.01c0-0.103-0.062-0.185-0.165-0.185c-0.103,0-0.165,0.082-0.186,0.185
		H14.716z"/>
	<path style="&st1;" d="M16.3,40.463c-0.082,0.021-0.165,0.041-0.247,0.041c-0.35,0-0.577-0.164-0.577-0.535
		s0.227-0.556,0.577-0.556c0.062,0,0.165,0.021,0.247,0.041l-0.021,0.165c-0.082-0.041-0.144-0.062-0.226-0.062
		c-0.227,0-0.35,0.165-0.35,0.391c0,0.206,0.124,0.37,0.35,0.37c0.082,0,0.185-0.021,0.226-0.041L16.3,40.463z"/>
	<path style="&st1;" d="M16.465,39.331h0.206v0.453l0,0c0.062-0.082,0.144-0.124,0.247-0.124c0.185,0,0.268,0.124,0.268,0.309v0.494
		h-0.206v-0.412c0-0.103,0-0.226-0.124-0.226c-0.144,0-0.185,0.165-0.185,0.268v0.391h-0.206V39.331z"/>
	<path style="&st1;" d="M17.433,39.743c0.082-0.041,0.185-0.062,0.268-0.062c0.247,0,0.329,0.103,0.329,0.329v0.103
		c0,0.082,0,0.144,0,0.206c0,0.062,0,0.124,0,0.165h-0.185c0-0.042,0-0.083,0-0.124l0,0c-0.042,0.082-0.144,0.144-0.247,0.144
		c-0.144,0-0.268-0.082-0.268-0.226c0-0.124,0.062-0.185,0.124-0.227c0.082-0.041,0.185-0.041,0.268-0.041h0.103
		c0-0.124-0.062-0.165-0.186-0.165c-0.082,0-0.165,0.041-0.247,0.082L17.433,39.743z M17.68,40.34c0.062,0,0.103-0.021,0.144-0.062
		c0.041-0.041,0.041-0.103,0.041-0.165h-0.083c-0.082,0-0.226,0.021-0.226,0.144C17.535,40.319,17.597,40.34,17.68,40.34z"/>
	<path style="&st1;" d="M18.256,39.702h0.185v0.103l0,0c0.062-0.083,0.144-0.124,0.247-0.124c0.185,0,0.268,0.124,0.268,0.309v0.494
		H18.75v-0.412c0-0.103,0-0.227-0.124-0.227c-0.144,0-0.185,0.165-0.185,0.268v0.391h-0.206L18.256,39.702L18.256,39.702z"/>
	<path style="&st1;" d="M19.923,39.702v0.7c0,0.206-0.083,0.411-0.412,0.411c-0.083,0-0.165-0.02-0.268-0.062l0.021-0.165
		c0.062,0.042,0.165,0.062,0.227,0.062c0.226,0,0.226-0.165,0.226-0.309l0,0c-0.041,0.062-0.123,0.123-0.247,0.123
		c-0.227,0-0.309-0.185-0.309-0.391c0-0.186,0.103-0.412,0.33-0.412c0.103,0,0.185,0.042,0.247,0.124l0,0v-0.103L19.923,39.702
		L19.923,39.702z M19.717,40.072c0-0.124-0.062-0.247-0.165-0.247c-0.144,0-0.185,0.124-0.185,0.247
		c0,0.103,0.062,0.226,0.165,0.226C19.655,40.319,19.717,40.216,19.717,40.072z"/>
	<path style="&st1;" d="M20.767,40.422c-0.082,0.041-0.165,0.062-0.268,0.062c-0.268,0-0.412-0.144-0.412-0.412
		c0-0.227,0.124-0.412,0.371-0.412c0.288,0,0.371,0.206,0.371,0.474h-0.535c0,0.124,0.103,0.206,0.226,0.206
		c0.103,0,0.186-0.042,0.268-0.083v0.165H20.767z M20.643,40.01c0-0.103-0.062-0.185-0.165-0.185c-0.124,0-0.165,0.082-0.185,0.185
		H20.643z"/>
	<path style="&st1;" d="M21.034,40.257h0.227l-0.144,0.371h-0.186L21.034,40.257z"/>
	<path style="&st1;" d="M9.899,41.184h0.247l0.412,1.049h-0.226l-0.083-0.246H9.817l-0.083,0.246H9.509L9.899,41.184z
		 M10.023,41.389L10.023,41.389l-0.165,0.433h0.309L10.023,41.389z"/>
	<path style="&st1;" d="M11.402,41.472v0.7c0,0.205-0.083,0.411-0.412,0.411c-0.082,0-0.165-0.021-0.267-0.062l0.021-0.165
		c0.062,0.042,0.165,0.062,0.226,0.062c0.227,0,0.227-0.164,0.227-0.309l0,0c-0.041,0.062-0.124,0.123-0.247,0.123
		c-0.226,0-0.309-0.185-0.309-0.391c0-0.186,0.103-0.411,0.329-0.411c0.103,0,0.186,0.041,0.247,0.123l0,0v-0.082H11.402z
		 M11.196,41.842c0-0.123-0.062-0.246-0.165-0.246c-0.144,0-0.186,0.123-0.186,0.246c0,0.104,0.062,0.227,0.165,0.227
		C11.155,42.089,11.196,41.986,11.196,41.842z"/>
	<path style="&st1;" d="M11.628,41.472h0.186v0.185l0,0c0-0.082,0.082-0.205,0.206-0.205c0.021,0,0.041,0,0.062,0v0.205
		c-0.021-0.02-0.062-0.02-0.082-0.02c-0.165,0-0.165,0.205-0.165,0.309v0.287h-0.206V41.472z"/>
	<path style="&st1;" d="M12.246,41.121h0.206v0.186h-0.206V41.121z M12.246,41.472h0.206v0.782h-0.206V41.472z"/>
	<path style="&st1;" d="M13.172,41.637c-0.041-0.021-0.082-0.021-0.144-0.021c-0.123,0-0.206,0.104-0.206,0.248
		c0,0.144,0.062,0.246,0.206,0.246c0.062,0,0.124-0.021,0.165-0.041v0.164c-0.062,0.021-0.124,0.021-0.206,0.021
		c-0.247,0-0.391-0.165-0.391-0.412c0-0.227,0.124-0.411,0.371-0.411c0.083,0,0.144,0,0.206,0.021V41.637z"/>
	<path style="&st1;" d="M14.078,42.254h-0.185V42.15l0,0c-0.062,0.082-0.144,0.124-0.247,0.124c-0.185,0-0.268-0.124-0.268-0.31
		v-0.493h0.206v0.411c0,0.104,0,0.227,0.123,0.227c0.144,0,0.186-0.164,0.186-0.268v-0.37h0.206L14.078,42.254L14.078,42.254z"/>
	<path style="&st1;" d="M14.304,41.102h0.206v1.131h-0.206V41.102z"/>
	<path style="&st1;" d="M14.798,41.615h-0.144v-0.144h0.144v-0.165l0.206-0.062v0.227h0.185v0.144h-0.185v0.371
		c0,0.062,0.021,0.123,0.103,0.123c0.041,0,0.062,0,0.082-0.021v0.165c-0.041,0.021-0.082,0.021-0.144,0.021
		c-0.165,0-0.247-0.103-0.247-0.247V41.615z"/>
	<path style="&st1;" d="M16.054,42.254h-0.186V42.15l0,0c-0.062,0.082-0.144,0.124-0.247,0.124c-0.185,0-0.268-0.124-0.268-0.31
		v-0.493h0.206v0.411c0,0.104,0,0.227,0.124,0.227c0.144,0,0.185-0.164,0.185-0.268v-0.37h0.206L16.054,42.254L16.054,42.254z"/>
	<path style="&st1;" d="M16.3,41.472h0.165v0.185l0,0c0-0.082,0.082-0.205,0.206-0.205c0.021,0,0.041,0,0.062,0v0.205
		c-0.021-0.02-0.062-0.02-0.083-0.02c-0.165,0-0.165,0.205-0.165,0.309v0.287H16.28L16.3,41.472L16.3,41.472z"/>
	<path style="&st1;" d="M17.515,42.191c-0.082,0.041-0.165,0.062-0.268,0.062c-0.268,0-0.412-0.145-0.412-0.412
		c0-0.227,0.124-0.411,0.371-0.411c0.288,0,0.371,0.206,0.371,0.474h-0.535c0,0.123,0.103,0.205,0.226,0.205
		c0.103,0,0.186-0.041,0.268-0.082v0.164H17.515z M17.391,41.78c0-0.103-0.062-0.185-0.165-0.185s-0.165,0.082-0.185,0.185H17.391z"
		/>
	<path style="&st1;" d="M18.214,41.513c0.083-0.041,0.186-0.062,0.268-0.062c0.247,0,0.33,0.103,0.33,0.329v0.103
		c0,0.082,0,0.145,0,0.206s0,0.124,0,0.165h-0.186c0-0.041,0-0.082,0-0.123l0,0c-0.041,0.082-0.144,0.144-0.247,0.144
		c-0.144,0-0.268-0.083-0.268-0.227c0-0.124,0.062-0.185,0.124-0.227c0.082-0.041,0.185-0.041,0.268-0.041h0.103
		c0-0.124-0.062-0.165-0.185-0.165c-0.083,0-0.165,0.041-0.247,0.082L18.214,41.513z M18.461,42.109
		c0.062,0,0.103-0.021,0.144-0.062c0.042-0.041,0.042-0.103,0.042-0.165h-0.083c-0.083,0-0.227,0.021-0.227,0.145
		C18.338,42.089,18.379,42.109,18.461,42.109z"/>
	<path style="&st1;" d="M19.038,41.472h0.186v0.103l0,0c0.062-0.082,0.144-0.123,0.247-0.123c0.185,0,0.268,0.123,0.268,0.309v0.494
		h-0.206v-0.412c0-0.103,0-0.227-0.124-0.227c-0.144,0-0.185,0.165-0.185,0.268v0.392h-0.206L19.038,41.472L19.038,41.472z"/>
	<path style="&st1;" d="M20.52,42.15L20.52,42.15c-0.062,0.082-0.144,0.104-0.247,0.104c-0.247,0-0.329-0.206-0.329-0.412
		c0-0.205,0.083-0.411,0.329-0.411c0.103,0,0.165,0.041,0.227,0.103l0,0V41.08h0.206v1.133h-0.206L20.52,42.15L20.52,42.15z
		 M20.314,42.109c0.144,0,0.185-0.145,0.185-0.246c0-0.104-0.062-0.248-0.185-0.248s-0.165,0.145-0.165,0.248
		C20.149,41.965,20.19,42.109,20.314,42.109z"/>
	<path style="&st1;" d="M9.591,42.953h0.597v0.165H9.817v0.268h0.35v0.165h-0.35v0.473H9.611v-1.07H9.591z"/>
	<path style="&st1;" d="M10.702,43.221c0.227,0,0.412,0.165,0.412,0.412c0,0.227-0.144,0.412-0.412,0.412s-0.412-0.186-0.412-0.412
		C10.291,43.365,10.476,43.221,10.702,43.221z M10.702,43.879c0.165,0,0.206-0.144,0.206-0.268c0-0.123-0.062-0.226-0.206-0.226
		c-0.123,0-0.206,0.124-0.206,0.226C10.517,43.735,10.558,43.879,10.702,43.879z"/>
	<path style="&st1;" d="M11.649,43.221c0.227,0,0.412,0.165,0.412,0.412c0,0.227-0.144,0.412-0.412,0.412s-0.412-0.186-0.412-0.412
		C11.237,43.365,11.423,43.221,11.649,43.221z M11.649,43.879c0.165,0,0.206-0.144,0.206-0.268c0-0.123-0.062-0.226-0.206-0.226
		c-0.124,0-0.206,0.124-0.206,0.226C11.464,43.735,11.505,43.879,11.649,43.879z"/>
	<path style="&st1;" d="M12.76,43.921L12.76,43.921c-0.062,0.082-0.144,0.103-0.247,0.103c-0.247,0-0.33-0.205-0.33-0.412
		c0-0.205,0.083-0.411,0.33-0.411c0.103,0,0.165,0.042,0.226,0.103l0,0v-0.452h0.206v1.132H12.74v-0.062H12.76z M12.575,43.879
		c0.144,0,0.185-0.144,0.185-0.246c0-0.104-0.062-0.247-0.185-0.247s-0.165,0.144-0.165,0.247
		C12.39,43.735,12.431,43.879,12.575,43.879z"/>
	<path style="&st1;" d="M14.201,43.159c-0.062-0.021-0.144-0.041-0.206-0.041c-0.082,0-0.165,0.041-0.165,0.144
		c0,0.186,0.474,0.104,0.474,0.453c0,0.227-0.186,0.33-0.391,0.33c-0.124,0-0.165-0.021-0.268-0.042l0.021-0.185
		c0.083,0.041,0.165,0.061,0.247,0.061c0.082,0,0.185-0.041,0.185-0.144c0-0.206-0.473-0.124-0.473-0.474
		c0-0.246,0.185-0.329,0.37-0.329c0.083,0,0.186,0.021,0.247,0.042L14.201,43.159z"/>
	<path style="&st1;" d="M15.107,43.982c-0.083,0.041-0.165,0.062-0.268,0.062c-0.268,0-0.412-0.145-0.412-0.412
		c0-0.227,0.124-0.412,0.37-0.412c0.288,0,0.371,0.206,0.371,0.474h-0.556c0,0.124,0.103,0.206,0.227,0.206
		c0.103,0,0.185-0.041,0.268-0.082V43.982z M14.963,43.551c0-0.104-0.062-0.186-0.165-0.186c-0.123,0-0.165,0.082-0.185,0.186
		H14.963z"/>
	<path style="&st1;" d="M15.848,43.406c-0.041-0.021-0.083-0.021-0.144-0.021c-0.124,0-0.206,0.103-0.206,0.247
		s0.062,0.246,0.206,0.246c0.062,0,0.124-0.02,0.165-0.041v0.165c-0.062,0.021-0.124,0.021-0.206,0.021
		c-0.247,0-0.391-0.164-0.391-0.412c0-0.226,0.124-0.411,0.371-0.411c0.082,0,0.144,0,0.206,0.021V43.406z"/>
	<path style="&st1;" d="M16.733,44.023h-0.186v-0.103l0,0c-0.062,0.082-0.144,0.124-0.247,0.124c-0.185,0-0.268-0.124-0.268-0.31
		v-0.493h0.206v0.411c0,0.103,0,0.226,0.124,0.226c0.144,0,0.185-0.164,0.185-0.268v-0.391h0.206L16.733,44.023L16.733,44.023z"/>
	<path style="&st1;" d="M16.959,43.242h0.186v0.185l0,0c0-0.082,0.082-0.206,0.206-0.206c0.021,0,0.041,0,0.062,0v0.206
		c-0.021-0.021-0.062-0.021-0.083-0.021c-0.165,0-0.165,0.205-0.165,0.309v0.288h-0.206V43.242z"/>
	<path style="&st1;" d="M17.577,42.892h0.206v0.186h-0.206V42.892z M17.577,43.242h0.206v0.781h-0.206V43.242z"/>
	<path style="&st1;" d="M18.07,43.386h-0.144v-0.144h0.144v-0.165l0.206-0.062v0.227h0.185v0.144h-0.185v0.37
		c0,0.062,0.021,0.123,0.103,0.123c0.041,0,0.062,0,0.082-0.02v0.164c-0.041,0.021-0.082,0.021-0.144,0.021
		c-0.165,0-0.247-0.104-0.247-0.248V43.386z"/>
	<path style="&st1;" d="M18.935,43.797L18.935,43.797l0.185-0.576h0.206l-0.289,0.782c-0.062,0.186-0.103,0.351-0.329,0.351
		c-0.041,0-0.103,0-0.144-0.021l0.021-0.144c0.021,0,0.062,0.021,0.103,0.021c0.083,0,0.124-0.062,0.124-0.145l-0.309-0.822h0.226
		L18.935,43.797z"/>
</g>
</svg>
