<?xml version="1.0" encoding="utf-8"?>
<!-- Generator: Adobe Illustrator 19.0.0, SVG Export Plug-In . SVG Version: 6.00 Build 0)  -->
<svg version="1.1" xmlns="http://www.w3.org/2000/svg" xmlns:xlink="http://www.w3.org/1999/xlink" x="0px" y="0px"
	 viewBox="-454 257 50.7 48" style="enable-background:new -454 257 50.7 48;" xml:space="preserve">
<style type="text/css">
	.st0{display:none;stroke:#000000;stroke-miterlimit:10;}
	.st1{fill:#FFFFFF;}
	.st2{display:none;}
	.st3{display:inline;}
	.st4{fill:#65B345;}
</style>
<g id="Layer_2">
	<rect x="-453.4" y="257.5" class="st0" width="49.5" height="47.8"/>
	<g>
		<path class="st1" d="M-435.5,273c-0.4-0.6-1.4-1.5-1.9-2c-0.8-0.8-1-1.1-1-2.5v-6.1c0-0.9-1.3-0.7-1.3,0c0,0-0.1,10.6,0,11.5
			c0.1,0.9-0.3,1.6,1,2.5c1.5,1,3.7,1.7,3.7,1.7s0-2.3,0.1-3.2C-434.9,274-435.1,273.6-435.5,273 M-436.2,276.3
			C-436.2,276.3-436.2,276.3-436.2,276.3c-2.1-0.9-2.5-0.7-2.2-4.1C-435.9,273.8-436.1,274.4-436.2,276.3"/>
		<path class="st1" d="M-433.7,274.9c0,0.9,0.1,3.2,0.1,3.2s2.2-0.7,3.7-1.7c1.4-0.9,0.9-1.6,1-2.5c0.1-0.9,0-11.5,0-11.5
			c0-0.8-1.3-0.9-1.3,0v6.1c0,1.4-0.2,1.7-1,2.5c-0.5,0.5-1.5,1.5-1.9,2C-433.5,273.6-433.7,274-433.7,274.9 M-430.2,272.2
			c0.3,3.4-0.1,3.2-2.2,4.1c0,0,0,0,0,0C-432.5,274.4-432.7,273.8-430.2,272.2"/>
		<path class="st1" d="M-432.6,266.8c-0.7-1.4,0,0-1-1.8v-6.7c0-1.1-1.3-1-1.3,0l0,6.7c0,0-1.1,1.9-1.4,2.7
			c-0.3,0.8-0.7,1.7,0.3,2.9c0.1,0.1,0.2,0.4,1.7,1.8c0,0,0,0,0,0s0,0,1.3-1.4C-431.3,269.3-431.9,268.2-432.6,266.8 M-434.3,270.7
			c-2.5-1.4-0.7-3.2,0-4.5l0.1,0.1C-432.4,269.2-432.9,269.6-434.3,270.7"/>
		<path class="st1" d="M-435,281.2c-0.1-1.3-0.5-2.5-3.1-3.5c-2.2-0.9-5.2-1-7.4-1.4c-2.2-0.4-5.9-1-7.8-2.9
			c1.4,4.8,4.8,6.9,8.4,7.6c4,0.9,7.6,1.3,9.7,2.9l0.2,0.2C-435.1,283-435,282.6-435,281.2 M-436.1,281.9c-1.9-0.8-3.2-1-6.6-1.7
			c-3.4-0.7-5.5-1.4-7.3-3.4c3,1.2,7.8,1.6,10.4,2.2C-437.1,279.5-436.4,280.3-436.1,281.9L-436.1,281.9z"/>
		<path class="st1" d="M-433.6,284.1l0.2-0.2c2.2-1.6,5.7-2,9.7-2.9c3.5-0.8,7-2.8,8.4-7.6c-1.8,1.9-5.5,2.5-7.8,2.9
			c-2.2,0.4-5.3,0.6-7.4,1.4c-2.6,1-3,2.2-3.1,3.5C-433.7,282.6-433.5,283-433.6,284.1 M-432.5,281.9c0.3-1.6,1-2.3,3.6-2.9
			c2.6-0.6,7.4-1,10.4-2.2c-1.9,2.1-3.9,2.7-7.3,3.4C-429.3,280.9-430.6,281.1-432.5,281.9L-432.5,281.9z"/>
		<path class="st1" d="M-435.2,287.4c0-2.6-1.4-3.3-3.5-3.9c-2.1-0.6-5.1-1-7.6-1.8c-2.5-0.8-3.9-1.3-5.6-3.2
			c0.4,3.8,2.9,6.4,5.9,7.6c3.1,1.1,2.9,0.9,4.6,1.3c1.7,0.4,2,1.1,2,2.2v2.2h4.1C-435.1,286.8-435.2,290-435.2,287.4 M-436.4,290.4
			h-1.7c0,0,0-0.7-0.1-2c-0.1-1.7-2-1.8-5-2.7c-2.1-0.6-4.8-1.4-6-3.6c0.7,0.3,2.2,1,4.6,1.5c2.3,0.5,3.6,0.8,5.7,1.2
			c2,0.4,2.4,1.7,2.4,3.2V290.4z"/>
		<path class="st1" d="M-433.6,291.8h4.1v-2.2c0-1.1,0.3-1.7,2-2.2c1.7-0.4,1.5-0.2,4.6-1.3c3.1-1.1,5.6-3.8,5.9-7.6
			c-1.7,1.9-3.1,2.4-5.6,3.2c-2.5,0.8-5.4,1.2-7.6,1.8c-2.1,0.6-3.5,1.3-3.5,3.9C-433.5,290-433.6,286.8-433.6,291.8 M-432.4,288
			c0-1.4,0.4-2.7,2.4-3.2c2.1-0.5,3.4-0.7,5.7-1.2c2.4-0.5,3.9-1.2,4.6-1.5c-1.2,2.2-3.9,3-6,3.6c-3,0.9-4.9,1-5,2.7
			c-0.1,1.3-0.1,2-0.1,2h-1.7V288z"/>
		<path class="st1" d="M-443.5,303.9c-0.5,0.1-1.1,0.2-1.7,0.2c-2.4,0-4-1.2-4-3.8c0-2.6,1.5-4.1,4-4.1c0.5,0,1.1,0.1,1.6,0.3
			l-0.1,1.3c-0.6-0.3-1.1-0.4-1.6-0.4c-1.5,0-2.4,1.2-2.4,2.8c0,1.6,0.9,2.7,2.5,2.7c0.6,0,1.3-0.1,1.6-0.3L-443.5,303.9z"/>
		<path class="st1" d="M-436.8,297.9c-0.6-0.3-1.3-0.4-1.9-0.4c-1.7,0-2.6,1.2-2.6,2.8c0,1.6,0.9,2.7,2.5,2.7c0.4,0,0.7,0,1-0.1v-2
			h-1.5v-1.2h2.9v4.1c-0.8,0.2-1.6,0.4-2.4,0.4c-2.4,0-4-1.2-4-3.8c0-2.6,1.5-4.1,4-4.1c0.8,0,1.5,0.1,2.1,0.3L-436.8,297.9z"/>
		<rect x="-435.1" y="296.4" class="st1" width="1.5" height="7.6"/>
		<path class="st1" d="M-428.1,301.1h-2.1l1.1-3.2h0L-428.1,301.1z M-432.8,304.1h1.5l0.6-1.8h2.9l0.6,1.8h1.6l-2.9-7.6h-1.6
			L-432.8,304.1z"/>
		<path class="st1" d="M-423.2,297.6h0.5c0.7,0,1.5,0.1,1.5,1c0,1-0.8,1.1-1.5,1.1h-0.5V297.6z M-424.6,304.1h1.5v-3.2h0.5
			c0.6,0,0.8,0.2,1,0.8l0.9,2.4h1.6l-1.2-3c-0.1-0.3-0.4-0.8-0.8-0.8v0c0.9-0.1,1.5-0.9,1.5-1.8c0-2.1-1.9-2.1-3.4-2.1h-1.6V304.1z"
			/>
	</g>
</g>
<g id="Layer_1" class="st2">
	<g class="st3">
		<path class="st4" d="M-407.4,283.7l-0.1,0.1h-0.3l-0.2,0.1l-0.5,0.2l-0.5,0.2l-0.4,0.2h-0.3h0l-0.4,0l-0.4,0.2l-0.2,0.1l-0.2,0.1
			l-0.2,0.1l0-0.1l0,0l0.2-0.1l0.2,0l0,0l0.1-0.2h0.4l0.3-0.1l0.1-0.1l0.1-0.1h0.3l0.3-0.1l0.4,0l0.1-0.1l0.1,0l0.1,0l0.4-0.1
			l0.2-0.1l0.3-0.1l0.1-0.1h0.2l0.1,0.1L-407.4,283.7L-407.4,283.7z M-408.3,287h-0.2h-0.2l-0.2,0.1l-0.2,0.1v-0.1l0-0.1l0.2-0.1
			h0.1l0.2-0.1h0.2l0.1,0h0.1l0.1,0.2L-408.3,287L-408.3,287z M-410.8,285.9h-0.1H-410.8l0-0.2h0.1v0.1l0,0H-410.8L-410.8,285.9z
			 M-411,286l-0.1,0.1v-0.2L-411,286L-411,286l0.1-0.1L-411,286L-411,286z M-411.7,283.4l0.1-0.2h0.2l0.3-0.1h0.1l0.2,0h0.2l0.1-0.1
			l0.2-0.1h0.2h0.2v0.1l-0.3,0.1h-0.3l-0.2,0.1l0,0h-0.2l-0.2,0l-0.1,0l-0.1,0.1L-411.7,283.4L-411.7,283.4z M-412.1,281l-0.2,0.1
			h-0.1l-0.3,0l-0.3,0l-0.1,0l0,0.1l0,0.1h-0.2l0,0l0.2-0.2l0.3,0l0.2-0.1l0.2,0l0.2-0.1l0.3-0.1l0.6,0l0.3-0.2l0.2-0.1h0.1l0.2,0
			h0.1v0l-0.1,0.2l-0.1,0.1l-0.1,0.1l-0.1,0l-0.3,0l-0.4,0L-412.1,281L-412.1,281z M-412.4,280L-412.4,280l0.2-0.1l0.3-0.2l-0.1,0.2
			L-412.4,280l-0.1,0h-0.2L-412.4,280L-412.4,280z M-414.1,286.7l-0.4,0l-0.1,0.1l-0.1,0h-0.2l-0.1,0.1l-0.2,0.1h-0.2l-0.2,0.1
			l-0.2,0l-0.3,0.1l-0.1,0h-0.1l-0.2,0.2l-0.3,0.1h-0.4l-0.1,0.2l-0.1,0l-0.2,0l-0.1-0.1l0.1-0.1l0.2-0.1h0.2l0.2-0.1l0.1,0l0.1-0.1
			l0.8-0.1l0.1-0.1l0.2-0.1l0.3-0.1l0.3,0l0.2-0.1l0.2-0.1h0.2l0.1,0l0.1-0.1l0-0.1h0.1h0.2L-414.1,286.7L-414.1,286.7L-414.1,286.7
			z M-417.4,286.9l0.1,0l0.4-0.2l0.1-0.1l0.1-0.1h0.2l0.4-0.1l0.1,0v0l-0.1,0l-0.1,0l-0.2,0.1l-0.1,0h-0.2l-0.1,0.1L-417.4,286.9
			l0,0.2l-0.2,0l0,0L-417.4,286.9L-417.4,286.9z M-416.6,280.7h0.2l0.1,0l0.1-0.1l0.2-0.1l0.2-0.1h0l0,0l-0.1,0.3l-0.2,0h0
			L-416.6,280.7L-416.6,280.7L-416.6,280.7z M-422.7,282.7l-0.2,0.1l-0.2,0l-0.4,0.1h-0.2l-0.2,0.1l-0.6,0.2l-0.6,0.2l-0.9,0.3
			l-0.4,0.1l-0.4,0.2l-0.5,0.1l-0.3,0.2l-0.3,0h0v0l0.4-0.2l0.4-0.2l0.4-0.1l0.4-0.2l0.8-0.3l1.2-0.4l0.8-0.2l0.5-0.2l0.1-0.2l0.1,0
			l0.1,0l0,0.2L-422.7,282.7L-422.7,282.7z M-438.7,288.7l-0.7,0.3l-0.7,0.4l-0.3,0.1l-0.2,0.1l-0.2,0.1l-0.2,0.1l-0.7,0.2l-0.3,0.1
			l-0.3,0.2v-0.1l0.4-0.2l0.5-0.1l0.4-0.2l0.3-0.1l0.3-0.1l0.8-0.5l0.8-0.3L-438.7,288.7L-438.7,288.7L-438.7,288.7z M-406.1,284.6
			L-406.1,284.6l0.3-0.2l0.1,0l0-0.1l0.2-0.1l0.1,0l0.1-0.2l-0.2-0.2l-0.2-0.2l-0.2-0.1l-0.2,0l0.2,0l0.1-0.1l0.1-0.1l0.1-0.1
			l0.1-0.1v-0.1l0.1,0h0.1v-0.2h-0.3h-0.1l-0.1,0l0.1-0.2l0-0.1h-0.2v0h-0.5l-0.2,0l-0.1,0.1l0,0.2l-0.2-0.3l0.3-0.1l0.3-0.3
			l0.5-0.1l-0.9,0l-0.1,0.1l-0.1,0l-0.2,0.2l-0.1,0l-0.3,0.1l-0.4,0.1l-0.1,0l-0.1,0.1l-0.2,0.1l-0.2,0h-0.2h-0.4v-0.2v-0.1l0,0h0.5
			l0.8-0.1l0.2-0.1V282v-0.1l0.1,0l0.4-0.1l0.4-0.2l0.7-0.2l0-0.3l-0.2-0.1h-0.2h-0.4l-0.1,0l0,0l-0.2-0.1l0,0l-0.1,0l0,0.1l0,0.1
			v0.1v0.1l-0.1,0l-0.2-0.2l-0.2,0l-0.2,0l-0.1,0.2l-0.5,0.1l-0.1,0v-0.1l0.1-0.3l0-0.1l0.1,0h0.4l0.7-0.2l0.3-0.1l0.2-0.1l0.3,0.1
			l0.3-0.1l0.1-0.2h-0.4l0.1,0h0.2l0.4-0.1v0l-0.7-0.2v-0.2l-0.1,0l-0.4,0l-0.3,0.1l-0.4,0.1l-0.2,0l0-0.1l0-0.1l0.2-0.1l0.2-0.2
			v-0.2l0.1-0.2l0.2,0l0-0.1l0,0l-0.2,0.1V279l0.1-0.2l0-0.2v0l-0.1,0.1l-0.4,0.1l-0.5,0l-0.2,0.2l-0.2,0.1l-0.4,0.1l-0.2,0l-0.1,0
			l0-0.1l-0.1-0.1l-0.1-0.1l0-0.1l0.2,0l0.8-0.2l0.9-0.3l0.4-0.1l0-0.2v-0.1h-0.2l-1,0.1l-0.1,0l-0.9,0.2l-0.4,0l-0.3,0.1l-0.7,0.3
			l-0.2,0.1l-1.1,0.2l-0.2,0l-0.4,0.1l-0.5,0.1l-0.9,0.4l-0.8,0.3l-0.5,0.2l-0.5,0.3l-0.3,0.1l-0.5,0.1l-0.7,0.2l-0.6,0l-0.6,0.1
			l-1.1,0.3l-0.3,0.2l-0.3,0.1l-0.6,0.1l-0.2,0l-0.2,0.1l-0.2,0.1l-0.2,0.1l-0.7,0.2l-0.6,0.2l-0.2,0.1l-0.1,0l-0.3,0.2l-0.7,0.2
			l-0.1,0.1l-0.2,0.1l-0.2,0l0.4-0.4h-0.1l-0.2,0.2l-0.2,0.1l0,0.1l0,0h0l-0.5,0.2l-0.6,0.3l-0.6,0.2l-0.5,0.1l-0.3,0.1l-0.3,0.2
			l-0.4,0.1l-0.3,0.1v-0.1l0.2-0.1l1.4-0.6h-0.2l-1.2,0.5l-0.4,0.1l-0.2,0l-0.1,0.1l-0.3,0.1l-0.4,0v0.1v0.1l0.2-0.1l0.2-0.1
			l0.2,0.2l-0.5,0.2l-0.3,0.1l-0.4,0l-0.7,0.2l-0.5,0.2l-0.3,0.1l-0.3,0.2l-0.5,0.3l-0.4,0.1l-0.5,0.1l-0.1,0.1l-0.1,0l-0.2,0
			l-0.4,0h-0.3l-0.1,0.1l-0.2,0.1l-0.2,0l-0.4,0.1l-0.4,0.2l-0.7,0.5l-0.5,0.1l-0.6,0.2h-0.4l-0.3,0.1l-0.3,0.1h0.1l0.3,0l0.1,0l0,0
			l0,0v0l-0.2,0.1l-0.3,0.2l-0.5,0.2l-0.5,0.2l-0.5,0.2l-0.3,0.1l-0.4,0.2l-0.5,0.2l-0.6,0.2l-0.8,0.3l-1,0.4l-0.2,0.1l-0.3,0
			l-0.3,0.2l-0.3,0.1l-0.5,0.3l-0.5,0.2l-0.3,0.1l-0.3,0.2l-0.3,0.1l-0.5,0.3l-0.5,0.2h0.4h0.2v0l-0.2,0.2l-0.3,0.2l-0.7,0.4
			l-0.3,0.2l-0.5,0.2l-0.4,0.2l-0.2,0.1l-0.2,0.1l-0.1,0.1l-0.3,0.1l-0.6,0.4l-0.7,0.4l-0.1,0.2l-0.2,0l-0.1,0l-0.1,0.1l0,0.1
			l-0.1,0.1l-0.1,0l0,0.1l0.2,0l0.1,0l0.1,0v0l-0.2,0l0,0.2l0,0.1v0.1l0.1,0l0.1,0.2h0.1l-0.1,0h0v0v0.2l0,0.1l0.1,0.1l0.2,0v0
			l0,0.4l0,0.3l0,0l0.2,0.3l0.1,0.1l0.1,0.2l0.1,0.4l0.1,0.3l0.1,0.2v0.2l0.1,0.2l0.1,0.1l0.2,0.2l-0.1,0.2v0.2l0.1,0.2l0.1,0.5
			l0.2,0.2l0.1,0.2l0.1,0.2l0.2,0.2v0.5l0.1,0.5l0.2,0.2l0.1,0.2l0,0.3l0.3,0.3l0.1,0h0.1l0.2,0l0.1-0.2l0.3,0l0.7-0.5l0.3-0.1
			l0.3-0.2l0-0.1l0.1-0.2l0.3,0l0.2,0l0.5-0.3l0.2-0.1l0.3,0l0.4-0.2l0.4-0.1l0.3-0.2l0.2,0l0.2-0.2l0.2-0.1l0.2-0.1l0.3-0.1v-0.1
			l0.2,0l0.6-0.4l0.7-0.4l0.5-0.1l0.6-0.2l0.6-0.3l0.5-0.1l0.6-0.4l0.7-0.3l0.8-0.3l0.8-0.3l0.1-0.1l0.1,0h0.1l0.1-0.1l0.2-0.1
			l0.3,0l0.3-0.1l0.3-0.2l0.3-0.1l0.2,0l0.2-0.1l0.3-0.1l0.4-0.1l0.2-0.1l0.2-0.1l0.3-0.2l-0.3,0.1l-0.3,0.2v-0.3l0.5-0.2l0.3-0.1
			l0.4,0h0.1v0h0.2l0,0l0.4-0.1l0.4-0.2l-0.1-0.1l0.2-0.2l0.2-0.1l0.4,0l-0.4,0.3h0h0.2l0.1-0.2l0.2-0.1l0.2-0.1l0.1-0.1l0.5-0.2
			l0.5-0.1l1-0.3l0.5-0.1l0.5-0.2l0.9-0.4l0.5-0.1l0.5-0.1l0.4-0.2l0.4-0.1l1-0.3l0.5-0.2l4.1-1.5l1.3-0.5l1.4-0.5l0.4-0.1l0.9-0.3
			l1.3-0.4l0.5-0.2l0.5-0.2l0.7-0.1l0.2-0.1l0.2-0.1l0.3-0.2l0.4-0.1h0.1l0.2,0l0.5-0.1l0.5-0.2l0.5-0.2l0.8-0.3l0.2-0.1l0.5,0
			l0.5,0l0.2-0.1l0.1-0.1h0.3l0.1-0.2l0.2-0.1l0.2-0.1v-0.2l-0.2,0l-0.1-0.1l0-0.2h0.1l0.2-0.1l-0.1-0.1l0-0.2l0.2-0.3l0.4-0.1
			l0.4-0.2l0.1-0.1l-0.1,0l0-0.1h-0.3l-0.1,0.1l-0.4,0l-0.1,0l0.1-0.1v-0.1l-0.1,0l0,0L-406.1,284.6L-406.1,284.6L-406.1,284.6z"/>
		<polygon class="st4" points="-407.1,279.4 -407.2,279.5 -407.4,279.5 -407.4,279.4 -407.3,279.2 -407.1,279.1 -407,279.1 
			-406.9,279.1 -406.7,279.1 -406.9,279.4 -407.1,279.4 -407.1,279.4 		"/>
		<polygon class="st4" points="-407.1,287.4 -407.2,287.4 -407.4,287.6 -407.5,287.6 -407.4,287.7 -407.4,287.7 -407.3,287.7 
			-407.1,287.6 -407.1,287.5 -406.9,287.4 -406.9,287.3 -407,287.3 -407.1,287.4 -407.1,287.4 		"/>
		<polygon class="st4" points="-409.8,288 -410.2,288.1 -410.2,288.3 -410.1,288.4 -409.9,288.3 -409.8,288.3 -409.8,288.2 
			-409.5,288.1 -409.4,288 -409.4,287.9 -409.4,287.9 -409.5,288 -409.8,288 -409.8,288 		"/>
		<polygon class="st4" points="-423.4,282.2 -423.4,282.2 -422.8,282.1 -422.3,281.8 -422.9,282 -423.4,282.2 -423.4,282.2 		"/>
		<polygon class="st4" points="-423.4,282.2 -423.4,282.2 -423.6,282.3 -424.3,282.3 -424.4,282.6 -424,282.4 -423.4,282.2 
			-423.4,282.2 -423.4,282.2 		"/>
		<polyline class="st4" points="-410.8,285.9 -410.9,285.9 -410.8,285.9 -410.6,285.9 -410.6,285.9 -410.6,285.8 -410.8,285.8 
			-410.8,285.9 		"/>
		<polyline class="st4" points="-409.8,284.3 -409.5,284.3 -409.2,284.2 -408.8,284.1 -408.7,284 -408.6,284 -408.5,283.9 
			-408.5,283.9 -408.1,283.9 -407.8,283.7 -407.5,283.7 -407.4,283.6 -407.3,283.6 -407.1,283.7 -407.4,283.7 -407.5,283.9 
			-407.8,283.9 -408.1,283.9 -408.5,284.1 -408.5,284.1 -409,284.3 -409.5,284.5 -409.8,284.5 -409.8,284.5 -410.2,284.5 
			-410.6,284.7 -410.8,284.8 -410.8,284.8 -411,284.9 -411,284.9 -411.3,285 -411.2,284.9 -411.2,284.9 -411,284.8 -410.8,284.7 
			-410.8,284.7 -410.6,284.5 -410.3,284.5 -410,284.4 -409.9,284.4 -409.8,284.3 		"/>
		<polyline class="st4" points="-411.1,283.1 -411,283.1 -410.8,283.1 -410.8,283.1 -410.6,283.1 -410.5,283 -410.3,282.9 
			-410.1,282.9 -409.9,282.9 -409.9,283 -410.2,283.1 -410.5,283.1 -410.8,283.2 -410.8,283.2 -411,283.2 -411,283.2 -411.2,283.2 
			-411.3,283.3 -411.4,283.4 -411.7,283.4 -411.6,283.2 -411.4,283.2 -411.1,283.1 		"/>
		<polyline class="st4" points="-416.2,280.6 -416.1,280.5 -415.9,280.4 -415.8,280.4 -415.9,280.4 -416,280.7 -416.2,280.8 		"/>
		<polyline class="st4" points="-416.2,280.8 -416.3,280.8 -416.6,280.8 -416.6,280.7 -416.4,280.7 -416.3,280.7 -416.2,280.6 		"/>
		<polyline class="st4" points="-440.5,289.5 -440.7,289.6 -440.9,289.7 -441.2,289.8 -441.8,290 -442.2,290.1 -442.5,290.2 
			-442.5,290.2 -442,289.9 -441.6,289.8 -441.2,289.6 -440.9,289.5 -440.6,289.4 -439.8,289 -438.9,288.6 -438.7,288.7 
			-438.7,288.7 -439.5,289 -440.2,289.4 -440.5,289.5 -440.6,289.5 		"/>
		<path class="st1" d="M-437.4,269.9l-0.2,0.3h-1.4l-0.7,0.2l-0.3,0.2l-0.2,0.3l0,0.2v0l0.1,0.2l0.2,0.2l0.3,0.2v0.2l-0.2,0.1
			l-0.1,0l-0.2,0l-0.2,0l-0.4-0.2l-0.4-0.1l-0.2,0l-0.2,0.1h-0.2l0-0.3l0.1-0.3l0.2-0.2l0.2-0.2l0.2,0l0.2,0l0.3-0.2l0.1-0.1l0,0
			l0-0.2l0-0.2l0.6-0.7l0.3-0.2l0.3-0.2l0.2,0.2l0.2,0.2l0.2,0.2l0.3,0.2L-437.4,269.9L-437.4,269.9L-437.4,269.9L-437.4,269.9z
			 M-440.2,275.2l-0.2,0.4l-1,1.4l-0.4,0.6l-0.3,0.4l-0.2,0.2l-0.2,0l0-0.2l0.2-0.8l0.1-0.2l0.1-0.1l0,0l0.4-0.5l0.2-0.4l0.3-0.3
			l0.5-0.6l0.2,0.2l0.2-0.1h0.1l0.1-0.1L-440.2,275.2L-440.2,275.2z M-442.6,275.6L-442.6,275.6l0.2-0.2l0-0.2l0.1-0.4l0.2,0
			l0.4-0.1l0.2-0.2l0.1-0.2l-0.1-0.2l-0.2-0.2l-0.2-0.3l0-0.8h0.7l0.3,0.1l0.1,0.1l0.1,0.2v0.1l0,0l-0.1,0l0,0.1l-0.1,0l-0.1,0.1
			l0,0.3l0,0.4l0.1,0.1l0.2,0.1l-0.6,0.6l-0.6,0.6h0l-0.1,0.1l0,0l0-0.1l-0.1-0.1l0-0.1L-442.6,275.6L-442.6,275.6z M-442.7,272.1
			l0-0.2l-0.1-0.1l-0.1-0.1l0,0v-0.1h0l0.2,0l0-0.1l0.1-0.1h0l0.2-0.2l0.1,0l0,0l0.1,0.1v0.1l-0.1,0.2v0.2v0.2h0l0,0.3l0,0.1l-0.1,0
			h-0.2L-442.7,272.1L-442.7,272.1z M-442.9,273.3L-442.9,273.3l-0.1,0.1h0l-0.4-0.1l-0.3-0.1l-0.2-0.2v-0.3l-0.2-0.2l-0.2-0.1h0
			h-0.2l-0.1,0l-0.5,0h-0.2l-0.3-0.1l0.1-0.2l0.1-0.1h0.8h0.2h0.4l0.2-0.1l0.3-0.1l0.1,0l0.1,0.1l0.1,0.4h-0.4l-0.2,0v0.2l0.1,0.2
			l0.1,0.1l0.2,0h0.2l0,0.2l0,0.2L-442.9,273.3L-442.9,273.3z M-443.7,278l-0.5-0.9l-0.1-0.2l-0.1-0.1l-0.3-0.4l-0.4-0.5h0.2h0.5
			h0.2l0,0l0.3,0.3l0.1,0.2l0.1,0.2L-443.7,278L-443.7,278z M-445.8,267.5l-0.2-0.2l-0.2-0.1h-1l-0.1,0v-0.4h0.1h0l1.2,0.2l0.1,0
			l0.4,0l0.4,0l0.2,0.3l0.1,0.1l0.2,0.1l0.1,0.3l0,0.1l0.1,0.3l0,0.1v0.1l0,0l-0.2-0.1l-0.3-0.2l-0.3-0.1l-0.2-0.2L-445.8,267.5
			L-445.8,267.5L-445.8,267.5z M-446.2,272.3l-0.4,0.1l-0.3,0.1l-0.2,0l-0.2,0.1l-0.3,0.2l-0.2-0.3l-0.2-0.1l0-0.2l0-0.1l0.3,0
			l0.5,0h0.1h0.5l0.3,0l0.1,0.1L-446.2,272.3L-446.2,272.3L-446.2,272.3z M-448.4,268.2l-0.1,0h-0.1l-0.2,0l-0.7-0.6l0.2-0.1
			l0.7-0.4l0.1-0.1l0.1-0.1l0.2-0.1l0.4,0l0,0.1l0.1,0.3v0.4l-0.3,0.2L-448.4,268.2L-448.4,268.2z M-445.6,262.3l0.1-0.2l0.1-0.3
			l0.1-0.2l0.6,0.1h0.2h0l0.2-0.1h0l0.2-0.1l0.1-0.1l0.2-0.2l0,0.1l0,0.1l0.1,0v0.1v0.3l0.1,0.2l0.2,0.2l0.2,0.1l0.1,0.2l0.1,0.1
			l0.2,0.2v0.1v0.1l-0.2,0h0l-0.1,0.1l0-0.1l-0.1,0l-0.1,0l0,0l-0.5-0.2l-0.5-0.2l-0.1,0h-0.1l-0.4-0.1l-0.5,0h-0.4L-445.6,262.3
			L-445.6,262.3z M-441.6,268.1L-441.6,268.1v0.3h-0.5h-0.4l0,0h-0.3l-0.5,0l-0.2,0.1h-0.1l-0.1,0l0-0.1l0.1-0.2l0.3-0.2l0.2,0
			l0.2,0.1l0.2,0h0.1h0.5L-441.6,268.1L-441.6,268.1L-441.6,268.1z M-441.4,264.5L-441.4,264.5l-0.1,0.2l-0.7,0h-0.5l-0.2,0l-0.1,0
			l-0.1,0l-0.2,0.2l-0.2,0.4l-0.1,0.2v0.2l0.1,0.2l0.1,0.2l0.2,0l0.2,0l0.1,0.1h0l0.1,0.1l0,0.2l0,0.2l0,0.1l-0.1,0.1h0l-0.1,0h-0.2
			l-0.5,0.1l0,0.1l0,0.3l0,0.2l0,0.1l-0.2,0.1l-0.2-0.1l0-0.1l-0.1-0.2l-0.1-0.1v0l0-0.2l0-0.5l0.1,0v-1.1l-0.1-0.2l-0.1-0.2l0-0.1
			l0.1,0l0-0.1l0.1-0.1l0.1,0l0.2-0.1l1.1,0l0.1,0v-1.1l0-0.1l0,0l0.2-0.2l0.1-0.1l0.1,0l0.1-0.1l0.1,0l0,0.1l0,0.2l0.1,0.2l0,0.1
			l0.1,0.1l0.2,0.1l0.2,0.1l0.1,0.1l0.1,0.1l0,0V264.5L-441.4,264.5L-441.4,264.5z M-443.5,260.9L-443.5,260.9l0.1-0.1l0.1-0.2
			l0.2-0.2l0.2,0l0,0h0.3h0.5l0.4,0l0.9-0.2v0.3l-0.3,0.2l-0.2,0.1l-0.2,0l-0.6,0l-0.1,0l-0.5,0l-0.3,0l-0.2,0.1l-0.2,0.2l-0.1-0.1
			V260.9L-443.5,260.9z M-440.3,264.4h0.1h0.7h0.2l0.1,0l0,0.1l-0.4,0.6h-0.1l-0.3-0.1h-0.1h-0.2h-0.4l-0.3-0.1v0v0v-0.3
			L-440.3,264.4L-440.3,264.4z M-439.1,268.7l-0.1,0.1l-0.2,0l-0.2,0.2l-0.2,0.2l-0.3,0.2l-0.2,0.2l-0.2-0.1l-0.2-0.1l-0.2,0l-0.1,0
			v-0.1v-0.1l0.1,0l0.3-0.1l0.1-0.1l0-0.1l0-0.1l0-0.2l-0.5-0.1l0-0.2l0.1-0.1l0.4,0l0.5,0.1h0.1l0.2,0l0.2,0.1L-439.1,268.7
			L-439.1,268.7z M-431.9,266.4l-0.4-0.2l-0.3-0.2l0-0.2l-0.1-0.2l-0.2-0.3l-0.4-0.4l-0.6-0.1l-0.5,0l-0.5,0.1l-0.5,0.2l-0.4,0.1
			l-0.4,0.2l-1,0l-0.4,0l-0.4-0.3l-0.4-0.2l-0.4-0.1l-0.4,0h-0.1l0.2-0.2l0.1-0.1l0.2-0.1l0.3,0l0.2,0l0.2,0.1l0.2,0.2l0.3,0.3
			l0.3,0.1h1l0.3-0.1l0.2-0.1l0.3-0.2l0.3-0.1l0.5-0.5l0.5-0.3l0.3-0.2l0.4-0.2v-0.4v-0.1l-0.2-0.1l-0.2-0.1l0-0.3l0-0.2l0.1-0.3
			l0-0.2l-0.1-0.2l-0.3-0.5l-0.4-0.4l-0.5-0.2l-0.5-0.1l-0.9,0l-0.4,0.1h-0.8l-0.2,0h0h-0.2l-0.2-0.1l-0.2-0.2l-0.9-0.2l-0.4,0
			l-0.4,0h-0.1l0-0.2l0-0.1l0-0.1l0-0.1l-0.1-0.2l-0.4-0.3l-0.8-0.5l-0.5-0.1h0l-0.4-0.2h0l-0.3,0l-0.3,0h-0.7l-0.3,0.2l-0.2,0.1
			l-0.4,0.2l-0.5,0.3l-0.4,0.4l-0.1,0l-0.6,0.3l-0.7,0.3h-0.1l-0.4,0l-0.2,0.1l0.1,0.2l0.2,0.1l0.2,0l0.5,0l0.1,0.2l0.1,0.1l0.2,0.2
			l0.3,0.3l0.1,0.2l0.2,0.2l-0.2,0.5l0,0.1v0.2l-0.3-0.4l-0.2-0.5l-0.3-0.4l-0.5-0.2h-0.1l-0.5-0.1l-0.4,0.1l-0.3,0.2l-0.2,0.1
			l-0.1,0.2l0,0.2v0.2v0.3l0,0.2l-0.2,0.2l-0.2,0.2l-0.5,0.3l-0.6,0.3l-0.4,0.2l-0.4,0.4l-0.3,0.4l-0.2,0.4l0,0.4l0.1,0.4l0.3,0.4
			l0.5,0.3l-0.1,0.6l0,0.3l0,0.2l0.2,0.2l0.3,0h0.5l0.6,0.6v0.1l0,0h-0.1l-1.1,0l-0.7,0.2l-0.6,0.3l-0.4,0.4l-0.1,0.2l-0.1,0.2v0.4
			l0,0.4l0.1,0.2l0.4,0.4l0.4,0.1l0.4,0.2l0.7,0.7l0.3,0.2l0.3,0.1h1.1l0.2,0.1h0l0.1,0.1l0.2,0.4h0.1l-0.1,0.2l-0.2,0.3l0,0.4
			l0.2,0.4l0.5,0.4l0.3,0.2l0.2,0.1l0.1,0l0.9,0.4h0.2l0.2,0.3l0.4,0.6l0.6,1l0.3,0.5l0.2,0.3l0.1,0.1l0.2,0.5l0.2,0.6l0,2.2
			l-0.1,2.4l-0.1,2.1l-0.2,2l-0.1,2.5l0,1.2v0.8l0,0.4l-0.2,1.7l-0.2,1.6l-0.2,0.6l-0.2,0.5l-0.3,0.5l-0.3,0.3l-0.1,0.1l0,0l0,0
			l-0.3,0.2l-0.5,0.3l-0.5,0.3l-0.5,0.2l-0.5,0.3l0.5,0h0.5h1.3h0h1.3h0.2h0h1.3h0.3h0h0.4h1.9h0.7v0l-0.5-0.4l-0.1-0.1l-0.4-0.3
			l-0.7-0.6l-0.3-0.3l-0.2-0.4l-0.2-0.3l-0.2-0.4l-0.2-0.6l0-0.2v-0.3v0v0v-0.5l0.1-7.8l0-3.9l-0.1-3.9v-0.2l0.2-0.1l0.2-0.3
			l0.3-0.5l0.3-0.7l0.2-0.5l0.3-0.5l0.6-0.8l0.2-0.2l0.3-0.5l0.4-0.7l0.4-0.1l0.5,0l1.4-0.5l0.5-0.2l0.3-0.2l0.2-0.3l0.2-0.3l0-0.4
			l0-0.4l-0.2-0.2l-0.1-0.2l-0.1-0.2v-0.3l0.1-0.2l0.1-0.1l0.5,0l0.7,0l0.6-0.1l0.4-0.1l0.1-0.1l0-0.1l-0.1-0.2l-0.3-0.1l-1.2-0.2
			l-0.7-0.1l-0.7,0h-0.1l-0.1-0.1l0.1-0.2l0.1-0.2l0.5,0l0.5-0.1l0.6-0.3l0.5-0.2l0.7,0l0.7-0.2l0.2-0.1l0-0.1l0.5-0.7l0.2-0.4
			l0.2-0.3l0.5-0.5l0-0.3L-431.9,266.4L-431.9,266.4L-431.9,266.4z"/>
		<path class="st1" d="M-430.5,291.2l-0.4,1c-0.4-0.3-1-0.4-1.8-0.4c-0.8,0-1.4,0.3-1.8,1c-0.5,0.7-0.7,1.5-0.7,2.6
			c0,1,0.2,1.8,0.7,2.4c0.5,0.6,1.1,0.9,1.8,0.9c0.8,0,1.5-0.3,1.9-0.9l0.7,0.9c-0.7,0.7-1.6,1-2.7,1c-1.1,0-2-0.4-2.7-1.2
			c-0.7-0.8-1-1.9-1-3.3c0-1.3,0.4-2.4,1.1-3.3c0.7-0.9,1.6-1.3,2.7-1.3C-431.7,290.8-431,290.9-430.5,291.2L-430.5,291.2z"/>
		<polygon class="st1" points="-428.5,299.7 -428.5,290.9 -427.3,290.9 -427.3,299.7 		"/>
		<polygon class="st1" points="-424.1,292 -424.1,294.4 -421.1,294.4 -421.1,295.4 -424.1,295.4 -424.1,299.7 -425.3,299.7 
			-425.3,290.9 -419.9,290.9 -419.9,292 		"/>
		<path class="st1" d="M-418.1,295.2c0,1,0.2,1.8,0.6,2.5c0.4,0.7,1,1,1.7,1c0.8,0,1.4-0.3,1.9-0.9c0.4-0.6,0.6-1.5,0.6-2.6
			c0-2.3-0.8-3.4-2.5-3.4c-0.7,0-1.3,0.3-1.7,0.9C-417.9,293.3-418.1,294.2-418.1,295.2L-418.1,295.2z M-419.3,295.2
			c0-1.3,0.3-2.3,1-3.2c0.6-0.9,1.5-1.3,2.6-1.3c1.2,0,2.1,0.4,2.8,1.2c0.6,0.8,1,1.9,1,3.3c0,1.4-0.3,2.6-1,3.4
			c-0.6,0.8-1.6,1.2-2.8,1.2c-1.1,0-2-0.4-2.6-1.3C-419,297.7-419.3,296.6-419.3,295.2L-419.3,295.2z"/>
		<path class="st1" d="M-409.4,292v2.8c0.3,0,0.6,0.1,0.8,0.1c0.7,0,1.2-0.1,1.6-0.3c0.3-0.2,0.5-0.6,0.5-1.2c0-0.5-0.2-0.8-0.5-1.1
			c-0.4-0.2-0.9-0.3-1.7-0.3C-408.8,291.9-409,291.9-409.4,292L-409.4,292z M-405.8,299.7l-2.3-3.8c-0.3,0-0.7,0-1.3-0.1v3.8h-1.2
			v-8.8c0,0,0.4,0,0.9,0c0.6,0,1,0,1.3,0c2.1,0,3.2,0.8,3.2,2.5c0,0.6-0.2,1-0.5,1.5c-0.3,0.4-0.7,0.7-1.2,0.8l2.5,4L-405.8,299.7
			L-405.8,299.7z"/>
	</g>
</g>
</svg>
