<?xml version="1.0" encoding="utf-8"?>
<!-- Generator: Adobe Illustrator 16.0.0, SVG Export Plug-In . SVG Version: 6.00 Build 0)  -->
<!DOCTYPE svg PUBLIC "-//W3C//DTD SVG 1.1//EN" "http://www.w3.org/Graphics/SVG/1.1/DTD/svg11.dtd">
<svg version="1.1" id="Layer_1" xmlns="http://www.w3.org/2000/svg" xmlns:xlink="http://www.w3.org/1999/xlink" x="0px" y="0px"
	 width="155.885px" height="52.973px" viewBox="0 0 155.885 52.973" style="enable-background:new 0 0 155.885 52.973;"
	 xml:space="preserve">
<g>
	<defs>
		<rect id="SVGID_1_" width="155.885" height="52.973"/>
	</defs>
	<clipPath id="SVGID_2_">
		<use xlink:href="#SVGID_1_"  style="overflow:visible;"/>
	</clipPath>
	<path style="clip-path:url(#SVGID_2_);fill:#037D35;" d="M21.128,17.716c-0.491-0.634-1.67-1.671-2.286-2.288
		c-0.95-0.949-1.196-1.23-1.196-2.851V5.68c0-0.985-1.514-0.844-1.514,0.035c0,0-0.107,12.001,0,13.022
		c0.105,1.02-0.4,1.816,1.232,2.851c1.806,1.145,4.399,1.9,4.399,1.9s0.035-2.64,0.071-3.625
		C21.869,18.879,21.622,18.35,21.128,17.716 M20.367,21.468c0,0.004-0.004,0.009-0.004,0.009c-2.529-1.03-2.973-0.831-2.656-4.672
		C20.694,18.635,20.486,19.308,20.367,21.468"/>
	<path style="clip-path:url(#SVGID_2_);fill:#037D35;" d="M23.335,19.863c0.036,0.986,0.07,3.624,0.07,3.624
		s2.594-0.755,4.399-1.899c1.631-1.034,1.127-1.83,1.232-2.85c0.105-1.022,0-13.024,0-13.024c0-0.878-1.514-1.019-1.514-0.033v6.897
		c0,1.62-0.246,1.901-1.196,2.85c-0.616,0.617-1.795,1.654-2.287,2.288C23.545,18.349,23.298,18.877,23.335,19.863 M27.462,16.804
		c0.316,3.843-0.127,3.643-2.657,4.673c0,0-0.004-0.005-0.004-0.01C24.682,19.308,24.472,18.634,27.462,16.804"/>
	<path style="clip-path:url(#SVGID_2_);fill:#037D35;" d="M24.584,10.701c-0.883-1.576,0,0-1.218-2.053V1.035
		c0-1.191-1.503-1.097-1.503,0l0.018,7.603c0,0-1.283,2.158-1.641,3.017c-0.357,0.86-0.838,1.891,0.377,3.275
		c0.092,0.106,0.245,0.397,2.02,2.063c0.001,0,0.038-0.04,0.038-0.04s-0.01-0.009,1.552-1.551
		C26.159,13.493,25.466,12.274,24.584,10.701 M22.626,15.138c-2.914-1.56-0.83-3.673,0-5.072l0.073,0.116
		C24.841,13.388,24.26,13.87,22.626,15.138"/>
	<path style="clip-path:url(#SVGID_2_);fill:#037D35;" d="M21.719,27.02c-0.073-1.494-0.602-2.816-3.66-3.961
		c-2.569-0.962-6.203-1.171-8.843-1.594C6.575,21.041,2.192,20.319,0,18.227c1.644,5.462,5.76,7.748,9.939,8.643
		c4.731,1.012,8.975,1.439,11.554,3.232l0.262,0.182C21.609,29.021,21.794,28.513,21.719,27.02 M20.41,27.745
		c-2.264-0.867-3.773-1.093-7.848-1.913c-4.077-0.819-6.513-1.568-8.716-3.887c3.538,1.358,9.208,1.851,12.3,2.505
		c3.092,0.657,3.935,1.458,4.266,3.292L20.41,27.745z"/>
	<path style="clip-path:url(#SVGID_2_);fill:#037D35;" d="M23.375,30.282l0.262-0.18c2.58-1.793,6.824-2.219,11.555-3.232
		c4.179-0.894,8.296-3.18,9.939-8.643c-2.192,2.092-6.576,2.814-9.216,3.239c-2.641,0.422-6.273,0.631-8.842,1.593
		c-3.058,1.145-3.587,2.467-3.662,3.959C23.338,28.514,23.523,29.022,23.375,30.282 M24.719,27.743
		c0.331-1.835,1.174-2.635,4.266-3.293c3.092-0.654,8.762-1.148,12.3-2.505c-2.203,2.319-4.64,3.068-8.715,3.889
		c-4.077,0.819-5.586,1.044-7.849,1.911L24.719,27.743z"/>
	<path style="clip-path:url(#SVGID_2_);fill:#037D35;" d="M21.564,33.963c0.034-2.938-1.65-3.762-4.16-4.424
		c-2.508-0.658-6.004-1.154-8.977-2.013c-2.971-0.859-4.622-1.419-6.635-3.599c0.428,4.26,3.399,7.263,7.063,8.551
		c3.665,1.287,3.467,1.023,5.447,1.518c1.981,0.496,2.343,1.223,2.343,2.443v2.508h4.919C21.664,33.271,21.531,36.901,21.564,33.963
		 M20.135,37.355h-2.004c0,0,0.045-0.829-0.072-2.256c-0.157-1.884-2.351-2.05-5.963-3.054c-2.479-0.688-5.714-1.58-7.16-4.058
		c0.88,0.388,2.641,1.132,5.517,1.724c2.738,0.562,4.3,0.881,6.818,1.404c2.396,0.499,2.864,1.969,2.864,3.586V37.355z"/>
	<path style="clip-path:url(#SVGID_2_);fill:#037D35;" d="M23.476,38.956h4.919v-2.509c0-1.221,0.363-1.946,2.344-2.442
		c1.979-0.494,1.782-0.231,5.446-1.519c3.664-1.287,6.634-4.29,7.062-8.549c-2.014,2.179-3.664,2.739-6.635,3.598
		c-2.97,0.859-6.468,1.354-8.977,2.013c-2.51,0.662-4.194,1.486-4.161,4.426C23.51,36.909,23.377,33.279,23.476,38.956
		 M24.906,34.709c0-1.617,0.467-3.088,2.863-3.586c2.519-0.523,4.082-0.843,6.817-1.404c2.876-0.592,4.641-1.336,5.517-1.723
		c-1.445,2.479-4.681,3.369-7.162,4.057c-3.609,1.004-5.805,1.17-5.96,3.053c-0.117,1.427-0.071,2.257-0.071,2.257h-2.005V34.709z"
		/>
	<path style="clip-path:url(#SVGID_2_);fill:#037D35;" d="M11.629,52.701c-0.631,0.147-1.311,0.272-1.968,0.272
		c-2.794,0-4.737-1.397-4.737-4.318c0-2.956,1.806-4.613,4.737-4.613c0.571,0,1.325,0.111,1.956,0.359l-0.124,1.459
		c-0.655-0.37-1.249-0.458-1.867-0.458c-1.783,0-2.896,1.36-2.896,3.13c0,1.757,1.088,3.079,2.931,3.079
		c0.682,0,1.486-0.147,1.894-0.356L11.629,52.701z"/>
	<path style="clip-path:url(#SVGID_2_);fill:#037D35;" d="M19.646,45.861c-0.667-0.31-1.534-0.459-2.228-0.459
		c-2.015,0-3.13,1.36-3.13,3.13c0,1.757,1.09,3.08,2.934,3.08c0.469,0,0.841-0.049,1.138-0.123v-2.251h-1.831v-1.362h3.487v4.652
		c-0.915,0.246-1.867,0.445-2.794,0.445c-2.797,0-4.739-1.398-4.739-4.316c0-2.958,1.805-4.614,4.739-4.614
		c1.002,0,1.792,0.136,2.535,0.356L19.646,45.861z"/>
	<rect x="21.686" y="44.19" style="clip-path:url(#SVGID_2_);fill:#037D35;" width="1.732" height="8.634"/>
	<path style="clip-path:url(#SVGID_2_);fill:#037D35;" d="M29.948,49.485h-2.522l1.249-3.564H28.7L29.948,49.485z M24.383,52.825
		h1.792l0.756-1.979h3.501l0.743,1.979h1.917l-3.391-8.636h-1.953L24.383,52.825z"/>
	<path style="clip-path:url(#SVGID_2_);fill:#037D35;" d="M35.789,45.551h0.568c0.867,0,1.832,0.087,1.832,1.123
		c0,1.078-0.977,1.203-1.832,1.203h-0.568V45.551z M34.057,52.825h1.732v-3.589h0.557c0.729,0,0.953,0.249,1.199,0.892l1.04,2.697
		h1.93l-1.386-3.377c-0.173-0.384-0.444-0.854-0.915-0.891v-0.025c1.1-0.147,1.782-0.99,1.782-2.004c0-2.398-2.215-2.339-4.07-2.339
		h-1.868V52.825z"/>
	<path style="clip-path:url(#SVGID_2_);fill:#037D35;" d="M59.709,5.963h2.356c0.881,0,1.598,0.398,1.598,1.25
		c0,0.66-0.313,1.1-0.951,1.249v0.014c0.425,0.114,0.454,0.49,0.702,1.094l0.483,1.348H62.52l-0.284-0.894
		c-0.27-0.852-0.44-1.065-0.93-1.065h-0.277v1.959h-1.32V5.963z M61.029,8.022h0.348c0.426,0,0.965-0.014,0.965-0.575
		c0-0.462-0.461-0.547-0.965-0.547h-0.348V8.022z"/>
	<polygon style="clip-path:url(#SVGID_2_);fill:#037D35;" points="64.905,5.964 68.398,5.964 68.398,6.901 66.225,6.901 
		66.225,7.923 68.276,7.923 68.276,8.86 66.225,8.86 66.225,9.982 68.476,9.982 68.476,10.919 64.905,10.919 	"/>
	<path style="clip-path:url(#SVGID_2_);fill:#037D35;" d="M69.746,9.698c0.34,0.185,0.817,0.327,1.363,0.327
		c0.419,0,0.816-0.085,0.816-0.483c0-0.923-2.342-0.341-2.342-2.144c0-1.193,1.164-1.519,2.158-1.519
		c0.476,0,0.944,0.071,1.278,0.184l-0.086,1.023c-0.34-0.156-0.725-0.227-1.1-0.227c-0.333,0-0.887,0.028-0.887,0.461
		c0,0.802,2.343,0.263,2.343,2.052c0,1.285-1.081,1.632-2.18,1.632c-0.461,0-1.036-0.07-1.477-0.213L69.746,9.698z"/>
	<polygon style="clip-path:url(#SVGID_2_);fill:#037D35;" points="74.495,5.964 77.988,5.964 77.988,6.901 75.815,6.901 
		75.815,7.923 77.867,7.923 77.867,8.86 75.815,8.86 75.815,9.982 78.066,9.982 78.066,10.919 74.495,10.919 	"/>
	<path style="clip-path:url(#SVGID_2_);fill:#037D35;" d="M80.805,5.964h1.619l1.91,4.955h-1.448l-0.369-1.058h-1.86l-0.391,1.058
		h-1.342L80.805,5.964z M81.615,6.986h-0.015l-0.639,1.938h1.241L81.615,6.986z"/>
	<path style="clip-path:url(#SVGID_2_);fill:#037D35;" d="M85.277,5.963h2.356c0.88,0,1.597,0.398,1.597,1.25
		c0,0.66-0.312,1.1-0.951,1.249v0.014c0.427,0.114,0.455,0.49,0.703,1.094l0.483,1.348h-1.377l-0.285-0.894
		c-0.269-0.852-0.44-1.065-0.93-1.065h-0.276v1.959h-1.32V5.963z M86.598,8.022h0.348c0.427,0,0.965-0.014,0.965-0.575
		c0-0.462-0.461-0.547-0.965-0.547h-0.348V8.022z"/>
	<path style="clip-path:url(#SVGID_2_);fill:#037D35;" d="M94.641,10.805c-0.376,0.092-0.795,0.199-1.47,0.199
		c-1.32,0-2.847-0.668-2.847-2.542c0-1.725,1.207-2.584,2.84-2.584c0.504,0,0.994,0.114,1.47,0.256l-0.106,1.072
		c-0.426-0.235-0.839-0.348-1.293-0.348c-0.937,0-1.547,0.681-1.547,1.604c0,0.973,0.688,1.562,1.654,1.562
		c0.433,0,0.873-0.113,1.234-0.255L94.641,10.805z"/>
	<polygon style="clip-path:url(#SVGID_2_);fill:#037D35;" points="95.697,5.964 97.018,5.964 97.018,7.859 98.579,7.859 
		98.579,5.964 99.9,5.964 99.9,10.919 98.579,10.919 98.579,8.796 97.018,8.796 97.018,10.919 95.697,10.919 	"/>
	<path style="clip-path:url(#SVGID_2_);fill:#037D35;" d="M59.673,14.482h1.576c1.511,0,2.222,0.511,2.222,1.626
		c0,1.001-0.731,1.597-1.967,1.597h-0.511v1.732h-1.32V14.482z M60.993,16.768h0.341c0.455,0,0.816-0.163,0.816-0.681
		c0-0.505-0.362-0.668-0.816-0.668h-0.341V16.768z"/>
	<path style="clip-path:url(#SVGID_2_);fill:#037D35;" d="M64.508,14.482h2.356c0.881,0,1.598,0.398,1.598,1.25
		c0,0.66-0.313,1.1-0.951,1.249v0.014c0.425,0.114,0.454,0.49,0.702,1.094l0.483,1.348h-1.377l-0.284-0.894
		c-0.27-0.852-0.44-1.065-0.93-1.065h-0.277v1.959h-1.319V14.482z M65.827,16.541h0.349c0.426,0,0.965-0.014,0.965-0.575
		c0-0.462-0.461-0.547-0.965-0.547h-0.349V16.541z"/>
	<path style="clip-path:url(#SVGID_2_);fill:#037D35;" d="M72.032,14.397c1.633,0,2.485,0.973,2.485,2.563
		c0,1.576-0.867,2.563-2.485,2.563c-1.619,0-2.485-0.987-2.485-2.563C69.547,15.37,70.399,14.397,72.032,14.397 M72.032,18.543
		c0.802,0,1.122-0.767,1.122-1.583c0-0.859-0.32-1.583-1.122-1.583c-0.802,0-1.123,0.724-1.123,1.583
		C70.909,17.776,71.23,18.543,72.032,18.543"/>
	<path style="clip-path:url(#SVGID_2_);fill:#037D35;" d="M80.295,19.295c-0.838,0.213-1.462,0.227-1.917,0.227
		c-1.32,0-2.846-0.667-2.846-2.542c0-1.866,1.313-2.584,3.13-2.584c0.327,0,1.017,0.036,1.498,0.22l-0.106,1.079
		c-0.412-0.241-0.895-0.319-1.207-0.319c-1.072,0-1.952,0.447-1.952,1.604c0,0.973,0.688,1.562,1.654,1.562
		c0.177,0,0.347-0.028,0.468-0.085v-0.979h-0.774v-0.938h2.053V19.295z"/>
	<path style="clip-path:url(#SVGID_2_);fill:#037D35;" d="M81.664,14.482h2.357c0.88,0,1.598,0.398,1.598,1.25
		c0,0.66-0.313,1.1-0.951,1.249v0.014c0.426,0.114,0.453,0.49,0.701,1.094l0.483,1.348h-1.377l-0.284-0.894
		c-0.27-0.852-0.439-1.065-0.93-1.065h-0.277v1.959h-1.32V14.482z M82.984,16.541h0.348c0.426,0,0.965-0.014,0.965-0.575
		c0-0.462-0.461-0.547-0.965-0.547h-0.348V16.541z"/>
	<path style="clip-path:url(#SVGID_2_);fill:#037D35;" d="M88.373,14.482h1.617l1.91,4.955h-1.447l-0.371-1.058h-1.858l-0.392,1.058
		H86.49L88.373,14.482z M89.182,15.504h-0.014l-0.639,1.938h1.241L89.182,15.504z"/>
	<polygon style="clip-path:url(#SVGID_2_);fill:#037D35;" points="92.844,14.482 94.924,14.482 95.975,17.776 95.989,17.776 
		97.089,14.482 99.091,14.482 99.091,19.437 97.799,19.437 97.821,15.632 97.807,15.632 96.543,19.437 95.329,19.437 94.122,15.632 
		94.107,15.632 94.137,19.437 92.844,19.437 	"/>
	<path style="clip-path:url(#SVGID_2_);fill:#037D35;" d="M105.367,14.397c1.633,0,2.483,0.973,2.483,2.563
		c0,1.576-0.866,2.563-2.483,2.563c-1.619,0-2.485-0.987-2.485-2.563C102.882,15.37,103.733,14.397,105.367,14.397 M105.367,18.543
		c0.801,0,1.121-0.767,1.121-1.583c0-0.859-0.32-1.583-1.121-1.583c-0.803,0-1.123,0.724-1.123,1.583
		C104.244,17.776,104.564,18.543,105.367,18.543"/>
	<polygon style="clip-path:url(#SVGID_2_);fill:#037D35;" points="109.071,14.482 110.754,14.482 112.43,17.847 112.443,17.847 
		112.422,14.482 113.629,14.482 113.629,19.437 111.989,19.437 110.258,16.051 110.243,16.051 110.285,19.437 109.071,19.437 	"/>
	<polygon style="clip-path:url(#SVGID_2_);fill:#037D35;" points="59.276,24.467 63.779,24.467 63.779,25.535 60.49,25.535 
		60.49,28.01 63.633,28.01 63.633,29.079 60.49,29.079 60.49,32.939 59.276,32.939 	"/>
	<path style="clip-path:url(#SVGID_2_);fill:#037D35;" d="M67.941,26.603c1.881,0,3.144,1.359,3.144,3.242
		c0,1.771-1.287,3.24-3.144,3.24c-1.869,0-3.156-1.469-3.156-3.24C64.785,27.961,66.048,26.603,67.941,26.603 M67.941,32.162
		c1.334,0,1.93-1.214,1.93-2.317c0-1.178-0.716-2.319-1.93-2.319c-1.227,0-1.942,1.142-1.942,2.319
		C65.999,30.948,66.594,32.162,67.941,32.162"/>
	<path style="clip-path:url(#SVGID_2_);fill:#037D35;" d="M72.491,26.749h1.068v0.959h0.024c0.304-0.643,0.958-1.104,1.614-1.104
		c0.34,0,0.51,0.036,0.753,0.084v1.02c-0.206-0.085-0.437-0.109-0.631-0.109c-1.02,0-1.687,0.971-1.687,2.524v2.815h-1.141V26.749z"
		/>
	<path style="clip-path:url(#SVGID_2_);fill:#037D35;" d="M81.848,32.684c-0.438,0.158-0.934,0.4-1.954,0.4
		c-2.197,0-3.204-1.336-3.204-3.35c0-1.833,1.153-3.132,2.901-3.132c2.063,0,2.731,1.505,2.731,3.496h-4.418
		c0,1.227,0.958,2.063,2.04,2.063c0.752,0,1.625-0.389,1.904-0.618V32.684z M81.107,29.249c0-0.947-0.558-1.724-1.541-1.724
		c-1.117,0-1.578,0.923-1.663,1.724H81.107z"/>
	<path style="clip-path:url(#SVGID_2_);fill:#037D35;" d="M83.268,31.725c0.449,0.291,1.092,0.438,1.42,0.438
		c0.521,0,1.164-0.22,1.164-0.887c0-1.129-2.682-1.032-2.682-2.768c0-1.287,0.959-1.905,2.185-1.905c0.534,0,0.972,0.109,1.42,0.243
		l-0.097,0.994c-0.256-0.158-0.935-0.315-1.201-0.315c-0.582,0-1.092,0.243-1.092,0.753c0,1.262,2.682,0.898,2.682,2.877
		c0,1.323-1.057,1.93-2.161,1.93c-0.582,0-1.177-0.062-1.699-0.34L83.268,31.725z"/>
	<path style="clip-path:url(#SVGID_2_);fill:#037D35;" d="M91.629,27.67H89.99v3.387c0,0.716,0.438,1.105,0.959,1.105
		c0.352,0,0.606-0.111,0.777-0.22v0.972c-0.256,0.072-0.607,0.17-0.972,0.17c-1.179,0-1.905-0.559-1.905-1.797V27.67h-1.396v-0.922
		h1.396v-1.432l1.141-0.364v1.796h1.639V27.67z"/>
	<path style="clip-path:url(#SVGID_2_);fill:#037D35;" d="M92.49,31.725c0.448,0.291,1.092,0.438,1.42,0.438
		c0.521,0,1.164-0.22,1.164-0.887c0-1.129-2.682-1.032-2.682-2.768c0-1.287,0.959-1.905,2.186-1.905c0.533,0,0.971,0.109,1.42,0.243
		L95.9,27.84c-0.255-0.158-0.936-0.315-1.201-0.315c-0.582,0-1.093,0.243-1.093,0.753c0,1.262,2.683,0.898,2.683,2.877
		c0,1.323-1.057,1.93-2.16,1.93c-0.584,0-1.178-0.062-1.699-0.34L92.49,31.725z"/>
	<polygon style="clip-path:url(#SVGID_2_);fill:#037D35;" points="97.599,31.579 98.958,31.579 97.926,34.553 96.834,34.553 	"/>
	<polygon style="clip-path:url(#SVGID_2_);fill:#037D35;" points="105.887,25.535 103.254,25.535 103.254,24.467 109.734,24.467 
		109.734,25.535 107.102,25.535 107.102,32.938 105.887,32.938 	"/>
	<path style="clip-path:url(#SVGID_2_);fill:#037D35;" d="M110.717,26.749h1.068v0.959h0.023c0.305-0.643,0.961-1.104,1.615-1.104
		c0.34,0,0.509,0.036,0.753,0.084v1.02c-0.207-0.085-0.438-0.109-0.632-0.109c-1.02,0-1.688,0.971-1.688,2.524v2.815h-1.141V26.749z
		"/>
	<path style="clip-path:url(#SVGID_2_);fill:#037D35;" d="M120.074,32.684c-0.438,0.158-0.936,0.4-1.954,0.4
		c-2.197,0-3.204-1.336-3.204-3.35c0-1.833,1.152-3.132,2.9-3.132c2.063,0,2.731,1.505,2.731,3.496h-4.419
		c0,1.227,0.959,2.063,2.04,2.063c0.752,0,1.626-0.389,1.905-0.618V32.684z M119.334,29.249c0-0.947-0.559-1.724-1.542-1.724
		c-1.117,0-1.578,0.923-1.663,1.724H119.334z"/>
	<path style="clip-path:url(#SVGID_2_);fill:#037D35;" d="M126.713,32.684c-0.438,0.158-0.936,0.4-1.955,0.4
		c-2.197,0-3.205-1.336-3.205-3.35c0-1.833,1.153-3.132,2.901-3.132c2.063,0,2.731,1.505,2.731,3.496h-4.418
		c0,1.227,0.959,2.063,2.039,2.063c0.752,0,1.625-0.389,1.906-0.618V32.684z M125.971,29.249c0-0.947-0.559-1.724-1.541-1.724
		c-1.116,0-1.578,0.923-1.662,1.724H125.971z"/>
	<path style="clip-path:url(#SVGID_2_);fill:#037D35;" d="M128.131,31.725c0.449,0.291,1.093,0.438,1.42,0.438
		c0.521,0,1.165-0.22,1.165-0.887c0-1.129-2.683-1.032-2.683-2.768c0-1.287,0.959-1.905,2.186-1.905
		c0.534,0,0.971,0.109,1.419,0.243l-0.096,0.994c-0.255-0.158-0.935-0.315-1.202-0.315c-0.582,0-1.093,0.243-1.093,0.753
		c0,1.262,2.683,0.898,2.683,2.877c0,1.323-1.056,1.93-2.16,1.93c-0.582,0-1.178-0.062-1.699-0.34L128.131,31.725z"/>
	<path style="clip-path:url(#SVGID_2_);fill:#037D35;" d="M136.76,27.185c0.57-0.34,1.25-0.582,2.039-0.582
		c1.771,0,2.488,0.874,2.488,2.562v2.561c0,0.704,0.023,1.031,0.048,1.214h-1.067v-0.801h-0.024
		c-0.269,0.376-0.874,0.946-1.918,0.946c-1.335,0-2.271-0.582-2.271-1.93c0-1.554,1.699-2.039,2.877-2.039
		c0.449,0,0.766,0,1.213,0.023c0-1.068-0.387-1.614-1.528-1.614c-0.644,0-1.335,0.243-1.796,0.632L136.76,27.185z M140.145,29.989
		c-0.241,0-0.484-0.023-0.728-0.023c-0.618,0-2.147,0.097-2.147,1.189c0,0.655,0.631,1.008,1.152,1.008
		c1.129,0,1.723-0.705,1.723-1.627V29.989z"/>
	<path style="clip-path:url(#SVGID_2_);fill:#037D35;" d="M143.105,26.749h1.105v0.982h0.023c0.34-0.703,1.166-1.127,2.027-1.127
		c1.602,0,2.318,0.995,2.318,2.658v3.677h-1.141v-3.203c0-1.444-0.315-2.149-1.312-2.209c-1.3,0-1.881,1.043-1.881,2.549v2.863
		h-1.142V26.749z"/>
	<path style="clip-path:url(#SVGID_2_);fill:#037D35;" d="M154.793,32.065h-0.025c-0.303,0.461-1.006,1.02-2.111,1.02
		c-1.869,0-2.658-1.662-2.658-3.35c0-1.663,0.874-3.132,2.67-3.132c1.081,0,1.699,0.425,2.053,0.996h0.023v-3.762h1.141v9.103
		h-1.092V32.065z M152.924,32.162c1.287,0,1.82-1.274,1.82-2.306c0-1.153-0.594-2.331-1.833-2.331c-1.237,0-1.724,1.166-1.698,2.294
		C151.188,30.792,151.698,32.162,152.924,32.162"/>
	<path style="clip-path:url(#SVGID_2_);fill:#037D35;" d="M62.031,37.357h1.274l3.581,8.472h-1.323l-0.862-2.135H60.55l-0.862,2.135
		h-1.274L62.031,37.357z M62.626,38.499l-1.687,4.199h3.374L62.626,38.499z"/>
	<path style="clip-path:url(#SVGID_2_);fill:#037D35;" d="M73.366,45.561c0,1.883-0.971,2.963-3.192,2.963
		c-0.656,0-1.226-0.086-2.221-0.426l0.121-1.056c0.874,0.401,1.396,0.56,2.233,0.56c1.202,0,1.918-0.813,1.918-2.125V44.87h-0.024
		c-0.486,0.645-1.287,0.959-2.076,0.959c-1.772,0-2.646-1.443-2.646-3.046c0-1.59,0.899-3.289,2.768-3.289
		c1.092,0,1.699,0.399,2.038,1.067h0.024v-0.922h1.056V45.561z M72.225,42.807c0-1.287-0.595-2.392-1.808-2.392
		c-1.153,0-1.725,1.25-1.725,2.306c0,1.166,0.655,2.186,1.725,2.186C71.484,44.907,72.225,43.959,72.225,42.807"/>
	<path style="clip-path:url(#SVGID_2_);fill:#037D35;" d="M75.197,39.639h1.068v0.959h0.024c0.304-0.643,0.959-1.104,1.614-1.104
		c0.34,0,0.51,0.035,0.753,0.084v1.02c-0.206-0.085-0.438-0.109-0.631-0.109c-1.02,0-1.687,0.971-1.687,2.524v2.815h-1.141V39.639z"
		/>
	<path style="clip-path:url(#SVGID_2_);fill:#037D35;" d="M82.552,39.493c1.881,0,3.144,1.361,3.144,3.242
		c0,1.771-1.287,3.24-3.144,3.24c-1.869,0-3.156-1.469-3.156-3.24C79.396,40.854,80.658,39.493,82.552,39.493 M82.552,45.052
		c1.335,0,1.931-1.214,1.931-2.317c0-1.179-0.717-2.318-1.931-2.318c-1.226,0-1.942,1.14-1.942,2.318
		C80.609,43.838,81.205,45.052,82.552,45.052"/>
	<path style="clip-path:url(#SVGID_2_);fill:#037D35;" d="M87.854,40.561h-1.455v-0.922h1.455v-0.57
		c0-1.506,0.389-2.488,2.076-2.488c0.291,0,0.534,0.036,0.764,0.072l-0.047,0.923c-0.135-0.048-0.354-0.072-0.547-0.072
		c-0.983,0-1.104,0.632-1.104,1.468v0.668h1.638v0.922h-1.638v5.268h-1.142V40.561z"/>
	<path style="clip-path:url(#SVGID_2_);fill:#037D35;" d="M94.469,39.493c1.881,0,3.143,1.361,3.143,3.242
		c0,1.771-1.286,3.24-3.143,3.24c-1.869,0-3.156-1.469-3.156-3.24C91.312,40.854,92.575,39.493,94.469,39.493 M94.469,45.052
		c1.334,0,1.93-1.214,1.93-2.317c0-1.179-0.717-2.318-1.93-2.318c-1.227,0-1.942,1.14-1.942,2.318
		C92.526,43.838,93.121,45.052,94.469,45.052"/>
	<path style="clip-path:url(#SVGID_2_);fill:#037D35;" d="M99.019,39.639h1.067v0.959h0.024c0.304-0.643,0.959-1.104,1.614-1.104
		c0.34,0,0.511,0.035,0.753,0.084v1.02c-0.206-0.085-0.437-0.109-0.631-0.109c-1.019,0-1.687,0.971-1.687,2.524v2.815h-1.142V39.639
		z"/>
	<path style="clip-path:url(#SVGID_2_);fill:#037D35;" d="M108.376,45.575c-0.438,0.158-0.935,0.4-1.955,0.4
		c-2.197,0-3.204-1.336-3.204-3.35c0-1.834,1.152-3.132,2.9-3.132c2.063,0,2.731,1.505,2.731,3.495h-4.418
		c0,1.227,0.959,2.063,2.039,2.063c0.752,0,1.626-0.389,1.906-0.618V45.575z M107.635,42.139c0-0.947-0.559-1.724-1.542-1.724
		c-1.116,0-1.577,0.923-1.662,1.724H107.635z"/>
	<path style="clip-path:url(#SVGID_2_);fill:#037D35;" d="M109.795,44.616c0.449,0.291,1.092,0.437,1.42,0.437
		c0.521,0,1.164-0.219,1.164-0.886c0-1.128-2.682-1.032-2.682-2.768c0-1.287,0.958-1.906,2.186-1.906
		c0.533,0,0.97,0.109,1.418,0.244l-0.096,0.994c-0.255-0.158-0.935-0.315-1.201-0.315c-0.582,0-1.094,0.243-1.094,0.753
		c0,1.262,2.684,0.898,2.684,2.877c0,1.322-1.057,1.93-2.161,1.93c-0.582,0-1.177-0.062-1.699-0.34L109.795,44.616z"/>
	<path style="clip-path:url(#SVGID_2_);fill:#037D35;" d="M118.156,40.561h-1.639v3.388c0,0.715,0.437,1.104,0.959,1.104
		c0.353,0,0.606-0.109,0.776-0.22v0.972c-0.255,0.072-0.606,0.17-0.971,0.17c-1.177,0-1.905-0.559-1.905-1.797v-3.617h-1.396v-0.922
		h1.396v-1.433l1.141-0.364v1.797h1.639V40.561z"/>
	<path style="clip-path:url(#SVGID_2_);fill:#037D35;" d="M119.479,39.639h1.068v0.959h0.024c0.303-0.643,0.959-1.104,1.614-1.104
		c0.34,0,0.51,0.035,0.752,0.084v1.02c-0.207-0.085-0.438-0.109-0.631-0.109c-1.02,0-1.688,0.971-1.688,2.524v2.815h-1.141V39.639z"
		/>
	<path style="clip-path:url(#SVGID_2_);fill:#037D35;" d="M123.629,47.504c0.146,0.049,0.34,0.098,0.533,0.098
		c1.021,0,1.359-1.409,1.359-1.53c0-0.133-0.146-0.448-0.218-0.655l-2.101-5.777h1.25l1.664,5.123h0.023l1.7-5.123h1.151
		l-2.281,6.324c-0.424,1.188-0.873,2.561-2.379,2.561c-0.363,0-0.57-0.049-0.776-0.085L123.629,47.504z"/>
	<line style="clip-path:url(#SVGID_2_);fill:none;stroke:#037D35;stroke-width:0.406;" x1="52.623" y1="0" x2="52.623" y2="52.76"/>
</g>
</svg>
