<?xml version="1.0" encoding="utf-8"?>
<!-- Generator: Adobe Illustrator 21.0.0, SVG Export Plug-In . SVG Version: 6.00 Build 0)  -->
<svg version="1.1" id="Layer_1" xmlns="http://www.w3.org/2000/svg" xmlns:xlink="http://www.w3.org/1999/xlink" x="0px" y="0px"
	 viewBox="0 0 155.9 53" style="enable-background:new 0 0 155.9 53;" xml:space="preserve">
<style type="text/css">
	.st0{fill:#FFFFFF;}
	.st1{fill:none;stroke:#FFFFFF;stroke-width:0.406;}
</style>
<path id="XMLID_130_" class="st0" d="M21.1,17.7c-0.5-0.6-1.7-1.7-2.3-2.3c-1-0.9-1.2-1.2-1.2-2.9V5.6c0-1-1.5-0.8-1.5,0
	c0,0-0.1,12,0,13s-0.4,1.8,1.2,2.9c1.8,1.1,4.4,1.9,4.4,1.9s0-2.6,0.1-3.6C21.9,18.8,21.6,18.3,21.1,17.7 M20.4,21.4
	C20.4,21.4,20.3,21.4,20.4,21.4c-2.5-1-3-0.8-2.7-4.7C20.7,18.6,20.5,19.3,20.4,21.4"/>
<path id="XMLID_127_" class="st0" d="M23.3,19.8c0,1,0.1,3.6,0.1,3.6s2.6-0.8,4.4-1.9c1.6-1,1.1-1.8,1.2-2.9c0.1-1,0-13,0-13
	c0-0.9-1.5-1-1.5,0v6.9c0,1.6-0.2,1.9-1.2,2.9c-0.6,0.6-1.8,1.7-2.3,2.3C23.5,18.3,23.3,18.8,23.3,19.8 M27.4,16.8
	c0.3,3.8-0.1,3.6-2.7,4.7l0,0C24.7,19.3,24.5,18.6,27.4,16.8"/>
<path id="XMLID_124_" class="st0" d="M24.6,10.7c-0.9-1.6,0,0-1.2-2.1V1c0-1.2-1.5-1.1-1.5,0v7.6c0,0-1.3,2.2-1.6,3
	c-0.4,0.9-0.8,1.9,0.4,3.3c0.1,0.1,0.2,0.4,2,2.1l0,0c0,0,0,0,1.6-1.6C26.1,13.5,25.5,12.2,24.6,10.7 M22.6,15.1
	c-2.9-1.6-0.8-3.7,0-5.1l0.1,0.1C24.8,13.4,24.2,13.8,22.6,15.1"/>
<path id="XMLID_121_" class="st0" d="M21.7,27c-0.1-1.5-0.6-2.8-3.7-4c-2.6-1-6.2-1.2-8.8-1.6c-2.6-0.4-7-1.1-9.2-3.2
	c1.6,5.5,5.8,7.7,9.9,8.6c4.7,1,9,1.4,11.6,3.2l0.3,0.2C21.6,29,21.8,28.5,21.7,27 M20.4,27.7c-2.3-0.9-3.8-1.1-7.8-1.9
	c-4.1-0.8-6.5-1.6-8.7-3.9c3.5,1.4,9.2,1.9,12.3,2.5C19.2,25.1,20.1,25.9,20.4,27.7L20.4,27.7z"/>
<path id="XMLID_118_" class="st0" d="M23.4,30.2l0.3-0.2c2.6-1.8,6.8-2.2,11.6-3.2c4.2-0.9,8.3-3.2,9.9-8.6C43,20.3,38.6,21,36,21.4
	S29.7,22,27.2,23c-3.1,1.1-3.6,2.5-3.7,4C23.3,28.5,23.5,29,23.4,30.2 M24.7,27.7c0.3-1.8,1.2-2.6,4.3-3.3c3.1-0.7,8.8-1.1,12.3-2.5
	c-2.2,2.3-4.6,3.1-8.7,3.9C28.5,26.6,27,26.8,24.7,27.7L24.7,27.7z"/>
<path id="XMLID_115_" class="st0" d="M21.6,33.9c0-2.9-1.6-3.8-4.2-4.4c-2.5-0.7-6-1.2-9-2c-3-0.9-4.6-1.4-6.6-3.6
	c0.4,4.3,3.4,7.3,7.1,8.6c3.7,1.3,3.5,1,5.4,1.5c2,0.5,2.3,1.2,2.3,2.4v2.5h4.9C21.7,33.2,21.5,36.9,21.6,33.9 M20.1,37.3h-2
	c0,0,0-0.8-0.1-2.3c-0.2-1.9-2.4-2-6-3.1c-2.5-0.7-5.7-1.6-7.2-4.1c0.9,0.4,2.6,1.1,5.5,1.7c2.7,0.6,4.3,0.9,6.8,1.4
	c2.4,0.5,2.9,2,2.9,3.6v2.8H20.1z"/>
<path id="XMLID_112_" class="st0" d="M23.5,38.9h4.9v-2.5c0-1.2,0.4-1.9,2.3-2.4c2-0.5,1.8-0.2,5.4-1.5c3.7-1.3,6.6-4.3,7.1-8.5
	c-2,2.2-3.7,2.7-6.6,3.6c-3,0.9-6.5,1.4-9,2c-2.5,0.7-4.2,1.5-4.2,4.4C23.5,36.9,23.4,33.2,23.5,38.9 M24.9,34.7
	c0-1.6,0.5-3.1,2.9-3.6c2.5-0.5,4.1-0.8,6.8-1.4c2.9-0.6,4.6-1.3,5.5-1.7c-1.4,2.5-4.7,3.4-7.2,4.1c-3.6,1-5.8,1.2-6,3.1
	c-0.1,1.4-0.1,2.3-0.1,2.3h-2v-2.8H24.9z"/>
<path id="XMLID_111_" class="st0" d="M11.6,52.7c-0.6,0.1-1.3,0.3-2,0.3c-2.8,0-4.7-1.4-4.7-4.3c0-3,1.8-4.6,4.7-4.6
	c0.6,0,1.3,0.1,2,0.4L11.5,46c-0.7-0.4-1.2-0.5-1.9-0.5c-1.8,0-2.9,1.4-2.9,3.1c0,1.8,1.1,3.1,2.9,3.1c0.7,0,1.5-0.1,1.9-0.4
	L11.6,52.7z"/>
<path id="XMLID_110_" class="st0" d="M19.6,45.8c-0.7-0.3-1.5-0.5-2.2-0.5c-2,0-3.1,1.4-3.1,3.1c0,1.8,1.1,3.1,2.9,3.1
	c0.5,0,0.8,0,1.1-0.1v-2.3h-1.8v-1.4H20v4.8c-0.9,0.2-1.9,0.4-2.8,0.4c-2.8,0-4.7-1.4-4.7-4.3c0-3,1.8-4.6,4.7-4.6
	c1,0,1.8,0.1,2.5,0.4L19.6,45.8z"/>
<rect id="XMLID_109_" x="21.7" y="44.2" class="st0" width="1.7" height="8.6"/>
<path id="XMLID_106_" class="st0" d="M29.9,49.5h-2.5l1.2-3.6l0,0L29.9,49.5z M24.4,52.8h1.8l0.8-2h3.5l0.7,2h1.9l-3.4-8.6h-2
	L24.4,52.8z"/>
<path id="XMLID_103_" class="st0" d="M35.8,45.5h0.6c0.9,0,1.8,0.1,1.8,1.1c0,1.1-1,1.2-1.8,1.2h-0.6V45.5z M34,52.8h1.7v-3.6h0.6
	c0.7,0,1,0.2,1.2,0.9l1,2.7h1.9l-1.3-3.4c-0.2-0.4-0.4-0.9-0.9-0.9l0,0c1.1-0.1,1.8-1,1.8-2c0-2.4-2.2-2.3-4.1-2.3H34
	C34,44.2,34,52.8,34,52.8z"/>
<path id="XMLID_100_" class="st0" d="M59.7,5.9h2.4c0.9,0,1.6,0.4,1.6,1.2c0,0.7-0.3,1.1-1,1.2l0,0c0.4,0.1,0.5,0.5,0.7,1.1l0.5,1.3
	h-1.4l-0.3-0.9c-0.3-0.9-0.4-1.1-0.9-1.1H61v2h-1.3C59.7,10.7,59.7,5.9,59.7,5.9z M61,8h0.3c0.4,0,1,0,1-0.6c0-0.5-0.5-0.5-1-0.5H61
	V8z"/>
<polygon id="XMLID_99_" class="st0" points="64.9,5.9 68.4,5.9 68.4,6.9 66.2,6.9 66.2,7.9 68.3,7.9 68.3,8.8 66.2,8.8 66.2,9.9 
	68.5,9.9 68.5,10.9 64.9,10.9 "/>
<path id="XMLID_98_" class="st0" d="M69.7,9.7C70,9.9,70.5,10,71.1,10c0.4,0,0.8-0.1,0.8-0.5c0-0.9-2.3-0.3-2.3-2.1
	c0-1.2,1.2-1.5,2.2-1.5c0.5,0,0.9,0.1,1.3,0.2l-0.1,1c-0.3-0.2-0.7-0.2-1.1-0.2c-0.3,0-0.9,0-0.9,0.5c0,0.8,2.3,0.3,2.3,2.1
	c0,1.3-1.1,1.6-2.2,1.6c-0.5,0-1-0.1-1.5-0.2L69.7,9.7z"/>
<polygon id="XMLID_97_" class="st0" points="74.5,5.9 78,5.9 78,6.9 75.8,6.9 75.8,7.9 77.9,7.9 77.9,8.8 75.8,8.8 75.8,9.9 
	78.1,9.9 78.1,10.9 74.5,10.9 "/>
<path id="XMLID_94_" class="st0" d="M80.8,5.9h1.6l1.9,5h-1.4l-0.4-1.1h-1.9l-0.4,1.1h-1.3L80.8,5.9z M81.6,7L81.6,7l-0.7,1.9h1.2
	L81.6,7z"/>
<path id="XMLID_91_" class="st0" d="M85.3,5.9h2.4c0.9,0,1.6,0.4,1.6,1.2c0,0.7-0.3,1.1-1,1.2l0,0c0.4,0.1,0.5,0.5,0.7,1.1l0.5,1.3
	h-1.4l-0.3-0.9c-0.3-0.9-0.4-1.1-0.9-1.1h-0.3v2h-1.3C85.3,10.7,85.3,5.9,85.3,5.9z M86.6,8h0.3c0.4,0,1,0,1-0.6
	c0-0.5-0.5-0.5-1-0.5h-0.3V8z"/>
<path id="XMLID_90_" class="st0" d="M94.6,10.8c-0.4,0.1-0.8,0.2-1.5,0.2c-1.3,0-2.8-0.7-2.8-2.5c0-1.7,1.2-2.6,2.8-2.6
	c0.5,0,1,0.1,1.5,0.3l-0.1,1.1C94.1,7.1,93.7,7,93.2,7c-0.9,0-1.5,0.7-1.5,1.6c0,1,0.7,1.6,1.7,1.6c0.4,0,0.9-0.1,1.2-0.3L94.6,10.8
	L94.6,10.8z"/>
<polygon id="XMLID_89_" class="st0" points="95.7,5.9 97,5.9 97,7.8 98.6,7.8 98.6,5.9 99.9,5.9 99.9,10.9 98.6,10.9 98.6,8.8 
	97,8.8 97,10.9 95.7,10.9 "/>
<path id="XMLID_86_" class="st0" d="M59.7,14.4h1.6c1.5,0,2.2,0.5,2.2,1.6c0,1-0.7,1.6-2,1.6H61v1.7h-1.3
	C59.7,19.3,59.7,14.4,59.7,14.4z M61,16.7h0.3c0.5,0,0.8-0.2,0.8-0.7s-0.4-0.7-0.8-0.7H61V16.7z"/>
<path id="XMLID_83_" class="st0" d="M64.5,14.4h2.4c0.9,0,1.6,0.4,1.6,1.2c0,0.7-0.3,1.1-1,1.2l0,0c0.4,0.1,0.5,0.5,0.7,1.1l0.5,1.3
	h-1.4L67,18.5c-0.3-0.9-0.4-1.1-0.9-1.1h-0.3v2h-1.3C64.5,19.4,64.5,14.4,64.5,14.4z M65.8,16.5h0.3c0.4,0,1,0,1-0.6
	c0-0.5-0.5-0.5-1-0.5h-0.3V16.5z"/>
<path id="XMLID_80_" class="st0" d="M72,14.4c1.6,0,2.5,1,2.5,2.6s-0.9,2.6-2.5,2.6s-2.5-1-2.5-2.6C69.5,15.3,70.4,14.4,72,14.4
	 M72,18.5c0.8,0,1.1-0.8,1.1-1.6c0-0.9-0.3-1.6-1.1-1.6s-1.1,0.7-1.1,1.6C70.9,17.7,71.2,18.5,72,18.5"/>
<path id="XMLID_79_" class="st0" d="M80.3,19.3c-0.9,0.2-1.5,0.2-1.9,0.2c-1.3,0-2.8-0.7-2.8-2.5c0-1.9,1.3-2.6,3.1-2.6
	c0.3,0,1,0,1.5,0.2l-0.1,1.1c-0.4-0.2-0.9-0.3-1.2-0.3c-1.1,0-2,0.4-2,1.6c0,1,0.7,1.6,1.7,1.6c0.2,0,0.3,0,0.5-0.1v-1h-0.8v-1h2.1
	v2.8L80.3,19.3L80.3,19.3z"/>
<path id="XMLID_76_" class="st0" d="M81.7,14.4h2.4c0.9,0,1.6,0.4,1.6,1.2c0,0.7-0.3,1.1-1,1.2l0,0c0.4,0.1,0.5,0.5,0.7,1.1l0.5,1.3
	h-1.4l-0.3-0.7c-0.3-0.9-0.4-1.1-0.9-1.1H83v2h-1.3C81.7,19.4,81.7,14.4,81.7,14.4z M83,16.5h0.3c0.4,0,1,0,1-0.6
	c0-0.5-0.5-0.5-1-0.5H83V16.5z"/>
<path id="XMLID_73_" class="st0" d="M88.4,14.4H90l1.9,5h-1.4l-0.4-1.1h-1.9l-0.4,1.1h-1.3L88.4,14.4z M89.2,15.5L89.2,15.5
	l-0.7,1.9h1.2L89.2,15.5z"/>
<polygon id="XMLID_72_" class="st0" points="92.8,14.4 94.9,14.4 96,17.7 96,17.7 97.1,14.4 99.1,14.4 99.1,19.4 97.8,19.4 
	97.8,15.6 97.8,15.6 96.5,19.4 95.3,19.4 94.1,15.6 94.1,15.6 94.1,19.4 92.8,19.4 "/>
<path id="XMLID_57_" class="st0" d="M105.4,14.4c1.6,0,2.5,1,2.5,2.6s-0.9,2.6-2.5,2.6s-2.5-1-2.5-2.6
	C102.9,15.3,103.7,14.4,105.4,14.4 M105.4,18.5c0.8,0,1.1-0.8,1.1-1.6c0-0.9-0.3-1.6-1.1-1.6c-0.8,0-1.1,0.7-1.1,1.6
	C104.2,17.7,104.6,18.5,105.4,18.5"/>
<polygon id="XMLID_56_" class="st0" points="109.1,14.4 110.7,14.4 112.4,17.8 112.4,17.8 112.4,14.4 113.6,14.4 113.6,19.4 
	112,19.4 110.2,16 110.2,16 110.3,19.4 109.1,19.4 "/>
<polygon id="XMLID_55_" class="st0" points="59.3,24.4 63.8,24.4 63.8,25.5 60.5,25.5 60.5,28 63.6,28 63.6,29 60.5,29 60.5,32.9 
	59.3,32.9 "/>
<path id="XMLID_52_" class="st0" d="M67.9,26.6c1.9,0,3.1,1.4,3.1,3.2c0,1.8-1.3,3.2-3.1,3.2c-1.9,0-3.2-1.5-3.2-3.2
	C64.8,27.9,66,26.6,67.9,26.6 M67.9,32.1c1.3,0,1.9-1.2,1.9-2.3c0-1.2-0.7-2.3-1.9-2.3c-1.2,0-1.9,1.1-1.9,2.3
	C66,30.9,66.6,32.1,67.9,32.1"/>
<path id="XMLID_51_" class="st0" d="M72.5,26.7h1.1v1l0,0c0.3-0.6,1-1.1,1.6-1.1c0.3,0,0.5,0,0.8,0.1v1c-0.2-0.1-0.4-0.1-0.6-0.1
	c-1,0-1.7,1-1.7,2.5v2.8h-1.1L72.5,26.7L72.5,26.7L72.5,26.7z"/>
<path id="XMLID_48_" class="st0" d="M81.8,32.6c-0.4,0.2-0.9,0.4-2,0.4c-2.2,0-3.2-1.3-3.2-3.3c0-1.8,1.2-3.1,2.9-3.1
	c2.1,0,2.7,1.5,2.7,3.5h-4.4c0,1.2,1,2.1,2,2.1c0.8,0,1.6-0.4,1.9-0.6L81.8,32.6L81.8,32.6z M81.1,29.2c0-0.9-0.6-1.7-1.5-1.7
	c-1.1,0-1.6,0.9-1.7,1.7H81.1z"/>
<path id="XMLID_47_" class="st0" d="M83.3,31.7c0.4,0.3,1.1,0.4,1.4,0.4c0.5,0,1.2-0.2,1.2-0.9c0-1.1-2.7-1-2.7-2.8
	c0-1.3,1-1.9,2.2-1.9c0.5,0,1,0.1,1.4,0.2l-0.1,1c-0.3-0.2-0.9-0.3-1.2-0.3c-0.6,0-1.1,0.2-1.1,0.8c0,1.3,2.7,0.9,2.7,2.9
	c0,1.3-1.1,1.9-2.2,1.9c-0.6,0-1.2-0.1-1.7-0.3L83.3,31.7z"/>
<path id="XMLID_46_" class="st0" d="M91.6,27.6H90V31c0,0.7,0.4,1.1,1,1.1c0.4,0,0.6-0.1,0.8-0.2v1c-0.3,0.1-0.6,0.2-1,0.2
	c-1.2,0-1.9-0.6-1.9-1.8v-3.6h-1.4v-0.9h1.4v-1.4L90,25v1.8h1.6V27.6z"/>
<path id="XMLID_45_" class="st0" d="M92.5,31.7c0.4,0.3,1.1,0.4,1.4,0.4c0.5,0,1.2-0.2,1.2-0.9c0-1.1-2.7-1-2.7-2.8
	c0-1.3,1-1.9,2.2-1.9c0.5,0,1,0.1,1.4,0.2l-0.1,1c-0.3-0.2-0.9-0.3-1.2-0.3c-0.6,0-1.1,0.2-1.1,0.8c0,1.3,2.7,0.9,2.7,2.9
	c0,1.3-1.1,1.9-2.2,1.9c-0.6,0-1.2-0.1-1.7-0.3L92.5,31.7z"/>
<polygon id="XMLID_44_" class="st0" points="97.6,31.5 98.9,31.5 97.9,34.5 96.8,34.5 "/>
<polygon id="XMLID_43_" class="st0" points="105.9,25.5 103.2,25.5 103.2,24.4 109.7,24.4 109.7,25.5 107.1,25.5 107.1,32.9 
	105.9,32.9 "/>
<path id="XMLID_42_" class="st0" d="M110.7,26.7h1.1v1l0,0c0.3-0.6,1-1.1,1.6-1.1c0.3,0,0.5,0,0.8,0.1v1c-0.2-0.1-0.4-0.1-0.6-0.1
	c-1,0-1.7,1-1.7,2.5v2.8h-1.1L110.7,26.7L110.7,26.7L110.7,26.7z"/>
<path id="XMLID_39_" class="st0" d="M120.1,32.6c-0.4,0.2-0.9,0.4-2,0.4c-2.2,0-3.2-1.3-3.2-3.3c0-1.8,1.2-3.1,2.9-3.1
	c2.1,0,2.7,1.5,2.7,3.5h-4.4c0,1.2,1,2.1,2,2.1c0.8,0,1.6-0.4,1.9-0.6v1H120.1z M119.3,29.2c0-0.9-0.6-1.7-1.5-1.7
	c-1.1,0-1.6,0.9-1.7,1.7H119.3z"/>
<path id="XMLID_36_" class="st0" d="M126.7,32.6c-0.4,0.2-0.9,0.4-2,0.4c-2.2,0-3.2-1.3-3.2-3.3c0-1.8,1.2-3.1,2.9-3.1
	c2.1,0,2.7,1.5,2.7,3.5h-4.4c0,1.2,1,2.1,2,2.1c0.8,0,1.6-0.4,1.9-0.6v1H126.7z M126,29.2c0-0.9-0.6-1.7-1.5-1.7
	c-1.1,0-1.6,0.9-1.7,1.7H126z"/>
<path id="XMLID_35_" class="st0" d="M128.1,31.7c0.4,0.3,1.1,0.4,1.4,0.4c0.5,0,1.2-0.2,1.2-0.9c0-1.1-2.7-1-2.7-2.8
	c0-1.3,1-1.9,2.2-1.9c0.5,0,1,0.1,1.4,0.2l-0.1,1c-0.3-0.2-0.9-0.3-1.2-0.3c-0.6,0-1.1,0.2-1.1,0.8c0,1.3,2.7,0.9,2.7,2.9
	c0,1.3-1.1,1.9-2.2,1.9c-0.6,0-1.2-0.1-1.7-0.3L128.1,31.7z"/>
<path id="XMLID_32_" class="st0" d="M136.7,27.2c0.6-0.3,1.2-0.6,2-0.6c1.8,0,2.5,0.9,2.5,2.6v2.6c0,0.7,0,1,0,1.2h-1.1v-0.8l0,0
	c-0.3,0.4-0.9,0.9-1.9,0.9c-1.3,0-2.3-0.6-2.3-1.9c0-1.6,1.7-2,2.9-2c0.4,0,0.8,0,1.2,0c0-1.1-0.4-1.6-1.5-1.6
	c-0.6,0-1.3,0.2-1.8,0.6L136.7,27.2z M140.1,30c-0.2,0-0.5,0-0.7,0c-0.6,0-2.1,0.1-2.1,1.2c0,0.7,0.6,1,1.2,1c1.1,0,1.7-0.7,1.7-1.6
	L140.1,30L140.1,30z"/>
<path id="XMLID_31_" class="st0" d="M143.1,26.7h1.1v1l0,0c0.3-0.7,1.2-1.1,2-1.1c1.6,0,2.3,1,2.3,2.7V33h-1.1v-3.2
	c0-1.4-0.3-2.1-1.3-2.2c-1.3,0-1.9,1-1.9,2.5V33h-1.1V26.7z"/>
<path id="XMLID_28_" class="st0" d="M154.8,32L154.8,32c-0.3,0.5-1,1-2.1,1c-1.9,0-2.7-1.7-2.7-3.3c0-1.7,0.9-3.1,2.7-3.1
	c1.1,0,1.7,0.4,2.1,1l0,0v-3.8h1.1v9.1h-1.1V32z M152.9,32.1c1.3,0,1.8-1.3,1.8-2.3c0-1.2-0.6-2.3-1.8-2.3s-1.7,1.2-1.7,2.3
	C151.2,30.8,151.7,32.1,152.9,32.1"/>
<path id="XMLID_25_" class="st0" d="M62,37.3h1.3l3.6,8.5h-1.3l-0.9-2.1h-4.2l-0.9,2.1h-1.3L62,37.3z M62.6,38.5l-1.7,4.2h3.4
	L62.6,38.5z"/>
<path id="XMLID_22_" class="st0" d="M73.4,45.5c0,1.9-1,3-3.2,3c-0.7,0-1.2-0.1-2.2-0.4l0.1-1.1c0.9,0.4,1.4,0.6,2.2,0.6
	c1.2,0,1.9-0.8,1.9-2.1v-0.6l0,0c-0.5,0.6-1.3,1-2.1,1c-1.8,0-2.6-1.4-2.6-3s0.9-3.3,2.8-3.3c1.1,0,1.7,0.4,2,1.1l0,0v-0.9h1.1
	C73.4,39.8,73.4,45.5,73.4,45.5z M72.2,42.8c0-1.3-0.6-2.4-1.8-2.4c-1.2,0-1.7,1.2-1.7,2.3c0,1.2,0.7,2.2,1.7,2.2
	C71.5,44.9,72.2,43.9,72.2,42.8"/>
<path id="XMLID_21_" class="st0" d="M75.2,39.6h1.1v1l0,0c0.3-0.6,1-1.1,1.6-1.1c0.3,0,0.5,0,0.8,0.1v1c-0.3-0.1-0.5-0.1-0.7-0.1
	c-1,0-1.7,1-1.7,2.5v2.8h-1.1C75.2,45.8,75.2,39.6,75.2,39.6z"/>
<path id="XMLID_18_" class="st0" d="M82.5,39.5c1.9,0,3.1,1.4,3.1,3.2c0,1.8-1.3,3.2-3.1,3.2c-1.9,0-3.2-1.5-3.2-3.2
	C79.4,40.8,80.6,39.5,82.5,39.5 M82.5,45c1.3,0,1.9-1.2,1.9-2.3c0-1.2-0.7-2.3-1.9-2.3c-1.2,0-1.9,1.1-1.9,2.3
	C80.6,43.8,81.2,45,82.5,45"/>
<path id="XMLID_17_" class="st0" d="M87.8,40.5h-1.5v-0.9h1.5V39c0-1.5,0.4-2.5,2.1-2.5c0.3,0,0.5,0,0.8,0.1v0.9c-0.2,0-0.4,0-0.6,0
	c-1,0-1.1,0.6-1.1,1.5v0.7h1.6v0.8H89v5.3h-1.1L87.8,40.5L87.8,40.5z"/>
<path id="XMLID_14_" class="st0" d="M94.5,39.5c1.9,0,3.1,1.4,3.1,3.2c0,1.8-1.3,3.2-3.1,3.2c-1.9,0-3.2-1.5-3.2-3.2
	C91.3,40.8,92.6,39.5,94.5,39.5 M94.5,45c1.3,0,1.9-1.2,1.9-2.3c0-1.2-0.7-2.3-1.9-2.3c-1.2,0-1.9,1.1-1.9,2.3
	C92.5,43.8,93.1,45,94.5,45"/>
<path id="XMLID_13_" class="st0" d="M99,39.6h1.1v1l0,0c0.3-0.6,1-1.1,1.6-1.1c0.3,0,0.5,0,0.8,0.1v1c-0.2-0.1-0.4-0.1-0.6-0.1
	c-1,0-1.7,1-1.7,2.5v2.8h-1.1L99,39.6L99,39.6L99,39.6z"/>
<path id="XMLID_10_" class="st0" d="M108.4,45.5c-0.4,0.2-0.9,0.4-2,0.4c-2.2,0-3.2-1.3-3.2-3.3c0-1.8,1.2-3.1,2.9-3.1
	c2.1,0,2.7,1.5,2.7,3.5h-4.4c0,1.2,1,2.1,2,2.1c0.8,0,1.6-0.4,1.9-0.6L108.4,45.5L108.4,45.5z M107.6,42.1c0-0.9-0.6-1.7-1.5-1.7
	c-1.1,0-1.6,0.9-1.7,1.7H107.6z"/>
<path id="XMLID_9_" class="st0" d="M109.8,44.6c0.4,0.3,1.1,0.4,1.4,0.4c0.5,0,1.2-0.2,1.2-0.9c0-1.1-2.7-1-2.7-2.8
	c0-1.3,1-1.9,2.2-1.9c0.5,0,1,0.1,1.4,0.2l-0.1,1c-0.3-0.2-0.9-0.3-1.2-0.3c-0.6,0-1.1,0.2-1.1,0.8c0,1.3,2.7,0.9,2.7,2.9
	c0,1.3-1.1,1.9-2.2,1.9c-0.6,0-1.2-0.1-1.7-0.3L109.8,44.6z"/>
<path id="XMLID_8_" class="st0" d="M118.1,40.5h-1.6v3.4c0,0.7,0.4,1.1,1,1.1c0.4,0,0.6-0.1,0.8-0.2v1c-0.3,0.1-0.6,0.2-1,0.2
	c-1.2,0-1.9-0.6-1.9-1.8v-3.7H114v-0.9h1.4v-1.4l1.1-0.4v1.8h1.6V40.5z"/>
<path id="XMLID_7_" class="st0" d="M119.5,39.6h1.1v1l0,0c0.3-0.6,1-1.1,1.6-1.1c0.3,0,0.5,0,0.8,0.1v1c-0.2-0.1-0.4-0.1-0.6-0.1
	c-1,0-1.7,1-1.7,2.5v2.8h-1.1L119.5,39.6L119.5,39.6L119.5,39.6z"/>
<path id="XMLID_6_" class="st0" d="M123.6,47.5c0.1,0,0.3,0.1,0.5,0.1c1,0,1.4-1.4,1.4-1.5s-0.1-0.4-0.2-0.7l-2.1-5.8h1.2l1.7,5.1
	l0,0l1.7-5.1h1.2l-2.3,6.3c-0.4,1.2-0.9,2.6-2.4,2.6c-0.4,0-0.6,0-0.8-0.1L123.6,47.5z"/>
<line id="XMLID_5_" class="st1" x1="52.6" y1="0" x2="52.6" y2="52.7"/>
</svg>
