<?xml version="1.0" encoding="utf-8"?>
<!-- Generator: Adobe Illustrator 19.0.0, SVG Export Plug-In . SVG Version: 6.00 Build 0)  -->
<svg version="1.1" id="Layer_1" xmlns="http://www.w3.org/2000/svg" xmlns:xlink="http://www.w3.org/1999/xlink" x="0px" y="0px"
	 viewBox="-397 251 155.9 53" style="enable-background:new -397 251 155.9 53;" xml:space="preserve">
<style type="text/css">
	.st0{fill:#444444;}
	.st1{fill:none;stroke:#444444;stroke-width:0.406;}
</style>
<path id="XMLID_130_" class="st0" d="M-375.9,268.7c-0.5-0.6-1.7-1.7-2.3-2.3c-1-0.9-1.2-1.2-1.2-2.9v-6.9c0-1-1.5-0.8-1.5,0
	c0,0-0.1,12,0,13s-0.4,1.8,1.2,2.9c1.8,1.1,4.4,1.9,4.4,1.9s0-2.6,0.1-3.6C-375.1,269.8-375.4,269.3-375.9,268.7 M-376.6,272.4
	C-376.6,272.4-376.7,272.4-376.6,272.4c-2.5-1-3-0.8-2.7-4.7C-376.3,269.6-376.5,270.3-376.6,272.4"/>
<path id="XMLID_127_" class="st0" d="M-373.7,270.8c0,1,0.1,3.6,0.1,3.6s2.6-0.8,4.4-1.9c1.6-1,1.1-1.8,1.2-2.9c0.1-1,0-13,0-13
	c0-0.9-1.5-1-1.5,0v6.9c0,1.6-0.2,1.9-1.2,2.9c-0.6,0.6-1.8,1.7-2.3,2.3C-373.5,269.3-373.7,269.8-373.7,270.8 M-369.6,267.8
	c0.3,3.8-0.1,3.6-2.7,4.7l0,0C-372.3,270.3-372.5,269.6-369.6,267.8"/>
<path id="XMLID_124_" class="st0" d="M-372.4,261.7c-0.9-1.6,0,0-1.2-2.1V252c0-1.2-1.5-1.1-1.5,0v7.6c0,0-1.3,2.2-1.6,3
	c-0.4,0.9-0.8,1.9,0.4,3.3c0.1,0.1,0.2,0.4,2,2.1l0,0c0,0,0,0,1.6-1.6C-370.9,264.5-371.5,263.2-372.4,261.7 M-374.4,266.1
	c-2.9-1.6-0.8-3.7,0-5.1l0.1,0.1C-372.2,264.4-372.8,264.8-374.4,266.1"/>
<path id="XMLID_121_" class="st0" d="M-375.3,278c-0.1-1.5-0.6-2.8-3.7-4c-2.6-1-6.2-1.2-8.8-1.6c-2.6-0.4-7-1.1-9.2-3.2
	c1.6,5.5,5.8,7.7,9.9,8.6c4.7,1,9,1.4,11.6,3.2l0.3,0.2C-375.4,280-375.2,279.5-375.3,278 M-376.6,278.7c-2.3-0.9-3.8-1.1-7.8-1.9
	c-4.1-0.8-6.5-1.6-8.7-3.9c3.5,1.4,9.2,1.9,12.3,2.5C-377.8,276.1-376.9,276.9-376.6,278.7L-376.6,278.7z"/>
<path id="XMLID_118_" class="st0" d="M-373.6,281.2l0.3-0.2c2.6-1.8,6.8-2.2,11.6-3.2c4.2-0.9,8.3-3.2,9.9-8.6
	c-2.2,2.1-6.6,2.8-9.2,3.2s-6.3,0.6-8.8,1.6c-3.1,1.1-3.6,2.5-3.7,4C-373.7,279.5-373.5,280-373.6,281.2 M-372.3,278.7
	c0.3-1.8,1.2-2.6,4.3-3.3c3.1-0.7,8.8-1.1,12.3-2.5c-2.2,2.3-4.6,3.1-8.7,3.9C-368.5,277.6-370,277.8-372.3,278.7L-372.3,278.7z"/>
<path id="XMLID_115_" class="st0" d="M-375.4,284.9c0-2.9-1.6-3.8-4.2-4.4c-2.5-0.7-6-1.2-9-2c-3-0.9-4.6-1.4-6.6-3.6
	c0.4,4.3,3.4,7.3,7.1,8.6c3.7,1.3,3.5,1,5.4,1.5c2,0.5,2.3,1.2,2.3,2.4v2.5h4.9C-375.3,284.2-375.5,287.9-375.4,284.9 M-376.9,288.3
	h-2c0,0,0-0.8-0.1-2.3c-0.2-1.9-2.4-2-6-3.1c-2.5-0.7-5.7-1.6-7.2-4.1c0.9,0.4,2.6,1.1,5.5,1.7c2.7,0.6,4.3,0.9,6.8,1.4
	c2.4,0.5,2.9,2,2.9,3.6v2.8H-376.9z"/>
<path id="XMLID_112_" class="st0" d="M-373.5,289.9h4.9v-2.5c0-1.2,0.4-1.9,2.3-2.4c2-0.5,1.8-0.2,5.4-1.5c3.7-1.3,6.6-4.3,7.1-8.5
	c-2,2.2-3.7,2.7-6.6,3.6c-3,0.9-6.5,1.4-9,2c-2.5,0.7-4.2,1.5-4.2,4.4C-373.5,287.9-373.6,284.2-373.5,289.9 M-372.1,285.7
	c0-1.6,0.5-3.1,2.9-3.6c2.5-0.5,4.1-0.8,6.8-1.4c2.9-0.6,4.6-1.3,5.5-1.7c-1.4,2.5-4.7,3.4-7.2,4.1c-3.6,1-5.8,1.2-6,3.1
	c-0.1,1.4-0.1,2.3-0.1,2.3h-2v-2.8H-372.1z"/>
<path id="XMLID_111_" class="st0" d="M-385.4,303.7c-0.6,0.1-1.3,0.3-2,0.3c-2.8,0-4.7-1.4-4.7-4.3c0-3,1.8-4.6,4.7-4.6
	c0.6,0,1.3,0.1,2,0.4l-0.1,1.5c-0.7-0.4-1.2-0.5-1.9-0.5c-1.8,0-2.9,1.4-2.9,3.1c0,1.8,1.1,3.1,2.9,3.1c0.7,0,1.5-0.1,1.9-0.4
	L-385.4,303.7z"/>
<path id="XMLID_110_" class="st0" d="M-377.4,296.8c-0.7-0.3-1.5-0.5-2.2-0.5c-2,0-3.1,1.4-3.1,3.1c0,1.8,1.1,3.1,2.9,3.1
	c0.5,0,0.8,0,1.1-0.1v-2.3h-1.8v-1.4h3.5v4.8c-0.9,0.2-1.9,0.4-2.8,0.4c-2.8,0-4.7-1.4-4.7-4.3c0-3,1.8-4.6,4.7-4.6
	c1,0,1.8,0.1,2.5,0.4L-377.4,296.8z"/>
<rect id="XMLID_109_" x="-375.3" y="295.2" class="st0" width="1.7" height="8.6"/>
<path id="XMLID_106_" class="st0" d="M-367.1,300.5h-2.5l1.2-3.6l0,0L-367.1,300.5z M-372.6,303.8h1.8l0.8-2h3.5l0.7,2h1.9l-3.4-8.6
	h-2L-372.6,303.8z"/>
<path id="XMLID_103_" class="st0" d="M-361.2,296.5h0.6c0.9,0,1.8,0.1,1.8,1.1c0,1.1-1,1.2-1.8,1.2h-0.6V296.5z M-363,303.8h1.7
	v-3.6h0.6c0.7,0,1,0.2,1.2,0.9l1,2.7h1.9l-1.3-3.4c-0.2-0.4-0.4-0.9-0.9-0.9l0,0c1.1-0.1,1.8-1,1.8-2c0-2.4-2.2-2.3-4.1-2.3h-1.9
	C-363,295.2-363,303.8-363,303.8z"/>
<path id="XMLID_100_" class="st0" d="M-337.3,256.9h2.4c0.9,0,1.6,0.4,1.6,1.2c0,0.7-0.3,1.1-1,1.2l0,0c0.4,0.1,0.5,0.5,0.7,1.1
	l0.5,1.3h-1.4l-0.3-0.9c-0.3-0.9-0.4-1.1-0.9-1.1h-0.3v2h-1.3C-337.3,261.7-337.3,256.9-337.3,256.9z M-336,259h0.3c0.4,0,1,0,1-0.6
	c0-0.5-0.5-0.5-1-0.5h-0.3C-336,257.9-336,259-336,259z"/>
<polygon id="XMLID_99_" class="st0" points="-332.1,256.9 -328.6,256.9 -328.6,257.9 -330.8,257.9 -330.8,258.9 -328.7,258.9 
	-328.7,259.8 -330.8,259.8 -330.8,260.9 -328.5,260.9 -328.5,261.9 -332.1,261.9 "/>
<path id="XMLID_98_" class="st0" d="M-327.3,260.7c0.3,0.2,0.8,0.3,1.4,0.3c0.4,0,0.8-0.1,0.8-0.5c0-0.9-2.3-0.3-2.3-2.1
	c0-1.2,1.2-1.5,2.2-1.5c0.5,0,0.9,0.1,1.3,0.2l-0.1,1c-0.3-0.2-0.7-0.2-1.1-0.2c-0.3,0-0.9,0-0.9,0.5c0,0.8,2.3,0.3,2.3,2.1
	c0,1.3-1.1,1.6-2.2,1.6c-0.5,0-1-0.1-1.5-0.2L-327.3,260.7z"/>
<polygon id="XMLID_97_" class="st0" points="-322.5,256.9 -319,256.9 -319,257.9 -321.2,257.9 -321.2,258.9 -319.1,258.9 
	-319.1,259.8 -321.2,259.8 -321.2,260.9 -318.9,260.9 -318.9,261.9 -322.5,261.9 "/>
<path id="XMLID_94_" class="st0" d="M-316.2,256.9h1.6l1.9,5h-1.4l-0.4-1.1h-1.9l-0.4,1.1h-1.3L-316.2,256.9z M-315.4,258
	L-315.4,258l-0.7,1.9h1.2L-315.4,258z"/>
<path id="XMLID_91_" class="st0" d="M-311.7,256.9h2.4c0.9,0,1.6,0.4,1.6,1.2c0,0.7-0.3,1.1-1,1.2l0,0c0.4,0.1,0.5,0.5,0.7,1.1
	l0.5,1.3h-1.4l-0.3-0.9c-0.3-0.9-0.4-1.1-0.9-1.1h-0.3v2h-1.3C-311.7,261.7-311.7,256.9-311.7,256.9z M-310.4,259h0.3
	c0.4,0,1,0,1-0.6c0-0.5-0.5-0.5-1-0.5h-0.3V259z"/>
<path id="XMLID_90_" class="st0" d="M-302.4,261.8c-0.4,0.1-0.8,0.2-1.5,0.2c-1.3,0-2.8-0.7-2.8-2.5c0-1.7,1.2-2.6,2.8-2.6
	c0.5,0,1,0.1,1.5,0.3l-0.1,1.1c-0.4-0.2-0.8-0.3-1.3-0.3c-0.9,0-1.5,0.7-1.5,1.6c0,1,0.7,1.6,1.7,1.6c0.4,0,0.9-0.1,1.2-0.3V261.8z"
	/>
<polygon id="XMLID_89_" class="st0" points="-301.3,256.9 -300,256.9 -300,258.8 -298.4,258.8 -298.4,256.9 -297.1,256.9 
	-297.1,261.9 -298.4,261.9 -298.4,259.8 -300,259.8 -300,261.9 -301.3,261.9 "/>
<path id="XMLID_86_" class="st0" d="M-337.3,265.4h1.6c1.5,0,2.2,0.5,2.2,1.6c0,1-0.7,1.6-2,1.6h-0.5v1.7h-1.3
	C-337.3,270.3-337.3,265.4-337.3,265.4z M-336,267.7h0.3c0.5,0,0.8-0.2,0.8-0.7s-0.4-0.7-0.8-0.7h-0.3
	C-336,266.3-336,267.7-336,267.7z"/>
<path id="XMLID_83_" class="st0" d="M-332.5,265.4h2.4c0.9,0,1.6,0.4,1.6,1.2c0,0.7-0.3,1.1-1,1.2l0,0c0.4,0.1,0.5,0.5,0.7,1.1
	l0.5,1.3h-1.4l-0.3-0.7c-0.3-0.9-0.4-1.1-0.9-1.1h-0.3v2h-1.3C-332.5,270.4-332.5,265.4-332.5,265.4z M-331.2,267.5h0.3
	c0.4,0,1,0,1-0.6c0-0.5-0.5-0.5-1-0.5h-0.3V267.5z"/>
<path id="XMLID_80_" class="st0" d="M-325,265.4c1.6,0,2.5,1,2.5,2.6s-0.9,2.6-2.5,2.6s-2.5-1-2.5-2.6
	C-327.5,266.3-326.6,265.4-325,265.4 M-325,269.5c0.8,0,1.1-0.8,1.1-1.6c0-0.9-0.3-1.6-1.1-1.6s-1.1,0.7-1.1,1.6
	C-326.1,268.7-325.8,269.5-325,269.5"/>
<path id="XMLID_79_" class="st0" d="M-316.7,270.3c-0.9,0.2-1.5,0.2-1.9,0.2c-1.3,0-2.8-0.7-2.8-2.5c0-1.9,1.3-2.6,3.1-2.6
	c0.3,0,1,0,1.5,0.2l-0.1,1.1c-0.4-0.2-0.9-0.3-1.2-0.3c-1.1,0-2,0.4-2,1.6c0,1,0.7,1.6,1.7,1.6c0.2,0,0.3,0,0.5-0.1v-1h-0.8v-1h2.1
	v2.8H-316.7z"/>
<path id="XMLID_76_" class="st0" d="M-315.3,265.4h2.4c0.9,0,1.6,0.4,1.6,1.2c0,0.7-0.3,1.1-1,1.2l0,0c0.4,0.1,0.5,0.5,0.7,1.1
	l0.5,1.3h-1.4l-0.3-0.7c-0.3-0.9-0.4-1.1-0.9-1.1h-0.3v2h-1.3C-315.3,270.4-315.3,265.4-315.3,265.4z M-314,267.5h0.3
	c0.4,0,1,0,1-0.6c0-0.5-0.5-0.5-1-0.5h-0.3V267.5z"/>
<path id="XMLID_73_" class="st0" d="M-308.6,265.4h1.6l1.9,5h-1.4l-0.4-1.1h-1.9l-0.4,1.1h-1.3L-308.6,265.4z M-307.8,266.5
	L-307.8,266.5l-0.7,1.9h1.2L-307.8,266.5z"/>
<polygon id="XMLID_72_" class="st0" points="-304.2,265.4 -302.1,265.4 -301,268.7 -301,268.7 -299.9,265.4 -297.9,265.4 
	-297.9,270.4 -299.2,270.4 -299.2,266.6 -299.2,266.6 -300.5,270.4 -301.7,270.4 -302.9,266.6 -302.9,266.6 -302.9,270.4 
	-304.2,270.4 "/>
<path id="XMLID_57_" class="st0" d="M-291.6,265.4c1.6,0,2.5,1,2.5,2.6s-0.9,2.6-2.5,2.6c-1.6,0-2.5-1-2.5-2.6
	C-294.1,266.3-293.3,265.4-291.6,265.4 M-291.6,269.5c0.8,0,1.1-0.8,1.1-1.6c0-0.9-0.3-1.6-1.1-1.6c-0.8,0-1.1,0.7-1.1,1.6
	C-292.8,268.7-292.4,269.5-291.6,269.5"/>
<polygon id="XMLID_56_" class="st0" points="-287.9,265.4 -286.3,265.4 -284.6,268.8 -284.6,268.8 -284.6,265.4 -283.4,265.4 
	-283.4,270.4 -285,270.4 -286.8,267 -286.8,267 -286.7,270.4 -287.9,270.4 "/>
<polygon id="XMLID_55_" class="st0" points="-337.7,275.4 -333.2,275.4 -333.2,276.5 -336.5,276.5 -336.5,279 -333.4,279 
	-333.4,280 -336.5,280 -336.5,283.9 -337.7,283.9 "/>
<path id="XMLID_52_" class="st0" d="M-329.1,277.6c1.9,0,3.1,1.4,3.1,3.2c0,1.8-1.3,3.2-3.1,3.2c-1.9,0-3.2-1.5-3.2-3.2
	C-332.2,278.9-331,277.6-329.1,277.6 M-329.1,283.1c1.3,0,1.9-1.2,1.9-2.3c0-1.2-0.7-2.3-1.9-2.3c-1.2,0-1.9,1.1-1.9,2.3
	C-331,281.9-330.4,283.1-329.1,283.1"/>
<path id="XMLID_51_" class="st0" d="M-324.5,277.7h1.1v1l0,0c0.3-0.6,1-1.1,1.6-1.1c0.3,0,0.5,0,0.8,0.1v1c-0.2-0.1-0.4-0.1-0.6-0.1
	c-1,0-1.7,1-1.7,2.5v2.8h-1.1v-6.2H-324.5z"/>
<path id="XMLID_48_" class="st0" d="M-315.2,283.6c-0.4,0.2-0.9,0.4-2,0.4c-2.2,0-3.2-1.3-3.2-3.3c0-1.8,1.2-3.1,2.9-3.1
	c2.1,0,2.7,1.5,2.7,3.5h-4.4c0,1.2,1,2.1,2,2.1c0.8,0,1.6-0.4,1.9-0.6L-315.2,283.6L-315.2,283.6z M-315.9,280.2
	c0-0.9-0.6-1.7-1.5-1.7c-1.1,0-1.6,0.9-1.7,1.7H-315.9z"/>
<path id="XMLID_47_" class="st0" d="M-313.7,282.7c0.4,0.3,1.1,0.4,1.4,0.4c0.5,0,1.2-0.2,1.2-0.9c0-1.1-2.7-1-2.7-2.8
	c0-1.3,1-1.9,2.2-1.9c0.5,0,1,0.1,1.4,0.2l-0.1,1c-0.3-0.2-0.9-0.3-1.2-0.3c-0.6,0-1.1,0.2-1.1,0.8c0,1.3,2.7,0.9,2.7,2.9
	c0,1.3-1.1,1.9-2.2,1.9c-0.6,0-1.2-0.1-1.7-0.3L-313.7,282.7z"/>
<path id="XMLID_46_" class="st0" d="M-305.4,278.6h-1.6v3.4c0,0.7,0.4,1.1,1,1.1c0.4,0,0.6-0.1,0.8-0.2v1c-0.3,0.1-0.6,0.2-1,0.2
	c-1.2,0-1.9-0.6-1.9-1.8v-3.6h-1.4v-0.9h1.4v-1.4l1.1-0.4v1.8h1.6V278.6z"/>
<path id="XMLID_45_" class="st0" d="M-304.5,282.7c0.4,0.3,1.1,0.4,1.4,0.4c0.5,0,1.2-0.2,1.2-0.9c0-1.1-2.7-1-2.7-2.8
	c0-1.3,1-1.9,2.2-1.9c0.5,0,1,0.1,1.4,0.2l-0.1,1c-0.3-0.2-0.9-0.3-1.2-0.3c-0.6,0-1.1,0.2-1.1,0.8c0,1.3,2.7,0.9,2.7,2.9
	c0,1.3-1.1,1.9-2.2,1.9c-0.6,0-1.2-0.1-1.7-0.3L-304.5,282.7z"/>
<polygon id="XMLID_44_" class="st0" points="-299.4,282.5 -298.1,282.5 -299.1,285.5 -300.2,285.5 "/>
<polygon id="XMLID_43_" class="st0" points="-291.1,276.5 -293.8,276.5 -293.8,275.4 -287.3,275.4 -287.3,276.5 -289.9,276.5 
	-289.9,283.9 -291.1,283.9 "/>
<path id="XMLID_42_" class="st0" d="M-286.3,277.7h1.1v1l0,0c0.3-0.6,1-1.1,1.6-1.1c0.3,0,0.5,0,0.8,0.1v1c-0.2-0.1-0.4-0.1-0.6-0.1
	c-1,0-1.7,1-1.7,2.5v2.8h-1.1v-6.2H-286.3z"/>
<path id="XMLID_39_" class="st0" d="M-276.9,283.6c-0.4,0.2-0.9,0.4-2,0.4c-2.2,0-3.2-1.3-3.2-3.3c0-1.8,1.2-3.1,2.9-3.1
	c2.1,0,2.7,1.5,2.7,3.5h-4.4c0,1.2,1,2.1,2,2.1c0.8,0,1.6-0.4,1.9-0.6v1H-276.9z M-277.7,280.2c0-0.9-0.6-1.7-1.5-1.7
	c-1.1,0-1.6,0.9-1.7,1.7H-277.7z"/>
<path id="XMLID_36_" class="st0" d="M-270.3,283.6c-0.4,0.2-0.9,0.4-2,0.4c-2.2,0-3.2-1.3-3.2-3.3c0-1.8,1.2-3.1,2.9-3.1
	c2.1,0,2.7,1.5,2.7,3.5h-4.4c0,1.2,1,2.1,2,2.1c0.8,0,1.6-0.4,1.9-0.6v1H-270.3z M-271,280.2c0-0.9-0.6-1.7-1.5-1.7
	c-1.1,0-1.6,0.9-1.7,1.7H-271z"/>
<path id="XMLID_35_" class="st0" d="M-268.9,282.7c0.4,0.3,1.1,0.4,1.4,0.4c0.5,0,1.2-0.2,1.2-0.9c0-1.1-2.7-1-2.7-2.8
	c0-1.3,1-1.9,2.2-1.9c0.5,0,1,0.1,1.4,0.2l-0.1,1c-0.3-0.2-0.9-0.3-1.2-0.3c-0.6,0-1.1,0.2-1.1,0.8c0,1.3,2.7,0.9,2.7,2.9
	c0,1.3-1.1,1.9-2.2,1.9c-0.6,0-1.2-0.1-1.7-0.3L-268.9,282.7z"/>
<path id="XMLID_32_" class="st0" d="M-260.3,278.2c0.6-0.3,1.2-0.6,2-0.6c1.8,0,2.5,0.9,2.5,2.6v2.6c0,0.7,0,1,0,1.2h-1.1v-0.8l0,0
	c-0.3,0.4-0.9,0.9-1.9,0.9c-1.3,0-2.3-0.6-2.3-1.9c0-1.6,1.7-2,2.9-2c0.4,0,0.8,0,1.2,0c0-1.1-0.4-1.6-1.5-1.6
	c-0.6,0-1.3,0.2-1.8,0.6L-260.3,278.2z M-256.9,281c-0.2,0-0.5,0-0.7,0c-0.6,0-2.1,0.1-2.1,1.2c0,0.7,0.6,1,1.2,1
	c1.1,0,1.7-0.7,1.7-1.6L-256.9,281L-256.9,281z"/>
<path id="XMLID_31_" class="st0" d="M-253.9,277.7h1.1v1l0,0c0.3-0.7,1.2-1.1,2-1.1c1.6,0,2.3,1,2.3,2.7v3.7h-1.1v-3.2
	c0-1.4-0.3-2.1-1.3-2.2c-1.3,0-1.9,1-1.9,2.5v2.9h-1.1V277.7z"/>
<path id="XMLID_28_" class="st0" d="M-242.2,283L-242.2,283c-0.3,0.5-1,1-2.1,1c-1.9,0-2.7-1.7-2.7-3.3c0-1.7,0.9-3.1,2.7-3.1
	c1.1,0,1.7,0.4,2.1,1l0,0v-3.8h1.1v9.1h-1.1V283z M-244.1,283.1c1.3,0,1.8-1.3,1.8-2.3c0-1.2-0.6-2.3-1.8-2.3s-1.7,1.2-1.7,2.3
	C-245.8,281.8-245.3,283.1-244.1,283.1"/>
<path id="XMLID_25_" class="st0" d="M-335,288.3h1.3l3.6,8.5h-1.3l-0.9-2.1h-4.2l-0.9,2.1h-1.3L-335,288.3z M-334.4,289.5l-1.7,4.2
	h3.4L-334.4,289.5z"/>
<path id="XMLID_22_" class="st0" d="M-323.6,296.5c0,1.9-1,3-3.2,3c-0.7,0-1.2-0.1-2.2-0.4l0.1-1.1c0.9,0.4,1.4,0.6,2.2,0.6
	c1.2,0,1.9-0.8,1.9-2.1v-0.6l0,0c-0.5,0.6-1.3,1-2.1,1c-1.8,0-2.6-1.4-2.6-3s0.9-3.3,2.8-3.3c1.1,0,1.7,0.4,2,1.1l0,0v-0.9h1.1
	C-323.6,290.8-323.6,296.5-323.6,296.5z M-324.8,293.8c0-1.3-0.6-2.4-1.8-2.4c-1.2,0-1.7,1.2-1.7,2.3c0,1.2,0.7,2.2,1.7,2.2
	C-325.5,295.9-324.8,294.9-324.8,293.8"/>
<path id="XMLID_21_" class="st0" d="M-321.8,290.6h1.1v1l0,0c0.3-0.6,1-1.1,1.6-1.1c0.3,0,0.5,0,0.8,0.1v1c-0.3-0.1-0.5-0.1-0.7-0.1
	c-1,0-1.7,1-1.7,2.5v2.8h-1.1C-321.8,296.8-321.8,290.6-321.8,290.6z"/>
<path id="XMLID_18_" class="st0" d="M-314.5,290.5c1.9,0,3.1,1.4,3.1,3.2c0,1.8-1.3,3.2-3.1,3.2c-1.9,0-3.2-1.5-3.2-3.2
	C-317.6,291.8-316.4,290.5-314.5,290.5 M-314.5,296c1.3,0,1.9-1.2,1.9-2.3c0-1.2-0.7-2.3-1.9-2.3c-1.2,0-1.9,1.1-1.9,2.3
	C-316.4,294.8-315.8,296-314.5,296"/>
<path id="XMLID_17_" class="st0" d="M-309.2,291.5h-1.5v-0.9h1.5V290c0-1.5,0.4-2.5,2.1-2.5c0.3,0,0.5,0,0.8,0.1v0.9
	c-0.2,0-0.4,0-0.6,0c-1,0-1.1,0.6-1.1,1.5v0.7h1.6v0.8h-1.6v5.3h-1.1v-5.3H-309.2z"/>
<path id="XMLID_14_" class="st0" d="M-302.5,290.5c1.9,0,3.1,1.4,3.1,3.2c0,1.8-1.3,3.2-3.1,3.2c-1.9,0-3.2-1.5-3.2-3.2
	C-305.7,291.8-304.4,290.5-302.5,290.5 M-302.5,296c1.3,0,1.9-1.2,1.9-2.3c0-1.2-0.7-2.3-1.9-2.3c-1.2,0-1.9,1.1-1.9,2.3
	C-304.5,294.8-303.9,296-302.5,296"/>
<path id="XMLID_13_" class="st0" d="M-298,290.6h1.1v1l0,0c0.3-0.6,1-1.1,1.6-1.1c0.3,0,0.5,0,0.8,0.1v1c-0.2-0.1-0.4-0.1-0.6-0.1
	c-1,0-1.7,1-1.7,2.5v2.8h-1.1v-6.2H-298z"/>
<path id="XMLID_10_" class="st0" d="M-288.6,296.5c-0.4,0.2-0.9,0.4-2,0.4c-2.2,0-3.2-1.3-3.2-3.3c0-1.8,1.2-3.1,2.9-3.1
	c2.1,0,2.7,1.5,2.7,3.5h-4.4c0,1.2,1,2.1,2,2.1c0.8,0,1.6-0.4,1.9-0.6L-288.6,296.5L-288.6,296.5z M-289.4,293.1
	c0-0.9-0.6-1.7-1.5-1.7c-1.1,0-1.6,0.9-1.7,1.7H-289.4z"/>
<path id="XMLID_9_" class="st0" d="M-287.2,295.6c0.4,0.3,1.1,0.4,1.4,0.4c0.5,0,1.2-0.2,1.2-0.9c0-1.1-2.7-1-2.7-2.8
	c0-1.3,1-1.9,2.2-1.9c0.5,0,1,0.1,1.4,0.2l-0.1,1c-0.3-0.2-0.9-0.3-1.2-0.3c-0.6,0-1.1,0.2-1.1,0.8c0,1.3,2.7,0.9,2.7,2.9
	c0,1.3-1.1,1.9-2.2,1.9c-0.6,0-1.2-0.1-1.7-0.3L-287.2,295.6z"/>
<path id="XMLID_8_" class="st0" d="M-278.9,291.5h-1.6v3.4c0,0.7,0.4,1.1,1,1.1c0.4,0,0.6-0.1,0.8-0.2v1c-0.3,0.1-0.6,0.2-1,0.2
	c-1.2,0-1.9-0.6-1.9-1.8v-3.7h-1.4v-0.9h1.4v-1.4l1.1-0.4v1.8h1.6V291.5z"/>
<path id="XMLID_7_" class="st0" d="M-277.5,290.6h1.1v1l0,0c0.3-0.6,1-1.1,1.6-1.1c0.3,0,0.5,0,0.8,0.1v1c-0.2-0.1-0.4-0.1-0.6-0.1
	c-1,0-1.7,1-1.7,2.5v2.8h-1.1v-6.2H-277.5z"/>
<path id="XMLID_6_" class="st0" d="M-273.4,298.5c0.1,0,0.3,0.1,0.5,0.1c1,0,1.4-1.4,1.4-1.5s-0.1-0.4-0.2-0.7l-2.1-5.8h1.2l1.7,5.1
	l0,0l1.7-5.1h1.2l-2.3,6.3c-0.4,1.2-0.9,2.6-2.4,2.6c-0.4,0-0.6,0-0.8-0.1L-273.4,298.5z"/>
<line id="XMLID_5_" class="st1" x1="-344.4" y1="251" x2="-344.4" y2="303.7"/>
</svg>
