<?xml version="1.0" encoding="utf-8"?>
<!-- Generator: Adobe Illustrator 19.0.0, SVG Export Plug-In . SVG Version: 6.00 Build 0)  -->
<svg version="1.1" id="Layer_1" xmlns="http://www.w3.org/2000/svg" xmlns:xlink="http://www.w3.org/1999/xlink" x="0px" y="0px"
	 viewBox="0 0 84.4 81.2" style="enable-background:new 0 0 84.4 81.2;" xml:space="preserve">
<style type="text/css">
	.st0{fill:#62BA46;}
	.st1{fill-rule:evenodd;clip-rule:evenodd;fill:#62BA46;}
	.st2{fill:#231F20;}
</style>
<g id="XMLID_72_">
	<g id="XMLID_33_">
		<g id="XMLID_45_">
			<path id="XMLID_46_" class="st0" d="M77.2,45.2l0.1-0.1l0.5-0.1l0.1-0.1l0.1-0.2l0.3-0.1l0.2-0.1l0.1-0.3l-0.3-0.3l-0.3-0.3
				l-0.3-0.1l-0.4-0.1l0.3-0.1l0.1-0.2l0.2-0.1l0.1-0.2l0.1-0.1v-0.1l0.1-0.1h0.1v-0.3h-0.5h-0.1l-0.1-0.1l0.2-0.4l0.1-0.1h-0.3v0.1
				h-0.7l-0.3,0.1l-0.1,0.1l-0.1,0.3L76,41.6l0.5-0.2L77,41l0.8-0.1l-1.4,0.1L76.3,41l-0.2,0.1l-0.4,0.3l-0.1,0.1l-0.5,0.1l-0.6,0.1
				l-0.2,0.1l-0.1,0.1l-0.3,0.2l-0.3,0.1h-0.3h-0.6v-0.3v-0.1l0.1-0.1h0.8l1.3-0.1l0.3-0.2v-0.3V41l0.1-0.1l0.6-0.1l0.7-0.2l1.2-0.3
				l-0.1-0.5l-0.4-0.1h-0.3h-0.6l-0.2,0.1L76,39.8l-0.3-0.2l-0.1-0.1l-0.2-0.1l-0.1,0.2l-0.1,0.1v0.1v0.2l-0.2,0.1l-0.3-0.3
				l-0.3-0.1l-0.3,0.1l-0.2,0.3l-0.7,0.2l-0.1-0.1v-0.1l0.1-0.5l0-0.2l0.1,0h0.6l1-0.4l0.5-0.1l0.2-0.2l0.5,0.1l0.5-0.1l0.1-0.3
				h-0.6l0.2-0.1H77l0.6-0.1v-0.1L76.5,38v-0.3l-0.1-0.1l-0.6,0l-0.5,0.2L74.6,38l-0.3-0.1l-0.1-0.1l0.1-0.2l0.3-0.2l0.4-0.3v-0.3
				l0.1-0.3l0.3-0.1l0.1-0.2l-0.1,0.1L75,36.5v-0.1l0.2-0.4l0.1-0.3v-0.1l-0.1,0.1L74.6,36L73.9,36l-0.4,0.3l-0.3,0.1l-0.6,0.1
				l-0.3,0.1l-0.2,0.1l-0.1-0.1l-0.2-0.1l-0.1-0.1l0.1-0.2l0.3-0.1l1.3-0.3l1.4-0.5l0.6-0.1l0.1-0.4v-0.1h-0.3l-1.6,0.1l-0.2,0.1
				l-1.4,0.3l-0.6,0.1L71,35.3l-1.1,0.5l-0.4,0.1l-1.7,0.3l-0.3,0.1L67,36.4l-0.8,0.1l-1.4,0.6l-1.3,0.5l-0.8,0.3l-0.7,0.5l-0.5,0.2
				l-0.7,0.2l-1.2,0.4l-0.9,0.1l-0.9,0.2L56,39.8l-0.5,0.3L55,40.3l-1,0.2l-0.4,0.1l-0.3,0.2l-0.4,0.1L52.5,41l-1,0.3l-1,0.3
				l-0.3,0.2L50,41.9l-0.5,0.3l-1.2,0.3l-0.2,0.1l-0.4,0.1l-0.4,0.1l0.6-0.6h-0.2l-0.4,0.3l-0.3,0.1L47,42.7L47,42.8h-0.1l-0.8,0.3
				l-1,0.5l-0.9,0.4l-0.7,0.2L43,44.3l-0.5,0.3l-0.6,0.2L41.4,45v-0.1l0.3-0.2l2.1-1h-0.4l-1.8,0.8l-0.6,0.2l-0.3,0.1l-0.2,0.1
				L40,45l-0.6,0.1v0.1v0.1l0.3-0.1l0.3-0.1l0.4,0.3l-0.8,0.3L39,45.8l-0.6,0.1l-1.1,0.3l-0.8,0.3L36,46.7L35.6,47l-0.8,0.5
				l-0.6,0.2l-0.8,0.2L33.2,48L33,48.1l-0.4,0.1L32,48.2h-0.5l-0.1,0.1l-0.3,0.1l-0.3,0.1l-0.6,0.2l-0.6,0.3l-1,0.8L27.8,50
				l-0.9,0.3h-0.6l-0.5,0.2l-0.5,0.1h0.2l0.5-0.1l0.2-0.1l0.1-0.1l0.1,0.1v0.1L26,50.8l-0.5,0.3l-0.7,0.3l-0.7,0.3l-0.8,0.4
				l-0.5,0.2l-0.6,0.4L21.3,53l-0.9,0.3l-1.3,0.5l-1.5,0.6l-0.4,0.1l-0.5,0.1L16.2,55l-0.5,0.2L15,55.7l-0.7,0.3l-0.5,0.1l-0.5,0.3
				l-0.5,0.1l-0.7,0.5l-0.7,0.3H12h0.3v0.1l-0.3,0.3l-0.5,0.3l-1.2,0.6l-0.5,0.3L9,58.9l-0.6,0.4l-0.3,0.2l-0.3,0.1l-0.2,0.1
				l-0.5,0.1l-1,0.6l-1,0.6L5,61.4l-0.3,0.1l-0.1,0.1l-0.1,0.2l-0.1,0.1L4.2,62L4.1,62L4,62.2l0.4,0.1l0.1-0.1l0.1,0.1v0.1l-0.3,0.1
				l-0.1,0.3l-0.1,0.1v0.1l0.2,0.1l0.1,0.4h0.1l-0.2,0.1H4.5v0.1v0.3l0.1,0.1L4.8,64L5,64.1v0.1l0.1,0.6L5,65.3l0.1,0.1l0.4,0.5
				l0.2,0.2l0.1,0.4L5.9,67l0.1,0.5l0.2,0.4v0.3l0.1,0.3l0.2,0.1L6.9,69l-0.1,0.4v0.3L7,69.9l0.2,0.8L7.5,71l0.2,0.3l0.2,0.4
				l0.3,0.4v0.7l0.1,0.8L8.8,74L9,74.3L9,74.8l0.5,0.5l0.1-0.1h0.2l0.3-0.1l0.1-0.3l0.5-0.1l1.1-0.7l0.5-0.2l0.5-0.3l0.1-0.1
				l0.1-0.3l0.5-0.1l0.4-0.1l0.8-0.5l0.4-0.2l0.5-0.1l0.6-0.4l0.6-0.2l0.5-0.3l0.3-0.1l0.3-0.3l0.4-0.2l0.4-0.2l0.5-0.2v-0.2
				l0.3-0.1l1-0.6l1-0.6l0.8-0.2l1-0.4l0.9-0.5l0.8-0.2l1-0.6l1-0.5l1.2-0.5l1.2-0.5l0.2-0.1l0.1-0.1h0.1l0.1-0.1l0.3-0.2l0.5-0.1
				l0.5-0.2l0.5-0.3l0.5-0.1l0.4-0.1l0.4-0.1l0.5-0.2l0.6-0.1l0.3-0.1l0.3-0.1l0.5-0.3l-0.5,0.1L33.9,64v-0.5l0.8-0.3l0.5-0.2
				l0.6-0.1H36v0.1h0.4l0.1-0.1l0.6-0.2l0.6-0.3l-0.1-0.1l0.3-0.3l0.3-0.2l0.6-0.1l-0.6,0.5h0.1h0.3l0.1-0.3l0.3-0.2l0.3-0.2
				l0.2-0.2L40,61l0.7-0.2l1.5-0.5l0.7-0.2l0.7-0.3l1.4-0.6l0.8-0.2l0.8-0.1l0.6-0.3l0.6-0.2l1.6-0.5l0.7-0.3l6.4-2.4l2.1-0.8
				l2.1-0.8l0.6-0.1l1.4-0.5l2.1-0.6l0.8-0.4l0.7-0.3l1-0.1l0.4-0.1l0.3-0.1l0.5-0.3l0.6-0.1h0.2l0.4-0.1l0.8-0.2l0.8-0.3l0.7-0.3
				l1.3-0.4l0.4-0.1l0.7,0.1l0.8-0.1l0.3-0.2l0.1-0.1h0.5l0.1-0.4l0.3-0.2l0.3-0.1v-0.3l-0.3-0.1L76.5,48l-0.1-0.3h0.2l0.3-0.1
				l-0.1-0.2l0.1-0.3l0.3-0.5l0.6-0.2l0.6-0.3l0.1-0.2l-0.1-0.1l-0.1-0.2h-0.5l-0.1,0.2l-0.6,0.1L77,45.8l0.2-0.2v-0.2l-0.1,0.1
				L77,45.4v-0.1L77.2,45.2z M26.2,51.6l-1.2,0.5l-1.2,0.6l-0.5,0.2L23.1,53l-0.3,0.2l-0.4,0.1l-1,0.3l-0.5,0.2L20.4,54v-0.1
				l0.6-0.4l0.7-0.2l0.6-0.3l0.5-0.1l0.5-0.1l1.3-0.7l1.3-0.5L26.2,51.6L26.2,51.6z M51.2,42.2L51,42.4l-0.3,0.1l-0.6,0.1h-0.3
				l-0.3,0.2l-1,0.3l-0.9,0.3l-1.4,0.5l-0.6,0.2L45,44.5l-0.7,0.1l-0.5,0.3l-0.5,0.1h-0.1v-0.1l0.6-0.4l0.6-0.3l0.6-0.1l0.6-0.3
				l1.2-0.5l1.9-0.6l1.3-0.3l0.8-0.3l0.1-0.3l0.1-0.1l0.1-0.1l0.1,0.3L51.2,42.2z M60.8,39.1h0.3l0.2-0.1l0.1-0.1l0.3-0.2l0.3-0.1
				H62l-0.1,0.1l-0.2,0.5l-0.3,0.1h-0.1L60.8,39.1L60.8,39.1z M59.5,48.8l0.2-0.1l0.6-0.3l0.1-0.1l0.1-0.1h0.3l0.6-0.1l0.1,0v0.1
				l-0.1,0.1l-0.2,0.1l-0.3,0.1l-0.1,0.1h-0.3l-0.1,0.2l-0.6,0.1l-0.1,0.2l-0.4,0.1l-0.1-0.1L59.5,48.8z M64.8,48.5l-0.6,0.1
				L64,48.7l-0.1,0.1h-0.4l-0.2,0.1L63,49.1h-0.3l-0.3,0.1L62,49.3l-0.5,0.2l-0.1,0.1h-0.2l-0.4,0.3L60.3,50h-0.6l-0.1,0.3l-0.2,0.1
				l-0.3,0.1L59,50.2l0.1-0.1l0.3-0.1h0.3l0.3-0.2l0.1-0.1l0.1-0.2l1.2-0.1l0.2-0.2l0.3-0.1l0.5-0.1l0.5-0.1l0.4-0.1l0.3-0.2h0.3
				l0.2-0.1l0.1-0.1l0.1-0.1h0.2h0.3l0.1,0.1L64.8,48.5z M67.5,37.9l0.1-0.1l0.2-0.1l0.5-0.4l-0.1,0.4L67.6,38h-0.3H67L67.5,37.9z
				 M67.9,39.5l-0.3,0.1h-0.1L67,39.7l-0.5,0.1l-0.1,0.1L66.3,40l-0.1,0.2H66l-0.1-0.1l0.3-0.4l0.5-0.1l0.4-0.1l0.3-0.1l0.3-0.1
				l0.5-0.2l0.9-0.1l0.5-0.3l0.3-0.2h0.1l0.3-0.1h0.2v0.1l-0.2,0.3l-0.2,0.1l-0.2,0.2l-0.2,0l-0.4,0l-0.6,0.1L67.9,39.5z M68.6,43.4
				l0.1-0.4h0.3l0.5-0.1h0.1l0.3-0.1h0.3l0.1-0.1l0.4-0.2H71h0.3v0.2l-0.5,0.1h-0.5L70,42.9L69.9,43h-0.4L69.3,43l-0.1,0.1L69,43.3
				L68.6,43.4z M69.6,47.4l-0.2,0.2v-0.3L69.6,47.4L69.6,47.4l0.2-0.1L69.6,47.4z M69.9,47.3h-0.2l0.1-0.1L70,47h0.2v0.2l0.1,0.1
				H69.9z M73.8,48.9h-0.3h-0.3l-0.3,0.2l-0.3,0.1v-0.1l0.1-0.2l0.3-0.1h0.1l0.3-0.2h0.4l0.2-0.1h0.2l0.2,0.3L73.8,48.9z M75.2,43.8
				L75,44h-0.5l-0.4,0.1l-0.7,0.3l-0.8,0.3L72,45h-0.5h-0.1l-0.6,0.1l-0.6,0.3l-0.3,0.2l-0.4,0.1l-0.4,0.2l0.1-0.1l0.1-0.1l0.3-0.2
				l0.4-0.1l0.1-0.1l0.2-0.3h0.6l0.5-0.1l0.1-0.1l0.1-0.1H72l0.5-0.2l0.6-0.1l0.2-0.2l0.1,0l0.1,0l0.7-0.1l0.4-0.2l0.5-0.1l0.1-0.1
				h0.3l0.2,0.1L75.2,43.8z"/>
		</g>
		<polygon id="XMLID_44_" class="st1" points="75.7,37.1 75.5,37.1 75.2,37.1 75.2,37 75.4,36.8 75.7,36.6 75.8,36.6 75.9,36.5 
			76.3,36.6 75.9,37 75.7,37.1 75.7,37.1 		"/>
		<polygon id="XMLID_43_" class="st1" points="75.7,49.5 75.5,49.6 75.2,49.8 75.1,49.9 75.2,50 75.2,50 75.4,50 75.6,49.8 
			75.7,49.8 76,49.5 76,49.5 75.9,49.5 75.7,49.5 75.7,49.5 		"/>
		<polygon id="XMLID_42_" class="st1" points="71.5,50.6 70.8,50.7 70.8,50.9 71,51.1 71.3,51 71.4,50.9 71.5,50.8 72,50.6 
			72.1,50.5 72.1,50.4 72.1,50.4 71.9,50.5 71.5,50.6 71.5,50.6 		"/>
		<polygon id="XMLID_41_" class="st1" points="50.2,41.5 50.2,41.5 51.1,41.2 51.9,40.8 50.9,41.2 50.2,41.5 50.2,41.5 		"/>
		<polygon id="XMLID_40_" class="st1" points="50.2,41.5 50.2,41.5 49.9,41.6 48.8,41.6 48.6,42.1 49.3,41.7 50.2,41.5 50.2,41.5 
			50.2,41.5 		"/>
		<polyline id="XMLID_39_" class="st0" points="69.9,47.1 69.8,47.3 69.9,47.3 70.2,47.3 70.2,47.2 70.2,47 70,47 69.9,47.1 		"/>
		<polyline id="XMLID_38_" class="st0" points="71.5,44.7 72,44.7 72.4,44.5 73,44.4 73.2,44.2 73.4,44.2 73.5,44.1 73.5,44.1 
			74.2,44 74.6,43.8 75,43.7 75.2,43.6 75.4,43.6 75.6,43.7 75.2,43.8 75,44 74.6,44 74.2,44.1 73.5,44.4 73.5,44.4 72.6,44.7 
			72,45 71.5,45 71.4,45 70.8,45.1 70.2,45.3 69.9,45.5 69.9,45.5 69.5,45.6 69.5,45.6 69.1,45.8 69.2,45.7 69.3,45.6 69.5,45.4 
			69.9,45.4 70,45.3 70.2,45.1 70.8,45.1 71.2,44.9 71.3,44.8 71.5,44.7 		"/>
		<polyline id="XMLID_37_" class="st0" points="69.4,42.8 69.5,42.8 69.9,42.8 69.9,42.8 70.2,42.8 70.3,42.7 70.7,42.5 71,42.5 
			71.3,42.5 71.3,42.7 70.8,42.8 70.4,42.8 70,42.9 69.9,43 69.5,43 69.5,43 69.3,43 69.1,43.1 69,43.3 68.6,43.4 68.7,43 68.9,43 
			69.4,42.8 		"/>
		<polyline id="XMLID_36_" class="st0" points="61.4,38.9 61.7,38.7 61.9,38.6 62,38.6 61.9,38.6 61.7,39.1 61.4,39.2 		"/>
		<polyline id="XMLID_35_" class="st0" points="61.4,39.2 61.4,39.2 60.8,39.2 60.8,39.1 61.1,39.1 61.3,39 61.4,38.9 		"/>
		<polyline id="XMLID_34_" class="st0" points="23.4,52.9 23.1,53 22.8,53.2 22.4,53.3 21.4,53.5 20.8,53.7 20.4,54 20.4,53.9 
			21,53.5 21.7,53.3 22.3,53 22.8,52.8 23.3,52.7 24.6,52 25.9,51.5 26.2,51.5 26.2,51.6 25.1,52.1 23.9,52.7 23.4,52.9 23.3,52.9 
					"/>
	</g>
	<g id="XMLID_15_">
		<path id="XMLID_16_" d="M36.9,16.8l-0.6-0.4L35.7,16l-0.1-0.3l-0.1-0.3l-0.4-0.5l-0.6-0.6l-0.9-0.1l-0.8,0.1l-0.7,0.2l-0.8,0.3
			l-0.6,0.2l-0.6,0.4l-1.6,0.1L28,15.3l-0.6-0.5l-0.6-0.3l-0.6-0.2l-0.6-0.1h-0.2l0.3-0.3l0.2-0.2l0.3-0.1l0.5-0.1l0.4,0.1l0.3,0.2
			l0.3,0.4l0.5,0.5l0.5,0.2h1.5l0.5-0.2l0.4-0.2l0.5-0.3l0.5-0.1l0.8-0.7l0.7-0.5l0.5-0.3l0.6-0.3v-0.6v-0.2l-0.3-0.2l-0.3-0.2
			l-0.1-0.5l-0.1-0.4L34,9.8L34,9.5l-0.1-0.3l-0.5-0.8l-0.6-0.6l-0.8-0.4l-0.8-0.1l-1.4-0.1l-0.6,0.1H28l-0.3-0.1h-0.1h-0.3
			l-0.3-0.2l-0.4-0.3l-1.4-0.3l-0.6-0.1l-0.6,0.1H24L24,6.1L24,5.9l-0.1-0.1l-0.1-0.2l-0.2-0.3l-0.6-0.5l-1.3-0.7L21,4h-0.1
			l-0.6-0.3h-0.1l-0.5-0.1l-0.5-0.1H18l-0.5,0.3L17.2,4l-0.6,0.3l-0.7,0.5l-0.6,0.6l-0.1,0.1L14.2,6l-1.1,0.5H13l-0.6,0.1l-0.3,0.2
			l0.2,0.3l0.4,0.2l0.4,0.1l0.8,0.1L14,7.6l0.2,0.1L14.6,8L15,8.5l0.2,0.3L15.5,9l-0.3,0.8L15.2,10v0.3l-0.5-0.6L14.4,9l-0.5-0.6
			l-0.7-0.3h-0.1L12.3,8l-0.6,0.1l-0.5,0.3l-0.3,0.2l-0.2,0.3l-0.1,0.4v0.4v0.5l-0.1,0.3l-0.3,0.3l-0.4,0.3l-0.8,0.5l-0.9,0.5
			l-0.6,0.4L7,13.1l-0.5,0.6l-0.3,0.6l-0.1,0.6l0.1,0.6l0.5,0.6l0.8,0.5l-0.1,0.9L7.4,18l0.1,0.3l0.3,0.3l0.5,0.1H9l1,1v0.1
			l-0.1,0.1H9.7l-1.7,0.1l-1.1,0.3l-0.9,0.5l-0.6,0.6l-0.2,0.3L5,22.1v0.6L5,23.3l0.1,0.4l0.6,0.6l0.6,0.1l0.6,0.3l1,1l0.5,0.4
			L9,26.3h1.7l0.3,0.1H11l0.2,0.2l0.4,0.6h0.2l-0.2,0.3L11.2,28l-0.1,0.6l0.3,0.6l0.7,0.6l0.5,0.3l0.4,0.2l0.2,0.1l1.4,0.6h0.3
			l0.3,0.5l0.6,0.9l0.9,1.5l0.5,0.8l0.3,0.5l0.1,0.1l0.4,0.8l0.3,0.9l-0.1,3.4l-0.1,3.7l-0.1,3.4l-0.3,3.1l-0.2,3.9l-0.1,1.9v1.3
			l0,0.7l-0.3,2.6l-0.4,2.5l-0.3,1l-0.3,0.8l-0.5,0.7l-0.5,0.5l-0.2,0.2l0,0l0,0.1l-0.4,0.3L14,67.8l-0.8,0.5l-0.8,0.4l-0.8,0.4
			l0.8,0h0.8h2.1h0.1h2h0.3h0.1h2.1h0.5h0.1h0.6h3h1V69L24,68.5l-0.2-0.1l-0.6-0.5L22,67l-0.5-0.5l-0.4-0.6l-0.3-0.5l-0.3-0.6
			l-0.3-0.9l0-0.3v-0.4v-0.1v0v-0.8L20.3,50l0.1-6.1l-0.1-6.1v-0.4l0.3-0.2l0.4-0.5l0.5-0.7l0.5-1.2l0.4-0.8l0.5-0.7l0.9-1.3
			l0.3-0.4l0.5-0.8l0.6-1l0.6-0.1l0.8-0.1l2.3-0.7l0.8-0.3l0.5-0.3l0.3-0.5l0.3-0.5l0.1-0.6l-0.1-0.6l-0.4-0.4l-0.2-0.4l-0.1-0.4
			v-0.5l0.1-0.3l0.2-0.1l0.7-0.1l1.2-0.1l1-0.1l0.6-0.2l0.2-0.1l0.1-0.1l-0.2-0.3l-0.5-0.1l-1.8-0.3l-1-0.1l-1.1-0.1h-0.1l-0.1-0.1
			l0.1-0.3l0.1-0.3L30,22l0.7-0.1l0.9-0.5l0.8-0.3l1.1-0.1l1.1-0.3l0.3-0.1l0.1-0.1l0.7-1.2l0.3-0.6l0.3-0.5l0.7-0.8L37,17v-0.1
			L36.9,16.8z M25.6,20.2l-0.1,0.2l-0.4,0.1l-0.3,0.4l-0.4,0.3l-0.5,0.4l-0.4,0.3l-0.4-0.1l-0.3-0.2l-0.4-0.1l-0.1-0.1v-0.2v-0.2
			l0.1-0.1l0.5-0.1l0.1-0.2l0.1-0.2l0.1-0.2l-0.1-0.4l-0.8-0.1l0.1-0.3l0.1-0.2l0.6-0.1l0.8,0.1h0.2l0.3,0.1l0.4,0.2L25.6,20.2z
			 M23.7,13.5h0.2h1.2h0.3l0.1,0.1l-0.1,0.1l-0.6,1h-0.2l-0.5-0.2h-0.2h-0.3H23l-0.5-0.2v-0.1v-0.1v-0.5L23.7,13.5z M18.8,8.2
			L18.9,8L19,8l0.2-0.4l0.3-0.3l0.3-0.1l0.1-0.1h0.5h0.7l0.6-0.1l1.5-0.3v0.5l-0.5,0.3l-0.3,0.1L22,7.8l-0.9,0.1l-0.1,0.1L20.2,8
			L19.7,8l-0.4,0.2L19,8.5l-0.2-0.1V8.2z M22.1,13.8v0.1L22,14.2l-1,0.1h-0.7l-0.4,0.1l-0.1,0.1l-0.2,0.1l-0.3,0.3l-0.4,0.6
			l-0.1,0.3v0.4l0.1,0.3l0.2,0.3l0.3,0.1l0.3,0.1l0.1,0.1h0.1l0.1,0.1l0.1,0.3l-0.1,0.3l-0.1,0.2l-0.1,0.1h-0.1l-0.2-0.1h-0.3
			L18.4,18l-0.1,0.1l0.1,0.5L18.3,19l-0.1,0.2L18,19.3l-0.4-0.2L17.6,19l-0.1-0.4l-0.2-0.1v-0.1l-0.1-0.3l-0.1-0.8l0.1-0.1v-1.7
			l-0.1-0.3L17,14.9l0.1-0.2l0.1-0.1l0.1-0.1l0.1-0.1l0.2-0.1l0.3-0.1l1.7-0.1l0.1-0.1v-1.7l-0.1-0.1l0.1-0.1L20,12l0.1-0.1l0.1-0.1
			l0.2-0.2l0.2,0.1l0.1,0.1l0.1,0.3l0.1,0.4l0.1,0.1l0.2,0.1l0.3,0.2l0.3,0.1l0.1,0.2l0.1,0.1l0.1,0.1L22,13.7L22.1,13.8z
			 M21.8,19.3v0.1v0.3h-0.8h-0.6l-0.1,0.1h-0.5L19,19.9l-0.3,0.2h-0.2l-0.1-0.1l-0.1-0.2l0.2-0.4l0.5-0.3l0.4-0.1l0.3,0.1l0.3,0.1
			h0.2h0.7h0.7L21.8,19.3z M15.5,10.3l0.1-0.3l0.2-0.5l0.1-0.4l0.9,0.2h0.3h0.1l0.3-0.1h0.1l0.3-0.1l0.2-0.1l0.3-0.3l0.1,0.2
			l0.1,0.1L18.7,9v0.1v0.5l0.2,0.4l0.3,0.3l0.3,0.1l0.1,0.3l0.1,0.2l0.3,0.3v0.2v0.2l-0.3,0.1h-0.1l-0.2,0.1l-0.1-0.1l-0.1-0.1
			l-0.1-0.1l-0.1-0.1l-0.8-0.4l-0.7-0.3l-0.1-0.1h-0.2l-0.6-0.2l-0.8-0.1h-0.6L15.5,10.3z M11.1,19.6l-0.2,0.1h-0.1l-0.3-0.1l-1-1
			l0.4-0.1l1-0.6l0.2-0.1l0.1-0.1l0.3-0.1l0.6-0.1l0.1,0.1l0.1,0.5v0.6L11.8,19L11.1,19.6z M14.5,26l-0.6,0.1l-0.5,0.2l-0.3,0.1
			l-0.3,0.1l-0.5,0.3L12,26.3l-0.3-0.1l-0.1-0.3l0.1-0.1l0.5-0.1l0.8-0.1h0.1h0.7l0.5,0.1l0.2,0.1l0.1,0.3H14.5z M15.2,18.4
			l-0.3-0.3L14.6,18h-1.5L13,17.9v-0.6h0.1h0.1l1.9,0.3l0.2,0.1l0.6,0.1l0.6-0.1l0.3,0.5l0.2,0.2l0.3,0.2l0.1,0.5l0.1,0.2l0.2,0.5
			l0.1,0.2v0.1l-0.1,0.1l-0.3-0.1l-0.5-0.3l-0.4-0.2l-0.3-0.3L15.2,18.4L15.2,18.4z M18.4,34.8l-0.8-1.4L17.4,33l-0.1-0.1l-0.5-0.6
			l-0.6-0.7h0.3h0.8h0.3l0.1,0.1l0.5,0.5l0.2,0.3l0.1,0.4V34.8z M19.8,27.6l-0.1,0.1l-0.1,0.1h-0.1l-0.6-0.1l-0.5-0.2l-0.3-0.3v-0.5
			L18,26.3l-0.3-0.2h-0.1h-0.3l-0.1-0.1l-0.7,0.1h-0.3L15.6,26l0.1-0.3l0.2-0.2h1.3h0.3h0.6l0.4-0.1l0.5-0.2l0.2,0.1l0.1,0.1
			l0.2,0.6H19l-0.3,0.1v0.3l0.1,0.3l0.1,0.1l0.4,0.1h0.3l0.1,0.3l0.1,0.3V27.6z M20.1,25.5L20,25.3l-0.1-0.2L19.7,25l-0.1-0.1v-0.2
			h0.1l0.3-0.1l0.1-0.2l0.1-0.1h0.1l0.3-0.3l0.1,0.1l0.1,0.1l0.1,0.1v0.2l-0.1,0.3V25v0.3h-0.1l0.1,0.5l-0.1,0.1l-0.1,0.1h-0.3
			L20.1,25.5z M20.2,31.2L20.2,31.2l0.3-0.3l0.1-0.3l0.1-0.6l0.3-0.1l0.6-0.2l0.3-0.3l0.1-0.3l-0.1-0.3l-0.3-0.3l-0.4-0.5l0.1-1.2h1
			l0.5,0.2l0.2,0.2l0.1,0.3v0.2L23,27.8l-0.1,0.1l-0.1,0.2l-0.2,0.1l-0.1,0.1l-0.1,0.5l0.1,0.6l0.1,0.2l0.3,0.1l-1,0.9l-1,1h-0.1
			l-0.2,0.1l-0.1,0.1l-0.1-0.1l-0.2-0.1l-0.1-0.1L20.2,31.2z M23.9,30.5l-0.4,0.6L22,33.2l-0.6,0.9l-0.5,0.6L20.7,35l-0.3-0.1
			l-0.1-0.3l0.3-1.3l0.2-0.4l0.2-0.2l0.1-0.1l0.6-0.7l0.3-0.6l0.5-0.5l0.8-0.9l0.3,0.3l0.3-0.2h0.1l0.2-0.1L23.9,30.5z M28.4,22.2
			L28,22.7h-2.3l-1,0.4l-0.5,0.3L24,23.8l-0.1,0.4v0.1l0.1,0.3l0.3,0.3l0.5,0.3v0.3l-0.3,0.2l-0.2,0.1l-0.4-0.1l-0.3-0.1L23,25.2
			L22.4,25l-0.3,0.1l-0.3,0.2h-0.3l0.1-0.5l0.2-0.5l0.3-0.3l0.3-0.3l0.3-0.1l0.4-0.1l0.5-0.3l0.2-0.1l0.1-0.1l0.1-0.3l0.1-0.4l1-1.1
			l0.5-0.4l0.5-0.3l0.3,0.3l0.3,0.3l0.3,0.3l0.5,0.4l0.8,0.1h0.1L28.4,22.2z"/>
	</g>
	<g id="XMLID_2_">
		<path id="XMLID_13_" class="st2" d="M39.2,55.5l-0.6,1.6c-0.6-0.4-1.5-0.7-2.8-0.7c-1.2,0-2.2,0.5-2.9,1.6c-0.7,1-1.1,2.4-1.1,4
			c0,1.6,0.4,2.8,1.1,3.8c0.7,1,1.7,1.5,2.9,1.5c1.3,0,2.3-0.5,3-1.4l1,1.4c-1.1,1.1-2.5,1.6-4.2,1.6c-1.8,0-3.2-0.6-4.2-1.9
			c-1-1.3-1.5-3-1.5-5.1c0-2,0.5-3.7,1.6-5.1c1.1-1.4,2.5-2,4.3-2C37.1,54.8,38.3,55,39.2,55.5z"/>
		<path id="XMLID_11_" class="st2" d="M42.2,68.7V55h1.9v13.7H42.2z"/>
		<path id="XMLID_9_" class="st2" d="M49.1,56.7v3.8h4.8v1.6h-4.8v6.6h-1.9V55h8.5v1.7H49.1z"/>
		<path id="XMLID_6_" class="st2" d="M56.6,61.8c0-2,0.5-3.6,1.5-5c1-1.3,2.3-2,4-2c1.9,0,3.4,0.6,4.4,1.8c1,1.2,1.5,2.9,1.5,5.1
			c0,2.2-0.5,4-1.5,5.3c-1,1.3-2.5,1.9-4.4,1.9c-1.7,0-3.1-0.7-4.1-2C57.1,65.6,56.6,63.9,56.6,61.8z M58.5,61.8
			c0,1.6,0.3,2.9,0.9,3.9c0.6,1.1,1.5,1.6,2.6,1.6c1.3,0,2.3-0.5,2.9-1.4c0.7-1,1-2.3,1-4.1c0-3.5-1.3-5.3-3.9-5.3
			c-1.2,0-2,0.5-2.6,1.4C58.8,58.8,58.5,60.1,58.5,61.8z"/>
		<path id="XMLID_3_" class="st2" d="M77.7,68.7l-3.7-5.9c-0.4,0-1.1,0-2-0.1v6h-1.9V55c0.1,0,0.6,0,1.5-0.1c0.9,0,1.6-0.1,2-0.1
			c3.3,0,4.9,1.3,4.9,3.9c0,0.9-0.3,1.6-0.8,2.3c-0.5,0.7-1.2,1.1-1.9,1.3l4,6.3H77.7z M72.1,56.7v4.4c0.4,0.1,0.9,0.1,1.3,0.1
			c1.1,0,1.9-0.2,2.4-0.5c0.5-0.4,0.8-1,0.8-1.9c0-0.8-0.3-1.3-0.8-1.7c-0.5-0.3-1.4-0.5-2.6-0.5C73,56.6,72.6,56.7,72.1,56.7z"/>
	</g>
</g>
</svg>
