<?xml version="1.0" encoding="utf-8"?>
<!-- Generator: Adobe Illustrator 19.0.0, SVG Export Plug-In . SVG Version: 6.00 Build 0)  -->
<svg version="1.1" id="Layer_1" xmlns="http://www.w3.org/2000/svg" xmlns:xlink="http://www.w3.org/1999/xlink" x="0px" y="0px"
	 viewBox="-454 257 50.7 48" style="enable-background:new -454 257 50.7 48;" xml:space="preserve">
<style type="text/css">
	.st0{display:none;}
	.st1{display:inline;}
	.st2{fill:#65B345;}
	.st3{fill:#FFFFFF;}
	.st4{fill:#65B32E;}
	.st5{fill-rule:evenodd;clip-rule:evenodd;fill:#65B32E;}
</style>
<g id="Layer_1_1_" class="st0">
	<g class="st1">
		<path class="st2" d="M-861.4,540.7l-0.1,0.1h-0.3l-0.2,0.1l-0.5,0.2l-0.5,0.2l-0.4,0.2h-0.3l0,0h-0.4l-0.4,0.2l-0.2,0.1l-0.2,0.1
			l-0.2,0.1v-0.1l0,0l0.2-0.1h0.2l0,0l0.1-0.2h0.4l0.3-0.1l0.1-0.1l0.1-0.1h0.3l0.3-0.1h0.4l0.1-0.1h0.1h0.1l0.4-0.1l0.2-0.1
			l0.3-0.1L-861.4,540.7h0.2l0.1,0.1L-861.4,540.7L-861.4,540.7z M-862.3,544h-0.2h-0.2l-0.2,0.1l-0.2,0.1v-0.1V544l0.2-0.1h0.1
			l0.2-0.1h0.2h0.1h0.1l0.1,0.2H-862.3L-862.3,544z M-864.8,542.9h-0.1H-864.8v-0.2h0.1v0.1l0,0h-0.1V542.9z M-865,543L-865,543
			L-865,543L-865,543L-865,543L-865,543L-865,543L-865,543z M-865.7,540.4l0.1-0.2h0.2l0.3-0.1h0.1h0.2h0.2l0.1-0.1l0.2-0.1h0.2h0.2
			v0.1l-0.3,0.1h-0.3l-0.2,0.1l0,0h-0.2h-0.2h-0.1l-0.1,0.1L-865.7,540.4L-865.7,540.4z M-866.1,538l-0.2,0.1h-0.1h-0.3h-0.3h-0.1
			v0.1v0.1h-0.2l0,0l0.2-0.2h0.3l0.2-0.1h0.2H-866.1l0.2-0.2h0.6l0.3-0.2l0.2-0.1h0.1h0.2h0.1l0,0l-0.1,0.2l-0.1,0.1l-0.1,0.1h-0.1
			h-0.3h-0.4L-866.1,538L-866.1,538z M-866.4,537L-866.4,537l0.2-0.1l0.3-0.2l-0.1,0.2L-866.4,537L-866.4,537h-0.3H-866.4
			L-866.4,537z M-868.1,543.7h-0.4l-0.1,0.1h-0.1h-0.2l-0.1,0.1l-0.2,0.1h-0.2l-0.2,0.1h-0.2l-0.3,0.1h-0.1h-0.1l-0.2,0.2l-0.3,0.1
			h-0.4l-0.1,0.2h-0.1h-0.2l-0.1-0.1l0.1-0.1l0.2-0.1h0.2l0.2-0.1h0.1l0.1-0.1l0.8-0.1l0.1-0.1l0.2-0.1l0.3-0.1h0.3l0.2-0.1l0.2-0.1
			h0.2h0.1l0.1-0.1v-0.1h0.1h0.2L-868.1,543.7L-868.1,543.7L-868.1,543.7z M-871.4,543.9h0.1l0.4-0.2l0.1-0.1l0.1-0.1h0.2l0.4-0.1
			h0.1l0,0h-0.1h-0.1l-0.2,0.1h-0.1h-0.2l-0.1,0.1L-871.4,543.9v0.2h-0.2l0,0L-871.4,543.9L-871.4,543.9z M-870.6,537.7h0.2h0.1
			l0.1-0.1l0.2-0.1l0.2-0.1l0,0l0,0l-0.1,0.3h-0.2l0,0L-870.6,537.7L-870.6,537.7L-870.6,537.7z M-876.7,539.7l-0.2,0.1h-0.2
			l-0.4,0.1h-0.2l-0.2,0.1l-0.6,0.2l-0.6,0.2l-0.9,0.3l-0.4,0.1l-0.4,0.2l-0.5,0.1l-0.3,0.2h-0.3l0,0l0,0l0.4-0.2l0.4-0.2l0.4-0.1
			l0.4-0.2l0.8-0.3l1.2-0.4l0.8-0.2l0.5-0.2l0.1-0.2h0.1h0.1v0.2L-876.7,539.7L-876.7,539.7z M-892.7,545.7l-0.7,0.3l-0.7,0.4
			l-0.3,0.1l-0.2,0.1l-0.2,0.1l-0.2,0.1l-0.7,0.2l-0.3,0.1l-0.3,0.2v-0.1l0.4-0.2l0.5-0.1l0.4-0.2l0.3-0.1l0.3-0.1l0.8-0.5l0.8-0.3
			H-892.7L-892.7,545.7L-892.7,545.7z M-860.1,541.6L-860.1,541.6l0.3-0.2h0.1v-0.1l0.2-0.1h0.1l0.1-0.2l-0.2-0.2l-0.2-0.2l-0.2-0.1
			h-0.2h0.2l0.1-0.1l0.1-0.1l0.1-0.1l0.1-0.1V540h0.1h0.1v-0.2h-0.3h-0.1h-0.1l0.1-0.2v-0.1h-0.2l0,0h-0.5h-0.2l-0.1,0.1v0.2
			l-0.2-0.3l0.3-0.1l0.3-0.3l0.5-0.1h-0.9l-0.1,0.1h-0.1l-0.2,0.2h-0.1l-0.3,0.1l-0.4,0.1h-0.1l-0.1,0.1l-0.2,0.1h-0.2h-0.2h-0.4
			v-0.2v-0.1l0,0h0.5l0.8-0.1l0.2-0.1V539v-0.1h0.1l0.4-0.1l0.4-0.2l0.7-0.2v-0.3l-0.2-0.1h-0.2h-0.4h-0.1l0,0l-0.2-0.1l0,0h-0.1
			v0.1v0.1v0.1v0.1h-0.1l-0.2-0.2h-0.2h-0.2l-0.1,0.2l-0.5,0.1h-0.1v-0.1l0.1-0.3v-0.1h0.1h0.4l0.7-0.2l0.3-0.1l0.2-0.1l0.3,0.1
			l0.3-0.1l0.1-0.2h-0.4h0.1h0.2l0.4-0.1l0,0l-0.7-0.2v-0.2h-0.1h-0.4l-0.3,0.1l-0.4,0.1h-0.2v-0.1v-0.1l0.2-0.1l0.2-0.2v-0.2
			l0.1-0.2h0.2V536l0,0l-0.2,0.1V536l0.1-0.2v-0.2l0,0l-0.1,0.1l-0.4,0.1h-0.5l-0.2,0.2l-0.2,0.1l-0.4,0.1h-0.2h-0.1v-0.1l-0.1-0.1
			l-0.1-0.1v-0.1h0.2l0.8-0.2l0.9-0.3l0.4-0.1V535v-0.1h-0.2l-1,0.1h-0.1l-0.9,0.2h-0.4l-0.3,0.1l-0.7,0.3l-0.2,0.1l-1.1,0.2h-0.2
			l-0.4,0.1l-0.5,0.1l-0.9,0.4l-0.8,0.3l-0.5,0.2l-0.5,0.3l-0.3,0.1l-0.5,0.1l-0.7,0.2h-0.6l-0.6,0.1l-1.1,0.3l-0.3,0.2l-0.3,0.1
			l-0.6,0.1h-0.2l-0.2,0.1l-0.2,0.1l-0.2,0.1l-0.7,0.2l-0.6,0.2l-0.2,0.1h-0.1l-0.3,0.2l-0.7,0.2l-0.1,0.1l-0.2,0.1h-0.2l0.4-0.4
			h-0.1l-0.2,0.2l-0.2,0.1v0.1l0,0l0,0l-0.5,0.2l-0.6,0.3l-0.6,0.2l-0.5,0.1l-0.3,0.1l-0.3,0.2l-0.4,0.1l-0.3,0.1v-0.1l0.2-0.1
			l1.4-0.6h-0.2l-1.2,0.5l-0.4,0.1h-0.2l-0.1,0.1l-0.3,0.1h-0.4v0.1v0.1l0.2-0.1l0.2-0.1l0.2,0.2l-0.5,0.2l-0.3,0.1h-0.4l-0.7,0.2
			l-0.5,0.2l-0.3,0.1l-0.3,0.2l-0.5,0.3l-0.4,0.1l-0.5,0.1l-0.1,0.1h-0.1h-0.2h-0.4h-0.3l-0.1,0.1l-0.2,0.1h-0.2l-0.4,0.1l-0.4,0.2
			l-0.7,0.5l-0.5,0.1l-0.6,0.2h-0.4l-0.3,0.1l-0.3,0.1h0.1h0.3h0.1l0,0l0,0l0,0l-0.2,0.1l-0.3,0.2l-0.5,0.2l-0.5,0.2l-0.5,0.2
			l-0.3,0.1l-0.4,0.2l-0.5,0.2l-0.6,0.2l-0.8,0.3l-1,0.4l-0.2,0.1h-0.3l-0.3,0.2l-0.3,0.1l-0.5,0.3l-0.5,0.2l-0.3,0.1l-0.3,0.2
			l-0.3,0.1l-0.5,0.3l-0.5,0.2h0.4h0.2l0,0l-0.2,0.2l-0.3,0.2l-0.7,0.4l-0.3,0.2l-0.5,0.2l-0.4,0.2l-0.2,0.1l-0.2,0.1l-0.1,0.1
			l-0.3,0.1l-0.6,0.4l-0.7,0.4l-0.1,0.2h-0.2h-0.1l-0.1,0.1v0.1l-0.1,0.1h-0.1v0.1h0.2h0.1h0.1l0,0h-0.2v0.2v0.1v0.1h0.1l0.1,0.2
			h0.1h-0.1l0,0l0,0v0.2v0.1l0.1,0.1h0.2l0,0v0.4v0.3l0,0l0.2,0.3l0.1,0.1l0.1,0.2l0.1,0.4l0.1,0.3l0.1,0.2v0.2l0.1,0.2l0.1,0.1
			l0.2,0.2l-0.1,0.2v0.2l0.1,0.2l0.1,0.5l0.2,0.2l0.1,0.2l0.1,0.2l0.2,0.2v0.5l0.1,0.5l0.2,0.2l0.1,0.2v0.3l0.3,0.3h0.1h0.1h0.2
			l0.1-0.2h0.3l0.7-0.5l0.3-0.1l0.3-0.2v-0.1l0.1-0.2h0.3h0.2l0.5-0.3l0.2-0.1h0.3l0.4-0.2l0.4-0.1l0.3-0.2h0.2l0.2-0.2l0.2-0.1
			l0.2-0.1l0.3-0.1v-0.1h0.2l0.6-0.4l0.7-0.4l0.5-0.1l0.6-0.2l0.6-0.3l0.5-0.1l0.6-0.4l0.7-0.3l0.8-0.3l0.8-0.3l0.1-0.1h0.1h0.1
			l0.1-0.1l0.2-0.1h0.3l0.3-0.1l0.3-0.2l0.3-0.1h0.2l0.2-0.1l0.3-0.1l0.4-0.1l0.2-0.1l0.2-0.1l0.3-0.2l-0.3,0.1l-0.3,0.2v-0.3
			l0.5-0.2l0.3-0.1h0.4h0.1l0,0h0.2l0,0l0.4-0.1l0.4-0.2l-0.1-0.1l0.2-0.2l0.2-0.1h0.4l-0.4,0.3l0,0h0.2l0.1-0.2l0.2-0.1l0.2-0.1
			l0.1-0.1l0.5-0.2l0.5-0.1l1-0.3l0.5-0.1l0.5-0.2l0.9-0.4l0.5-0.1l0.5-0.1l0.4-0.2l0.4-0.1l1-0.3l0.5-0.2l4.1-1.5l1.3-0.5l1.4-0.5
			l0.4-0.1l0.9-0.3l1.3-0.4l0.5-0.2l0.5-0.2l0.7-0.1l0.2-0.1l0.2-0.1l0.3-0.2l0.4-0.1h0.1h0.2l0.5-0.1l0.5-0.2l0.5-0.2l0.8-0.3
			l0.2-0.1h0.5h0.5l0.2-0.1l0.1-0.1h0.3l0.1-0.2l0.2-0.1l0.2-0.1v-0.2h-0.2l-0.1-0.1v-0.2h0.1l0.2-0.1l-0.1-0.1v-0.2l0.2-0.3
			l0.4-0.1l0.4-0.2l0.1-0.1h-0.1v-0.1h-0.3l-0.1,0.1h-0.4h-0.1l0.1-0.1v-0.1h-0.1l0,0L-860.1,541.6L-860.1,541.6L-860.1,541.6z"/>
		<polygon class="st2" points="-861.1,536.4 -861.2,536.5 -861.4,536.5 -861.4,536.4 -861.3,536.2 -861.1,536.1 -861,536.1 
			-860.9,536.1 -860.7,536.1 -860.9,536.4 -861.1,536.4 		"/>
		<polygon class="st2" points="-861.1,544.4 -861.2,544.4 -861.4,544.6 -861.5,544.6 -861.4,544.7 -861.4,544.7 -861.3,544.7 
			-861.1,544.6 -861.1,544.5 -860.9,544.4 -860.9,544.3 -861,544.3 -861.1,544.4 		"/>
		<polygon class="st2" points="-863.8,545 -864.2,545.1 -864.2,545.3 -864.1,545.4 -863.9,545.3 -863.8,545.3 -863.8,545.2 
			-863.5,545.1 -863.4,545 -863.4,544.9 -863.4,544.9 -863.5,545 -863.8,545 		"/>
		<polygon class="st2" points="-877.4,539.2 -877.4,539.2 -876.8,539.1 -876.3,538.8 -876.9,539 -877.4,539.2 		"/>
		<polygon class="st2" points="-877.4,539.2 -877.4,539.2 -877.6,539.3 -878.3,539.3 -878.4,539.6 -878,539.4 -877.4,539.2 
			-877.4,539.2 		"/>
		<polyline class="st2" points="-864.8,542.9 -864.9,542.9 -864.8,542.9 -864.6,542.9 -864.6,542.9 -864.6,542.8 -864.8,542.8 
			-864.8,542.9 		"/>
		<polyline class="st2" points="-863.8,541.3 -863.5,541.3 -863.2,541.2 -862.8,541.1 -862.7,541 -862.6,541 -862.5,540.9 
			-862.5,540.9 -862.1,540.9 -861.8,540.7 -861.5,540.7 -861.4,540.6 -861.3,540.6 -861.1,540.7 -861.4,540.7 -861.5,540.9 
			-861.8,540.9 -862.1,540.9 -862.5,541.1 -862.5,541.1 -863,541.3 -863.5,541.5 -863.8,541.5 -863.8,541.5 -864.2,541.5 
			-864.6,541.7 -864.8,541.8 -864.8,541.8 -865,541.9 -865,541.9 -865.3,542 -865.2,541.9 -865.2,541.9 -865,541.8 -864.8,541.7 
			-864.8,541.7 -864.6,541.5 -864.3,541.5 -864,541.4 -863.9,541.4 -863.8,541.3 		"/>
		<polyline class="st2" points="-865.1,540.1 -865,540.1 -864.8,540.1 -864.8,540.1 -864.6,540.1 -864.5,540 -864.3,539.9 
			-864.1,539.9 -863.9,539.9 -863.9,540 -864.2,540.1 -864.5,540.1 -864.8,540.2 -864.8,540.2 -865,540.2 -865,540.2 -865.2,540.2 
			-865.3,540.3 -865.4,540.4 -865.7,540.4 -865.6,540.2 -865.4,540.2 -865.1,540.1 		"/>
		<polyline class="st2" points="-870.2,537.6 -870.1,537.5 -869.9,537.4 -869.8,537.4 -869.9,537.4 -870,537.7 -870.2,537.8 		"/>
		<polyline class="st2" points="-870.2,537.8 -870.3,537.8 -870.6,537.8 -870.6,537.7 -870.4,537.7 -870.3,537.7 -870.2,537.6 		"/>
		<polyline class="st2" points="-894.5,546.5 -894.7,546.6 -894.9,546.7 -895.2,546.8 -895.8,547 -896.2,547.1 -896.5,547.2 
			-896.5,547.2 -896,546.9 -895.6,546.8 -895.2,546.6 -894.9,546.5 -894.6,546.4 -893.8,546 -892.9,545.6 -892.7,545.7 
			-892.7,545.7 -893.5,546 -894.2,546.4 -894.5,546.5 -894.6,546.5 		"/>
		<path class="st3" d="M-891.4,526.9l-0.2,0.3h-1.4l-0.7,0.2l-0.3,0.2l-0.2,0.3v0.2l0,0l0.1,0.2l0.2,0.2l0.3,0.2v0.2l-0.2,0.1h-0.1
			h-0.2h-0.2l-0.4-0.2l-0.4-0.1h-0.2l-0.2,0.1h-0.2v-0.3l0.1-0.3l0.2-0.2l0.2-0.2h0.2h0.2l0.3-0.2l0.1-0.1l0,0v-0.2v-0.2l0.6-0.7
			l0.3-0.2l0.3-0.2l0.2,0.2l0.2,0.2l0.2,0.2l0.3,0.2L-891.4,526.9L-891.4,526.9L-891.4,526.9L-891.4,526.9z M-894.2,532.2l-0.2,0.4
			l-1,1.4l-0.4,0.6l-0.3,0.4l-0.2,0.2h-0.2V535l0.2-0.8l0.1-0.2l0.1-0.1l0,0l0.4-0.5l0.2-0.4l0.3-0.3l0.5-0.6l0.2,0.2L-894.2,532.2
			L-894.2,532.2l0.1-0.1L-894.2,532.2L-894.2,532.2z M-896.6,532.6L-896.6,532.6l0.2-0.2v-0.2l0.1-0.4h0.2l0.4-0.1l0.2-0.2l0.1-0.2
			l-0.1-0.2l-0.2-0.2l-0.2-0.3v-0.8h0.7l0.3,0.1l0.1,0.1l0.1,0.2v0.1l0,0h-0.1v0.1h-0.1l-0.1,0.1v0.3v0.4l0.1,0.1l0.2,0.1l-0.6,0.6
			l-0.6,0.6l0,0l-0.1,0.1l0,0v-0.1l-0.1-0.1v-0.1L-896.6,532.6L-896.6,532.6z M-896.7,529.1v-0.2l-0.1-0.1l-0.1-0.1l0,0v-0.1l0,0
			h0.2v-0.1l0.1-0.1l0,0l0.2-0.2h0.1l0,0l0.1,0.1v0.1l-0.1,0.2v0.2v0.2l0,0v0.3v0.1h-0.1h-0.2L-896.7,529.1L-896.7,529.1z
			 M-896.9,530.3L-896.9,530.3l-0.1,0.1l0,0l-0.4-0.1l-0.3-0.1l-0.2-0.2v-0.3l-0.2-0.2l-0.2-0.1l0,0h-0.2h-0.1h-0.5h-0.2l-0.3-0.1
			l0.1-0.2l0.1-0.1h0.8h0.2h0.4l0.2-0.1l0.3-0.1h0.1l0.1,0.1l0.1,0.4h-0.4h-0.2v0.2l0.1,0.2l0.1,0.1h0.2h0.2v0.2v0.2L-896.9,530.3
			L-896.9,530.3z M-897.7,535l-0.5-0.9l-0.1-0.2l-0.1-0.1l-0.3-0.4l-0.4-0.5h0.2h0.5h0.2l0,0l0.3,0.3l0.1,0.2l0.1,0.2L-897.7,535
			L-897.7,535z M-899.8,524.5l-0.2-0.2l-0.2-0.1h-1h-0.1v-0.4h0.1l0,0l1.2,0.2h0.1h0.4h0.4l0.2,0.3l0.1,0.1l0.2,0.1l0.1,0.3v0.1
			l0.1,0.3v0.1v0.1l0,0l-0.2-0.1l-0.3-0.2l-0.3-0.1l-0.2-0.2L-899.8,524.5L-899.8,524.5L-899.8,524.5z M-900.2,529.3l-0.4,0.1
			l-0.3,0.1h-0.2l-0.2,0.1l-0.3,0.2l-0.2-0.3l-0.2-0.1v-0.2v-0.1h0.3h0.5h0.1h0.5h0.3L-900.2,529.3L-900.2,529.3L-900.2,529.3
			L-900.2,529.3z M-902.4,525.2L-902.4,525.2h-0.2h-0.2l-0.7-0.6l0.2-0.1l0.7-0.4l0.1-0.1l0.1-0.1l0.2-0.1h0.4v0.1l0.1,0.3v0.4
			l-0.3,0.2L-902.4,525.2L-902.4,525.2z M-899.6,519.3l0.1-0.2l0.1-0.3l0.1-0.2l0.6,0.1h0.2l0,0l0.2-0.1l0,0l0.2-0.1l0.1-0.1
			l0.2-0.2v0.1v0.1h0.1v0.1v0.3l0.1,0.2l0.2,0.2l0.2,0.1l0.1,0.2l0.1,0.1l0.2,0.2v0.1v0.1h-0.2l0,0l-0.1,0.1V520h-0.1h-0.1l0,0
			l-0.5-0.2l-0.5-0.2h-0.1h-0.1l-0.4-0.1h-0.5h-0.4L-899.6,519.3L-899.6,519.3z M-895.6,525.1L-895.6,525.1v0.3h-0.5h-0.4l0,0h-0.3
			h-0.5l-0.2,0.1h-0.1h-0.1v-0.1l0.1-0.2l0.3-0.2h0.2l0.2,0.1h0.2h0.1h0.5H-895.6L-895.6,525.1L-895.6,525.1z M-895.4,521.5
			L-895.4,521.5l-0.1,0.2h-0.7h-0.5h-0.2h-0.1h-0.1l-0.2,0.2l-0.2,0.4l-0.1,0.2v0.2l0.1,0.2l0.1,0.2h0.2h0.2l0.1,0.1l0,0l0.1,0.1
			v0.2v0.2v0.1l-0.1,0.1l0,0h-0.1h-0.2l-0.5,0.1v0.1v0.3v0.2v0.1l-0.2,0.1l-0.2-0.1v-0.1l-0.1-0.2l-0.1-0.1l0,0v-0.2v-0.5h0.1v-1.1
			l-0.1-0.2l-0.1-0.2V522h0.1v-0.1l0.1-0.1h0.1l0.2-0.1h1.1h0.1v-1.1v-0.1l0,0l0.2-0.2l0.1-0.1h0.1l0.1-0.1h0.1v0.1v0.2l0.1,0.2v0.1
			l0.1,0.1l0.2,0.1l0.2,0.1l0.1,0.1l0.1,0.1l0,0v0.3H-895.4L-895.4,521.5z M-897.5,517.9L-897.5,517.9l0.1-0.1l0.1-0.2l0.2-0.2h0.2
			l0,0h0.3h0.5h0.4l0.9-0.2v0.3l-0.3,0.2l-0.2,0.1h-0.2h-0.6h-0.1h-0.5h-0.3l-0.2,0.1l-0.2,0.2L-897.5,517.9L-897.5,517.9
			L-897.5,517.9z M-894.3,521.4h0.1h0.7h0.2h0.1v0.1l-0.4,0.6h-0.1l-0.3-0.1h-0.1h-0.2h-0.4l-0.3-0.1l0,0l0,0v-0.3L-894.3,521.4
			L-894.3,521.4z M-893.1,525.7l-0.1,0.1h-0.2l-0.2,0.2l-0.2,0.2l-0.3,0.2l-0.2,0.2l-0.2-0.1l-0.2-0.1h-0.2h-0.1v-0.1v-0.1h0.1
			l0.3-0.1l0.1-0.1v-0.1v-0.1v-0.2l-0.5-0.1v-0.2l0.1-0.1h0.4l0.5,0.1h0.1h0.2l0.2,0.1L-893.1,525.7L-893.1,525.7z M-885.9,523.4
			l-0.4-0.2l-0.3-0.2v-0.2l-0.1-0.2l-0.2-0.3l-0.4-0.4l-0.6-0.1h-0.5l-0.5,0.1l-0.5,0.2l-0.4,0.1l-0.4,0.2h-1h-0.4l-0.4-0.3
			l-0.4-0.2l-0.4-0.1h-0.4h-0.1l0.2-0.2l0.1-0.1l0.2-0.1h0.3h0.2l0.2,0.1l0.2,0.2l0.3,0.3l0.3,0.1h1l0.3-0.1l0.2-0.1l0.3-0.2
			l0.3-0.1l0.5-0.5l0.5-0.3l0.3-0.2l0.4-0.2V520v-0.1l-0.2-0.1l-0.2-0.1v-0.3v-0.2l0.1-0.3v-0.2l-0.1-0.2l-0.3-0.5l-0.4-0.4
			l-0.5-0.2l-0.5-0.1h-0.9l-0.4,0.1h-0.8h-0.2l0,0h-0.2l-0.2-0.1l-0.2-0.2l-0.9-0.2h-0.4h-0.4h-0.1v-0.2v-0.1v-0.1v-0.1l-0.1-0.2
			l-0.4-0.3l-0.8-0.5l-0.5-0.1l0,0l-0.4-0.2l0,0h-0.3h-0.3h-0.7l-0.3,0.2l-0.2,0.1l-0.4,0.2l-0.5,0.3l-0.4,0.4h-0.1l-0.6,0.3
			l-0.7,0.3h-0.1h-0.4l-0.2,0.1l0.1,0.2l0.2,0.1h0.2h0.5l0.1,0.2l0.1,0.1l0.2,0.2l0.3,0.3l0.1,0.2l0.2,0.2l-0.2,0.5v0.1v0.2
			l-0.3-0.4l-0.2-0.5l-0.3-0.4l-0.5-0.2h-0.1l-0.5-0.1l-0.4,0.1l-0.3,0.2l-0.2,0.1l-0.1,0.2v0.2v0.2v0.3v0.2l-0.2,0.2l-0.2,0.2
			l-0.5,0.3l-0.6,0.3l-0.4,0.2l-0.4,0.4l-0.3,0.4l-0.2,0.4v0.4l0.1,0.4l0.3,0.4l0.5,0.3l-0.1,0.6v0.3v0.2l0.2,0.2h0.3h0.5l0.6,0.6
			v0.1l0,0h-0.1h-1.1l-0.7,0.2l-0.6,0.3l-0.4,0.4l-0.1,0.2l-0.1,0.2v0.4v0.4l0.1,0.2l0.4,0.4l0.4,0.1l0.4,0.2l0.7,0.7l0.3,0.2
			l0.3,0.1h1.1l0.2,0.1l0,0l0.1,0.1l0.2,0.4h0.1l-0.1,0.2l-0.2,0.3v0.4l0.2,0.4l0.5,0.4l0.3,0.2l0.2,0.1h0.1l0.9,0.4h0.2l0.2,0.3
			l0.4,0.6l0.6,1l0.3,0.5l0.2,0.3l0.1,0.1l0.2,0.5l0.2,0.6v2.2l-0.1,2.4l-0.1,2.1l-0.2,2l-0.1,2.5v1.2v0.8v0.4l-0.2,1.7l-0.2,1.6
			l-0.2,0.6l-0.2,0.5l-0.3,0.5l-0.3,0.3l-0.1,0.1l0,0l0,0l-0.3,0.2l-0.5,0.3l-0.5,0.3l-0.5,0.2l-0.5,0.3h0.5h0.5h1.3l0,0h1.3h0.2
			l0,0h1.3h0.3l0,0h0.4h1.9h0.7l0,0l-0.5-0.4l-0.1-0.1l-0.4-0.3l-0.7-0.6l-0.3-0.3l-0.2-0.4l-0.2-0.3l-0.2-0.4l-0.2-0.6v-0.2v-0.3
			l0,0l0,0v-0.5l0.1-7.8v-3.9l-0.1-3.9V536l0.2-0.1l0.2-0.3l0.3-0.5l0.3-0.7l0.2-0.5l0.3-0.5l0.6-0.8l0.2-0.2l0.3-0.5l0.4-0.7
			l0.4-0.1h0.5l1.4-0.5l0.5-0.2l0.3-0.2l0.2-0.3l0.2-0.3v-0.4v-0.4l-0.2-0.2l-0.1-0.2l-0.1-0.2v-0.3l0.1-0.2l0.1-0.1h0.5h0.7
			l0.6-0.1l0.4-0.1l0.1-0.1v-0.1l-0.1-0.2l-0.3-0.1l-1.2-0.2l-0.7-0.1h-0.7h-0.1l-0.1-0.1l0.1-0.2l0.1-0.2h0.5l0.5-0.1l0.6-0.3
			l0.5-0.2h0.7l0.7-0.2l0.2-0.1v-0.1l0.5-0.7l0.2-0.4l0.2-0.3l0.5-0.5v-0.3L-885.9,523.4L-885.9,523.4L-885.9,523.4z"/>
		<path class="st3" d="M-884.5,548.2l-0.4,1c-0.4-0.3-1-0.4-1.8-0.4c-0.8,0-1.4,0.3-1.8,1c-0.5,0.7-0.7,1.5-0.7,2.6
			c0,1,0.2,1.8,0.7,2.4c0.5,0.6,1.1,0.9,1.8,0.9c0.8,0,1.5-0.3,1.9-0.9l0.7,0.9c-0.7,0.7-1.6,1-2.7,1s-2-0.4-2.7-1.2
			c-0.7-0.8-1-1.9-1-3.3c0-1.3,0.4-2.4,1.1-3.3c0.7-0.9,1.6-1.3,2.7-1.3C-885.7,547.8-885,547.9-884.5,548.2L-884.5,548.2z"/>
		<polygon class="st3" points="-882.5,556.7 -882.5,547.9 -881.3,547.9 -881.3,556.7 		"/>
		<polygon class="st3" points="-878.1,549 -878.1,551.4 -875.1,551.4 -875.1,552.4 -878.1,552.4 -878.1,556.7 -879.3,556.7 
			-879.3,547.9 -873.9,547.9 -873.9,549 		"/>
		<path class="st3" d="M-872.1,552.2c0,1,0.2,1.8,0.6,2.5s1,1,1.7,1c0.8,0,1.4-0.3,1.9-0.9c0.4-0.6,0.6-1.5,0.6-2.6
			c0-2.3-0.8-3.4-2.5-3.4c-0.7,0-1.3,0.3-1.7,0.9C-871.9,550.3-872.1,551.2-872.1,552.2L-872.1,552.2z M-873.3,552.2
			c0-1.3,0.3-2.3,1-3.2c0.6-0.9,1.5-1.3,2.6-1.3c1.2,0,2.1,0.4,2.8,1.2c0.6,0.8,1,1.9,1,3.3s-0.3,2.6-1,3.4
			c-0.6,0.8-1.6,1.2-2.8,1.2c-1.1,0-2-0.4-2.6-1.3C-873,554.7-873.3,553.6-873.3,552.2L-873.3,552.2z"/>
		<path class="st3" d="M-863.4,549v2.8c0.3,0,0.6,0.1,0.8,0.1c0.7,0,1.2-0.1,1.6-0.3c0.3-0.2,0.5-0.6,0.5-1.2c0-0.5-0.2-0.8-0.5-1.1
			c-0.4-0.2-0.9-0.3-1.7-0.3C-862.8,548.9-863,548.9-863.4,549L-863.4,549z M-859.8,556.7l-2.3-3.8c-0.3,0-0.7,0-1.3-0.1v3.8h-1.2
			v-8.8c0,0,0.4,0,0.9,0c0.6,0,1,0,1.3,0c2.1,0,3.2,0.8,3.2,2.5c0,0.6-0.2,1-0.5,1.5c-0.3,0.4-0.7,0.7-1.2,0.8l2.5,4L-859.8,556.7
			L-859.8,556.7z"/>
	</g>
</g>
<g>
	<path class="st4" d="M-406.9,283.9l-0.1,0.1h-0.3l-0.3,0.1l-0.5,0.2l-0.6,0.2l-0.4,0.2h-0.3h0l-0.4,0l-0.4,0.2l-0.2,0.1l-0.2,0.1
		l-0.3,0.1l0-0.1l0,0l0.2-0.1l0.3,0l0,0l0.1-0.2h0.4l0.3-0.1l0.1-0.1l0.1-0.1h0.3l0.3-0.1l0.4,0l0.1-0.1l0.1,0l0.1,0l0.5-0.1
		l0.3-0.1l0.3-0.1l0.1-0.1h0.2l0.1,0.1L-406.9,283.9L-406.9,283.9z M-407.9,287.3h-0.2h-0.2l-0.2,0.1l-0.2,0.1v-0.1l0-0.1l0.2-0.1
		h0.1l0.2-0.1h0.3l0.1,0h0.1l0.1,0.2L-407.9,287.3L-407.9,287.3z M-410.4,286.2h-0.1H-410.4l0-0.2h0.1v0.1l0,0H-410.4L-410.4,286.2z
		 M-410.7,286.3l-0.1,0.1v-0.2L-410.7,286.3L-410.7,286.3l0.1-0.1L-410.7,286.3L-410.7,286.3z M-411.4,283.6l0.1-0.3h0.2l0.3-0.1
		h0.1l0.2,0h0.2l0.1-0.1l0.3-0.1h0.2h0.2v0.1l-0.3,0.1h-0.3l-0.3,0.1l0,0h-0.3l-0.2,0l-0.1,0l-0.1,0.1L-411.4,283.6L-411.4,283.6z
		 M-411.8,281.1l-0.2,0.1h-0.1l-0.3,0l-0.3,0l-0.1,0l0,0.1l0,0.1h-0.2l0,0l0.2-0.3l0.3,0l0.3-0.1l0.2,0l0.2-0.1l0.3-0.1l0.6,0
		l0.3-0.2l0.2-0.1h0.1l0.2,0h0.1v0l-0.1,0.2l-0.2,0.1l-0.1,0.1l-0.2,0l-0.3,0l-0.4,0L-411.8,281.1L-411.8,281.1z M-412.1,280
		L-412.1,280l0.2-0.1l0.3-0.3l-0.1,0.3L-412.1,280l-0.1,0h-0.2L-412.1,280L-412.1,280z M-413.8,287l-0.4,0l-0.1,0.1l-0.1,0h-0.3
		l-0.1,0.1l-0.2,0.1h-0.2l-0.2,0.1l-0.3,0l-0.3,0.1l-0.1,0h-0.1l-0.3,0.2l-0.3,0.1h-0.4l-0.1,0.2l-0.1,0l-0.2,0l-0.1-0.1l0.1-0.1
		l0.2-0.1h0.2l0.2-0.1l0.1,0l0.1-0.1l0.8-0.1l0.2-0.1l0.2-0.1l0.3-0.1l0.3,0l0.3-0.1l0.2-0.1h0.2l0.1,0l0.1-0.1l0-0.1h0.1h0.2V287
		L-413.8,287L-413.8,287z M-417.3,287.2l0.1,0l0.4-0.2l0.1-0.1l0.1-0.1h0.2l0.4-0.1l0.1,0v0l-0.1,0l-0.1,0l-0.2,0.1l-0.1,0h-0.2
		l-0.1,0.1L-417.3,287.2v0.2l-0.3,0l0,0L-417.3,287.2L-417.3,287.2z M-416.5,280.8h0.2l0.1,0l0.1-0.1l0.2-0.1l0.2-0.1h0l0,0
		l-0.1,0.3l-0.2,0h0L-416.5,280.8L-416.5,280.8L-416.5,280.8z M-422.8,282.9l-0.2,0.1l-0.2,0l-0.4,0.1h-0.2l-0.2,0.1l-0.6,0.2
		l-0.6,0.2l-0.9,0.3l-0.4,0.1l-0.4,0.3l-0.5,0.1l-0.3,0.2l-0.3,0h0v0l0.4-0.3l0.4-0.2l0.4-0.1l0.4-0.2l0.8-0.3l1.2-0.4l0.9-0.2
		l0.5-0.2l0.1-0.2l0.1,0l0.1,0l0,0.2L-422.8,282.9L-422.8,282.9z M-439.3,289.1l-0.8,0.3l-0.8,0.4l-0.3,0.1l-0.2,0.1l-0.2,0.1
		l-0.3,0.1l-0.7,0.2l-0.3,0.1l-0.3,0.2v-0.1l0.4-0.3l0.5-0.1l0.4-0.2l0.3-0.1l0.3-0.1l0.9-0.5l0.9-0.3L-439.3,289.1L-439.3,289.1
		L-439.3,289.1z M-405.7,284.8L-405.7,284.8l0.3-0.2l0.1,0l0-0.1l0.2-0.1l0.1,0l0.1-0.2l-0.2-0.2l-0.2-0.2l-0.2-0.1l-0.3,0l0.2,0
		l0.1-0.1l0.1-0.1l0.1-0.1l0.1-0.1v-0.1l0.1,0h0.1v-0.2h-0.3h-0.1l-0.1,0l0.1-0.3l0-0.1h-0.2v0h-0.5l-0.2,0l-0.1,0.1l0,0.2l-0.3-0.3
		l0.3-0.1l0.3-0.3l0.6-0.1l-0.9,0l-0.1,0.1l-0.1,0l-0.3,0.2l-0.1,0l-0.3,0.1l-0.4,0.1l-0.1,0l-0.1,0.1l-0.2,0.1l-0.2,0h-0.2h-0.4
		v-0.2v-0.1l0,0h0.5l0.9-0.1l0.2-0.1v-0.2V282l0.1,0l0.4-0.1l0.5-0.2l0.8-0.2l0-0.3l-0.3-0.1h-0.2h-0.4l-0.1,0l0,0l-0.2-0.1l0,0
		l-0.1,0l0,0.1l0,0.1v0.1v0.1l-0.1,0l-0.2-0.2l-0.2,0l-0.2,0l-0.1,0.2l-0.5,0.1l-0.1,0v-0.1l0.1-0.3l0-0.1l0.1,0h0.4l0.7-0.3
		l0.3-0.1l0.2-0.1l0.3,0.1l0.3-0.1l0.1-0.2h-0.4l0.1,0h0.3l0.4-0.1v0l-0.8-0.2v-0.2l-0.1,0l-0.4,0l-0.3,0.1l-0.4,0.1l-0.2,0l0-0.1
		l0-0.1l0.2-0.1l0.3-0.2v-0.2l0.1-0.2l0.2,0l0-0.1l0,0l-0.3,0.1V279l0.1-0.3l0-0.2v0l-0.1,0.1l-0.4,0.1l-0.5,0l-0.3,0.2l-0.2,0.1
		l-0.4,0.1l-0.2,0l-0.1,0l0-0.1l-0.1-0.1l-0.1-0.1l0-0.1l0.2,0l0.9-0.2l0.9-0.3l0.4-0.1l0-0.3v-0.1h-0.2l-1,0.1l-0.1,0l-0.9,0.2
		l-0.4,0l-0.3,0.1l-0.7,0.3l-0.3,0.1l-1.1,0.2l-0.2,0l-0.4,0.1l-0.5,0.1l-0.9,0.4l-0.9,0.3l-0.6,0.2l-0.5,0.3l-0.3,0.1l-0.5,0.1
		l-0.8,0.3l-0.6,0l-0.6,0.1l-1.1,0.3l-0.3,0.2l-0.3,0.1l-0.6,0.1l-0.3,0l-0.2,0.1l-0.3,0.1l-0.3,0.1l-0.7,0.2l-0.6,0.2l-0.2,0.1
		l-0.1,0l-0.3,0.2l-0.8,0.2l-0.1,0.1l-0.3,0.1l-0.3,0l0.4-0.4h-0.1l-0.3,0.2l-0.2,0.1l0,0.1l0,0h0l-0.6,0.2l-0.6,0.3l-0.6,0.3
		l-0.5,0.1l-0.3,0.1l-0.3,0.2l-0.4,0.1l-0.3,0.1v-0.1l0.2-0.1l1.4-0.6h-0.3l-1.2,0.5l-0.4,0.1l-0.2,0l-0.1,0.1l-0.3,0.1l-0.4,0v0.1
		v0.1l0.2-0.1l0.2-0.1l0.3,0.2l-0.6,0.2l-0.3,0.1l-0.4,0l-0.7,0.2l-0.6,0.2l-0.3,0.1l-0.3,0.2l-0.6,0.3l-0.4,0.1l-0.5,0.1l-0.1,0.1
		l-0.1,0l-0.3,0l-0.4,0h-0.3l-0.1,0.1l-0.2,0.1l-0.2,0l-0.4,0.1l-0.4,0.2l-0.7,0.5l-0.5,0.1l-0.6,0.2h-0.4l-0.3,0.1l-0.3,0.1h0.1
		l0.3,0l0.1,0l0,0l0,0v0l-0.2,0.1l-0.3,0.2l-0.5,0.2l-0.5,0.2l-0.5,0.3l-0.4,0.1l-0.4,0.3l-0.5,0.2l-0.6,0.2l-0.9,0.3l-1,0.4
		l-0.3,0.1l-0.3,0l-0.3,0.2l-0.3,0.1l-0.5,0.3l-0.5,0.2l-0.3,0.1l-0.3,0.2l-0.3,0.1l-0.5,0.3l-0.5,0.2h0.4h0.2v0l-0.2,0.2l-0.3,0.2
		l-0.8,0.4l-0.3,0.2l-0.5,0.2l-0.4,0.3l-0.2,0.1l-0.2,0.1l-0.1,0.1l-0.3,0.1l-0.6,0.4l-0.7,0.4l-0.1,0.2l-0.2,0l-0.1,0l-0.1,0.1
		l0,0.1l-0.1,0.1l-0.1,0l0,0.1l0.3,0l0.1,0l0.1,0v0l-0.2,0l0,0.2l0,0.1v0.1l0.1,0l0.1,0.3h0.1l-0.1,0h0v0v0.2l0,0.1l0.1,0.1l0.2,0v0
		l0,0.4l0,0.3l0,0l0.3,0.3l0.1,0.1l0.1,0.3l0.1,0.4l0.1,0.3l0.1,0.3v0.2l0.1,0.2l0.1,0.1l0.2,0.3l-0.1,0.3v0.2l0.1,0.2l0.1,0.6
		l0.3,0.2l0.1,0.2l0.1,0.3l0.2,0.3v0.5l0.1,0.5l0.3,0.2l0.1,0.2l0,0.3l0.3,0.3l0.1,0h0.1l0.2,0l0.1-0.2l0.3,0l0.7-0.5l0.3-0.1
		l0.3-0.2l0-0.1l0.1-0.2l0.3,0l0.3,0l0.6-0.3l0.3-0.1l0.3,0l0.4-0.3l0.4-0.1l0.3-0.2l0.2,0l0.2-0.2l0.3-0.1l0.3-0.1l0.3-0.1v-0.1
		l0.2,0l0.6-0.4l0.7-0.4l0.5-0.1l0.6-0.3l0.6-0.3l0.5-0.1l0.6-0.4l0.7-0.3l0.8-0.3l0.8-0.3l0.1-0.1l0.1,0h0.1l0.1-0.1l0.2-0.1l0.3,0
		l0.3-0.1l0.3-0.2l0.3-0.1l0.3,0l0.3-0.1l0.3-0.1l0.4-0.1l0.2-0.1l0.2-0.1l0.3-0.2l-0.3,0.1l-0.3,0.3v-0.3l0.5-0.2l0.3-0.1l0.4,0
		h0.1v0h0.3l0,0l0.4-0.1l0.4-0.2l-0.1-0.1l0.2-0.2l0.2-0.1l0.4,0l-0.4,0.3h0h0.2l0.1-0.2l0.2-0.1l0.2-0.1l0.1-0.1l0.5-0.2l0.5-0.1
		l1-0.3l0.5-0.1l0.5-0.2l0.9-0.4l0.5-0.1l0.5-0.1l0.4-0.2l0.4-0.1l1-0.3l0.5-0.2l4.2-1.6l1.4-0.6l1.4-0.5l0.4-0.1l0.9-0.3l1.4-0.4
		l0.6-0.3l0.5-0.2l0.7-0.1l0.3-0.1l0.2-0.1l0.3-0.2l0.4-0.1h0.1l0.3,0l0.5-0.1l0.5-0.2l0.5-0.2l0.9-0.3l0.3-0.1l0.5,0l0.6,0l0.2-0.1
		l0.1-0.1h0.3l0.1-0.3l0.2-0.1l0.2-0.1v-0.2l-0.2,0l-0.1-0.1l0-0.2h0.1l0.2-0.1l-0.1-0.1l0-0.2l0.2-0.3l0.4-0.1l0.4-0.2l0.1-0.1
		l-0.1,0l0-0.1h-0.3l-0.1,0.1l-0.4,0l-0.1,0l0.1-0.1V285l-0.1,0l0,0L-405.7,284.8L-405.7,284.8L-405.7,284.8z"/>
	<polygon class="st5" points="-406.6,279.5 -406.8,279.5 -407,279.5 -407,279.4 -406.8,279.3 -406.6,279.2 -406.6,279.1 
		-406.5,279.1 -406.2,279.1 -406.5,279.4 -406.6,279.5 -406.6,279.5 -406.6,279.5 	"/>
	<polygon class="st5" points="-406.6,287.7 -406.8,287.7 -407,287.9 -407,288 -407,288 -406.9,288 -406.9,288 -406.7,287.9 
		-406.6,287.9 -406.4,287.7 -406.4,287.7 -406.5,287.7 -406.6,287.7 -406.6,287.7 -406.6,287.7 	"/>
	<polygon class="st5" points="-409.4,288.4 -409.9,288.5 -409.9,288.6 -409.7,288.7 -409.6,288.7 -409.5,288.6 -409.4,288.5 
		-409.1,288.4 -409,288.3 -409,288.3 -409,288.3 -409.1,288.3 -409.4,288.4 -409.4,288.4 -409.4,288.4 	"/>
	<polygon class="st5" points="-423.5,282.4 -423.5,282.4 -422.9,282.2 -422.4,282 -423,282.2 -423.5,282.4 -423.5,282.4 
		-423.5,282.4 	"/>
	<polygon class="st5" points="-423.5,282.4 -423.5,282.4 -423.7,282.4 -424.4,282.5 -424.6,282.8 -424.1,282.6 -423.5,282.4 
		-423.5,282.4 -423.5,282.4 -423.5,282.4 	"/>
	<polyline class="st4" points="-410.5,286.1 -410.5,286.2 -410.4,286.2 -410.2,286.2 -410.3,286.2 -410.3,286 -410.4,286 
		-410.5,286.1 	"/>
	<polyline class="st4" points="-409.4,284.5 -409.1,284.5 -408.8,284.4 -408.4,284.3 -408.3,284.2 -408.2,284.2 -408.1,284.1 
		-408.1,284.1 -407.6,284.1 -407.4,283.9 -407.1,283.8 -407,283.8 -406.8,283.8 -406.7,283.8 -406.9,283.9 -407.1,284.1 
		-407.4,284.1 -407.6,284.1 -408.1,284.3 -408.1,284.3 -408.7,284.5 -409.1,284.7 -409.4,284.7 -409.5,284.7 -409.9,284.7 
		-410.2,284.9 -410.5,285 -410.5,285 -410.7,285.1 -410.7,285.1 -411,285.3 -410.9,285.2 -410.9,285.1 -410.7,285 -410.5,285 
		-410.4,284.9 -410.3,284.7 -409.9,284.7 -409.6,284.7 -409.5,284.6 -409.4,284.5 	"/>
	<polyline class="st4" points="-410.8,283.3 -410.7,283.3 -410.5,283.2 -410.5,283.2 -410.3,283.2 -410.2,283.2 -409.9,283 
		-409.7,283 -409.5,283 -409.5,283.2 -409.9,283.2 -410.2,283.2 -410.4,283.3 -410.5,283.4 -410.7,283.4 -410.7,283.4 -410.9,283.4 
		-411,283.5 -411.1,283.6 -411.4,283.6 -411.3,283.4 -411.1,283.4 -410.8,283.3 	"/>
	<polyline class="st4" points="-416.1,280.7 -415.9,280.5 -415.7,280.5 -415.7,280.5 -415.7,280.5 -415.9,280.8 -416.1,280.8 	"/>
	<polyline class="st4" points="-416.1,280.8 -416.1,280.8 -416.5,280.8 -416.5,280.8 -416.3,280.8 -416.2,280.8 -416.1,280.7 	"/>
	<polyline class="st4" points="-441.2,289.9 -441.4,290 -441.6,290.1 -441.9,290.2 -442.6,290.4 -442.9,290.5 -443.2,290.7 
		-443.2,290.6 -442.8,290.3 -442.3,290.2 -441.9,290 -441.6,289.9 -441.3,289.8 -440.4,289.3 -439.6,289 -439.3,289 -439.3,289.1 
		-440.1,289.4 -440.9,289.8 -441.2,289.9 -441.3,289.9 	"/>
	<path class="st3" d="M-437.9,269.6l-0.2,0.3h-1.5l-0.7,0.3l-0.3,0.2l-0.2,0.3l0,0.3v0l0.1,0.2l0.2,0.2l0.3,0.2v0.2l-0.2,0.1l-0.1,0
		l-0.3,0l-0.2,0l-0.4-0.2l-0.4-0.1l-0.2,0l-0.2,0.1h-0.2l0-0.3l0.1-0.3l0.2-0.2l0.2-0.2l0.2,0l0.3,0l0.3-0.2l0.1-0.1l0,0l0-0.2
		l0-0.3l0.6-0.7l0.3-0.3l0.3-0.2l0.2,0.2l0.2,0.2l0.2,0.2l0.3,0.3L-437.9,269.6L-437.9,269.6L-437.9,269.6L-437.9,269.6z
		 M-440.9,275.1l-0.3,0.4l-1,1.4l-0.4,0.6l-0.3,0.4l-0.2,0.2l-0.2,0l0-0.2l0.2-0.9l0.1-0.3l0.1-0.1l0,0l0.4-0.5l0.2-0.4l0.3-0.3
		l0.6-0.6l0.2,0.2l0.2-0.1h0.1l0.1-0.1L-440.9,275.1L-440.9,275.1z M-443.3,275.6L-443.3,275.6l0.2-0.2l0-0.2l0.1-0.4l0.2,0l0.4-0.1
		l0.2-0.2l0.1-0.2l-0.1-0.2l-0.2-0.2l-0.3-0.3l0-0.8h0.7l0.3,0.1l0.1,0.1l0.1,0.2v0.1l0,0l-0.1,0l0,0.1l-0.1,0l-0.1,0.1l0,0.3l0,0.4
		l0.1,0.1l0.2,0.1l-0.6,0.6l-0.6,0.6h0l-0.1,0.1l0,0l0-0.1l-0.1-0.1l0-0.1L-443.3,275.6L-443.3,275.6z M-443.4,271.9l0-0.2l-0.1-0.1
		l-0.1-0.1l0,0v-0.1h0l0.2,0l0-0.1l0.1-0.1h0l0.2-0.2l0.1,0l0,0l0.1,0.1v0.1l-0.1,0.2v0.2v0.2h0l0,0.3l0,0.1l-0.1,0h-0.2
		L-443.4,271.9L-443.4,271.9z M-443.6,273.2L-443.6,273.2l-0.1,0.1h0l-0.4-0.1l-0.3-0.1l-0.2-0.2v-0.3l-0.2-0.2l-0.2-0.1h0h-0.2
		l-0.1,0l-0.5,0h-0.2l-0.3-0.1l0.1-0.2l0.1-0.1h0.9h0.2h0.4l0.3-0.1l0.3-0.1l0.1,0l0.1,0.1l0.1,0.4h-0.4l-0.2,0v0.2l0.1,0.2l0.1,0.1
		l0.3,0h0.2l0,0.2l0,0.2V273.2L-443.6,273.2z M-444.5,278l-0.6-0.9l-0.1-0.3l-0.1-0.1l-0.3-0.4l-0.4-0.5h0.2h0.6h0.2l0,0l0.3,0.3
		l0.1,0.2l0.1,0.3V278L-444.5,278z M-446.6,267.1l-0.2-0.2l-0.2-0.1h-1l-0.1,0v-0.4h0.1h0l1.2,0.2l0.1,0l0.4,0l0.4,0l0.2,0.3
		l0.1,0.1l0.2,0.1l0.1,0.3l0,0.1l0.1,0.3l0,0.1v0.1l0,0l-0.2-0.1l-0.3-0.2l-0.3-0.1l-0.2-0.2L-446.6,267.1L-446.6,267.1
		L-446.6,267.1z M-447.1,272.2l-0.4,0.1l-0.3,0.1l-0.2,0l-0.2,0.1l-0.3,0.2l-0.2-0.3l-0.2-0.1l0-0.2l0-0.1l0.3,0l0.5,0h0.1h0.5
		l0.3,0l0.1,0.1V272.2L-447.1,272.2L-447.1,272.2z M-449.3,267.9l-0.1,0h-0.1l-0.2,0l-0.7-0.6l0.3-0.1l0.7-0.4l0.1-0.1l0.1-0.1
		l0.2-0.1l0.4,0l0,0.1l0.1,0.3v0.4l-0.3,0.3L-449.3,267.9L-449.3,267.9z M-446.4,261.8l0.1-0.2l0.1-0.3l0.1-0.3l0.6,0.1h0.2h0
		l0.2-0.1h0l0.2-0.1l0.1-0.1l0.2-0.2l0,0.1l0,0.1l0.1,0v0.1v0.3l0.1,0.3l0.2,0.2l0.2,0.1l0.1,0.2l0.1,0.1l0.2,0.2v0.1v0.1l-0.2,0h0
		l-0.1,0.1l0-0.1l-0.1,0l-0.1,0l0,0l-0.5-0.3l-0.5-0.2l-0.1,0h-0.1l-0.4-0.1l-0.5,0h-0.4L-446.4,261.8L-446.4,261.8z M-442.3,267.8
		L-442.3,267.8v0.3h-0.6h-0.4l0,0h-0.3l-0.5,0l-0.2,0.1h-0.1l-0.1,0l0-0.1l0.1-0.3l0.3-0.2l0.3,0l0.2,0.1l0.2,0h0.1h0.5
		L-442.3,267.8L-442.3,267.8L-442.3,267.8z M-442.1,264.1L-442.1,264.1l-0.1,0.3l-0.7,0h-0.5l-0.3,0l-0.1,0l-0.1,0l-0.2,0.2
		l-0.3,0.4l-0.1,0.2v0.3l0.1,0.2l0.1,0.2l0.2,0l0.2,0l0.1,0.1h0l0.1,0.1l0,0.2l0,0.2l0,0.1l-0.1,0.1h0l-0.1,0h-0.2l-0.5,0.1l0,0.1
		l0,0.3l0,0.2l0,0.1l-0.2,0.1l-0.3-0.1l0-0.1l-0.1-0.3l-0.1-0.1v0l0-0.2l0-0.5l0.1,0v-1.2l-0.1-0.2l-0.1-0.3l0-0.1l0.1,0l0-0.1
		l0.1-0.1l0.1,0l0.2-0.1l1.1,0l0.1,0v-1.1l0-0.1l0,0l0.2-0.2l0.1-0.1l0.1,0l0.1-0.1l0.1,0l0,0.1l0,0.2l0.1,0.3l0,0.1l0.1,0.1
		l0.2,0.1l0.2,0.1l0.1,0.1l0.1,0.1l0,0V264.1L-442.1,264.1L-442.1,264.1z M-444.3,260.4L-444.3,260.4l0.1-0.1l0.1-0.3l0.2-0.2l0.2,0
		l0,0h0.3h0.5l0.4,0l1-0.2v0.3l-0.3,0.2l-0.2,0.1l-0.2,0l-0.6,0l-0.1,0l-0.5,0l-0.3,0l-0.3,0.1l-0.2,0.2l-0.1-0.1V260.4
		L-444.3,260.4z M-441,263.9h0.1h0.8h0.2l0.1,0l0,0.1l-0.4,0.6h-0.1l-0.3-0.1h-0.1h-0.2h-0.4l-0.3-0.1v0v0V264L-441,263.9
		L-441,263.9z M-439.8,268.3l-0.1,0.1l-0.3,0l-0.2,0.3l-0.3,0.2l-0.3,0.3l-0.3,0.2l-0.3-0.1l-0.2-0.1l-0.3,0l-0.1,0V269v-0.1l0.1,0
		l0.3-0.1l0.1-0.1l0-0.1l0-0.1l0-0.3l-0.5-0.1l0-0.2l0.1-0.1l0.4,0l0.6,0.1h0.1l0.2,0l0.3,0.1L-439.8,268.3L-439.8,268.3z
		 M-432.3,266l-0.4-0.3l-0.3-0.3l0-0.2l-0.1-0.2l-0.3-0.3l-0.4-0.4l-0.6-0.1l-0.5,0l-0.5,0.1l-0.5,0.2l-0.4,0.1l-0.4,0.3l-1,0
		l-0.4,0l-0.4-0.3l-0.4-0.2l-0.4-0.1l-0.4,0h-0.1l0.2-0.2l0.1-0.1l0.2-0.1l0.3,0l0.3,0l0.2,0.1l0.2,0.3l0.3,0.3l0.3,0.1h1l0.3-0.1
		l0.3-0.1l0.3-0.2l0.3-0.1l0.5-0.5l0.5-0.3l0.3-0.2l0.4-0.2v-0.4v-0.1l-0.2-0.1l-0.2-0.1l0-0.3l0-0.3l0.1-0.3l0-0.2l-0.1-0.2
		l-0.3-0.5l-0.4-0.4l-0.5-0.3l-0.6-0.1l-0.9,0l-0.4,0.1h-0.9l-0.2,0h0h-0.2l-0.2-0.1l-0.3-0.2l-0.9-0.2l-0.4,0l-0.4,0h-0.1l0-0.3
		l0-0.1l0-0.1l0-0.1l-0.1-0.2l-0.4-0.3l-0.9-0.5l-0.5-0.1h0l-0.4-0.2h0l-0.3,0l-0.3,0h-0.8l-0.3,0.2l-0.2,0.1l-0.4,0.2l-0.5,0.3
		l-0.4,0.4l-0.1,0l-0.6,0.3l-0.7,0.3h-0.1l-0.4,0l-0.2,0.1l0.1,0.2l0.3,0.1l0.3,0l0.5,0l0.1,0.2l0.1,0.1l0.3,0.2l0.3,0.3l0.1,0.2
		l0.2,0.2l-0.2,0.6l0,0.1v0.2l-0.3-0.4l-0.2-0.5l-0.3-0.4l-0.5-0.2h-0.1l-0.5-0.1l-0.4,0.1l-0.3,0.2l-0.2,0.1l-0.1,0.2l0,0.3v0.3
		v0.3l0,0.2l-0.2,0.2l-0.3,0.2l-0.6,0.3l-0.6,0.3l-0.4,0.3l-0.4,0.4l-0.3,0.4l-0.2,0.4l0,0.4l0.1,0.4l0.3,0.4l0.6,0.3l-0.1,0.6
		l0,0.3l0,0.2l0.2,0.2l0.3,0h0.5l0.6,0.6v0.1l0,0h-0.1l-1.2,0l-0.7,0.2l-0.6,0.3l-0.4,0.4l-0.1,0.2l-0.1,0.3v0.4l0,0.4l0.1,0.3
		l0.4,0.4l0.4,0.1l0.4,0.2l0.7,0.7l0.3,0.3l0.3,0.1h1.1l0.2,0.1h0l0.1,0.1l0.3,0.4h0.1l-0.1,0.2l-0.2,0.3l0,0.4l0.2,0.4l0.5,0.4
		l0.3,0.2l0.3,0.1l0.1,0l0.9,0.4h0.2l0.2,0.3l0.4,0.6l0.6,1l0.3,0.6l0.2,0.3l0.1,0.1l0.3,0.5l0.2,0.6l0,2.3l-0.1,2.4l-0.1,2.2
		l-0.2,2.1l-0.1,2.6l0,1.2v0.9l0,0.5l-0.2,1.8l-0.3,1.7l-0.2,0.6l-0.2,0.6l-0.3,0.5l-0.3,0.3l-0.1,0.2l0,0l0,0l-0.3,0.2l-0.5,0.3
		l-0.6,0.3l-0.5,0.3l-0.5,0.3l0.5,0h0.5h1.4h0h1.3h0.2h0h1.4h0.3h0h0.4h2h0.7v0l-0.6-0.4l-0.1-0.1l-0.4-0.3l-0.8-0.6l-0.3-0.3
		l-0.3-0.4l-0.2-0.3l-0.2-0.4l-0.2-0.6l0-0.2v-0.3v0v0v-0.6l0.1-8.1l0-4l-0.1-4v-0.3l0.2-0.1l0.3-0.3l0.3-0.5l0.3-0.8l0.3-0.5
		l0.3-0.5l0.6-0.9l0.2-0.3l0.3-0.6l0.4-0.7l0.4-0.1l0.5,0l1.5-0.5l0.5-0.2l0.3-0.2l0.2-0.3l0.2-0.3l0-0.4l0-0.4l-0.3-0.3l-0.1-0.3
		l-0.1-0.3v-0.3l0.1-0.2l0.1-0.1l0.5,0l0.8,0l0.6-0.1l0.4-0.1l0.1-0.1l0-0.1l-0.1-0.2l-0.3-0.1l-1.2-0.2l-0.7-0.1l-0.7,0h-0.1
		l-0.1-0.1l0.1-0.2l0.1-0.2l0.5,0l0.5-0.1l0.6-0.3l0.6-0.2l0.7,0l0.7-0.2l0.2-0.1l0-0.1l0.5-0.8l0.2-0.4l0.2-0.3l0.5-0.5l0-0.3
		L-432.3,266L-432.3,266L-432.3,266z"/>
	<path class="st3" d="M-430.8,291.7l-0.4,1.1c-0.4-0.3-1-0.4-1.9-0.4c-0.8,0-1.4,0.3-1.9,1c-0.5,0.7-0.7,1.6-0.7,2.6
		c0,1,0.2,1.9,0.7,2.5c0.5,0.6,1.1,1,1.9,1c0.8,0,1.5-0.3,2-0.9l0.7,0.9c-0.7,0.7-1.6,1.1-2.8,1.1c-1.2,0-2.1-0.4-2.8-1.3
		c-0.7-0.9-1-2-1-3.4c0-1.4,0.4-2.5,1.1-3.4c0.7-0.9,1.7-1.3,2.8-1.3C-432.1,291.2-431.3,291.4-430.8,291.7L-430.8,291.7z"/>
	<polygon class="st3" points="-428.8,300.4 -428.8,291.3 -427.5,291.3 -427.5,300.4 -428.8,300.4 	"/>
	<polygon class="st3" points="-424.2,292.5 -424.2,295 -421.1,295 -421.1,296 -424.2,296 -424.2,300.4 -425.5,300.4 -425.5,291.3 
		-419.9,291.3 -419.9,292.5 -424.2,292.5 	"/>
	<path class="st3" d="M-418,295.8c0,1,0.2,1.9,0.6,2.6c0.4,0.7,1,1,1.7,1c0.8,0,1.5-0.3,1.9-1s0.7-1.5,0.7-2.7
		c0-2.3-0.9-3.5-2.6-3.5c-0.8,0-1.3,0.3-1.7,0.9C-417.8,293.9-418,294.7-418,295.8L-418,295.8z M-419.3,295.8c0-1.3,0.3-2.4,1-3.3
		c0.7-0.9,1.5-1.3,2.7-1.3c1.3,0,2.2,0.4,2.9,1.2c0.7,0.8,1,1.9,1,3.4c0,1.5-0.3,2.7-1,3.5c-0.7,0.8-1.6,1.3-2.9,1.3
		c-1.1,0-2-0.4-2.7-1.3C-418.9,298.3-419.3,297.2-419.3,295.8L-419.3,295.8z"/>
	<path class="st3" d="M-409,292.5v2.9c0.3,0,0.6,0.1,0.9,0.1c0.7,0,1.3-0.1,1.6-0.4c0.3-0.2,0.5-0.7,0.5-1.3c0-0.5-0.2-0.9-0.5-1.1
		c-0.4-0.2-0.9-0.3-1.7-0.3C-408.4,292.4-408.7,292.4-409,292.5L-409,292.5z M-405.3,300.4l-2.4-3.9c-0.3,0-0.7,0-1.3-0.1v3.9h-1.2
		v-9.1c0,0,0.4,0,1,0c0.6,0,1,0,1.3,0c2.2,0,3.3,0.9,3.3,2.6c0,0.6-0.2,1.1-0.5,1.5c-0.3,0.5-0.8,0.7-1.2,0.8l2.6,4.2H-405.3
		L-405.3,300.4z"/>
</g>
</svg>
