<svg width="60" height="60" xmlns="http://www.w3.org/2000/svg">
 <g>
  <title>Layer 1</title>
  <g id="svg_82">
   <path id="svg_83" fill="#ffffff" d="m46.043999,17.922001l2.337002,-5.707c0.146,-0.358 -0.025002,-0.769 -0.384003,-0.915c-0.358997,-0.148 -0.768997,0.024 -0.916,0.382999l-2.335999,5.704c0.222,0.075001 0.443001,0.146 0.661999,0.235001c0.220001,0.090998 0.426003,0.197998 0.637001,0.299999z"/>
   <path id="svg_84" fill="#ffffff" d="m37.700001,17.407l-2.377998,-5.676001c-0.149002,-0.357 -0.562,-0.525 -0.919003,-0.376c-0.357998,0.150001 -0.524998,0.561001 -0.375999,0.918l2.375,5.672001c0.418999,-0.206999 0.853001,-0.386 1.298,-0.538z"/>
   <path id="svg_85" fill="#ffffff" d="m36.487,37.550999l-2.335999,5.706001c-0.146999,0.357998 0.023998,0.767998 0.383999,0.915001c0.087002,0.035 0.177002,0.051998 0.265999,0.051998c0.276001,0 0.538002,-0.164001 0.649002,-0.437l2.336998,-5.703999c-0.222,-0.074001 -0.444,-0.145 -0.661999,-0.234001c-0.219002,-0.09 -0.426998,-0.195999 -0.638,-0.298z"/>
   <path id="svg_86" fill="#ffffff" d="m44.831001,38.063999l2.377998,5.676998c0.112,0.269001 0.373001,0.432003 0.648003,0.432003c0.09,0 0.181999,-0.019001 0.271,-0.056c0.356998,-0.149002 0.525997,-0.561001 0.375999,-0.918003l-2.375999,-5.673c-0.418003,0.207005 -0.853001,0.386002 -1.297001,0.538002z"/>
   <path id="svg_87" fill="#ffffff" d="m57.318001,33.550999l-5.707001,-2.336c-0.073997,0.221001 -0.142998,0.443001 -0.232998,0.662001c-0.089001,0.219002 -0.188,0.43 -0.289001,0.639999l5.696999,2.334c0.087002,0.035 0.177002,0.052002 0.266003,0.052002c0.276001,0 0.537998,-0.163002 0.649998,-0.436001c0.146999,-0.360001 -0.024998,-0.768997 -0.383999,-0.916z"/>
   <path id="svg_88" fill="#ffffff" d="m51.581001,24.176001l5.689999,-2.382999c0.357002,-0.15 0.525002,-0.562 0.375999,-0.919001c-0.148998,-0.357 -0.560997,-0.527 -0.918999,-0.376999l-5.688999,2.383999c0.206997,0.42 0.389999,0.851999 0.542,1.295z"/>
   <path id="svg_89" fill="#ffffff" d="m49.646,31.167999c0.591999,-1.446001 0.783001,-2.958 0.625,-4.409c-0.063999,-0.580999 -0.182999,-1.152 -0.355,-1.705999c-0.43,-1.385 -1.188999,-2.66 -2.227001,-3.704c-0.827999,-0.834 -1.834,-1.521 -2.990997,-1.995001c-1.124001,-0.459999 -2.285004,-0.677999 -3.429001,-0.677999c-2.326,0 -4.562,0.915001 -6.242001,2.514c0.339001,0.315001 0.66,0.653 0.959,1.016001c1.393002,-1.335001 3.263,-2.125999 5.283001,-2.125999c0.993,0 1.967999,0.191999 2.896,0.573c3.903999,1.598999 5.779999,6.077 4.181,9.980999c-1.183002,2.887001 -3.963001,4.753002 -7.084999,4.753002c-0.992001,0 -1.967003,-0.192001 -2.896,-0.573002c-0.258003,-0.104 -0.506001,-0.224998 -0.745003,-0.354c-0.035,0.084999 -0.059998,0.177002 -0.097,0.261002c-0.16,0.355999 -0.386997,0.665001 -0.655998,0.923c0.309998,0.172001 0.630001,0.333 0.966,0.469997c1.123001,0.461002 2.285,0.679001 3.428001,0.679001c3.569,0.000999 6.949997,-2.120998 8.384998,-5.625z"/>
   <path id="svg_90" fill="#ffffff" d="m21.99,39.720001l-4.662001,3.105l4.596001,5.667c0.138,0.172001 0.341,0.260002 0.544001,0.260002c0.156,0 0.313,-0.051003 0.441999,-0.156002c0.301001,-0.243999 0.348,-0.687 0.103001,-0.987l-3.624001,-4.471001l4.684,-3.118999l-3.016001,-3.591999h-1.832998l2.765999,3.292999z"/>
   <path id="svg_91" fill="#ffffff" d="m34.970001,35.257c0.638,0 1.206997,-0.388 1.487,-1.012001c0.744999,-1.666 1.062,-3.546 0.915001,-5.438c-0.345001,-4.427999 -3.226002,-8.033998 -7.003002,-8.771c-0.84,-0.164 -1.695,-0.178999 -2.539999,-0.046999c-2.089001,-3.562 -5.504,-5.673 -9.227001,-5.673c-4.893999,0 -9.209,3.719 -10.665999,9.114c-3.052,0.114 -5.691,3.013 -5.691,6.308001c0,1.865999 1.037,3.805998 2.773,5.189001l0.826,0.327999h29.126001l0,0.001999zm-28.890001,-1.403999l-0.278,-0.096001c-1.057,-0.875999 -2.152,-2.367001 -2.152,-4.018c0,-2.808001 2.361,-4.907 4.472,-4.907c0.087,0 0.173,0.007999 0.268001,0.017c0.813,0.139 1.394,0.518 1.398,0.518999c0.096,0.065001 0.203,0.097 0.312,0.108999c0.026999,0.003 0.054,0.012001 0.080999,0.012001c0.225,0 0.446,-0.108 0.582001,-0.309c0.217999,-0.321001 0.132999,-0.757 -0.188001,-0.975c-0.007999,-0.004999 -0.061999,-0.039999 -0.146,-0.09c-0.196,-0.114 -0.577,-0.313 -1.083,-0.475c1.33,-4.695 5.052,-7.919 9.259,-7.919c3.108,0 5.971001,1.748 7.817001,4.69c-0.305,0.141001 -0.654001,0.341002 -1.001001,0.602001c-0.223999,0.168999 -0.446999,0.359999 -0.650999,0.59c-0.258001,0.289999 -0.232,0.733999 0.059,0.990999c0.132999,0.118999 0.299999,0.177 0.465,0.177c0.194,0 0.386999,-0.08 0.525999,-0.236c0.097,-0.110001 0.202,-0.208 0.309,-0.298c0.665001,-0.559999 1.438,-0.764 1.491001,-0.777l0.007,-0.000999c0.817999,-0.188999 1.654999,-0.205 2.476999,-0.043999c3.111,0.605 5.581001,3.759998 5.873001,7.5c0.128998,1.658998 -0.146999,3.304001 -0.798,4.754997c-0.048,0.108002 -0.131001,0.182003 -0.205002,0.182003h-28.893999l0,0.000999z"/>
  </g>
 </g>
</svg>