<svg width="60" height="60" xmlns="http://www.w3.org/2000/svg">
 <g>
  <title>Layer 1</title>
  <g id="svg_7">
   <path fill="#ffffff" id="svg_8" d="m23.302999,22.146c0.521,0.521 3.084,2.844999 3.884001,3.315001c0.709,0.417999 1.532999,0.633999 2.447001,0.642h0.005999h0.006001c0.913,-0.007 1.736,-0.223001 2.448002,-0.642c0.799999,-0.471001 3.362,-2.793001 3.882,-3.314001c1.009998,-1.011 1.496998,-2.559999 1.447998,-4.587v-2.797999c0,-4.292 -3.492001,-7.783 -7.784,-7.783c-4.292,0 -7.783998,3.492 -7.783998,7.783v2.779c-0.049002,2.045 0.438999,3.594 1.446999,4.605zm0.131001,-7.385c0,-3.422 2.784,-6.205999 6.207001,-6.205999c3.421999,0 6.205999,2.783999 6.205999,6.205999v2.816999c0.039001,1.598001 -0.292999,2.76 -0.986,3.454c-0.588001,0.589001 -2.981001,2.726 -3.566,3.07c-0.467001,0.275002 -1.023001,0.417 -1.653,0.423c-0.630001,-0.004999 -1.186001,-0.147999 -1.652,-0.423c-0.584999,-0.344 -2.98,-2.480999 -3.567999,-3.070999c-0.692001,-0.693001 -1.025002,-1.855 -0.986,-3.472v-2.798l-0.002001,0z"/>
   <path fill="#ffffff" id="svg_9" d="m50.965,31.348h-1.030998l-0.001003,-7.674999c0.008003,-0.122 0.165001,-3.005001 -1.645,-4.931c-0.237,-0.252001 -0.500999,-0.470001 -0.779999,-0.665001c0.003002,-0.065001 0.02,-0.126999 0.02,-0.192999c0,-1.914001 -1.556999,-3.470001 -3.472,-3.470001c-1.914001,0 -3.471001,1.557 -3.471001,3.470001s1.556999,3.470999 3.471001,3.470999c1.244999,0 2.330002,-0.664999 2.943001,-1.652c0.042,0.040001 0.093998,0.069 0.133999,0.112001c1.341999,1.421 1.227001,3.737999 1.223999,3.809v6.359999v1.364h-1.877998c-0.596001,-4.361 -4.325001,-7.723999 -8.849998,-7.723999h-1.305c-0.466,0.431 -1.118999,1.018999 -1.771,1.577h3.076c3.646,0 6.671997,2.664999 7.254997,6.146999h-0.530998h-28.706h-0.531c0.582,-3.482 3.609,-6.146999 7.255,-6.146999h2.355c-0.652,-0.559 -1.305,-1.146 -1.771,-1.577h-0.583c-2.469,0 -4.705,1.000999 -6.323,2.618999c-1.347,1.347 -2.255,3.124001 -2.526,5.105h-2.125h-2.362c-1.391,0 -1.66,1.850002 -0.519,3.167999l2.809999,3.247002l2.953,3.411999l2.995,3.461002c0.225,0.259998 0.512001,0.439999 0.815001,0.542999v7.055c0,0.435997 0.354,0.788998 0.789,0.788998c0.434999,0 0.789,-0.354 0.789,-0.788998v-1.062v-12.862c0,-0.436001 -0.354,-0.789001 -0.789,-0.789001c-0.435999,0 -0.789,0.354 -0.789,0.789001v4.856998l-8.38,-9.682999c-0.176,-0.205002 -0.265,-0.406002 -0.303,-0.560001h41.187002c-0.038002,0.153 -0.126003,0.354 -0.303001,0.560001l-8.380001,9.682999v-4.856998c0,-0.436001 -0.354,-0.789001 -0.788998,-0.789001s-0.788002,0.354 -0.788002,0.789001v12.862v1.062c0,0.435997 0.353001,0.788998 0.788002,0.788998s0.788998,-0.354 0.788998,-0.788998v-7.055c0.303001,-0.103001 0.59,-0.283001 0.815002,-0.542999l2.993999,-3.461002l2.952999,-3.411999l2.810001,-3.247002c1.140999,-1.319 0.871998,-3.167999 -0.518002,-3.167999zm-5.015999,-13.463999c0,1.043999 -0.849003,1.893999 -1.894001,1.893999c-1.043999,0 -1.894001,-0.848999 -1.894001,-1.893999c0,-1.044001 0.850002,-1.893001 1.894001,-1.893001c1.046001,0 1.894001,0.849 1.894001,1.893001z"/>
  </g>
 </g>
</svg>