<?xml version="1.0" encoding="utf-8"?>
<!-- Generator: Adobe Illustrator 16.0.0, SVG Export Plug-In . SVG Version: 6.00 Build 0)  -->
<!DOCTYPE svg PUBLIC "-//W3C//DTD SVG 1.1//EN" "http://www.w3.org/Graphics/SVG/1.1/DTD/svg11.dtd">
<svg version="1.1" id="Layer_1" xmlns="http://www.w3.org/2000/svg" xmlns:xlink="http://www.w3.org/1999/xlink" x="0px" y="0px"
	 width="257.334px" height="90px" viewBox="0 0 257.334 90" style="enable-background:new 0 0 257.334 90;" xml:space="preserve">
<g>
	<g>
		<defs>
			<rect id="SVGID_1_" x="1.907" y="1.924" width="253.52" height="86.151"/>
		</defs>
		<clipPath id="SVGID_2_">
			<use xlink:href="#SVGID_1_"  style="overflow:visible;"/>
		</clipPath>
		<g style="clip-path:url(#SVGID_2_);">
			<defs>
				<rect id="SVGID_3_" x="1.907" y="1.924" width="253.52" height="86.151"/>
			</defs>
			<clipPath id="SVGID_4_">
				<use xlink:href="#SVGID_3_"  style="overflow:visible;"/>
			</clipPath>
			<path style="clip-path:url(#SVGID_4_);fill:#FFFFFF;" d="M36.268,30.736c-0.799-1.032-2.716-2.718-3.718-3.722
				c-1.545-1.543-1.945-2-1.945-4.636V11.162c0-1.602-2.462-1.373-2.462,0.057c0,0-0.174,19.518,0,21.178
				c0.171,1.659-0.65,2.953,2.003,4.637c2.938,1.862,7.154,3.09,7.154,3.09s0.057-4.294,0.115-5.896
				C37.473,32.628,37.071,31.767,36.268,30.736 M35.03,36.838c0,0.007-0.006,0.015-0.006,0.015c-4.113-1.675-4.835-1.351-4.32-7.599
				C35.564,32.23,35.226,33.325,35.03,36.838"/>
			<path style="clip-path:url(#SVGID_4_);fill:#FFFFFF;" d="M39.857,34.228c0.059,1.604,0.114,5.895,0.114,5.895
				s4.219-1.229,7.154-3.089c2.654-1.682,1.833-2.977,2.004-4.635c0.172-1.662,0-21.181,0-21.181c0-1.428-2.462-1.658-2.462-0.054
				V22.38c0,2.635-0.4,3.092-1.945,4.635c-1.001,1.004-2.919,2.689-3.719,3.722C40.199,31.766,39.797,32.624,39.857,34.228
				 M46.569,29.253c0.514,6.25-0.207,5.925-4.321,7.6c0,0-0.006-0.008-0.006-0.016C42.048,33.325,41.707,32.229,46.569,29.253"/>
			<path style="clip-path:url(#SVGID_4_);fill:#FFFFFF;" d="M41.889,19.327c-1.436-2.563,0,0-1.98-3.339V3.607
				c0-1.937-2.445-1.784-2.445,0l0.029,12.365c0,0-2.084,3.51-2.668,4.907c-0.582,1.398-1.364,3.076,0.613,5.326
				c0.149,0.172,0.398,0.646,3.285,3.355c0.003,0,0.062-0.065,0.062-0.065s-0.016-0.015,2.524-2.522
				C44.451,23.868,43.323,21.885,41.889,19.327 M38.705,26.543c-4.739-2.537-1.35-5.973,0-8.249l0.119,0.189
				C42.307,23.697,41.362,24.481,38.705,26.543"/>
			<path style="clip-path:url(#SVGID_4_);fill:#FFFFFF;" d="M37.23,45.866c-0.119-2.429-0.979-4.58-5.953-6.441
				c-4.178-1.563-10.088-1.903-14.381-2.593c-4.295-0.689-11.423-1.863-14.989-5.266c2.672,8.883,9.368,12.601,16.164,14.056
				c7.695,1.646,14.597,2.341,18.791,5.257l0.426,0.296C37.051,49.12,37.352,48.296,37.23,45.866 M35.101,47.046
				c-3.683-1.411-6.136-1.777-12.764-3.111c-6.63-1.33-10.592-2.549-14.175-6.32c5.754,2.209,14.975,3.009,20.003,4.074
				c5.029,1.066,6.4,2.371,6.938,5.354L35.101,47.046z"/>
			<path style="clip-path:url(#SVGID_4_);fill:#FFFFFF;" d="M39.923,51.172l0.426-0.293c4.196-2.916,11.098-3.607,18.792-5.257
				c6.796-1.454,13.492-5.172,16.164-14.056c-3.564,3.402-10.695,4.576-14.988,5.268c-4.293,0.687-10.203,1.026-14.38,2.591
				c-4.974,1.861-5.833,4.013-5.956,6.438C39.862,48.296,40.164,49.122,39.923,51.172 M42.108,47.042
				c0.539-2.984,1.909-4.285,6.938-5.355c5.028-1.063,14.248-1.866,20.003-4.073c-3.583,3.771-7.546,4.989-14.173,6.324
				c-6.631,1.332-9.084,1.697-12.765,3.108L42.108,47.042z"/>
			<path style="clip-path:url(#SVGID_4_);fill:#FFFFFF;" d="M36.978,57.158c0.055-4.776-2.684-6.116-6.766-7.192
				c-4.078-1.072-9.764-1.879-14.6-3.274c-4.832-1.396-7.517-2.308-10.79-5.854c0.696,6.929,5.529,11.812,11.487,13.907
				c5.96,2.093,5.638,1.664,8.858,2.469c3.222,0.807,3.811,1.987,3.811,3.973v4.079h8C37.14,56.033,36.923,61.937,36.978,57.158
				 M34.653,62.675h-3.259c0,0,0.073-1.349-0.118-3.669c-0.253-3.064-3.823-3.334-9.697-4.967
				c-4.032-1.117-9.293-2.569-11.644-6.599c1.431,0.632,4.294,1.842,8.972,2.803c4.454,0.914,6.994,1.433,11.089,2.285
				c3.896,0.812,4.658,3.2,4.658,5.832V62.675z"/>
			<path style="clip-path:url(#SVGID_4_);fill:#FFFFFF;" d="M40.085,65.278h8.002v-4.081c0-1.983,0.59-3.165,3.812-3.972
				c3.219-0.804,2.898-0.377,8.856-2.47c5.959-2.094,10.792-6.978,11.488-13.902c-3.276,3.542-5.959,4.453-10.791,5.851
				c-4.831,1.398-10.519,2.203-14.6,3.273c-4.082,1.076-6.821,2.416-6.768,7.198C40.143,61.948,39.927,56.045,40.085,65.278
				 M42.413,58.372c0-2.63,0.76-5.021,4.657-5.831c4.096-0.851,6.638-1.372,11.088-2.284c4.677-0.963,7.546-2.173,8.973-2.802
				c-2.351,4.032-7.613,5.479-11.648,6.598c-5.869,1.634-9.441,1.903-9.693,4.964c-0.19,2.32-0.116,3.67-0.116,3.67h-3.261V58.372z"
				/>
			<path style="clip-path:url(#SVGID_4_);fill:#FFFFFF;" d="M20.82,87.632c-1.026,0.239-2.132,0.442-3.2,0.442
				c-4.545,0-7.705-2.271-7.705-7.022c0-4.807,2.938-7.502,7.705-7.502c0.928,0,2.154,0.181,3.18,0.584l-0.202,2.373
				c-1.065-0.603-2.03-0.745-3.036-0.745c-2.9,0-4.71,2.213-4.71,5.09c0,2.857,1.769,5.008,4.767,5.008
				c1.108,0,2.417-0.238,3.08-0.579L20.82,87.632z"/>
			<path style="clip-path:url(#SVGID_4_);fill:#FFFFFF;" d="M33.857,76.508c-1.085-0.504-2.495-0.746-3.624-0.746
				c-3.277,0-5.09,2.212-5.09,5.09c0,2.858,1.772,5.01,4.772,5.01c0.762,0,1.367-0.079,1.85-0.2V82h-2.978v-2.215h5.672v7.565
				c-1.488,0.4-3.037,0.724-4.544,0.724c-4.549,0-7.708-2.273-7.708-7.019c0-4.811,2.936-7.504,7.708-7.504
				c1.629,0,2.914,0.22,4.122,0.579L33.857,76.508z"/>
			<rect x="37.176" y="73.791" style="clip-path:url(#SVGID_4_);fill:#FFFFFF;" width="2.817" height="14.042"/>
			<path style="clip-path:url(#SVGID_4_);fill:#FFFFFF;" d="M50.612,82.402h-4.102l2.031-5.797h0.041L50.612,82.402z M41.562,87.834
				h2.914l1.229-3.219h5.693l1.209,3.219h3.118L50.21,73.789h-3.176L41.562,87.834z"/>
			<path style="clip-path:url(#SVGID_4_);fill:#FFFFFF;" d="M60.111,76.006h0.923c1.411,0,2.979,0.14,2.979,1.826
				c0,1.753-1.589,1.957-2.979,1.957h-0.923V76.006z M57.294,87.834h2.817v-5.837h0.906c1.186,0,1.55,0.405,1.948,1.451l1.691,4.386
				h3.139l-2.254-5.492c-0.281-0.624-0.722-1.388-1.488-1.449v-0.041c1.789-0.238,2.898-1.61,2.898-3.259
				c0-3.899-3.602-3.804-6.619-3.804h-3.039V87.834z"/>
			<path style="clip-path:url(#SVGID_4_);fill:#FFFFFF;" d="M99.015,11.622h3.831c1.433,0,2.599,0.647,2.599,2.033
				c0,1.074-0.511,1.789-1.546,2.031v0.023c0.69,0.185,0.738,0.796,1.141,1.779l0.786,2.192h-2.24l-0.461-1.454
				c-0.439-1.386-0.716-1.732-1.513-1.732h-0.45v3.186h-2.146V11.622z M101.161,14.971h0.566c0.69,0,1.568-0.023,1.568-0.936
				c0-0.751-0.749-0.889-1.568-0.889h-0.566V14.971z"/>
			<polygon style="clip-path:url(#SVGID_4_);fill:#FFFFFF;" points="107.464,11.623 113.145,11.623 113.145,13.146 109.61,13.146 
				109.61,14.809 112.948,14.809 112.948,16.333 109.61,16.333 109.61,18.158 113.271,18.158 113.271,19.682 107.464,19.682 			"/>
			<path style="clip-path:url(#SVGID_4_);fill:#FFFFFF;" d="M115.336,17.695c0.553,0.301,1.329,0.532,2.217,0.532
				c0.683,0,1.328-0.138,1.328-0.786c0-1.501-3.81-0.555-3.81-3.486c0-1.941,1.893-2.47,3.51-2.47c0.774,0,1.535,0.115,2.078,0.299
				l-0.14,1.664c-0.553-0.254-1.18-0.369-1.789-0.369c-0.542,0-1.442,0.045-1.442,0.75c0,1.304,3.811,0.427,3.811,3.337
				c0,2.09-1.759,2.654-3.546,2.654c-0.75,0-1.685-0.114-2.401-0.347L115.336,17.695z"/>
			<polygon style="clip-path:url(#SVGID_4_);fill:#FFFFFF;" points="123.06,11.623 128.741,11.623 128.741,13.146 125.208,13.146 
				125.208,14.809 128.544,14.809 128.544,16.333 125.208,16.333 125.208,18.158 128.869,18.158 128.869,19.682 123.06,19.682 			
				"/>
			<path style="clip-path:url(#SVGID_4_);fill:#FFFFFF;" d="M133.321,11.623h2.634l3.106,8.059h-2.354l-0.601-1.721h-3.025
				l-0.637,1.721h-2.181L133.321,11.623z M134.641,13.285h-0.024l-1.038,3.152h2.019L134.641,13.285z"/>
			<path style="clip-path:url(#SVGID_4_);fill:#FFFFFF;" d="M140.596,11.622h3.833c1.431,0,2.597,0.647,2.597,2.033
				c0,1.074-0.507,1.789-1.547,2.031v0.023c0.693,0.185,0.74,0.796,1.144,1.779l0.786,2.192h-2.239l-0.464-1.454
				c-0.438-1.386-0.717-1.732-1.513-1.732h-0.449v3.186h-2.147V11.622z M142.743,14.971h0.565c0.694,0,1.569-0.023,1.569-0.936
				c0-0.751-0.75-0.889-1.569-0.889h-0.565V14.971z"/>
			<path style="clip-path:url(#SVGID_4_);fill:#FFFFFF;" d="M155.824,19.497c-0.612,0.149-1.293,0.323-2.391,0.323
				c-2.147,0-4.63-1.086-4.63-4.134c0-2.805,1.963-4.203,4.619-4.203c0.819,0,1.616,0.186,2.39,0.417l-0.173,1.743
				c-0.692-0.382-1.364-0.566-2.103-0.566c-1.523,0-2.516,1.108-2.516,2.609c0,1.583,1.118,2.54,2.69,2.54
				c0.703,0,1.419-0.183,2.007-0.414L155.824,19.497z"/>
			<polygon style="clip-path:url(#SVGID_4_);fill:#FFFFFF;" points="157.542,11.623 159.689,11.623 159.689,14.705 162.229,14.705 
				162.229,11.623 164.378,11.623 164.378,19.682 162.229,19.682 162.229,16.229 159.689,16.229 159.689,19.682 157.542,19.682 			
				"/>
			<path style="clip-path:url(#SVGID_4_);fill:#FFFFFF;" d="M98.956,25.476h2.562c2.459,0,3.615,0.831,3.615,2.644
				c0,1.628-1.19,2.598-3.2,2.598h-0.831v2.817h-2.146V25.476z M101.103,29.193h0.554c0.738,0,1.328-0.266,1.328-1.108
				c0-0.82-0.59-1.086-1.328-1.086h-0.554V29.193z"/>
			<path style="clip-path:url(#SVGID_4_);fill:#FFFFFF;" d="M106.819,25.476h3.831c1.431,0,2.597,0.646,2.597,2.032
				c0,1.074-0.509,1.789-1.545,2.031v0.023c0.689,0.185,0.739,0.797,1.142,1.778l0.786,2.193h-2.242l-0.459-1.454
				c-0.441-1.386-0.716-1.732-1.515-1.732h-0.45v3.187h-2.145V25.476z M108.964,28.824h0.567c0.691,0,1.567-0.023,1.567-0.936
				c0-0.751-0.748-0.89-1.567-0.89h-0.567V28.824z"/>
			<path style="clip-path:url(#SVGID_4_);fill:#FFFFFF;" d="M119.055,25.338c2.655,0,4.041,1.583,4.041,4.168
				c0,2.563-1.409,4.168-4.041,4.168c-2.634,0-4.041-1.604-4.041-4.168C115.014,26.921,116.4,25.338,119.055,25.338 M119.055,32.08
				c1.304,0,1.824-1.247,1.824-2.574c0-1.396-0.521-2.574-1.824-2.574c-1.305,0-1.827,1.178-1.827,2.574
				C117.228,30.833,117.75,32.08,119.055,32.08"/>
			<path style="clip-path:url(#SVGID_4_);fill:#FFFFFF;" d="M132.493,33.305c-1.363,0.346-2.378,0.369-3.118,0.369
				c-2.147,0-4.63-1.085-4.63-4.135c0-3.035,2.135-4.202,5.091-4.202c0.531,0,1.653,0.059,2.436,0.357l-0.172,1.755
				c-0.67-0.392-1.456-0.519-1.964-0.519c-1.742,0-3.172,0.727-3.172,2.608c0,1.583,1.119,2.541,2.688,2.541
				c0.29,0,0.566-0.046,0.762-0.139V30.35h-1.259v-1.525h3.339V33.305z"/>
			<path style="clip-path:url(#SVGID_4_);fill:#FFFFFF;" d="M134.72,25.476h3.834c1.431,0,2.599,0.646,2.599,2.032
				c0,1.074-0.51,1.789-1.547,2.031v0.023c0.692,0.185,0.736,0.797,1.14,1.778l0.786,2.193h-2.239l-0.462-1.454
				c-0.438-1.386-0.715-1.732-1.512-1.732h-0.451v3.187h-2.147V25.476z M136.867,28.824h0.565c0.692,0,1.569-0.023,1.569-0.936
				c0-0.751-0.75-0.89-1.569-0.89h-0.565V28.824z"/>
			<path style="clip-path:url(#SVGID_4_);fill:#FFFFFF;" d="M145.631,25.476h2.63l3.106,8.059h-2.355l-0.602-1.721h-3.022
				l-0.637,1.721h-2.183L145.631,25.476z M146.945,27.138h-0.021l-1.039,3.152h2.019L146.945,27.138z"/>
			<polygon style="clip-path:url(#SVGID_4_);fill:#FFFFFF;" points="152.901,25.476 156.284,25.476 157.993,30.833 158.019,30.833 
				159.806,25.476 163.062,25.476 163.062,33.534 160.96,33.534 160.998,27.346 160.973,27.346 158.918,33.534 156.943,33.534 
				154.98,27.346 154.957,27.346 155.004,33.534 152.901,33.534 			"/>
			<path style="clip-path:url(#SVGID_4_);fill:#FFFFFF;" d="M173.269,25.338c2.655,0,4.039,1.583,4.039,4.168
				c0,2.563-1.409,4.168-4.039,4.168c-2.633,0-4.042-1.604-4.042-4.168C169.227,26.921,170.611,25.338,173.269,25.338
				 M173.269,32.08c1.303,0,1.823-1.247,1.823-2.574c0-1.396-0.521-2.574-1.823-2.574c-1.306,0-1.826,1.178-1.826,2.574
				C171.442,30.833,171.963,32.08,173.269,32.08"/>
			<polygon style="clip-path:url(#SVGID_4_);fill:#FFFFFF;" points="179.293,25.476 182.029,25.476 184.755,30.949 184.776,30.949 
				184.742,25.476 186.705,25.476 186.705,33.534 184.038,33.534 181.223,28.027 181.198,28.027 181.267,33.534 179.293,33.534 			
				"/>
			<polygon style="clip-path:url(#SVGID_4_);fill:#FFFFFF;" points="98.31,41.715 105.633,41.715 105.633,43.451 100.283,43.451 
				100.283,47.477 105.396,47.477 105.396,49.215 100.283,49.215 100.283,55.493 98.31,55.493 			"/>
			<path style="clip-path:url(#SVGID_4_);fill:#FFFFFF;" d="M112.402,45.188c3.059,0,5.113,2.21,5.113,5.272
				c0,2.88-2.095,5.269-5.113,5.269c-3.04,0-5.133-2.389-5.133-5.269C107.27,47.398,109.322,45.188,112.402,45.188 M112.402,54.229
				c2.169,0,3.139-1.974,3.139-3.768c0-1.916-1.165-3.773-3.139-3.773c-1.996,0-3.158,1.857-3.158,3.773
				C109.244,52.255,110.211,54.229,112.402,54.229"/>
			<path style="clip-path:url(#SVGID_4_);fill:#FFFFFF;" d="M119.802,45.426h1.736v1.56h0.039c0.495-1.046,1.56-1.796,2.625-1.796
				c0.553,0,0.829,0.059,1.225,0.137v1.659c-0.335-0.139-0.71-0.178-1.025-0.178c-1.659,0-2.744,1.577-2.744,4.105v4.578h-1.855
				V45.426z"/>
			<path style="clip-path:url(#SVGID_4_);fill:#FFFFFF;" d="M135.019,55.079c-0.712,0.258-1.518,0.65-3.179,0.65
				c-3.573,0-5.211-2.173-5.211-5.448c0-2.98,1.875-5.093,4.718-5.093c3.357,0,4.443,2.447,4.443,5.686h-7.187
				c0,1.994,1.558,3.354,3.317,3.354c1.224,0,2.644-0.633,3.098-1.005V55.079z M133.814,49.491c0-1.54-0.907-2.804-2.506-2.804
				c-1.817,0-2.566,1.501-2.705,2.804H133.814z"/>
			<path style="clip-path:url(#SVGID_4_);fill:#FFFFFF;" d="M137.327,53.519c0.731,0.474,1.776,0.711,2.31,0.711
				c0.849,0,1.894-0.355,1.894-1.44c0-1.837-4.361-1.679-4.361-4.502c0-2.093,1.56-3.099,3.553-3.099c0.868,0,1.58,0.178,2.31,0.396
				l-0.157,1.617c-0.417-0.258-1.521-0.513-1.954-0.513c-0.946,0-1.775,0.396-1.775,1.225c0,2.051,4.361,1.461,4.361,4.679
				c0,2.151-1.719,3.137-3.515,3.137c-0.947,0-1.914-0.099-2.764-0.551L137.327,53.519z"/>
			<path style="clip-path:url(#SVGID_4_);fill:#FFFFFF;" d="M150.926,46.925h-2.665v5.509c0,1.164,0.712,1.797,1.56,1.797
				c0.572,0,0.986-0.181,1.265-0.358v1.581c-0.416,0.117-0.988,0.276-1.581,0.276c-1.917,0-3.099-0.909-3.099-2.922v-5.883h-2.271
				v-1.499h2.271v-2.329l1.855-0.592v2.921h2.665V46.925z"/>
			<path style="clip-path:url(#SVGID_4_);fill:#FFFFFF;" d="M152.326,53.519c0.729,0.474,1.776,0.711,2.31,0.711
				c0.849,0,1.894-0.355,1.894-1.44c0-1.837-4.361-1.679-4.361-4.502c0-2.093,1.56-3.099,3.555-3.099
				c0.866,0,1.578,0.178,2.309,0.396l-0.158,1.617c-0.415-0.258-1.521-0.513-1.954-0.513c-0.946,0-1.777,0.396-1.777,1.225
				c0,2.051,4.363,1.461,4.363,4.679c0,2.151-1.719,3.137-3.514,3.137c-0.949,0-1.915-0.099-2.765-0.551L152.326,53.519z"/>
			<polygon style="clip-path:url(#SVGID_4_);fill:#FFFFFF;" points="160.635,53.28 162.846,53.28 161.167,58.119 159.391,58.119 			
				"/>
			<polygon style="clip-path:url(#SVGID_4_);fill:#FFFFFF;" points="174.113,43.451 169.832,43.451 169.832,41.715 180.371,41.715 
				180.371,43.451 176.089,43.451 176.089,55.491 174.113,55.491 			"/>
			<path style="clip-path:url(#SVGID_4_);fill:#FFFFFF;" d="M181.969,45.426h1.737v1.56h0.038c0.496-1.046,1.563-1.796,2.627-1.796
				c0.553,0,0.828,0.059,1.225,0.137v1.659c-0.337-0.139-0.713-0.178-1.027-0.178c-1.658,0-2.744,1.577-2.744,4.105v4.578h-1.855
				V45.426z"/>
			<path style="clip-path:url(#SVGID_4_);fill:#FFFFFF;" d="M197.188,55.079c-0.712,0.258-1.521,0.65-3.179,0.65
				c-3.573,0-5.211-2.173-5.211-5.448c0-2.98,1.874-5.093,4.718-5.093c3.355,0,4.441,2.447,4.441,5.686h-7.187
				c0,1.994,1.56,3.354,3.318,3.354c1.223,0,2.644-0.633,3.099-1.005V55.079z M195.983,49.491c0-1.54-0.908-2.804-2.508-2.804
				c-1.817,0-2.566,1.501-2.705,2.804H195.983z"/>
			<path style="clip-path:url(#SVGID_4_);fill:#FFFFFF;" d="M207.983,55.079c-0.713,0.258-1.521,0.65-3.18,0.65
				c-3.573,0-5.212-2.173-5.212-5.448c0-2.98,1.876-5.093,4.719-5.093c3.355,0,4.441,2.447,4.441,5.686h-7.185
				c0,1.994,1.56,3.354,3.316,3.354c1.223,0,2.643-0.633,3.1-1.005V55.079z M206.776,49.491c0-1.54-0.908-2.804-2.506-2.804
				c-1.815,0-2.566,1.501-2.703,2.804H206.776z"/>
			<path style="clip-path:url(#SVGID_4_);fill:#FFFFFF;" d="M210.29,53.519c0.73,0.474,1.777,0.711,2.309,0.711
				c0.849,0,1.896-0.355,1.896-1.44c0-1.837-4.363-1.679-4.363-4.502c0-2.093,1.56-3.099,3.555-3.099
				c0.868,0,1.578,0.178,2.308,0.396l-0.155,1.617c-0.415-0.258-1.521-0.513-1.955-0.513c-0.947,0-1.777,0.396-1.777,1.225
				c0,2.051,4.362,1.461,4.362,4.679c0,2.151-1.717,3.137-3.513,3.137c-0.947,0-1.916-0.099-2.764-0.551L210.29,53.519z"/>
			<path style="clip-path:url(#SVGID_4_);fill:#FFFFFF;" d="M224.323,46.135c0.928-0.553,2.033-0.946,3.316-0.946
				c2.881,0,4.047,1.421,4.047,4.166v4.164c0,1.145,0.038,1.679,0.077,1.975h-1.735V54.19h-0.04c-0.437,0.611-1.421,1.54-3.119,1.54
				c-2.171,0-3.692-0.946-3.692-3.139c0-2.528,2.764-3.316,4.679-3.316c0.73,0,1.245,0,1.973,0.037c0-1.736-0.629-2.624-2.485-2.624
				c-1.047,0-2.172,0.395-2.921,1.027L224.323,46.135z M229.828,50.695c-0.393,0-0.788-0.037-1.185-0.037
				c-1.004,0-3.491,0.155-3.491,1.934c0,1.064,1.026,1.639,1.874,1.639c1.836,0,2.802-1.146,2.802-2.646V50.695z"/>
			<path style="clip-path:url(#SVGID_4_);fill:#FFFFFF;" d="M234.644,45.426h1.798v1.597h0.038c0.553-1.144,1.896-1.833,3.297-1.833
				c2.604,0,3.771,1.618,3.771,4.323v5.979h-1.855v-5.21c0-2.348-0.513-3.495-2.133-3.593c-2.113,0-3.059,1.696-3.059,4.146v4.656
				h-1.856V45.426z"/>
			<path style="clip-path:url(#SVGID_4_);fill:#FFFFFF;" d="M253.651,54.071h-0.042c-0.492,0.75-1.636,1.658-3.434,1.658
				c-3.039,0-4.323-2.702-4.323-5.447c0-2.705,1.422-5.094,4.343-5.094c1.758,0,2.764,0.691,3.338,1.619h0.038v-6.12h1.855v14.805
				h-1.775V54.071z M250.611,54.229c2.093,0,2.96-2.071,2.96-3.75c0-1.875-0.965-3.791-2.98-3.791c-2.013,0-2.804,1.896-2.762,3.731
				C247.787,52.001,248.618,54.229,250.611,54.229"/>
			<path style="clip-path:url(#SVGID_4_);fill:#FFFFFF;" d="M102.79,62.678h2.072l5.824,13.778h-2.152l-1.401-3.473h-6.752
				l-1.401,3.473h-2.072L102.79,62.678z M103.758,64.535l-2.744,6.829h5.487L103.758,64.535z"/>
			<path style="clip-path:url(#SVGID_4_);fill:#FFFFFF;" d="M121.224,76.021c0,3.063-1.579,4.818-5.19,4.818
				c-1.067,0-1.994-0.14-3.612-0.692l0.196-1.717c1.422,0.654,2.271,0.91,3.632,0.91c1.955,0,3.119-1.323,3.119-3.456v-0.986h-0.039
				c-0.79,1.047-2.093,1.558-3.376,1.558c-2.882,0-4.304-2.347-4.304-4.952c0-2.586,1.462-5.349,4.502-5.349
				c1.775,0,2.764,0.648,3.316,1.734h0.038V66.39h1.718V76.021z M119.368,71.542c0-2.094-0.968-3.891-2.94-3.891
				c-1.875,0-2.804,2.033-2.804,3.751c0,1.896,1.065,3.555,2.804,3.555C118.164,74.957,119.368,73.415,119.368,71.542"/>
			<path style="clip-path:url(#SVGID_4_);fill:#FFFFFF;" d="M124.202,66.39h1.737v1.56h0.039c0.494-1.046,1.561-1.795,2.625-1.795
				c0.553,0,0.829,0.059,1.225,0.137v1.658c-0.335-0.138-0.713-0.177-1.026-0.177c-1.658,0-2.743,1.577-2.743,4.104v4.578h-1.856
				V66.39z"/>
			<path style="clip-path:url(#SVGID_4_);fill:#FFFFFF;" d="M136.163,66.15c3.06,0,5.112,2.215,5.112,5.274
				c0,2.881-2.093,5.27-5.112,5.27c-3.039,0-5.132-2.389-5.132-5.27C131.031,68.365,133.083,66.15,136.163,66.15 M136.163,75.193
				c2.171,0,3.141-1.975,3.141-3.769c0-1.917-1.166-3.771-3.141-3.771c-1.993,0-3.158,1.854-3.158,3.771
				C133.005,73.219,133.974,75.193,136.163,75.193"/>
			<path style="clip-path:url(#SVGID_4_);fill:#FFFFFF;" d="M144.786,67.889h-2.367V66.39h2.367v-0.928
				c0-2.448,0.632-4.046,3.376-4.046c0.474,0,0.869,0.059,1.242,0.117l-0.076,1.502c-0.22-0.079-0.575-0.119-0.89-0.119
				c-1.6,0-1.796,1.028-1.796,2.388v1.086h2.663v1.499h-2.663v8.568h-1.856V67.889z"/>
			<path style="clip-path:url(#SVGID_4_);fill:#FFFFFF;" d="M155.544,66.15c3.06,0,5.111,2.215,5.111,5.274
				c0,2.881-2.092,5.27-5.111,5.27c-3.039,0-5.133-2.389-5.133-5.27C150.411,68.365,152.465,66.15,155.544,66.15 M155.544,75.193
				c2.17,0,3.139-1.975,3.139-3.769c0-1.917-1.166-3.771-3.139-3.771c-1.994,0-3.158,1.854-3.158,3.771
				C152.386,73.219,153.353,75.193,155.544,75.193"/>
			<path style="clip-path:url(#SVGID_4_);fill:#FFFFFF;" d="M162.943,66.39h1.736v1.56h0.04c0.495-1.046,1.56-1.795,2.625-1.795
				c0.553,0,0.831,0.059,1.225,0.137v1.658c-0.335-0.138-0.71-0.177-1.026-0.177c-1.656,0-2.742,1.577-2.742,4.104v4.578h-1.857
				V66.39z"/>
			<path style="clip-path:url(#SVGID_4_);fill:#FFFFFF;" d="M178.162,76.044c-0.713,0.256-1.521,0.65-3.18,0.65
				c-3.573,0-5.211-2.173-5.211-5.448c0-2.983,1.874-5.094,4.717-5.094c3.356,0,4.442,2.447,4.442,5.686h-7.185
				c0,1.994,1.56,3.355,3.315,3.355c1.224,0,2.645-0.633,3.101-1.006V76.044z M176.956,70.456c0-1.54-0.908-2.805-2.507-2.805
				c-1.815,0-2.565,1.502-2.703,2.805H176.956z"/>
			<path style="clip-path:url(#SVGID_4_);fill:#FFFFFF;" d="M180.47,74.483c0.73,0.474,1.775,0.711,2.31,0.711
				c0.848,0,1.893-0.356,1.893-1.441c0-1.835-4.361-1.678-4.361-4.501c0-2.094,1.559-3.101,3.555-3.101
				c0.867,0,1.577,0.178,2.306,0.397l-0.155,1.616c-0.414-0.257-1.52-0.513-1.953-0.513c-0.947,0-1.779,0.396-1.779,1.226
				c0,2.05,4.364,1.46,4.364,4.679c0,2.149-1.718,3.137-3.515,3.137c-0.946,0-1.913-0.1-2.765-0.551L180.47,74.483z"/>
			<path style="clip-path:url(#SVGID_4_);fill:#FFFFFF;" d="M194.067,67.889h-2.664v5.511c0,1.162,0.709,1.796,1.56,1.796
				c0.573,0,0.986-0.179,1.262-0.358v1.581c-0.414,0.116-0.985,0.276-1.578,0.276c-1.914,0-3.099-0.909-3.099-2.923v-5.883h-2.271
				V66.39h2.271v-2.329l1.855-0.593v2.922h2.664V67.889z"/>
			<path style="clip-path:url(#SVGID_4_);fill:#FFFFFF;" d="M196.219,66.39h1.737v1.56h0.039c0.493-1.046,1.56-1.795,2.626-1.795
				c0.553,0,0.829,0.059,1.223,0.137v1.658c-0.337-0.138-0.713-0.177-1.026-0.177c-1.658,0-2.744,1.577-2.744,4.104v4.578h-1.854
				V66.39z"/>
			<path style="clip-path:url(#SVGID_4_);fill:#FFFFFF;" d="M202.968,79.182c0.237,0.079,0.553,0.159,0.867,0.159
				c1.66,0,2.211-2.293,2.211-2.49c0-0.215-0.236-0.729-0.354-1.065l-3.417-9.395h2.033l2.706,8.331h0.038l2.766-8.331h1.872
				l-3.71,10.284c-0.689,1.933-1.42,4.165-3.869,4.165c-0.591,0-0.927-0.079-1.263-0.138L202.968,79.182z"/>
			
				<line style="clip-path:url(#SVGID_4_);fill:none;stroke:#FFFFFF;stroke-width:0.406;" x1="87.489" y1="1.923" x2="87.489" y2="87.729"/>
		</g>
	</g>
</g>
</svg>
