<svg width="60" height="60" xmlns="http://www.w3.org/2000/svg">
 <g>
  <title>Layer 1</title>
  <g id="svg_12">
   <path fill="#ffffff" id="svg_13" d="m37.362999,34.548c-1.924999,3.436001 -8.323999,6.042999 -15.695999,6.042999c-8.835999,0 -16.301,-3.742001 -16.301,-8.173v-0.956999c-0.031,-0.039 -0.071,-0.075001 -0.102,-0.114c-0.018,-0.021999 -0.029,-0.047001 -0.047,-0.07c-0.159,-0.209 -0.302,-0.422001 -0.431,-0.640001c-0.135,-0.219 -0.247,-0.442999 -0.353,-0.667999v0l0,0c-0.357,-0.764 -0.568,-1.560999 -0.568,-2.386v4.379999v0.455v0.000999v0.000999v4.836002c0,5.341999 7.97,9.673 17.801,9.673s17.801998,-4.331001 17.801998,-9.673v-2.707001h-2.105l0,-0.000999zm-15.695999,10.880001c-8.835999,0 -16.301,-3.743 -16.301,-8.173v-0.957001c0.665,0.821999 1.525,1.589001 2.564,2.272999c1.089,0.716999 2.363,1.346001 3.783999,1.868c0.946,0.347 1.959001,0.646 3.023001,0.892002c2.128999,0.488998 4.471,0.759998 6.929,0.759998c7.291,0 13.549,-2.383999 16.301998,-5.792999v0.957001c0.001003,4.43 -7.463999,8.173 -16.300999,8.173z"/>
   <path fill="#ffffff" id="svg_14" d="m6.56,27.843l-0.977,0.976c0.154,0.483 0.393,0.954 0.714,1.407l1.457,-1.457001c-0.432,-0.293999 -0.826,-0.605 -1.194,-0.925999z"/>
   <polygon fill="#ffffff" id="svg_15" points="4.435,29.968 4.435,29.968 4.435,29.968 4.435,29.968 4.436,29.969  "/>
   <path fill="#ffffff" id="svg_16" d="m4.787,30.636999l0,0c0.129,0.218 0.271,0.431 0.431,0.639999c0.001,0.002001 0.002,0.004 0.003,0.005001c-0.16,-0.212 -0.301,-0.427999 -0.434,-0.645z"/>
   <path fill="#ffffff" id="svg_17" d="m10.324,30.198999c-0.495,-0.223 -0.961,-0.462 -1.408,-0.712l-1.749001,1.749001c0.345,0.334999 0.727,0.657999 1.156,0.965l2.001,-2.002001z"/>
   <path fill="#ffffff" id="svg_18" d="m6.117,32.284l0,0c0.181,0.175999 0.375,0.348 0.576,0.515999c-0.199,-0.168999 -0.395,-0.34 -0.576,-0.515999z"/>
   <polygon fill="#ffffff" id="svg_19" points="7.27,33.254 7.27,33.254 7.27,33.254  "/>
   <polygon fill="#ffffff" id="svg_20" points="8.393,34.011 8.393,34.011 8.393,34.011  "/>
   <path fill="#ffffff" id="svg_21" d="m13.254,31.27c-0.549,-0.161001 -1.082,-0.336 -1.594999,-0.526001l-2.185,2.186001c0.44,0.250999 0.912,0.487999 1.408,0.711002l2.372,-2.371002z"/>
   <polygon fill="#ffffff" id="svg_22" points="12.622,35.901 12.622,35.901 12.622,35.901  "/>
   <path fill="#ffffff" id="svg_23" d="m16.52,32.004002c-0.605,-0.1 -1.199,-0.212 -1.775001,-0.344999l-2.523999,2.523001c0.515,0.188 1.044001,0.364998 1.599,0.521l2.7,-2.699001z"/>
   <polygon fill="#ffffff" id="svg_24" points="15.814,36.708 15.814,36.708 15.813,36.708  "/>
   <path fill="#ffffff" id="svg_25" d="m20.146999,32.375999c-0.669001,-0.029999 -1.329,-0.076 -1.974001,-0.146l-2.853999,2.854c0.580999,0.126999 1.180999,0.234001 1.793,0.327999l3.035,-3.035999z"/>
   <path fill="#ffffff" id="svg_26" d="m24.216,32.307999c-0.729,0.056999 -1.468,0.094002 -2.223,0.102001l-3.204,3.203999c0.656,0.062 1.325001,0.098999 2.003,0.118l3.424,-3.424z"/>
   <path fill="#ffffff" id="svg_27" d="m23.313999,37.209999l0,0c-0.117001,0.006001 -0.236,0.004002 -0.354,0.009998c0.118,-0.004997 0.237001,-0.003998 0.354,-0.009998z"/>
   <path fill="#ffffff" id="svg_28" d="m26.330999,32.070999l-3.656,3.655998c0.768999,-0.023998 1.528,-0.067997 2.27,-0.146999l4.017,-4.018c-0.844999,0.207001 -1.723,0.376001 -2.631001,0.509001z"/>
   <path fill="#ffffff" id="svg_29" d="m31.646999,30.754999l-0.693001,0.692999h2.121002l3.141998,-3.140999c-1.242001,0.957001 -2.785,1.790001 -4.57,2.448z"/>
   <path fill="#ffffff" id="svg_30" d="m29.979,34.546001c-0.572001,-0.007999 -1.063999,-0.327999 -1.326,-0.796001l-1.497999,1.499001c0.979,-0.182999 1.914,-0.41 2.800999,-0.68l0.023001,-0.022999z"/>
   <path fill="#ffffff" id="svg_31" d="m32.354,35.304001c-0.062,0.026001 -0.124001,0.052002 -0.188,0.077c0.063,-0.026001 0.125999,-0.050999 0.188,-0.077z"/>
   <polygon fill="#ffffff" id="svg_32" points="33.953,34.57 33.953,34.57 33.953,34.57  "/>
   <path fill="#ffffff" id="svg_33" d="m39.469002,27.582001c0,0.308001 -0.033001,0.612 -0.084999,0.913c0.053997,-0.301001 0.084999,-0.605001 0.084999,-0.913z"/>
   <path fill="#ffffff" id="svg_34" d="m37.828999,28.573999l-2.875,2.875h1.003002c0.968998,-0.879999 1.611,-1.851999 1.871998,-2.875z"/>
   <path fill="#ffffff" id="svg_35" d="m4.435,29.968l0.001,0.000999c0.105,0.225 0.218,0.448999 0.352,0.667c0.133,0.218 0.273,0.434 0.434,0.645c0.017,0.021002 0.027,0.044001 0.044,0.065001c0.251,0.323 0.542,0.635 0.853,0.938c0.181,0.176003 0.377,0.347 0.576,0.515999c0.184,0.154003 0.377,0.305 0.576,0.454002l0,0c0.217,0.161999 0.428,0.326 0.661,0.48c0.146,0.097 0.309999,0.182999 0.462,0.276001l0,0c0.984,0.599998 2.092,1.140999 3.322,1.591999c0.292001,0.106998 0.602,0.201 0.907001,0.299l0,0c0.681,0.220001 1.38,0.424 2.116,0.592999c0.351,0.081001 0.715,0.146 1.075,0.214001h0.000999c1.836001,0.348 3.8,0.547001 5.853,0.547001c0.437,0 0.864,-0.02 1.294001,-0.035c0.117001,-0.006001 0.236,-0.004002 0.354,-0.009998c3.297001,-0.165001 6.322001,-0.822002 8.851999,-1.829002c0.063004,-0.024998 0.126003,-0.050999 0.188004,-0.077c0.559998,-0.229 1.094997,-0.472 1.599998,-0.733002l0,0c0.014999,-0.007999 0.029999,-0.014999 0.044998,-0.021999h-3.974998c-0.023001,0.007 -0.046,0.014 -0.068001,0.021c-0.886999,0.27 -1.821999,0.497002 -2.800999,0.68c-0.719,0.132999 -1.452,0.25 -2.210001,0.331001c-0.740999,0.078999 -1.500999,0.123001 -2.269999,0.146999c-0.335001,0.012001 -0.668001,0.027 -1.008001,0.027c-0.294001,0 -0.583,-0.015999 -0.875,-0.022999c-0.678001,-0.02 -1.347,-0.057003 -2.003,-0.118c-0.568001,-0.054001 -1.128,-0.120003 -1.675999,-0.202c-0.612001,-0.094002 -1.212002,-0.201 -1.793,-0.328003c-0.515,-0.112999 -1.014002,-0.239998 -1.502001,-0.378998c-0.554999,-0.156002 -1.084,-0.334 -1.599,-0.521c-0.465,-0.169003 -0.908999,-0.351002 -1.337,-0.542999c-0.495999,-0.223003 -0.967999,-0.460003 -1.408,-0.711002c-0.408,-0.232998 -0.796,-0.474998 -1.151,-0.729c-0.43,-0.306999 -0.812,-0.629999 -1.156,-0.965c-0.335,-0.324999 -0.624,-0.661999 -0.87,-1.008999c-0.321,-0.454 -0.56,-0.924 -0.714,-1.407c-0.13,-0.405001 -0.217,-0.817001 -0.217,-1.238001v-0.958c0.343,0.424 0.747,0.829 1.192999,1.219c0.368,0.321001 0.763,0.632 1.194,0.926001c0.367001,0.249001 0.753001,0.489 1.162,0.717001c0.447001,0.249998 0.913,0.49 1.408,0.712c0.428,0.192999 0.874001,0.373999 1.335,0.543999c0.513,0.190001 1.046,0.365 1.595,0.526001c0.484001,0.142 0.98,0.271999 1.49,0.389999c0.576,0.132999 1.170001,0.245001 1.775001,0.345001c0.541,0.089001 1.093,0.164997 1.654001,0.225998c0.644999,0.07 1.304998,0.116001 1.973999,0.146c0.501999,0.023003 1.007,0.042 1.519999,0.042c0.110001,0 0.217001,-0.007999 0.326002,-0.008999c0.754999,-0.007999 1.493999,-0.044998 2.223,-0.102001c0.719999,-0.056999 1.426001,-0.134998 2.115,-0.236c0.908001,-0.133999 1.786001,-0.302999 2.630001,-0.508999c0.938999,-0.229 1.841999,-0.496 2.686998,-0.808001c1.784002,-0.658001 3.327002,-1.490999 4.569002,-2.446999c0.681999,-0.526001 1.271,-1.088001 1.751999,-1.684002v0.958002c0,0.335999 -0.056999,0.665998 -0.139999,0.991999c-0.261002,1.023001 -0.903,1.996 -1.872002,2.875h3.512001v-3.867001c0,0.308001 -0.029999,0.612 -0.084999,0.913c0.051998,-0.301001 0.084999,-0.604 0.084999,-0.913v-0.455999v-0.192001v-1.879v-1.480999v-1.282h-0.042999c-0.440002,-5.129 -8.211,-9.217 -17.759003,-9.217s-17.317999,4.086999 -17.759999,9.217h-0.042v4.836v0.455v0c0,0.825998 0.211,1.621998 0.569,2.386999zm0.931,-7.223c0,-4.43 7.465,-8.173 16.301002,-8.173c8.837,0 16.302,3.743 16.302,8.173s-7.465,8.173 -16.302,8.173c-8.836001,-0.000002 -16.301002,-3.743002 -16.301002,-8.173z"/>
   <path fill="#ffffff" id="svg_36" d="m48.771,25.233999c-3.669998,0 -6.709999,2.698999 -7.264999,6.213999c-0.042,0.263 -0.068001,0.529001 -0.081001,0.799999h-11.424999c-0.414,0 -0.75,0.336002 -0.75,0.75s0.336,0.75 0.75,0.75h11.507c0.042,0.272003 0.098999,0.538002 0.171001,0.800003c0.856998,3.114998 3.709,5.414001 7.093998,5.414001c4.060001,0 7.362,-3.303001 7.362,-7.363003c0,-4.060999 -3.302998,-7.365 -7.362999,-7.365zm0,13.228003c-3.234001,0 -5.863998,-2.631001 -5.863998,-5.862999c0,-3.234001 2.629997,-5.864 5.863998,-5.864c3.231998,0 5.862,2.629999 5.862,5.864c0.000999,3.231998 -2.628998,5.862999 -5.862,5.862999z"/>
   <rect fill="#ffffff" id="svg_37" height="5.146" width="2" y="31.681" x="47.87"/>
   <path fill="#ffffff" id="svg_38" d="m48.869999,28.896999c-0.553001,0 -1,0.448 -1,1v0.124001c0,0.551998 0.446999,1 1,1s1,-0.447001 1,-1v-0.124001c0,-0.552 -0.446999,-1 -1,-1z"/>
  </g>
 </g>
</svg>