<svg width="60" height="60" xmlns="http://www.w3.org/2000/svg">
 <g>
  <title>Layer 1</title>
  <g id="svg_38">
   <path fill="#ffffff" id="svg_39" d="m46.762001,32.088001c-0.471001,0.434998 -1.113003,1.011997 -1.75,1.556999h3.112999c0.952999,0 1.862999,0.188999 2.696999,0.524998v-1.656998c-0.849998,-0.272999 -1.755997,-0.424999 -2.696999,-0.424999h-1.362999l0,0z"/>
   <path fill="#ffffff" id="svg_40" d="m24.705,45.098v-4.186001c0,-4.007 3.261,-7.267998 7.266001,-7.267998h3.114998c-0.639,-0.544003 -1.280998,-1.122002 -1.751999,-1.556999h-1.362999c-4.873001,0 -8.822001,3.949997 -8.822001,8.823997v4.186001h1.556l0,0.000999z"/>
   <path fill="#ffffff" id="svg_41" d="m37.561001,33.938999c0.719002,0.424 1.550999,0.644001 2.481998,0.650002h0.006001h0.006001c0.928001,-0.007 1.764,-0.227001 2.482002,-0.650002c0.812,-0.479 3.424,-2.847 3.952999,-3.377001c1.024998,-1.022999 1.517998,-2.598 1.471001,-4.66v-2.851999c0,-4.361 -3.551003,-7.911 -7.912003,-7.911c-4.362999,0 -7.911999,3.55 -7.911999,7.911v2.834999c-0.049,2.08 0.445,3.654001 1.469002,4.678001c0.532997,0.532 3.145996,2.901001 3.954998,3.375999zm-2.855999,-4.476999c-0.710999,-0.711 -1.050999,-1.902 -1.012001,-3.559999v-2.852001c0,-3.504 2.850002,-6.354 6.355,-6.354c3.504002,0 6.355003,2.851 6.355003,6.354v2.871c0.036999,1.639 -0.303001,2.83 -1.016003,3.542c-0.599998,0.601 -3.044998,2.782999 -3.642998,3.136c-0.479,0.283001 -1.049,0.429001 -1.697002,0.435001c-0.647999,-0.006001 -1.221001,-0.151001 -1.698997,-0.436001c-0.592003,-0.348999 -3.039005,-2.534 -3.643002,-3.136z"/>
   <path fill="#ffffff" id="svg_42" d="m27.976,28.354l-13.473,-7.778c-0.253,-0.146 -0.539001,-0.224001 -0.829,-0.224001c-0.918,0 -1.664,0.746 -1.664,1.663v15.556999c0,0.917004 0.745999,1.663002 1.664,1.663002c0.29,0 0.575,-0.077999 0.829,-0.224998l13.473,-7.778002c0.52,-0.300999 0.832001,-0.838999 0.832001,-1.438999s-0.312,-1.139002 -0.832001,-1.439001zm-14.408999,9.216999v-15.556c0,-0.07 0.054999,-0.097 0.113999,-0.097c0.013,0 0.029,0.001999 0.043,0.004999l13.473001,7.778c0.014,0.008001 0.053999,0.030001 0.053999,0.091002c0,0.061998 -0.039999,0.084 -0.053999,0.091999l-13.473001,7.778999c-0.04,0.023003 -0.157,0.066002 -0.157,-0.091999z"/>
   <path fill="#ffffff" id="svg_43" d="m47.015999,47.951c3.674,0 6.66,-2.987 6.66,-6.659v-22.584c0,-3.671 -2.986,-6.659 -6.66,-6.659h-34.032999c-3.67,0 -6.658,2.988 -6.658,6.659v22.584c0,3.672001 2.988,6.659 6.658,6.659h34.032999l0,0zm-39.134999,-6.659v-22.584c0,-2.813 2.289,-5.103001 5.102,-5.103001h34.032999c2.814003,0 5.104,2.289001 5.104,5.103001v22.584c0,2.813 -2.288998,5.103001 -5.104,5.103001h-34.032999c-2.814,0 -5.102,-2.290001 -5.102,-5.103001z"/>
  </g>
 </g>
</svg>