<?xml version="1.0" encoding="utf-8"?>
<!-- Generator: Adobe Illustrator 21.0.0, SVG Export Plug-In . SVG Version: 6.00 Build 0)  -->
<svg version="1.1" id="Layer_1" xmlns="http://www.w3.org/2000/svg" xmlns:xlink="http://www.w3.org/1999/xlink" x="0px" y="0px"
	 viewBox="0 0 17 17" style="enable-background:new 0 0 17 17;" xml:space="preserve">
<style type="text/css">
	.st0{opacity:0.749;enable-background:new    ;}
	.st1{clip-path:url(#SVGID_2_);}
	.st2{clip-path:url(#SVGID_4_);fill:#FFFFFF;}
	.st3{fill:none;stroke:#FFFFFF;stroke-width:0.75;stroke-linecap:round;stroke-linejoin:round;}
	.st4{fill:none;stroke:#FFFFFF;stroke-width:0.75;}
</style>
<g class="st0">
	<g>
		<defs>
			<rect id="SVGID_1_" x="-30" y="-35" width="119" height="21"/>
		</defs>
		<clipPath id="SVGID_2_">
			<use xlink:href="#SVGID_1_"  style="overflow:visible;"/>
		</clipPath>
		<g class="st1">
			<defs>
				<rect id="SVGID_3_" x="-1339" y="-4240" width="1920" height="13398"/>
			</defs>
			<clipPath id="SVGID_4_">
				<use xlink:href="#SVGID_3_"  style="overflow:visible;"/>
			</clipPath>
			<path class="st2" d="M-29.7-23.1c0.7,0.8,1.8,1.3,3.4,1.3c2.2,0,3.2-1.1,3.2-2.6c0-1.8-1.7-2.2-3-2.5c-0.9-0.2-1.6-0.4-1.6-0.9
				c0-0.5,0.4-0.8,1.1-0.8c0.8,0,1.7,0.3,2.3,0.9l0.9-1.2c-0.8-0.7-1.8-1.1-3.1-1.1c-1.9,0-3,1.1-3,2.4c0,1.8,1.7,2.2,3,2.5
				c0.9,0.2,1.6,0.4,1.6,1c0,0.5-0.5,0.9-1.4,0.9c-1.1,0-2-0.5-2.5-1.1L-29.7-23.1z"/>
			<polygon class="st2" points="-16.5,-22 -14.8,-22 -14.8,-30 -16.5,-30 -16.5,-26.9 -20.3,-26.9 -20.3,-30 -22,-30 -22,-22 
				-20.3,-22 -20.3,-25.4 -16.5,-25.4 			"/>
			<path class="st2" d="M-9.9-28.3l1.2,3.4h-2.5L-9.9-28.3z M-7.7-22h1.9l-3.1-8H-11l-3.1,8h1.9l0.5-1.4h3.4L-7.7-22z"/>
			<path class="st2" d="M-0.3-27.4c0,0.7-0.5,1.1-1.2,1.1h-1.8v-2.2h1.8C-0.9-28.5-0.3-28.1-0.3-27.4z M-0.5-22h2l-1.8-3
				c0.9-0.2,1.8-1,1.8-2.4c0-1.5-1-2.6-2.7-2.6H-5v8h1.7v-2.8h1.2L-0.5-22z"/>
			<polygon class="st2" points="2.7,-22 8.4,-22 8.4,-23.5 4.4,-23.5 4.4,-25.3 8.3,-25.3 8.3,-26.8 4.4,-26.8 4.4,-28.5 8.4,-28.5 
				8.4,-30 2.7,-30 			"/>
			<path class="st2" d="M9.5-22.8c0,0.5,0.4,1,1,1c0.5,0,1-0.4,1-1s-0.4-1-1-1C9.9-23.8,9.5-23.4,9.5-22.8z M9.5-26.9
				c0,0.5,0.4,1,1,1c0.5,0,1-0.4,1-1c0-0.5-0.4-1-1-1C9.9-27.9,9.5-27.4,9.5-26.9z"/>
		</g>
	</g>
</g>
<path class="st3" d="M52-3.8l-1.1,0l0.5-1.4l-2.2,0.8c-0.1-0.1-0.2-0.2-0.3-0.2c-0.9-0.7-2.1-1-3.5-0.7c-3.3,0.6-2.9,4.8-2.9,4.8
	s-2.7-1.4-3.7-1.9c-1-0.6-3.9-2.5-3.9-2.5c-0.8,4.5,1.4,5.3,1.4,5.3l-2.2,0c0.3,2.6,3.1,3.5,3.1,3.5l-1.8,0.4c0,0,1.1,1,1.8,1.6
	c0.7,0.6,1.6,0.9,1.6,0.9l-4.4,0.5c3.1,2.3,7.2,4.2,12.2-0.2c3-2.7,4.2-6.1,4-8.7L52-3.8z"/>
<path class="st4" d="M15.7,15V2c0-0.6-0.5-1.1-1.1-1.1H2.1C1.5,0.9,1,1.4,1,2V15C1,15.6,1.5,16,2.1,16h6.5c0.3,0,0.6-0.3,0.6-0.6
	V8.4H7.4V7.1h1.9V6.7c0-1.3,0.3-2.4,1-3.1c0.6-0.6,1.4-0.8,2.2-0.8c0.6,0,1.1,0.1,1.4,0.3l-0.2,1.3c-0.3-0.1-0.6-0.2-1-0.2
	c-1.4,0-1.7,1.2-1.7,2.6v0.5H13l-0.2,1.3h-1.9v7.1c0,0.3,0.3,0.6,0.6,0.6h3.2C15.2,16,15.7,15.6,15.7,15z"/>
<path class="st4" d="M45-14.4V-25H47v10.6H45z M47.2-28c0,0.6-0.5,1.2-1.2,1.2c-0.7,0-1.2-0.5-1.2-1.2c0-0.7,0.5-1.2,1.2-1.2
	S47.2-28.7,47.2-28z"/>
<path class="st4" d="M50.1-22.2c0-1.1,0.1-2,0-2.9h1.8v1.7h0c0.5-1,1.7-2,3.5-2c1.5,0,3.8,0.9,3.8,4.5v6.3h-1.9v-6.1
	c0-1.7-0.6-3.1-2.5-3.1c-1.3,0-2.2,0.9-2.6,2c-0.1,0.3-0.1,0.6-0.1,0.9v6.4h-1.9V-22.2z"/>
</svg>
