<?xml version="1.0" encoding="utf-8"?>
<!-- Generator: Adobe Illustrator 21.0.0, SVG Export Plug-In . SVG Version: 6.00 Build 0)  -->
<svg version="1.1" id="Layer_1" xmlns="http://www.w3.org/2000/svg" xmlns:xlink="http://www.w3.org/1999/xlink" x="0px" y="0px"
	 viewBox="0 0 17 17" style="enable-background:new 0 0 17 17;" xml:space="preserve">
<style type="text/css">
	.st0{fill:none;stroke:#3F8372;stroke-width:0.75;}
</style>
<g>
	<g>
		<path class="st0" d="M15.7,15V2c0-0.6-0.5-1.1-1.1-1.1H2.1C1.5,0.9,1,1.4,1,2v13c0,0.6,0.5,1,1.1,1h6.5c0.3,0,0.6-0.3,0.6-0.6v-7
			H7.4V7.1h1.9V6.7c0-1.3,0.3-2.4,1-3.1c0.6-0.6,1.4-0.8,2.2-0.8c0.6,0,1.1,0.1,1.4,0.3l-0.2,1.3c-0.3-0.1-0.6-0.2-1-0.2
			c-1.4,0-1.7,1.2-1.7,2.6v0.5h2l-0.2,1.3h-1.9v7.1c0,0.3,0.3,0.6,0.6,0.6h3.2C15.2,16,15.7,15.6,15.7,15z"/>
	</g>
</g>
</svg>
