<svg width="60" height="60" xmlns="http://www.w3.org/2000/svg">
 <g>
  <title>Layer 1</title>
  <g id="svg_91">
   <polygon id="svg_92" fill="#ffffff" points="35.002,20.2 33.317,20.858 29.903,18.322 24.667,20.714 23.163,23.05 24.079,22.631    29.719,20.055 31.325,21.247 33.09,22.558 35.831,21.486  "/>
   <path id="svg_93" fill="#ffffff" d="m30,7.359l-10.826,16.803c0.173,0.021 0.346001,0.041 0.518,0.076c0.354,0.071001 0.693001,0.176001 1.022001,0.302999l9.285999,-14.412001l27.167999,42.168001c0.144001,0.223 0.384998,0.343998 0.631001,0.343998c0.139999,0 0.279999,-0.037998 0.405998,-0.119999c0.348,-0.223999 0.448002,-0.688 0.224003,-1.035999l-28.429001,-44.126z"/>
   <path id="svg_94" fill="#ffffff" d="m1.57,51.484001c-0.225,0.348999 -0.124,0.812 0.224,1.035999c0.348,0.225002 0.812,0.125 1.037,-0.223999l5.876,-9.118999c-0.254,-0.611 -0.436999,-1.257999 -0.54,-1.931999l-6.597,10.238998z"/>
   <path id="svg_95" fill="#ffffff" d="m28.856001,35.831001l5.743002,-8.914l10.542,16.361002h-16.996002c-0.383001,0.556999 -0.838001,1.060997 -1.351,1.5h16.789v7.862h8.622002c0.413998,0 0.75,-0.336002 0.75,-0.75s-0.336002,-0.75 -0.75,-0.75h-7.122002v-6.362h2.807999l-13.292,-20.631004l-6.588999,10.227001c0.334,0.452 0.621,0.936001 0.846001,1.457001z"/>
   <path id="svg_96" fill="#ffffff" d="m24.115999,49.890999h1.317001c0.062,0 0.122,0.013 0.182999,0.019001v-4.300999c-0.472,0.271 -0.973,0.493999 -1.5,0.66v3.621998l0,0z"/>
   <path id="svg_97" fill="#ffffff" d="m20.448999,25.791c-0.02,-0.007999 -0.038,-0.019001 -0.058001,-0.026001c-0.305,-0.125999 -0.618,-0.233999 -0.948,-0.302c-0.341999,-0.069 -0.684999,-0.099998 -1.025,-0.104c-0.030001,-0.000999 -0.058001,-0.008999 -0.087999,-0.008999c-0.014002,0 -0.026001,0.004 -0.040001,0.004c-0.315001,0.003 -0.625999,0.038 -0.933001,0.094c-0.057999,0.011 -0.115999,0.02 -0.174,0.032c-0.296,0.064001 -0.584999,0.156 -0.865999,0.27c-0.047001,0.02 -0.092001,0.039 -0.137001,0.059c-0.287,0.125999 -0.563,0.273001 -0.825999,0.448999c-0.014,0.01 -0.026,0.02 -0.04,0.029001c-0.126,0.085999 -0.251,0.171999 -0.37,0.268999c-0.401,0.328001 -0.741,0.711 -1.026,1.128c-0.013,0.018 -0.024,0.034 -0.036,0.052c-0.181,0.27 -0.336,0.555 -0.464,0.851999c-0.011001,0.026001 -0.021,0.053001 -0.032001,0.079c-0.125,0.302999 -0.224999,0.616001 -0.292,0.939001c-0.004,0.019999 -0.006,0.039 -0.01,0.059c-0.066,0.338999 -0.106,0.684999 -0.106,1.036999c0,0.041 0.009,0.08 0.01,0.118999c0.004,0.223001 0.021,0.441 0.053,0.657001c0.011999,0.077999 0.03,0.153999 0.044999,0.230999c0.038,0.195 0.084001,0.387001 0.143001,0.574001c0.01,0.028999 0.013,0.061001 0.022,0.09c0.186,0.550999 -0.067,1.195 -0.601001,1.532997c-2.089999,1.326 -3.337,3.592003 -3.337,6.061001c0,3.882 3.096001,7.055 6.98,7.181004v3.993999h-8.498999c-0.414,0 -0.75,0.335999 -0.75,0.75s0.336,0.75 0.75,0.75h9.998v-0.75v-5.110001c0,-0.438 -0.351999,-1.132 -1.298,-1.132c-3.132999,0 -5.683,-2.550003 -5.683,-5.683002c0,-1.952999 0.987,-3.743999 2.641,-4.792999c0.376,-0.237999 0.676001,-0.558998 0.902,-0.917999c0.35,0.387001 0.753,0.730999 1.216,1.012001c0.121,0.073997 0.256001,0.108997 0.389,0.108997c0.253,0 0.5,-0.128998 0.642,-0.362c0.215,-0.354 0.101999,-0.814999 -0.253,-1.029999c-0.830999,-0.503002 -1.417999,-1.27 -1.691999,-2.154001c-0.042,-0.130999 -0.072001,-0.264 -0.1,-0.397999c-0.011,-0.061001 -0.026,-0.119001 -0.035,-0.18c-0.021,-0.141001 -0.03,-0.285 -0.033999,-0.429001c-0.002001,-0.040998 -0.008,-0.080999 -0.008,-0.122c0,-0.066 0.016,-0.129 0.02,-0.195c0.01,-0.205 0.025001,-0.41 0.067,-0.608c0.024,-0.115 0.069,-0.222 0.104,-0.332001c0.044,-0.143999 0.085999,-0.286999 0.146,-0.424c0.052,-0.117001 0.118,-0.225 0.182,-0.334999c0.068,-0.119001 0.136,-0.238001 0.217,-0.35c0.073999,-0.104 0.158999,-0.200001 0.243,-0.296c0.094,-0.105001 0.191,-0.207001 0.297,-0.303001c0.092999,-0.084 0.188,-0.163 0.287999,-0.237c0.122002,-0.091 0.249001,-0.17 0.379002,-0.243999c0.099998,-0.058001 0.198,-0.117001 0.303999,-0.166c0.156,-0.07 0.316999,-0.124001 0.48,-0.174c0.092001,-0.028 0.179001,-0.063 0.271,-0.084c0.205,-0.047001 0.416,-0.067001 0.627001,-0.08c0.063,-0.004 0.122999,-0.019001 0.188,-0.019001c0.271,-0.003 0.546,0.022001 0.82,0.076c0.243,0.051001 0.479,0.125 0.703001,0.219c0.014,0.006001 0.025,0.013 0.039,0.019001c0.197001,0.084999 0.382999,0.188999 0.562,0.305c0.039999,0.026999 0.080999,0.053999 0.121,0.081999c0.149,0.105 0.289,0.224001 0.421999,0.349001c0.039,0.036999 0.081001,0.069 0.118,0.108c0.152,0.153999 0.291,0.321999 0.414,0.500999c0.041,0.058001 0.072001,0.121 0.109001,0.181c0.080999,0.132999 0.157999,0.269001 0.223,0.411001c0.034,0.073 0.063999,0.148998 0.094,0.226c0.057001,0.146 0.101999,0.296 0.139999,0.448999c0.019001,0.073 0.040001,0.145 0.053001,0.219999c0.039999,0.212 0.063,0.43 0.066,0.653c0.003,0.213001 -0.01,0.426001 -0.042,0.637001c-0.071001,0.452999 -0.030001,0.898998 0.091,1.313999c-0.103001,-0.005001 -0.202,-0.021 -0.305,-0.021c-0.414,0 -0.75,0.335999 -0.75,0.75s0.336,0.75 0.75,0.75c0.452999,0 0.902,0.063 1.330999,0.188c0.188,0.055 0.373001,0.121002 0.553001,0.198002c1.785,0.764999 2.938,2.523998 2.942999,4.483997c-0.004,2.051003 -1.269999,3.806 -3.059,4.544003c-0.549,0.219997 -1.143,0.349998 -1.768999,0.349998c-0.974001,0 -1.913,-0.292 -2.715,-0.843998c-0.341999,-0.235001 -0.808001,-0.150002 -1.042999,0.191998c-0.235001,0.341 -0.148001,0.808002 0.191999,1.042999c0.534,0.367001 1.113998,0.646 1.723,0.831001c-0.005999,0.050999 -0.015999,0.099998 -0.015999,0.150002v6.673v0.75h5.372c0.414,0 0.75,-0.336002 0.75,-0.75s-0.336,-0.75 -0.75,-0.75h-3.872v-4.540001v-0.045002v-1.206997c0.059,0.001999 0.117001,0.007999 0.174999,0.016998h0.000999l0.005001,-0.034c0.025,0.000999 0.049999,0.006001 0.075001,0.006001v0.035999c0.009998,0 0.019999,0 0.028,0c0.884998,-0.003998 1.727999,-0.188 2.493,-0.515999c2.292,-0.959999 3.908998,-3.239002 3.908998,-5.895c0,-0.002998 -0.000999,-0.006001 -0.000999,-0.008999c0,-0.004002 0.000999,-0.007999 0.000999,-0.012001c0,-2.618 -1.460999,-4.865002 -3.811998,-5.862999c-0.578001,-0.245003 -0.923,-0.901001 -0.819,-1.561001c0.039999,-0.262001 0.059,-0.526001 0.059999,-0.792c0,-0.009001 0.004999,-0.017 0.004999,-0.026001c0,-0.007999 -0.001999,-0.015999 -0.001999,-0.024c-0.002001,-0.278 -0.024,-0.557999 -0.068001,-0.836c-0.007,-0.039999 -0.021,-0.077999 -0.028,-0.116999c-0.018999,-0.1 -0.046,-0.193001 -0.069,-0.290001c-0.056999,-0.230999 -0.125,-0.455999 -0.209999,-0.675999c-0.031,-0.08 -0.062,-0.159 -0.098,-0.237001c-0.121,-0.272999 -0.261002,-0.535 -0.425001,-0.782c-0.007999,-0.011 -0.013,-0.021999 -0.02,-0.032999c-0.375999,-0.559 -0.856998,-1.035 -1.410999,-1.415001c-0.023001,-0.015999 -0.046,-0.030001 -0.069,-0.046c-0.263,-0.177999 -0.539001,-0.329 -0.831001,-0.455z"/>
   <polygon id="svg_98" fill="#ffffff" points="31.266,52.641 32.766,52.641 32.766,48.993 36.433,48.993 36.433,52.641 37.933,52.641    37.933,47.493 31.266,47.493  "/>
  </g>
 </g>
</svg>