<?xml version="1.0" encoding="utf-8"?>
<!-- Generator: Adobe Illustrator 21.0.0, SVG Export Plug-In . SVG Version: 6.00 Build 0)  -->
<svg version="1.1" id="Layer_1" xmlns="http://www.w3.org/2000/svg" xmlns:xlink="http://www.w3.org/1999/xlink" x="0px" y="0px"
	 viewBox="0 0 16.3 16.7" style="enable-background:new 0 0 16.3 16.7;" xml:space="preserve">
<style type="text/css">
	.st0{fill:none;stroke:#3F8372;stroke-width:0.75;}
</style>
<path class="st0" d="M1,15.6V5h2v10.6H1z M3.2,2c0,0.6-0.5,1.2-1.2,1.2C1.3,3.1,0.8,2.6,0.8,2c0-0.7,0.5-1.2,1.2-1.2S3.2,1.3,3.2,2z
	"/>
<path class="st0" d="M6.1,7.8c0-1.1,0.1-2,0-2.9h1.8v1.7l0,0c0.5-1,1.7-2,3.5-2c1.5,0,3.8,0.9,3.8,4.5v6.3h-1.9v-6
	c0-1.7-0.6-3.1-2.5-3.1c-1.3,0-2.2,0.9-2.6,2C8.1,8.6,8.1,8.9,8.1,9.2v6.4h-2V7.8z"/>
</svg>
