<svg width="60" height="60" xmlns="http://www.w3.org/2000/svg">
 <g>
  <title>Layer 1</title>
  <g id="svg_98">
   <path id="svg_99" fill="#ffffff" d="m10.998,39.716999h-6.285c-0.441,0 -0.799,0.356998 -0.799,0.798c0,0.440998 0.357,0.799 0.799,0.799h7.764c-0.545,-0.480999 -1.045,-1.012001 -1.479,-1.597z"/>
   <path id="svg_100" fill="#ffffff" d="m55.287998,39.716999h-10.932999v1.597h10.932999c0.440002,0 0.798,-0.356998 0.798,-0.799c0,-0.440998 -0.356998,-0.798 -0.798,-0.798z"/>
   <path id="svg_101" fill="#ffffff" d="m23.231001,14.067c0.049,0.009999 0.092001,0.03 0.139999,0.04c0.241001,0.056 0.479,0.127 0.716002,0.205c0.106998,0.035 0.220999,0.057 0.327,0.097c-0.006001,-0.067 -0.015001,-0.134001 -0.017,-0.203c-0.003,-0.063001 -0.013,-0.126 -0.013,-0.190001c0,-0.341 0.035,-0.672999 0.101,-0.995c0.002001,-0.009 0.003,-0.019 0.005001,-0.028c0.064999,-0.313 0.160999,-0.615 0.281,-0.905c0.007999,-0.017 0.014,-0.034 0.021,-0.051001c0.123999,-0.288 0.271999,-0.561999 0.445999,-0.818999c0.006001,-0.01 0.014999,-0.021001 0.021,-0.031c0.356001,-0.522 0.808001,-0.973001 1.33,-1.33c0.009001,-0.006001 0.018,-0.013 0.026001,-0.02c0.244999,-0.164 0.505999,-0.301 0.775999,-0.421c0.046,-0.021 0.093,-0.041 0.139999,-0.06c0.256001,-0.103 0.521002,-0.186 0.796001,-0.247c0.064999,-0.015 0.132999,-0.025001 0.198,-0.037001c0.275999,-0.049999 0.556999,-0.082999 0.845999,-0.084999c0.050001,0 0.1,0.004 0.148001,0.004999c0.65,0.014 1.271,0.143001 1.837,0.38c0.021,0.009 0.041,0.02 0.061001,0.029c0.254,0.11 0.493,0.244 0.721998,0.392c0.056999,0.038 0.114002,0.075 0.169003,0.113999c0.189999,0.134001 0.368,0.285001 0.536999,0.444c0.056,0.052 0.115002,0.098001 0.167999,0.152c0.195999,0.201 0.375,0.417999 0.535999,0.65c0.055,0.079 0.099003,0.165 0.148003,0.248c0.105,0.17 0.202999,0.344 0.286999,0.526c0.044998,0.098 0.084,0.198 0.123001,0.299c0.071999,0.189 0.132999,0.385 0.181999,0.584001c0.008999,0.035999 0.019001,0.070999 0.027,0.108c0.042,-0.032001 0.084999,-0.063001 0.128998,-0.094c0.073002,-0.054 0.146,-0.111 0.221001,-0.162001c0.131001,-0.087 0.267002,-0.165 0.401001,-0.243999c0.107998,-0.063001 0.216999,-0.127 0.327,-0.186c0.118,-0.062 0.237999,-0.119 0.359001,-0.174001c-0.007,-0.019 -0.014,-0.035999 -0.02,-0.054999c-0.019001,-0.058001 -0.042,-0.113 -0.062,-0.169001c-0.075001,-0.212999 -0.16,-0.421 -0.256001,-0.624c-0.044998,-0.096 -0.088001,-0.191 -0.138,-0.285c-0.113998,-0.215 -0.236,-0.425 -0.374001,-0.626c-0.080997,-0.12 -0.169998,-0.231999 -0.259998,-0.347c-0.070999,-0.092999 -0.146,-0.184999 -0.223999,-0.273c-0.362003,-0.421 -0.776001,-0.792 -1.232002,-1.109c-0.055,-0.038 -0.109001,-0.073999 -0.163998,-0.108999c-0.271,-0.177 -0.555,-0.332001 -0.852001,-0.467c-0.07,-0.032 -0.139,-0.068 -0.210001,-0.098c-0.143999,-0.059 -0.289,-0.111 -0.438,-0.161c-0.169001,-0.057 -0.341999,-0.105 -0.518,-0.148c-0.070999,-0.017 -0.136999,-0.044 -0.208,-0.06c-0.066999,-0.014 -0.136,-0.019 -0.202999,-0.03c-0.176001,-0.032 -0.353001,-0.061 -0.532001,-0.079c-0.036999,-0.003 -0.073999,-0.002 -0.112,-0.005c-0.177,-0.014 -0.354,-0.027 -0.534,-0.027c-0.028,0 -0.056999,0.004 -0.084999,0.004c-0.048,0.001 -0.095001,0.005 -0.144001,0.007c-0.191999,0.006 -0.383999,0.019 -0.573,0.042c-0.059,0.007 -0.118,0.018 -0.177,0.027c-0.171999,0.025 -0.344,0.056 -0.511,0.095c-0.074999,0.017 -0.15,0.038 -0.225,0.058c-0.144999,0.039 -0.288,0.081 -0.429998,0.13c-0.093,0.031 -0.183001,0.064 -0.273001,0.1c-0.115999,0.045 -0.229,0.095 -0.343,0.146c-0.105999,0.049 -0.211,0.098001 -0.313,0.152c-0.087999,0.045 -0.173,0.096 -0.257,0.146c-0.120001,0.069 -0.238001,0.138 -0.353001,0.214c-0.047998,0.032 -0.094,0.069 -0.140999,0.102c-0.125,0.089 -0.252001,0.172999 -0.372,0.271c-0.323,0.265 -0.611,0.561 -0.875,0.874c-0.018002,0.021 -0.036001,0.04 -0.053001,0.061c-0.112999,0.138 -0.219,0.282001 -0.32,0.428c-0.025999,0.037 -0.052,0.073 -0.077,0.11c-0.094999,0.142 -0.181999,0.287001 -0.264999,0.436c-0.027,0.048 -0.054001,0.096001 -0.078001,0.143001c-0.077,0.146 -0.147999,0.292 -0.213999,0.443c-0.025002,0.059 -0.048,0.118 -0.072001,0.177c-0.059999,0.146 -0.115,0.295 -0.163,0.446c-0.021,0.066999 -0.038,0.135 -0.059,0.203c-0.042,0.15 -0.084,0.3 -0.115999,0.453c-0.015001,0.066 -0.021002,0.134 -0.034,0.202c-0.028,0.16 -0.058001,0.32 -0.074001,0.483c-0.000999,0.009 0,0.019 -0.001999,0.028c-0.02,0.21 -0.034,0.422 -0.034,0.637l0,0c0.151999,0.019 0.300999,0.033 0.448,0.063001z"/>
   <path id="svg_102" fill="#ffffff" d="m42.979,40.912998c-0.450001,0.615002 -0.966999,1.179001 -1.550999,1.665001v3.562l0,0c0,0.439999 0.356998,0.798 0.799,0.798c0.439999,0 0.798,-0.357002 0.798,-0.798l-0.046001,-5.227001z"/>
   <path id="svg_103" fill="#ffffff" d="m38.248001,44.298c0,0 -0.003002,0 -0.005001,0.000999c-0.513,0.160999 -1.044998,0.277 -1.591999,0.348v1.493c0,0.440002 0.357998,0.798 0.799,0.798c0.440998,0 0.798,-0.356998 0.798,-0.798l0,0v-1.841999l0,0z"/>
   <path id="svg_104" fill="#ffffff" d="m34.458,17.297001c0.123001,-0.285 0.271,-0.556999 0.440998,-0.812c0.009003,-0.013 0.019001,-0.025 0.026001,-0.038c0.355,-0.518999 0.805,-0.967999 1.323002,-1.323c0.010998,-0.007 0.021,-0.014999 0.029999,-0.021999c0.243,-0.163 0.504002,-0.3 0.772999,-0.42c0.048,-0.021 0.096001,-0.042 0.144001,-0.061c0.255001,-0.104 0.52,-0.186 0.792,-0.247001c0.067001,-0.014999 0.136002,-0.025 0.204002,-0.037999c0.273998,-0.049001 0.552998,-0.082001 0.841,-0.085c0.050999,0 0.102997,0.005 0.151997,0.006c0.648003,0.013 1.27,0.142 1.836002,0.38c0.02,0.008 0.037998,0.018 0.058998,0.027c0.253002,0.110999 0.493,0.245 0.723,0.393999c0.057003,0.037001 0.112003,0.073 0.168003,0.112c0.190998,0.134 0.368999,0.285 0.538998,0.445c0.054001,0.052 0.114002,0.098001 0.166,0.152c0.197002,0.201 0.375999,0.417001 0.535999,0.648999c0.056,0.08 0.101002,0.168001 0.151001,0.251001c0.103001,0.167999 0.199001,0.34 0.282001,0.521c0.047001,0.099998 0.087997,0.202 0.126999,0.305c0.070999,0.186998 0.129002,0.377998 0.178001,0.574999c0.024998,0.099001 0.055,0.196001 0.072998,0.298c0.049,0.264999 0.077,0.537001 0.082001,0.813999c0.005001,0.292 -0.007999,0.583 -0.052002,0.868c-0.098,0.623001 -0.023998,1.244001 0.183002,1.811001c-0.201,-0.016001 -0.402,-0.042 -0.604,-0.042c-0.441002,0 -0.799,0.357 -0.799,0.798s0.356998,0.797998 0.799,0.797998c0.588001,0 1.169998,0.082001 1.73,0.244001c0.244999,0.070999 0.484001,0.157 0.716999,0.257c2.32,0.994999 3.819,3.282999 3.823002,5.829c-0.006001,2.706999 -1.704002,5.018 -4.087002,5.944998c-0.341999,0.129002 -0.695999,0.231003 -1.063999,0.298c-0.006001,0.108002 -0.005001,0.220001 -0.016998,0.327c-0.027,0.288002 -0.069,0.571003 -0.123001,0.852001c-0.000999,0.006001 -0.000999,0.009998 -0.001999,0.016998c-0.031002,0.161003 -0.070004,0.317001 -0.110001,0.476002c0.75,-0.094002 1.468998,-0.284 2.139999,-0.570999c2.849998,-1.194 4.862,-4.030003 4.862,-7.333c0,-0.003 -0.001999,-0.007 -0.001999,-0.01c0,-0.006001 0.001999,-0.011 0.001999,-0.016001c0,-3.257 -1.817001,-6.050999 -4.741001,-7.292c-0.794998,-0.337 -1.27,-1.237999 -1.128998,-2.140999c0.050999,-0.322001 0.071999,-0.648001 0.072998,-0.975c0.000999,-0.014 0.007999,-0.025 0.007999,-0.039001c0,-0.337 -0.032997,-0.664999 -0.081997,-0.987999c-0.004002,-0.026001 -0.002003,-0.052 -0.006001,-0.079c-0.004002,-0.021999 -0.013,-0.042999 -0.016003,-0.065001c-0.052998,-0.302 -0.119999,-0.598 -0.211998,-0.883999c-0.017002,-0.052 -0.038002,-0.103001 -0.056999,-0.154001c-0.075001,-0.219 -0.164001,-0.432999 -0.262001,-0.640999c-0.042999,-0.093 -0.085999,-0.186001 -0.133999,-0.276001c-0.114002,-0.216999 -0.239002,-0.428999 -0.375999,-0.631c-0.080002,-0.118999 -0.170002,-0.23 -0.258003,-0.344c-0.072998,-0.094 -0.147999,-0.186 -0.225998,-0.276c-0.362999,-0.421 -0.776001,-0.793 -1.234001,-1.11c-0.053001,-0.037 -0.105,-0.071 -0.159,-0.105c-0.274998,-0.179999 -0.563,-0.337 -0.863998,-0.474c-0.065002,-0.03 -0.130001,-0.063 -0.197002,-0.091c-0.146,-0.061 -0.292999,-0.113 -0.442997,-0.162c-0.167,-0.057 -0.338001,-0.104 -0.512001,-0.146c-0.070999,-0.018001 -0.139,-0.047001 -0.212002,-0.062c-0.066998,-0.014 -0.134998,-0.018001 -0.202,-0.03c-0.175999,-0.032001 -0.354,-0.061001 -0.534,-0.078c-0.031998,-0.003 -0.063999,-0.003 -0.098,-0.005c-0.181999,-0.015 -0.362,-0.027 -0.546997,-0.027c-0.029003,0 -0.059002,0.004001 -0.088001,0.004001c-0.042999,0 -0.087002,0.004999 -0.131001,0.006c-0.196999,0.007 -0.394001,0.02 -0.587002,0.043c-0.056,0.007 -0.108997,0.017 -0.162998,0.025c-0.178001,0.027 -0.354,0.057 -0.525002,0.097c-0.070999,0.017 -0.143997,0.037 -0.213997,0.055c-0.148003,0.04 -0.295002,0.083001 -0.439003,0.132999c-0.09,0.030001 -0.177998,0.063001 -0.266998,0.098001c-0.118,0.046 -0.234001,0.097 -0.348999,0.149c-0.104,0.047 -0.208,0.096 -0.311001,0.148999c-0.089001,0.046 -0.175999,0.099 -0.264,0.150001c-0.116001,0.068 -0.230999,0.134 -0.344002,0.209c-0.055,0.037 -0.105,0.078 -0.159,0.115c-0.118,0.085 -0.240997,0.166 -0.355,0.259001c-0.317997,0.259999 -0.600998,0.551 -0.861,0.858c-0.022999,0.026999 -0.046997,0.052 -0.07,0.08c-0.110001,0.132999 -0.211998,0.272 -0.309998,0.414c-0.029003,0.042001 -0.060001,0.083 -0.088001,0.126c-0.091,0.138 -0.175999,0.278 -0.257,0.421999c-0.028999,0.054001 -0.059002,0.106001 -0.088001,0.161001c-0.071999,0.139999 -0.142998,0.282 -0.204998,0.427c-0.028,0.063999 -0.055,0.129999 -0.080002,0.195c-0.049,0.122999 -0.099998,0.243999 -0.140999,0.368999c0.032001,0.007 0.062,0.019001 0.092999,0.026001c0.237,0.056999 0.473,0.123999 0.701,0.202c0.16,0.052999 0.316002,0.108999 0.471001,0.171999c0.091999,0.038 0.18,0.081001 0.27,0.122002c0.039001,-0.119001 0.063999,-0.245001 0.112,-0.359001c0.010002,-0.022001 0.019001,-0.042 0.027,-0.063z"/>
   <path id="svg_105" fill="#ffffff" d="m23.933001,45.800999v2.917999l0,0c0,0.441002 0.356001,0.799 0.799,0.799c0.439001,0 0.798,-0.356998 0.798,-0.799l-0.021,-2.245998c-0.548,-0.18 -1.074001,-0.406998 -1.576,-0.672001z"/>
   <path id="svg_106" fill="#ffffff" d="m20.752001,43.196999c-0.555,-0.677998 -1.023001,-1.424 -1.393002,-2.229c-0.033998,-0.001999 -0.063999,-0.008999 -0.099998,-0.008999c-4.056001,0 -7.356001,-3.300999 -7.356001,-7.355999c0,-2.527 1.277,-4.846001 3.418,-6.204c0.516,-0.327 0.922,-0.774 1.204,-1.282c0.459,0.539 1.007,1.014999 1.643,1.4c0.129002,0.079 0.271,0.115999 0.413,0.115999c0.269001,0 0.533001,-0.136999 0.683001,-0.385c0.229,-0.376999 0.108,-0.868 -0.27,-1.095999c-1.114,-0.674 -1.882,-1.706001 -2.229,-2.883001c-0.032999,-0.109999 -0.057999,-0.221998 -0.083,-0.334c-0.032999,-0.151999 -0.064999,-0.305 -0.084,-0.462c-0.013,-0.09 -0.017,-0.181 -0.022999,-0.271c-0.012001,-0.184 -0.022001,-0.368 -0.015001,-0.555c0.001001,-0.033998 0.003,-0.069 0.005001,-0.104c0.014,-0.213999 0.041,-0.428999 0.080999,-0.646c0.007999,-0.042 0.013,-0.084999 0.021,-0.125999c0.042,-0.197001 0.098,-0.389 0.163,-0.577c0.040001,-0.115 0.09,-0.228001 0.139,-0.34c0.033001,-0.076 0.066,-0.152 0.103001,-0.226999c0.059,-0.118 0.122,-0.234001 0.188999,-0.347c0.034,-0.059 0.072001,-0.115 0.110001,-0.172001c0.278,-0.427 0.619999,-0.816999 1.025999,-1.149l0.001001,0c0.137999,-0.112 0.281,-0.213999 0.427999,-0.310999c0.018999,-0.012001 0.037001,-0.024 0.056,-0.037001c0.617001,-0.391001 1.308001,-0.639999 2.028999,-0.736c0.015001,-0.000999 0.029001,-0.004999 0.044001,-0.006001c0.132999,-0.017 0.269001,-0.022999 0.405001,-0.028999c0.064999,-0.003 0.130999,-0.007999 0.195999,-0.009001c0.094,-0.000999 0.188,0.006001 0.280001,0.011c0.108,0.005001 0.218,0.009001 0.324999,0.021002c0.041,0.004 0.083,0.012999 0.125,0.018c0.155001,0.021 0.311001,0.046999 0.462,0.083c0.006001,0.000999 0.013,0.004 0.019001,0.005999c0.305,0.073 0.601,0.18 0.886999,0.308001c0.077002,0.035 0.155001,0.069 0.229,0.108c0.1,0.051001 0.197001,0.107 0.296001,0.166c0.125999,0.077 0.248999,0.16 0.368,0.247999c0.049,0.036001 0.101999,0.069 0.148998,0.107c0.374001,0.299 0.707001,0.649 0.986,1.042c0.007,0.01 0.015001,0.02 0.021,0.030001c0.011002,0.014999 0.017,0.032 0.027,0.046c0.087,-0.077 0.168001,-0.161999 0.259001,-0.236c0.133999,-0.108999 0.277,-0.202999 0.417,-0.302c0.068001,-0.049 0.134001,-0.101999 0.202999,-0.149c0.133001,-0.088999 0.271,-0.167999 0.408001,-0.247999c0.006001,-0.003 0.01,-0.006001 0.014999,-0.009001c-0.046999,-0.066999 -0.1,-0.129 -0.147999,-0.195c-0.091002,-0.122999 -0.191,-0.239 -0.291,-0.355c-0.383001,-0.444 -0.82,-0.833 -1.306,-1.162001c-0.069,-0.046999 -0.139,-0.095999 -0.212,-0.140999c-0.161001,-0.101 -0.326,-0.194 -0.497002,-0.280001c-0.08,-0.04 -0.161999,-0.075 -0.243,-0.112c-0.241999,-0.110001 -0.49,-0.206 -0.747999,-0.287001c-0.167999,-0.054 -0.337999,-0.106 -0.511999,-0.146c-0.037001,-0.007999 -0.073,-0.024 -0.112001,-0.032c-0.119999,-0.024 -0.240999,-0.036 -0.361,-0.053c-0.097,-0.014999 -0.192999,-0.032 -0.289999,-0.042c-0.117001,-0.013 -0.232,-0.017 -0.351,-0.023c-0.140001,-0.008 -0.280001,-0.017 -0.423,-0.016c-0.087,0.000999 -0.174999,0.007 -0.261999,0.011c-0.168001,0.007 -0.336,0.017 -0.504002,0.037c-0.053999,0.007 -0.105999,0.017 -0.157999,0.024c-0.153,0.022 -0.306,0.039 -0.459,0.071c-0.044001,0.009 -0.086,0.026999 -0.130001,0.038c-0.066999,0.016 -0.132,0.04 -0.198,0.058c-0.358999,0.097 -0.705999,0.224 -1.039999,0.379c-0.069,0.032001 -0.139,0.061001 -0.206001,0.095c-0.16,0.082 -0.313999,0.170001 -0.466,0.265c-0.091,0.055 -0.178999,0.112999 -0.265999,0.173c-0.138,0.094 -0.273001,0.188999 -0.403002,0.293999c-0.019999,0.015001 -0.039999,0.027 -0.059999,0.042c-0.081999,0.068001 -0.156,0.144001 -0.235001,0.215c-0.141998,0.128 -0.280998,0.258001 -0.410999,0.398001c-0.146,0.156 -0.288,0.316 -0.417,0.485001c-0.076,0.098 -0.143,0.202 -0.212,0.303999c-0.092001,0.132 -0.179,0.266001 -0.259,0.404001c-0.065001,0.112999 -0.128,0.226999 -0.188001,0.342999c-0.073,0.146 -0.139,0.296001 -0.202,0.448c-0.046,0.109001 -0.095,0.217001 -0.135,0.330002c-0.092,0.258999 -0.167,0.525 -0.226,0.796c-0.003,0.014999 -0.009,0.028 -0.012,0.042999c-0.007999,0.038 -0.007,0.075001 -0.014999,0.113001c-0.052,0.274 -0.085,0.553999 -0.104,0.835999c-0.003,0.058001 -0.007,0.116001 -0.009,0.173c-0.003,0.083 -0.014,0.165001 -0.014,0.248001c0,0.133999 0.023,0.265999 0.032,0.399c0.01,0.153 0.018,0.303999 0.036,0.453999c0.023,0.172001 0.058,0.341002 0.094,0.51c0.039,0.183001 0.080999,0.364 0.135,0.542c0.016999,0.054001 0.023,0.111 0.040999,0.165001c0.258,0.763 -0.09,1.654999 -0.823999,2.122c-2.604,1.652 -4.159,4.475 -4.159,7.552c0,4.876999 3.92,8.855 8.848999,8.958v6.157001c0,0.440998 0.357,0.799 0.799002,0.799c0.439999,0 0.797998,-0.357002 0.797998,-0.799l0,0v-5.522003l0.004002,0z"/>
   <path id="svg_107" fill="#ffffff" d="m34.900002,43.375999c0.159,-0.012001 0.313999,-0.004002 0.469002,0.019001l0.006001,-0.043003c0.024998,0.001003 0.049999,0.006001 0.074997,0.006001v0.046001c0.012001,0 0.023003,0 0.036003,0c1.099998,-0.005001 2.146999,-0.231998 3.100998,-0.642002c2.851002,-1.193996 4.861,-4.028996 4.861,-7.330997c0,-0.004002 0,-0.007999 0,-0.009998c0,-0.007 0,-0.012001 0,-0.017002c0,-3.256001 -1.814999,-6.050001 -4.738998,-7.292c-0.796001,-0.337 -1.271,-1.237 -1.130001,-2.139999c0.050999,-0.323 0.071999,-0.651001 0.074001,-0.98c0,-0.012001 0.007,-0.022001 0.007,-0.035c0,-0.334002 -0.033001,-0.66 -0.081001,-0.980001c-0.005001,-0.028999 -0.001999,-0.057999 -0.007,-0.085999c-0.004002,-0.024 -0.012001,-0.047001 -0.018002,-0.071001c-0.050999,-0.298 -0.118,-0.59 -0.209,-0.874001c-0.017998,-0.056999 -0.042,-0.112 -0.062,-0.168999c-0.073997,-0.214001 -0.16,-0.421 -0.253998,-0.624001c-0.045002,-0.096001 -0.089001,-0.191 -0.138,-0.285c-0.114002,-0.215 -0.237999,-0.424999 -0.374001,-0.625999c-0.081001,-0.120001 -0.172001,-0.232 -0.259998,-0.347c-0.073002,-0.093 -0.146,-0.185001 -0.224003,-0.273001c-0.363998,-0.421 -0.775997,-0.792 -1.232998,-1.110001c-0.055,-0.036999 -0.109001,-0.073 -0.164001,-0.108c-0.271,-0.177 -0.555,-0.331999 -0.850998,-0.466999c-0.071003,-0.032 -0.140003,-0.068001 -0.211002,-0.098c-0.144001,-0.059 -0.288998,-0.112001 -0.438,-0.161001c-0.169998,-0.056999 -0.342999,-0.105 -0.517998,-0.147999c-0.071003,-0.017 -0.137001,-0.045 -0.209003,-0.060001c-0.069,-0.014 -0.139,-0.018999 -0.206997,-0.031c-0.174,-0.030998 -0.349001,-0.059999 -0.527002,-0.077c-0.039999,-0.004 -0.080999,-0.004 -0.120998,-0.007c-0.174002,-0.014 -0.349001,-0.025999 -0.525002,-0.025999c-0.028999,0 -0.056,0.004 -0.084,0.004c-0.050999,0.000999 -0.101,0.006001 -0.15,0.007999c-0.190001,0.007 -0.379999,0.019001 -0.566,0.041c-0.059999,0.007999 -0.120001,0.018999 -0.181,0.028c-0.171,0.025 -0.341,0.056 -0.51,0.094c-0.073999,0.018 -0.148001,0.038 -0.223,0.058001c-0.146,0.039 -0.290001,0.082001 -0.432001,0.129999c-0.091999,0.031 -0.179998,0.064001 -0.269999,0.099001c-0.117001,0.046 -0.233002,0.095999 -0.348001,0.149c-0.104,0.046999 -0.208,0.095999 -0.310999,0.149c-0.089001,0.046999 -0.176001,0.098999 -0.264,0.15c-0.116001,0.066999 -0.232,0.133999 -0.345001,0.209999c-0.050999,0.034 -0.098,0.072001 -0.146999,0.107c-0.124001,0.087 -0.249001,0.17 -0.367001,0.266001c-0.323,0.264999 -0.609999,0.560999 -0.873999,0.873999c-0.018,0.021 -0.037001,0.040001 -0.054001,0.061001c-0.112999,0.138 -0.219,0.281 -0.319,0.427999c-0.025999,0.037001 -0.052999,0.073 -0.077999,0.110001c-0.094,0.142 -0.182001,0.288 -0.266001,0.436001c-0.025,0.047998 -0.052,0.095999 -0.077,0.143999c-0.076,0.145 -0.148001,0.292 -0.214001,0.441999c-0.025,0.058001 -0.049,0.117001 -0.070999,0.177c-0.059999,0.146 -0.116001,0.294001 -0.164,0.446001c-0.021,0.066 -0.039001,0.135 -0.059,0.202999c-0.041,0.15 -0.084,0.300001 -0.116001,0.453001c-0.014,0.066 -0.021,0.135 -0.032999,0.202c-0.029001,0.16 -0.059,0.32 -0.075001,0.483c0,0.009001 0,0.018999 -0.000999,0.028c-0.021,0.215 -0.035999,0.431 -0.035999,0.65c0,0.063 0.014,0.125 0.015999,0.188c0.007,0.26 0.025,0.516001 0.062,0.769001c0.014999,0.098999 0.038,0.195999 0.056999,0.293999c0.047001,0.240002 0.104,0.476002 0.177,0.708c0.012001,0.036001 0.015001,0.075001 0.027,0.111c0.257999,0.763 -0.09,1.655001 -0.823999,2.121c-2.604,1.652 -4.159,4.475 -4.159,7.552c0,4.876999 3.92,8.854 8.848,8.957001v6.158001c0,0.440998 0.357,0.799 0.799,0.799c0.440001,0 0.798,-0.357002 0.798,-0.799l0,0v-6.477001c0,-0.495998 -0.404001,-1.283001 -1.491001,-1.283001c-4.056,0 -7.355999,-3.299999 -7.355999,-7.355c0,-2.528 1.277,-4.845999 3.417999,-6.204c0.518,-0.327999 0.925001,-0.778 1.207001,-1.289c0.461,0.542 1.004999,1.023001 1.639,1.407c0.129,0.079 0.271999,0.115002 0.413,0.115002c0.27,0 0.532999,-0.137001 0.684,-0.385c0.227999,-0.377001 0.107,-0.868 -0.271,-1.096001c-1.085001,-0.657 -1.852001,-1.659 -2.211,-2.813999c-0.054001,-0.171001 -0.094,-0.347 -0.129,-0.522001c-0.017,-0.08 -0.035,-0.157999 -0.048,-0.239c-0.024,-0.174 -0.035,-0.349998 -0.042,-0.525999c-0.002001,-0.063 -0.013,-0.125999 -0.013,-0.191c0,-0.34 0.035999,-0.672001 0.101,-0.993999c0.002001,-0.009001 0.003,-0.019001 0.005001,-0.027c0.064999,-0.314001 0.161999,-0.616001 0.282,-0.906c0.006001,-0.017 0.013,-0.035 0.021,-0.052c0.124001,-0.288 0.271999,-0.562 0.445,-0.819c0.007,-0.01 0.014999,-0.02 0.021,-0.030001c0.355,-0.521999 0.808001,-0.973 1.33,-1.33c0.007999,-0.005999 0.017,-0.014 0.026001,-0.019999c0.243,-0.164001 0.504,-0.302 0.775,-0.422001c0.046,-0.02 0.093,-0.041 0.139999,-0.059999c0.257,-0.104 0.522001,-0.187 0.799,-0.248001c0.064001,-0.014 0.129,-0.024 0.193001,-0.035999c0.277,-0.049999 0.559999,-0.083 0.851,-0.086c0.046999,0 0.094999,0.005001 0.142,0.005001c0.65,0.012999 1.273001,0.142 1.842001,0.379999c0.02,0.009001 0.039997,0.02 0.060997,0.028c0.253002,0.110001 0.491001,0.243999 0.722,0.392c0.057003,0.038 0.113003,0.073999 0.169003,0.114c0.189999,0.135 0.368,0.285 0.536999,0.444c0.056,0.052 0.113998,0.098 0.167999,0.152c0.195,0.201 0.375,0.417999 0.535,0.648998c0.055,0.079 0.099003,0.166 0.149002,0.248001c0.104,0.17 0.202,0.344 0.285999,0.525999c0.046001,0.098001 0.084999,0.198 0.123001,0.299002c0.072998,0.189999 0.132999,0.384998 0.182999,0.584999c0.021999,0.096001 0.052002,0.188999 0.069,0.287001c0.050999,0.272999 0.079998,0.553999 0.084999,0.841c0.005001,0.284 -0.010998,0.566999 -0.055,0.845999c-0.097,0.623001 -0.021999,1.244001 0.184002,1.811001c-0.201,-0.016001 -0.402,-0.042999 -0.604,-0.042999c-0.440002,0 -0.799,0.358 -0.799,0.798c0,0.441 0.357998,0.797998 0.799,0.797998c0.589001,0 1.170998,0.082001 1.730999,0.245001c0.244999,0.070999 0.484001,0.157 0.716,0.256001c2.32,0.994999 3.819,3.283001 3.824001,5.829998c-0.007,2.704002 -1.702,5.014999 -4.084999,5.944c-0.682003,0.257999 -1.416,0.405003 -2.187,0.405003c-1.267002,0 -2.485001,-0.379002 -3.527,-1.097c-0.362001,-0.249001 -0.860001,-0.159 -1.109001,0.205997c-0.250999,0.361 -0.159,0.859001 0.204,1.110001c0.698,0.479 1.462999,0.829002 2.263998,1.061001c-0.021,0.098999 -0.033997,0.202999 -0.033997,0.308998v8.457001l0,0c0,0.441002 0.357998,0.799 0.799,0.799s0.798,-0.356998 0.798,-0.799l-0.074001,-8.438z"/>
  </g>
 </g>
</svg>