<svg width="60" height="60" xmlns="http://www.w3.org/2000/svg">
 <g>
  <title>Layer 1</title>
  <g id="svg_43">
   <path fill="#ffffff" id="svg_44" d="m57.623001,40.794998l-17.542999,-24.240997c-0.126999,-0.176001 -0.322998,-0.288 -0.537998,-0.306999c-0.213001,-0.021 -0.43,0.052999 -0.586002,0.202l-6.554001,6.223l-0.863998,-0.784c0.780998,-2.011 1.345001,-3.834 1.345001,-4.92c0,-3.7 -3.010002,-6.709999 -6.710001,-6.709999s-6.710001,3.009999 -6.710001,6.709999c0,0.771 0.291,1.923 0.734001,3.241001l-2.582001,2.251999l-6.066999,-6.000999c-0.006001,-0.006001 -0.013,-0.007 -0.019,-0.013c-0.03,-0.028 -0.066,-0.046 -0.102,-0.067999c-0.045,-0.030001 -0.088,-0.062 -0.137,-0.081001c-0.036,-0.014 -0.073,-0.018 -0.111,-0.025c-0.052999,-0.011999 -0.104,-0.022999 -0.158999,-0.022999c-0.038,0 -0.076,0.008999 -0.115001,0.014999c-0.056,0.008999 -0.108,0.02 -0.162,0.041c-0.016,0.007 -0.032,0.004999 -0.047,0.011999c-0.024,0.012001 -0.04,0.033001 -0.062,0.048c-0.028,0.017 -0.059999,0.024 -0.085,0.045l-8.036002,6.488998c-0.264,0.213001 -0.352,0.577 -0.214,0.888l11.202,25.274c0.098,0.218998 0.292999,0.376999 0.526999,0.428001c0.235,0.052998 0.479,-0.014 0.656,-0.172001l7.962999,-7.080002l7.961,7.080002c0.024,0.022999 0.057001,0.033001 0.084,0.050999c0.025,0.018002 0.050001,0.033001 0.078001,0.047001c0.205999,0.105 0.444,0.111 0.653,0.014c0.011999,-0.006001 0.025,-0.004002 0.036999,-0.010002c0.023001,-0.014 0.037001,-0.035 0.059,-0.049c0.028002,-0.019997 0.061001,-0.028999 0.086,-0.052998l7.961002,-7.080002l7.411999,6.592003l0.352001,0.560997c0.142998,0.229 0.386997,0.352001 0.636997,0.352001c0.061001,0 0.123001,-0.009998 0.184002,-0.025002c0.047001,0.010002 0.092999,0.025002 0.140999,0.025002c0.178001,0 0.355,-0.062 0.498001,-0.188999l8.724998,-7.757999c0.285999,-0.257 0.334,-0.689003 0.108002,-1.001003zm-36.661001,-23.826998c0,-2.873 2.337,-5.21 5.210001,-5.21c2.872,0 5.209999,2.337 5.209999,5.21c0,2.253 -3.312,9.299 -5.209999,13.067999c-1.898001,-3.768999 -5.210001,-10.814999 -5.210001,-13.067999zm4.545,15.060999l0.665001,1.272999l0.664999,-1.272999c0.278999,-0.537001 1.545,-2.984001 2.846001,-5.813l8.921,14.871998l-7.285,6.479l-12.794001,-23.909998l2.217001,-1.933001c1.643999,4.278002 4.341,9.491001 4.764999,10.305zm-2.249001,8.746002l-9.694,-20.211l3.41,3.372999l11.484001,21.463001l-5.200001,-4.625zm-12.504999,-22.603001l10.975,22.879002l-7.271,6.465l-10.553001,-23.810003l6.849,-5.533998zm29.399,22.579998l-9.720001,-16.205c0.173,-0.393999 0.341002,-0.785 0.505001,-1.179001l0.455999,0.413c0.013,0.107 0.043001,0.214001 0.104,0.312l12.648001,20.209999l-3.993,-3.550999zm8.139,7.238003l-0.153999,-0.137001l-14.938,-23.868l6.167999,-5.858l16.644001,22.997999l-7.720001,6.865002z"/>
   <circle fill="#ffffff" id="svg_45" r="1.442" cy="17.123" cx="26.172"/>
  </g>
 </g>
</svg>