<?xml version="1.0" encoding="utf-8"?>
<!-- Generator: Adobe Illustrator 21.0.0, SVG Export Plug-In . SVG Version: 6.00 Build 0)  -->
<svg version="1.1" id="Layer_1" xmlns="http://www.w3.org/2000/svg" xmlns:xlink="http://www.w3.org/1999/xlink" x="0px" y="0px"
	 viewBox="0 0 1120 82" style="enable-background:new 0 0 1120 82;" xml:space="preserve">
<style type="text/css">
	.st0{fill:#6CC096;}
	.st1{fill:#64B08A;}
	.st2{fill:#55A67D;}
</style>
<path class="st0" d="M-25.9,59.2c0,0,66.6-5.7,106-1.3c38.9,2.8,52.3,1.7,83.7,1.6c51.5-0.2,121.7,12.3,172.2,5
	c20.8-3,104.2-16.7,139.8-17.2c35.4-0.5,130.6,8.9,130.6,8.9c6.2,1,21.4,1.5,27.7,0.8c31.4-3.2,69.9-5.8,113.1-1.7
	c65.5-1,108.6,8,125.3,8c16.9,0,50.5-13.4,67.8-14.7c24.1-1.8,95.8,12.9,95.8,12.9c3.1,0.6,6.2,0.9,9.3,0.8c8-0.2,15.5-2,23.1-3.6
	c2-0.5,57.3-14.2,77.5-14.7V-7H-25.9V59.2z"/>
<path class="st1" d="M1146,34.5c-26.7,0-105.6,15.5-105.6,15.5c-11.5,2.4-23.7,1.4-34.4-2.8c0,0-44-20.7-71.7-18
	c-27.3,0.1-49.7,7-71.2,9.8c-21.5,2.7-65.5,4.9-87.1,9c-12.6,2.4-31.6,3-41.8,0.2c-9.5-2.6-72.2-10.6-98.1-10.6
	c-25.9,0-70.4,5.2-95.9,5.9c-16.8,0.5-39.8-5.9-56.9-6.2c-23.1-0.3-58.4,1.5-86.1,3.4c-27.4,1.9-156.4,17.1-216.2,9.8
	c-17.6-0.9-47-9.5-77.6-11C89.9,38.8-26,46.1-26,46.1v-56h1172V34.5z"/>
<path class="st2" d="M-25.7,25.1c0,0,126.2-4.9,157.3-4.9c31.4,0,105.8,17.9,131.8,17.9s136.1-2.5,180.9-9
	c17.6-2.6,69.2-10.3,69.2-10.3c20-3.3,37-0.3,57.7,2.2c0,0,44.5,1.6,62.4,4.2S780.3,28,780.3,28c12.9,0.2,25.7-0.7,38.4-2.8
	l105.6-12c15.1-2.3,30.6-2.3,45.7,0.2l87.7,8.9c10.1,1.6,20.5,1.7,30.6,0.2l57.7-8.2V-24H-25.9v49.1C-25.9,25.1-25.7,25.1-25.7,25.1
	z"/>
</svg>
