<?xml version="1.0" encoding="utf-8"?>
<!-- Generator: Adobe Illustrator 16.0.4, SVG Export Plug-In . SVG Version: 6.00 Build 0)  -->
<!DOCTYPE svg PUBLIC "-//W3C//DTD SVG 1.1//EN" "http://www.w3.org/Graphics/SVG/1.1/DTD/svg11.dtd" [
	<!ENTITY st0 "fill:#FFFFFF;">
	<!ENTITY st1 "fill:none;stroke:#FFFFFF;stroke-width:0.35;">
]>
<svg version="1.1" id="Layer_1" xmlns="http://www.w3.org/2000/svg" xmlns:xlink="http://www.w3.org/1999/xlink" x="0px" y="0px"
	 width="22.5px" height="10.187px" viewBox="32.667 34.167 22.5 10.187" style="enable-background:new 32.667 34.167 22.5 10.187;"
	 xml:space="preserve">
<g>
	<path style="&st0;" d="M37.685,38.59c-0.083-0.083-0.247-0.247-0.371-0.371c-0.144-0.144-0.185-0.206-0.185-0.453v-1.091
		c0-0.165-0.247-0.124-0.247,0c0,0-0.021,1.893,0,2.038c0.021,0.144-0.062,0.288,0.206,0.453c0.288,0.185,0.7,0.288,0.7,0.288
		s0-0.412,0.021-0.556C37.788,38.775,37.746,38.693,37.685,38.59 M37.561,39.187L37.561,39.187c-0.412-0.165-0.473-0.124-0.412-0.72
		C37.602,38.734,37.561,38.837,37.561,39.187"/>
	<path style="&st0;" d="M38.035,38.94c0,0.165,0.021,0.556,0.021,0.556s0.412-0.124,0.7-0.288c0.247-0.165,0.185-0.288,0.206-0.453
		c0.021-0.165,0-2.038,0-2.038c0-0.144-0.247-0.165-0.247,0v1.091c0,0.247-0.042,0.288-0.186,0.453
		c-0.082,0.083-0.268,0.247-0.37,0.371C38.055,38.693,38.035,38.775,38.035,38.94 M38.672,38.446
		c0.062,0.597-0.021,0.556-0.412,0.72l0,0C38.24,38.837,38.199,38.734,38.672,38.446"/>
	<path style="&st0;" d="M38.22,37.479c-0.144-0.247,0,0-0.206-0.329v-1.194c0-0.185-0.247-0.165-0.247,0v1.214
		c0,0-0.206,0.35-0.247,0.474c-0.062,0.124-0.124,0.288,0.062,0.515c0.021,0.021,0.042,0.062,0.309,0.329l0,0c0,0,0,0,0.247-0.247
		C38.467,37.932,38.364,37.726,38.22,37.479 M37.911,38.179c-0.453-0.247-0.124-0.577,0-0.803v0.021
		C38.261,37.911,38.179,37.973,37.911,38.179"/>
	<path style="&st0;" d="M37.767,40.051c-0.021-0.247-0.083-0.432-0.577-0.617c-0.412-0.144-0.988-0.185-1.379-0.247
		c-0.412-0.083-1.111-0.185-1.461-0.515c0.247,0.865,0.905,1.214,1.564,1.379c0.741,0.165,1.399,0.227,1.832,0.515l0.042,0.041
		C37.746,40.381,37.788,40.278,37.767,40.051 M37.561,40.175c-0.371-0.124-0.597-0.165-1.235-0.288s-1.029-0.247-1.379-0.617
		c0.556,0.226,1.441,0.288,1.935,0.412C37.396,39.743,37.52,39.887,37.561,40.175L37.561,40.175z"/>
	<path style="&st0;" d="M38.035,40.566l0.041-0.041c0.412-0.268,1.07-0.351,1.832-0.515c0.659-0.144,1.317-0.494,1.564-1.379
		c-0.351,0.329-1.05,0.432-1.461,0.515c-0.412,0.082-0.988,0.082-1.379,0.247c-0.473,0.185-0.556,0.391-0.576,0.617
		C38.035,40.278,38.055,40.381,38.035,40.566 M38.24,40.175c0.062-0.288,0.185-0.412,0.679-0.515
		c0.494-0.103,1.379-0.185,1.934-0.411c-0.35,0.37-0.72,0.473-1.378,0.617C38.837,39.99,38.59,40.031,38.24,40.175L38.24,40.175z"/>
	<path style="&st0;" d="M37.746,41.143c0-0.453-0.247-0.576-0.658-0.7c-0.412-0.124-0.947-0.185-1.4-0.309
		c-0.473-0.124-0.72-0.227-1.049-0.556c0.082,0.679,0.535,1.152,1.111,1.358s0.556,0.165,0.864,0.247s0.371,0.205,0.371,0.391v0.412
		h0.761C37.746,41.039,37.726,41.615,37.746,41.143 M37.52,41.697h-0.309c0,0,0-0.123-0.021-0.35
		c-0.021-0.287-0.37-0.329-0.926-0.473c-0.391-0.124-0.885-0.268-1.132-0.659c0.144,0.062,0.412,0.185,0.885,0.268
		c0.432,0.083,0.679,0.144,1.07,0.226c0.391,0.083,0.453,0.309,0.453,0.556L37.52,41.697L37.52,41.697z"/>
	<path style="&st0;" d="M38.035,41.924h0.782v-0.411c0-0.206,0.062-0.309,0.371-0.392c0.309-0.082,0.268-0.041,0.864-0.246
		c0.577-0.206,1.05-0.68,1.112-1.359c-0.31,0.35-0.577,0.433-1.05,0.556c-0.474,0.123-1.029,0.226-1.399,0.309
		c-0.412,0.103-0.659,0.247-0.659,0.699C38.035,41.615,38.035,41.039,38.035,41.924 M38.261,41.266c0-0.247,0.083-0.494,0.453-0.556
		c0.412-0.082,0.638-0.124,1.07-0.226c0.453-0.083,0.72-0.227,0.885-0.268c-0.227,0.391-0.72,0.535-1.132,0.637
		c-0.556,0.165-0.906,0.186-0.926,0.475c-0.021,0.226-0.021,0.35-0.021,0.35h-0.309L38.261,41.266L38.261,41.266z"/>
	<path style="&st0;" d="M36.182,44.105c-0.083,0.021-0.206,0.041-0.309,0.041c-0.432,0-0.741-0.226-0.741-0.679
		c0-0.452,0.288-0.72,0.741-0.72c0.082,0,0.206,0.02,0.309,0.062l-0.021,0.247c-0.103-0.062-0.206-0.082-0.288-0.082
		c-0.268,0-0.453,0.226-0.453,0.493s0.165,0.494,0.453,0.494c0.103,0,0.247-0.021,0.288-0.062L36.182,44.105z"/>
	<path style="&st0;" d="M37.438,43.016c-0.103-0.062-0.247-0.083-0.35-0.083c-0.309,0-0.494,0.227-0.494,0.494
		s0.165,0.494,0.453,0.494c0.083,0,0.124,0,0.186-0.021v-0.35h-0.288v-0.227H37.5v0.721c-0.144,0.041-0.288,0.082-0.432,0.082
		c-0.433,0-0.741-0.227-0.741-0.68c0-0.473,0.288-0.721,0.741-0.721c0.165,0,0.267,0.021,0.412,0.062L37.438,43.016z"/>
	<rect x="37.767" y="42.768" style="&st0;" width="0.268" height="1.359"/>
	<path style="&st0;" d="M39.063,43.592h-0.412l0.206-0.557l0,0L39.063,43.592z M38.199,44.105h0.268l0.124-0.309h0.556l0.103,0.309
		h0.309l-0.535-1.357h-0.309L38.199,44.105z"/>
	<path style="&st0;" d="M39.99,42.975h0.083c0.123,0,0.288,0.02,0.288,0.185s-0.144,0.186-0.288,0.186H39.99
		C39.99,43.324,39.99,42.975,39.99,42.975z M39.702,44.105h0.268v-0.555h0.082c0.103,0,0.144,0.041,0.186,0.144l0.165,0.411h0.309
		l-0.226-0.535c-0.021-0.061-0.083-0.123-0.145-0.144l0,0c0.186-0.021,0.268-0.165,0.268-0.309c0-0.392-0.35-0.37-0.638-0.37h-0.288
		C39.702,42.768,39.702,44.105,39.702,44.105z"/>
	<path style="&st0;" d="M43.756,35.771h0.371c0.144,0,0.246,0.062,0.246,0.206c0,0.103-0.061,0.165-0.144,0.206l0,0
		c0.083,0.021,0.083,0.083,0.103,0.165l0.082,0.227h-0.226l-0.042-0.144c-0.041-0.124-0.082-0.165-0.144-0.165h-0.041v0.309h-0.227
		v-0.803H43.756z M43.962,36.1h0.062c0.082,0,0.145,0,0.145-0.082c0-0.083-0.082-0.083-0.145-0.083h-0.062V36.1z"/>
	<polygon style="&st0;" points="44.559,35.771 45.135,35.771 45.135,35.915 44.785,35.915 44.785,36.079 45.114,36.079 
		45.114,36.223 44.785,36.223 44.785,36.409 45.135,36.409 45.135,36.553 44.559,36.553 	"/>
	<path style="&st0;" d="M45.32,36.367c0.062,0.042,0.123,0.062,0.227,0.062c0.082,0,0.123-0.021,0.123-0.083
		c0-0.144-0.37-0.062-0.37-0.329c0-0.186,0.185-0.247,0.35-0.247c0.083,0,0.144,0.021,0.206,0.041l-0.021,0.165
		c-0.062-0.021-0.103-0.042-0.165-0.042c-0.062,0-0.145,0-0.145,0.083c0,0.124,0.371,0.041,0.371,0.329
		c0,0.206-0.164,0.247-0.35,0.247c-0.082,0-0.165-0.021-0.247-0.041L45.32,36.367z"/>
	<polygon style="&st0;" points="46.082,35.771 46.617,35.771 46.617,35.915 46.287,35.915 46.287,36.079 46.617,36.079 
		46.617,36.223 46.287,36.223 46.287,36.409 46.638,36.409 46.638,36.553 46.082,36.553 	"/>
	<path style="&st0;" d="M47.09,35.771h0.248l0.287,0.782h-0.227l-0.061-0.165h-0.289l-0.062,0.165h-0.227L47.09,35.771z
		 M47.214,35.935L47.214,35.935l-0.103,0.309h0.205L47.214,35.935z"/>
	<path style="&st0;" d="M47.77,35.771h0.371c0.144,0,0.246,0.062,0.246,0.206c0,0.103-0.062,0.165-0.145,0.206l0,0
		c0.083,0.021,0.083,0.083,0.104,0.165l0.082,0.227h-0.227l-0.041-0.144c-0.041-0.124-0.082-0.165-0.144-0.165h-0.042v0.309h-0.226
		v-0.803H47.77z M47.996,36.1h0.062c0.083,0,0.144,0,0.144-0.082c0-0.083-0.082-0.083-0.144-0.083h-0.062V36.1z"/>
	<path style="&st0;" d="M49.252,36.532c-0.062,0.021-0.124,0.041-0.248,0.041c-0.205,0-0.452-0.103-0.452-0.412
		c0-0.268,0.185-0.412,0.452-0.412c0.083,0,0.165,0.021,0.248,0.041l-0.021,0.165c-0.082-0.041-0.123-0.062-0.205-0.062
		c-0.145,0-0.248,0.103-0.248,0.247s0.104,0.247,0.248,0.247c0.082,0,0.144-0.021,0.205-0.042v0.186H49.252z"/>
	<polygon style="&st0;" points="49.416,35.771 49.643,35.771 49.643,36.079 49.869,36.079 49.869,35.771 50.074,35.771 
		50.074,36.553 49.869,36.553 49.869,36.223 49.643,36.223 49.643,36.553 49.416,36.553 	"/>
	<path style="&st0;" d="M43.735,37.129h0.247c0.247,0,0.35,0.083,0.35,0.247s-0.103,0.247-0.309,0.247h-0.082v0.268h-0.206V37.129
		L43.735,37.129z M43.962,37.479h0.062c0.082,0,0.123-0.021,0.123-0.103c0-0.083-0.061-0.103-0.123-0.103h-0.062V37.479z"/>
	<path style="&st0;" d="M44.518,37.129h0.371c0.144,0,0.246,0.062,0.246,0.206c0,0.103-0.062,0.165-0.144,0.206l0,0
		c0.082,0.021,0.082,0.083,0.103,0.165l0.082,0.227h-0.227l-0.041-0.144c-0.041-0.124-0.082-0.165-0.144-0.165h-0.041v0.309h-0.206
		V37.129L44.518,37.129z M44.703,37.458h0.062c0.082,0,0.144,0,0.144-0.082c0-0.083-0.082-0.083-0.144-0.083h-0.062V37.458z"/>
	<path style="&st0;" d="M45.691,37.108c0.246,0,0.391,0.144,0.391,0.412s-0.123,0.412-0.391,0.412S45.3,37.767,45.3,37.52
		C45.32,37.252,45.443,37.108,45.691,37.108 M45.691,37.767c0.123,0,0.185-0.124,0.185-0.247s-0.062-0.247-0.185-0.247
		c-0.124,0-0.186,0.103-0.186,0.247C45.506,37.644,45.567,37.767,45.691,37.767"/>
	<path style="&st0;" d="M46.987,37.87c-0.124,0.042-0.247,0.042-0.309,0.042c-0.206,0-0.452-0.103-0.452-0.412
		c0-0.309,0.205-0.412,0.493-0.412c0.062,0,0.165,0,0.247,0.041v0.165c-0.082-0.041-0.145-0.062-0.186-0.062
		c-0.164,0-0.309,0.082-0.309,0.247c0,0.145,0.104,0.247,0.247,0.247c0.041,0,0.062,0,0.083-0.021v-0.144h-0.104v-0.103h0.329
		L46.987,37.87L46.987,37.87z"/>
	<path style="&st0;" d="M47.214,37.129h0.37c0.145,0,0.247,0.062,0.247,0.206c0,0.103-0.062,0.165-0.144,0.206l0,0
		c0.082,0.021,0.082,0.083,0.103,0.165l0.083,0.227h-0.227l-0.041-0.144c-0.042-0.124-0.083-0.165-0.145-0.165H47.42v0.309h-0.206
		V37.129L47.214,37.129z M47.42,37.458h0.062c0.082,0,0.144,0,0.144-0.082c0-0.083-0.082-0.083-0.144-0.083H47.42V37.458z"/>
	<path style="&st0;" d="M48.264,37.129h0.246l0.289,0.782h-0.227l-0.062-0.165h-0.287l-0.062,0.165h-0.227L48.264,37.129z
		 M48.387,37.293L48.387,37.293l-0.103,0.309h0.206L48.387,37.293z"/>
	<polygon style="&st0;" points="48.984,37.129 49.293,37.129 49.478,37.644 49.478,37.644 49.643,37.129 49.951,37.129 
		49.951,37.911 49.745,37.911 49.745,37.314 49.745,37.314 49.539,37.911 49.354,37.911 49.189,37.314 49.169,37.314 49.189,37.911 
		48.984,37.911 	"/>
	<path style="&st0;" d="M50.959,37.108c0.248,0,0.392,0.144,0.392,0.412s-0.124,0.412-0.392,0.412c-0.246,0-0.391-0.165-0.391-0.412
		C50.548,37.252,50.672,37.108,50.959,37.108 M50.959,37.767c0.124,0,0.186-0.124,0.186-0.247s-0.062-0.247-0.186-0.247
		c-0.123,0-0.185,0.103-0.185,0.247C50.774,37.644,50.815,37.767,50.959,37.767"/>
	<polygon style="&st0;" points="51.536,37.129 51.783,37.129 52.07,37.644 52.07,37.644 52.051,37.129 52.256,37.129 52.256,37.911 
		51.988,37.911 51.721,37.355 51.721,37.355 51.721,37.911 51.536,37.911 	"/>
	<path style="&st0;" d="M43.674,38.755c0.082-0.021,0.186-0.021,0.309-0.021c0.164,0,0.288,0.041,0.371,0.103
		c0.082,0.062,0.103,0.145,0.103,0.268c0,0.103-0.042,0.206-0.083,0.268c-0.082,0.083-0.246,0.144-0.411,0.144
		c-0.062,0-0.083,0-0.124-0.021v0.535h-0.164V38.755z M43.838,39.372c0.041,0.021,0.083,0.021,0.145,0.021
		c0.206,0,0.33-0.083,0.33-0.268c0-0.165-0.124-0.247-0.31-0.247c-0.082,0-0.124,0-0.165,0.021
		C43.838,38.878,43.838,39.372,43.838,39.372z"/>
	<path style="&st0;" d="M45.506,39.558c0,0.35-0.247,0.494-0.453,0.494c-0.247,0-0.432-0.185-0.432-0.473
		c0-0.309,0.205-0.494,0.452-0.494S45.506,39.27,45.506,39.558 M44.765,39.578c0,0.206,0.103,0.35,0.268,0.35
		s0.268-0.144,0.268-0.37c0-0.165-0.083-0.35-0.268-0.35C44.847,39.208,44.765,39.393,44.765,39.578"/>
	<rect x="45.691" y="38.672" style="&st0;" width="0.164" height="1.358"/>
	<path style="&st0;" d="M46.309,38.837c0,0.062-0.041,0.103-0.104,0.103c-0.062,0-0.103-0.062-0.103-0.103
		c0-0.062,0.041-0.103,0.103-0.103C46.287,38.734,46.309,38.775,46.309,38.837 M46.123,39.104h0.164v0.926h-0.164V39.104z"/>
	<path style="&st0;" d="M47.234,39.99c-0.041,0.021-0.145,0.062-0.268,0.062c-0.268,0-0.453-0.185-0.453-0.473
		s0.206-0.494,0.494-0.494c0.082,0,0.186,0.021,0.247,0.062l-0.041,0.124c-0.041-0.021-0.103-0.042-0.206-0.042
		c-0.227,0-0.329,0.165-0.329,0.35c0,0.227,0.144,0.35,0.329,0.35c0.082,0,0.165-0.021,0.206-0.062L47.234,39.99z"/>
	<path style="&st0;" d="M47.584,38.837c0,0.062-0.041,0.103-0.103,0.103s-0.103-0.062-0.103-0.103c0-0.062,0.041-0.103,0.103-0.103
		C47.563,38.734,47.584,38.775,47.584,38.837 M47.398,39.104h0.165v0.926h-0.165V39.104z"/>
	<path style="&st0;" d="M47.914,39.578c0,0.227,0.144,0.329,0.309,0.329c0.123,0,0.205-0.021,0.246-0.062l0.041,0.124
		c-0.061,0.021-0.164,0.062-0.309,0.062c-0.287,0-0.452-0.185-0.452-0.473s0.165-0.494,0.433-0.494c0.309,0,0.391,0.268,0.391,0.432
		c0,0.042,0,0.062,0,0.083H47.914z M48.408,39.475c0-0.103-0.042-0.268-0.248-0.268c-0.164,0-0.246,0.165-0.246,0.268H48.408z"/>
	<path style="&st0;" d="M48.736,39.866c0.062,0.041,0.145,0.083,0.227,0.083c0.124,0,0.186-0.062,0.186-0.144
		c0-0.083-0.062-0.124-0.164-0.165c-0.165-0.062-0.248-0.144-0.248-0.247c0-0.144,0.124-0.268,0.309-0.268
		c0.083,0,0.186,0.021,0.227,0.062L49.23,39.29c-0.041-0.021-0.103-0.062-0.186-0.062c-0.082,0-0.144,0.062-0.144,0.124
		c0,0.083,0.062,0.103,0.186,0.165c0.165,0.062,0.247,0.144,0.247,0.268c0,0.165-0.124,0.268-0.35,0.268
		c-0.104,0-0.207-0.021-0.248-0.062V39.866z"/>
	<path style="&st0;" d="M49.396,40.257c0.041-0.103,0.082-0.309,0.103-0.453l0.186-0.021c-0.041,0.165-0.123,0.391-0.186,0.453
		L49.396,40.257z"/>
	<path style="&st0;" d="M52.359,42.295c0.041-0.104,0.082-0.309,0.103-0.453l0.186-0.021c-0.042,0.165-0.124,0.392-0.186,0.453
		L52.359,42.295z"/>
	<rect x="43.674" y="40.771" style="&st0;" width="0.164" height="1.297"/>
	<path style="&st0;" d="M44.105,41.369c0-0.083,0-0.186,0-0.248h0.145l0.021,0.145l0,0c0.062-0.082,0.144-0.186,0.31-0.186
		c0.123,0,0.328,0.083,0.328,0.412v0.556h-0.164v-0.535c0-0.144-0.062-0.268-0.227-0.268c-0.104,0-0.205,0.083-0.227,0.165
		c0,0.021-0.021,0.062-0.021,0.082v0.556h-0.165V41.369L44.105,41.369z"/>
	<path style="&st0;" d="M45.135,41.883c0.062,0.041,0.145,0.082,0.227,0.082c0.123,0,0.186-0.061,0.186-0.144
		c0-0.082-0.062-0.124-0.165-0.165c-0.165-0.061-0.247-0.144-0.247-0.246c0-0.145,0.124-0.268,0.309-0.268
		c0.082,0,0.186,0.021,0.227,0.062l-0.041,0.124c-0.041-0.021-0.104-0.062-0.186-0.062S45.3,41.328,45.3,41.389
		c0,0.083,0.062,0.104,0.185,0.165c0.165,0.062,0.248,0.144,0.248,0.268c0,0.165-0.124,0.268-0.351,0.268
		c-0.103,0-0.206-0.021-0.247-0.062V41.883z"/>
	<path style="&st0;" d="M46.103,40.875v0.268h0.247v0.123h-0.247v0.494c0,0.104,0.041,0.186,0.124,0.186
		c0.041,0,0.082,0,0.082-0.021v0.124c-0.041,0.021-0.082,0.021-0.145,0.021c-0.082,0-0.145-0.021-0.186-0.082
		c-0.062-0.062-0.082-0.123-0.082-0.247v-0.515h-0.145v-0.104h0.145v-0.226L46.103,40.875z"/>
	<path style="&st0;" d="M46.699,40.875c0,0.062-0.041,0.103-0.104,0.103c-0.061,0-0.102-0.062-0.102-0.103
		c0-0.062,0.041-0.104,0.102-0.104C46.638,40.771,46.699,40.812,46.699,40.875 M46.494,41.143h0.185v0.905h-0.185V41.143z"/>
	<path style="&st0;" d="M47.131,40.875v0.268h0.248v0.123h-0.248v0.494c0,0.104,0.042,0.186,0.124,0.186
		c0.041,0,0.083,0,0.083-0.021v0.124c-0.042,0.021-0.083,0.021-0.145,0.021c-0.082,0-0.145-0.021-0.186-0.082
		c-0.062-0.062-0.082-0.123-0.082-0.247v-0.515h-0.145v-0.104h0.145v-0.226L47.131,40.875z"/>
	<path style="&st0;" d="M48.325,41.801c0,0.082,0,0.186,0,0.247h-0.144l-0.021-0.144l0,0c-0.041,0.082-0.144,0.164-0.309,0.164
		c-0.145,0-0.309-0.082-0.309-0.412v-0.555h0.164v0.514c0,0.186,0.062,0.289,0.207,0.289c0.103,0,0.185-0.083,0.227-0.145
		c0.02-0.021,0.02-0.062,0.02-0.082v-0.557h0.186v0.68H48.325z"/>
	<path style="&st0;" d="M48.777,40.875v0.268h0.248v0.123h-0.248v0.494c0,0.104,0.042,0.186,0.124,0.186
		c0.041,0,0.083,0,0.083-0.021v0.124c-0.042,0.021-0.083,0.021-0.145,0.021c-0.082,0-0.145-0.021-0.186-0.082
		c-0.062-0.062-0.082-0.123-0.082-0.247v-0.515h-0.145v-0.104h0.145v-0.226L48.777,40.875z"/>
	<path style="&st0;" d="M49.375,40.875c0,0.062-0.041,0.103-0.104,0.103c-0.062,0-0.103-0.062-0.103-0.103
		c0-0.062,0.041-0.104,0.103-0.104C49.354,40.771,49.375,40.812,49.375,40.875 M49.189,41.143h0.165v0.905h-0.165V41.143z"/>
	<path style="&st0;" d="M50.486,41.596c0,0.35-0.247,0.493-0.453,0.493c-0.246,0-0.432-0.185-0.432-0.474
		c0-0.309,0.205-0.494,0.453-0.494C50.301,41.102,50.486,41.307,50.486,41.596 M49.725,41.596c0,0.205,0.104,0.35,0.268,0.35
		s0.268-0.145,0.268-0.371c0-0.164-0.082-0.35-0.268-0.35C49.828,41.225,49.725,41.41,49.725,41.596"/>
	<path style="&st0;" d="M50.65,41.369c0-0.083,0-0.186,0-0.248h0.145l0.021,0.145l0,0c0.062-0.082,0.144-0.186,0.309-0.186
		c0.124,0,0.329,0.083,0.329,0.412v0.556h-0.164v-0.535c0-0.144-0.062-0.268-0.227-0.268c-0.104,0-0.205,0.083-0.227,0.165
		c0,0.021-0.021,0.062-0.021,0.082v0.556H50.65V41.369L50.65,41.369z"/>
	<path style="&st0;" d="M51.68,41.883c0.062,0.041,0.145,0.082,0.227,0.082c0.123,0,0.186-0.061,0.186-0.144
		c0-0.082-0.062-0.124-0.165-0.165c-0.165-0.061-0.247-0.144-0.247-0.246c0-0.145,0.123-0.268,0.309-0.268
		c0.082,0,0.186,0.021,0.227,0.062l-0.041,0.124c-0.041-0.021-0.104-0.062-0.186-0.062s-0.144,0.062-0.144,0.123
		c0,0.083,0.062,0.104,0.185,0.165c0.165,0.062,0.248,0.144,0.248,0.268c0,0.165-0.124,0.268-0.351,0.268
		c-0.103,0-0.206-0.021-0.247-0.062V41.883z"/>
	<path style="&st0;" d="M44.188,44.105l-0.021-0.103l0,0c-0.062,0.083-0.145,0.144-0.268,0.144c-0.186,0-0.268-0.123-0.268-0.268
		c0-0.226,0.205-0.35,0.556-0.35v-0.02c0-0.083-0.021-0.227-0.227-0.227c-0.083,0-0.185,0.02-0.247,0.082l-0.041-0.104
		c0.082-0.062,0.186-0.082,0.309-0.082c0.268,0,0.35,0.206,0.35,0.391v0.351c0,0.082,0,0.165,0.021,0.226
		C44.354,44.105,44.188,44.105,44.188,44.105z M44.168,43.633c-0.186,0-0.391,0.041-0.391,0.205c0,0.104,0.082,0.165,0.164,0.165
		c0.123,0,0.205-0.082,0.227-0.144c0-0.021,0.021-0.041,0.021-0.062L44.168,43.633L44.168,43.633z"/>
	<path style="&st0;" d="M44.559,43.427c0-0.082,0-0.185,0-0.247h0.145l0.021,0.145l0,0c0.062-0.082,0.144-0.186,0.309-0.186
		c0.124,0,0.329,0.082,0.329,0.412v0.555h-0.164V43.57c0-0.144-0.062-0.268-0.227-0.268c-0.104,0-0.206,0.083-0.227,0.165
		c0,0.021-0.021,0.062-0.021,0.083v0.555h-0.165V43.427L44.559,43.427z"/>
	<path style="&st0;" d="M46.411,42.727v1.111c0,0.083,0,0.186,0,0.248h-0.144v-0.165l0,0c-0.062,0.103-0.165,0.185-0.309,0.185
		c-0.227,0-0.412-0.185-0.412-0.473c0-0.309,0.186-0.494,0.412-0.494c0.144,0,0.246,0.082,0.268,0.145l0,0v-0.557
		C46.246,42.727,46.411,42.727,46.411,42.727z M46.246,43.529c0-0.02,0-0.062,0-0.082c-0.02-0.103-0.103-0.205-0.246-0.205
		c-0.186,0-0.268,0.144-0.268,0.369c0,0.186,0.082,0.351,0.268,0.351c0.103,0,0.227-0.083,0.246-0.206c0-0.021,0-0.062,0-0.082
		V43.529L46.246,43.529z"/>
	<path style="&st0;" d="M48.16,43.529c-0.02-0.185-0.02-0.411-0.02-0.555l0,0c-0.042,0.144-0.083,0.309-0.166,0.493l-0.226,0.618
		h-0.124l-0.227-0.639c-0.061-0.186-0.103-0.35-0.144-0.494l0,0c0,0.165-0.021,0.392-0.021,0.557l-0.041,0.555h-0.165l0.083-1.297
		h0.227l0.226,0.618c0.062,0.165,0.083,0.288,0.124,0.433l0,0c0.041-0.124,0.082-0.268,0.123-0.433l0.247-0.618h0.227l0.082,1.297
		h-0.165L48.16,43.529z"/>
	<path style="&st0;" d="M49.087,44.105l-0.021-0.103l0,0c-0.062,0.083-0.145,0.144-0.268,0.144c-0.186,0-0.289-0.123-0.289-0.268
		c0-0.226,0.207-0.35,0.557-0.35v-0.02c0-0.083-0.021-0.227-0.227-0.227c-0.082,0-0.186,0.02-0.247,0.082l-0.041-0.104
		c0.082-0.062,0.185-0.082,0.309-0.082c0.288,0,0.37,0.186,0.37,0.371v0.35c0,0.082,0,0.164,0.021,0.227L49.087,44.105
		L49.087,44.105z M49.066,43.633c-0.186,0-0.391,0.041-0.391,0.205c0,0.104,0.082,0.165,0.164,0.165
		c0.123,0,0.205-0.082,0.227-0.144c0-0.021,0.021-0.041,0.021-0.062L49.066,43.633L49.066,43.633z"/>
	<path style="&st0;" d="M49.498,43.468c0-0.103,0-0.206,0-0.288h0.145v0.186l0,0c0.041-0.123,0.145-0.206,0.246-0.206
		c0.021,0,0.042,0,0.062,0v0.165c-0.021,0-0.041,0-0.062,0c-0.123,0-0.205,0.082-0.226,0.227c0,0.02,0,0.061,0,0.082v0.494h-0.165
		V43.468L49.498,43.468z"/>
	<path style="&st0;" d="M50.26,43.592L50.26,43.592c0.021-0.041,0.062-0.082,0.082-0.104l0.268-0.309h0.206l-0.37,0.391l0.411,0.557
		H50.65l-0.309-0.433l-0.082,0.083v0.35h-0.164v-1.359h0.164V43.592z"/>
	<path style="&st0;" d="M51.062,43.653c0,0.226,0.145,0.329,0.309,0.329c0.123,0,0.206-0.021,0.247-0.062l0.041,0.124
		c-0.062,0.02-0.165,0.061-0.309,0.061c-0.288,0-0.452-0.185-0.452-0.473s0.164-0.494,0.432-0.494c0.309,0,0.391,0.268,0.391,0.432
		c0,0.041,0,0.062,0,0.083H51.062z M51.557,43.529c0-0.103-0.041-0.268-0.247-0.268c-0.165,0-0.247,0.165-0.247,0.268H51.557z"/>
	<path style="&st0;" d="M52.112,42.892v0.268h0.247v0.124h-0.247v0.494c0,0.102,0.041,0.185,0.124,0.185
		c0.041,0,0.082,0,0.082-0.021v0.123c-0.041,0.021-0.082,0.021-0.145,0.021c-0.082,0-0.145-0.021-0.186-0.083
		c-0.062-0.062-0.082-0.124-0.082-0.247v-0.514h-0.145v-0.124h0.145v-0.227H52.112z"/>
	<path style="&st0;" d="M52.504,43.921c0.061,0.041,0.144,0.082,0.226,0.082c0.124,0,0.186-0.062,0.186-0.144
		s-0.062-0.124-0.165-0.165c-0.164-0.062-0.246-0.144-0.246-0.247c0-0.145,0.123-0.268,0.309-0.268c0.082,0,0.185,0.021,0.226,0.062
		l-0.041,0.123c-0.041-0.021-0.103-0.062-0.185-0.062c-0.083,0-0.145,0.062-0.145,0.124s0.062,0.103,0.186,0.165
		c0.164,0.062,0.246,0.144,0.246,0.268c0,0.164-0.123,0.268-0.35,0.268c-0.103,0-0.205-0.021-0.246-0.062V43.921z"/>
	<line style="&st1;" x1="42.645" y1="35.791" x2="42.645" y2="44.105"/>
</g>
</svg>
