<svg width="60" height="60" xmlns="http://www.w3.org/2000/svg">
 <g>
  <title>Layer 1</title>
  <g id="svg_45">
   <path fill="#ffffff" id="svg_46" d="m34.132999,14.034v15.211h1.5v-15.961c0,-0.415 -0.335999,-0.75 -0.75,-0.75h-0.75v1.5l0,0z"/>
   <path fill="#ffffff" id="svg_47" d="m34.132999,32.345001v14.487v2.125h-16.92c-3.242,0.468998 -5.780999,1.086998 -7.270999,1.5h24.940999c0.414001,0 0.75,-0.336002 0.75,-0.75v-17.362h-1.5l0,0z"/>
   <path fill="#ffffff" id="svg_48" d="m21.969,14.557v1.504001c3.92,-0.271001 6.587,-0.125001 8.164,0.056999v-1.514c-1.667999,-0.181 -4.338999,-0.306 -8.164,-0.047z"/>
   <path fill="#ffffff" id="svg_49" d="m21.969,17.889999v1.504c3.92,-0.271 6.586,-0.125 8.164,0.056v-1.513c-1.667999,-0.180998 -4.337999,-0.304998 -8.164,-0.046999z"/>
   <path fill="#ffffff" id="svg_50" d="m21.969,21.222v1.504c3.92,-0.27 6.586,-0.124001 8.164,0.057001v-1.513c-1.667999,-0.181 -4.338999,-0.306 -8.164,-0.048z"/>
   <path fill="#ffffff" id="svg_51" d="m21.969,24.555v1.504c3.92,-0.271 6.586,-0.125 8.164,0.056999v-1.514c-1.667999,-0.179998 -4.337999,-0.304998 -8.164,-0.046999z"/>
   <path fill="#ffffff" id="svg_52" d="m21.969,27.888v1.504c3.92,-0.271 6.587,-0.125 8.164,0.056999v-1.513998c-1.667999,-0.181002 -4.338999,-0.306002 -8.164,-0.047001z"/>
   <path fill="#ffffff" id="svg_53" d="m21.969,31.221001v0.049l-1.837,0.151001c-4.516,0.369999 -7.804,1.146 -9.766,1.732998l-0.561,0.168003v1.402c2.16,-0.589001 6.171,-1.518002 11.237,-1.933002c4.434999,-0.362 7.389,-0.203999 9.090002,-0.009998v-1.515001c-1.667002,-0.178001 -4.337002,-0.303001 -8.163002,-0.045z"/>
   <path fill="#ffffff" id="svg_54" d="m20.92,34.629002c-4.913,0.402 -8.821999,1.264 -11.114,1.868999v1.560001c2.162001,-0.589001 6.178,-1.519001 11.237,-1.934002c4.436001,-0.363998 7.390001,-0.205997 9.09,-0.010998v-1.513c-1.819,-0.197002 -4.814999,-0.331001 -9.212999,0.028999z"/>
   <path fill="#ffffff" id="svg_55" d="m20.92,37.962002c-4.913,0.403 -8.821999,1.263 -11.114,1.869999v1.558002c2.16,-0.589001 6.171,-1.518002 11.237,-1.933002c4.435001,-0.362 7.389,-0.202999 9.09,-0.008999v-1.514999c-1.817999,-0.197002 -4.813999,-0.330002 -9.212999,0.028999z"/>
   <path fill="#ffffff" id="svg_56" d="m20.92,41.294998c-4.913,0.402 -8.821999,1.263 -11.114,1.868999v1.559002c2.162001,-0.588001 6.178,-1.519001 11.237,-1.934002c4.435001,-0.362999 7.390001,-0.203999 9.09,-0.009998v-1.514c-1.819,-0.196999 -4.814999,-0.330997 -9.212999,0.029999z"/>
   <path fill="#ffffff" id="svg_57" d="m9.855,16.514999c0,4.919001 -0.030999,6.679001 -0.049999,9.905001v4.813999c1.993,-0.594999 5.438,-1.42 10.164,-1.806999c0,-6.193001 0,-5.253 0,-14.705c-4.686,0.384 -8.113,1.198999 -10.114,1.792999zm8.615,11.546001c-2.938,0.306 -5.342999,0.769999 -7.174999,1.217999c0.005,-2.427 0.018,-3.998999 0.03,-5.559c0.014,-1.684999 0.026,-3.355 0.03,-6.066c1.717,-0.452 4.102,-0.951 7.114,-1.281v11.688002l0.000999,0z"/>
   <path fill="#ffffff" id="svg_58" d="m46.278,23.031c-3.668999,0 -6.709999,2.698999 -7.264999,6.214001c-0.042,0.262999 -0.068001,0.528999 -0.082001,0.799999h-4.799v1.5h4.881001c0.042,0.271 0.099998,0.539 0.170998,0.800001c0.857002,3.115997 3.709003,5.413998 7.094002,5.413998c4.061001,0 7.362999,-3.302998 7.362999,-7.363998c0.000999,-4.060001 -3.301998,-7.364 -7.362999,-7.364zm0,13.227999c-3.233002,0 -5.863998,-2.630001 -5.863998,-5.864c0,-3.233 2.630997,-5.864 5.863998,-5.864s5.862999,2.630001 5.862999,5.864c0.000999,3.234003 -2.628998,5.864 -5.862999,5.864z"/>
   <rect fill="#ffffff" id="svg_59" height="5.147" width="2" y="26.395" x="45.378"/>
   <rect fill="#ffffff" id="svg_60" height="2.123" width="2" y="32.201" x="45.378"/>
   <path fill="#ffffff" id="svg_61" d="m7.056,13.284v35.728001c0,0.242001 0.117,0.470001 0.315,0.610001c0.129,0.091999 0.281,0.139999 0.435,0.139999c0.083,0 0.166,-0.014 0.247001,-0.042c0.051999,-0.018002 5.342,-1.827 12.989999,-2.453999c1.779001,-0.146 3.469,-0.220001 5.018002,-0.220001c4.028,0 5.848,0.501999 5.862999,0.506001c0.229,0.065998 0.472,0.021 0.659,-0.120003c0.188,-0.142998 0.299999,-0.363998 0.299999,-0.599998v-31.548v-4.179999c0,-0.334 -0.221001,-0.628 -0.542,-0.721c-0.078999,-0.023001 -2.003,-0.565001 -6.282,-0.565001c-1.59,0 -3.319,0.075 -5.139,0.225c-7.851,0.643 -13.139,2.455999 -13.36,2.532c-0.302,0.105999 -0.504,0.389999 -0.504,0.709zm19.003,-1.966001c2.785999,0 4.517,0.24 5.323999,0.389v34.204c-0.972,-0.163002 -2.706999,-0.365002 -5.321999,-0.365002c-1.591002,0 -3.320002,0.076 -5.141001,0.224998c-5.971,0.489002 -10.46,1.654003 -12.364,2.219002v-33.955997v-0.203c1.495,-0.461 6.192,-1.778 12.487,-2.293c1.778,-0.145 3.467001,-0.22 5.016001,-0.22z"/>
  </g>
 </g>
</svg>