<svg width="60" height="60" xmlns="http://www.w3.org/2000/svg">
 <g>
  <title>Layer 1</title>
  <g id="svg_61">
   <path fill="#ffffff" id="svg_62" d="m20.593,49.082001h-16.921v-2.125v-32.798v-1.5h-0.75c-0.414,0 -0.75,0.335999 -0.75,0.75v36.423c0,0.414001 0.336,0.75 0.75,0.75h24.94c-1.49,-0.413002 -4.028999,-1.031002 -7.268999,-1.5z"/>
   <path fill="#ffffff" id="svg_63" d="m57.077999,12.659h-0.75v1.5v32.798v2.125h-16.922001c-3.240002,0.469002 -5.778999,1.087002 -7.27,1.5h24.941002c0.413998,0 0.75,-0.335999 0.75,-0.75v-36.423c0.000999,-0.414001 -0.334999,-0.75 -0.749001,-0.75z"/>
   <path fill="#ffffff" id="svg_64" d="m32,44.089001c2.365002,-0.605999 6.243999,-1.433002 11.006001,-1.823002c3.132999,-0.257 6.017998,-0.296997 8.431999,-0.117001c0.02,0.002003 0.035,-0.007 0.055,-0.007v-1.491997c-2.48,-0.183002 -5.419998,-0.141003 -8.609001,0.120998c-4.618999,0.377998 -8.433998,1.160999 -10.882999,1.771v1.547001l-0.000999,0z"/>
   <path fill="#ffffff" id="svg_65" d="m17.117001,40.771c-3.188,-0.262001 -6.129001,-0.304001 -8.609,-0.120998v1.491997c0.02,-0.000999 0.035999,0.009003 0.056,0.007c2.414,-0.179996 5.299,-0.139999 8.432,0.117001c4.764,0.391003 8.642,1.217003 11.005001,1.823002v-1.547001c-2.449001,-0.610001 -6.264002,-1.393002 -10.884001,-1.771z"/>
   <path fill="#ffffff" id="svg_66" d="m17.049999,37.244999c-1.812,-0.147999 -3.547,-0.227001 -5.212,-0.23h-0.122001c-1.134999,0 -2.212999,0.039001 -3.209,0.113998v1.493c0.02,-0.000999 0.037,0.007999 0.057,0.005001c0.974999,-0.074001 2.035,-0.112 3.158,-0.112h0.172c1.566,0.003998 3.26,0.079998 5.034,0.225998c4.764,0.391003 8.595999,1.208 11.070999,1.857002v-1.549999c-2.543999,-0.647999 -6.323999,-1.424 -10.948999,-1.803001z"/>
   <path fill="#ffffff" id="svg_67" d="m32,39.069v1.532001c2.57,-0.664001 6.341999,-1.455002 10.881001,-1.844002c0.278999,-0.022999 0.558998,-0.047001 0.838001,-0.067001c2.870998,-0.211998 5.5,-0.231998 7.716999,-0.063c0.02,0.003002 0.036999,-0.006001 0.056999,-0.006001v-1.491997c-2.278999,-0.171001 -4.959,-0.147003 -7.885002,0.064999c-0.285,0.021 -0.57,0.044998 -0.855,0.069c-3.643997,0.312 -7.322998,0.942001 -10.752998,1.806z"/>
   <path fill="#ffffff" id="svg_68" d="m16.986,33.720001c-1.801,-0.146999 -3.521,-0.224998 -5.114,-0.229h-0.184999c-1.134,0.001999 -2.201,0.042 -3.18,0.118v1.491001c0.02,0 0.038,0.008999 0.059,0.007c0.955,-0.075001 2.006,-0.114002 3.122,-0.116001h0.182c1.553,0.004002 3.232,0.078999 4.993001,0.223999c4.786999,0.393002 8.664,1.234001 11.136999,1.892002v-1.550003c-2.547001,-0.658001 -6.365999,-1.455997 -11.014,-1.836998z"/>
   <path fill="#ffffff" id="svg_69" d="m43.675999,35.174c2.890999,-0.216999 5.549,-0.239998 7.757999,-0.065998c0.021,0.001999 0.039001,-0.008003 0.059002,-0.008003v-1.489998c-2.271,-0.176003 -4.984001,-0.152 -7.93,0.068001c-0.314003,0.023998 -0.631001,0.050999 -0.941002,0.078999c-3.593998,0.32 -7.155998,0.942001 -10.620998,1.823002v1.545998c3.503998,-0.911999 7.112999,-1.550999 10.755997,-1.875c0.304005,-0.028 0.612003,-0.054001 0.919003,-0.077z"/>
   <path fill="#ffffff" id="svg_70" d="m43.634998,31.656c2.922001,-0.223 5.604,-0.246 7.797001,-0.068001c0.021,0.001001 0.038998,-0.007999 0.060997,-0.007999v-1.490999c-2.261997,-0.179001 -4.995998,-0.157001 -7.973,0.071999c-0.348,0.027 -0.690998,0.057001 -1.030998,0.089001c-4.696999,0.434 -8.420002,1.288 -10.487999,1.823002v1.549999c1.856998,-0.493 5.692997,-1.423 10.628998,-1.879002c0.331001,-0.032999 0.667004,-0.060999 1.005001,-0.087999z"/>
   <path fill="#ffffff" id="svg_71" d="m16.919001,30.194c-1.789,-0.146 -3.493999,-0.223 -5.072,-0.226h-0.189c-1.118999,0.001999 -2.177999,0.042999 -3.150001,0.119999v1.491001c0.021,0 0.039,0.008999 0.061,0.007999c0.949,-0.077 1.990001,-0.117001 3.091001,-0.118999h0.188001c1.535999,0.003 3.201999,0.077 4.949999,0.220999c3.812,0.312 7.732,0.988003 11.202999,1.924v-1.550999c-3.459999,-0.903999 -7.324999,-1.559999 -11.081999,-1.868z"/>
   <path fill="#ffffff" id="svg_72" d="m16.853001,26.669001c-1.778999,-0.146 -3.473,-0.220999 -5.031,-0.223l-0.193999,0c-1.112,0.002001 -2.159,0.044001 -3.12,0.122999v1.492001c0.021,0 0.04,0.009001 0.061999,0.007c0.938001,-0.077999 1.968,-0.118999 3.066,-0.121l0.186,0c1.519,0.002001 3.17,0.076 4.909,0.218c3.835001,0.313999 7.769001,1 11.27,1.959v-1.556c-3.460001,-0.922001 -7.353001,-1.588001 -11.148001,-1.899z"/>
   <path fill="#ffffff" id="svg_73" d="m43.594002,28.139999c2.943001,-0.229 5.646,-0.255001 7.835999,-0.072001c0.021,0.000999 0.041,-0.007 0.062,-0.007999v-1.491001c-2.259998,-0.184999 -5.017998,-0.16 -8.015999,0.075001c-0.376999,0.028999 -0.75,0.062 -1.118999,0.098c-4.743999,0.454 -8.420002,1.323 -10.356998,1.835001v1.552999c1.764,-0.479 5.532997,-1.419001 10.501999,-1.895c0.358997,-0.033998 0.724998,-0.065998 1.091999,-0.094999z"/>
   <path fill="#ffffff" id="svg_74" d="m16.787001,23.143999c-1.766999,-0.145 -3.445,-0.219 -4.99,-0.219999h-0.198999c-1.111,0.004 -2.149,0.046999 -3.09,0.125v1.490999c0.021,0 0.040999,0.009001 0.063,0.007c0.918,-0.077999 1.938,-0.120001 3.028,-0.124001h0.197001c1.502,0.001001 3.141,0.074001 4.867001,0.215c5.050999,0.414 9.094999,1.367001 11.336,1.991001v-1.556c-2.459002,-0.667999 -6.347002,-1.531 -11.212002,-1.929001z"/>
   <path fill="#ffffff" id="svg_75" d="m37.549,25.402c1.588001,-0.280001 3.195,-0.514 4.826,-0.674c0.387001,-0.039001 0.778999,-0.074001 1.178001,-0.106001c2.970997,-0.235001 5.681999,-0.261 7.876999,-0.074999c0.021,0.001999 0.041,-0.007 0.062,-0.007v-1.491001c-2.264,-0.188999 -5.031002,-0.163 -8.059002,0.078001c-0.407997,0.032999 -0.810997,0.068998 -1.206997,0.108c-1.242001,0.122999 -2.471001,0.292 -3.691002,0.483c-0.007999,0.699999 -0.389,1.33 -0.986,1.684z"/>
   <path fill="#ffffff" id="svg_76" d="m34.424,26.032c0.591999,-0.136999 1.188,-0.261999 1.786999,-0.382c-0.312,-0.052 -0.618999,-0.164999 -0.882999,-0.365l-0.243999,-0.187l-0.66,0.934z"/>
   <path fill="#ffffff" id="svg_77" d="m16.721001,19.618c-1.754998,-0.143999 -3.417999,-0.217001 -4.948999,-0.218l-0.203,0.000999c-1.105,0.004002 -2.133,0.048 -3.062,0.127001v1.490999c0.021,0 0.043,0.009001 0.065,0.008001c0.904,-0.079 1.914001,-0.122 2.999001,-0.125999l0.2,-0.001001c1.489,0.001001 3.113,0.073 4.825,0.213001c5.248001,0.429998 9.371,1.443998 11.402,2.021999v-1.558001c-2.167002,-0.595999 -6.216002,-1.543999 -11.277,-1.959z"/>
   <path fill="#ffffff" id="svg_78" d="m38.539001,21.712999c1.23,-0.198999 2.473,-0.366999 3.709,-0.491999c0.411999,-0.042 0.834,-0.081001 1.264,-0.115c2.993999,-0.242001 5.726997,-0.27 7.916,-0.078001c0.021,0.000999 0.042999,-0.007999 0.063999,-0.007999v-1.49c-2.262001,-0.193001 -5.049,-0.166 -8.102001,0.080999c-0.440998,0.035 -0.873001,0.075001 -1.294998,0.118c-1.184002,0.120001 -2.375,0.278999 -3.557003,0.466v1.518l0.001003,0z"/>
   <path fill="#ffffff" id="svg_79" d="m38.539001,18.190001c1.479,-0.24 3.134998,-0.455 4.93,-0.603001c3.030998,-0.247999 5.788998,-0.275 7.956997,-0.080999c0.023003,0.001999 0.043003,-0.007 0.066002,-0.007v-1.491001c-2.246002,-0.197 -5.059002,-0.169999 -8.146,0.084c-1.740002,0.143002 -3.352001,0.349001 -4.806999,0.580002v1.518l0,0z"/>
   <path fill="#ffffff" id="svg_80" d="m16.655001,16.093c-3.091,-0.253 -5.907,-0.280001 -8.147,-0.084v1.490999c0.023,0 0.042999,0.009001 0.066999,0.007c2.16,-0.195 4.925001,-0.167999 7.956,0.080999c5.549,0.455 9.767,1.553001 11.469,2.053001v-1.561001c-1.988001,-0.559999 -6.084,-1.556 -11.344999,-1.987z"/>
   <path fill="#ffffff" id="svg_81" d="m4.922,15.409v31.548l0.002,0.991001l0.954,-0.271c0.018,-0.005001 1.84,-0.507004 5.868999,-0.507004c1.549001,0 3.237,0.074001 5.016001,0.220001c7.646999,0.626999 12.938,2.437 12.990999,2.455002l0.246,0.085999l0.247,-0.084999c0.052,-0.019001 5.343,-1.827999 12.991999,-2.455002c1.777,-0.146 3.465,-0.219997 5.016003,-0.219997c4.028999,0 5.849998,0.501999 5.864998,0.507l0.959,0.277v-0.123001v-32.423v-4.744l-0.541,-0.157c-0.079998,-0.023001 -2.003998,-0.565001 -6.280998,-0.565001c-1.591999,0 -3.32,0.076 -5.140999,0.225c-1.648003,0.135 -3.178001,0.323 -4.576,0.533999v1.522c1.431999,-0.223 3.003998,-0.421 4.698997,-0.561c1.779003,-0.146 3.467003,-0.22 5.018002,-0.22c2.785,0 4.514,0.24 5.321999,0.389v34.204999c-0.973,-0.163998 -2.709,-0.365997 -5.323997,-0.365997c-1.59,0 -3.32,0.076 -5.139,0.224998c-5.98,0.490002 -10.465,1.655998 -12.366001,2.220001v-23.18v-11.527v-1.022c-0.323999,0.096 -0.582001,0.177 -0.75,0.231c-1.146999,-0.372 -6.111,-1.876 -13.113001,-2.45c-1.819999,-0.149 -3.549999,-0.225 -5.141999,-0.225c-4.278,0 -6.201,0.542 -6.281,0.565001l-0.541,0.157v4.744l-0.001,0zm24.328,32.706001c-1.898001,-0.562 -6.382999,-1.729 -12.363001,-2.220001c-1.819999,-0.147999 -3.548999,-0.225002 -5.138999,-0.225002c-2.617001,0 -4.353,0.203003 -5.325,0.366001v-34.202999c0.808,-0.149 2.537,-0.389 5.322,-0.389c1.551001,0 3.239,0.073999 5.019,0.219999c6.306999,0.517 11.002001,1.835 12.486,2.293v34.158002l0,0z"/>
   <path fill="#ffffff" id="svg_82" d="m32,11.251v2.158v11.527c0,0.327 0.213001,0.615999 0.522999,0.715c0.074001,0.022999 0.152,0.035 0.227001,0.035c0.240002,0 0.471001,-0.115002 0.612999,-0.317001l1.447002,-2.049999l1.274998,0.971001c0.227001,0.171 0.531002,0.199999 0.787003,0.073999s0.415997,-0.387001 0.415997,-0.672001v-13.525c0,-0.235 -0.108997,-0.457 -0.299,-0.598c-0.185997,-0.143001 -0.433998,-0.185 -0.655998,-0.123l-3.789001,1.085c-0.320999,0.091 -0.543999,0.385 -0.543999,0.72zm3.789001,10.929999l-0.689003,-0.525999c-0.161999,-0.124001 -0.366997,-0.175001 -0.567997,-0.145s-0.381001,0.143 -0.498001,0.309l-0.534,0.754v-10.757l2.289001,-0.655v11.02l0,0z"/>
  </g>
 </g>
</svg>