<svg width="60" height="60" xmlns="http://www.w3.org/2000/svg">
 <g>
  <title>Layer 1</title>
  <g id="svg_107">
   <path id="svg_108" fill="#ffffff" d="m50.084999,46.903c-0.002998,-0.742001 -0.002998,-0.742001 0.028999,-1.646l0.019001,-0.474998c0.058998,-1.540001 0.110001,-2.870003 -0.415001,-4.592003c-0.333,-1.09 -1.008999,-2.702 -2.346001,-4.198997c-0.949997,-1.063999 -2.079998,-1.898003 -3.452999,-2.549999l-1.140999,-0.541v6.271h-3.190998v-6.422001l-0.174004,-0.689999l-0.641998,-0.128c-0.768002,-0.151001 -1.533001,-0.258001 -2.273998,-0.336c-0.099003,0.087999 -0.201,0.178999 -0.317001,0.292c-0.309002,0.299 -0.529999,0.548 -0.722,0.762001c-0.125,0.139999 -0.257,0.281998 -0.394001,0.425999c0.916,0.062 1.915001,0.161999 2.926003,0.337002v5.759998h-1.330002h-13.319h-1.330999v-5.762001c1.173,-0.204998 2.333,-0.303001 3.382,-0.360001c-0.128,-0.135998 -0.25,-0.27 -0.368999,-0.401001c-0.192001,-0.213997 -0.413,-0.462997 -0.720001,-0.761999c-0.133999,-0.129999 -0.254,-0.237999 -0.365999,-0.334999c-0.872,0.08 -1.790001,0.198 -2.708,0.379l-0.815001,0.161999v7.078003h-3.191v-6.271l-1.142,0.541c-1.374,0.651001 -2.504,1.485001 -3.454,2.549999c-1.333,1.493999 -2.01,3.107002 -2.344,4.197998c-0.526,1.720001 -0.475,3.049004 -0.416,4.587002l0.019,0.48c0.031,0.903999 0.031,0.903999 0.029,1.646c-0.002,0.757 -0.007,2.271 0.016,6.220001l0,0l0.798,-0.004002l0.798,-0.004997c-0.022,-3.941002 -0.018001,-5.450001 -0.016001,-6.206001c0.002001,-0.771 0.002001,-0.771 -0.03,-1.707001l-0.019,-0.487c-0.055,-1.451 -0.099,-2.597 0.347,-4.057999c0.287,-0.938 0.868,-2.323002 2.009,-3.601002c0.528,-0.592999 1.125,-1.104 1.807,-1.541v3.656002v1.597v1.329998v11.021l0,0h1.597l0,0v-12.348999h4.788h15.980001h4.787998v12.352001l0,0h1.597l0,0v-11.022003v-1.329998v-1.597004v-3.655998c0.681,0.438 1.278,0.947998 1.806999,1.541c1.143002,1.278999 1.723,2.663998 2.010002,3.600998c0.446999,1.463001 0.400997,2.611 0.344997,4.064003l-0.018997,0.479c-0.031998,0.938 -0.031998,0.938 -0.028999,1.708c0.004002,0.756001 0.007,2.265999 -0.014,6.206001l0.798,0.004997l0.798,0.004002l0,0c0.022999,-3.950001 0.017998,-5.463001 0.013996,-6.220001z"/>
   <path id="svg_109" fill="#ffffff" d="m36.710999,29.785c0.317001,-0.202 0.646,-0.41 1.007,-0.773001c1.031002,-1.030998 1.564999,-2.578999 1.653,-4.553999c-0.507999,0.056999 -1.042,0.108 -1.596001,0.155001c-0.094997,1.452 -0.48,2.563 -1.187,3.269999c-0.237999,0.239 -0.445999,0.372 -0.734997,0.555c-0.416,0.266001 -0.935001,0.596001 -1.710003,1.347c-0.369999,0.357 -0.635998,0.653999 -0.865997,0.910999c-0.358002,0.400002 -0.574001,0.643002 -0.986,0.884001c-0.581001,0.344 -1.272001,0.521002 -2.044001,0.525999c-0.783001,-0.006001 -1.476,-0.182999 -2.058001,-0.525999c-0.410999,-0.240999 -0.625999,-0.483 -0.985001,-0.884001c-0.229,-0.257 -0.496,-0.553999 -0.865999,-0.910999c-0.775,-0.750999 -1.294001,-1.080999 -1.711,-1.347c-0.288,-0.184 -0.496,-0.315001 -0.735001,-0.555c-0.705999,-0.705999 -1.091,-1.816999 -1.185999,-3.269999c-0.552999,-0.047001 -1.088001,-0.098001 -1.596001,-0.155001c0.087,1.975 0.622,3.521 1.652,4.553999c0.364,0.363001 0.691,0.571001 1.007999,0.773001c0.374001,0.237 0.798,0.507999 1.457001,1.146c0.337,0.326 0.577999,0.596001 0.785999,0.83c0.398001,0.442999 0.741001,0.827002 1.366001,1.195002c0.824999,0.486 1.785999,0.737999 2.866999,0.745998c1.068001,-0.007999 2.028999,-0.259998 2.855,-0.745998c0.624001,-0.368 0.967003,-0.752003 1.364002,-1.195002c0.209999,-0.233999 0.451,-0.504 0.786999,-0.83c0.66,-0.638 1.085003,-0.909 1.459,-1.146z"/>
   <path id="svg_110" fill="#ffffff" d="m48.777,18.945c0,-2.483999 -11.392002,-8.517 -18.181999,-11.892001l-0.355001,-0.175999l-0.355,0.177c-6.790001,3.375 -18.181,9.406999 -18.181,11.891999c0,4.398001 15.441,4.622002 18.535999,4.622002c3.095999,-0.001001 18.537001,-0.224001 18.537001,-4.623001zm-18.537001,-10.285c7.897001,3.947001 16.528997,8.966 16.940001,10.285c0,1.022001 -5.114998,3.025 -16.940001,3.025c-11.824999,0 -16.938999,-2.002998 -16.945999,-2.967999c0.417,-1.374001 9.049,-6.395 16.945999,-10.342001z"/>
  </g>
 </g>
</svg>