<svg width="60" height="60" xmlns="http://www.w3.org/2000/svg">
 <g>
  <title>Layer 1</title>
  <g id="svg_110">
   <path id="svg_111" fill="#ffffff" d="m26.278,23.811001c0.049999,0.042 0.106001,0.073 0.153999,0.118c0.923,0.851999 1.451,1.955999 1.568001,3.056999c-2.037001,0.749001 -3.457001,2.42 -3.899,4.312c-1.183001,-0.008999 -2.336,-0.476 -3.253,-1.321999c-1.868999,-1.726 -2.135,-4.486002 -0.597,-6.153c0.499001,-0.539001 1.145,-0.897001 1.864,-1.08c-0.417,-0.384001 -0.750999,-0.842001 -0.983999,-1.339001c-0.771,0.291 -1.470001,0.735001 -2.038,1.35c-2.129,2.306 -1.822001,6.063999 0.684999,8.380999c1.173,1.084002 2.656,1.685999 4.186001,1.728998c0.028,0.486 0.115999,0.975002 0.282999,1.453003c0.162001,0.465 0.399,0.890999 0.675001,1.285c0.827,0.126999 1.691,0.23 2.618,0.296997c-0.834002,-0.470997 -1.490002,-1.196999 -1.804001,-2.101997c-0.746,-2.143002 0.549,-4.548 2.888,-5.362001c0.518999,-0.181 1.053999,-0.271999 1.591999,-0.271999c1.834,0 3.442001,1.077 4.000999,2.681c0.73,2.097002 -0.500999,4.434999 -2.742998,5.297998c1.224001,0.059002 2.103998,0.076 2.799997,0.027c1.522003,-1.535 2.153,-3.771 1.433002,-5.843998c-0.778,-2.236 -2.984001,-3.739 -5.490002,-3.739c-0.230999,0 -0.459999,0.034 -0.689999,0.059c-0.131001,-0.972 -0.493,-1.928001 -1.092001,-2.784c-0.875999,-0.046 -1.577999,-0.063 -2.157,-0.049999z"/>
   <path id="svg_112" fill="#ffffff" d="m22.319,28.551001c0.211,0 0.423,-0.084999 0.577999,-0.254l1.980001,-2.145c0.296,-0.317999 0.275999,-0.816999 -0.044001,-1.112999c-0.318001,-0.295 -0.818001,-0.276001 -1.114,0.043999l-1.98,2.145c-0.295,0.319 -0.275,0.818001 0.044001,1.114c0.151999,0.139 0.344,0.209 0.535999,0.209z"/>
   <path id="svg_113" fill="#ffffff" d="m28.768999,31.247l0.959999,2.754999c0.113001,0.326 0.419001,0.528999 0.744001,0.528999c0.085999,0 0.174,-0.014 0.26,-0.042999c0.41,-0.142998 0.627998,-0.591999 0.484999,-1.003998l-0.959999,-2.756001c-0.144001,-0.411001 -0.595001,-0.629 -1.003,-0.486c-0.410999,0.143999 -0.629,0.594 -0.486,1.004999z"/>
   <path id="svg_114" fill="#ffffff" d="m23.620001,36.724998c-0.501999,-0.098 -1.011999,-0.260002 -1.552999,-0.431999c-0.941999,-0.299 -1.917,-0.607002 -2.962,-0.607002c-0.290001,0 -0.576,0.023003 -0.85,0.072002c-1.624001,0.286999 -3.13,1.390999 -4.458,2.361c-0.460999,0.335999 -0.908999,0.663998 -1.341,0.943001c-0.612,0.392998 -1.112,0.657997 -1.552,0.892998c-0.926001,0.490002 -1.658,0.877003 -2.116,1.896c-0.321999,0.715 -0.328,1.330002 -0.334,1.824001c-0.023001,2.111 0.886999,4.416 2.32,5.875c1.072,1.09 2.375,1.671997 3.796,1.68l0,0c1.42,0 2.457,-0.713001 3.371001,-1.344002c0.702999,-0.483997 1.368,-0.940998 2.147999,-1.049c0.802999,-0.108997 1.436001,0.215 2.056,0.527l0.221001,0.109001c3.159,1.549 6.969999,1.762001 10.618,1.762001l1.341999,-0.006001c7.042,-0.051003 13.002003,-2.787003 14.149002,-5.314003c0.361,-0.794998 0.405998,-1.476997 0.132999,-2.027c-0.250999,-0.509998 -0.734001,-0.849998 -1.438,-1.011997c-1.079002,-0.25 -3.030003,0.48 -4.931999,1.206997c-0.888,0.338001 -1.727001,0.658001 -2.355003,0.828003c-2.483997,0.669998 -5.188999,0.601997 -7.771,-0.195c-0.150999,-0.047001 -0.345999,-0.098003 -0.562998,-0.154003c-1.236,-0.315998 -1.957001,-0.611 -2.149,-0.875c0.153999,-0.052998 0.483,-0.122997 1.140999,-0.122997l1.190001,0.014c1.462999,0 5.913,0 6.191999,-3.170002c0.087002,-0.989998 -0.523998,-1.911999 -1.169998,-2.389c-0.502003,-0.370998 -1.145,-0.568001 -1.858002,-0.568001c-0.167,0 -0.302998,0.010002 -0.401001,0.02c-1.298,0.104 -3.126999,-0.011997 -6.619999,-0.224998c-1.547001,-0.095997 -2.939001,-0.266998 -4.254,-0.521zm12.194998,2.562c0.327999,0.242001 0.563999,0.674 0.536999,0.98c-0.102997,1.166 -1.614998,1.734001 -4.621998,1.734001l-1.190001,-0.015999c-1.257,0 -2.007999,0.218998 -2.436001,0.706997c-0.259998,0.297001 -0.372999,0.684002 -0.317999,1.09c0.201,1.492001 2.108999,1.982002 3.368999,2.307003c0.189001,0.049 0.358,0.091999 0.491001,0.132999c2.865997,0.884998 5.876999,0.960999 8.646,0.212997c0.707001,-0.190998 1.582001,-0.524998 2.507999,-0.878998c1.420998,-0.541 3.030998,-1.158001 3.848999,-1.158001c0.091,0 0.145,0.012001 0.167,0.015999c0.271999,0.062 0.363998,0.145 0.379002,0.172001c0.025997,0.056999 0.030998,0.27 -0.156002,0.678001c-0.799999,1.759998 -6.153999,4.343998 -12.727997,4.390999l-1.328003,0.006001c-3.457998,0 -7.053999,-0.193001 -9.924,-1.599998l-0.205999,-0.105003c-0.603001,-0.302998 -1.427,-0.716999 -2.452,-0.716999c-0.17,0 -0.347,0.012001 -0.527,0.036999c-1.152,0.158001 -2.042999,0.771004 -2.829,1.314003c-0.83,0.57 -1.546,1.063999 -2.492,1.063999h-0.000999c-0.979,-0.006001 -1.873,-0.411999 -2.655,-1.209c-1.137,-1.156002 -1.887,-3.063999 -1.868,-4.751999c0.006,-0.484001 0.021,-0.809002 0.195,-1.195004c0.226,-0.501999 0.521,-0.675999 1.417,-1.151997c0.445,-0.236 1,-0.529003 1.666,-0.957001c0.457,-0.292999 0.932,-0.641003 1.419,-0.996002c1.249001,-0.913998 2.539001,-1.858997 3.803,-2.081997c1.000999,-0.182003 1.987999,0.144997 3.060999,0.485996c0.559,0.176003 1.137001,0.359001 1.729,0.475002c1.383001,0.27 2.841002,0.449001 4.476,0.549c3.699001,0.227001 5.417999,0.334 6.834,0.221001c0.061001,-0.004002 0.151001,-0.014 0.266003,-0.014c0.377998,-0.000999 0.688,0.089001 0.919998,0.258999z"/>
   <path id="svg_115" fill="#ffffff" d="m45.431999,8.77c-1.421001,0 -2.456001,0.714 -3.370998,1.342999c-0.704002,0.485 -1.369003,0.943 -2.148003,1.05c-0.801998,0.111 -1.438,-0.215 -2.058998,-0.527l-0.219002,-0.108c-3.159,-1.55 -6.969999,-1.763 -10.616999,-1.763l-1.341999,0.005c-7.042,0.051 -13.002,2.788 -14.151,5.314c-0.360999,0.795 -0.405,1.478001 -0.132999,2.028001c0.251001,0.508999 0.736,0.848999 1.438,1.011c1.08,0.247999 3.026,-0.48 4.929999,-1.206c0.889,-0.34 1.729,-0.66 2.358002,-0.829c2.483,-0.67 5.188,-0.602 7.771,0.196c0.153,0.046 0.346998,0.098 0.566,0.153c1.236,0.318 1.956999,0.612 2.146999,0.874999c-0.152,0.053001 -0.482,0.124001 -1.139999,0.124001l-1.186001,-0.014999c-1.464001,0 -5.917999,0 -6.197001,3.17c-0.087999,0.987999 0.523001,1.911999 1.169001,2.389999c0.503,0.371 1.146,0.566999 1.858999,0.566999c0.167,0 0.303001,-0.011999 0.400002,-0.018999c1.303999,-0.106001 3.146999,0.011 6.620001,0.225c1.547997,0.094999 2.939999,0.264999 4.253998,0.521c0.501999,0.098 1.014,0.26 1.553001,0.431999c0.943001,0.298 1.918999,0.607 2.964001,0.607c0.289997,0 0.574997,-0.024 0.848999,-0.073c1.625,-0.287001 3.130001,-1.389 4.459,-2.360001c0.461998,-0.337 0.909,-0.666 1.341999,-0.942999c0.612,-0.394001 1.111,-0.658001 1.553001,-0.893002c0.924999,-0.49 1.654999,-0.879 2.113998,-1.896c0.32,-0.712999 0.329002,-1.33 0.334,-1.824999c0.024002,-2.111 -0.885998,-4.418 -2.320999,-5.876c-1.074001,-1.091001 -2.375999,-1.671 -3.796001,-1.678zm4.344002,8.730999c-0.228001,0.501999 -0.521,0.677 -1.417,1.152c-0.445,0.234999 -0.999001,0.529999 -1.666,0.957998c-0.458,0.294001 -0.931999,0.641001 -1.421001,0.998001c-1.246998,0.913 -2.536999,1.857 -3.801998,2.08c-0.192001,0.035 -0.383999,0.049 -0.574001,0.049c-0.800999,0 -1.619999,-0.26 -2.487,-0.532999c-0.558998,-0.178001 -1.135998,-0.360001 -1.728001,-0.477001c-1.383999,-0.268999 -2.842999,-0.448 -4.459,-0.546999c-2.612999,-0.161001 -4.339998,-0.268002 -5.601999,-0.268002c-0.464001,0 -0.868,0.015001 -1.25,0.045c-0.059,0.005001 -0.150999,0.013 -0.264999,0.013c-0.379,0 -0.689001,-0.087 -0.922001,-0.259001c-0.327,-0.242998 -0.563,-0.672998 -0.535999,-0.980999c0.103001,-1.166 1.615999,-1.732 4.625999,-1.732l1.186001,0.015001c1.255999,0 2.007,-0.219002 2.434,-0.707001c0.259998,-0.297001 0.374001,-0.684999 0.319,-1.09c-0.202,-1.49 -2.105001,-1.981 -3.366001,-2.307c-0.191,-0.049 -0.361,-0.092 -0.494999,-0.133c-2.867001,-0.884 -5.877001,-0.959 -8.646,-0.212c-0.707001,0.190001 -1.582001,0.524 -2.51,0.879001c-1.420001,0.542 -3.029,1.157 -3.846001,1.157c-0.092,0 -0.145,-0.01 -0.168,-0.015c-0.271,-0.061999 -0.363999,-0.146 -0.377999,-0.172999c-0.028001,-0.057 -0.031,-0.269 0.156001,-0.678c0.798999,-1.759 6.153998,-4.343999 12.726998,-4.389998l1.33,-0.007c3.457001,0 7.052999,0.193999 9.923002,1.602001l0.204998,0.102999c0.702999,0.354 1.716999,0.854 2.980999,0.681c1.150002,-0.158 2.042999,-0.771 2.829002,-1.313c0.828999,-0.571 1.545998,-1.064 2.490997,-1.064c0.979,0.006 1.872002,0.411 2.654003,1.207c1.136997,1.156 1.887997,3.066 1.868,4.752c-0.002003,0.421 -0.006004,0.784 -0.191002,1.195z"/>
  </g>
 </g>
</svg>