<?xml version="1.0" encoding="utf-8"?>
<!-- Generator: Adobe Illustrator 21.0.0, SVG Export Plug-In . SVG Version: 6.00 Build 0)  -->
<svg version="1.1" id="Layer_1" xmlns="http://www.w3.org/2000/svg" xmlns:xlink="http://www.w3.org/1999/xlink" x="0px" y="0px"
	 viewBox="0 0 18.7 15.9" style="enable-background:new 0 0 18.7 15.9;" xml:space="preserve">
<style type="text/css">
	.st0{fill:none;stroke:#3F8372;stroke-width:0.75;stroke-linecap:round;stroke-linejoin:round;}
</style>
<path class="st0" d="M18.4,2h-1.1l0.5-1.4l-2.2,0.8c-0.1-0.1-0.2-0.2-0.3-0.2c-0.9-0.7-2.1-1-3.5-0.7c-3.4,0.6-3,4.8-3,4.8
	S6.1,3.9,5.1,3.4c-1-0.6-3.9-2.5-3.9-2.5C0.4,5.4,2.6,6.2,2.6,6.2H0.4c0.3,2.6,3.1,3.5,3.1,3.5l-1.8,0.4c0,0,1.1,1,1.8,1.6
	S5,12.6,5,12.6l-4.4,0.5c3.1,2.3,7.2,4.2,12.2-0.2c3-2.7,4.2-6.1,4-8.7L18.4,2z"/>
</svg>
