<?xml version="1.0" encoding="utf-8"?>
<!-- Generator: Adobe Illustrator 16.0.4, SVG Export Plug-In . SVG Version: 6.00 Build 0)  -->
<!DOCTYPE svg PUBLIC "-//W3C//DTD SVG 1.1//EN" "http://www.w3.org/Graphics/SVG/1.1/DTD/svg11.dtd" [
	<!ENTITY st0 "fill:#FFFFFF;">
	<!ENTITY st1 "fill:none;stroke:#FFFFFF;stroke-width:0.35;">
]>
<svg version="1.1" id="Layer_1" xmlns="http://www.w3.org/2000/svg" xmlns:xlink="http://www.w3.org/1999/xlink" x="0px" y="0px"
	 width="25.333px" height="9.687px" viewBox="56.334 34.667 25.333 9.687"
	 style="enable-background:new 56.334 34.667 25.333 9.687;" xml:space="preserve">
<path style="&st0;" d="M61.559,38.528c-0.082-0.082-0.246-0.247-0.37-0.37c-0.144-0.145-0.185-0.206-0.185-0.453v-1.091
	c0-0.165-0.248-0.124-0.248,0c0,0-0.02,1.894,0,2.038c0.021,0.165-0.061,0.288,0.207,0.453c0.287,0.186,0.699,0.289,0.699,0.289
	s0-0.412,0.021-0.556C61.662,38.714,61.642,38.652,61.559,38.528 M61.436,39.146L61.436,39.146
	c-0.412-0.165-0.473-0.124-0.412-0.721C61.497,38.672,61.456,38.796,61.436,39.146"/>
<path style="&st0;" d="M61.908,38.878c0,0.165,0.021,0.556,0.021,0.556s0.412-0.124,0.699-0.288
	c0.248-0.165,0.186-0.288,0.206-0.453c0.021-0.165,0-2.038,0-2.038c0-0.144-0.247-0.165-0.247,0v1.091
	c0,0.247-0.041,0.289-0.186,0.453c-0.082,0.082-0.268,0.247-0.37,0.37C61.95,38.652,61.908,38.714,61.908,38.878 M62.567,38.384
	c0.062,0.597-0.021,0.556-0.411,0.72l0,0C62.135,38.796,62.094,38.672,62.567,38.384"/>
<path style="&st0;" d="M62.115,37.438c-0.145-0.247,0,0-0.207-0.329v-1.194c0-0.185-0.246-0.165-0.246,0v1.214
	c0,0-0.206,0.35-0.247,0.473c-0.062,0.124-0.124,0.289,0.062,0.515c0.021,0.021,0.041,0.062,0.309,0.33l0,0c0,0,0,0,0.247-0.247
	C62.342,37.87,62.238,37.685,62.115,37.438 M61.807,38.137c-0.453-0.247-0.124-0.576,0-0.802l0.02,0.021
	C62.156,37.849,62.053,37.932,61.807,38.137"/>
<path style="&st0;" d="M61.662,39.99c-0.021-0.247-0.082-0.432-0.576-0.618c-0.412-0.144-0.988-0.185-1.379-0.247
	c-0.412-0.083-1.111-0.186-1.461-0.515c0.246,0.864,0.904,1.214,1.563,1.379c0.741,0.165,1.399,0.227,1.832,0.514l0.041,0.041
	C61.642,40.319,61.662,40.237,61.662,39.99 M61.456,40.113c-0.37-0.124-0.597-0.165-1.235-0.288
	c-0.638-0.124-1.028-0.247-1.379-0.618c0.557,0.227,1.441,0.288,1.936,0.412C61.271,39.702,61.395,39.825,61.456,40.113
	L61.456,40.113z"/>
<path style="&st0;" d="M61.908,40.525l0.042-0.042c0.411-0.268,1.07-0.35,1.831-0.515c0.659-0.144,1.318-0.494,1.564-1.379
	c-0.35,0.329-1.049,0.432-1.461,0.514c-0.412,0.083-0.988,0.083-1.379,0.247c-0.474,0.186-0.576,0.391-0.576,0.618
	C61.908,40.237,61.95,40.319,61.908,40.525 M62.135,40.113c0.062-0.288,0.186-0.412,0.68-0.515s1.379-0.185,1.935-0.412
	c-0.35,0.371-0.72,0.473-1.379,0.618C62.711,39.949,62.465,39.969,62.135,40.113L62.135,40.113z"/>
<path style="&st0;" d="M61.642,41.08c0-0.452-0.247-0.576-0.659-0.699c-0.411-0.124-0.946-0.186-1.399-0.309
	c-0.474-0.124-0.72-0.227-1.05-0.556c0.082,0.679,0.535,1.153,1.111,1.359c0.576,0.205,0.557,0.164,0.865,0.246
	c0.309,0.083,0.37,0.207,0.37,0.392v0.411h0.762C61.642,40.978,61.621,41.574,61.642,41.08 M61.395,41.637h-0.309
	c0,0,0-0.124-0.021-0.351c-0.02-0.288-0.369-0.329-0.926-0.474c-0.391-0.103-0.885-0.246-1.132-0.638
	c0.144,0.062,0.411,0.186,0.886,0.268c0.432,0.083,0.679,0.144,1.07,0.227c0.391,0.082,0.452,0.309,0.452,0.556L61.395,41.637
	L61.395,41.637z"/>
<path style="&st0;" d="M61.93,41.883h0.762v-0.411c0-0.206,0.062-0.309,0.37-0.392c0.309-0.082,0.268-0.041,0.864-0.246
	c0.576-0.206,1.05-0.68,1.111-1.359c-0.309,0.35-0.576,0.432-1.049,0.556c-0.475,0.124-1.029,0.227-1.4,0.309
	c-0.412,0.103-0.658,0.246-0.658,0.699C61.93,41.574,61.908,40.978,61.93,41.883 M62.156,41.225c0-0.247,0.082-0.494,0.453-0.556
	c0.411-0.083,0.637-0.124,1.069-0.227c0.453-0.082,0.721-0.226,0.886-0.268c-0.227,0.392-0.721,0.535-1.133,0.638
	c-0.555,0.165-0.905,0.186-0.926,0.474c-0.021,0.227-0.021,0.351-0.021,0.351h-0.329V41.225L62.156,41.225z"/>
<path style="&st0;" d="M60.057,44.045c-0.082,0.02-0.206,0.041-0.309,0.041c-0.433,0-0.741-0.227-0.741-0.68
	s0.288-0.721,0.741-0.721c0.082,0,0.205,0.021,0.309,0.062l-0.021,0.246c-0.103-0.062-0.206-0.082-0.288-0.082
	c-0.268,0-0.453,0.227-0.453,0.494S59.46,43.9,59.748,43.9c0.103,0,0.246-0.021,0.288-0.062L60.057,44.045z"/>
<path style="&st0;" d="M61.332,42.975c-0.103-0.062-0.246-0.083-0.35-0.083c-0.309,0-0.494,0.227-0.494,0.494
	s0.165,0.493,0.453,0.493c0.082,0,0.123,0,0.186-0.02v-0.35h-0.288v-0.227h0.556v0.72c-0.145,0.042-0.288,0.083-0.432,0.083
	c-0.434,0-0.742-0.227-0.742-0.68c0-0.474,0.289-0.721,0.742-0.721c0.164,0,0.267,0.021,0.411,0.062L61.332,42.975z"/>
<rect x="61.662" y="42.707" style="&st0;" width="0.268" height="1.357"/>
<path style="&st0;" d="M62.959,43.529h-0.412l0.206-0.555l0,0L62.959,43.529z M62.074,44.064h0.268l0.123-0.309h0.556l0.103,0.309
	h0.309l-0.535-1.357h-0.309L62.074,44.064z"/>
<path style="&st0;" d="M63.864,42.912h0.082c0.124,0,0.288,0.021,0.288,0.186c0,0.164-0.145,0.186-0.288,0.186h-0.082V42.912z
	 M63.597,44.064h0.268V43.51h0.082c0.103,0,0.144,0.041,0.186,0.144l0.165,0.411h0.309l-0.227-0.535
	c-0.041-0.062-0.082-0.123-0.145-0.144l0,0c0.165-0.021,0.268-0.165,0.268-0.309c0-0.392-0.35-0.37-0.638-0.37h-0.268V44.064z"/>
<path style="&st0;" d="M67.651,36.697h0.37c0.145,0,0.247,0.062,0.247,0.206c0,0.103-0.062,0.165-0.144,0.206l0,0
	c0.082,0.021,0.082,0.082,0.103,0.165L68.31,37.5h-0.226l-0.042-0.144c-0.041-0.124-0.082-0.165-0.144-0.165h-0.041V37.5h-0.206
	V36.697L67.651,36.697z M67.836,37.026h0.062c0.082,0,0.144,0,0.144-0.082c0-0.083-0.082-0.083-0.144-0.083h-0.062V37.026z"/>
<polygon style="&st0;" points="68.453,36.697 69.01,36.697 69.01,36.841 68.66,36.841 68.66,37.005 68.988,37.005 68.988,37.149 
	68.66,37.149 68.66,37.314 69.01,37.314 69.01,37.479 68.453,37.479 "/>
<path style="&st0;" d="M69.215,37.273c0.062,0.041,0.124,0.062,0.227,0.062c0.082,0,0.124-0.021,0.124-0.083
	c0-0.144-0.37-0.062-0.37-0.33c0-0.185,0.185-0.247,0.35-0.247c0.082,0,0.144,0.021,0.205,0.041l-0.02,0.124
	c-0.062-0.021-0.104-0.041-0.165-0.041s-0.145,0-0.145,0.082c0,0.124,0.37,0.041,0.37,0.33c0,0.206-0.164,0.247-0.35,0.247
	c-0.082,0-0.164-0.021-0.246-0.041L69.215,37.273z"/>
<polygon style="&st0;" points="69.956,36.697 70.512,36.697 70.512,36.841 70.183,36.841 70.183,37.005 70.491,37.005 
	70.491,37.149 70.183,37.149 70.183,37.314 70.533,37.314 70.533,37.479 69.956,37.479 "/>
<path style="&st0;" d="M70.965,36.697h0.247l0.288,0.782h-0.227l-0.062-0.185h-0.288l-0.062,0.165h-0.227L70.965,36.697z
	 M71.088,36.861L71.088,36.861l-0.103,0.309h0.206L71.088,36.861z"/>
<path style="&st0;" d="M71.664,36.697h0.371c0.145,0,0.246,0.062,0.246,0.206c0,0.103-0.061,0.165-0.144,0.206l0,0
	c0.083,0.021,0.083,0.082,0.103,0.165l0.083,0.227h-0.227l-0.041-0.144c-0.041-0.124-0.083-0.165-0.144-0.165H71.87V37.5h-0.206
	V36.697L71.664,36.697z M71.87,37.026h0.062c0.083,0,0.145,0,0.145-0.082c0-0.083-0.082-0.083-0.145-0.083H71.87V37.026z"/>
<path style="&st0;" d="M73.146,37.458c-0.062,0.021-0.123,0.042-0.247,0.042c-0.206,0-0.452-0.103-0.452-0.412
	c0-0.268,0.185-0.412,0.452-0.412c0.083,0,0.165,0.021,0.247,0.041l-0.021,0.165c-0.083-0.041-0.124-0.062-0.206-0.062
	c-0.145,0-0.247,0.103-0.247,0.247c0,0.144,0.103,0.247,0.247,0.247c0.082,0,0.145-0.021,0.206-0.041v0.185H73.146z"/>
<polygon style="&st0;" points="73.311,36.697 73.517,36.697 73.517,36.985 73.764,36.985 73.764,36.697 73.949,36.697 
	73.949,37.479 73.764,37.479 73.764,37.129 73.517,37.129 73.517,37.479 73.311,37.479 "/>
<path style="&st0;" d="M67.631,38.014h0.246c0.248,0,0.351,0.083,0.351,0.247s-0.103,0.247-0.309,0.247h-0.083v0.268h-0.205V38.014
	L67.631,38.014z M67.836,38.384h0.062c0.082,0,0.123-0.021,0.123-0.103c0-0.082-0.062-0.103-0.123-0.103h-0.062V38.384z"/>
<path style="&st0;" d="M68.393,38.014h0.37c0.144,0,0.247,0.062,0.247,0.206c0,0.103-0.062,0.165-0.145,0.206l0,0
	c0.082,0.021,0.082,0.083,0.104,0.165l0.082,0.226h-0.227l-0.041-0.144c-0.041-0.124-0.082-0.165-0.145-0.165h-0.041v0.309h-0.205
	V38.014L68.393,38.014z M68.598,38.343h0.062c0.082,0,0.144,0,0.144-0.083c0-0.082-0.083-0.082-0.144-0.082h-0.062V38.343z"/>
<path style="&st0;" d="M69.586,38.014c0.247,0,0.391,0.145,0.391,0.412c0,0.268-0.123,0.412-0.391,0.412
	c-0.247,0-0.391-0.165-0.391-0.412C69.195,38.179,69.318,38.014,69.586,38.014 M69.586,38.652c0.123,0,0.186-0.124,0.186-0.247
	s-0.062-0.247-0.186-0.247S69.4,38.261,69.4,38.405S69.441,38.652,69.586,38.652"/>
<path style="&st0;" d="M70.883,38.796c-0.124,0.041-0.248,0.041-0.309,0.041c-0.207,0-0.453-0.103-0.453-0.412
	c0-0.288,0.205-0.412,0.494-0.412c0.062,0,0.164,0,0.246,0.042l-0.02,0.165c-0.083-0.041-0.145-0.062-0.186-0.062
	c-0.165,0-0.309,0.082-0.309,0.247c0,0.144,0.103,0.247,0.246,0.247c0.041,0,0.062,0,0.083-0.021v-0.144h-0.124v-0.144h0.33V38.796
	L70.883,38.796z"/>
<path style="&st0;" d="M71.088,38.014h0.371c0.144,0,0.246,0.062,0.246,0.206c0,0.103-0.061,0.165-0.144,0.206l0,0
	c0.083,0.021,0.083,0.083,0.103,0.165l0.083,0.226h-0.227l-0.041-0.144c-0.042-0.124-0.083-0.165-0.145-0.165h-0.041v0.309h-0.206
	V38.014L71.088,38.014z M71.314,38.343h0.062c0.082,0,0.144,0,0.144-0.083c0-0.082-0.083-0.082-0.144-0.082h-0.062V38.343z"/>
<path style="&st0;" d="M72.158,38.014h0.247l0.288,0.782h-0.227l-0.062-0.165h-0.288l-0.062,0.165h-0.227L72.158,38.014z
	 M72.281,38.179L72.281,38.179l-0.102,0.309h0.205L72.281,38.179z"/>
<polygon style="&st0;" points="72.858,38.014 73.167,38.014 73.352,38.549 73.352,38.549 73.517,38.014 73.826,38.014 
	73.826,38.816 73.641,38.816 73.641,38.199 73.641,38.199 73.435,38.816 73.25,38.816 73.064,38.199 73.043,38.199 73.064,38.816 
	72.858,38.816 "/>
<path style="&st0;" d="M74.834,38.014c0.247,0,0.391,0.145,0.391,0.412c0,0.268-0.123,0.412-0.391,0.412
	c-0.247,0-0.391-0.165-0.391-0.412C74.443,38.179,74.566,38.014,74.834,38.014 M74.834,38.652c0.123,0,0.186-0.124,0.186-0.247
	s-0.062-0.247-0.186-0.247s-0.186,0.103-0.186,0.247S74.711,38.652,74.834,38.652"/>
<polygon style="&st0;" points="75.41,38.014 75.678,38.014 75.945,38.549 75.945,38.549 75.925,38.014 76.131,38.014 76.131,38.816 
	75.884,38.816 75.596,38.281 75.596,38.281 75.596,38.816 75.41,38.816 "/>
<path style="&st0;" d="M67.774,40.937l-0.329-1.297h0.186l0.144,0.659c0.042,0.165,0.083,0.33,0.083,0.432l0,0
	c0.02-0.123,0.062-0.268,0.103-0.453l0.165-0.659h0.185l0.165,0.659c0.041,0.144,0.082,0.308,0.082,0.432l0,0
	c0.021-0.144,0.062-0.288,0.104-0.432l0.164-0.659h0.164l-0.369,1.297h-0.186l-0.165-0.679c-0.041-0.165-0.083-0.288-0.083-0.412
	l0,0c-0.02,0.124-0.061,0.247-0.082,0.412l-0.185,0.679L67.774,40.937L67.774,40.937z"/>
<path style="&st0;" d="M69.668,40.937l-0.021-0.103l0,0c-0.062,0.082-0.144,0.144-0.268,0.144c-0.185,0-0.268-0.124-0.268-0.268
	c0-0.226,0.206-0.35,0.556-0.35v-0.042c0-0.082-0.021-0.226-0.227-0.226c-0.082,0-0.186,0.021-0.246,0.082l-0.041-0.103
	c0.082-0.062,0.185-0.083,0.309-0.083c0.268,0,0.35,0.206,0.35,0.391v0.35c0,0.082,0,0.165,0.021,0.227L69.668,40.937L69.668,40.937
	z M69.627,40.463c-0.186,0-0.391,0.041-0.391,0.206c0,0.103,0.082,0.165,0.164,0.165c0.123,0,0.206-0.083,0.227-0.145
	c0-0.021,0.021-0.041,0.021-0.062L69.627,40.463L69.627,40.463z"/>
<path style="&st0;" d="M70.244,39.743v0.268h0.247v0.124h-0.247v0.494c0,0.103,0.041,0.185,0.123,0.185c0.042,0,0.083,0,0.083-0.02
	v0.123c-0.041,0.021-0.083,0.021-0.144,0.021c-0.083,0-0.145-0.021-0.186-0.083c-0.062-0.061-0.082-0.123-0.082-0.246v-0.494h-0.124
	V39.99h0.144v-0.227L70.244,39.743z"/>
<path style="&st0;" d="M70.759,40.504c0,0.227,0.144,0.33,0.31,0.33c0.123,0,0.205-0.021,0.246-0.062l0.041,0.124
	c-0.062,0.021-0.164,0.062-0.309,0.062c-0.288,0-0.453-0.186-0.453-0.473c0-0.289,0.165-0.494,0.433-0.494
	c0.31,0,0.392,0.268,0.392,0.432c0,0.041,0,0.062,0,0.082H70.759z M71.253,40.381c0-0.103-0.041-0.268-0.247-0.268
	c-0.164,0-0.247,0.165-0.247,0.268H71.253z"/>
<path style="&st0;" d="M71.603,40.298c0-0.103,0-0.206,0-0.288h0.145v0.185l0,0c0.041-0.123,0.144-0.206,0.247-0.206
	c0.021,0,0.041,0,0.062,0v0.165c-0.021,0-0.041,0-0.062,0c-0.124,0-0.206,0.083-0.227,0.227c0,0.021,0,0.062,0,0.082v0.494h-0.145
	L71.603,40.298L71.603,40.298z"/>
<path style="&st0;" d="M72.117,41.163c0.041-0.103,0.082-0.31,0.104-0.453l0.185-0.021c-0.041,0.164-0.124,0.391-0.185,0.453
	L72.117,41.163z"/>
<polygon style="&st0;" points="72.982,39.64 73.146,39.64 73.146,40.793 73.702,40.793 73.702,40.937 72.982,40.937 "/>
<path style="&st0;" d="M74.381,40.937l-0.02-0.103l0,0c-0.062,0.082-0.145,0.144-0.268,0.144c-0.186,0-0.268-0.124-0.268-0.268
	c0-0.226,0.205-0.35,0.555-0.35v-0.042c0-0.082-0.02-0.226-0.227-0.226c-0.082,0-0.185,0.021-0.246,0.082l-0.041-0.103
	c0.082-0.062,0.185-0.083,0.309-0.083c0.268,0,0.35,0.206,0.35,0.391v0.35c0,0.082,0,0.165,0.021,0.227L74.381,40.937L74.381,40.937
	z M74.361,40.463c-0.186,0-0.392,0.041-0.392,0.206c0,0.103,0.082,0.165,0.165,0.165c0.123,0,0.205-0.083,0.227-0.145
	c0-0.021,0.02-0.041,0.02-0.062L74.361,40.463L74.361,40.463z"/>
<path style="&st0;" d="M74.772,40.278c0-0.083,0-0.185,0-0.247h0.144l0.021,0.144l0,0c0.061-0.082,0.144-0.185,0.309-0.185
	c0.123,0,0.329,0.083,0.329,0.412v0.556H75.41v-0.535c0-0.144-0.062-0.268-0.227-0.268c-0.103,0-0.205,0.083-0.227,0.165
	c0,0.021-0.02,0.062-0.02,0.083v0.556h-0.165V40.278L74.772,40.278z"/>
<path style="&st0;" d="M76.604,39.578v1.111c0,0.082,0,0.186,0,0.247H76.46v-0.165l0,0c-0.062,0.104-0.165,0.186-0.309,0.186
	c-0.227,0-0.411-0.186-0.411-0.473c0-0.309,0.185-0.494,0.411-0.494c0.144,0,0.247,0.083,0.268,0.144l0,0v-0.556
	C76.439,39.578,76.604,39.578,76.604,39.578z M76.439,40.381c0-0.021,0-0.062,0-0.083c-0.021-0.103-0.104-0.206-0.247-0.206
	c-0.185,0-0.268,0.144-0.268,0.37c0,0.186,0.083,0.35,0.268,0.35c0.103,0,0.227-0.082,0.247-0.205c0-0.021,0-0.062,0-0.082V40.381
	L76.439,40.381z"/>
<path style="&st0;" d="M77.777,40.937l-0.021-0.103l0,0c-0.062,0.082-0.145,0.144-0.268,0.144c-0.186,0-0.268-0.124-0.268-0.268
	c0-0.226,0.206-0.35,0.556-0.35v-0.042c0-0.082-0.021-0.226-0.227-0.226c-0.082,0-0.186,0.021-0.247,0.082l-0.041-0.103
	c0.083-0.062,0.185-0.083,0.309-0.083c0.268,0,0.351,0.206,0.351,0.391v0.35c0,0.082,0,0.165,0.02,0.227L77.777,40.937
	L77.777,40.937z M77.757,40.463c-0.186,0-0.392,0.041-0.392,0.206c0,0.103,0.082,0.165,0.165,0.165c0.124,0,0.206-0.083,0.227-0.145
	c0-0.021,0.021-0.041,0.021-0.062L77.757,40.463L77.757,40.463z"/>
<path style="&st0;" d="M78.168,40.278c0-0.083,0-0.185,0-0.247h0.145l0.021,0.144l0,0c0.062-0.082,0.144-0.185,0.309-0.185
	c0.124,0,0.329,0.083,0.329,0.412v0.556h-0.164v-0.535c0-0.144-0.062-0.268-0.227-0.268c-0.104,0-0.206,0.083-0.227,0.165
	c0,0.021-0.021,0.062-0.021,0.083v0.556h-0.186L78.168,40.278L78.168,40.278z"/>
<path style="&st0;" d="M80,39.578v1.111c0,0.082,0,0.186,0,0.247h-0.145v-0.165l0,0c-0.062,0.104-0.164,0.186-0.309,0.186
	c-0.227,0-0.411-0.186-0.411-0.473c0-0.309,0.185-0.494,0.411-0.494c0.145,0,0.247,0.083,0.268,0.144l0,0v-0.556
	C79.836,39.578,80,39.578,80,39.578z M79.836,40.381c0-0.021,0-0.062,0-0.083c-0.021-0.103-0.104-0.206-0.248-0.206
	c-0.185,0-0.268,0.144-0.268,0.37c0,0.186,0.083,0.35,0.268,0.35c0.104,0,0.227-0.082,0.248-0.205c0-0.021,0-0.062,0-0.082V40.381
	L79.836,40.381z"/>
<polygon style="&st0;" points="68.228,42.377 67.713,42.377 67.713,42.83 68.289,42.83 68.289,42.975 67.549,42.975 67.549,41.678 
	68.248,41.678 68.248,41.821 67.713,41.821 67.713,42.213 68.228,42.213 "/>
<path style="&st0;" d="M69.133,42.933c-0.041,0.021-0.145,0.062-0.268,0.062c-0.268,0-0.453-0.185-0.453-0.473
	c0-0.289,0.207-0.494,0.494-0.494c0.082,0,0.186,0.021,0.248,0.062l-0.042,0.124c-0.041-0.021-0.103-0.041-0.206-0.041
	c-0.227,0-0.329,0.164-0.329,0.35c0,0.227,0.144,0.35,0.329,0.35c0.082,0,0.165-0.021,0.206-0.062L69.133,42.933z"/>
<path style="&st0;" d="M70.142,42.5c0,0.351-0.247,0.494-0.453,0.494c-0.247,0-0.433-0.185-0.433-0.473
	c0-0.309,0.207-0.494,0.453-0.494C69.977,42.027,70.142,42.213,70.142,42.5 M69.421,42.521c0,0.205,0.103,0.35,0.268,0.35
	s0.268-0.145,0.268-0.371c0-0.164-0.082-0.35-0.268-0.35C69.504,42.15,69.421,42.336,69.421,42.521"/>
<path style="&st0;" d="M70.326,42.789c0.062,0.041,0.145,0.082,0.227,0.082c0.124,0,0.186-0.062,0.186-0.145
	c0-0.082-0.062-0.123-0.164-0.164c-0.165-0.062-0.248-0.145-0.248-0.247c0-0.144,0.124-0.268,0.309-0.268
	c0.083,0,0.186,0.021,0.227,0.062l-0.041,0.123c-0.041-0.02-0.103-0.061-0.186-0.061c-0.082,0-0.144,0.061-0.144,0.123
	c0,0.062,0.062,0.104,0.186,0.164c0.165,0.062,0.247,0.145,0.247,0.268c0,0.165-0.123,0.268-0.35,0.268
	c-0.104,0-0.207-0.02-0.248-0.062V42.789z"/>
<path style="&st0;" d="M71.15,42.048l0.205,0.556c0.021,0.062,0.041,0.123,0.062,0.186l0,0c0.02-0.062,0.041-0.124,0.062-0.206
	l0.185-0.556h0.186l-0.247,0.68c-0.123,0.309-0.206,0.473-0.309,0.576c-0.082,0.082-0.165,0.103-0.206,0.103l-0.062-0.144
	c0.042-0.021,0.083-0.042,0.144-0.083c0.062-0.041,0.104-0.103,0.145-0.185c0-0.021,0.021-0.042,0.021-0.042
	c0-0.021,0-0.021-0.021-0.041l-0.35-0.864L71.15,42.048L71.15,42.048z"/>
<path style="&st0;" d="M71.953,42.789c0.062,0.041,0.144,0.082,0.227,0.082c0.123,0,0.185-0.062,0.185-0.145
	c0-0.082-0.062-0.123-0.165-0.164c-0.164-0.062-0.246-0.145-0.246-0.247c0-0.144,0.123-0.268,0.309-0.268
	c0.082,0,0.186,0.021,0.227,0.062l-0.041,0.123c-0.042-0.02-0.104-0.061-0.186-0.061s-0.145,0.061-0.145,0.123
	c0,0.062,0.062,0.104,0.186,0.164c0.164,0.062,0.246,0.145,0.246,0.268c0,0.165-0.123,0.268-0.35,0.268
	c-0.103,0-0.205-0.02-0.246-0.062V42.789z"/>
<path style="&st0;" d="M72.899,41.78v0.268h0.247v0.124h-0.247v0.493c0,0.103,0.041,0.186,0.124,0.186c0.041,0,0.082,0,0.082-0.021
	v0.123c-0.041,0.021-0.082,0.021-0.145,0.021c-0.082,0-0.145-0.021-0.186-0.083c-0.061-0.062-0.082-0.124-0.082-0.247v-0.514h-0.145
	v-0.124h0.145V41.78H72.899z"/>
<path style="&st0;" d="M73.414,42.542c0,0.226,0.145,0.329,0.309,0.329c0.123,0,0.206-0.021,0.247-0.062l0.041,0.123
	c-0.062,0.021-0.165,0.062-0.309,0.062c-0.288,0-0.452-0.185-0.452-0.473c0-0.289,0.164-0.494,0.432-0.494
	c0.309,0,0.391,0.268,0.391,0.432c0,0.041,0,0.062,0,0.083H73.414z M73.908,42.398c0-0.104-0.041-0.268-0.247-0.268
	c-0.165,0-0.247,0.164-0.247,0.268H73.908z"/>
<path style="&st0;" d="M74.278,42.295c0-0.082,0-0.186,0-0.247h0.144v0.144l0,0c0.062-0.082,0.145-0.164,0.289-0.164
	c0.123,0,0.227,0.082,0.246,0.186l0,0c0.041-0.062,0.083-0.082,0.104-0.124c0.062-0.041,0.104-0.082,0.205-0.082
	c0.124,0,0.31,0.082,0.31,0.411v0.557H75.41v-0.535c0-0.186-0.082-0.289-0.205-0.289c-0.083,0-0.165,0.082-0.207,0.145
	c0,0.021-0.02,0.062-0.02,0.082v0.556h-0.165v-0.556c0-0.145-0.083-0.246-0.206-0.246c-0.103,0-0.186,0.082-0.205,0.164
	c-0.021,0.021-0.021,0.062-0.021,0.082v0.556h-0.164L74.278,42.295L74.278,42.295z"/>
<path style="&st0;" d="M75.822,42.789c0.062,0.041,0.144,0.082,0.227,0.082c0.123,0,0.185-0.062,0.185-0.145
	c0-0.082-0.062-0.123-0.165-0.164c-0.164-0.062-0.246-0.145-0.246-0.247c0-0.144,0.123-0.268,0.309-0.268
	c0.082,0,0.186,0.021,0.227,0.062l-0.041,0.123c-0.041-0.02-0.104-0.061-0.186-0.061s-0.145,0.061-0.145,0.123
	c0,0.062,0.062,0.104,0.186,0.164c0.164,0.062,0.247,0.145,0.247,0.268c0,0.165-0.124,0.268-0.351,0.268
	c-0.103,0-0.205-0.02-0.246-0.062V42.789z"/>
<line style="&st1;" x1="66.52" y1="35.75" x2="66.52" y2="44.064"/>
</svg>
