<?xml version="1.0" encoding="utf-8"?>
<!-- Generator: Adobe Illustrator 21.0.0, SVG Export Plug-In . SVG Version: 6.00 Build 0)  -->
<svg version="1.1" id="Layer_1" xmlns="http://www.w3.org/2000/svg" xmlns:xlink="http://www.w3.org/1999/xlink" x="0px" y="0px"
	 viewBox="0 0 116 125" style="enable-background:new 0 0 116 125;" xml:space="preserve">
<style type="text/css">
	.st0{clip-path:url(#SVGID_2_);}
	.st1{clip-path:url(#SVGID_4_);enable-background:new    ;}
	.st2{clip-path:url(#SVGID_6_);}
	.st3{clip-path:url(#SVGID_8_);fill:none;stroke:#FFFFFF;stroke-width:1.256;}
</style>
<g>
	<defs>
		<rect id="SVGID_1_" width="113.7" height="125"/>
	</defs>
	<clipPath id="SVGID_2_">
		<use xlink:href="#SVGID_1_"  style="overflow:visible;"/>
	</clipPath>
	<g class="st0">
		<defs>
			<rect id="SVGID_3_" x="-488" y="-8337" width="1920" height="13398"/>
		</defs>
		<clipPath id="SVGID_4_">
			<use xlink:href="#SVGID_3_"  style="overflow:visible;"/>
		</clipPath>
		<g class="st1">
			<g>
				<defs>
					<rect id="SVGID_5_" width="114" height="125"/>
				</defs>
				<clipPath id="SVGID_6_">
					<use xlink:href="#SVGID_5_"  style="overflow:visible;"/>
				</clipPath>
				<g class="st2">
					<defs>
						<rect id="SVGID_7_" width="114" height="125"/>
					</defs>
					<clipPath id="SVGID_8_">
						<use xlink:href="#SVGID_7_"  style="overflow:visible;"/>
					</clipPath>
					<path class="st3" d="M53.8,101.6v-9.4c-5.4-0.1-10.9-1.8-14.2-4.1l2.2-6.2c3.3,2.2,8.1,4,13.3,4c6.6,0,11-3.8,11-9.1
						c0-5.1-3.6-8.3-10.5-11c-9.5-3.7-15.3-8-15.3-16c0-7.7,5.5-13.5,14-14.9v-9.4h5.7v9c5.6,0.2,9.4,1.7,12.1,3.2L70,43.8
						c-2-1.1-5.7-3.2-11.7-3.2c-7.1,0-9.8,4.3-9.8,8c0,4.8,3.4,7.2,11.5,10.6c9.5,3.9,14.4,8.7,14.4,17c0,7.3-5.1,14.2-14.6,15.8
						v9.6H53.8z"/>
					<path class="st3" d="M69.9,108.7l7.9,6.5l-3.3,9.5 M44.6,0.4l-3.2,9.7l7.8,6.2 M41.3,10.1c29.5-8.6,60.3,8.4,68.9,37.9
						c7,24.1-3,49-23,62.1 M77.6,115.1c-1.7,0.7-3.5,1.3-5.3,1.8C42.9,125.5,12,108.5,3.5,79C-3.7,54.4,7,28.8,27.9,16"/>
				</g>
			</g>
		</g>
	</g>
</g>
</svg>
