<?xml version="1.0" encoding="utf-8"?>
<!-- Generator: Adobe Illustrator 21.0.0, SVG Export Plug-In . SVG Version: 6.00 Build 0)  -->
<svg version="1.1" id="Layer_1" xmlns="http://www.w3.org/2000/svg" xmlns:xlink="http://www.w3.org/1999/xlink" x="0px" y="0px"
	 viewBox="0 0 126 124" style="enable-background:new 0 0 126 124;" xml:space="preserve">
<style type="text/css">
	.st0{clip-path:url(#SVGID_2_);}
	.st1{clip-path:url(#SVGID_4_);enable-background:new    ;}
	.st2{clip-path:url(#SVGID_6_);}
	.st3{clip-path:url(#SVGID_8_);fill:none;stroke:#FFFFFF;stroke-width:1.256;stroke-linejoin:round;}
	.st4{clip-path:url(#SVGID_8_);fill:none;stroke:#FFFFFF;stroke-width:1.256;}
	.st5{clip-path:url(#SVGID_10_);fill:none;stroke:#FFFFFF;stroke-width:1.256;}
	.st6{clip-path:url(#SVGID_12_);}
	.st7{clip-path:url(#SVGID_14_);enable-background:new    ;}
	.st8{clip-path:url(#SVGID_16_);}
	.st9{clip-path:url(#SVGID_18_);fill:none;stroke:#FFFFFF;stroke-width:1.256;}
	.st10{clip-path:url(#SVGID_20_);fill:none;stroke:#FFFFFF;stroke-width:1.256;}
	.st11{clip-path:url(#SVGID_22_);}
	.st12{clip-path:url(#SVGID_24_);enable-background:new    ;}
	.st13{clip-path:url(#SVGID_26_);}
	.st14{clip-path:url(#SVGID_28_);fill:none;stroke:#FFFFFF;stroke-width:1.256;stroke-linejoin:round;}
	.st15{clip-path:url(#SVGID_30_);}
	.st16{clip-path:url(#SVGID_32_);enable-background:new    ;}
	.st17{clip-path:url(#SVGID_34_);}
	.st18{clip-path:url(#SVGID_36_);fill:none;stroke:#FFFFFF;stroke-width:1.256;stroke-linejoin:round;}
</style>
<g>
	<defs>
		<rect id="SVGID_1_" x="-5" y="-26" width="149" height="150"/>
	</defs>
	<clipPath id="SVGID_2_">
		<use xlink:href="#SVGID_1_"  style="overflow:visible;"/>
	</clipPath>
	<g class="st0">
		<defs>
			<rect id="SVGID_3_" x="-493" y="-5765" width="1920" height="13398"/>
		</defs>
		<clipPath id="SVGID_4_">
			<use xlink:href="#SVGID_3_"  style="overflow:visible;"/>
		</clipPath>
		<g class="st1">
			<g>
				<defs>
					<rect id="SVGID_5_" y="46" width="97" height="43"/>
				</defs>
				<clipPath id="SVGID_6_">
					<use xlink:href="#SVGID_5_"  style="overflow:visible;"/>
				</clipPath>
				<g class="st2">
					<defs>
						<rect id="SVGID_7_" x="-5" y="-26" width="149" height="150"/>
					</defs>
					<clipPath id="SVGID_8_">
						<use xlink:href="#SVGID_7_"  style="overflow:visible;"/>
					</clipPath>
					<path class="st3" d="M54.2,68.6c4.4-4,10.2-6.4,16.7-6.4c13.7,0,24.7,11.1,24.7,24.7h-94c0-9.8,7.1-17.9,16.4-19.5
						c4-11.7,15.1-20.1,28.1-20.1c11,0,20.6,6,25.8,14.9"/>
					<path class="st4" d="M18,67.5c-1,3-1.6,6.2-1.6,9.6"/>
				</g>
			</g>
		</g>
	</g>
</g>
<g>
	<defs>
		<rect id="SVGID_9_" x="-493" y="-5765" width="1920" height="13398"/>
	</defs>
	<clipPath id="SVGID_10_">
		<use xlink:href="#SVGID_9_"  style="overflow:visible;"/>
	</clipPath>
	<line class="st5" x1="15.7" y1="92.3" x2="10.9" y2="108.7"/>
	<line class="st5" x1="31.6" y1="92.7" x2="23.8" y2="117.1"/>
</g>
<g>
	<defs>
		<rect id="SVGID_11_" x="-5" y="-26" width="149" height="150"/>
	</defs>
	<clipPath id="SVGID_12_">
		<use xlink:href="#SVGID_11_"  style="overflow:visible;"/>
	</clipPath>
	<g class="st6">
		<defs>
			<rect id="SVGID_13_" x="-493" y="-5765" width="1920" height="13398"/>
		</defs>
		<clipPath id="SVGID_14_">
			<use xlink:href="#SVGID_13_"  style="overflow:visible;"/>
		</clipPath>
		<g class="st7">
			<g>
				<defs>
					<rect id="SVGID_15_" x="34" y="90" width="16" height="34"/>
				</defs>
				<clipPath id="SVGID_16_">
					<use xlink:href="#SVGID_15_"  style="overflow:visible;"/>
				</clipPath>
				<g class="st8">
					<defs>
						<rect id="SVGID_17_" x="-5" y="-26" width="149" height="150"/>
					</defs>
					<clipPath id="SVGID_18_">
						<use xlink:href="#SVGID_17_"  style="overflow:visible;"/>
					</clipPath>
					<line class="st9" x1="47.4" y1="92.8" x2="37.2" y2="123.7"/>
				</g>
			</g>
		</g>
	</g>
</g>
<g>
	<defs>
		<rect id="SVGID_19_" x="-493" y="-5765" width="1920" height="13398"/>
	</defs>
	<clipPath id="SVGID_20_">
		<use xlink:href="#SVGID_19_"  style="overflow:visible;"/>
	</clipPath>
	<line class="st10" x1="79" y1="93" x2="74.2" y2="109.4"/>
	<line class="st10" x1="63.2" y1="92.9" x2="55.4" y2="117.2"/>
</g>
<g>
	<defs>
		<path id="SVGID_21_" d="M-3.1,86.9L-5-26h149V91.7h-43.7v-4.7c0-15-11.2-27.4-25.7-29.2c-6.4-9.4-17.1-15.1-28.5-15.1
			c-13.8,0-26.2,8.2-31.6,20.8C4.2,66.4-3.1,75.9-3.1,86.9z"/>
	</defs>
	<clipPath id="SVGID_22_">
		<use xlink:href="#SVGID_21_"  style="overflow:visible;"/>
	</clipPath>
	<g class="st11">
		<defs>
			<rect id="SVGID_23_" x="-493" y="-5765" width="1920" height="13398"/>
		</defs>
		<clipPath id="SVGID_24_">
			<use xlink:href="#SVGID_23_"  style="overflow:visible;"/>
		</clipPath>
		<g class="st12">
			<g>
				<defs>
					<rect id="SVGID_25_" x="50" y="27" width="47" height="48"/>
				</defs>
				<clipPath id="SVGID_26_">
					<use xlink:href="#SVGID_25_"  style="overflow:visible;"/>
				</clipPath>
				<g class="st13">
					<defs>
						<rect id="SVGID_27_" x="-5" y="-26" width="149" height="118"/>
					</defs>
					<clipPath id="SVGID_28_">
						<use xlink:href="#SVGID_27_"  style="overflow:visible;"/>
					</clipPath>
					<circle class="st14" cx="73.7" cy="51" r="21.8"/>
				</g>
			</g>
		</g>
	</g>
</g>
<g>
	<defs>
		<path id="SVGID_29_" d="M21.8,52.7C21,27.6,38.5,4.9,63.9,0c3.3-0.6,6.6-0.9,9.8-0.9c24.4,0,46.1,17.3,50.9,42.1
			c3.8,19.6-4.1,38.8-18.7,50.4h-5.6v-4.7c0-6.3-2-12.2-5.4-17c5.7-6.4,8.4-15.2,6.7-24.3c-3-15.4-17.9-25.6-33.3-22.6
			c-10.7,2-18.8,9.8-21.8,19.6c-0.1,0-0.2,0-0.3,0C36.8,42.6,28.1,46.4,21.8,52.7z"/>
	</defs>
	<clipPath id="SVGID_30_">
		<use xlink:href="#SVGID_29_"  style="overflow:visible;"/>
	</clipPath>
	<g class="st15">
		<defs>
			<rect id="SVGID_31_" x="-493" y="-5765" width="1920" height="13398"/>
		</defs>
		<clipPath id="SVGID_32_">
			<use xlink:href="#SVGID_31_"  style="overflow:visible;"/>
		</clipPath>
		<g class="st16">
			<g>
				<defs>
					<rect id="SVGID_33_" x="23" width="102" height="92"/>
				</defs>
				<clipPath id="SVGID_34_">
					<use xlink:href="#SVGID_33_"  style="overflow:visible;"/>
				</clipPath>
				<g class="st17">
					<defs>
						<rect id="SVGID_35_" x="22" y="-1" width="103" height="93"/>
					</defs>
					<clipPath id="SVGID_36_">
						<use xlink:href="#SVGID_35_"  style="overflow:visible;"/>
					</clipPath>
					<line class="st18" x1="96.7" y1="46.6" x2="123" y2="41.6"/>
					<line class="st18" x1="86.8" y1="31.6" x2="101.9" y2="9.4"/>
					<line class="st18" x1="69.3" y1="28" x2="64.2" y2="1.7"/>
					<line class="st18" x1="54.3" y1="37.9" x2="32.1" y2="22.8"/>
					<line class="st18" x1="50.7" y1="55.4" x2="24.4" y2="60.5"/>
					<line class="st18" x1="60.5" y1="70.4" x2="45.5" y2="92.6"/>
					<line class="st18" x1="78.1" y1="74" x2="83.1" y2="100.3"/>
					<line class="st18" x1="93.1" y1="64.2" x2="115.3" y2="79.2"/>
				</g>
			</g>
		</g>
	</g>
</g>
</svg>
