<?xml version="1.0" encoding="utf-8"?>
<!-- Generator: Adobe Illustrator 21.0.0, SVG Export Plug-In . SVG Version: 6.00 Build 0)  -->
<svg version="1.1" id="Layer_1" xmlns="http://www.w3.org/2000/svg" xmlns:xlink="http://www.w3.org/1999/xlink" x="0px" y="0px"
	 viewBox="0 0 134 106" style="enable-background:new 0 0 134 106;" xml:space="preserve">
<style type="text/css">
	.st0{clip-path:url(#SVGID_2_);}
	.st1{clip-path:url(#SVGID_4_);enable-background:new    ;}
	.st2{clip-path:url(#SVGID_6_);}
	.st3{clip-path:url(#SVGID_8_);fill:none;stroke:#FFFFFF;stroke-width:1.256;stroke-linejoin:round;}
	.st4{clip-path:url(#SVGID_10_);fill:none;stroke:#FFFFFF;stroke-width:1.256;stroke-linejoin:round;}
	.st5{clip-path:url(#SVGID_12_);}
	.st6{clip-path:url(#SVGID_14_);enable-background:new    ;}
	.st7{clip-path:url(#SVGID_16_);}
	.st8{clip-path:url(#SVGID_18_);fill:none;stroke:#FFFFFF;stroke-width:1.256;stroke-linejoin:round;}
	.st9{clip-path:url(#SVGID_20_);fill:none;stroke:#FFFFFF;stroke-width:1.256;stroke-linejoin:round;}
</style>
<g>
	<defs>
		<rect id="SVGID_1_" x="-0.3" y="-0.3" width="134.3" height="106.3"/>
	</defs>
	<clipPath id="SVGID_2_">
		<use xlink:href="#SVGID_1_"  style="overflow:visible;"/>
	</clipPath>
	<g class="st0">
		<defs>
			<rect id="SVGID_3_" x="-484" y="-6814" width="1920" height="13398"/>
		</defs>
		<clipPath id="SVGID_4_">
			<use xlink:href="#SVGID_3_"  style="overflow:visible;"/>
		</clipPath>
		<g class="st1">
			<g>
				<defs>
					<rect id="SVGID_5_" x="92" y="14" width="42" height="77"/>
				</defs>
				<clipPath id="SVGID_6_">
					<use xlink:href="#SVGID_5_"  style="overflow:visible;"/>
				</clipPath>
				<g class="st2">
					<defs>
						<rect id="SVGID_7_" width="134" height="106"/>
					</defs>
					<clipPath id="SVGID_8_">
						<use xlink:href="#SVGID_7_"  style="overflow:visible;"/>
					</clipPath>
					<path class="st3" d="M120.4,52.8c7.4-2.9,12.4-10,12.4-18c0-10.2-7.9-18.5-17.9-19.2c-0.5,0-1-0.1-1.5-0.1
						c-2.3,0-4.6,0.5-6.6,1.2C99.4,19.3,94,26.4,94,34.8c0,7.5,4.5,14.4,11.3,17.5v27.2l5.7,10l8.6-9.6l-2.5-6.1l5.5-5.3l-5.8-5.1
						l3.6-4V52.8z"/>
				</g>
			</g>
		</g>
	</g>
</g>
<g>
	<defs>
		<rect id="SVGID_9_" x="-484" y="-6814" width="1920" height="13398"/>
	</defs>
	<clipPath id="SVGID_10_">
		<use xlink:href="#SVGID_9_"  style="overflow:visible;"/>
	</clipPath>
	<polygon class="st4" points="46.5,94.7 46.5,99.8 92.3,99.8 92.3,94.7 75.2,94.7 63.6,94.7 	"/>
</g>
<g>
	<defs>
		<rect id="SVGID_11_" x="-0.3" y="-0.3" width="134.3" height="106.3"/>
	</defs>
	<clipPath id="SVGID_12_">
		<use xlink:href="#SVGID_11_"  style="overflow:visible;"/>
	</clipPath>
	<g class="st5">
		<defs>
			<rect id="SVGID_13_" x="-484" y="-6814" width="1920" height="13398"/>
		</defs>
		<clipPath id="SVGID_14_">
			<use xlink:href="#SVGID_13_"  style="overflow:visible;"/>
		</clipPath>
		<g class="st6">
			<g>
				<defs>
					<rect id="SVGID_15_" width="117" height="106"/>
				</defs>
				<clipPath id="SVGID_16_">
					<use xlink:href="#SVGID_15_"  style="overflow:visible;"/>
				</clipPath>
				<g class="st7">
					<defs>
						<rect id="SVGID_17_" width="134" height="106"/>
					</defs>
					<clipPath id="SVGID_18_">
						<use xlink:href="#SVGID_17_"  style="overflow:visible;"/>
					</clipPath>
					<polygon class="st8" points="29.6,99.8 29.6,104.9 109.2,104.9 109.2,99.8 92.3,99.8 46.5,99.8 					"/>
					<path class="st8" d="M65.5,7.6v46.8h7.8V7.6c-1.3-0.1-2.6-0.2-3.9-0.3C68.1,7.3,66.8,7.5,65.5,7.6z"/>
					<path class="st8" d="M114.9,15.5c-5.8-3.5-12.3-6.7-19.5-9.3c-9.2-3.4-17.7-5.1-26-5.3c-8.2,0.1-16.6,1.9-25.9,5.3
						c-8.1,3-15.4,6.6-21.6,10.6l0.5,0.5c0.4,0,0.7-0.1,1.1-0.1c1.8,0,3.6,0.2,5.3,0.7c2.3-0.9,4.5-1.8,6.8-2.7
						c4.4-1.7,7.8-2.9,11.1-3.8c5.3-1.6,12-3.3,18.8-3.8c1.3-0.1,2.6-0.2,3.9-0.3c1.3,0,2.6,0.1,3.9,0.3c6.8,0.6,13.5,2.3,18.8,3.8
						c3.3,1,6.7,2.1,11.1,3.9c1.2,0.4,2.3,0.9,3.5,1.4c2.1-0.8,4.3-1.2,6.6-1.2C113.9,15.4,114.4,15.5,114.9,15.5z"/>
					<path class="st8" d="M22.4,17.3C10.4,17.9,0.9,27.7,0.9,39.8c0,11,8.1,20.3,18.8,22.1v6.6H8.1V76h11.6v11.6h7.5V76h11.6v-7.5
						H27.2v-6.6C37.9,60.1,46,50.8,46,39.8c0-10.6-7.3-19.4-17.2-21.9c-1.7-0.4-3.5-0.7-5.3-0.7C23.1,17.3,22.7,17.3,22.4,17.3z"/>
				</g>
			</g>
		</g>
	</g>
</g>
<g>
	<defs>
		<rect id="SVGID_19_" x="-484" y="-6814" width="1920" height="13398"/>
	</defs>
	<clipPath id="SVGID_20_">
		<use xlink:href="#SVGID_19_"  style="overflow:visible;"/>
	</clipPath>
	<polygon class="st9" points="63.6,54.4 63.6,94.7 75.2,94.7 75.2,54.4 73.3,54.4 65.5,54.4 	"/>
</g>
</svg>
