<?xml version="1.0" encoding="utf-8"?>
<!-- Generator: Adobe Illustrator 21.0.0, SVG Export Plug-In . SVG Version: 6.00 Build 0)  -->
<svg version="1.1" id="Layer_1" xmlns="http://www.w3.org/2000/svg" xmlns:xlink="http://www.w3.org/1999/xlink" x="0px" y="0px"
	 viewBox="0 0 114 125" style="enable-background:new 0 0 114 125;" xml:space="preserve">
<style type="text/css">
	.st0{clip-path:url(#SVGID_2_);}
	.st1{clip-path:url(#SVGID_4_);enable-background:new    ;}
	.st2{clip-path:url(#SVGID_6_);}
	.st3{clip-path:url(#SVGID_8_);fill:none;stroke:#FFFFFF;stroke-width:1.323;}
</style>
<g>
	<defs>
		<rect id="SVGID_1_" width="113.8" height="125.1"/>
	</defs>
	<clipPath id="SVGID_2_">
		<use xlink:href="#SVGID_1_"  style="overflow:visible;"/>
	</clipPath>
	<g class="st0">
		<defs>
			<rect id="SVGID_3_" x="-488" y="-9368" width="1920" height="13398"/>
		</defs>
		<clipPath id="SVGID_4_">
			<use xlink:href="#SVGID_3_"  style="overflow:visible;"/>
		</clipPath>
		<g class="st1">
			<g>
				<defs>
					<rect id="SVGID_5_" width="114" height="125"/>
				</defs>
				<clipPath id="SVGID_6_">
					<use xlink:href="#SVGID_5_"  style="overflow:visible;"/>
				</clipPath>
				<g class="st2">
					<defs>
						<rect id="SVGID_7_" width="114" height="125"/>
					</defs>
					<clipPath id="SVGID_8_">
						<use xlink:href="#SVGID_7_"  style="overflow:visible;"/>
					</clipPath>
					<path class="st3" d="M17.6,124.7c0,0,2.5-2.3,4.7-4.5c2.2-2.1,3.9-9,3.9-9h10.2c0,0,1.3,6.8,2,7.9c1.2,2,2.4,3.7,2.4,3.7"/>
					<path class="st3" d="M112.5,73.7c0,8.5-9.7,9.3-9.7,9.3s-0.4,5.4-4.5,6.1c-4.4,0.7-5.7-3.3-5.7-3.3"/>
					<path class="st3" d="M103.6,65.8c0,0,8.8-0.4,8.8,7.9"/>
					<path class="st3" d="M108.1,26c4.8,11.9-4,19.5-4,19.5s4.8,9.8-2.5,17.8C94.6,70.9,86.1,66,86.1,66"/>
					<path class="st3" d="M46.2,83.6c0,0-13.5,5.6-18.5-2.9c-3.5-6,0.8-15.6,0.8-15.6s-13.8-0.7-15.8-16.6
						c-2-16.1,11.8-18.7,11.8-18.7s-4.5-16,12.2-23.4c12.1-5.3,21.5,6.2,21.5,6.2S65.4-3.1,79.6,2.5c14.2,5.7,9.3,15.5,9.3,15.5
						s15-2.6,19.2,7.9"/>
					<line class="st3" x1="0" y1="124.6" x2="100.6" y2="124.6"/>
					<path class="st3" d="M67.9,77.3c0.4,0.2,0.8,0.5,1.3,0.8c5.3,3.6,7.2,7.6,7.2,7.6l0.4,26.5c0,0-0.2,4-1.7,6.5
						c-1.5,2.5-3.2,4.1-3.2,4.1"/>
					<path class="st3" d="M74.3,66.4c0.6,0.8,1.1,1.7,1.4,2.6c2.5,6.1,3.2,9.5,3.2,9.5s-4.5-2.7-9.1-4.4c-0.5-0.2-0.9-0.3-1.4-0.5"
						/>
					<path class="st3" d="M96.5,70.6c0,0-3.3,5.2-4.6,6.2c-1.7,1.3-5.1,3.4-5.1,3.4s-2.2-8.2-6.1-13c-0.9-1.1-1.9-2.2-3-3.1"/>
					<path class="st3" d="M95.3,124.8c0,0-3.6-5.3-5.1-8c-1.5-2.7-1.9-6.9-1.9-6.9V90.5c0,0-0.2-3.2,3-7.2c3.2-4,7.2-11.3,7.2-11.3"
						/>
					<path class="st3" d="M88.6,58.1c0,0-7.7-0.2-13.9,4c-7.1,4.8-9.6,10.2-9.6,10.2l-0.6,35.6c0,0,0.3,5.4,2.3,8.8
						c2,3.4,6.8,8.1,6.8,8.1"/>
					<path class="st3" d="M88,54.2c0,0-7.4,0-14.2,2.5c-6.2,2.3-12.2,5.9-12.2,5.9S62.6,58.1,66,50c3.4-8.2,13.3-13.3,13.3-13.3
						c4.1-2.4,5.2-9.4,5.2-9.4"/>
					<path class="st3" d="M35.7,56.2c0,0,6.7,2.9,8.5,4.2c2.3,1.7,6.8,4.5,6.8,4.5s2.9-10.9,8.2-17.5c7.1-8.8,18.4-13.6,18.4-13.6
						c4.7-3.2,3.9-6.6,3.9-6.6"/>
					<path class="st3" d="M39.6,124.8c0,0,4.8-7.1,6.8-10.7c2-3.7,2.5-9.3,2.5-9.3v-26c0,0,0.3-4.2-4-9.6
						c-4.2-5.4-11.6-7.9-11.6-7.9"/>
				</g>
			</g>
		</g>
	</g>
</g>
</svg>
