<?xml version="1.0" encoding="utf-8"?>
<!-- Generator: Adobe Illustrator 21.0.0, SVG Export Plug-In . SVG Version: 6.00 Build 0)  -->
<svg version="1.1" id="Layer_1" xmlns="http://www.w3.org/2000/svg" xmlns:xlink="http://www.w3.org/1999/xlink" x="0px" y="0px"
	 viewBox="0 0 121 84" style="enable-background:new 0 0 121 84;" xml:space="preserve">
<style type="text/css">
	.st0{clip-path:url(#SVGID_2_);}
	.st1{clip-path:url(#SVGID_4_);enable-background:new    ;}
	.st2{clip-path:url(#SVGID_6_);}
	.st3{clip-path:url(#SVGID_8_);fill:none;stroke:#FFFFFF;stroke-width:1.256;stroke-linejoin:round;}
	.st4{clip-path:url(#SVGID_8_);fill:none;stroke:#FFFFFF;stroke-width:1.256;}
	.st5{clip-path:url(#SVGID_10_);}
	.st6{clip-path:url(#SVGID_12_);enable-background:new    ;}
	.st7{clip-path:url(#SVGID_14_);}
	.st8{clip-path:url(#SVGID_16_);fill:none;stroke:#FFFFFF;stroke-width:1.256;}
	.st9{clip-path:url(#SVGID_18_);}
	.st10{clip-path:url(#SVGID_20_);enable-background:new    ;}
	.st11{clip-path:url(#SVGID_22_);}
	.st12{clip-path:url(#SVGID_24_);fill:none;stroke:#FFFFFF;stroke-width:1.256;}
</style>
<g>
	<defs>
		<rect id="SVGID_1_" width="121.4" height="84.3"/>
	</defs>
	<clipPath id="SVGID_2_">
		<use xlink:href="#SVGID_1_"  style="overflow:visible;"/>
	</clipPath>
	<g class="st0">
		<defs>
			<rect id="SVGID_3_" x="-493" y="-4244" width="1920" height="13398"/>
		</defs>
		<clipPath id="SVGID_4_">
			<use xlink:href="#SVGID_3_"  style="overflow:visible;"/>
		</clipPath>
		<g class="st1">
			<g>
				<defs>
					<rect id="SVGID_5_" width="121" height="84"/>
				</defs>
				<clipPath id="SVGID_6_">
					<use xlink:href="#SVGID_5_"  style="overflow:visible;"/>
				</clipPath>
				<g class="st2">
					<defs>
						<rect id="SVGID_7_" width="121" height="84"/>
					</defs>
					<clipPath id="SVGID_8_">
						<use xlink:href="#SVGID_7_"  style="overflow:visible;"/>
					</clipPath>
					<path class="st3" d="M60.1,29.3L75.2,2.8c0,0,0.9-1.9,3.7-1.9c2.3,0,3.4,2.2,3.4,2.2l28.5,44 M111.3,46.7c0,0-2.6,2.4-3,4.7
						c-0.5,2.7-0.2,5,3,5c2.9,0,3.2-2.3,2.7-5C113.6,49.3,111.3,46.7,111.3,46.7z M111.3,56.5v4.2 M18.8,41.5c0,0-2.6,2.4-3,4.7
						c-0.5,2.7-0.2,5,3,5c2.9,0,3.2-2.3,2.7-5C21.1,44.1,18.8,41.5,18.8,41.5z M18.8,51.4v4.2 M29.4,40.9c0,0-2.6,2.4-3,4.7
						c-0.5,2.7-0.2,5,3,5c2.9,0,3.2-2.3,2.7-5C31.6,43.5,29.4,40.9,29.4,40.9z M29.4,50.7v4.2 M44.6,48c0,0-3.9,3.6-4.6,7.3
						c-0.8,4.1-0.3,7.6,4.6,7.6c4.5,0,4.9-3.6,4.1-7.6C48.1,52,44.6,48,44.6,48z M44.6,63.2v6.5 M36,83.1
						c0.1-5.7,9.1-11.9,23.1-15.3C81.4,62.4,94.7,66,94.7,66 M48.3,81.4c-1.4-2.6,10.7-8.5,20.4-10.9c9.6-2.4,25.2-4.3,25.2-4.3
						 M76.1,74.5c0,0,15.9-8,24.4-11c8.5-2.9,18.5-1.9,18.5-1.9l0.2,0l-4.9-8.5 M40,54.9c-25.5-0.5-39.1,4.6-39.1,4.6l0-0.1
						L34.2,5.7c0,0,1.6-3.3,5.9-3.2c3.2,0,4.8,2.8,4.8,2.8L81,62.6 M48.8,55.3C63.3,56.2,93,66.5,93,66.5"/>
					<path class="st4" d="M0.9,80.2c2.9,0,2.9,3.2,5.9,3.2c2.9,0,2.9-3.2,5.9-3.2c2.9,0,2.9,3.2,5.9,3.2c2.9,0,2.9-3.2,5.9-3.2
						c1.5,0,2.2,0.8,2.9,1.6"/>
					<path class="st4" d="M0.9,63.4c2.9,0,2.9,3.2,5.9,3.2c2.9,0,2.9-3.2,5.9-3.2c2.9,0,2.9,3.2,5.9,3.2c2.9,0,2.9-3.2,5.9-3.2
						c2.9,0,2.9,3.2,5.9,3.2c2.2,0,2.8-1.8,4.1-2.7c0.5-0.3,1-0.5,1.7-0.5"/>
					<path class="st4" d="M0.9,71.8c2.9,0,2.9,3.2,5.9,3.2c2.9,0,2.9-3.2,5.9-3.2c2.9,0,2.9,3.2,5.9,3.2c2.9,0,2.9-3.2,5.9-3.2
						c2.9,0,2.9,3.2,5.9,3.2c2.9,0,2.9-3.2,5.9-3.2c0.4,0,0.7,0.1,1,0.1"/>
					<path class="st4" d="M121.4,71.8c-2.9,0-2.9,3.2-5.9,3.2c-2.9,0-2.9-3.2-5.9-3.2c-2.9,0-2.9,3.2-5.9,3.2
						c-2.9,0-2.9-3.2-5.9-3.2C95,71.8,95,75,92.1,75"/>
					<path class="st4" d="M121.4,80.2c-2.9,0-2.9,3.2-5.9,3.2c-2.9,0-2.9-3.2-5.9-3.2c-2.9,0-2.9,3.2-5.9,3.2
						c-2.9,0-2.9-3.2-5.9-3.2c-2.9,0-2.9,3.2-5.9,3.2c-2.9,0-2.9-3.2-5.9-3.2s-2.9,3.2-5.9,3.2c-2.9,0-2.9-3.2-5.9-3.2"/>
				</g>
			</g>
		</g>
	</g>
</g>
<g>
	<defs>
		<rect id="SVGID_9_" width="121.4" height="84.3"/>
	</defs>
	<clipPath id="SVGID_10_">
		<use xlink:href="#SVGID_9_"  style="overflow:visible;"/>
	</clipPath>
	<g class="st5">
		<defs>
			<rect id="SVGID_11_" x="-493" y="-4244" width="1920" height="13398"/>
		</defs>
		<clipPath id="SVGID_12_">
			<use xlink:href="#SVGID_11_"  style="overflow:visible;"/>
		</clipPath>
		<g class="st6">
			<g>
				<defs>
					<rect id="SVGID_13_" x="77" y="76" width="42" height="8"/>
				</defs>
				<clipPath id="SVGID_14_">
					<use xlink:href="#SVGID_13_"  style="overflow:visible;"/>
				</clipPath>
				<g class="st7">
					<defs>
						<rect id="SVGID_15_" width="121" height="84"/>
					</defs>
					<clipPath id="SVGID_16_">
						<use xlink:href="#SVGID_15_"  style="overflow:visible;"/>
					</clipPath>
					<line class="st8" x1="104" y1="78.6" x2="104" y2="82.9"/>
					<line class="st8" x1="115.8" y1="78.6" x2="115.8" y2="82.9"/>
					<line class="st8" x1="80.3" y1="78.6" x2="80.3" y2="82.9"/>
					<line class="st8" x1="92.1" y1="78.6" x2="92.1" y2="82.9"/>
				</g>
			</g>
		</g>
	</g>
</g>
<g>
	<defs>
		<rect id="SVGID_17_" width="121.4" height="84.3"/>
	</defs>
	<clipPath id="SVGID_18_">
		<use xlink:href="#SVGID_17_"  style="overflow:visible;"/>
	</clipPath>
	<g class="st9">
		<defs>
			<rect id="SVGID_19_" x="-493" y="-4244" width="1920" height="13398"/>
		</defs>
		<clipPath id="SVGID_20_">
			<use xlink:href="#SVGID_19_"  style="overflow:visible;"/>
		</clipPath>
		<g class="st10">
			<g>
				<defs>
					<rect id="SVGID_21_" x="4" y="76" width="18" height="8"/>
				</defs>
				<clipPath id="SVGID_22_">
					<use xlink:href="#SVGID_21_"  style="overflow:visible;"/>
				</clipPath>
				<g class="st11">
					<defs>
						<rect id="SVGID_23_" width="121" height="84"/>
					</defs>
					<clipPath id="SVGID_24_">
						<use xlink:href="#SVGID_23_"  style="overflow:visible;"/>
					</clipPath>
					<line class="st12" x1="6.6" y1="78.6" x2="6.6" y2="82.9"/>
					<line class="st12" x1="18.5" y1="78.6" x2="18.5" y2="82.9"/>
				</g>
			</g>
		</g>
	</g>
</g>
</svg>
