<?xml version="1.0" encoding="utf-8"?>
<!-- Generator: Adobe Illustrator 21.0.0, SVG Export Plug-In . SVG Version: 6.00 Build 0)  -->
<svg version="1.1" id="Layer_1" xmlns="http://www.w3.org/2000/svg" xmlns:xlink="http://www.w3.org/1999/xlink" x="0px" y="0px"
	 viewBox="0 0 97 127" style="enable-background:new 0 0 97 127;" xml:space="preserve">
<style type="text/css">
	.st0{clip-path:url(#SVGID_2_);enable-background:new    ;}
	.st1{clip-path:url(#SVGID_4_);}
	.st2{clip-path:url(#SVGID_6_);fill:none;stroke:#FFFFFF;stroke-width:1.256;stroke-linejoin:round;}
</style>
<g>
	<defs>
		<rect id="SVGID_1_" y="-1.3" width="96.9" height="128.1"/>
	</defs>
	<clipPath id="SVGID_2_">
		<use xlink:href="#SVGID_1_"  style="overflow:visible;"/>
	</clipPath>
	<g class="st0">
		<g>
			<defs>
				<rect id="SVGID_3_" y="-1.3" width="97" height="128"/>
			</defs>
			<clipPath id="SVGID_4_">
				<use xlink:href="#SVGID_3_"  style="overflow:visible;"/>
			</clipPath>
			<g class="st1">
				<defs>
					<rect id="SVGID_5_" y="-1.3" width="97" height="128"/>
				</defs>
				<clipPath id="SVGID_6_">
					<use xlink:href="#SVGID_5_"  style="overflow:visible;"/>
				</clipPath>
				<path class="st2" d="M74.9,67.7c-0.6-0.7-1.1-1.3-1.7-2c-1.9,0.6-4.2,0-4.3-4.3c-1.4-1.3-2.7-2.3-4-3.3c0.1,1.6,0.5,3.6,1.3,5.1
					c2.4,4.3,1.7,7,0,8.9c-1.9,2.1-7.6,4.7-7.7-4.8c0-3.1,3.4-7.8,5.2-10c-1.2-0.8-2.4-1.5-3.5-2.1c-3.5,2.4-7.6,3.9-11.9,3.9
					c-4.3,0-8.4-1.4-11.9-3.9c-5,2.5-11.1,7.3-17.5,16.2c-10.2,14.3-9,34.1-9,34.1h6.3c-0.2-0.8-0.4-1.6-0.5-2.5
					c-1.2-8.8,6.2-13.3,14-15.9c7.9-2.5,18.5-2.5,18.5-2.5c0,0,3.6,0,8.2,0.5c0.5-0.5,1.1-0.9,1.6-1.1c2-0.7,6.4-1.5,9.8,0.4
					c2.6,1.4,6.6,2.3,6.6,2.3s-1.3,1.1-3.2,2.2c5.9,2.7,10.6,7,9.6,14.2c-0.1,0.9-0.3,1.7-0.5,2.5h6.4c0,0,0.9-14.9-5.5-28.1
					c-2.9,1.8-7.4,4.4-10.1,4.5c-8.4,0.3-5.8-5.8-4.2-7.3c1.6-1.5,5.4-2.7,8.9-1c1.2,0.6,2.7,1,4.1,1.3c-0.5-0.9-1.1-1.8-1.7-2.7
					C73.7,71.3,73.7,69.3,74.9,67.7z M55.7,82c-2.9,4.6-6.1,2.6-7.1-2.6c-1.2-6.5,7.5-14,7.5-14s0,4,0.9,6.9
					C58.2,75.9,56.9,80.1,55.7,82z"/>
				<path class="st2" d="M60.4,55.3c6-4.2,10.2-11.5,11.1-20c-6.5,0.6-14.1,1.1-22.9,1.1c-8.9,0-16.5-0.5-23-1.1
					c0.9,8.5,5.1,15.8,11.1,20c3.5,2.4,7.6,3.9,11.9,3.9C52.8,59.1,56.9,57.7,60.4,55.3z"/>
				<path class="st2" d="M71.4,35.3C87.2,33.7,95.8,31,95.8,31L48.4-0.2L1.1,31c0,0,8.6,2.7,24.4,4.2c6.5,0.6,14.1,1.1,23,1.1
					C57.3,36.4,65,35.9,71.4,35.3z"/>
				<path class="st2" d="M71.4,88.9c-1.5,0.9-3.4,1.8-5.4,2.3c6.4,2.4,10.3,5.8,10.4,8.3c0.2,2.7-3.8,4.7-9.1,6.1
					c-6.6,1.8-15.1,2.6-19.6,2.6c-1,0-2.1,0-3.4-0.1c0,0,0,0,0,0c-0.1,0-0.2,0-0.3,0c-0.9-0.1-1.9-0.1-3-0.2c-0.1,0-0.2,0-0.3,0
					c-1.1-0.1-2.3-0.3-3.5-0.4h0c-2.9-0.4-5.9-1-8.5-1.7c-4.9-1.4-8.6-3.4-8.4-6.1c0.3-4.4,11.3-11.2,28-11.2c0.7,0,1.3,0,2,0
					c0.6-0.5,0.9-0.8,0.9-0.8s1.2-0.4,1.8,0.3c0.2,0.2,0.3,0.5,0.5,0.7c1,0.1,1.9,0.2,2.8,0.3c-1.1-1.3-0.6-2.7,0.3-3.7
					c-4.6-0.5-8.2-0.5-8.2-0.5c0,0-10.6,0-18.5,2.5c-7.8,2.5-15.2,7-14,15.9c0.1,0.9,0.3,1.7,0.5,2.5c4.9,21.6,32.1,20.1,32.1,20.1
					s27.2,1.5,32-20.1c0.2-0.8,0.4-1.6,0.5-2.5C82,95.9,77.3,91.6,71.4,88.9z"/>
				<path class="st2" d="M40.9,107.7c-1.1-0.1-2.3-0.3-3.5-0.4C38.6,107.5,39.7,107.6,40.9,107.7z"/>
				<path class="st2" d="M44.1,108c-0.9-0.1-1.9-0.1-3-0.2C42.2,107.9,43.2,107.9,44.1,108z"/>
				<path class="st2" d="M37.6,104.7c0,0,3.4-6.1,5.7-9.2c1.7-2.3,5.4-5.7,7.1-7.2c-0.7,0-1.3-0.1-2-0.1c-16.7,0-27.7,6.9-28,11.2
					c-0.2,2.7,3.5,4.7,8.4,6.1c2.6,0.8,5.6,1.3,8.5,1.7C37,106,37.6,104.7,37.6,104.7z"/>
				<path class="st2" d="M60.8,91.2c-2.4-0.7-3.7-1.5-4.4-2.4c-0.9-0.1-1.8-0.2-2.8-0.3c0.3,0.5,0.4,1,0.4,1s-3,7.8-4.7,10.9
					c-1.3,2.3-3.8,5.9-4.9,7.7c1.2,0.1,2.4,0.1,3.4,0.1c4.5,0,13-0.8,19.6-2.6c5.2-1.4,9.2-3.4,9.1-6.1c-0.2-2.5-4-5.9-10.4-8.3
					C64.3,91.6,62.5,91.7,60.8,91.2z"/>
				<path class="st2" d="M49.4,100.4c1.7-3,4.7-10.9,4.7-10.9s-0.1-0.5-0.4-1c-0.1-0.2-0.3-0.5-0.5-0.7c-0.6-0.7-1.8-0.3-1.8-0.3
					s-0.4,0.3-0.9,0.8c-1.7,1.5-5.4,4.8-7.1,7.2c-2.3,3.1-5.7,9.2-5.7,9.2s-0.6,1.3-0.2,2.6h0c1.2,0.2,2.3,0.3,3.5,0.4
					c0.1,0,0.2,0,0.3,0c1,0.1,2,0.2,3,0.2c0.1,0,0.2,0,0.3,0c0,0,0,0,0,0C45.6,106.3,48.1,102.6,49.4,100.4z"/>
				<path class="st2" d="M56.2,65.4c0,0-8.8,7.5-7.5,14c1,5.2,4.2,7.2,7.1,2.6c1.2-1.8,2.5-6,1.3-9.7C56.2,69.4,56.2,65.4,56.2,65.4
					z"/>
				<path class="st2" d="M56.4,88.8c0.7,0.9,2.1,1.7,4.4,2.4c1.7,0.5,3.4,0.4,5.1-0.1c2-0.5,3.9-1.4,5.4-2.3
					c1.9-1.1,3.2-2.2,3.2-2.2s-4-0.8-6.6-2.3c-3.4-1.9-7.7-1.1-9.8-0.4c-0.5,0.2-1.1,0.6-1.6,1.1C55.8,86.1,55.4,87.5,56.4,88.8z"/>
				<path class="st2" d="M66.3,72.1c1.7-1.8,2.4-4.6,0-8.9c-0.8-1.4-1.1-3.5-1.3-5.1C64.9,57,64.9,56,64.9,56s-0.5,0.5-1.1,1.3
					c-1.8,2.2-5.3,6.8-5.2,10C58.8,76.8,64.4,74.2,66.3,72.1z"/>
				<path class="st2" d="M67,74.7c-1.6,1.4-4.2,7.6,4.2,7.3c2.8-0.1,7.3-2.7,10.1-4.5c1.6-1,2.7-1.8,2.7-1.8s-1.9-0.2-4-0.7
					c-1.4-0.3-3-0.8-4.1-1.3C72.4,71.9,68.6,73.1,67,74.7z"/>
				<path class="st2" d="M73.3,65.8c1.2-0.4,2.2-1.3,2.5-2.1c0.7-1.9,2.2-5.6,1.1-9c-0.8-2.6-0.9-6.3-0.9-6.3s-6.6,7.6-7,11.5
					c0,0.5-0.1,1,0,1.5C69.1,65.8,71.4,66.4,73.3,65.8z"/>
				<path class="st2" d="M78.4,72.3c0.6,0.1,1.2,0.2,1.9,0.3c6.2,0.8,12.2-5.4,12.2-5.4s-4.1-0.2-6.6-1.3c-3.3-1.4-7-0.9-8.7,0
					c-0.7,0.4-1.6,1-2.3,1.8C73.7,69.3,73.7,71.3,78.4,72.3z"/>
				<path class="st2" d="M80.2,61.7c2.4,2.6,7.3,0.9,9.5-2.9c2.2-3.9,3.8-10,3.8-10s-6.2,2.2-8.6,3.5C82.5,53.6,77.7,59.1,80.2,61.7
					z"/>
			</g>
		</g>
	</g>
</g>
</svg>
