<?xml version="1.0" encoding="utf-8"?>
<!-- Generator: Adobe Illustrator 21.0.0, SVG Export Plug-In . SVG Version: 6.00 Build 0)  -->
<svg version="1.1" id="Layer_1" xmlns="http://www.w3.org/2000/svg" xmlns:xlink="http://www.w3.org/1999/xlink" x="0px" y="0px"
	 viewBox="0 0 1171.8 82.1" style="enable-background:new 0 0 1171.8 82.1;" xml:space="preserve">
<style type="text/css">
	.st0{fill:#589989;}
</style>
<path class="st0" d="M1171.6,22.9c0,0-126.2,6-157.3,6C982.9,28.8,908.6,0,882.5,0S700.6,18.1,700.6,18.1l-68.2,19.7
	c-18.9,5.4-39,4.9-57.7-1.4c0,0-44.5-10.3-62.4-13.5s-146.7-3.4-146.7-3.4c-12.9-0.3-25.7,0.9-38.4,3.4L221.7,37.4
	c-15.1,2.8-30.6,2.7-45.7-0.2L88.3,26.4c-10.1-2-20.5-2-30.6-0.2L0,36.2v45.9h1171.8V22.9H1171.6z"/>
</svg>
