<?xml version="1.0" encoding="utf-8"?>
<!-- Generator: Adobe Illustrator 21.0.0, SVG Export Plug-In . SVG Version: 6.00 Build 0)  -->
<svg version="1.1" id="Layer_1" xmlns="http://www.w3.org/2000/svg" xmlns:xlink="http://www.w3.org/1999/xlink" x="0px" y="0px"
	 viewBox="0 0 1172 86" style="enable-background:new 0 0 1172 86;" xml:space="preserve">
<style type="text/css">
	.st0{fill:#64B08A;}
</style>
<path class="st0" d="M0,32.6c26.7,0,105.6-18.7,105.6-18.7c11.5-2.9,23.7-1.7,34.4,3.4c0,0,34,18.9,61.7,15.7
	c27.8-3.2,59.7-4.8,81.2-8.2C304.3,21.6,370,9.1,370,9.1c12.5-3.4,31.6-3.6,41.8-0.2c9.5,3.2,72.2,27.2,98.1,27.2
	s97.9-33.6,97.9-33.6c16.8-3.8,34.3-3.3,50.9,1.4c0,0,62.5,24.9,90.1,24.9c27.5,0,216.2-21.5,216.2-21.5s56.1,13.3,69.6,13.3
	s137.5-2,137.5-2V86H0V32.6z"/>
</svg>
