<?xml version="1.0" encoding="utf-8"?>
<!-- Generator: Adobe Illustrator 21.0.0, SVG Export Plug-In . SVG Version: 6.00 Build 0)  -->
<svg version="1.1" id="Layer_1" xmlns="http://www.w3.org/2000/svg" xmlns:xlink="http://www.w3.org/1999/xlink" x="0px" y="0px"
	 viewBox="0 0 1171.8 55.6" style="enable-background:new 0 0 1171.8 55.6;" xml:space="preserve">
<style type="text/css">
	.st0{fill:#519484;}
</style>
<path class="st0" d="M1171.8,41.7c0,0-27-17.1-40.8-19.9s-51.9-5.8-78.1,0.6s-147.5,4.8-175.2,4.8s-246.5-26-246.5-26
	c-11.2-1.8-22.6-1.4-33.6,1c0,0-137.6,22.1-150.7,24.9c-7.4,1.6-61.2-1.2-106.6-3.8c-35-2-54.1-4.2-64.8-4.2
	c-10.9,0-48.3,7.2-100.4,7.2c-26.4,0-49.5-3.6-76.3-3.4c-46.9,0.6-87.7,2-98.8,2.4v30.4h1171.8V41.7z"/>
</svg>
