<?xml version="1.0" encoding="utf-8"?>
<!-- Generator: Adobe Illustrator 21.0.0, SVG Export Plug-In . SVG Version: 6.00 Build 0)  -->
<svg version="1.1" id="Layer_1" xmlns="http://www.w3.org/2000/svg" xmlns:xlink="http://www.w3.org/1999/xlink" x="0px" y="0px"
	 viewBox="0 0 1171.8 88.5" style="enable-background:new 0 0 1171.8 88.5;" xml:space="preserve">
<style type="text/css">
	.st0{fill:#84C396;}
</style>
<path class="st0" d="M1171.8,24.5c0,0-74.4-10.1-106-16.5c-32.6-6.6-52.3-6.8-83.7-6.8S830.6-2.2,810,2.4S670.2,34,670.2,34
	L530.6,6.4c-6.2-1.2-12.5-1.2-18.7,0.2L398.8,23.1c0,0-108.6-19.3-125.3-19.3c-16.9,0-67.8,17.7-67.8,17.7L109.9,6
	c-3.1-0.7-6.2-1.1-9.3-1c-8,0.2-15.5,2.4-23.1,4.4C75.5,10,20.3,26.5,0,27v61.4h1171.8V24.5z"/>
</svg>
